<svg width="360" height="194" viewBox="0 0 360 194" fill="none" xmlns="http://www.w3.org/2000/svg">
<path d="M359.998 0.000108719V128.054C317.642 156.88 267.715 175.604 207.381 185.879C127.797 199.433 57.6709 194.495 0 182.25V0L359.998 0.000108719Z" fill="#CA005D"/>
<mask id="mask0_1714_22037" style="mask-type:alpha" maskUnits="userSpaceOnUse" x="0" y="0" width="360" height="194">
<path d="M360 0.000108719V128.056C317.644 156.882 267.716 175.606 207.382 185.881C127.798 199.435 57.6712 194.497 0 182.252L4.5528e-06 0L360 0.000108719Z" fill="#CA005D"/>
</mask>
<g mask="url(#mask0_1714_22037)">
<path d="M260.591 115.5C260.591 115.5 249.665 121.443 246.4 127.315C243.136 133.186 224.7 169.66 225.42 176.569C226.14 183.478 242.482 187.832 242.482 187.832L259.591 165.614L249.423 158.705L260.591 151.982V115.5Z" fill="#91004B"/>
<path d="M277.162 110.259L260.5 115.501C260.5 115.501 251.603 191.882 247.608 202.789C247.608 202.789 252.467 206.089 277.162 209.001C301.856 211.912 321 209.001 321 209.001C321 209.001 328.577 201.347 332.936 169.348C337.295 137.348 334.28 119.109 334.28 119.109L307.214 109.375L277.162 110.259Z" fill="#91004B"/>
<path d="M328.5 121.002C327.741 121.79 317.68 128.354 314.051 140.712C310.421 153.07 306.37 159.802 306.37 159.802L292.236 161.618L300.225 194.291C300.225 194.291 317.296 192.474 326.744 176.849C336.192 161.224 342 147.948 342 147.948C342 147.948 340.002 109.019 328.5 121.002Z" fill="#91004B"/>
<path d="M242.482 187.783C242.482 187.783 282.059 195.702 296.423 178.654L291.947 164.891C291.947 164.891 266.092 170.371 257.931 167.709L242.482 187.783Z" fill="#ECBA98"/>
<path d="M297.114 160.992C297.114 160.992 303.134 147.539 303.931 147.347C304.728 147.155 316.336 143.09 316.336 143.09C316.676 144.021 316.621 144.569 316.336 145.973L320.503 146.501C320.503 146.501 319.889 149.077 318.468 149.384L319.975 150.71C319.209 151.722 318.225 152.546 317.095 153.122C316.667 153.331 316.198 153.44 315.722 153.44C315.246 153.44 314.776 153.331 314.349 153.122C314.349 153.122 314.886 154.083 312.486 155.592C310.086 157.1 306.024 159.32 306.024 159.32L297.114 160.992Z" fill="#ECBA98"/>
<path d="M297.037 161.032V160.975C297.287 160.427 303.076 147.521 303.873 147.32C304.67 147.118 316.163 143.111 316.278 143.062C316.61 143.995 316.61 145.013 316.278 145.945L320.436 146.483C320.436 146.589 319.812 149.011 318.429 149.366L319.917 150.683C319.152 151.695 318.167 152.519 317.037 153.095C316.613 153.294 316.151 153.397 315.683 153.397C315.215 153.397 314.753 153.294 314.329 153.095C314.406 153.364 314.464 154.248 312.409 155.536C310.047 157.025 305.976 159.235 305.938 159.254L297.037 161.032ZM316.24 143.13C315.606 143.36 304.632 147.214 303.864 147.377C303.24 147.521 299.178 156.285 297.143 160.955L306.024 159.389C306.178 159.303 310.153 157.131 312.486 155.661C314.819 154.19 314.339 153.239 314.339 153.229L314.281 153.133L314.377 153.191C314.8 153.398 315.265 153.506 315.736 153.506C316.207 153.506 316.671 153.398 317.094 153.191C318.195 152.616 319.155 151.806 319.908 150.817L318.371 149.462H318.429C319.725 149.136 320.349 146.887 320.436 146.58L316.269 146.041C316.635 145.109 316.653 144.074 316.317 143.13H316.24Z" fill="#EB996E"/>
<path d="M315.971 146.067C316.029 146.231 312.62 147.557 308.367 149.027C307.311 149.412 306.254 149.7 305.429 150.094C304.695 150.456 304.089 151.032 303.691 151.747C303 153.005 302.731 153.909 302.635 153.87C302.675 153.052 302.902 152.253 303.297 151.535C303.695 150.711 304.349 150.037 305.16 149.613C306.137 149.171 307.141 148.789 308.165 148.47C312.399 146.961 315.913 145.904 315.971 146.067Z" fill="#E09C72"/>
<path d="M318.678 149.488C318.03 149.869 317.317 150.127 316.576 150.247C315.241 150.613 313.369 150.91 311.381 151.449C309.684 151.872 308.086 152.623 306.677 153.659C305.62 154.485 305.15 155.206 305.063 155.139C305.319 154.417 305.78 153.786 306.388 153.322C307.775 152.132 309.418 151.281 311.189 150.834C313.244 150.286 315.126 150.055 316.46 149.815C317.186 149.63 317.93 149.521 318.678 149.488V149.488Z" fill="#E09C72"/>
<path d="M308.04 155.62C307.915 155.495 309 154.361 310.815 153.698C312.629 153.035 314.185 153.237 314.166 153.4C314.146 153.564 312.706 153.689 311.036 154.294C309.365 154.899 308.155 155.764 308.04 155.62Z" fill="#E09C72"/>
<path d="M293.475 165.123C280.528 161.497 273.269 159.465 260.321 155.84L250.441 166.612C250.441 166.612 284.181 193.067 299.601 192.654" fill="#ECBA98"/>
<path opacity="0.3" d="M289.355 190.714C287.013 189.753 284.766 188.398 282.25 188.014C279.197 187.543 276.643 188.456 273.609 188.975C264.526 190.397 257.738 189.311 249.154 188.975L248.693 191.608C252.467 194.558 257.21 195.499 262.001 195.451C266.341 195.365 270.642 193.952 274.944 194.077C278.371 194.164 281.665 195.211 284.996 196.095C290.527 197.565 296.326 198.594 301.972 197.613C307.617 196.633 313.109 193.337 315.49 188.119C311.686 190.676 307.309 192.251 302.749 192.703C298.188 193.156 293.587 192.473 289.355 190.714Z" fill="black"/>
<path d="M251.853 166.356L239.064 166.827C237.787 166.827 236.586 165.703 236.049 163.867L226.323 130.993C225.362 127.86 226.745 124.363 228.934 124.266L247.33 123.113C248.723 123.027 250.009 124.372 250.489 126.429L257.085 154.219C258.478 160.081 255.847 166.212 251.853 166.356Z" fill="#83786F"/>
<path d="M304.718 120.189C305.238 119.156 305.492 118.01 305.457 116.854L304.123 73.1885C304.632 61.0325 297.997 50.5966 285.88 50.4141H284.757C279.277 50.6336 274.083 52.917 270.214 56.807C266.345 60.697 264.087 65.9063 263.893 71.3916C263.509 81.962 263.211 93.5799 263.528 99.2591C264.171 110.867 275.914 112.213 275.914 112.213L276.298 116.758C276.298 116.758 275.338 124.647 284.517 127.328C291.535 129.394 299.236 124.964 302.414 122.812C303.392 122.147 304.185 121.245 304.718 120.189V120.189Z" fill="#ECBA98"/>
<path d="M275.818 112.213C281.23 111.982 286.462 110.201 290.893 107.082C290.893 107.082 287.666 115.625 275.991 115.087L275.818 112.213Z" fill="#E09C72"/>
<path d="M302.701 84.6246C302.702 84.199 302.789 83.7781 302.956 83.3868C303.123 82.9954 303.367 82.6417 303.673 82.3467C303.979 82.0517 304.342 81.8215 304.739 81.6696C305.136 81.5178 305.56 81.4476 305.985 81.463C308.164 81.5783 310.642 82.7123 310.69 87.2287C310.786 95.2142 302.749 93.6575 302.74 93.4365C302.73 93.2154 302.711 87.9687 302.701 84.6246Z" fill="#FFBE9D"/>
<path d="M304.44 90.3528C304.44 90.3528 304.574 90.4489 304.814 90.5546C305.148 90.6825 305.517 90.6825 305.851 90.5546C306.696 90.2279 307.387 88.8826 307.407 87.4411C307.424 86.7581 307.283 86.0804 306.994 85.4616C306.917 85.2124 306.781 84.9858 306.597 84.8016C306.413 84.6173 306.187 84.481 305.938 84.4045C305.778 84.3641 305.61 84.3804 305.461 84.4505C305.312 84.5206 305.192 84.6402 305.122 84.7889C305.016 85.0195 305.122 85.1733 305.026 85.1925C304.929 85.2117 304.853 85.058 304.92 84.7313C304.956 84.5295 305.066 84.3483 305.227 84.2219C305.447 84.0557 305.722 83.98 305.995 84.0105C306.323 84.0696 306.631 84.2132 306.887 84.4272C307.142 84.6412 307.338 84.9182 307.455 85.2309C307.806 85.9171 307.981 86.68 307.964 87.4507C307.964 89.0651 307.128 90.5738 305.976 90.9294C305.761 90.99 305.536 91.0033 305.315 90.9685C305.095 90.9337 304.885 90.8515 304.699 90.7276C304.449 90.545 304.411 90.3624 304.44 90.3528Z" fill="#EB996E"/>
<path d="M273.729 83.2173C274.038 82.4048 275.399 82.7819 275.08 83.5568C274.388 85.3612 272.962 89.1211 276.389 88.5789C277.281 88.4265 277.625 89.7101 276.721 89.8555C275.225 90.1151 273.694 90.0832 273.009 88.6077C272.279 86.9233 273.08 84.8801 273.729 83.2173Z" fill="#E09C72"/>
<path d="M281.671 79.4048C281.723 79.6691 281.827 79.9203 281.978 80.1435C282.129 80.3666 282.323 80.5571 282.549 80.7035C282.775 80.85 283.028 80.9495 283.294 80.9961C283.559 81.0427 283.831 81.0354 284.093 80.9747C284.623 80.8487 285.082 80.521 285.374 80.0612C285.667 79.6014 285.768 79.0457 285.657 78.5121C285.606 78.2484 285.502 77.9978 285.351 77.775C285.201 77.5522 285.008 77.3619 284.783 77.2152C284.558 77.0685 284.306 76.9685 284.041 76.9211C283.777 76.8736 283.506 76.8797 283.244 76.939C282.711 77.0608 282.247 77.3877 281.952 77.8491C281.658 78.3104 281.557 78.8692 281.671 79.4048Z" fill="#353535"/>
<path d="M267.705 77.2008C267.574 77.4353 267.49 77.6935 267.46 77.9604C267.429 78.2274 267.452 78.4976 267.527 78.7556C267.602 79.0136 267.727 79.2541 267.896 79.4631C268.064 79.6722 268.272 79.8456 268.508 79.9734C268.749 80.107 269.013 80.1919 269.287 80.2233C269.56 80.2546 269.837 80.2317 270.101 80.1559C270.366 80.0801 270.613 79.9529 270.828 79.7816C271.043 79.6103 271.223 79.3981 271.356 79.1574C271.487 78.9236 271.571 78.6661 271.601 78.4C271.632 78.1338 271.61 77.8642 271.536 77.6067C271.462 77.3493 271.338 77.109 271.171 76.8999C271.003 76.6908 270.796 76.5169 270.562 76.3884C270.078 76.1308 269.512 76.0735 268.986 76.2288C268.46 76.3841 268.016 76.7396 267.749 77.2189" fill="#353535"/>
<path d="M287.396 75.0995C287.177 74.4823 286.798 73.9346 286.298 73.5128C285.797 73.0909 285.193 72.8103 284.548 72.6998C283.905 72.5803 283.242 72.615 282.615 72.8008C282.483 72.8285 282.358 72.8839 282.249 72.9631C282.139 73.0424 282.048 73.1438 281.981 73.2609C281.911 73.4278 281.89 73.6109 281.92 73.7892C281.951 73.9675 282.03 74.1337 282.15 74.2688C282.271 74.4038 282.427 74.5022 282.6 74.5526C282.774 74.603 282.958 74.6034 283.131 74.5537C283.194 74.5376 283.254 74.5169 283.313 74.4917L283.44 74.4483C283.776 74.3423 284.133 74.3172 284.48 74.375C284.828 74.4329 285.157 74.5721 285.441 74.7813C285.705 75.0056 285.929 75.2721 286.105 75.57L286.33 75.9605C286.408 76.0858 286.527 76.1801 286.667 76.2268C286.807 76.2736 286.959 76.27 287.097 76.2166L287.188 76.1857C287.324 76.1271 287.435 76.021 287.499 75.8871C287.564 75.7531 287.577 75.6004 287.538 75.4571C287.514 75.3737 287.487 75.2918 287.454 75.2115L287.396 75.0995Z" fill="#353535"/>
<path d="M272.272 72.6009C272.031 72.458 271.77 72.3522 271.498 72.2872L271.329 72.2187C270.916 72.0519 270.475 71.9682 270.03 71.9724C269.415 71.9755 268.809 72.1265 268.264 72.4127C267.719 72.6989 267.251 73.1119 266.898 73.6169C266.842 73.711 266.801 73.8131 266.776 73.9197C266.731 74.0562 266.734 74.204 266.786 74.3381C266.837 74.4722 266.933 74.5845 267.058 74.656L267.262 74.739C267.351 74.7596 267.443 74.7613 267.532 74.7438C267.621 74.7263 267.706 74.6902 267.78 74.6376C267.881 74.5667 267.975 74.4871 268.063 74.3997C268.254 74.1891 268.476 74.01 268.723 73.869C269.016 73.6664 269.359 73.549 269.714 73.53C270.069 73.511 270.423 73.5911 270.735 73.7614L270.984 73.8624C271.131 73.9493 271.282 74.028 271.438 74.098C271.634 74.2047 271.863 74.2324 272.079 74.1752C272.295 74.118 272.481 73.9804 272.598 73.7906C272.654 73.6912 272.69 73.5816 272.703 73.4683C272.716 73.3549 272.707 73.2401 272.675 73.1306C272.643 73.021 272.589 72.919 272.517 72.8304C272.446 72.7419 272.357 72.6687 272.256 72.6151" fill="#353535"/>
<path d="M280.005 97.1745C280.521 96.993 281.019 96.7646 281.493 96.4922C281.513 96.6466 281.502 96.8034 281.461 96.9536C281.42 97.1037 281.349 97.2441 281.253 97.3667C280.519 98.6356 279.475 99.6971 278.219 100.451C277.229 101.067 276.09 101.399 274.926 101.412C273.368 101.389 271.857 100.879 270.605 99.9516C270.077 99.5768 269.578 99.1444 269.069 98.7312C268.814 98.5135 268.591 98.2612 268.406 97.9817C268.786 97.9482 269.169 97.9482 269.549 97.9817C269.921 98.3165 270.338 98.5978 270.787 98.8177C271.299 99.167 271.89 99.3818 272.506 99.4423C273.51 99.5144 274.517 99.5144 275.521 99.4423C276.469 99.4002 277.4 99.1682 278.257 98.76C278.643 98.6241 278.997 98.4108 279.297 98.1332C279.598 97.8556 279.839 97.5196 280.005 97.1456" fill="#353535"/>
<path d="M280.004 97.1755C279.834 97.544 279.592 97.8745 279.292 98.147C278.992 98.4195 278.639 98.6284 278.256 98.761C277.4 99.1725 276.469 99.4077 275.52 99.4529C274.516 99.525 273.509 99.525 272.505 99.4529C271.889 99.3924 271.298 99.1776 270.786 98.8283C270.337 98.6084 269.92 98.3271 269.548 97.9923C269.74 97.9923 269.932 97.9923 270.124 97.9923C271.993 98.1011 273.868 98.0657 275.731 97.8866C277.062 97.8204 278.381 97.5945 279.658 97.2139C279.772 97.1853 279.887 97.1661 280.004 97.1562" fill="white"/>
<path d="M300.666 48.2618C291.276 41.6601 280.618 43.0247 271.007 50.3086C268.905 51.9038 267.983 51.7885 265.352 51.9423C256.442 52.4708 258.631 62.0034 260.609 63.6562C263.624 66.2219 269.519 65.8376 275.434 65.2514L278.18 64.9823C280.122 64.7784 282.075 64.7078 284.027 64.7709C284.555 64.7709 285.064 64.8574 285.553 64.9247L286.216 65.0304L286.686 65.1457C287.06 65.2306 287.426 65.3464 287.781 65.4916L289.068 66.097L289.548 66.3565C289.778 66.491 290.018 66.6159 290.249 66.7601C290.479 66.9042 290.633 67.0003 290.815 67.1252C290.987 67.2317 291.154 67.3472 291.314 67.4712C291.516 67.6249 291.718 67.7691 291.91 67.9324L292.255 68.2399C292.465 68.4197 292.664 68.6123 292.85 68.8165C292.918 68.8838 292.975 68.9607 293.043 69.0375C293.766 69.8649 294.329 70.8197 294.704 71.8531C294.906 72.3959 295.06 72.9554 295.164 73.5252C295.337 74.4861 295.933 75.1492 296.009 75.8603C296.153 77.2344 295.452 91.812 294.55 95.5405C294.144 96.9767 293.4 98.2947 292.38 99.3843C291.487 100.345 289.423 99.884 288.271 98.2696C286.062 95.1465 283.672 93.7339 278.928 93.4648C276.49 93.3111 271.046 93.8876 268.732 94.0606C264.891 94.3681 263.393 96.6071 263.393 97.9044C263.328 100.497 263.906 103.066 265.074 105.381C268.233 111.367 272.294 112.52 279.86 112.213H280.004C280.148 112.213 298.631 111.598 297.901 90.1111C297.853 88.7946 298.074 80.5016 298.448 79.3005C298.823 78.0993 300.484 78.8969 301.329 79.829L301.386 79.8962C301.557 80.0818 301.708 80.2847 301.837 80.5016L301.895 80.5977C302.168 81.0906 302.353 81.6271 302.442 82.1833C302.449 82.2408 302.449 82.2988 302.442 82.3563C302.49 82.6938 302.515 83.034 302.519 83.3749V83.5863C302.527 84.0131 302.508 84.44 302.462 84.8643C302.13 86.2207 301.726 87.5583 301.252 88.8715C301.042 89.5209 300.885 90.1861 300.781 90.8607C300.731 91.2108 300.705 91.564 300.704 91.9177C300.706 92.2781 300.735 92.6379 300.791 92.994C301.014 94.664 301.507 96.2867 302.25 97.7987C302.797 98.9403 303.439 100.033 304.171 101.066L304.929 102.075C305.332 102.584 305.995 102.421 306.542 101.96C307.665 100.854 308.681 99.6442 309.576 98.3464C315.875 87.6319 322.778 66.2604 307.464 52.1056C305.498 50.3538 303.18 49.0432 300.666 48.2618V48.2618ZM277.949 102.969C276.031 102.841 274.108 102.824 272.188 102.921C269.769 103.257 269.308 103.334 267.061 101.96C267.829 100.826 267.743 98.4137 268.021 98.4233C268.3 98.4329 272.179 97.7026 273.033 97.0876C273.225 96.9435 279.437 97.9909 281.588 97.0876C282.193 96.8858 283.432 99.5284 284.411 100.931C282.479 102.176 280.245 102.87 277.949 102.94" fill="#353535"/>
<path d="M261.468 156.182C261.468 156.182 259.831 155.553 257.967 150.95C257.577 149.985 257.176 144.443 257.165 144.692C255.663 139.49 253.756 139.991 253.756 139.991C252.685 139.991 252.603 142.584 252.348 143.98C252.264 145.073 252.431 146.172 252.838 147.197L252.102 150.119L248.127 143.142L242.611 136.797C242.214 136.599 241.774 136.505 241.332 136.524C240.891 136.543 240.463 136.675 240.091 136.906C238.743 137.715 239.535 139.373 239.984 139.972C240.432 140.571 244.25 146.448 244.25 146.448L245.87 150.95L244.965 151.403L241.059 146.104C241.059 146.104 236.359 138.782 235 137.903L234.916 137.87C234.661 137.718 234.367 137.645 234.072 137.66C233.777 137.675 233.494 137.778 233.261 137.955C233.028 138.132 232.855 138.375 232.765 138.652C232.675 138.93 232.672 139.228 232.757 139.509C233.648 142.536 235.2 147.7 235.413 147.627C235.627 147.554 240.645 154.772 240.645 154.772C240.645 154.772 234.758 149.916 234.371 149.174C231.352 138.652 230.43 139.719 230.43 139.719C230.43 139.719 229.561 139.542 228.695 141.297L228.345 143.258C228.345 143.258 228.026 143.633 227.429 144.486C226.832 145.34 227.665 153.15 227.665 153.15C227.665 153.15 236.294 164.133 240.246 165.368C247.348 167.588 252.194 166.887 252.194 166.887L257.165 166.343L261.468 156.182Z" fill="#ECBA98"/>
<path d="M238.891 131.931C238.774 131.634 238.576 131.388 238.326 131.228C238.075 131.068 237.786 131.003 237.5 131.043C237.334 130.995 237.16 130.987 236.991 131.02C236.822 131.054 236.661 131.128 236.519 131.237C236.377 131.346 236.257 131.488 236.168 131.653C236.079 131.819 236.022 132.004 236.001 132.196C235.988 132.59 236.094 132.976 236.302 133.293C236.51 133.609 236.807 133.836 237.144 133.937C237.397 134.015 237.663 134.021 237.918 133.953C238.174 133.886 238.41 133.747 238.605 133.55C238.795 133.346 238.924 133.082 238.976 132.792C239.027 132.502 238.997 132.201 238.891 131.931Z" fill="#E0E0E0"/>
</g>
</svg>
