<svg width="360" height="197" viewBox="0 0 360 197" fill="none" xmlns="http://www.w3.org/2000/svg">
<path d="M359.998 0.000108719V131.053C317.642 159.879 267.715 178.603 207.381 188.878C127.797 202.432 57.6709 197.494 0 185.25V0L359.998 0.000108719Z" fill="#CA005D"/>
<mask id="mask0_1714_22038" style="mask-type:alpha" maskUnits="userSpaceOnUse" x="0" y="7" width="360" height="190">
<path d="M360 7.6876V133.628C317.644 161.329 267.716 179.323 207.382 189.197C127.798 202.221 57.6712 197.476 0 185.71V7.6875L360 7.6876Z" fill="#CA005D"/>
</mask>
<g mask="url(#mask0_1714_22038)">
<path d="M315.388 97.4854C315.119 93.437 313.347 89.5737 310.859 86.2997C309.608 84.6477 308.128 83.043 307.684 81.0468C307.087 78.388 308.401 75.3378 306.89 73.0361C305.823 71.4142 303.711 70.7087 302.451 69.2201C301.191 67.7316 301.818 62.5517 295.446 61.2181C295.137 57.6042 295.119 56.0254 291.899 54.1195C288.679 52.2136 282.975 52.6826 281.742 56.1114C279.011 53.9173 274.011 51.8092 270.868 53.4182C268.931 54.4163 267.442 56.0512 265.644 57.2644C262.85 59.1401 259.433 59.9188 256.307 61.2396C253.182 62.5603 250.074 64.7458 249.37 67.9467C248.837 70.3086 249.698 72.7909 249.24 75.1657C248.854 77.1662 247.585 78.8828 246.603 80.6854C245.783 82.196 245.156 83.7966 244.738 85.4522C243.926 88.6788 244.375 92.839 247.518 94.2372C246.386 94.5472 245.404 95.2296 244.743 96.1647C244.083 97.0998 243.787 98.2281 243.907 99.3518C244.026 100.475 244.555 101.523 245.399 102.31C246.243 103.098 247.349 103.575 248.523 103.659C242.393 105.457 242.245 114.642 242.406 115.602C242.635 116.94 244.146 117.783 245.545 117.796C246.944 117.809 248.28 117.202 249.55 116.609C249.996 117.406 250.664 118.068 251.48 118.522C252.295 118.976 253.226 119.203 254.169 119.179C255.112 119.155 256.029 118.88 256.818 118.385C257.607 117.89 258.238 117.195 258.639 116.376C259.173 117.32 259.961 118.109 260.921 118.661C261.881 119.213 262.978 119.507 264.097 119.512C265.216 119.518 266.317 119.235 267.283 118.693C268.249 118.152 269.046 117.371 269.59 116.432L291.065 111.7C292.518 110.289 301.859 110.745 307.253 110.267C309.599 110.056 312.222 109.708 313.657 107.918C314.594 106.752 314.809 105.212 315.002 103.754C315.331 101.68 315.46 99.5817 315.388 97.4854V97.4854Z" fill="#353535"/>
<path d="M277.9 154.46L267.537 128.083L272.918 122.921L272.703 121.26C272.12 117.108 271.9 115.405 271.905 115.443C271.909 115.482 262.578 115.069 259.214 103.853C257.542 98.2606 256.64 88.9077 256.161 81.224C255.712 74.3061 259.389 65.3275 266.609 65.207L289.56 67.9733C290.618 67.954 291.645 68.3171 292.438 68.9904C293.23 69.6638 293.73 70.5984 293.838 71.6087L297.806 117.896L300.851 120.395L304.515 152.459L277.9 154.46Z" fill="#ECBA98"/>
<path d="M271.92 115.429C277.545 114.847 282.892 112.778 287.364 109.453C287.364 109.453 284.373 117.903 272.301 118.242L271.92 115.429Z" fill="#E09C72"/>
<path d="M292.533 85.9085C292.686 85.8139 298.892 83.0347 299.708 89.4234C300.524 95.8121 293.654 95.27 293.618 95.0893C293.583 94.9087 292.533 85.9085 292.533 85.9085Z" fill="#ECBA98"/>
<path d="M295.367 92.4246C295.394 92.3988 295.492 92.4892 295.703 92.5494C295.992 92.6316 296.302 92.6023 296.569 92.4677C297.241 92.1364 297.699 90.9963 297.587 89.8433C297.532 89.2937 297.353 88.7621 297.062 88.2859C296.975 88.0932 296.839 87.9239 296.668 87.7927C296.497 87.6615 296.295 87.5724 296.08 87.5331C295.942 87.5153 295.802 87.5442 295.684 87.6149C295.566 87.6856 295.478 87.7936 295.434 87.9203C295.367 88.1096 295.434 88.23 295.394 88.2472C295.353 88.2644 295.237 88.1569 295.255 87.8858C295.273 87.7238 295.347 87.5723 295.466 87.4556C295.548 87.378 295.645 87.317 295.752 87.2764C295.859 87.2357 295.974 87.2162 296.089 87.219C296.372 87.2384 296.644 87.3279 296.88 87.4787C297.116 87.6296 297.307 87.8366 297.434 88.0794C297.786 88.5958 298.001 89.1864 298.062 89.8003C298.179 91.091 297.645 92.3816 296.717 92.7559C296.545 92.827 296.358 92.8597 296.171 92.8515C295.983 92.8433 295.801 92.7945 295.636 92.7086C295.367 92.5838 295.327 92.4462 295.367 92.4246Z" fill="#DAA483"/>
<path d="M296.074 82.8203C295.899 78.488 295.707 74.0654 294.092 70.017C293.781 69.0796 293.227 68.2331 292.482 67.5562C291.815 67.0795 291.051 66.7411 290.24 66.5624C288.989 66.2225 288.648 65.4094 287.348 65.3191C282.415 61.2965 275.339 59.9198 269.083 61.5374C262.828 63.1551 257.509 67.6508 254.81 73.2996C252.152 79.0489 251.96 85.5709 254.276 91.4547C253.873 86.8342 256.913 82.532 260.639 79.6066C264.366 76.6811 268.823 74.7322 272.747 72.0778C272.713 72.7186 272.535 73.3449 272.226 73.9137C271.916 74.4825 271.482 74.9804 270.953 75.3732C274.061 74.573 277.204 73.7556 280.03 72.2671C280.682 71.9399 281.311 71.572 281.913 71.1657C281.977 71.8683 282.18 72.553 282.509 73.1834C283.568 75.1667 285.823 76.2251 287.55 77.7179C287.773 77.8863 287.951 78.103 288.07 78.3503C288.18 78.7583 288.151 79.1892 287.989 79.5808C287.551 80.8685 287.398 82.2298 287.541 83.5775C287.751 84.9111 288.532 86.2233 289.783 86.8041C289.316 87.5083 289.091 88.3348 289.139 89.168C289.186 90.0011 289.504 90.7991 290.047 91.4504C290.192 91.6511 290.407 91.7948 290.653 91.8548C291.056 91.9108 291.397 91.5709 291.63 91.2439C292.319 90.2919 292.791 89.2116 293.016 88.0732C293.057 87.5864 293.218 87.1159 293.487 86.7008C293.935 86.1545 294.765 86.0426 295.316 85.5823C296.097 84.9327 296.115 83.8227 296.074 82.8203Z" fill="#353535"/>
<path d="M274.364 149.937L307.723 148.84L310.817 192.55L281.624 192.937L274.364 149.937Z" fill="#EFEFEF"/>
<path d="M300.322 117.451C300.77 116.905 325.653 133.098 326.779 135.034C327.904 136.97 333.909 192.945 333.909 192.945H301.398C301.398 192.945 298.411 146.861 298.573 142.61C298.734 138.36 300.322 117.451 300.322 117.451Z" fill="#91004B"/>
<path d="M225.296 193.2C225.296 193.2 221.624 185.96 222.032 182.445C222.44 178.93 225.296 171.879 225.296 171.879L232.637 159.36C232.637 159.36 234.103 148.927 234.919 146.969C235.736 145.012 240.032 131.774 245.13 128.668C250.229 125.562 265.677 123.402 265.677 123.402L272.525 118.523C272.525 118.523 279.332 137.819 280.35 143.102C281.368 148.385 287.076 193.179 287.076 193.179L225.296 193.2Z" fill="#91004B"/>
<path opacity="0.3" d="M256.135 192.552C259.431 190.676 263.134 189.557 266.955 189.282C269.897 189.075 272.924 189.364 275.726 188.49C278.865 187.514 281.336 185.208 283.682 182.971C284.374 182.408 284.916 181.696 285.265 180.893C285.547 180.071 285.314 179.017 284.511 178.621C283.888 178.316 283.166 178.475 282.471 178.656C272.577 181.279 263.406 185.957 255.605 192.358" fill="black"/>
<path d="M309.533 123.263C309.533 123.263 309.21 123.319 308.636 123.457C307.836 123.652 307.059 123.926 306.318 124.274C305.804 124.506 305.309 124.775 304.838 125.079C304.296 125.416 303.823 125.846 303.443 126.348C303.031 126.899 302.823 127.567 302.851 128.245C302.868 128.597 302.974 128.94 303.161 129.243C303.36 129.547 303.647 129.789 303.986 129.94C304.322 130.098 304.701 130.153 305.071 130.099C305.249 130.074 305.421 130.016 305.575 129.926C305.729 129.837 305.862 129.719 305.968 129.579C306.154 129.301 306.258 128.98 306.271 128.65C306.284 128.32 306.204 127.993 306.04 127.703C305.882 127.442 305.669 127.215 305.414 127.038C305.159 126.861 304.868 126.737 304.56 126.675C304.015 126.545 303.446 126.545 302.901 126.675C302.114 126.902 301.383 127.276 300.748 127.776C300.3 128.116 300.035 128.322 300.026 128.31C300.017 128.297 300.076 128.245 300.183 128.142C300.291 128.039 300.466 127.888 300.69 127.712C301.318 127.174 302.058 126.771 302.86 126.528C303.428 126.372 304.028 126.354 304.605 126.477C304.942 126.541 305.262 126.674 305.542 126.866C305.822 127.058 306.056 127.305 306.228 127.591C306.415 127.915 306.507 128.281 306.493 128.651C306.48 129.021 306.362 129.38 306.152 129.691C305.907 130.016 305.538 130.236 305.125 130.301C304.708 130.364 304.28 130.302 303.901 130.125C303.519 129.955 303.197 129.683 302.972 129.342C302.768 129.007 302.653 128.629 302.636 128.241C302.607 127.514 302.833 126.799 303.277 126.21C303.68 125.698 304.177 125.26 304.744 124.919C305.227 124.618 305.734 124.352 306.259 124.124C307.016 123.786 307.811 123.532 308.627 123.366C308.919 123.31 309.147 123.285 309.3 123.267C309.377 123.256 309.455 123.255 309.533 123.263V123.263Z" fill="#EFEFEF"/>
<path opacity="0.3" d="M299.902 122.246C304.964 124.612 311.112 124.75 315.619 127.959C318.246 129.821 320.059 132.55 320.708 135.62C321.358 138.69 320.797 141.882 319.135 144.579C318.807 141.842 318.238 138.732 315.821 137.265C314.767 136.624 313.498 136.405 312.328 135.974C311.005 135.51 309.781 134.796 308.44 134.387C306.646 133.836 304.668 133.858 302.861 133.285C301.054 132.713 299.305 131.238 299.444 129.414L299.902 122.246Z" fill="black"/>
<path d="M319.054 143.828L318.336 135.176C318.336 135.176 313.444 134.268 311.708 133.21C309.973 132.151 306.776 129.962 306.776 129.962C306.776 129.962 306.009 132.603 304.43 132.754L303.013 132.909L302.991 127.57C302.991 127.57 302.717 129.962 300.673 130.332C300.224 130.418 300.197 130.332 300.197 130.332L298.816 123.358C298.816 123.358 297.17 125.397 294.175 124.038C294.175 124.038 299.031 115.906 299.982 115.605C300.933 115.304 306.036 115.197 306.036 115.197C306.036 115.197 313.139 114.766 313.928 115.059C314.717 115.352 315.82 116.556 315.82 116.556C315.82 116.556 324.175 124.261 326.856 126.843C329.538 129.424 330.793 133.21 330.959 134.587C331.125 135.963 332.305 141.621 332.305 141.621" fill="#ECBA98"/>
<path d="M332.313 141.607C332.297 141.56 332.283 141.513 332.272 141.465C332.25 141.362 332.219 141.224 332.174 141.035L331.824 139.396C331.676 138.677 331.497 137.795 331.286 136.758C331.183 136.242 331.075 135.683 330.976 135.085C330.923 134.788 330.896 134.474 330.828 134.164C330.761 133.854 330.676 133.536 330.582 133.213C330.134 131.79 329.489 130.431 328.663 129.174C328.2 128.462 327.667 127.795 327.071 127.182C326.447 126.554 325.748 125.938 325.057 125.285L315.734 116.62C315.455 116.315 315.155 116.028 314.837 115.76C314.54 115.479 314.181 115.265 313.788 115.131C313.362 115.074 312.932 115.049 312.501 115.058C312.053 115.058 311.604 115.058 311.156 115.058C309.362 115.097 307.537 115.205 305.658 115.291C304.721 115.316 303.775 115.351 302.82 115.402C302.344 115.428 301.869 115.458 301.389 115.497C300.917 115.523 300.449 115.591 299.99 115.699C299.803 115.816 299.638 115.961 299.501 116.13C299.349 116.31 299.201 116.491 299.053 116.68C298.761 117.059 298.488 117.446 298.214 117.842C297.667 118.625 297.143 119.434 296.618 120.251C295.802 121.542 295.017 122.798 294.255 124.058L294.205 123.904C294.949 124.263 295.784 124.412 296.613 124.334C297.421 124.231 298.163 123.852 298.703 123.267L298.864 123.09L298.909 123.314C299.38 125.702 299.842 128.047 300.29 130.288C300.29 130.223 300.264 130.241 300.259 130.228H300.313C300.355 130.232 300.397 130.232 300.438 130.228C300.529 130.218 300.619 130.202 300.708 130.18L300.968 130.112L301.214 130.013C301.536 129.865 301.821 129.652 302.048 129.389C302.489 128.849 302.771 128.206 302.864 127.526H303.08C303.08 129.367 303.093 131.146 303.12 132.861L303.008 132.766L304.389 132.62C304.819 132.568 305.213 132.366 305.497 132.052C306.053 131.426 306.461 130.692 306.694 129.901L306.734 129.785L306.838 129.853L309.86 131.858L311.286 132.805C311.725 133.12 312.206 133.377 312.716 133.57C313.671 133.934 314.649 134.237 315.645 134.478C316.586 134.715 317.488 134.908 318.335 135.081H318.38V135.128L318.882 141.512C318.936 142.247 318.976 142.81 319.003 143.203C319.003 143.388 319.026 143.534 319.03 143.633C319.035 143.732 319.03 143.78 319.03 143.78C319.03 143.78 319.03 143.732 319.008 143.633C318.985 143.534 319.008 143.388 318.963 143.203C318.927 142.812 318.878 142.248 318.806 141.512C318.676 140.028 318.488 137.868 318.25 135.136L318.299 135.188C317.447 135.029 316.542 134.835 315.609 134.599C314.604 134.361 313.617 134.061 312.654 133.7C312.133 133.505 311.641 133.244 311.192 132.925L309.766 131.983L306.73 129.987L306.873 129.939C306.639 130.764 306.216 131.528 305.636 132.177C305.322 132.523 304.886 132.747 304.412 132.805L303.03 132.955H302.918V132.848C302.9 131.127 302.882 129.347 302.864 127.509H303.075C302.98 128.23 302.683 128.912 302.214 129.483C301.97 129.771 301.664 130.004 301.317 130.167L301.048 130.275L300.761 130.348C300.667 130.372 300.571 130.389 300.474 130.4H300.317H300.228H300.169H300.129C300.129 130.4 300.098 130.4 300.08 130.314L298.694 123.4L298.896 123.447C298.32 124.082 297.523 124.492 296.654 124.6C295.782 124.692 294.902 124.542 294.116 124.17L293.999 124.119L294.062 124.015C294.824 122.748 295.612 121.476 296.425 120.199C296.95 119.382 297.479 118.573 298.03 117.782C298.304 117.386 298.582 116.994 298.873 116.611C299.021 116.422 299.169 116.237 299.322 116.052C299.479 115.85 299.673 115.678 299.896 115.544C300.377 115.43 300.868 115.359 301.362 115.334C301.847 115.291 302.326 115.265 302.806 115.235C303.76 115.189 304.706 115.153 305.645 115.127C307.51 115.045 309.353 114.938 311.147 114.903C311.595 114.903 312.044 114.903 312.492 114.903C312.942 114.897 313.392 114.924 313.837 114.985C314.264 115.128 314.652 115.359 314.976 115.661C315.293 115.93 315.593 116.217 315.873 116.521L325.174 125.211C325.864 125.87 326.555 126.481 327.187 127.117C327.786 127.742 328.32 128.421 328.784 129.144C329.609 130.416 330.252 131.789 330.694 133.226C330.794 133.543 330.876 133.865 330.941 134.19C331.003 134.508 331.03 134.818 331.08 135.115C331.174 135.713 331.277 136.268 331.371 136.789C331.573 137.825 331.743 138.712 331.878 139.434C332.012 140.157 332.124 140.695 332.201 141.078C332.236 141.258 332.263 141.396 332.281 141.508C332.299 141.62 332.313 141.607 332.313 141.607Z" fill="#E09C72"/>
<path d="M307.227 115.606C307.227 115.644 306.488 115.773 305.331 116.156C303.829 116.673 302.374 117.308 300.981 118.053C300.584 118.245 300.223 118.5 299.914 118.806C299.632 119.096 299.407 119.433 299.25 119.8C298.961 120.421 298.82 121.095 298.837 121.775C298.837 122.36 298.882 122.837 298.887 123.164C298.909 123.336 298.909 123.509 298.887 123.681C298.845 123.514 298.821 123.344 298.815 123.173C298.784 122.842 298.716 122.373 298.689 121.779C298.65 121.073 298.781 120.368 299.071 119.718C299.234 119.327 299.469 118.967 299.766 118.656C300.09 118.331 300.469 118.06 300.887 117.856C302.289 117.102 303.766 116.482 305.295 116.006C305.76 115.868 306.233 115.754 306.712 115.666C306.88 115.625 307.054 115.605 307.227 115.606V115.606Z" fill="#E09C72"/>
<path d="M312.56 117.129C312.335 117.213 312.104 117.28 311.869 117.331C311.421 117.46 310.775 117.632 310.003 117.916C309.1 118.25 308.23 118.661 307.403 119.142C306.927 119.405 306.425 119.684 305.896 119.951C305.367 120.218 304.784 120.45 304.264 120.764C304.009 120.908 303.787 121.099 303.612 121.327C303.436 121.555 303.31 121.814 303.241 122.089C303.101 122.617 303.008 123.155 302.963 123.698C302.896 124.625 302.896 125.555 302.963 126.482C303.004 127.278 303.039 127.923 303.053 128.37C303.074 128.601 303.074 128.833 303.053 129.063C303.007 128.836 302.98 128.606 302.972 128.375C302.927 127.889 302.873 127.256 302.806 126.49C302.72 125.556 302.708 124.617 302.77 123.681C302.81 123.124 302.902 122.571 303.044 122.029C303.123 121.735 303.257 121.456 303.439 121.207C303.635 120.955 303.88 120.74 304.16 120.575C304.717 120.244 305.291 120.029 305.811 119.758C306.331 119.486 306.838 119.22 307.317 118.962C308.161 118.487 309.048 118.086 309.968 117.766C310.591 117.56 311.226 117.387 311.869 117.249C312.095 117.188 312.326 117.148 312.56 117.129Z" fill="#E09C72"/>
<path d="M315.159 119.398C314.975 119.489 314.781 119.561 314.581 119.614C314.209 119.743 313.684 119.928 313.02 120.19C311.308 120.834 309.75 121.806 308.442 123.047C307.75 123.745 307.221 124.576 306.89 125.486C306.619 126.232 306.48 127.015 306.478 127.805C306.504 128.53 306.609 129.251 306.792 129.956C306.792 129.956 306.76 129.913 306.724 129.818C306.664 129.678 306.613 129.534 306.572 129.388C306.414 128.866 306.329 128.327 306.316 127.783C306.293 126.974 306.417 126.168 306.684 125.4C307.014 124.456 307.556 123.592 308.271 122.87C309.6 121.606 311.199 120.634 312.957 120.022C313.621 119.777 314.173 119.614 314.554 119.51C314.751 119.453 314.954 119.416 315.159 119.398Z" fill="#E09C72"/>
<path d="M317.863 124.8C317.863 124.8 317.831 124.839 317.751 124.886C317.634 124.954 317.504 124.999 317.369 125.02C316.874 125.074 316.372 125 315.917 124.805C315.609 124.687 315.291 124.598 314.966 124.538C314.599 124.488 314.226 124.529 313.881 124.658C313.086 125.008 312.334 125.441 311.639 125.949C310.918 126.418 310.295 127.014 309.804 127.704C309.48 128.329 309.083 128.916 308.621 129.455C308.424 129.654 308.198 129.822 307.948 129.954C307.756 130.054 307.539 130.101 307.32 130.092C307.184 130.088 307.05 130.065 306.921 130.023C306.831 129.993 306.791 129.976 306.791 129.967C306.791 129.959 306.984 130.01 307.32 130.006C307.521 129.996 307.716 129.94 307.89 129.842C308.119 129.708 308.326 129.541 308.504 129.348C308.936 128.799 309.31 128.211 309.621 127.592C310.122 126.876 310.765 126.261 311.513 125.781C311.899 125.514 312.284 125.273 312.656 125.041C313.015 124.806 313.402 124.614 313.809 124.469C314.188 124.333 314.598 124.295 314.997 124.357C315.332 124.428 315.66 124.529 315.975 124.658C316.404 124.86 316.879 124.956 317.356 124.938C317.53 124.909 317.699 124.863 317.863 124.8V124.8Z" fill="#E09C72"/>
<path d="M337.07 189.995C334.914 191.659 332.169 192.455 329.414 192.214C326.659 191.973 324.109 190.715 322.303 188.705C320.24 186.39 318.599 183.542 318.854 180.5C319.487 172.864 319.106 142.611 319.106 142.611L331.76 139.492C331.76 139.492 341.514 176.061 341.989 182.441C342.186 185.233 339.801 187.892 337.07 189.995Z" fill="#ECBA98"/>
<path d="M235.162 177.178H249.686L257.718 174.468L260.059 168.497C260.059 168.497 264.772 165.055 269.677 169.4C274.583 173.745 277.597 182.427 277.597 182.427L264.592 186.772C264.592 186.772 256.485 192.589 255.538 192.606L229.579 192.941C229.579 192.941 229.314 181.881 235.162 177.178Z" fill="#ECBA98"/>
<path d="M268.386 174.37L266.668 148.053C266.656 147.82 266.693 147.586 266.777 147.367C266.861 147.148 266.992 146.947 267.159 146.778C267.327 146.608 267.529 146.473 267.753 146.381C267.977 146.289 268.219 146.242 268.462 146.242H283.417C283.879 146.242 284.322 146.412 284.656 146.717C284.99 147.022 285.189 147.439 285.211 147.881L286.292 174.193C286.3 174.424 286.259 174.654 286.172 174.869C286.086 175.084 285.955 175.281 285.787 175.447C285.62 175.612 285.42 175.744 285.198 175.834C284.977 175.924 284.739 175.97 284.498 175.97H270.148C269.699 175.964 269.269 175.796 268.942 175.499C268.616 175.203 268.417 174.8 268.386 174.37V174.37Z" fill="#83786F"/>
<path d="M284.557 162.551C284.536 162.446 284.526 162.339 284.525 162.233C284.525 162 284.512 161.695 284.485 161.316C284.458 160.494 284.422 159.35 284.377 157.948C284.333 156.545 284.297 154.829 284.247 152.953C284.226 152.012 284.203 151.028 284.176 150.001C284.2 149.494 284.141 148.986 284.001 148.496C283.918 148.26 283.761 148.054 283.552 147.906C283.337 147.764 283.087 147.677 282.826 147.652C282.273 147.622 281.719 147.622 281.167 147.652L279.543 147.687L276.467 147.743L271.256 147.829L269.256 147.855C268.758 147.829 268.259 147.859 267.768 147.945C267.618 147.982 267.48 148.051 267.362 148.146C267.244 148.241 267.15 148.361 267.086 148.496C267.054 148.595 267.034 148.697 267.028 148.801C266.989 148.698 266.989 148.586 267.028 148.483C267.085 148.334 267.178 148.2 267.299 148.092C267.421 147.984 267.568 147.906 267.727 147.863C268.223 147.758 268.731 147.713 269.239 147.73L271.239 147.67L276.449 147.536L279.521 147.467L281.149 147.429C281.713 147.399 282.279 147.399 282.844 147.429C283.143 147.461 283.429 147.563 283.678 147.726C283.919 147.902 284.1 148.143 284.198 148.418C284.346 148.932 284.408 149.465 284.382 149.997C284.403 151.021 284.422 152.005 284.44 152.948C284.467 154.824 284.494 156.515 284.521 157.943C284.548 159.372 284.521 160.494 284.552 161.312V162.228C284.564 162.335 284.566 162.443 284.557 162.551Z" fill="#9A9A9A"/>
<path d="M276.208 152.325C276.126 152.147 275.986 151.998 275.809 151.902C275.632 151.806 275.428 151.767 275.226 151.791C275.109 151.762 274.986 151.758 274.867 151.778C274.747 151.798 274.634 151.842 274.533 151.908C274.433 151.973 274.349 152.059 274.286 152.158C274.223 152.257 274.182 152.369 274.168 152.484C274.159 152.72 274.233 152.953 274.38 153.143C274.527 153.333 274.737 153.469 274.975 153.53C275.153 153.577 275.341 153.58 275.521 153.539C275.702 153.499 275.868 153.416 276.006 153.297C276.14 153.175 276.232 153.016 276.268 152.842C276.304 152.668 276.283 152.487 276.208 152.325Z" fill="#E0E0E0"/>
<path d="M259.771 169.225V166.545C259.771 166.545 262.515 160.35 262.434 160.578C262.353 160.806 267.295 157.566 267.295 157.566C267.464 158.93 267.409 160.31 267.134 161.658C266.812 162.67 266.256 163.6 265.506 164.377L265.116 167.268L271.331 162.411L278.735 158.672C279.172 158.635 279.613 158.708 280.013 158.883C280.413 159.058 280.759 159.329 281.017 159.67C281.963 160.879 280.627 162.088 279.995 162.467C279.362 162.845 273.694 166.769 273.694 166.769L270.555 170.241L271.223 170.972L276.761 167.599C276.761 167.599 283.77 162.69 285.344 162.385H285.434C285.724 162.339 286.022 162.378 286.288 162.498C286.555 162.617 286.778 162.81 286.928 163.053C287.078 163.295 287.148 163.575 287.13 163.857C287.111 164.138 287.005 164.408 286.824 164.631C284.896 167.035 281.578 171.127 281.407 170.985C281.237 170.843 273.972 175.545 273.972 175.545C273.972 175.545 281.174 173.278 281.802 172.749C282.43 172.22 288.891 165.65 288.891 165.65C288.891 165.65 289.757 165.801 289.914 167.689L289.519 169.578C289.519 169.578 289.676 170.03 289.914 171.011C290.152 171.992 286.528 178.72 286.528 178.72C286.528 178.72 272.353 186.197 271.013 186.275C269.672 186.352 264.735 186.275 264.735 186.275L259.771 169.225Z" fill="#ECBA98"/>
<path d="M289.408 169.332C289.34 169.532 289.248 169.724 289.134 169.904C288.841 170.405 288.513 170.887 288.152 171.345C287.704 171.935 287.148 172.606 286.583 173.393C285.96 174.252 285.249 175.049 284.462 175.772C282.99 177.041 281.348 178.113 279.578 178.96C278.906 179.296 278.359 179.554 277.977 179.73C277.786 179.833 277.583 179.915 277.372 179.976C277.55 179.852 277.739 179.744 277.937 179.653C278.341 179.434 278.87 179.158 279.498 178.823C281.228 177.942 282.841 176.863 284.3 175.609C285.079 174.895 285.786 174.113 286.412 173.273C286.986 172.49 287.56 171.823 288.022 171.251C288.484 170.679 288.834 170.201 289.058 169.861C289.163 169.678 289.28 169.501 289.408 169.332Z" fill="#E09C72"/>
<path d="M238.109 175.633C237.178 176.051 236.3 176.572 235.495 177.186C233.613 178.744 232.191 180.75 231.374 183.002C230.585 185.263 230.09 187.608 229.898 189.985C229.813 190.871 229.742 191.598 229.688 192.136L229.62 192.725C229.621 192.794 229.609 192.863 229.585 192.928C229.575 192.859 229.575 192.79 229.585 192.721C229.585 192.562 229.585 192.364 229.585 192.132C229.585 191.62 229.652 190.875 229.728 189.981C229.877 187.583 230.359 185.214 231.159 182.938C231.987 180.649 233.452 178.621 235.396 177.074C235.991 176.618 236.641 176.234 237.333 175.93C237.519 175.845 237.709 175.771 237.903 175.706C237.969 175.676 238.038 175.651 238.109 175.633V175.633Z" fill="#BA5E49"/>
<path d="M269.579 91.7902C269.803 91.1018 270.924 91.36 270.713 92.0698C270.211 93.6014 269.175 96.828 272.018 96.3032C272.749 96.1698 273.081 97.254 272.345 97.3916C271.108 97.6196 269.834 97.6024 269.206 96.3591C268.502 94.9437 269.112 93.1755 269.565 91.7902" fill="#E09C72"/>
<path d="M275.849 101.669C276.331 101.51 276.797 101.307 277.239 101.062C277.272 101.343 277.188 101.624 277.006 101.845C276.328 102.973 275.36 103.915 274.194 104.582C273.28 105.134 272.225 105.432 271.145 105.442C269.704 105.421 268.306 104.97 267.145 104.151C266.656 103.82 266.198 103.429 265.728 103.067C265.491 102.875 265.284 102.652 265.113 102.405C265.465 102.373 265.82 102.373 266.172 102.405C266.516 102.702 266.902 102.951 267.32 103.145C267.793 103.455 268.341 103.646 268.911 103.7C269.84 103.762 270.772 103.762 271.701 103.7C272.58 103.661 273.442 103.452 274.234 103.085C274.592 102.964 274.919 102.774 275.197 102.527C275.475 102.28 275.697 101.981 275.849 101.648" fill="#353535"/>
<path d="M275.847 101.668C275.695 102.001 275.473 102.3 275.196 102.547C274.918 102.795 274.59 102.984 274.233 103.105C273.44 103.472 272.578 103.682 271.699 103.72C270.77 103.782 269.838 103.782 268.91 103.72C268.339 103.667 267.791 103.476 267.318 103.165C266.901 102.972 266.514 102.723 266.17 102.425C266.345 102.425 266.524 102.425 266.704 102.425C268.434 102.526 270.171 102.496 271.896 102.335C273.129 102.273 274.35 102.072 275.533 101.737C275.636 101.709 275.741 101.691 275.847 101.681" fill="#EFEFEF"/>
<path d="M276.19 88.0024C276.194 88.2227 276.244 88.4401 276.337 88.6416C276.43 88.8432 276.563 89.0248 276.731 89.176C276.898 89.3271 277.095 89.4446 277.31 89.5216C277.525 89.5986 277.754 89.6336 277.984 89.6243C278.446 89.5989 278.88 89.4028 279.195 89.0773C279.51 88.7517 279.682 88.3219 279.674 87.8777C279.671 87.657 279.621 87.4392 279.529 87.2371C279.436 87.0351 279.302 86.8529 279.135 86.7013C278.968 86.5497 278.771 86.4318 278.555 86.3545C278.34 86.2773 278.11 86.2422 277.881 86.2514C277.416 86.2748 276.979 86.4705 276.662 86.7972C276.345 87.1239 276.172 87.5561 276.181 88.0024" fill="#353535"/>
<path d="M261.854 88.4672C261.869 88.774 261.979 89.0697 262.168 89.3174C262.357 89.565 262.618 89.7536 262.919 89.8596C263.219 89.9655 263.546 89.9841 263.857 89.913C264.169 89.8419 264.451 89.6843 264.67 89.4598C264.888 89.2354 265.033 88.9541 265.086 88.6512C265.139 88.3482 265.097 88.0371 264.967 87.7567C264.836 87.4763 264.622 87.239 264.352 87.0746C264.081 86.9102 263.766 86.8259 263.446 86.8324C263.009 86.8481 262.596 87.0294 262.298 87.3366C261.999 87.6438 261.84 88.0518 261.854 88.4715" fill="#353535"/>
<path d="M282.02 85.2465C281.679 83.8268 280.894 82.9233 279.625 82.4845C279.007 82.2574 278.342 82.172 277.684 82.235C277.414 82.2533 277.162 82.3703 276.98 82.5619C276.9 82.6551 276.844 82.7642 276.815 82.8811C276.785 82.998 276.783 83.1197 276.809 83.2374C276.822 83.3571 276.86 83.473 276.922 83.5775C276.985 83.6821 277.069 83.773 277.17 83.8443C277.271 83.9157 277.386 83.9659 277.509 83.9918C277.631 84.0177 277.758 84.0186 277.881 83.9945C277.944 83.9945 278.002 83.9945 278.065 83.9687C278.111 83.9645 278.158 83.9645 278.204 83.9687C278.555 83.9246 278.912 83.9609 279.245 84.0746C279.579 84.1882 279.88 84.376 280.123 84.6227C280.344 84.8789 280.517 85.1701 280.634 85.4831L280.796 85.9133C280.85 86.0456 280.95 86.1557 281.079 86.2248C281.208 86.2939 281.359 86.3176 281.504 86.2919H281.599C281.743 86.2594 281.872 86.1783 281.96 86.063C282.048 85.9478 282.09 85.8062 282.078 85.6638C282.073 85.5812 282.061 85.4992 282.042 85.4186L282.02 85.2465Z" fill="#353535"/>
<path d="M263.977 82.8939C263.702 82.8357 263.419 82.8212 263.139 82.8509H262.955C262.508 82.8527 262.066 82.939 261.654 83.1048C260.183 83.6468 259.65 84.7783 259.354 85.7076C259.325 85.8083 259.316 85.9134 259.327 86.0173C259.336 86.1554 259.396 86.286 259.495 86.3865C259.594 86.4871 259.726 86.5513 259.87 86.568C259.941 86.5809 260.014 86.5809 260.085 86.568C260.175 86.5572 260.262 86.5277 260.339 86.4817C260.417 86.4356 260.483 86.3741 260.533 86.3013C260.603 86.2003 260.663 86.0938 260.713 85.9829C260.81 85.7262 260.947 85.4853 261.121 85.2688C261.321 84.9835 261.598 84.7558 261.923 84.6103C262.247 84.4648 262.607 84.4068 262.964 84.4427L263.237 84.4685C263.403 84.4685 263.574 84.503 263.74 84.5073C263.966 84.5367 264.195 84.4823 264.381 84.3552C264.566 84.2281 264.695 84.0379 264.74 83.8232C264.755 83.7136 264.748 83.6022 264.718 83.4954C264.688 83.3886 264.635 83.2887 264.564 83.2017C264.493 83.1146 264.405 83.0421 264.304 82.9885C264.203 82.9349 264.092 82.9013 263.977 82.8896" fill="#353535"/>
</g>
</svg>
