<svg width="229" height="204" viewBox="0 0 229 204" fill="none" xmlns="http://www.w3.org/2000/svg">
<path d="M73.0307 195.578C72.7959 195.682 72.8708 195.949 73.0093 196.165L76.366 201.403C77.2853 202.837 78.8718 203.705 80.5756 203.705H157.576C159.752 203.705 161.678 202.297 162.339 200.224L163.664 196.072C163.741 195.831 163.752 195.563 163.518 195.465C163.505 195.46 163.491 195.454 163.477 195.449C163.263 195.366 162.943 195.291 162.537 195.228C162.13 195.165 161.646 195.116 161.113 195.084C160.581 195.051 160.011 195.036 159.44 195.039L77.0601 195.142C76.4792 195.141 75.9023 195.158 75.3661 195.193C74.8299 195.228 74.3461 195.28 73.9455 195.345C73.545 195.411 73.2364 195.489 73.0394 195.574C73.0365 195.575 73.0336 195.577 73.0307 195.578Z" fill="#9A9A9A"/>
<path d="M215.609 170.674C215.34 168.149 214.174 165.893 213.037 163.721C209.654 157.262 206.26 150.794 202.857 144.318C197.958 134.948 192.907 125.42 185.754 118.251C179.983 112.47 173.051 108.445 167.025 103.051C160.999 97.657 155.674 90.091 155.218 81.2501C155.012 77.1802 155.85 73.1201 155.708 69.0454C155.419 59.4248 149.917 51.2214 144.675 43.7681L138.052 34.3584C134.906 29.8865 131.389 25.1449 126.534 23.8896C122.125 22.7471 117.603 24.7673 113.419 26.7483C107.256 29.6658 100.941 32.6962 96.1301 38.0262C93.9762 40.5426 92.0759 43.2658 90.457 46.1561C83.7406 57.5458 78.4413 69.715 74.677 82.3926C73.6188 85.9377 72.6635 89.6644 73.0897 93.3763C73.3052 95.2592 73.8539 97.299 73.1289 98.976C72.6482 99.908 71.9652 100.721 71.1301 101.354C63.2915 108.327 56.7708 117.099 50.3236 125.803L43.0044 135.693C37.8309 142.675 32.6428 149.687 28.3071 157.401C25.3676 162.613 22.8299 168.237 21.8207 174.342C20.8115 180.447 21.3308 190.342 24.4319 195.427H199.854C203.019 194.098 206.82 191.386 209.529 188.949C212.508 186.272 213.748 181.8 214.771 177.593C215.31 175.327 215.859 172.998 215.609 170.674Z" fill="#EBEBEB"/>
<path d="M47.561 109.371L47.4086 109.406L47.561 109.371Z" fill="#EBEBEB"/>
<path d="M68.7245 76.9987C68.0876 69.2905 62.7525 61.5676 55.1295 60.2927C50.9212 59.5915 45.9241 61.445 44.6014 65.5051C42.97 70.5164 47.4183 76.376 44.9149 81.0147C42.9553 84.6334 38.017 85.1581 34.715 87.6098C30.0363 91.0863 29.4827 98.5298 32.8435 103.301C36.2043 108.072 41.7746 110.166 47.5408 109.391C53.0768 108.067 59.3819 103.791 62.2871 98.9171C66.2407 92.2484 69.3614 84.7119 68.7245 76.9987Z" fill="#EBEBEB"/>
<path d="M169.989 7.64942C168.029 3.66782 163.62 1.43676 159.245 0.681625C150.765 -0.789408 144.675 -0.299063 139.247 6.39414C137.15 8.73308 135.979 12.2243 135.137 15.2203C134.157 18.6527 134.72 22.5755 137.067 25.2234C139.414 27.8712 143.666 28.8421 146.679 26.9886C149.986 24.9488 151.201 20.2709 154.802 18.8097C158.314 17.3877 162.41 19.7315 166.045 18.6675C170.297 17.3975 171.939 11.631 169.989 7.64942Z" fill="#EBEBEB"/>
<path d="M178.949 89.0843C183.266 86.702 184.836 81.268 182.456 76.947C180.076 72.6261 174.647 71.0546 170.329 73.4369C166.012 75.8192 164.442 81.2533 166.822 85.5742C169.203 89.8951 174.632 91.4667 178.949 89.0843Z" fill="#EBEBEB"/>
<path d="M228.773 195.412C228.773 195.481 177.558 195.54 114.394 195.54C51.2298 195.54 0 195.481 0 195.412C0 195.343 51.2102 195.285 114.394 195.285C177.577 195.285 228.773 195.343 228.773 195.412Z" fill="#263238"/>
<path d="M155.992 111.372L144.273 106.307H89.0803C86.5537 107.853 83.9505 109.27 81.2809 110.553C79.1449 111.534 68.3767 118.286 68.3767 118.286L75.838 195.172L162.998 195.402L168.877 116.633L155.992 111.372Z" fill="#665F59"/>
<path d="M68.3766 118.286C68.3766 118.286 51.411 137.581 50.8231 139.16C50.2352 140.739 45.7036 148.815 45.7036 148.815C45.7036 148.815 38.6146 152.164 37.6299 153.939C36.6451 155.714 34.6904 159.455 34.6904 159.455C34.6904 159.455 20.7182 176.269 19.4052 181.844C17.9355 188.013 21.3649 195.412 21.3649 195.412H65.344L68.7293 181.055C69.1506 180.314 68.6607 179.544 67.8377 179.319C65.4126 178.652 63.5902 178.338 61.9294 176.548L62.238 174.239L70.4048 167.972L77.7975 162.284L68.3766 118.286Z" fill="#665F59"/>
<path d="M162.998 157.582C162.963 157.788 169.523 162.412 169.523 162.412L175.544 171.576C174.164 172.865 172.661 174.014 171.057 175.009L166.981 176.411L166.77 177.367L167.417 180.702C168.656 187.12 173.864 193.941 180.252 195.299L181.134 195.27L211.371 195.402C213.958 191.215 216.447 187.905 216.026 183.467L215.31 176.029L203.626 160.338L186.357 135.374C186.357 135.374 174.452 118.933 168.857 116.653L162.978 130.662L162.998 157.582Z" fill="#665F59"/>
<path d="M73.4717 141.087C73.4236 140.81 73.4007 140.529 73.4032 140.248C73.3787 139.709 73.3248 138.929 73.2415 137.968C72.8158 132.949 71.6348 128.022 69.7386 123.356C69.3761 122.464 69.0675 121.743 68.847 121.252C68.7178 121.003 68.6112 120.742 68.5286 120.473C68.6805 120.708 68.8163 120.954 68.9352 121.208C69.185 121.699 69.5182 122.4 69.915 123.287C71.9087 127.941 73.0981 132.901 73.4326 137.953C73.4913 138.934 73.5158 139.704 73.5109 140.248C73.5166 140.528 73.5035 140.808 73.4717 141.087Z" fill="#263238"/>
<path d="M160.587 141.322C160.576 141.243 160.576 141.162 160.587 141.082C160.587 140.896 160.587 140.67 160.587 140.396C160.587 140.121 160.587 139.729 160.617 139.307C160.646 138.885 160.651 138.4 160.71 137.865C160.817 136.617 160.988 135.374 161.224 134.144C161.525 132.639 161.909 131.153 162.376 129.691C162.856 128.233 163.421 126.804 164.066 125.411C164.597 124.276 165.188 123.169 165.834 122.096C166.099 121.63 166.373 121.233 166.604 120.875C166.834 120.517 167.044 120.223 167.221 119.982L167.632 119.428C167.678 119.362 167.731 119.302 167.789 119.247C167.759 119.321 167.722 119.392 167.676 119.458L167.304 120.036C167.138 120.286 166.942 120.59 166.726 120.953C166.51 121.316 166.236 121.718 165.986 122.189C165.452 123.106 164.869 124.234 164.276 125.509C162.994 128.284 162.036 131.198 161.42 134.193C161.151 135.571 160.96 136.826 160.852 137.885C160.783 138.41 160.759 138.895 160.725 139.317C160.69 139.738 160.666 140.101 160.656 140.396C160.646 140.69 160.622 140.886 160.612 141.082C160.616 141.163 160.608 141.244 160.587 141.322Z" fill="#263238"/>
<path opacity="0.3" d="M61.9392 176.455C60.1511 171.091 53.9145 167.281 50.0687 164.113C47.7808 162.235 44.9149 160.651 41.995 161.171C40.9221 161.353 39.81 161.907 39.4181 162.922C39.0262 163.937 39.7855 165.339 40.8878 165.217C38.4775 166.496 36.4786 167.497 34.0291 168.776C33.7499 168.872 33.4992 169.036 33.2997 169.254C33.1003 169.471 32.9586 169.735 32.8876 170.022C32.7847 170.439 32.6377 170.802 33.0444 170.674C38.2521 169.041 42.2057 169.777 42.2057 169.777C42.2057 169.777 43.3227 169.453 47.3938 169.605C51.7589 169.767 54.5367 169.816 61.9392 176.47" fill="black"/>
<path opacity="0.3" d="M175.393 171.503C177.436 166.938 180.899 163.858 185.504 161.98C188.179 160.887 191.427 160.539 193.833 162.147C195.048 162.966 196.155 164.432 195.356 166.31C194.347 168.674 191.006 168.218 190.129 168.325C190.129 168.325 186.509 167.58 183.295 168.222C180.081 168.865 179.214 169.566 175.549 171.576" fill="black"/>
<path d="M68.7246 181.055C68.7246 181.055 68.7883 180.893 68.8373 180.564C68.8523 180.477 68.8523 180.387 68.8373 180.3C68.8373 180.255 68.8373 180.206 68.8373 180.152L68.7736 180C68.635 179.78 68.4311 179.609 68.1906 179.51C67.4936 179.253 66.78 179.043 66.0546 178.882C65.6019 178.76 65.157 178.611 64.722 178.436C64.2398 178.228 63.7746 177.982 63.3307 177.701C62.3329 177.028 61.3953 176.27 60.5284 175.435C59.5441 174.485 58.4876 173.613 57.3685 172.827C54.739 171.109 51.7374 170.045 48.6138 169.723C45.4862 169.381 42.3218 169.666 39.3055 170.561C36.8467 171.285 34.4882 172.315 32.2851 173.626C30.7951 174.503 29.3632 175.476 27.9984 176.539C27.5085 176.911 27.1411 177.21 26.8912 177.416L26.6021 177.647C26.5385 177.696 26.5042 177.72 26.4993 177.715L26.5875 177.622L26.8618 177.377C27.097 177.161 27.4595 176.847 27.9347 176.46C29.2811 175.363 30.7038 174.364 32.192 173.469C34.399 172.128 36.7682 171.075 39.2418 170.336C42.2793 169.42 45.4698 169.125 48.6236 169.468C51.7851 169.803 54.8198 170.895 57.4714 172.65C58.5971 173.446 59.657 174.332 60.6411 175.298C61.5074 176.133 62.4432 176.892 63.4384 177.568C65.256 178.819 67.1226 178.887 68.2445 179.441C68.5029 179.556 68.7164 179.752 68.852 180L68.9156 180.167V180.324C68.9337 180.416 68.9337 180.511 68.9156 180.604C68.8956 180.725 68.8594 180.844 68.8079 180.957L68.7246 181.055Z" fill="#263238"/>
<path opacity="0.3" d="M60.4401 180.045C56.9764 181.452 54.0713 184.585 52.386 187.929C51.8201 189.169 51.5213 190.514 51.509 191.877C51.5482 192.882 51.7687 193.632 52.6456 194.221C53.4073 194.695 54.2109 195.099 55.0462 195.427C56.9519 195.368 63.0758 195.461 64.9815 195.402C67.4654 195.329 68.5873 194.015 68.6069 193.843C68.7293 192.612 70.4783 189.464 70.7478 187.13C70.7478 187.012 70.7772 186.89 70.7968 186.757C70.9391 185.764 70.8528 184.752 70.5445 183.797C70.2362 182.842 69.714 181.971 69.0178 181.249C68.3216 180.527 67.4698 179.974 66.5275 179.632C65.5851 179.29 64.5771 179.168 63.5804 179.275C62.5029 179.384 61.446 179.643 60.4401 180.045Z" fill="black"/>
<path d="M60.4401 180.045L68.7244 181.055C68.7244 181.055 83.3139 177.382 86.1603 178.157C88.7225 178.858 97.6291 186.169 99.3879 187.611C99.5827 187.771 99.7216 187.989 99.7847 188.233C99.9174 188.749 99.8457 189.297 99.5846 189.761C99.3234 190.225 98.8931 190.57 98.3835 190.724L98.1778 190.783L98.2317 191.077C98.3078 191.459 98.3178 191.85 98.2611 192.235C98.2101 192.525 98.0678 192.792 97.8549 192.995C97.6419 193.199 97.3695 193.329 97.0774 193.367C96.7852 193.405 96.4886 193.348 96.231 193.205C95.9733 193.062 95.7679 192.841 95.6449 192.573L95.9389 193.245C96.0609 193.52 96.1001 193.825 96.0516 194.123L95.9634 194.701C95.9143 195.015 95.7715 195.306 95.5538 195.537C95.336 195.769 95.0536 195.928 94.7435 195.996C94.448 196.061 94.1398 196.04 93.8563 195.934C93.5727 195.828 93.3261 195.641 93.1464 195.397C92.0735 193.926 89.717 191.014 87.9877 190.538C86.0932 190.113 84.1713 189.822 82.2361 189.665C81.8396 189.623 81.4396 189.702 81.0894 189.893C80.7393 190.084 80.4557 190.378 80.2765 190.734C81.3151 190.916 88.2473 195.471 90.6969 197.109C91.0775 197.349 91.3944 197.678 91.6205 198.067C91.8465 198.456 91.9751 198.895 91.9951 199.345C91.9951 200.168 91.5052 200.973 89.9473 200.438C86.5914 199.286 80.688 195.814 80.688 195.814C80.688 195.814 77.5869 194.583 75.3676 195.814C72.2518 197.575 70.8457 198.197 68.4305 197.114C66.962 196.456 65.5731 195.634 64.2907 194.662L53.7136 194.113C53.4013 194.097 53.0952 194.019 52.8136 193.883C52.532 193.747 52.2804 193.556 52.074 193.321C51.8675 193.086 51.7102 192.812 51.6115 192.515C51.5127 192.218 51.4746 191.904 51.4992 191.592C51.7442 188.616 53.2825 183.516 60.4401 180.045Z" fill="#FFBE9D"/>
<path d="M81.0752 185.066C81.0752 185.12 82.0991 184.904 83.755 184.963C85.9147 185.035 88.0269 185.616 89.9194 186.66C91.812 187.704 93.4314 189.181 94.6457 190.97C95.5814 192.338 95.9439 193.318 95.9929 193.294C95.9364 193.058 95.8526 192.829 95.7431 192.612C95.4801 192.004 95.1654 191.42 94.8025 190.867C93.6081 189.017 91.9743 187.493 90.0473 186.43C88.1202 185.367 85.96 184.799 83.7599 184.776C83.1042 184.767 82.4487 184.811 81.8003 184.909C81.5531 184.932 81.3097 184.984 81.0752 185.066Z" fill="#EB996E"/>
<path d="M82.9073 181.79C83.8301 181.611 84.7709 181.544 85.7096 181.589C87.9729 181.803 90.1297 182.653 91.9315 184.041C93.7127 185.461 95.299 187.109 96.6493 188.944C97.1637 189.606 97.585 190.16 97.9133 190.592C98.0595 190.802 98.2234 190.998 98.4032 191.18C98.2918 190.95 98.1572 190.731 98.0015 190.528C97.732 190.121 97.3254 189.547 96.8061 188.827C95.4845 186.945 93.8969 185.265 92.0931 183.84C90.259 182.41 88.0427 181.557 85.7243 181.388C85.026 181.35 84.3257 181.406 83.6422 181.555C83.4583 181.593 83.2767 181.642 83.0984 181.702L82.9073 181.79Z" fill="#EB996E"/>
<path d="M68.5579 181.001C68.2885 180.726 67.9986 180.472 67.6908 180.241C66.8188 179.651 65.8022 179.312 64.7513 179.26C63.1952 179.214 61.6533 179.568 60.2736 180.29C56.82 181.972 54.0255 184.759 52.3321 188.209C51.9434 188.938 51.6863 189.73 51.5728 190.548C51.5237 190.917 51.5237 191.292 51.5728 191.661C51.6055 192.003 51.6711 192.341 51.7687 192.671C51.946 193.246 52.2864 193.757 52.7486 194.142C53.0961 194.428 53.474 194.674 53.8754 194.878L54.6347 195.285C54.7266 195.325 54.8123 195.377 54.8895 195.441C54.7918 195.417 54.6979 195.379 54.6102 195.329C54.4289 195.25 54.1644 195.133 53.8264 194.966C53.4111 194.77 53.0199 194.526 52.6604 194.24C52.1783 193.848 51.8194 193.326 51.6267 192.735C51.5184 192.397 51.4446 192.048 51.4062 191.695C51.3545 191.31 51.3545 190.919 51.4062 190.533C51.5145 189.689 51.7716 188.87 52.1656 188.116C53.8575 184.599 56.6992 181.767 60.2197 180.089C61.6362 179.366 63.2173 179.028 64.8052 179.108C65.8803 179.182 66.9121 179.561 67.779 180.202C68.009 180.378 68.2207 180.576 68.411 180.795C68.4673 180.858 68.5165 180.927 68.5579 181.001Z" fill="#263238"/>
<path d="M45.2333 194.167C45.1933 194.09 45.1621 194.01 45.1402 193.926C45.0596 193.691 44.9909 193.452 44.9345 193.21C44.7242 192.319 44.6336 191.404 44.665 190.489C44.7075 189.129 44.9672 187.785 45.4342 186.507C46.0005 184.942 46.8289 183.484 47.8837 182.197C49.863 179.908 52.3332 178.096 55.1099 176.897C55.9395 176.525 56.7882 176.198 57.6525 175.916C57.9563 175.813 58.1963 175.744 58.358 175.695C58.4399 175.665 58.5257 175.647 58.6127 175.641C58.5381 175.684 58.4593 175.718 58.3776 175.744L57.6819 176.009C57.0842 176.235 56.2122 176.583 55.1834 177.073C52.4625 178.309 50.0397 180.117 48.0797 182.374C47.0352 183.637 46.2074 185.066 45.6301 186.601C45.1574 187.858 44.8846 189.181 44.8218 190.523C44.7939 191.751 44.9324 192.976 45.2333 194.167Z" fill="#263238"/>
<path opacity="0.3" d="M174.109 176.902C177.097 178.226 179.571 181.04 180.968 184.002C181.434 185.1 181.661 186.285 181.634 187.478C181.652 187.878 181.564 188.274 181.38 188.629C181.196 188.984 180.922 189.284 180.585 189.499C179.718 190.048 178.175 190.636 177.156 190.577C175.49 190.474 174.275 189.744 172.615 189.641C170.439 189.508 166.648 188.91 166.638 188.763C166.564 187.684 165.114 184.884 164.933 182.835C164.933 182.737 164.933 182.624 164.903 182.506C164.801 181.633 164.9 180.747 165.192 179.918C165.485 179.089 165.963 178.337 166.591 177.722C167.218 177.106 167.979 176.643 168.813 176.367C169.648 176.092 170.534 176.011 171.405 176.132C172.337 176.263 173.247 176.522 174.109 176.902Z" fill="black"/>
<path d="M174.109 176.902L166.839 177.568C166.839 177.568 154.17 173.984 151.651 174.592C149.393 175.136 141.412 181.3 139.85 182.521C139.677 182.657 139.552 182.844 139.492 183.055C139.362 183.503 139.41 183.983 139.627 184.396C139.843 184.808 140.211 185.12 140.653 185.267L140.829 185.326L140.771 185.581C140.698 185.912 140.68 186.253 140.717 186.591C140.753 186.847 140.871 187.084 141.053 187.268C141.234 187.452 141.469 187.574 141.725 187.614C141.98 187.655 142.241 187.612 142.471 187.494C142.7 187.375 142.885 187.186 143 186.954L142.72 187.537C142.61 187.776 142.57 188.041 142.603 188.302L142.666 188.792C142.7 189.068 142.818 189.327 143.002 189.535C143.187 189.742 143.43 189.889 143.7 189.955C143.958 190.019 144.228 190.006 144.478 189.919C144.729 189.832 144.949 189.674 145.111 189.464C146.091 188.224 148.217 185.718 149.751 185.345C151.418 185.023 153.106 184.819 154.802 184.732C155.146 184.709 155.49 184.79 155.788 184.965C156.086 185.14 156.324 185.401 156.472 185.713C155.556 185.841 149.378 189.636 147.193 191.009C146.855 191.21 146.57 191.491 146.362 191.826C146.155 192.162 146.032 192.542 146.003 192.936C145.968 193.652 146.38 194.372 147.762 193.916C150.73 192.995 155.982 190.111 155.982 190.111C155.982 190.111 158.726 189.131 160.631 190.263C163.311 191.882 164.526 192.46 166.667 191.578C167.969 191.039 169.205 190.352 170.351 189.533L179.615 189.322C179.889 189.317 180.159 189.257 180.409 189.146C180.659 189.034 180.884 188.873 181.07 188.673C181.257 188.472 181.401 188.236 181.495 187.979C181.588 187.721 181.629 187.448 181.614 187.174C181.507 184.624 180.277 180.123 174.109 176.902Z" fill="#FFBE9D"/>
<path d="M155.933 180.765C155.933 180.814 155.042 180.599 153.591 180.608C151.7 180.616 149.838 181.071 148.155 181.936C146.473 182.801 145.019 184.051 143.911 185.585C143.058 186.757 142.715 187.601 142.671 187.581C142.73 187.376 142.808 187.177 142.907 186.988C143.155 186.465 143.445 185.964 143.774 185.487C144.864 183.903 146.33 182.613 148.039 181.732C149.749 180.852 151.65 180.409 153.572 180.442C154.15 180.451 154.727 180.507 155.296 180.608C155.514 180.636 155.728 180.688 155.933 180.765Z" fill="#EB996E"/>
<path d="M154.41 177.858C153.606 177.674 152.784 177.59 151.96 177.608C149.975 177.739 148.068 178.429 146.458 179.598C144.863 180.792 143.432 182.19 142.201 183.757L141.055 185.164C140.922 185.338 140.776 185.502 140.619 185.654C140.723 185.457 140.846 185.269 140.986 185.095C141.236 184.747 141.603 184.247 142.074 183.624C143.28 182.015 144.71 180.586 146.321 179.383C147.965 178.188 149.925 177.506 151.955 177.421C152.567 177.406 153.179 177.474 153.773 177.622C153.939 177.66 154.103 177.71 154.263 177.769C154.361 177.823 154.414 177.848 154.41 177.858Z" fill="#EB996E"/>
<path d="M166.981 177.529C167.026 177.453 167.081 177.382 167.142 177.318C167.314 177.138 167.503 176.973 167.706 176.828C168.472 176.291 169.377 175.984 170.312 175.945C171.7 175.916 173.07 176.255 174.285 176.926C175.788 177.688 177.15 178.701 178.312 179.922C179.479 181.139 180.431 182.545 181.129 184.08C181.459 184.742 181.682 185.452 181.791 186.184C181.87 186.839 181.742 187.503 181.423 188.081C181.157 188.544 180.812 188.957 180.404 189.302C180.103 189.561 179.784 189.799 179.449 190.013C179.175 190.19 178.959 190.317 178.807 190.401C178.735 190.451 178.656 190.491 178.572 190.518C178.572 190.518 178.866 190.308 179.395 189.93C179.715 189.703 180.021 189.458 180.311 189.194C180.693 188.851 181.015 188.444 181.262 187.993C181.553 187.447 181.664 186.822 181.58 186.208C181.464 185.501 181.239 184.816 180.914 184.178C179.509 181.151 177.142 178.675 174.182 177.137C173.001 176.485 171.671 176.147 170.322 176.156C169.413 176.184 168.528 176.457 167.76 176.946C167.489 177.125 167.229 177.32 166.981 177.529Z" fill="#263238"/>
<path d="M189.345 168.291C189.543 168.239 189.747 168.211 189.953 168.208C190.508 168.155 191.066 168.134 191.623 168.144C193.468 168.164 195.303 168.416 197.086 168.894C198.869 169.37 200.584 170.07 202.191 170.978C202.677 171.249 203.15 171.546 203.606 171.866C203.783 171.973 203.947 172.1 204.096 172.243C204.096 172.282 203.347 171.792 202.107 171.135C200.492 170.284 198.789 169.615 197.027 169.139C195.266 168.672 193.458 168.399 191.638 168.325C190.212 168.252 189.345 168.335 189.345 168.291Z" fill="#263238"/>
<path d="M187.043 189.646C187.544 187.863 187.604 185.985 187.219 184.174C186.833 182.363 186.012 180.673 184.828 179.25C183.173 177.229 181.103 175.586 178.758 174.435C177.866 173.979 177.117 173.65 176.603 173.454C176.327 173.355 176.058 173.237 175.799 173.101C175.875 173.11 175.949 173.128 176.02 173.155C176.162 173.199 176.372 173.263 176.637 173.361C177.386 173.632 178.12 173.943 178.837 174.293C181.237 175.412 183.354 177.06 185.029 179.113C185.924 180.267 186.616 181.566 187.077 182.952C187.456 184.082 187.65 185.266 187.65 186.458C187.651 187.261 187.546 188.061 187.336 188.836C187.28 189.046 187.213 189.252 187.136 189.454C187.113 189.522 187.082 189.586 187.043 189.646Z" fill="#263238"/>
<path d="M73.0896 165.069C72.651 165.56 72.1579 166 71.6198 166.379C70.6645 167.134 69.332 168.159 67.8475 169.272C66.3631 170.385 65.011 171.38 64.0262 172.096L62.8554 172.935C62.7197 173.047 62.5698 173.141 62.4095 173.214C62.5241 173.08 62.654 172.96 62.7966 172.856C63.0562 172.635 63.4384 172.327 63.9185 171.949C64.8738 171.199 66.2063 170.179 67.6957 169.066L71.5072 166.236L72.6633 165.378C72.7977 165.265 72.9402 165.162 73.0896 165.069Z" fill="white"/>
<path d="M79.6054 100.271C79.6054 100.271 75.5881 93.9794 79.6054 89.0858C83.6227 84.1921 108.422 79.2789 110.171 78.9454C111.92 78.612 120.998 77.3714 122.046 77.7196C123.095 78.0677 136.719 84.7119 141.785 88.0168C146.85 91.3217 154.758 96.6125 149.79 103.051C144.66 109.69 128.312 127.46 128.312 127.46L116.956 140.302C116.956 140.302 105.429 125.621 102.808 123.346C100.186 121.071 79.6054 100.271 79.6054 100.271Z" fill="#665F59"/>
<path opacity="0.3" d="M79.6054 100.271C79.6054 100.271 75.5881 93.9794 79.6054 89.0858C83.6227 84.1921 108.422 79.2789 110.171 78.9454C111.92 78.612 120.998 77.3714 122.046 77.7196C123.095 78.0677 136.719 84.7119 141.785 88.0168C146.85 91.3217 154.326 97.1225 150.221 102.56C145.16 109.259 129.155 126.524 129.155 126.524L116.956 140.302C116.956 140.302 105.429 125.621 102.808 123.346C100.186 121.071 79.6054 100.271 79.6054 100.271Z" fill="black"/>
<path d="M88.4679 83.9518C88.4679 83.9518 88.0221 92.6308 88.6198 95.6759C89.2175 98.7209 99.6084 115.991 105.507 120.105C111.405 124.219 111.93 125.866 116.99 124.518C122.051 123.169 124.535 118.874 127.161 115.765C129.787 112.657 135.813 107.248 137.415 102.399C139.017 97.549 140.447 87.2469 140.447 87.2469L120.577 77.1997C110.72 77.538 99.7554 80.3624 88.4679 83.9518Z" fill="#665F59"/>
<path opacity="0.5" d="M88.4679 83.9518C88.4679 83.9518 88.0221 92.6308 88.6198 95.6759C89.2175 98.7209 99.6084 115.991 105.507 120.105C111.405 124.219 111.93 125.866 116.99 124.518C122.051 123.169 124.535 118.874 127.161 115.765C129.787 112.657 135.813 107.248 137.415 102.399C139.017 97.549 140.447 87.2469 140.447 87.2469L120.577 77.1997C110.72 77.538 99.7554 80.3624 88.4679 83.9518Z" fill="black"/>
<path d="M114.173 49.1669C102.205 49.3581 92.5292 58.6943 92.3185 70.2762C92.1323 80.6225 92.0588 92.0377 92.49 97.554C93.3816 108.994 105.335 110.043 105.335 110.043L105.443 117.055C105.443 118.207 105.355 119.997 105.355 119.997C110.862 123.89 112.023 125.832 116.961 124.523C122.022 123.184 124.506 118.879 127.127 115.77C129.272 113.235 133.672 109.16 136.082 105.11L136.219 70.8695C136.508 58.9051 126.539 49.0982 114.173 49.1669Z" fill="#FFBE9D"/>
<path d="M92.1715 85.8739C92.1715 85.8739 103.743 82.0983 110.93 81.9218C115.339 81.8139 136.151 87.8549 136.151 87.8549V85.8935C136.151 85.8935 120.537 77.7293 110.102 78.965C103.964 79.6649 97.9366 81.131 92.1617 83.329L92.1715 85.8739Z" fill="#EB996E"/>
<path d="M105.355 110.072C105.355 110.072 112.875 110.2 120.513 104.875C120.513 104.875 117.289 113.47 105.409 113.166L105.355 110.072Z" fill="#EB996E"/>
<path d="M96.0712 76.832C96.2867 77.0429 97.5409 76.0965 99.3732 76.0622C101.205 76.0279 102.548 76.8761 102.744 76.6555C102.837 76.5574 102.616 76.1651 102.024 75.7827C101.218 75.2673 100.275 75.0075 99.3193 75.0373C98.376 75.0565 97.4612 75.3645 96.6982 75.92C96.1495 76.3515 95.9683 76.7389 96.0712 76.832Z" fill="#263238"/>
<path d="M114.105 76.2142C114.325 76.4202 115.575 75.4493 117.392 75.3807C119.21 75.312 120.581 76.1407 120.773 75.9151C120.866 75.8171 120.635 75.4248 120.033 75.0521C119.217 74.5557 118.272 74.3149 117.319 74.3607C116.375 74.3949 115.464 74.7203 114.712 75.2924C114.173 75.7337 113.997 76.126 114.105 76.2142Z" fill="#263238"/>
<path d="M107.427 88.5366C107.427 88.4336 106.291 88.3159 104.444 88.2032C103.954 88.2032 103.528 88.1198 103.43 87.8207C103.361 87.3571 103.439 86.8835 103.655 86.4674C104.018 85.3543 104.405 84.1872 104.806 82.9614C106.399 77.9746 107.515 73.8851 107.31 73.8214C107.104 73.7576 105.639 77.7441 104.052 82.7456L102.959 86.2712C102.817 86.791 102.553 87.3892 102.832 88.0463C102.912 88.2027 103.026 88.3392 103.166 88.4453C103.306 88.5514 103.468 88.6245 103.64 88.6592C103.902 88.7103 104.168 88.7301 104.434 88.718C106.286 88.6984 107.427 88.6347 107.427 88.5366Z" fill="#263238"/>
<path d="M112.87 72.1737C113.164 72.6003 114.879 71.9628 117.015 71.7176C119.151 71.4725 120.973 71.6245 121.145 71.139C121.218 70.9135 120.817 70.5408 120.028 70.2515C118.984 69.8981 117.872 69.7923 116.78 69.9426C115.689 70.0634 114.642 70.4379 113.723 71.0361C113.032 71.5166 112.743 71.9726 112.87 72.1737Z" fill="#263238"/>
<path d="M95.4 72.3895C95.6401 72.8798 97.0608 72.7622 98.653 73.1152C100.245 73.4683 101.514 74.0616 101.926 73.7232C102.112 73.5565 101.999 73.1201 101.504 72.6151C100.815 71.9676 99.9548 71.5319 99.0254 71.3598C98.0994 71.155 97.1343 71.2179 96.2427 71.5412C95.5862 71.806 95.2825 72.1443 95.4 72.3895Z" fill="#263238"/>
<path d="M114.507 92.2044C114.433 92.3025 114.017 92.077 113.292 91.9004C112.383 91.6647 111.427 91.6748 110.524 91.9299C109.638 92.2051 108.843 92.7131 108.221 93.4009C107.731 93.9403 107.515 94.3816 107.398 94.3178C107.28 94.2541 107.324 93.7784 107.741 93.0723C108.325 92.1422 109.227 91.4558 110.279 91.1404C111.342 90.8246 112.483 90.8976 113.497 91.3463C114.252 91.719 114.57 92.126 114.507 92.2044Z" fill="#263238"/>
<path d="M97.7615 78.3767C97.7917 78.8051 97.9878 79.2047 98.3081 79.4905C98.6284 79.7762 99.0475 79.9255 99.4762 79.9066C99.6862 79.9131 99.8954 79.8776 100.091 79.8021C100.288 79.7266 100.467 79.6127 100.618 79.467C100.77 79.3212 100.891 79.1467 100.974 78.9536C101.057 78.7605 101.101 78.5527 101.103 78.3424C101.071 77.9145 100.875 77.5156 100.555 77.23C100.235 76.9445 99.8163 76.7948 99.388 76.8125C99.178 76.806 98.9688 76.8415 98.7726 76.917C98.5765 76.9925 98.3975 77.1064 98.2459 77.2521C98.0944 77.3978 97.9735 77.5724 97.8903 77.7655C97.8071 77.9586 97.7633 78.1664 97.7615 78.3767Z" fill="#263238"/>
<path d="M115.79 77.5922C115.819 78.021 116.015 78.4214 116.335 78.7074C116.656 78.9934 117.076 79.1423 117.505 79.1221C117.714 79.1293 117.924 79.0944 118.12 79.0194C118.316 78.9445 118.495 78.831 118.646 78.6857C118.798 78.5404 118.919 78.3661 119.002 78.1733C119.086 77.9804 119.129 77.7729 119.131 77.5628C119.1 77.1349 118.903 76.736 118.583 76.4505C118.263 76.1649 117.845 76.0152 117.417 76.0329C117.207 76.025 116.997 76.0594 116.801 76.1341C116.604 76.2088 116.425 76.3223 116.273 76.4677C116.122 76.6132 116.001 76.7877 115.918 76.9809C115.835 77.174 115.791 77.3819 115.79 77.5922Z" fill="#263238"/>
<path d="M105.355 110.072C105.355 110.072 112.875 110.2 120.513 104.875C120.513 104.875 117.289 113.47 105.409 113.166L105.355 110.072Z" fill="#EB996E"/>
<path d="M96.0712 76.832C96.2867 77.0429 97.5409 76.0965 99.3732 76.0622C101.205 76.0279 102.548 76.8761 102.744 76.6555C102.837 76.5574 102.616 76.1651 102.024 75.7827C101.218 75.2673 100.275 75.0075 99.3193 75.0373C98.376 75.0565 97.4612 75.3645 96.6982 75.92C96.1495 76.3515 95.9683 76.7389 96.0712 76.832Z" fill="#263238"/>
<path d="M114.105 76.2142C114.325 76.4202 115.575 75.4493 117.392 75.3807C119.21 75.312 120.581 76.1407 120.773 75.9151C120.866 75.8171 120.635 75.4248 120.033 75.0521C119.217 74.5557 118.272 74.3149 117.319 74.3607C116.375 74.3949 115.464 74.7203 114.712 75.2924C114.173 75.7337 113.997 76.126 114.105 76.2142Z" fill="#263238"/>
<path d="M107.427 88.5366C107.427 88.4336 106.291 88.3159 104.444 88.2032C103.954 88.2032 103.528 88.1198 103.43 87.8207C103.361 87.3571 103.439 86.8835 103.655 86.4674C104.018 85.3543 104.405 84.1872 104.806 82.9614C106.399 77.9746 107.515 73.8851 107.31 73.8214C107.104 73.7576 105.639 77.7441 104.052 82.7456L102.959 86.2712C102.817 86.791 102.553 87.3892 102.832 88.0463C102.912 88.2027 103.026 88.3392 103.166 88.4453C103.306 88.5514 103.468 88.6245 103.64 88.6592C103.902 88.7103 104.168 88.7301 104.434 88.718C106.286 88.6984 107.427 88.6347 107.427 88.5366Z" fill="#263238"/>
<path d="M112.87 72.1737C113.164 72.6003 114.879 71.9628 117.015 71.7176C119.151 71.4725 120.973 71.6245 121.145 71.139C121.218 70.9135 120.817 70.5408 120.028 70.2515C118.984 69.8981 117.872 69.7923 116.78 69.9426C115.689 70.0634 114.642 70.4379 113.723 71.0361C113.032 71.5166 112.743 71.9726 112.87 72.1737Z" fill="#263238"/>
<path d="M95.4 72.3895C95.6401 72.8798 97.0608 72.7622 98.653 73.1152C100.245 73.4683 101.514 74.0616 101.926 73.7232C102.112 73.5565 101.999 73.1201 101.504 72.6151C100.815 71.9676 99.9548 71.5319 99.0254 71.3598C98.0994 71.155 97.1343 71.2179 96.2427 71.5412C95.5862 71.806 95.2825 72.1443 95.4 72.3895Z" fill="#263238"/>
<path d="M114.507 92.2044C114.433 92.3025 114.017 92.077 113.292 91.9004C112.383 91.6647 111.427 91.6748 110.524 91.9299C109.638 92.2051 108.843 92.7131 108.221 93.4009C107.731 93.9403 107.515 94.3816 107.398 94.3178C107.28 94.2541 107.324 93.7784 107.741 93.0723C108.325 92.1422 109.227 91.4558 110.279 91.1404C111.342 90.8246 112.483 90.8976 113.497 91.3463C114.252 91.719 114.57 92.126 114.507 92.2044Z" fill="#263238"/>
<path d="M97.7615 78.3767C97.7917 78.8051 97.9878 79.2047 98.3081 79.4905C98.6284 79.7762 99.0475 79.9255 99.4762 79.9066C99.6862 79.9131 99.8954 79.8776 100.091 79.8021C100.288 79.7266 100.467 79.6127 100.618 79.467C100.77 79.3212 100.891 79.1467 100.974 78.9536C101.057 78.7605 101.101 78.5527 101.103 78.3424C101.071 77.9145 100.875 77.5156 100.555 77.23C100.235 76.9445 99.8163 76.7948 99.388 76.8125C99.178 76.806 98.9688 76.8415 98.7726 76.917C98.5765 76.9925 98.3975 77.1064 98.2459 77.2521C98.0944 77.3978 97.9735 77.5724 97.8903 77.7655C97.8071 77.9586 97.7633 78.1664 97.7615 78.3767Z" fill="#263238"/>
<path d="M115.79 77.5922C115.819 78.021 116.015 78.4214 116.335 78.7074C116.656 78.9934 117.076 79.1423 117.505 79.1221C117.714 79.1293 117.924 79.0944 118.12 79.0194C118.316 78.9445 118.495 78.831 118.646 78.6857C118.798 78.5404 118.919 78.3661 119.002 78.1733C119.086 77.9804 119.129 77.7729 119.131 77.5628C119.1 77.1349 118.903 76.736 118.583 76.4505C118.263 76.1649 117.845 76.0152 117.417 76.0329C117.207 76.025 116.997 76.0594 116.801 76.1341C116.604 76.2088 116.425 76.3223 116.273 76.4677C116.122 76.6132 116.001 76.7877 115.918 76.9809C115.835 77.174 115.791 77.3819 115.79 77.5922Z" fill="#263238"/>
<path d="M150.569 93.6754C148.898 91.2237 147.326 87.0312 147.326 87.0312L145.199 72.5465C145.199 72.5465 134.965 55.1491 133.755 52.8739C132.545 50.5987 126.593 44.3075 126.593 44.3075C126.593 44.3075 122.82 40.5319 118.543 38.8206C117.672 38.4749 116.732 38.3345 115.798 38.4102C114.864 38.4859 113.959 38.7756 113.154 39.257C108.956 41.7725 99.7553 47.485 97.6144 50.427C94.817 54.2713 88.3453 66.7016 88.3453 66.7016C88.3453 66.7016 86.5572 72.5219 84.8131 74.6206C83.069 76.7193 77.4302 87.904 77.4351 91.4002C77.4351 92.1063 77.7682 93.4695 77.8074 94.1314C77.9789 92.7977 78.1748 90.7579 79.2232 89.4781C83.2405 84.5746 108.04 79.6712 109.789 79.3377C111.538 79.0043 119.361 80.1762 120.405 80.5244C121.449 80.8725 136.111 85.1287 141.354 88.1639C145.273 90.4342 149.878 93.5577 151.152 97.6962L150.966 97.1421C150.966 97.1421 152.244 96.1222 150.569 93.6754Z" fill="#665F59"/>
<path d="M149.765 103.07C149.805 103.001 149.849 102.933 149.898 102.869C149.996 102.747 150.123 102.551 150.289 102.291C150.772 101.538 151.094 100.693 151.235 99.8095C151.322 99.1708 151.284 98.5212 151.122 97.8972C150.893 97.1668 150.563 96.472 150.142 95.8328C149.698 95.0719 149.183 94.3545 148.604 93.69C148.279 93.3342 147.932 92.9985 147.566 92.6848C147.198 92.3465 146.826 92.0081 146.409 91.7041C143.196 89.0464 138.737 86.6977 133.535 84.8736C130.938 83.942 128.146 83.1035 125.275 82.265C122.313 81.3319 119.3 80.5722 116.251 79.9898C113.204 79.4522 110.087 79.4522 107.04 79.9898C104.101 80.4801 101.284 81.2598 98.604 81.9512C93.2542 83.329 88.4629 84.6971 84.5926 86.2662C82.8352 86.9226 81.2335 87.9379 79.8895 89.2475C78.8932 90.2626 78.2125 91.5452 77.9299 92.9398C77.7519 93.8184 77.7905 94.7273 78.0425 95.5876C78.2336 96.1711 78.41 96.4457 78.3904 96.4555C78.3708 96.4654 78.3463 96.3869 78.2728 96.2447C78.1619 96.0388 78.0685 95.8239 77.9935 95.6023C77.7176 94.7357 77.662 93.8138 77.8319 92.9202C78.0932 91.5014 78.7643 90.1905 79.7621 89.1494C81.1099 87.8113 82.7241 86.7721 84.4995 86.0995C88.3747 84.501 93.1709 83.1182 98.5207 81.7256C101.196 81.0342 103.998 80.2546 106.977 79.7642C108.492 79.5063 110.025 79.3702 111.562 79.3572C113.145 79.3662 114.724 79.5039 116.285 79.7691C119.339 80.3482 122.357 81.1046 125.324 82.0345C128.209 82.873 130.992 83.7213 133.593 84.6579C138.811 86.5016 143.284 88.8797 146.507 91.5766C146.919 91.9002 147.296 92.2484 147.664 92.5867C148.031 92.9058 148.378 93.2481 148.702 93.6115C149.287 94.2849 149.804 95.0141 150.245 95.7887C150.671 96.441 151.001 97.1511 151.225 97.8972C151.386 98.5383 151.418 99.205 151.318 99.8585C151.172 100.751 150.838 101.601 150.338 102.354C150.163 102.605 149.971 102.844 149.765 103.07Z" fill="#263238"/>
<path d="M140.751 91.9445C140.751 91.9445 140.751 91.9788 140.751 92.0572C140.751 92.1357 140.751 92.2534 140.751 92.3858C140.751 92.6751 140.751 93.1017 140.722 93.6509C140.606 95.2022 140.295 96.7328 139.796 98.2061C139.04 100.387 138.008 102.462 136.724 104.38C135.145 106.712 133.42 108.943 131.56 111.058L121.64 122.704L118.602 126.215L117.764 127.161L117.544 127.401C117.52 127.431 117.492 127.458 117.461 127.48C117.461 127.48 117.461 127.445 117.524 127.387L117.725 127.127L118.524 126.146L121.502 122.581L131.399 110.882C133.25 108.772 134.973 106.554 136.557 104.237C137.839 102.339 138.879 100.289 139.654 98.1326C140.159 96.6751 140.488 95.1622 140.633 93.6263C140.682 93.0821 140.702 92.6456 140.707 92.3711C140.707 92.2387 140.707 92.1308 140.707 92.0425C140.715 92.0074 140.73 91.9742 140.751 91.9445Z" fill="#263238"/>
<path d="M118.867 125.67C118.828 125.678 118.788 125.678 118.749 125.67H118.411C117.973 125.676 117.535 125.66 117.098 125.621C115.489 125.48 113.906 125.119 112.395 124.547C110.156 123.688 108.059 122.496 106.173 121.012C103.886 119.177 101.829 117.073 100.044 114.745C98.1191 112.294 96.4877 109.842 95.0033 107.572C93.5189 105.301 92.25 103.252 91.2898 101.452C90.5171 100.038 89.83 98.5795 89.2322 97.0832C89.0264 96.5487 88.8745 96.1368 88.7814 95.8475L88.6786 95.5239C88.6624 95.4883 88.6525 95.4501 88.6492 95.4111C88.6727 95.4422 88.6909 95.477 88.7031 95.5141L88.8304 95.8328C88.9382 96.1123 89.1048 96.5193 89.3203 97.044C89.95 98.5208 90.6581 99.9628 91.4417 101.364C92.4215 103.149 93.705 105.198 95.1944 107.444C96.6837 109.69 98.3249 112.151 100.24 114.589C102.012 116.901 104.051 118.994 106.315 120.826C108.175 122.305 110.244 123.502 112.454 124.376C113.948 124.958 115.51 125.343 117.103 125.523C117.666 125.582 118.107 125.611 118.406 125.616H118.744C118.788 125.627 118.83 125.645 118.867 125.67Z" fill="#263238"/>
<path d="M113.762 135.448C113.729 135.424 113.699 135.396 113.674 135.364L113.434 135.104L112.532 134.094L109.22 130.382C106.413 127.254 102.479 122.983 97.9966 118.403C93.5139 113.824 89.3203 109.798 86.2387 106.929L82.6036 103.526L81.6238 102.604C81.5209 102.506 81.4376 102.428 81.3739 102.359C81.3421 102.334 81.314 102.304 81.2906 102.271C81.2906 102.271 81.3298 102.271 81.3886 102.34L81.6581 102.565L82.682 103.453C83.5687 104.228 84.8327 105.36 86.3857 106.782C89.4868 109.621 93.6951 113.647 98.1876 118.207C102.68 122.767 106.594 127.087 109.367 130.245C110.754 131.824 111.866 133.114 112.615 134.016L113.483 135.06L113.703 135.335C113.742 135.399 113.767 135.443 113.762 135.448Z" fill="#263238"/>
<path d="M150.196 102.58C150.25 102.624 144.029 109.783 136.303 118.56C128.577 127.338 122.272 134.418 122.228 134.374C122.183 134.33 128.395 127.176 136.121 118.394C143.847 109.612 150.152 102.546 150.196 102.58Z" fill="#263238"/>
<path opacity="0.3" d="M90.2314 69.7761C93.6608 65.9907 97.6732 62.8132 101.681 59.6603C102.964 58.574 104.36 57.6288 105.845 56.8408C108.387 55.615 111.268 55.3698 114.085 55.1638C116.383 55.002 118.685 54.8794 120.988 54.7814C121.623 54.7014 122.267 54.7929 122.855 55.0462C123.141 55.1838 123.365 55.4261 123.479 55.7234C123.593 56.0207 123.588 56.3504 123.467 56.6447C123.148 57.1841 122.414 57.2478 121.791 57.2576C110.596 57.4898 99.8078 61.5061 91.1819 68.6532" fill="black"/>
<path d="M73.506 152.07L78.4051 201.105H159.461L161.94 151.252C161.953 150.695 161.853 150.142 161.645 149.626C161.438 149.11 161.127 148.642 160.732 148.251C160.337 147.86 159.866 147.554 159.348 147.351C158.83 147.149 158.277 147.054 157.721 147.074L77.6457 147.716C77.081 147.705 76.5202 147.812 75.999 148.03C75.4778 148.248 75.0076 148.572 74.6182 148.981C74.2289 149.391 73.9289 149.877 73.7374 150.409C73.546 150.941 73.4671 151.507 73.506 152.07Z" fill="#CA005D"/>
<path d="M119.499 176.548C121.966 176.548 123.967 174.643 123.967 172.292C123.967 169.942 121.966 168.036 119.499 168.036C117.031 168.036 115.031 169.942 115.031 172.292C115.031 174.643 117.031 176.548 119.499 176.548Z" fill="#FAFAFA"/>
</svg>
