<svg width="120" height="151" viewBox="0 0 120 151" fill="none" xmlns="http://www.w3.org/2000/svg">
<path d="M38.5913 71.502C38.5913 71.502 27.6649 77.4453 24.4005 83.3166C21.136 89.188 2.69985 125.662 3.41995 132.571C4.14006 139.48 20.4816 143.833 20.4816 143.833L37.5913 121.616L27.4234 114.707L38.5913 107.984V71.502Z" fill="#91004B"/>
<path d="M55.1615 66.261L38.5 71.5027C38.5 71.5027 29.6026 147.884 25.6084 158.791C25.6084 158.791 30.4667 162.091 55.1615 165.003C79.8563 167.914 99 165.003 99 165.003C99 165.003 106.577 157.349 110.936 125.35C115.295 93.3502 112.28 75.1114 112.28 75.1114L85.2139 65.377L55.1615 66.261Z" fill="#91004B"/>
<path d="M106.5 77.0017C105.741 77.7897 95.68 84.354 92.0507 96.7118C88.4214 109.07 84.3696 115.802 84.3696 115.802L70.2363 117.618L78.2247 150.291C78.2247 150.291 95.296 148.474 104.744 132.849C114.192 117.224 120 103.948 120 103.948C120 103.948 118.002 65.0187 106.5 77.0017Z" fill="#91004B"/>
<path d="M20.4824 143.785C20.4824 143.785 60.0594 151.704 74.4231 134.656L69.9472 120.893C69.9472 120.893 44.0923 126.373 35.9311 123.711L20.4824 143.785Z" fill="#ECBA98"/>
<path d="M75.1143 116.994C75.1143 116.994 81.1343 103.541 81.9313 103.349C82.7282 103.157 94.3363 99.0918 94.3363 99.0918C94.6762 100.023 94.6208 100.571 94.3363 101.975L98.5033 102.503C98.5033 102.503 97.8888 105.078 96.4678 105.386L97.9752 106.712C97.2094 107.724 96.2246 108.548 95.0948 109.124C94.6672 109.333 94.1976 109.442 93.7218 109.442C93.2459 109.442 92.7764 109.333 92.3488 109.124C92.3488 109.124 92.8864 110.085 90.4861 111.594C88.0857 113.102 84.0244 115.322 84.0244 115.322L75.1143 116.994Z" fill="#ECBA98"/>
<path d="M75.0371 117.032V116.975C75.2867 116.427 81.0764 103.521 81.8733 103.32C82.6702 103.118 94.1631 99.1105 94.2783 99.0625C94.6101 99.9948 94.6101 101.013 94.2783 101.945L98.4357 102.483C98.4357 102.589 97.8116 105.011 96.429 105.366L97.9173 106.683C97.1518 107.695 96.1669 108.519 95.0368 109.095C94.6132 109.294 94.151 109.397 93.683 109.397C93.2151 109.397 92.7529 109.294 92.3292 109.095C92.4061 109.364 92.4637 110.248 90.409 111.536C88.047 113.025 83.976 115.235 83.9376 115.254L75.0371 117.032ZM94.2399 99.1298C93.6062 99.3604 82.6318 103.214 81.8637 103.377C81.2396 103.521 77.1782 112.285 75.1427 116.955L84.024 115.389C84.1776 115.303 88.1526 113.131 90.4858 111.661C92.8189 110.19 92.3388 109.239 92.3388 109.229L92.2812 109.133L92.3772 109.191C92.8003 109.398 93.2649 109.506 93.7358 109.506C94.2068 109.506 94.6714 109.398 95.0944 109.191C96.1948 108.616 97.1553 107.806 97.9077 106.817L96.3714 105.462H96.429C97.7252 105.136 98.3493 102.887 98.4357 102.58L94.2687 102.041C94.6355 101.109 94.6525 100.074 94.3167 99.1298H94.2399Z" fill="#EB996E"/>
<path d="M93.9711 102.071C94.0287 102.235 90.6202 103.561 86.3668 105.031C85.3106 105.415 84.2545 105.704 83.4288 106.098C82.6955 106.46 82.0894 107.036 81.6909 107.751C80.9996 109.009 80.7308 109.913 80.6348 109.874C80.675 109.056 80.9016 108.257 81.2973 107.539C81.6954 106.715 82.3487 106.041 83.1599 105.617C84.1373 105.175 85.1409 104.793 86.1652 104.474C90.3994 102.965 93.9135 101.908 93.9711 102.071Z" fill="#E09C72"/>
<path d="M96.6783 105.492C96.0304 105.873 95.3174 106.131 94.5756 106.251C93.241 106.616 91.3687 106.914 89.3812 107.453C87.6842 107.876 86.0861 108.627 84.6765 109.663C83.6204 110.489 83.1499 111.21 83.0635 111.143C83.3195 110.421 83.7799 109.79 84.3885 109.326C85.7749 108.136 87.4182 107.284 89.1892 106.838C91.2439 106.29 93.1257 106.059 94.4603 105.819C95.1865 105.634 95.9297 105.524 96.6783 105.492Z" fill="#E09C72"/>
<path d="M86.04 111.622C85.9152 111.497 87.0001 110.363 88.8148 109.7C90.6295 109.037 92.1849 109.239 92.1657 109.402C92.1465 109.566 90.7063 109.691 89.0356 110.296C87.365 110.901 86.1552 111.766 86.04 111.622Z" fill="#E09C72"/>
<path d="M71.4749 121.127C58.5276 117.501 51.2685 115.469 38.3212 111.844L28.4414 122.616C28.4414 122.616 62.1807 149.071 77.6006 148.658" fill="#ECBA98"/>
<path opacity="0.3" d="M67.3553 146.716C65.0125 145.755 62.7658 144.4 60.2502 144.016C57.197 143.545 54.643 144.458 51.609 144.976C42.5261 146.399 35.7379 145.313 27.1542 144.976L26.6934 147.609C30.4667 150.56 35.2098 151.501 40.0009 151.453C44.3407 151.367 48.6422 149.954 52.9436 150.079C56.3713 150.166 59.6646 151.213 62.9962 152.097C68.5266 153.567 74.3259 154.596 79.9715 153.615C85.6171 152.635 91.1091 149.339 93.4903 144.121C89.6858 146.678 85.3086 148.253 80.7485 148.705C76.1885 149.158 71.5874 148.474 67.3553 146.716Z" fill="black"/>
<path d="M29.8527 122.356L17.0636 122.827C15.7867 122.827 14.5865 121.703 14.0488 119.867L4.32258 86.9931C3.36244 83.8604 4.74505 80.3625 6.93416 80.2664L25.3304 79.1133C26.7226 79.0268 28.0092 80.3722 28.4893 82.4286L35.0855 110.219C36.4777 116.081 33.8469 122.212 29.8527 122.356Z" fill="#83786F"/>
<path d="M82.7181 76.1905C83.2383 75.158 83.4924 74.0118 83.4574 72.856L82.1228 29.1905C82.6317 17.0345 75.9971 6.5986 63.8801 6.41602H62.7568C57.2771 6.63552 52.0826 8.91894 48.2136 12.8089C44.3447 16.6989 42.0871 21.9083 41.8929 27.3935C41.5089 37.9639 41.2112 49.5818 41.5281 55.261C42.1714 66.8693 53.9139 68.2146 53.9139 68.2146L54.2979 72.7599C54.2979 72.7599 53.3378 80.6493 62.5167 83.3303C69.5354 85.3963 77.2357 80.9664 80.4137 78.8139C81.392 78.1494 82.185 77.2466 82.7181 76.1905Z" fill="#ECBA98"/>
<path d="M53.8184 68.2154C59.2302 67.9838 64.4619 66.2028 68.8925 63.084C68.8925 63.084 65.6665 71.6268 53.9912 71.0887L53.8184 68.2154Z" fill="#E09C72"/>
<path d="M80.7012 40.6265C80.7022 40.201 80.7887 39.78 80.9557 39.3887C81.1227 38.9974 81.3666 38.6437 81.673 38.3487C81.9794 38.0537 82.342 37.8234 82.7392 37.6716C83.1363 37.5198 83.56 37.4495 83.9849 37.465C86.1644 37.5803 88.6415 38.7142 88.6895 43.2307C88.7856 51.2162 80.7492 49.6594 80.7396 49.4384C80.73 49.2174 80.7108 43.9706 80.7012 40.6265Z" fill="#FFBE9D"/>
<path d="M82.4398 46.3528C82.4398 46.3528 82.5742 46.4489 82.8143 46.5546C83.1481 46.6825 83.5174 46.6825 83.8512 46.5546C84.6961 46.2279 85.3875 44.8826 85.4067 43.4411C85.4244 42.7581 85.2831 42.0804 84.9938 41.4616C84.9174 41.2124 84.7812 40.9858 84.5971 40.8016C84.413 40.6173 84.1866 40.481 83.9376 40.4045C83.7782 40.3641 83.6097 40.3804 83.4608 40.4505C83.312 40.5206 83.1921 40.6402 83.1215 40.7889C83.0159 41.0195 83.1215 41.1733 83.0255 41.1925C82.9295 41.2117 82.8527 41.058 82.9199 40.7313C82.9564 40.5295 83.0658 40.3483 83.2271 40.2219C83.4467 40.0557 83.7216 39.98 83.9952 40.0105C84.3234 40.0696 84.6306 40.2132 84.8865 40.4272C85.1424 40.6412 85.3382 40.9182 85.4547 41.2309C85.8058 41.9171 85.9807 42.68 85.9635 43.4507C85.9635 45.0651 85.1282 46.5738 83.976 46.9294C83.7613 46.99 83.5359 47.0033 83.3155 46.9685C83.095 46.9337 82.8847 46.8515 82.6991 46.7276C82.4494 46.545 82.411 46.3624 82.4398 46.3528Z" fill="#EB996E"/>
<path d="M51.7286 39.2173C52.038 38.4048 53.3991 38.7819 53.0798 39.5568C52.3875 41.3612 50.962 45.1211 54.3885 44.5789C55.2809 44.4265 55.6254 45.7101 54.7212 45.8555C53.2254 46.1151 51.6938 46.0832 51.0086 44.6077C50.279 42.9233 51.0795 40.8801 51.7286 39.2173Z" fill="#E09C72"/>
<path d="M59.6707 35.4087C59.7226 35.673 59.8272 35.9242 59.9781 36.1474C60.1291 36.3705 60.3233 36.561 60.5493 36.7075C60.7753 36.8539 61.0284 36.9534 61.2936 37C61.5588 37.0466 61.8306 37.0393 62.0928 36.9786C62.6226 36.8526 63.0823 36.5249 63.3744 36.0651C63.6665 35.6053 63.768 35.0496 63.6573 34.516C63.6057 34.2523 63.5016 34.0017 63.3514 33.7789C63.2012 33.5561 63.0079 33.3658 62.7829 33.2191C62.5579 33.0724 62.3057 32.9724 62.0415 32.925C61.7772 32.8775 61.5061 32.8836 61.2442 32.9429C60.7109 33.0647 60.2469 33.3916 59.9525 33.853C59.658 34.3143 59.5568 34.8731 59.6707 35.4087Z" fill="#353535"/>
<path d="M45.7048 33.2008C45.5737 33.4353 45.4904 33.6935 45.4599 33.9604C45.4294 34.2274 45.4522 34.4976 45.527 34.7556C45.6017 35.0136 45.727 35.2541 45.8955 35.4631C46.064 35.6722 46.2724 35.8456 46.5085 35.9734C46.7489 36.107 47.0133 36.192 47.2866 36.2233C47.5598 36.2546 47.8366 36.2317 48.1011 36.1559C48.3656 36.0801 48.6126 35.9529 48.828 35.7816C49.0434 35.6103 49.2229 35.3981 49.3564 35.1574C49.4872 34.9236 49.5705 34.6661 49.6014 34.4C49.6322 34.1338 49.6101 33.8642 49.5362 33.6067C49.4622 33.3493 49.3381 33.109 49.1708 32.8999C49.0035 32.6908 48.7964 32.5169 48.5616 32.3884C48.0777 32.1308 47.512 32.0735 46.9862 32.2288C46.4603 32.3841 46.0162 32.7396 45.7493 33.2189" fill="#353535"/>
<path d="M65.3956 31.0995C65.1771 30.4823 64.7981 29.9346 64.2976 29.5128C63.7971 29.0909 63.1933 28.8103 62.5485 28.6998C61.9049 28.5803 61.2424 28.615 60.6149 28.8008C60.4828 28.8285 60.358 28.8839 60.2487 28.9631C60.1394 29.0424 60.048 29.1438 59.9805 29.2609C59.9112 29.4278 59.8904 29.6109 59.9205 29.7892C59.9506 29.9675 60.0303 30.1337 60.1505 30.2688C60.2707 30.4038 60.4265 30.5022 60.6 30.5526C60.7736 30.603 60.9578 30.6034 61.1315 30.5537C61.1935 30.5376 61.2543 30.5169 61.3132 30.4917L61.4405 30.4483C61.7765 30.3423 62.1328 30.3172 62.4804 30.375C62.828 30.4329 63.1571 30.5721 63.4409 30.7813C63.7045 31.0056 63.9291 31.2721 64.1054 31.57L64.3299 31.9605C64.4079 32.0858 64.5273 32.1801 64.6673 32.2268C64.8073 32.2736 64.9593 32.27 65.0969 32.2166L65.1878 32.1857C65.3243 32.1271 65.435 32.021 65.4993 31.8871C65.5637 31.7531 65.5774 31.6004 65.5378 31.4571C65.5145 31.3737 65.4865 31.2918 65.4541 31.2115L65.3956 31.0995Z" fill="#353535"/>
<path d="M50.2721 28.6009C50.0313 28.458 49.7703 28.3522 49.4979 28.2872L49.3288 28.2187C48.9164 28.0519 48.475 27.9682 48.0301 27.9724C47.4147 27.9755 46.809 28.1265 46.264 28.4127C45.719 28.6989 45.2506 29.1119 44.8983 29.6169C44.8421 29.711 44.8008 29.8131 44.7757 29.9197C44.7308 30.0562 44.7344 30.204 44.7857 30.3381C44.8371 30.4722 44.9331 30.5845 45.0575 30.656L45.2622 30.739C45.3507 30.7596 45.4426 30.7613 45.5318 30.7438C45.621 30.7263 45.7055 30.6902 45.7798 30.6376C45.8808 30.5667 45.9754 30.4871 46.0626 30.3997C46.2535 30.1891 46.4764 30.01 46.7231 29.869C47.0157 29.6664 47.3587 29.549 47.7139 29.53C48.0692 29.511 48.4227 29.5911 48.735 29.7614L48.9841 29.8624C49.1308 29.9493 49.2822 30.028 49.4377 30.098C49.6337 30.2047 49.8632 30.2324 50.0789 30.1752C50.2947 30.118 50.4805 29.9804 50.5982 29.7906C50.6543 29.6912 50.69 29.5816 50.7032 29.4683C50.7163 29.3549 50.7067 29.2401 50.6748 29.1306C50.6429 29.021 50.5894 28.919 50.5175 28.8304C50.4456 28.7419 50.3567 28.6687 50.256 28.6151" fill="#353535"/>
<path d="M58.0047 53.1764C58.5206 52.995 59.0187 52.7666 59.493 52.4941C59.513 52.6485 59.5021 52.8054 59.4608 52.9555C59.4196 53.1057 59.3489 53.2461 59.2529 53.3686C58.5192 54.6376 57.4751 55.6991 56.2189 56.4533C55.2295 57.0687 54.0905 57.401 52.9256 57.4142C51.3683 57.3913 49.8572 56.8805 48.605 55.9536C48.0769 55.5788 47.5776 55.1464 47.0687 54.7332C46.8141 54.5155 46.5911 54.2632 46.4062 53.9836C46.7864 53.9501 47.1687 53.9501 47.5488 53.9836C47.921 54.3184 48.3378 54.5998 48.7874 54.8196C49.2988 55.169 49.8898 55.3838 50.506 55.4443C51.5097 55.5163 52.5172 55.5163 53.5209 55.4443C54.4694 55.4021 55.3999 55.1701 56.2573 54.762C56.643 54.626 56.9969 54.4127 57.2974 54.1351C57.5978 53.8575 57.8385 53.5215 58.0047 53.1476" fill="#353535"/>
<path d="M58.0038 53.1755C57.8344 53.544 57.5923 53.8745 57.292 54.147C56.9917 54.4195 56.6394 54.6284 56.2563 54.761C55.3996 55.1725 54.4691 55.4077 53.5199 55.4529C52.5163 55.525 51.5087 55.525 50.5051 55.4529C49.8889 55.3924 49.2978 55.1776 48.7864 54.8283C48.3368 54.6084 47.92 54.3271 47.5479 53.9923C47.7399 53.9923 47.9319 53.9923 48.1239 53.9923C49.993 54.1011 51.8676 54.0657 53.7312 53.8866C55.0623 53.8204 56.3807 53.5945 57.6581 53.2139C57.7716 53.1853 57.8872 53.1661 58.0038 53.1562" fill="white"/>
<path d="M78.666 4.26378C69.2759 -2.33793 58.6183 -0.973383 49.0073 6.3106C46.9046 7.90578 45.9829 7.79046 43.3521 7.94421C34.442 8.47274 36.6311 18.0053 38.609 19.6582C41.6238 22.2239 47.5191 21.8395 53.4336 21.2533L56.1796 20.9843C58.1215 20.7804 60.0752 20.7097 62.0268 20.7729C62.5549 20.7729 63.0638 20.8594 63.5534 20.9266L64.2159 21.0323L64.6864 21.1476C65.0601 21.2326 65.4262 21.3483 65.781 21.4936L67.0675 22.099L67.5476 22.3584C67.778 22.493 68.0181 22.6179 68.2485 22.762C68.479 22.9062 68.6326 23.0023 68.815 23.1272C68.9874 23.2336 69.154 23.3491 69.3143 23.4731C69.5159 23.6269 69.7175 23.771 69.9096 23.9344L70.2552 24.2419C70.4653 24.4216 70.6641 24.6142 70.8505 24.8185C70.9177 24.8857 70.9753 24.9626 71.0425 25.0395C71.7658 25.8669 72.329 26.8216 72.7036 27.8551C72.9057 28.3979 73.0599 28.9574 73.1644 29.5271C73.3373 30.4881 73.9325 31.1511 74.0094 31.8622C74.1534 33.2364 73.4525 47.8139 72.5499 51.5424C72.1436 52.9787 71.3995 54.2967 70.38 55.3862C69.4871 56.3472 67.4228 55.8859 66.2706 54.2715C64.0623 51.1484 61.6716 49.7358 56.9285 49.4668C54.4897 49.313 49.0457 49.8896 46.7318 50.0626C42.8912 50.3701 41.3934 52.6091 41.3934 53.9064C41.3284 56.499 41.9056 59.0675 43.0736 61.3825C46.2325 67.3692 50.2939 68.5224 57.8598 68.2149H58.0038C58.1478 68.2149 76.6305 67.5999 75.9008 46.1131C75.8528 44.7966 76.0737 36.5036 76.4481 35.3024C76.8226 34.1012 78.4836 34.8988 79.3285 35.8309L79.3861 35.8982C79.5572 36.0837 79.7085 36.2866 79.8374 36.5036L79.895 36.5997C80.1677 37.0926 80.3528 37.629 80.4423 38.1852C80.4488 38.2427 80.4488 38.3007 80.4423 38.3582C80.4895 38.6958 80.5152 39.036 80.5191 39.3768V39.5882C80.5272 40.015 80.508 40.4419 80.4615 40.8663C80.13 42.2227 79.7261 43.5603 79.2517 44.8734C79.0419 45.5228 78.8846 46.188 78.7813 46.8626C78.7311 47.2127 78.7054 47.5659 78.7044 47.9197C78.7061 48.2801 78.735 48.6399 78.7909 48.9959C79.0145 50.666 79.5074 52.2886 80.2503 53.8007C80.7967 54.9422 81.4391 56.0352 82.1705 57.0679L82.9291 58.0769C83.3323 58.5862 83.9948 58.4228 84.5421 57.9616C85.6653 56.8559 86.6812 55.6461 87.5761 54.3484C93.8747 43.6338 100.778 22.2623 85.4638 8.10758C83.4977 6.35573 81.18 5.04514 78.666 4.26378ZM55.9491 58.9706C54.0314 58.8425 52.1079 58.8264 50.1883 58.9225C47.7687 59.2588 47.3079 59.3357 45.0611 57.9616C45.8292 56.8276 45.7428 54.4157 46.0213 54.4253C46.2997 54.4349 50.1787 53.7046 51.0332 53.0896C51.2252 52.9454 57.4373 53.9928 59.5881 53.0896C60.1929 52.8878 61.4315 55.5304 62.4109 56.9333C60.4792 58.1778 58.2453 58.8722 55.9491 58.9417" fill="#353535"/>
<path d="M39.4683 112.182C39.4683 112.182 37.8309 111.553 35.9674 106.95C35.5769 105.985 35.1765 100.443 35.1652 100.692C33.6625 95.4896 31.756 95.9913 31.756 95.9913C30.6848 95.9913 30.6034 98.5839 30.3482 99.9804C30.2636 101.073 30.4311 102.172 30.838 103.197L30.1021 106.119L26.1266 99.1417L20.6109 92.7968C20.2144 92.5986 19.7739 92.5045 19.3323 92.5237C18.8907 92.5428 18.463 92.6746 18.0908 92.9061C16.7431 93.715 17.5352 95.3731 17.9836 95.972C18.4321 96.5708 22.2504 102.448 22.2504 102.448L23.8701 106.95L22.965 107.403L19.0587 102.104C19.0587 102.104 14.3588 94.782 12.9997 93.903L12.9156 93.8696C12.6611 93.7178 12.367 93.6448 12.0718 93.66C11.7766 93.6753 11.494 93.7782 11.2609 93.9552C11.0278 94.1322 10.8549 94.3752 10.765 94.6524C10.675 94.9296 10.6721 95.2281 10.7567 95.509C11.6479 98.536 13.1995 103.7 13.4134 103.627C13.6272 103.554 18.6454 110.772 18.6454 110.772C18.6454 110.772 12.7581 105.916 12.3713 105.174C9.35176 94.6524 8.4302 95.719 8.4302 95.719C8.4302 95.719 7.56149 95.5416 6.69465 97.297L6.34487 99.2575C6.34487 99.2575 6.0256 99.6329 5.42901 100.486C4.83242 101.34 5.66499 109.15 5.66499 109.15C5.66499 109.15 14.2944 120.133 18.2458 121.368C25.348 123.588 30.1937 122.887 30.1937 122.887L35.1652 122.343L39.4683 112.182Z" fill="#ECBA98"/>
<path d="M17.3368 89.0238C17.2714 88.8767 17.1602 88.7545 17.0197 88.6753C16.8791 88.596 16.7167 88.564 16.5564 88.5838C16.4631 88.5599 16.3657 88.5561 16.2708 88.5726C16.1759 88.5891 16.0856 88.6257 16.006 88.6798C15.9264 88.7338 15.8593 88.8042 15.8092 88.8862C15.7591 88.9681 15.7271 89.0598 15.7154 89.1551C15.7081 89.3499 15.7677 89.5415 15.8842 89.6982C16.0008 89.8549 16.1675 89.9674 16.3568 90.0173C16.4987 90.0561 16.648 90.0588 16.7911 90.0254C16.9343 89.9919 17.0668 89.9232 17.1764 89.8257C17.2829 89.7248 17.3555 89.5936 17.3842 89.45C17.4129 89.3065 17.3964 89.1576 17.3368 89.0238Z" fill="#E0E0E0"/>
</svg>
