<svg width="120" height="147" viewBox="0 0 120 147" fill="none" xmlns="http://www.w3.org/2000/svg">
<path d="M93.3877 46.4463C93.1187 42.2336 91.3474 38.2134 88.8586 34.8065C87.6075 33.0873 86.1277 31.4175 85.6838 29.3402C85.0873 26.5735 86.4013 23.3994 84.89 21.0042C83.8228 19.3165 81.7107 18.5823 80.4506 17.0333C79.1905 15.4843 79.8183 10.0941 73.4461 8.70627C73.1367 4.94569 73.1188 3.30268 69.8991 1.31942C66.6794 -0.663835 60.9754 -0.175856 59.7422 3.39221C57.0113 1.10901 52.0113 -1.08466 48.8678 0.58969C46.9306 1.62833 45.4418 3.32954 43.6436 4.59202C40.8499 6.54394 37.4329 7.35425 34.3073 8.72865C31.1818 10.1031 28.0742 12.3773 27.3702 15.7081C26.8365 18.1659 27.6975 20.7491 27.2401 23.2203C26.8545 25.302 25.5854 27.0883 24.6034 28.9641C23.7826 30.5361 23.1562 32.2017 22.7379 33.9245C21.9262 37.2822 22.3747 41.6113 25.5181 43.0663C24.386 43.3889 23.4037 44.0989 22.7434 45.072C22.0831 46.0452 21.7868 47.2192 21.9066 48.3885C22.0264 49.5578 22.5546 50.6477 23.3986 51.4672C24.2426 52.2867 25.3485 52.7836 26.5226 52.8706C20.3926 54.742 20.2446 64.3001 20.4061 65.2985C20.6348 66.6908 22.146 67.5682 23.5451 67.5817C24.9442 67.5951 26.2805 66.9639 27.5495 66.3461C27.9957 67.1754 28.6639 67.8647 29.4796 68.3371C30.2952 68.8095 31.2263 69.0464 32.169 69.0213C33.1116 68.9962 34.0287 68.7102 34.8181 68.1951C35.6074 67.6801 36.2379 66.9562 36.6392 66.1043C37.1727 67.0866 37.9607 67.9077 38.9208 68.4818C39.881 69.0559 40.978 69.362 42.0972 69.3679C43.2164 69.3739 44.3167 69.0795 45.2829 68.5156C46.2491 67.9517 47.0459 67.139 47.5898 66.1625L69.065 61.2379C70.5179 59.7695 79.8587 60.2441 85.2533 59.7471C87.5985 59.5278 90.2219 59.1651 91.6568 57.3028C92.594 56.0895 92.8093 54.4868 93.0021 52.9691C93.3309 50.8113 93.46 48.6278 93.3877 46.4463Z" fill="#353535"/>
<path d="M55.9005 105.733L45.5373 78.285L50.9184 72.9128L50.7032 71.1847C50.1202 66.8645 49.9005 65.0917 49.905 65.132C49.9095 65.1722 40.5777 64.7425 37.2145 53.0712C35.5418 47.2513 34.6405 37.5186 34.1607 29.5229C33.7122 22.3241 37.3894 12.9808 44.609 12.8555L67.5596 15.7341C68.618 15.714 69.6453 16.0918 70.4377 16.7925C71.2301 17.4932 71.7298 18.4657 71.8376 19.5171L75.8062 67.6838L78.851 70.2848L82.5147 103.651L55.9005 105.733Z" fill="#ECBA98"/>
<path d="M49.9199 65.1207C55.5453 64.5154 60.8918 62.3626 65.3638 58.9023C65.3638 58.9023 62.3728 67.6949 50.3011 68.0486L49.9199 65.1207Z" fill="#E09C72"/>
<path d="M70.5332 34.401C70.6857 34.3026 76.8919 31.4105 77.7081 38.0587C78.5242 44.7068 71.6543 44.1427 71.6184 43.9547C71.5825 43.7667 70.5332 34.401 70.5332 34.401Z" fill="#ECBA98"/>
<path d="M73.3669 41.1829C73.3938 41.1561 73.4925 41.2501 73.7032 41.3127C73.9918 41.3983 74.3024 41.3678 74.5687 41.2277C75.2413 40.883 75.6987 39.6966 75.5866 38.4968C75.5323 37.9248 75.3532 37.3717 75.0619 36.8762C74.9745 36.6756 74.8394 36.4994 74.6682 36.3629C74.4971 36.2263 74.2951 36.1336 74.0799 36.0927C73.9421 36.0742 73.8021 36.1043 73.6842 36.1779C73.5663 36.2515 73.4779 36.3639 73.4342 36.4956C73.3669 36.6926 73.4342 36.818 73.3938 36.8359C73.3534 36.8538 73.2369 36.7419 73.2548 36.4598C73.2728 36.2912 73.347 36.1336 73.4656 36.0121C73.5475 35.9313 73.645 35.8679 73.7521 35.8256C73.8592 35.7833 73.9737 35.763 74.0889 35.7659C74.3716 35.7861 74.6442 35.8792 74.88 36.0362C75.1158 36.1931 75.3067 36.4085 75.4341 36.6613C75.7856 37.1986 76.001 37.8132 76.0619 38.452C76.1785 39.7951 75.6449 41.1381 74.7167 41.5276C74.5445 41.6016 74.3578 41.6357 74.1706 41.6271C73.9834 41.6186 73.8006 41.5678 73.636 41.4784C73.3669 41.3486 73.3265 41.2053 73.3669 41.1829Z" fill="#DAA483"/>
<path d="M74.0743 31.1841C73.8994 26.6759 73.7066 22.0737 72.0922 17.8609C71.7805 16.8855 71.2267 16.0045 70.4824 15.3002C69.8148 14.8042 69.0513 14.452 68.2402 14.266C66.9891 13.9123 66.6483 13.0662 65.3479 12.9722C60.4152 8.7863 53.339 7.3537 47.0834 9.03701C40.8278 10.7203 35.5094 15.3987 32.8099 21.2768C30.152 27.2595 29.9603 34.0464 32.2763 40.1692C31.8727 35.361 34.913 30.8842 38.6395 27.8399C42.3659 24.7956 46.8233 22.7676 50.747 20.0054C50.7132 20.6722 50.5354 21.3239 50.2258 21.9158C49.9162 22.5077 49.4822 23.0258 48.9533 23.4346C52.0609 22.6019 55.2044 21.7513 58.0295 20.2023C58.6818 19.8619 59.3109 19.479 59.9129 19.0563C59.9773 19.7874 60.1797 20.4998 60.5093 21.1559C61.5676 23.2198 63.8232 24.3211 65.5497 25.8745C65.7728 26.0497 65.951 26.2753 66.0698 26.5326C66.1795 26.9572 66.1513 27.4056 65.9891 27.813C65.5511 29.1531 65.3983 30.5697 65.5407 31.9721C65.7515 33.3599 66.5317 34.7253 67.7828 35.3297C67.3165 36.0626 67.0912 36.9226 67.1387 37.7896C67.1861 38.6565 67.5038 39.487 68.0474 40.1647C68.1915 40.3735 68.4066 40.5231 68.6528 40.5856C69.0564 40.6438 69.3972 40.2901 69.6304 39.9498C70.3187 38.9591 70.7908 37.835 71.016 36.6504C71.057 36.1437 71.2184 35.6542 71.4868 35.2223C71.9353 34.6537 72.7649 34.5373 73.3164 34.0583C74.0967 33.3823 74.1146 32.2272 74.0743 31.1841Z" fill="#353535"/>
<path d="M52.3643 101.028L85.7228 99.8867L88.817 145.372L59.6243 145.775L52.3643 101.028Z" fill="#EFEFEF"/>
<path d="M78.3216 67.225C78.77 66.6564 103.653 83.5074 104.779 85.522C105.904 87.5366 111.909 145.785 111.909 145.785H79.3978C79.3978 145.785 76.4113 97.8289 76.5727 93.4058C76.7342 88.9826 78.3216 67.225 78.3216 67.225Z" fill="#91004B"/>
<path d="M3.29621 146.049C3.29621 146.049 -0.376419 138.515 0.0316508 134.857C0.439721 131.2 3.29621 123.862 3.29621 123.862L10.637 110.834C10.637 110.834 12.1033 99.9779 12.9195 97.9409C13.7356 95.904 18.0316 82.1286 23.1302 78.8963C28.2288 75.664 43.6772 73.4166 43.6772 73.4166L50.5247 68.3398C50.5247 68.3398 57.3318 88.4186 58.3497 93.9162C59.3677 99.4138 65.0762 146.027 65.0762 146.027L3.29621 146.049Z" fill="#91004B"/>
<path opacity="0.3" d="M34.1346 145.374C37.4306 143.423 41.1339 142.258 44.9552 141.972C47.8969 141.757 50.9238 142.057 53.7264 141.148C56.8654 140.132 59.3363 137.732 61.6816 135.404C62.3735 134.819 62.9161 134.078 63.2645 133.242C63.547 132.387 63.3138 131.29 62.5112 130.878C61.8878 130.56 61.1659 130.726 60.4708 130.914C50.5772 133.644 41.4057 138.512 33.6055 145.173" fill="black"/>
<path d="M87.533 73.2711C87.533 73.2711 87.2101 73.3294 86.6361 73.4726C85.8361 73.676 85.0593 73.961 84.3178 74.3232C83.804 74.5645 83.3093 74.8443 82.8379 75.1604C82.2956 75.5112 81.8228 75.9589 81.4433 76.4811C81.0312 77.055 80.8229 77.7498 80.8514 78.4554C80.8678 78.8217 80.974 79.1783 81.1608 79.494C81.3601 79.8101 81.6466 80.0619 81.9859 80.2193C82.3224 80.3832 82.7009 80.441 83.0711 80.3849C83.2493 80.3591 83.4205 80.2979 83.5746 80.2048C83.7286 80.1118 83.8624 79.9888 83.968 79.8432C84.1537 79.554 84.2583 79.2203 84.271 78.877C84.2836 78.5337 84.2037 78.1933 84.0397 77.8913C83.8821 77.6192 83.6689 77.3833 83.4139 77.199C83.159 77.0146 82.868 76.8859 82.5599 76.8213C82.0151 76.6863 81.4455 76.6863 80.9007 76.8213C80.1144 77.0576 79.3829 77.4472 78.7483 77.9674C78.2998 78.3211 78.0353 78.536 78.0263 78.5225C78.0173 78.5091 78.0756 78.4554 78.1832 78.3479C78.2909 78.2405 78.4657 78.0838 78.69 77.9002C79.3179 77.3411 80.0577 76.9214 80.8604 76.6691C81.4283 76.5064 82.0279 76.488 82.6048 76.6154C82.9424 76.6821 83.2619 76.8201 83.5419 77.02C83.8219 77.22 84.0558 77.4774 84.2281 77.7749C84.4151 78.1117 84.5068 78.4929 84.4934 78.8778C84.48 79.2627 84.3619 79.6366 84.1518 79.9596C83.9072 80.2987 83.538 80.5273 83.1249 80.5953C82.7077 80.6604 82.2804 80.5964 81.9007 80.4118C81.5192 80.2351 81.1968 79.9521 80.9725 79.597C80.7684 79.2481 80.6529 78.8546 80.6361 78.4509C80.6069 77.6947 80.8327 76.9506 81.2774 76.3378C81.6801 75.8047 82.1771 75.3495 82.7438 74.9947C83.2274 74.681 83.7341 74.4041 84.2595 74.1665C85.0164 73.8157 85.8107 73.5513 86.6272 73.3786C86.9186 73.3204 87.1473 73.2935 87.2998 73.2756C87.377 73.264 87.4554 73.2625 87.533 73.2711Z" fill="#EFEFEF"/>
<path opacity="0.3" d="M77.9017 72.2109C82.9644 74.6732 89.1124 74.8165 93.6191 78.1562C96.2456 80.093 98.059 82.9336 98.7085 86.1283C99.3579 89.323 98.7972 92.6447 97.1348 95.4504C96.8074 92.6031 96.2379 89.3663 93.8209 87.8397C92.7671 87.1727 91.498 86.9444 90.3277 86.4967C89.0048 86.0132 87.7806 85.27 86.4398 84.8447C84.6461 84.2717 82.6685 84.294 80.8613 83.6986C79.0542 83.1032 77.3053 81.5676 77.4443 79.6694L77.9017 72.2109Z" fill="black"/>
<path d="M97.0536 94.6718L96.3361 85.6688C96.3361 85.6688 91.4438 84.7242 89.7084 83.6229C87.9729 82.5216 84.7756 80.2429 84.7756 80.2429C84.7756 80.2429 84.0088 82.9917 82.4304 83.1484L81.0133 83.3095L80.9909 77.7537C80.9909 77.7537 80.7174 80.2429 78.6725 80.6279C78.2241 80.7174 78.1972 80.6279 78.1972 80.6279L76.816 73.3709C76.816 73.3709 75.1703 75.4929 72.1748 74.0782C72.1748 74.0782 77.0313 65.6169 77.982 65.3035C78.9326 64.9902 84.0357 64.8782 84.0357 64.8782C84.0357 64.8782 91.1388 64.4305 91.9281 64.735C92.7173 65.0394 93.8204 66.2929 93.8204 66.2929C93.8204 66.2929 102.175 74.311 104.856 76.9971C107.538 79.6833 108.793 83.6229 108.959 85.0555C109.125 86.4881 110.305 92.3752 110.305 92.3752" fill="#ECBA98"/>
<path d="M110.313 92.3594C110.297 92.3109 110.283 92.2616 110.272 92.2116C110.25 92.1042 110.219 91.9609 110.174 91.7639L109.824 90.0582C109.676 89.3106 109.497 88.3929 109.286 87.3139C109.183 86.7767 109.075 86.1947 108.976 85.5724C108.923 85.2635 108.896 84.9367 108.828 84.6144C108.761 84.292 108.676 83.9607 108.582 83.625C108.134 82.1439 107.489 80.7299 106.663 79.4212C106.2 78.6808 105.667 77.9867 105.071 77.3484C104.447 76.6948 103.748 76.0546 103.057 75.3741L93.7343 66.3577C93.4547 66.0405 93.1552 65.7414 92.8375 65.4623C92.5396 65.1706 92.1815 64.9476 91.7881 64.8087C91.3619 64.7488 90.9315 64.7234 90.5012 64.7326C90.0527 64.7326 89.6043 64.7326 89.1559 64.7326C87.3622 64.7729 85.5371 64.8848 83.6582 64.9743C82.7209 65.0012 81.7747 65.037 80.8196 65.0907C80.3443 65.1176 79.8689 65.1489 79.3891 65.1892C78.9172 65.2161 78.4489 65.2866 77.99 65.3996C77.8033 65.5206 77.6381 65.672 77.5012 65.8473C77.3488 66.0353 77.2008 66.2234 77.0528 66.4203C76.7613 66.8143 76.4878 67.2172 76.2142 67.6291C75.6672 68.4439 75.1425 69.2855 74.6178 70.1361C73.8017 71.4792 73.0169 72.7865 72.2546 74.0982L72.2053 73.937C72.9493 74.3111 73.7844 74.4663 74.6134 74.3847C75.4209 74.2773 76.1627 73.8832 76.703 73.2744L76.8645 73.0909L76.9093 73.3237C77.3802 75.8084 77.842 78.2482 78.2905 80.5807C78.2905 80.5135 78.2636 80.5315 78.2591 80.518H78.3129C78.3546 80.5224 78.3967 80.5224 78.4384 80.518C78.5292 80.5081 78.6191 80.4917 78.7075 80.4688L78.9676 80.3972L79.2142 80.2942C79.5362 80.1408 79.8208 79.9193 80.0483 79.645C80.4889 79.0833 80.7707 78.4139 80.8644 77.7065H81.0797C81.0797 79.6227 81.0931 81.4731 81.12 83.2579L81.0079 83.1594L82.3891 83.0072C82.8186 82.9531 83.213 82.7426 83.4967 82.4162C84.0526 81.7649 84.4611 81.0013 84.694 80.1778L84.7344 80.0569L84.8375 80.1285L87.8599 82.2148L89.2859 83.1997C89.7252 83.5275 90.2062 83.7955 90.7164 83.9966C91.6708 84.3749 92.649 84.6904 93.6446 84.9412C94.5863 85.1874 95.4877 85.3889 96.3352 85.5679H96.3801V85.6172L96.8823 92.2609C96.9361 93.0249 96.9765 93.6114 97.0034 94.0203C97.0034 94.2128 97.0258 94.365 97.0303 94.468C97.0348 94.5709 97.0303 94.6202 97.0303 94.6202C97.0303 94.6202 97.0303 94.5709 97.0079 94.468C96.9854 94.365 97.0079 94.2128 96.963 94.0203C96.9271 93.6129 96.8778 93.0264 96.8061 92.2609C96.676 90.7164 96.4877 88.469 96.25 85.6261L96.2993 85.6799C95.4473 85.5142 94.5415 85.3128 93.6088 85.0665C92.6044 84.8192 91.6172 84.5066 90.6536 84.1309C90.1328 83.928 89.6412 83.657 89.1918 83.325L87.7657 82.3446L84.7299 80.2673L84.8734 80.2181C84.6391 81.0762 84.2163 81.8714 83.6357 82.5461C83.322 82.9068 82.8862 83.1395 82.4115 83.1997L81.0304 83.3564H80.9183V83.2444C80.9003 81.4537 80.8824 79.6018 80.8644 77.6886H81.0752C80.9805 78.439 80.6828 79.1493 80.2142 79.7435C79.9699 80.0423 79.664 80.2851 79.3174 80.4553L79.0483 80.5673L78.7613 80.6434C78.6671 80.6681 78.5712 80.6861 78.4743 80.6971H78.3174H78.2277H78.1694H78.129C78.129 80.6971 78.0976 80.6971 78.0797 80.6076L76.6941 73.4132L76.8959 73.4625C76.3204 74.1224 75.5228 74.5492 74.6537 74.6623C73.7822 74.7573 72.9017 74.6019 72.1156 74.2146L71.999 74.1609L72.0618 74.0534C72.8241 72.7342 73.6119 71.4106 74.425 70.0824C74.9497 69.2318 75.4788 68.3902 76.0304 67.5664C76.3039 67.1546 76.582 66.7472 76.8734 66.3487C77.0214 66.1517 77.1694 65.9592 77.3219 65.7667C77.4787 65.5566 77.6734 65.3775 77.8959 65.2385C78.3766 65.1193 78.8676 65.0458 79.3622 65.0191C79.8465 64.9743 80.3263 64.9475 80.8061 64.9161C81.7598 64.8684 82.706 64.8311 83.6447 64.8042C85.5102 64.7191 87.3532 64.6072 89.1469 64.5714C89.5953 64.5714 90.0438 64.5714 90.4922 64.5714C90.9422 64.5642 91.392 64.5927 91.8375 64.6565C92.2637 64.8055 92.6524 65.0453 92.9765 65.3593C93.2934 65.6393 93.5929 65.9383 93.8733 66.2547L103.174 75.298C103.864 75.983 104.555 76.6187 105.187 77.2812C105.786 77.9315 106.32 78.6376 106.784 79.3899C107.609 80.7137 108.252 82.1428 108.694 83.6384C108.794 83.968 108.876 84.3028 108.941 84.6412C109.003 84.9725 109.03 85.2949 109.08 85.6038C109.174 86.226 109.277 86.8036 109.371 87.3453C109.573 88.4242 109.743 89.3464 109.878 90.0985C110.012 90.8507 110.124 91.4103 110.201 91.8087C110.236 91.9967 110.263 92.14 110.281 92.2564C110.299 92.3728 110.313 92.3594 110.313 92.3594Z" fill="#E09C72"/>
<path d="M85.2275 65.3047C85.2275 65.345 84.4876 65.4793 83.3306 65.8778C81.8291 66.416 80.3743 67.0763 78.9809 67.8521C78.5836 68.0516 78.2229 68.3165 77.9136 68.6355C77.6317 68.9374 77.4069 69.2878 77.25 69.6697C76.9614 70.3156 76.8204 71.0175 76.8374 71.7246C76.8374 72.3334 76.8823 72.8304 76.8867 73.1706C76.9087 73.349 76.9087 73.5294 76.8867 73.7078C76.8449 73.5346 76.8209 73.3576 76.815 73.1795C76.7836 72.8348 76.7163 72.3468 76.6894 71.729C76.6502 70.9945 76.7806 70.2608 77.0706 69.5846C77.234 69.1774 77.4694 68.8028 77.7657 68.4788C78.0899 68.1404 78.4689 67.8589 78.8867 67.6461C80.2892 66.8616 81.7657 66.2168 83.2948 65.7211C83.7603 65.5775 84.2333 65.4594 84.7118 65.3674C84.8803 65.3248 85.0536 65.3037 85.2275 65.3047Z" fill="#E09C72"/>
<path d="M90.5595 66.8867C90.335 66.9741 90.1041 67.0444 89.8689 67.0971C89.4205 67.2314 88.7748 67.4105 88.0035 67.706C87.1005 68.0537 86.2301 68.4807 85.4026 68.9819C84.9273 69.255 84.425 69.546 83.8959 69.8235C83.3668 70.1011 82.7838 70.3429 82.2636 70.6697C82.0091 70.8191 81.7874 71.0183 81.6118 71.2552C81.4361 71.4921 81.3101 71.7619 81.2412 72.0486C81.1007 72.5977 81.0076 73.1579 80.9632 73.7229C80.8962 74.6873 80.8962 75.6551 80.9632 76.6194C81.0035 77.4477 81.0394 78.1192 81.0529 78.5848C81.074 78.8246 81.074 79.0658 81.0529 79.3056C81.0071 79.0693 80.9801 78.8298 80.9721 78.5893C80.9273 78.0834 80.8735 77.4253 80.8062 76.6284C80.7204 75.6562 80.7084 74.679 80.7704 73.705C80.8101 73.125 80.9016 72.5497 81.0439 71.9859C81.123 71.6795 81.2567 71.3899 81.4385 71.1308C81.6352 70.8677 81.8802 70.6444 82.1605 70.4727C82.7165 70.128 83.2905 69.9041 83.8107 69.6221C84.3309 69.34 84.8376 69.0625 85.3174 68.7939C86.1612 68.2997 87.0483 67.8831 87.9676 67.5493C88.5908 67.3349 89.2256 67.1555 89.8689 67.0121C90.0946 66.9482 90.3258 66.9062 90.5595 66.8867Z" fill="#E09C72"/>
<path d="M93.1593 69.2461C92.9748 69.3406 92.7809 69.4156 92.5808 69.4699C92.2086 69.6042 91.6839 69.7967 91.0203 70.0698C89.3078 70.7401 87.75 71.7516 86.4418 73.0425C85.7499 73.769 85.2209 74.6343 84.8902 75.5809C84.6194 76.3567 84.48 77.1723 84.4777 77.9939C84.5037 78.7489 84.6089 79.4992 84.7916 80.2323C84.7916 80.2323 84.7602 80.1876 84.7243 80.0891C84.6641 79.9432 84.6132 79.7937 84.5719 79.6414C84.4145 79.0982 84.3285 78.5369 84.3163 77.9715C84.2928 77.1297 84.4173 76.2903 84.684 75.4913C85.0142 74.5086 85.556 73.6101 86.2714 72.8589C87.5996 71.5434 89.1986 70.5321 90.9575 69.8952C91.6212 69.6401 92.1727 69.4699 92.5539 69.3625C92.7512 69.3033 92.954 69.2643 93.1593 69.2461Z" fill="#E09C72"/>
<path d="M95.8627 74.8702C95.8627 74.8702 95.8313 74.9105 95.7506 74.9597C95.6336 75.0299 95.5042 75.077 95.3694 75.0985C94.8738 75.1549 94.3721 75.0776 93.9165 74.8746C93.6091 74.7524 93.2908 74.6594 92.9659 74.5971C92.5994 74.5448 92.2255 74.588 91.8807 74.7224C91.0862 75.0866 90.3342 75.537 89.6385 76.0655C88.9175 76.5537 88.2953 77.1734 87.8045 77.8921C87.4804 78.5423 87.0832 79.1536 86.6206 79.7142C86.4244 79.9207 86.1976 80.0959 85.948 80.2335C85.7556 80.3371 85.5386 80.3867 85.3202 80.3767C85.1843 80.3725 85.0498 80.3484 84.9211 80.3051C84.8314 80.2738 84.791 80.2558 84.791 80.2469C84.791 80.2379 84.9838 80.2917 85.3202 80.2872C85.5209 80.277 85.7163 80.2186 85.8897 80.1171C86.1191 79.9771 86.3261 79.8035 86.504 79.6022C86.9359 79.0318 87.3099 78.4199 87.6206 77.7757C88.1221 77.0301 88.7649 76.3898 89.513 75.8909C89.8986 75.6133 90.2843 75.3626 90.6565 75.1209C91.0148 74.8762 91.4019 74.6762 91.8089 74.5255C92.1882 74.3843 92.5977 74.3442 92.9973 74.4091C93.3323 74.4826 93.6596 74.5875 93.9748 74.7224C94.4039 74.9324 94.8785 75.0324 95.356 75.0134C95.5295 74.9838 95.6994 74.9358 95.8627 74.8702Z" fill="#E09C72"/>
<path d="M115.07 142.71C112.914 144.442 110.169 145.269 107.414 145.019C104.659 144.768 102.109 143.459 100.303 141.367C98.2401 138.959 96.5988 135.995 96.8544 132.83C97.4867 124.883 97.1055 93.402 97.1055 93.402L109.76 90.1562C109.76 90.1562 119.514 128.21 119.989 134.849C120.186 137.754 117.801 140.521 115.07 142.71Z" fill="#ECBA98"/>
<path d="M13.1619 129.376H27.6865L35.7178 126.556L38.0586 120.342C38.0586 120.342 42.7716 116.761 47.6774 121.282C52.5832 125.804 55.5967 134.838 55.5967 134.838L42.5922 139.36C42.5922 139.36 34.4847 145.413 33.5385 145.43L7.57897 145.78C7.57897 145.78 7.3144 134.27 13.1619 129.376Z" fill="#ECBA98"/>
<path d="M46.386 126.453L44.6685 99.0684C44.6557 98.8254 44.6926 98.5824 44.777 98.3542C44.8614 98.1259 44.9915 97.9173 45.1594 97.7409C45.3272 97.5645 45.5293 97.4241 45.7533 97.3283C45.9773 97.2325 46.2185 97.1833 46.4622 97.1836H61.4173C61.8786 97.1831 62.3224 97.36 62.6564 97.6777C62.9905 97.9953 63.1891 98.4292 63.211 98.8893L64.2917 126.27C64.2995 126.51 64.2589 126.749 64.1723 126.973C64.0856 127.197 63.9548 127.401 63.7874 127.574C63.6201 127.746 63.4197 127.884 63.1982 127.977C62.9766 128.071 62.7385 128.119 62.498 128.119H48.1483C47.699 128.112 47.2686 127.937 46.9422 127.629C46.6159 127.32 46.4174 126.901 46.386 126.453Z" fill="#83786F"/>
<path d="M62.5568 114.154C62.5361 114.045 62.5256 113.934 62.5254 113.823C62.5254 113.581 62.512 113.263 62.4851 112.869C62.4582 112.014 62.4223 110.823 62.3775 109.364C62.3326 107.904 62.2967 106.118 62.2474 104.166C62.2265 103.187 62.2026 102.164 62.1757 101.095C62.1997 100.567 62.1407 100.038 62.0008 99.5282C61.9176 99.2828 61.7611 99.0688 61.5524 98.9149C61.3366 98.7667 61.0866 98.6758 60.8259 98.6508C60.2733 98.6194 59.7193 98.6194 59.1667 98.6508L57.5434 98.6866L54.4672 98.7448L49.2564 98.8343L47.2565 98.8612C46.7582 98.8342 46.2585 98.8658 45.7677 98.9552C45.6184 98.9938 45.4796 99.0653 45.3617 99.1644C45.2437 99.2636 45.1495 99.3879 45.0861 99.5282C45.0536 99.6314 45.034 99.7381 45.0278 99.8461C44.9894 99.739 44.9894 99.6219 45.0278 99.5148C45.0846 99.3595 45.1777 99.22 45.2993 99.1079C45.421 98.9958 45.5677 98.9142 45.7273 98.8701C46.2232 98.7604 46.7309 98.7138 47.2385 98.7313L49.2385 98.6687L54.4492 98.5299L57.521 98.4583L59.1488 98.418C59.7134 98.3867 60.2793 98.3867 60.8438 98.418C61.1429 98.4517 61.4292 98.5578 61.6779 98.7269C61.9186 98.9107 62.0996 99.1615 62.1981 99.4476C62.3461 99.9821 62.4082 100.537 62.3819 101.091C62.4029 102.156 62.4223 103.18 62.4402 104.162C62.4671 106.114 62.4941 107.873 62.521 109.359C62.5479 110.846 62.521 112.014 62.5524 112.865V113.818C62.5644 113.93 62.5659 114.042 62.5568 114.154Z" fill="#9A9A9A"/>
<path d="M54.2081 103.512C54.1258 103.326 53.9859 103.172 53.809 103.072C53.6322 102.972 53.4277 102.932 53.226 102.957C53.1086 102.926 52.9861 102.922 52.8666 102.942C52.7471 102.963 52.6335 103.009 52.5333 103.078C52.4332 103.146 52.3487 103.235 52.2857 103.338C52.2226 103.441 52.1824 103.557 52.1677 103.677C52.1585 103.923 52.2335 104.165 52.3802 104.363C52.5269 104.56 52.7366 104.702 52.9749 104.765C53.1534 104.814 53.3413 104.818 53.5214 104.775C53.7016 104.733 53.8683 104.647 54.0063 104.523C54.1403 104.396 54.2317 104.231 54.2678 104.05C54.3039 103.868 54.2831 103.681 54.2081 103.512Z" fill="#E0E0E0"/>
<path d="M37.7705 121.097V118.308C37.7705 118.308 40.5149 111.861 40.4342 112.099C40.3535 112.336 45.2951 108.965 45.2951 108.965C45.4637 110.384 45.4092 111.82 45.1337 113.222C44.8123 114.276 44.2557 115.244 43.5059 116.052L43.1158 119.06L49.331 114.006L56.7345 110.115C57.1724 110.077 57.6128 110.153 58.0127 110.335C58.4127 110.517 58.7587 110.799 59.017 111.154C59.9632 112.412 58.6269 113.67 57.9946 114.064C57.3623 114.458 51.6942 118.541 51.6942 118.541L48.5552 122.154L49.2234 122.915L54.7615 119.405C54.7615 119.405 61.7704 114.297 63.3444 113.979H63.4341C63.7242 113.931 64.0219 113.972 64.2883 114.096C64.5548 114.22 64.7776 114.422 64.9277 114.674C65.0778 114.926 65.1483 115.218 65.1298 115.511C65.1113 115.804 65.0048 116.084 64.8242 116.316C62.8959 118.818 59.5776 123.076 59.4072 122.928C59.2368 122.78 51.9722 127.674 51.9722 127.674C51.9722 127.674 59.174 125.314 59.8018 124.764C60.4296 124.213 66.8914 117.377 66.8914 117.377C66.8914 117.377 67.7569 117.534 67.9139 119.499L67.5192 121.464C67.5192 121.464 67.6762 121.934 67.9139 122.955C68.1515 123.976 64.5282 130.978 64.5282 130.978C64.5282 130.978 50.3534 138.758 49.0126 138.839C47.6718 138.92 42.7346 138.839 42.7346 138.839L37.7705 121.097Z" fill="#ECBA98"/>
<path d="M67.4079 121.211C67.3397 121.419 67.2479 121.619 67.1343 121.806C66.841 122.328 66.5129 122.829 66.1523 123.306C65.7039 123.919 65.1478 124.618 64.5828 125.437C63.9598 126.331 63.2492 127.16 62.4617 127.913C60.9905 129.232 59.3479 130.348 57.5783 131.23C56.9057 131.579 56.3586 131.848 55.9775 132.032C55.7856 132.138 55.5826 132.224 55.3721 132.287C55.5498 132.158 55.7389 132.046 55.9371 131.951C56.3407 131.723 56.8698 131.436 57.4976 131.087C59.2281 130.17 60.8408 129.047 62.3003 127.743C63.0788 127 63.7859 126.186 64.4124 125.312C64.9864 124.497 65.5604 123.803 66.0222 123.208C66.4841 122.612 66.8339 122.115 67.0581 121.762C67.1634 121.571 67.2802 121.387 67.4079 121.211Z" fill="#E09C72"/>
<path d="M16.1092 127.77C15.1777 128.205 14.3003 128.747 13.4948 129.386C11.6127 131.007 10.1913 133.095 9.37379 135.438C8.58503 137.791 8.08952 140.231 7.89846 142.704C7.81326 143.627 7.74151 144.383 7.6877 144.943L7.62043 145.556C7.6207 145.628 7.60857 145.699 7.58456 145.767C7.57468 145.695 7.57468 145.623 7.58456 145.552C7.58456 145.386 7.58456 145.18 7.58456 144.938C7.58456 144.406 7.65183 143.631 7.72806 142.7C7.87746 140.205 8.35851 137.74 9.15854 135.371C9.98689 132.989 11.4524 130.879 13.3962 129.269C13.9908 128.795 14.6414 128.395 15.3334 128.078C15.5189 127.991 15.709 127.913 15.9029 127.846C15.9693 127.814 16.0383 127.789 16.1092 127.77Z" fill="#BA5E49"/>
<path d="M47.5785 40.5175C47.8028 39.8012 48.9238 40.0698 48.7131 40.8085C48.2108 42.4023 47.175 45.7599 50.018 45.2138C50.7489 45.075 51.0808 46.2032 50.3453 46.3464C49.1077 46.5837 47.8341 46.5658 47.2063 45.272C46.5023 43.7991 47.1122 41.9591 47.5651 40.5175" fill="#E09C72"/>
<path d="M53.8486 50.7992C54.3312 50.6338 54.7968 50.4224 55.2388 50.168C55.272 50.4597 55.1882 50.7526 55.0056 50.9828C54.3277 52.1563 53.3597 53.1367 52.1939 53.8301C51.2802 54.4047 50.2245 54.7147 49.1446 54.7254C47.7039 54.7036 46.3058 54.2342 45.1447 53.3824C44.6559 53.0376 44.1985 52.6303 43.7276 52.2542C43.4912 52.0546 43.2843 51.8225 43.1133 51.5648C43.4652 51.5313 43.8196 51.5313 44.1716 51.5648C44.5159 51.8743 44.9024 52.1335 45.3195 52.3348C45.793 52.6581 46.3406 52.8568 46.9115 52.9123C47.8401 52.9772 48.7721 52.9772 49.7007 52.9123C50.5799 52.8722 51.4418 52.6544 52.2343 52.2721C52.5917 52.1467 52.9195 51.9492 53.1972 51.692C53.4749 51.4348 53.6967 51.1233 53.8486 50.7768" fill="#353535"/>
<path d="M53.847 50.7969C53.695 51.1433 53.4732 51.4548 53.1955 51.7121C52.9178 51.9693 52.5901 52.1667 52.2326 52.2921C51.4402 52.6744 50.5783 52.8922 49.699 52.9323C48.7704 52.9973 47.8384 52.9973 46.9098 52.9323C46.3389 52.8768 45.7913 52.6782 45.3179 52.3548C44.9007 52.1536 44.5142 51.8943 44.1699 51.5848C44.3448 51.5848 44.5242 51.5848 44.7036 51.5848C46.4343 51.69 48.1706 51.6586 49.8963 51.4908C51.1289 51.4266 52.3495 51.2177 53.5331 50.8685C53.6358 50.8401 53.7409 50.8206 53.847 50.8103" fill="#EFEFEF"/>
<path d="M54.1899 36.5775C54.1939 36.8068 54.2438 37.0329 54.3367 37.2426C54.4295 37.4524 54.5635 37.6414 54.7306 37.7987C54.8977 37.956 55.0947 38.0783 55.3099 38.1584C55.5251 38.2385 55.7542 38.2749 55.9837 38.2653C56.446 38.2388 56.8801 38.0348 57.1952 37.696C57.5103 37.3572 57.682 36.9099 57.6743 36.4477C57.6709 36.218 57.6214 35.9914 57.5288 35.7811C57.4362 35.5709 57.3024 35.3813 57.1352 35.2236C56.968 35.0658 56.7708 34.9431 56.5553 34.8627C56.3398 34.7823 56.1104 34.7458 55.8805 34.7554C55.4158 34.7797 54.9788 34.9834 54.6617 35.3233C54.3446 35.6633 54.1722 36.113 54.181 36.5775" fill="#353535"/>
<path d="M39.8544 37.0609C39.8695 37.3802 39.9785 37.6879 40.1679 37.9456C40.3572 38.2034 40.6185 38.3996 40.9189 38.5099C41.2194 38.6201 41.5458 38.6394 41.8573 38.5654C42.1687 38.4915 42.4514 38.3274 42.6699 38.0939C42.8885 37.8603 43.0332 37.5676 43.0859 37.2524C43.1387 36.9372 43.0972 36.6134 42.9666 36.3216C42.8361 36.0298 42.6222 35.7829 42.3518 35.6118C42.0814 35.4407 41.7664 35.353 41.4464 35.3597C41.009 35.3761 40.5959 35.5647 40.2976 35.8844C39.9992 36.2041 39.8399 36.6287 39.8544 37.0654" fill="#353535"/>
<path d="M60.02 33.7094C59.6792 32.2321 58.8945 31.2919 57.6254 30.8353C57.0073 30.599 56.3424 30.5101 55.6837 30.5756C55.414 30.5947 55.162 30.7165 54.9797 30.9159C54.9005 31.0129 54.844 31.1263 54.8145 31.248C54.7851 31.3696 54.7833 31.4963 54.8093 31.6187C54.8218 31.7433 54.8604 31.8639 54.9225 31.9727C54.9846 32.0815 55.0689 32.1761 55.1699 32.2504C55.2709 32.3246 55.3863 32.3769 55.5088 32.4038C55.6313 32.4307 55.7581 32.4317 55.881 32.4067C55.9438 32.4067 56.0021 32.4067 56.0649 32.3798C56.1111 32.3754 56.1577 32.3754 56.2039 32.3798C56.5549 32.3339 56.9118 32.3716 57.2454 32.4899C57.579 32.6082 57.8798 32.8036 58.1232 33.0603C58.3442 33.327 58.5172 33.6299 58.6344 33.9557L58.7958 34.4033C58.8497 34.541 58.9498 34.6556 59.0791 34.7275C59.2084 34.7994 59.3588 34.8241 59.5043 34.7973H59.5985C59.7435 34.7635 59.8716 34.6791 59.9596 34.5592C60.0476 34.4393 60.0897 34.2919 60.0783 34.1437C60.0733 34.0578 60.0613 33.9725 60.0425 33.8885L60.02 33.7094Z" fill="#353535"/>
<path d="M41.9772 31.2596C41.702 31.199 41.4187 31.1839 41.1386 31.2148H40.9548C40.5081 31.2167 40.0662 31.3065 39.6543 31.479C38.1835 32.043 37.6498 33.2205 37.3539 34.1875C37.3248 34.2923 37.3157 34.4016 37.327 34.5098C37.3364 34.6535 37.3957 34.7894 37.4948 34.894C37.5939 34.9986 37.7264 35.0654 37.8696 35.0828C37.9407 35.0963 38.0137 35.0963 38.0848 35.0828C38.1752 35.0715 38.262 35.0409 38.3394 34.993C38.4168 34.9451 38.4829 34.8811 38.5333 34.8053C38.6025 34.7002 38.6626 34.5894 38.7126 34.474C38.8097 34.2068 38.9473 33.9562 39.1207 33.7308C39.3207 33.434 39.598 33.1971 39.9227 33.0456C40.2474 32.8942 40.6073 32.8339 40.9637 32.8713L41.2373 32.8981C41.4032 32.8981 41.5736 32.9339 41.7395 32.9384C41.9656 32.969 42.1949 32.9125 42.3807 32.7802C42.5665 32.648 42.6948 32.45 42.7395 32.2266C42.7552 32.1126 42.7477 31.9966 42.7176 31.8854C42.6875 31.7743 42.6354 31.6704 42.5643 31.5798C42.4932 31.4892 42.4046 31.4138 42.3037 31.358C42.2029 31.3022 42.0918 31.2672 41.9772 31.2551" fill="#353535"/>
</svg>
