<svg width="236" height="236" viewBox="0 0 236 236" fill="none" xmlns="http://www.w3.org/2000/svg">
<circle cx="118" cy="118" r="118" fill="#EFEFEF"/>
<mask id="mask0_6_153321" style="mask-type:alpha" maskUnits="userSpaceOnUse" x="0" y="0" width="236" height="236">
<circle cx="118" cy="118" r="118" fill="#EFEFEF"/>
</mask>
<g mask="url(#mask0_6_153321)">
<path d="M41.755 172.425C41.755 172.425 37.1194 160.633 56.2532 144.673L55.9731 171.056L41.755 172.425Z" fill="#102048"/>
<path d="M140.971 204.438L138.948 260.874C138.917 262.399 138.855 263.923 138.793 265.417C137.735 296.404 135.744 326.147 132.944 354.925C129.77 387.499 125.633 418.798 120.748 449.163H88.7339C84.4716 381.464 77.2848 300.169 90.4762 226.62L98.503 206.958L140.971 204.438Z" fill="#1F3C88"/>
<path d="M185.026 229.795C193.053 296.996 200.022 372.256 196.942 442.413L162.159 449.164C152.67 390.643 136.056 315.383 133.941 247.528L129.305 192.367L181.449 206.959L185.026 229.795Z" fill="#1F3C88"/>
<path d="M144.953 66.1777H121.712V94.9873H144.953V66.1777Z" fill="#F9B384"/>
<path d="M121.557 83.9424C130.051 95.7338 140.878 90.5693 144.922 82.6357L172.549 205.403C146.758 216.51 121.962 218.159 98.7522 204.967L113.437 88.7337L121.557 83.9424Z" fill="white"/>
<path d="M157.773 48.3817C162.906 38.2082 164.057 22.5278 152.11 21.8745C141.719 11.6387 124.919 13.0387 115.181 23.7101C96.3269 17.8921 93.5268 52.4885 117.545 51.1507L157.773 48.3817Z" fill="#353535"/>
<path d="M121.712 66.1777V81.4847C128.588 81.6403 134.343 79.0891 137.859 74.7024C137.859 74.7024 131.077 69.9734 125.757 66.1777H121.712Z" fill="#E09C72"/>
<path d="M154.596 38.2711L152.76 56.0671C149.929 63.9384 146.476 69.5074 142.089 73.023C137.578 76.6631 131.729 77.8142 126.346 76.1653C121.742 74.7653 117.977 71.343 116.422 66.7073C115.582 64.1561 115.395 61.2628 116.142 58.1205C116.266 57.6227 116.36 57.1249 116.391 56.6271C116.64 54.5737 116.422 52.5203 115.893 50.5292C114.804 46.3602 114.742 42.0045 115.52 37.5244L136.364 30.9287L154.596 38.2711Z" fill="#F9B384"/>
<path d="M113.841 252.196C103.045 254.56 90.4133 254.342 76.3508 252.196C79.8042 220.804 84.5332 190.656 91.8134 163.029L61.4794 160.074C61.7594 155.189 62.4127 150.149 63.4083 144.984C64.5283 139.166 66.1461 133.193 68.1995 127.095C68.2617 126.877 68.355 126.659 68.4173 126.442C75.7285 105.255 89.0444 89.2942 121.743 83.8496C131.979 132.633 131.232 204.843 113.841 252.196Z" fill="#91004B"/>
<path d="M191.995 211.532C193.83 222.546 195.448 233.559 197.128 245.009C186.643 248.742 173.981 250.111 159.452 249.457C153.385 229.919 149.247 209.541 146.882 188.478C146.882 188.385 146.882 188.323 146.851 188.261C143.118 154.784 140.691 119.441 144.954 82.667C158.332 83.6315 172.052 87.7071 184.901 95.9517C189.319 98.7829 192.866 102.952 195.261 107.868C204.253 126.348 208.422 142.619 211.906 159.42L183.781 170.838C184.59 174.26 185.368 177.651 186.114 181.011C188.386 191.403 190.283 201.452 191.995 211.532Z" fill="#91004B"/>
<path d="M98.2863 151.175L94.5217 181.82L92.7795 184.153L84.1615 195.54C80.6459 200.176 75.8547 202.478 71.0012 202.509C65.7744 202.541 60.5787 199.958 57.0009 194.731L41.7561 172.424C49.254 162.406 56.472 152.202 58.5565 138.886C68.3878 150.366 71.3123 154.659 71.3123 154.659L98.2863 151.175Z" fill="#91004B"/>
<path d="M115.025 44.8351C122.741 44.4618 130.487 42.8128 138.234 38.7683C140.692 43.4662 146.479 49.6263 154.972 47.324L155.906 42.1906L156.559 33.4793L130.954 25.2969L110.887 31.8926L115.025 44.8351Z" fill="#353535"/>
<path opacity="0.4" d="M191.993 211.531C175.66 209.945 160.135 202.416 146.881 188.478C146.819 188.415 146.757 188.353 146.695 188.291L146.85 188.26L186.113 181.011C188.384 191.402 190.282 201.451 191.993 211.531Z" fill="#660035"/>
<path d="M59.0184 138.513L58.1121 139.223L74.9169 160.68L75.8232 159.97L59.0184 138.513Z" fill="#91004B"/>
<path opacity="0.4" d="M178.74 125.757L184.527 158.984C184.527 158.984 174.198 165.829 171.024 160.229C168.566 155.842 171.802 141.531 178.74 125.757Z" fill="#660035"/>
<path d="M119.222 149.37L112.191 149.868C111.413 149.931 110.76 150.491 110.573 151.299L110.511 151.486C110.169 152.762 110.418 154.099 111.165 155.126L112.44 156.868C112.658 157.148 112.596 157.553 112.347 157.771C111.227 158.331 110.418 159.42 110.387 160.633C110.387 160.944 110.387 161.255 110.449 161.535C110.698 162.717 111.538 163.682 112.627 163.993L113.311 164.18C113.405 164.211 113.436 164.304 113.405 164.398L112.409 166.046C111.662 167.322 112.751 169.749 113.809 170.62C114.027 170.962 114.711 171.118 115.085 171.149L118.196 171.584C119.627 171.771 120.996 172.3 122.271 173.015C128.525 176.687 136.178 176.313 143.832 175.94L143.241 155.842C138.014 151.828 132.041 148.437 125.103 145.793L108.613 134.063C104.942 135.65 107.213 140.13 119.222 149.37Z" fill="#F9B384"/>
<path d="M211.873 159.42L214.3 169.687C217.473 183.003 207.486 195.697 194.948 194.234L135.462 187.016L140.005 153.104L211.873 159.42Z" fill="#91004B"/>
<path d="M91.8751 125.17L83.5656 195.461L84.7088 195.596L93.0183 125.305L91.8751 125.17Z" fill="#91004B"/>
<path d="M140.047 152.524L139.95 153.671L184.59 157.449L184.687 156.302L140.047 152.524Z" fill="#91004B"/>
<path d="M122.084 158.704C121.742 158.673 113.715 157.833 112.284 157.429L112.595 156.309C113.715 156.62 119.907 157.304 122.209 157.553L122.084 158.704Z" fill="#E28B6D"/>
<path d="M123.144 166.327C122.802 166.296 114.526 165.456 113.095 165.052L113.406 163.932C114.526 164.243 120.904 164.927 123.268 165.176L123.144 166.327Z" fill="#E28B6D"/>
<path d="M149.31 60.3913C163.87 62.5691 165.799 39.3908 150.336 48.6622L149.31 60.3913Z" fill="#F9B384"/>
<path d="M152.669 54.0754C152.482 53.3287 152.451 52.5198 152.607 51.742C152.762 50.9642 153.167 50.1864 153.758 49.5641C154.349 48.973 155.22 48.5374 156.122 48.5997C157.025 48.6308 157.989 49.5953 158.207 49.9375C158.425 50.2797 158.363 50.6842 157.834 50.2175C157.305 49.7508 156.714 49.5641 156.122 49.6264C155.531 49.6575 155.002 49.9686 154.567 50.4042C154.131 50.8397 153.789 51.3997 153.54 52.022C153.322 52.6442 153.198 53.3287 153.105 54.0754C153.011 54.822 152.856 54.822 152.669 54.0754Z" fill="#E09C72"/>
<path d="M126.098 66.0223L136.303 63.1289C136.303 63.1289 136.272 67.7335 131.387 68.8535C128.587 69.4757 126.098 66.0223 126.098 66.0223Z" fill="white"/>
<path opacity="0.4" d="M85.497 187.14L84.1592 195.54C80.6436 200.176 75.8524 202.478 70.9989 202.51C75.759 183.065 87.0837 169.033 87.0837 169.033L85.497 187.14Z" fill="#660035"/>
<path opacity="0.2" d="M75.2329 160.135L63.4104 144.953C64.5305 139.135 66.1483 133.161 68.2017 127.063C68.2639 126.846 68.3572 126.628 68.4194 126.41C70.6595 130.61 75.9174 142.371 75.2329 160.135Z" fill="#660035"/>
<path d="M25.9485 110.419C24.0196 110.886 23.024 112.628 23.0862 114.557C20.9706 114.962 19.8817 116.549 19.3528 118.789C13.846 119.629 15.5883 127.624 23.3974 130.113C24.0196 134.469 27.0063 138.202 31.6109 141.531L37.3355 154.194L43.9312 169.345L57.9315 142.62L55.0381 137.86L51.2735 131.638C51.0246 128.807 49.8424 124.886 48.4113 120.655C48.3179 117.109 51.7713 109.113 55.0381 101.366C48.5668 99.6237 45.4245 106.126 42.5311 113.251C36.1221 105.535 29.6508 105.473 25.9485 110.419Z" fill="#F9B384"/>
<path d="M31.0812 118.975C31.9524 119.815 33.0102 120.5 34.1302 120.966C36.028 121.713 37.2103 121.402 37.6147 121.246C38.2992 120.966 39.077 119.908 39.1703 118.757C39.2325 117.855 38.8592 117.077 38.0814 116.611L35.6547 115.211L34.5035 110.606L34.0057 110.73L35.2191 115.553L37.8325 117.077C38.6103 117.544 38.7036 118.228 38.6725 118.726C38.6103 119.628 37.9569 120.562 37.4592 120.748C37.0858 120.904 36.0591 121.153 34.348 120.468C32.5435 119.753 31.019 118.446 30.0546 116.797L26.1967 110.295L25.73 110.575L29.5879 117.077C29.9923 117.762 30.4901 118.415 31.0812 118.975Z" fill="#E28B6D"/>
<path d="M28.0008 122.833C28.5297 123.331 29.0275 123.735 29.5564 123.922C32.5431 125.166 35.2809 124.606 36.0587 124.015C36.8054 123.455 36.7743 121.619 36.7743 121.402H36.2454C36.2454 122.086 36.121 123.299 35.7476 123.579C35.2187 123.953 32.7609 124.668 29.7742 123.424C26.8808 122.211 23.3651 114.495 23.334 114.433L22.8674 114.65C22.9918 114.93 25.4185 120.313 28.0008 122.833Z" fill="#E28B6D"/>
<path d="M23.4268 124.793C24.2979 125.633 25.2624 126.411 26.3513 126.971C30.8314 129.367 32.2937 129.522 33.2892 129.024C33.8804 128.713 34.4404 127.811 34.3782 126.784C34.347 126.131 34.0048 124.918 32.1381 124.202L31.9514 124.7C33.4759 125.291 33.8181 126.162 33.8492 126.815C33.8803 127.655 33.4137 128.371 33.0403 128.558C32.2314 128.962 30.8314 128.775 26.5691 126.504C22.4001 124.295 19.6 118.695 19.5689 118.664L19.1022 118.913C19.2267 119.1 20.8134 122.273 23.4268 124.793Z" fill="#E28B6D"/>
<path d="M23.3331 130.393C25.3865 130.922 28.7777 130.891 29.6177 129.709C29.8355 129.398 29.9911 128.869 29.4933 128.091L29.0577 128.371C29.4621 128.993 29.2755 129.273 29.1821 129.398C28.5599 130.269 25.5109 130.393 23.4576 129.895L23.3331 130.393Z" fill="#E28B6D"/>
<path d="M34.5672 130.611L34.9716 130.3C33.4783 128.309 35.9983 124.078 37.5228 121.589L37.7717 121.153L37.305 120.873L37.0561 121.309C35.3761 124.078 32.8249 128.34 34.5672 130.611Z" fill="#E28B6D"/>
<path d="M43.9318 169.376L37.3361 154.225C44.5229 149.838 50.4031 144.394 54.7587 137.611L55.0076 137.922L57.901 142.683C57.901 142.683 56.4387 148.905 52.1764 156.932C49.1586 162.656 43.9318 169.376 43.9318 169.376Z" fill="#F9B384"/>
<path d="M127.321 45.2688C127.091 45.1326 126.843 45.0319 126.583 44.9699L126.422 44.9047C126.029 44.7457 125.609 44.6659 125.185 44.67C124.598 44.6729 124.021 44.8168 123.502 45.0895C122.983 45.3622 122.536 45.7557 122.201 46.2369C122.147 46.3265 122.108 46.4239 122.084 46.5255C122.041 46.6555 122.044 46.7963 122.093 46.9241C122.142 47.0519 122.234 47.1589 122.352 47.227L122.547 47.3061C122.632 47.3257 122.719 47.3273 122.804 47.3107C122.889 47.294 122.97 47.2595 123.04 47.2095C123.137 47.1419 123.227 47.0661 123.31 46.9828C123.492 46.7822 123.704 46.6115 123.939 46.4771C124.218 46.284 124.545 46.1722 124.883 46.1541C125.222 46.136 125.559 46.2124 125.856 46.3746L126.094 46.4708C126.233 46.5537 126.378 46.6286 126.526 46.6953C126.713 46.797 126.931 46.8233 127.137 46.7689C127.342 46.7144 127.519 46.5833 127.632 46.4024C127.685 46.3077 127.719 46.2033 127.732 46.0953C127.744 45.9873 127.735 45.8779 127.705 45.7735C127.674 45.6691 127.623 45.5719 127.555 45.4875C127.486 45.4032 127.401 45.3334 127.306 45.2824" fill="#353535"/>
<path d="M141.736 47.6494C141.528 47.0613 141.167 46.5394 140.69 46.1375C140.213 45.7355 139.638 45.4681 139.023 45.3628C138.41 45.249 137.779 45.282 137.181 45.4591C137.055 45.4855 136.936 45.5382 136.832 45.6138C136.728 45.6893 136.641 45.786 136.577 45.8975C136.511 46.0565 136.491 46.231 136.519 46.4009C136.548 46.5708 136.624 46.7292 136.738 46.8578C136.853 46.9865 137.001 47.0802 137.167 47.1282C137.332 47.1763 137.508 47.1766 137.673 47.1293C137.732 47.114 137.79 47.0943 137.846 47.0703L137.968 47.0289C138.288 46.9279 138.627 46.9039 138.959 46.9591C139.29 47.0142 139.603 47.1469 139.874 47.3462C140.125 47.5599 140.339 47.8138 140.507 48.0977L140.721 48.4697C140.795 48.5892 140.909 48.679 141.042 48.7235C141.176 48.7681 141.32 48.7647 141.452 48.7138L141.538 48.6843C141.668 48.6285 141.774 48.5275 141.835 48.3998C141.896 48.2722 141.909 48.1266 141.872 47.9901C141.85 47.9107 141.823 47.8326 141.792 47.7561L141.736 47.6494Z" fill="#353535"/>
<path d="M122.97 49.6515C122.846 49.8749 122.766 50.121 122.737 50.3753C122.708 50.6296 122.73 50.8872 122.801 51.133C122.872 51.3788 122.992 51.6079 123.152 51.8071C123.313 52.0063 123.511 52.1716 123.736 52.2933C123.965 52.4206 124.217 52.5016 124.478 52.5314C124.738 52.5612 125.002 52.5394 125.254 52.4672C125.506 52.395 125.741 52.2738 125.946 52.1106C126.152 51.9473 126.323 51.7452 126.45 51.5158C126.575 51.293 126.654 51.0477 126.683 50.7941C126.713 50.5405 126.692 50.2836 126.621 50.0383C126.551 49.7929 126.432 49.564 126.273 49.3648C126.114 49.1655 125.916 48.9999 125.693 48.8774C125.231 48.632 124.692 48.5774 124.191 48.7253C123.69 48.8733 123.267 49.212 123.013 49.6687" fill="#353535"/>
<path d="M136.281 51.7537C136.331 52.0056 136.43 52.245 136.574 52.4576C136.718 52.6702 136.903 52.8517 137.119 52.9912C137.334 53.1308 137.575 53.2256 137.828 53.27C138.08 53.3144 138.339 53.3075 138.589 53.2496C139.094 53.1295 139.532 52.8173 139.81 52.3792C140.089 51.9411 140.185 51.4116 140.08 50.9031C140.031 50.6519 139.932 50.4131 139.789 50.2008C139.645 49.9885 139.461 49.8072 139.247 49.6674C139.032 49.5276 138.792 49.4323 138.54 49.3871C138.288 49.3419 138.03 49.3478 137.781 49.4043C137.272 49.5203 136.83 49.8318 136.55 50.2714C136.269 50.711 136.173 51.2434 136.281 51.7537Z" fill="#353535"/>
<path d="M128.712 55.3841C129.007 54.6099 130.303 54.9692 129.999 55.7076C129.34 57.4269 127.981 61.0095 131.246 60.4928C132.097 60.3476 132.425 61.5706 131.563 61.7092C130.138 61.9565 128.679 61.9262 128.026 60.5203C127.331 58.9153 128.093 56.9685 128.712 55.3841Z" fill="#E09C72"/>
<g clip-path="url(#clip0_6_153321)">
<path d="M41.76 172.425C41.76 172.425 37.1243 160.633 56.2581 144.673L55.9781 171.056L41.76 172.425Z" fill="#102048"/>
<path d="M140.976 204.438L138.954 260.874C138.923 262.399 138.86 263.923 138.798 265.417C137.74 296.404 135.749 326.147 132.949 354.925C129.776 387.499 125.638 418.798 120.753 449.163H88.7391C84.4768 381.464 77.29 300.169 90.4814 226.62L98.5083 206.958L140.976 204.438Z" fill="#1F3C88"/>
<path d="M185.031 229.793C193.058 296.994 200.027 372.254 196.947 442.411L162.164 449.162C152.675 390.641 136.061 315.381 133.946 247.527L129.31 192.365L181.453 206.957L185.031 229.793Z" fill="#1F3C88"/>
<path d="M144.957 66.1777H121.717V94.9873H144.957V66.1777Z" fill="#F9B384"/>
<path d="M121.562 83.9424C130.056 95.7338 140.883 90.5693 144.927 82.6357L172.554 205.403C146.763 216.51 121.967 218.159 98.7572 204.967L113.442 88.7337L121.562 83.9424Z" fill="white"/>
<path d="M157.778 48.3817C162.911 38.2082 164.062 22.5278 152.115 21.8745C141.724 11.6387 124.924 13.0387 115.186 23.7101C96.3319 17.8922 93.5318 52.4885 117.55 51.1507L157.778 48.3817Z" fill="#353535"/>
<path d="M121.717 66.1777V81.4847C128.592 81.6403 134.348 79.0891 137.864 74.7024C137.864 74.7024 131.081 69.9734 125.761 66.1777H121.717Z" fill="#E09C72"/>
<path d="M154.601 38.2701L152.765 56.0661C149.934 63.9374 146.481 69.5064 142.094 73.022C137.583 76.6621 131.734 77.8133 126.351 76.1643C121.747 74.7643 117.982 71.342 116.427 66.7063C115.587 64.1552 115.4 61.2618 116.147 58.1195C116.271 57.6217 116.365 57.1239 116.396 56.6261C116.645 54.5727 116.427 52.5193 115.898 50.5282C114.809 46.3592 114.747 42.0036 115.525 37.5234L136.369 30.9277L154.601 38.2701Z" fill="#F9B384"/>
<path d="M113.846 252.196C103.05 254.56 90.4183 254.342 76.3558 252.196C79.8092 220.804 84.5382 190.657 91.8184 163.029L61.4843 160.074C61.7643 155.189 62.4177 150.149 63.4132 144.984C64.5333 139.166 66.1511 133.193 68.2045 127.095C68.2667 126.877 68.36 126.659 68.4222 126.442C75.7335 105.255 89.0494 89.2942 121.748 83.8496C131.984 132.633 131.237 204.843 113.846 252.196Z" fill="#91004B"/>
<path d="M192 211.532C193.835 222.546 195.453 233.559 197.133 245.009C186.648 248.742 173.986 250.111 159.457 249.457C153.39 229.919 149.252 209.541 146.887 188.478C146.887 188.385 146.887 188.323 146.856 188.261C143.123 154.784 140.696 119.441 144.959 82.667C158.337 83.6315 172.057 87.7071 184.906 95.9517C189.324 98.7829 192.871 102.952 195.266 107.868C204.258 126.348 208.427 142.619 211.911 159.42L183.786 170.838C184.595 174.26 185.373 177.651 186.119 181.011C188.391 191.403 190.288 201.452 192 211.532Z" fill="#91004B"/>
<path d="M98.291 151.175L94.5264 181.82L92.7842 184.153L84.1662 195.54C80.6506 200.176 75.8594 202.478 71.0059 202.509C65.7791 202.541 60.5834 199.958 57.0056 194.731L41.7608 172.424C49.2587 162.406 56.4767 152.202 58.5612 138.886C68.3925 150.366 71.317 154.659 71.317 154.659L98.291 151.175Z" fill="#91004B"/>
<path d="M115.025 44.8341C122.741 44.4608 130.488 42.8119 138.234 38.7673C140.692 43.4652 146.479 49.6253 154.973 47.3231L155.906 42.1896L156.559 33.4783L130.954 25.2959L110.887 31.8916L115.025 44.8341Z" fill="#353535"/>
<path opacity="0.4" d="M191.998 211.53C175.665 209.944 160.14 202.415 146.886 188.477C146.824 188.414 146.762 188.352 146.7 188.29L146.855 188.259L186.118 181.01C188.389 191.401 190.287 201.45 191.998 211.53Z" fill="#660035"/>
<path d="M59.0282 138.513L58.1219 139.223L74.9267 160.68L75.833 159.97L59.0282 138.513Z" fill="#91004B"/>
<path opacity="0.4" d="M178.75 125.757L184.537 158.984C184.537 158.984 174.207 165.829 171.034 160.229C168.576 155.842 171.812 141.531 178.75 125.757Z" fill="#660035"/>
<path d="M119.232 149.37L112.201 149.868C111.423 149.931 110.77 150.491 110.583 151.299L110.521 151.486C110.179 152.762 110.428 154.099 111.174 155.126L112.45 156.868C112.668 157.148 112.605 157.553 112.357 157.771C111.237 158.331 110.428 159.42 110.397 160.633C110.397 160.944 110.397 161.255 110.459 161.535C110.708 162.717 111.548 163.682 112.637 163.993L113.321 164.18C113.414 164.211 113.446 164.304 113.414 164.398L112.419 166.046C111.672 167.322 112.761 169.749 113.819 170.62C114.037 170.962 114.721 171.118 115.094 171.149L118.206 171.584C119.637 171.771 121.006 172.3 122.281 173.015C128.535 176.687 136.188 176.313 143.842 175.94L143.251 155.842C138.024 151.828 132.05 148.437 125.112 145.793L108.623 134.063C104.952 135.65 107.223 140.13 119.232 149.37Z" fill="#F9B384"/>
<path d="M211.883 159.42L214.309 169.687C217.483 183.003 207.496 195.697 194.958 194.234L135.472 187.016L140.014 153.104L211.883 159.42Z" fill="#91004B"/>
<path d="M91.8846 125.169L83.5751 195.46L84.7183 195.595L93.0278 125.304L91.8846 125.169Z" fill="#91004B"/>
<path d="M140.052 152.524L139.955 153.671L184.595 157.449L184.692 156.302L140.052 152.524Z" fill="#91004B"/>
<path d="M122.09 158.704C121.747 158.673 113.72 157.833 112.289 157.429L112.6 156.309C113.72 156.62 119.912 157.304 122.214 157.553L122.09 158.704Z" fill="#E28B6D"/>
<path d="M123.149 166.327C122.807 166.296 114.531 165.456 113.1 165.052L113.411 163.932C114.531 164.243 120.909 164.927 123.273 165.176L123.149 166.327Z" fill="#E28B6D"/>
<path d="M149.315 60.3913C163.875 62.5691 165.804 39.3908 150.341 48.6622L149.315 60.3913Z" fill="#F9B384"/>
<path d="M152.674 54.0754C152.487 53.3287 152.456 52.5198 152.612 51.742C152.767 50.9642 153.172 50.1864 153.763 49.5641C154.354 48.973 155.225 48.5374 156.127 48.5997C157.03 48.6308 157.994 49.5953 158.212 49.9375C158.43 50.2797 158.367 50.6842 157.839 50.2175C157.31 49.7508 156.719 49.5641 156.127 49.6264C155.536 49.6575 155.007 49.9686 154.572 50.4042C154.136 50.8397 153.794 51.3997 153.545 52.022C153.327 52.6442 153.203 53.3287 153.11 54.0754C153.016 54.822 152.861 54.822 152.674 54.0754Z" fill="#E09C72"/>
<path d="M126.108 66.0223L136.312 63.1289C136.312 63.1289 136.281 67.7335 131.397 68.8535C128.597 69.4757 126.108 66.0223 126.108 66.0223Z" fill="white"/>
<path opacity="0.4" d="M85.5069 187.138L84.1691 195.539C80.6534 200.174 75.8622 202.476 71.0088 202.508C75.7689 183.063 87.0936 169.031 87.0936 169.031L85.5069 187.138Z" fill="#660035"/>
<path opacity="0.2" d="M75.2379 160.135L63.4154 144.953C64.5354 139.135 66.1533 133.161 68.2067 127.063C68.2689 126.846 68.3622 126.628 68.4244 126.41C70.6645 130.61 75.9224 142.371 75.2379 160.135Z" fill="#660035"/>
<path d="M25.9535 110.418C24.0246 110.885 23.029 112.627 23.0912 114.556C20.9756 114.961 19.8867 116.548 19.3578 118.788C13.851 119.628 15.5933 127.623 23.4023 130.112C24.0246 134.468 27.0113 138.201 31.6159 141.53L37.3404 154.193L43.9361 169.344L57.9365 142.619L55.0431 137.859L51.2785 131.637C51.0296 128.806 49.8474 124.885 48.4163 120.654C48.3229 117.108 51.7763 109.112 55.0431 101.365C48.5718 99.6227 45.4295 106.125 42.5361 113.25C36.1271 105.534 29.6558 105.472 25.9535 110.418Z" fill="#F9B384"/>
<path d="M31.0862 118.974C31.9573 119.814 33.0152 120.499 34.1352 120.965C36.033 121.712 37.2152 121.401 37.6197 121.245C38.3041 120.965 39.0819 119.907 39.1753 118.756C39.2375 117.854 38.8642 117.076 38.0864 116.61L35.6597 115.21L34.5085 110.605L34.0107 110.729L35.2241 115.552L37.8375 117.076C38.6153 117.543 38.7086 118.227 38.6775 118.725C38.6153 119.627 37.9619 120.561 37.4641 120.748C37.0908 120.903 36.0641 121.152 34.3529 120.467C32.5485 119.752 31.024 118.445 30.0595 116.796L26.2017 110.294L25.735 110.574L29.5929 117.076C29.9973 117.761 30.4951 118.414 31.0862 118.974Z" fill="#E28B6D"/>
<path d="M28.006 122.832C28.5349 123.33 29.0327 123.734 29.5616 123.921C32.5484 125.165 35.2862 124.605 36.064 124.014C36.8106 123.454 36.7795 121.618 36.7795 121.401H36.2507C36.2507 122.085 36.1262 123.299 35.7528 123.579C35.2239 123.952 32.7661 124.667 29.7794 123.423C26.886 122.21 23.3704 114.494 23.3393 114.432L22.8726 114.649C22.997 114.929 25.4237 120.312 28.006 122.832Z" fill="#E28B6D"/>
<path d="M23.4317 124.792C24.3029 125.632 25.2674 126.41 26.3563 126.97C30.8364 129.366 32.2986 129.521 33.2942 129.023C33.8853 128.712 34.4454 127.81 34.3831 126.783C34.352 126.13 34.0098 124.917 32.1431 124.201L31.9564 124.699C33.4809 125.29 33.8231 126.161 33.8542 126.814C33.8853 127.654 33.4187 128.37 33.0453 128.557C32.2364 128.961 30.8364 128.774 26.574 126.503C22.405 124.294 19.605 118.694 19.5739 118.663L19.1072 118.912C19.2316 119.099 20.8184 122.272 23.4317 124.792Z" fill="#E28B6D"/>
<path d="M23.3381 130.392C25.3915 130.921 28.7827 130.89 29.6227 129.708C29.8405 129.397 29.996 128.868 29.4982 128.09L29.0627 128.37C29.4671 128.992 29.2805 129.272 29.1871 129.397C28.5649 130.268 25.5159 130.392 23.4625 129.894L23.3381 130.392Z" fill="#E28B6D"/>
<path d="M34.5722 130.61L34.9767 130.299C33.4833 128.308 36.0034 124.077 37.5279 121.588L37.7767 121.152L37.3101 120.872L37.0612 121.308C35.3811 124.077 32.83 128.339 34.5722 130.61Z" fill="#E28B6D"/>
<path d="M43.9366 169.376L37.3409 154.224C44.5277 149.837 50.4079 144.393 54.7635 137.61L55.0124 137.921L57.9058 142.682C57.9058 142.682 56.4436 148.904 52.1812 156.931C49.1634 162.655 43.9366 169.376 43.9366 169.376Z" fill="#F9B384"/>
<path d="M127.326 45.2679C127.096 45.1317 126.848 45.0309 126.588 44.969L126.427 44.9037C126.034 44.7447 125.614 44.665 125.19 44.669C124.603 44.672 124.026 44.8158 123.507 45.0885C122.987 45.3612 122.541 45.7547 122.205 46.236C122.152 46.3256 122.113 46.4229 122.089 46.5245C122.046 46.6545 122.049 46.7953 122.098 46.9231C122.147 47.0509 122.239 47.1579 122.357 47.2261L122.552 47.3051C122.637 47.3248 122.724 47.3263 122.809 47.3097C122.894 47.293 122.975 47.2586 123.045 47.2085C123.142 47.1409 123.232 47.0651 123.315 46.9818C123.497 46.7812 123.709 46.6105 123.944 46.4761C124.223 46.2831 124.55 46.1713 124.888 46.1532C125.227 46.1351 125.564 46.2114 125.861 46.3736L126.099 46.4698C126.238 46.5527 126.383 46.6277 126.531 46.6943C126.718 46.796 126.936 46.8224 127.142 46.7679C127.347 46.7134 127.524 46.5823 127.637 46.4014C127.69 46.3068 127.724 46.2023 127.737 46.0943C127.749 45.9863 127.74 45.8769 127.71 45.7725C127.679 45.6681 127.628 45.5709 127.56 45.4866C127.491 45.4022 127.406 45.3325 127.31 45.2814" fill="#353535"/>
<path d="M141.741 47.6494C141.533 47.0613 141.172 46.5394 140.695 46.1375C140.218 45.7355 139.643 45.4681 139.028 45.3628C138.415 45.249 137.784 45.282 137.186 45.4591C137.06 45.4855 136.941 45.5382 136.837 45.6138C136.733 45.6893 136.646 45.786 136.582 45.8975C136.515 46.0565 136.496 46.231 136.524 46.4009C136.553 46.5708 136.629 46.7292 136.743 46.8578C136.858 46.9865 137.006 47.0802 137.172 47.1282C137.337 47.1763 137.513 47.1766 137.678 47.1293C137.737 47.114 137.795 47.0943 137.851 47.0703L137.973 47.0289C138.293 46.9279 138.632 46.9039 138.964 46.9591C139.295 47.0142 139.608 47.1469 139.879 47.3462C140.13 47.5599 140.344 47.8138 140.512 48.0977L140.726 48.4697C140.8 48.5892 140.914 48.679 141.047 48.7235C141.181 48.7681 141.325 48.7647 141.457 48.7138L141.543 48.6843C141.673 48.6285 141.779 48.5275 141.84 48.3998C141.901 48.2722 141.914 48.1266 141.877 47.9901C141.854 47.9107 141.828 47.8326 141.797 47.7561L141.741 47.6494Z" fill="#353535"/>
<path d="M122.975 49.6505C122.851 49.874 122.771 50.12 122.742 50.3743C122.713 50.6286 122.735 50.8862 122.806 51.132C122.877 51.3778 122.997 51.6069 123.157 51.8061C123.318 52.0053 123.516 52.1706 123.741 52.2923C123.97 52.4197 124.222 52.5006 124.483 52.5304C124.743 52.5603 125.007 52.5385 125.259 52.4663C125.511 52.394 125.746 52.2728 125.951 52.1096C126.157 51.9463 126.328 51.7442 126.455 51.5148C126.58 51.292 126.659 51.0467 126.688 50.7931C126.718 50.5395 126.697 50.2826 126.626 50.0373C126.556 49.792 126.437 49.563 126.278 49.3638C126.119 49.1645 125.921 48.9989 125.698 48.8764C125.236 48.631 124.697 48.5764 124.196 48.7243C123.695 48.8723 123.272 49.211 123.018 49.6677" fill="#353535"/>
<path d="M136.286 51.7537C136.336 52.0056 136.435 52.245 136.579 52.4576C136.723 52.6702 136.908 52.8517 137.124 52.9912C137.339 53.1308 137.58 53.2256 137.833 53.27C138.085 53.3144 138.344 53.3075 138.594 53.2496C139.099 53.1295 139.537 52.8173 139.815 52.3792C140.094 51.9411 140.19 51.4116 140.085 50.9031C140.036 50.6519 139.937 50.4131 139.794 50.2008C139.65 49.9885 139.466 49.8072 139.252 49.6674C139.037 49.5276 138.797 49.4323 138.545 49.3871C138.293 49.3419 138.035 49.3478 137.786 49.4043C137.277 49.5203 136.835 49.8318 136.555 50.2714C136.274 50.711 136.178 51.2434 136.286 51.7537Z" fill="#353535"/>
<path d="M128.712 55.3841C129.007 54.6099 130.304 54.9692 129.999 55.7076C129.34 57.4269 127.982 61.0095 131.246 60.4928C132.097 60.3476 132.425 61.5706 131.563 61.7092C130.138 61.9565 128.679 61.9262 128.026 60.5203C127.331 58.9153 128.094 56.9685 128.712 55.3841Z" fill="#E09C72"/>
<path d="M24 103.5C24 97.1487 29.1487 92 35.5 92C48.5 92.5 47 97.1487 47 103.5V125.5C47 131.851 48.5 136 35.5 137C29.1487 137 24 131.851 24 125.5V103.5Z" fill="#CA005D"/>
<rect x="30" y="93" width="10" height="2" fill="white"/>
<rect x="31" y="131" width="10" height="6" fill="white"/>
<path d="M37.362 111.531C37.3036 111.542 36.9245 111.475 36.9245 111.475C36.9245 111.475 37.207 111.612 37.2143 111.65C37.2215 111.688 37.1027 111.918 37.1027 111.918C37.1027 111.918 37.3036 111.724 37.3649 111.675C37.4084 111.64 37.4943 111.641 37.5581 111.651C37.8464 111.69 38.1406 111.642 38.3983 111.513C38.6702 111.38 38.6716 111.354 38.6716 111.354C38.6716 111.354 38.463 111.225 38.1047 111.275C37.7054 111.33 37.4209 111.52 37.362 111.531Z" fill="#91004B"/>
<path d="M30.4403 115.865C30.3707 115.883 29.9921 115.8 29.9921 115.8C29.9921 115.8 30.2732 115.964 30.2973 115.996C30.3215 116.028 30.2457 116.317 30.2457 116.317C30.2457 116.317 30.4214 116.088 30.4871 116.018C30.5291 115.977 30.632 115.987 30.6841 115.994C31.0392 116.049 31.403 115.971 31.6982 115.775C32.0019 115.569 31.9971 115.53 31.9971 115.53C31.9971 115.53 31.7122 115.347 31.281 115.426C30.8498 115.506 30.5084 115.846 30.4379 115.864" fill="#91004B"/>
<path d="M40.2975 111.446C40.1966 111.461 39.6799 111.284 39.6799 111.284C39.6799 111.284 40.045 111.557 40.074 111.605C40.1029 111.653 39.945 112.049 39.945 112.049C39.945 112.049 40.2319 111.756 40.3391 111.669C40.4043 111.617 40.5496 111.647 40.6187 111.666C40.6877 111.684 41.3744 111.888 42.0804 111.519C42.5406 111.279 42.541 111.222 42.541 111.222C42.541 111.222 42.1741 110.918 41.555 110.965C40.9359 111.012 40.396 111.43 40.2995 111.445" fill="#FFA100"/>
<path d="M28.1229 115.147C28.0224 115.174 27.6163 115.019 27.6163 115.019C27.6163 115.019 28.0118 115.24 28.0263 115.279C28.0408 115.318 27.779 115.679 27.779 115.679C27.779 115.679 28.0403 115.465 28.1475 115.382C28.2441 115.309 28.4725 115.282 28.6057 115.29C28.739 115.299 29.2741 115.372 29.954 114.942C30.3987 114.661 30.3944 114.61 30.3944 114.61C30.3944 114.61 30.0018 114.387 29.3842 114.515C28.7666 114.643 28.2228 115.118 28.1229 115.145" fill="#FFA100"/>
<path d="M32.4718 114.825C32.4071 114.831 32.1777 114.693 32.1777 114.693C32.1777 114.693 32.3926 114.87 32.3969 114.895C32.4013 114.921 32.1994 115.113 32.1994 115.113C32.1994 115.113 32.3839 115.011 32.4592 114.971C32.5259 114.936 32.6693 114.945 32.749 114.965C32.8286 114.986 33.1474 115.086 33.6133 114.896C33.9176 114.772 33.9209 114.74 33.9209 114.74C33.9209 114.74 33.708 114.562 33.3154 114.575C32.9228 114.588 32.535 114.819 32.4713 114.825" fill="#FFA100"/>
<path d="M30.4794 113.645C30.3766 113.689 30.2649 113.712 30.152 113.711C29.7198 113.711 29.346 113.494 29.346 112.935C29.346 112.376 29.7323 112.146 30.164 112.146C30.2706 112.146 30.3767 112.16 30.4794 112.186V112.446C30.3787 112.406 30.2705 112.385 30.1611 112.385C29.8574 112.385 29.6401 112.531 29.6401 112.928C29.6401 113.326 29.8772 113.47 30.164 113.47C30.2723 113.472 30.3798 113.452 30.4794 113.412V113.645Z" fill="white"/>
<path d="M31.5992 113.157C31.5992 113.483 31.4002 113.707 31.0941 113.707C30.7879 113.707 30.5919 113.481 30.5919 113.157C30.5919 112.833 30.7928 112.606 31.0941 112.606C31.3954 112.606 31.5992 112.824 31.5992 113.157ZM30.8696 113.157C30.8696 113.381 30.9724 113.492 31.1013 113.492C31.2303 113.492 31.3235 113.39 31.3235 113.157C31.3235 112.934 31.2206 112.823 31.0893 112.823C30.9579 112.823 30.8696 112.923 30.8696 113.157Z" fill="white"/>
<path d="M33.2043 113.678H32.9474V113.014C32.9474 112.877 32.8914 112.825 32.7736 112.825C32.7065 112.825 32.606 112.852 32.606 112.903C32.606 112.928 32.6128 112.959 32.6128 112.995V113.678H32.3554V113.014C32.3554 112.877 32.2975 112.825 32.197 112.825C32.1101 112.825 32.0237 112.848 32.0237 112.923V113.678H31.7668V112.659C31.9937 112.659 32.0662 112.61 32.2342 112.61C32.3863 112.61 32.4467 112.644 32.5027 112.691C32.6025 112.635 32.717 112.608 32.8325 112.614C33.0546 112.614 33.2043 112.709 33.2043 112.98V113.678Z" fill="white"/>
<path d="M33.3931 114.164C33.398 113.931 33.4023 113.767 33.4023 113.477V112.644C33.5617 112.644 33.6616 112.608 33.8186 112.608C34.1015 112.608 34.3377 112.801 34.3377 113.163C34.3377 113.512 34.0851 113.703 33.8514 113.703C33.7835 113.707 33.7158 113.691 33.6583 113.657V114.164H33.3931ZM33.7973 112.817C33.7109 112.817 33.6573 112.852 33.6573 112.888V113.421C33.6573 113.459 33.7181 113.492 33.7973 113.492C33.961 113.492 34.0547 113.39 34.0547 113.159C34.0547 112.928 33.961 112.817 33.7973 112.817Z" fill="white"/>
<path d="M35.0355 112.993V112.953C35.0355 112.869 34.9741 112.815 34.865 112.815C34.7467 112.816 34.63 112.841 34.5231 112.89V112.66C34.6405 112.626 34.7626 112.609 34.8853 112.609C35.1378 112.609 35.2943 112.707 35.2943 112.951C35.2943 113.122 35.288 113.272 35.288 113.435C35.288 113.522 35.2924 113.619 35.2991 113.673C35.1122 113.673 35.0118 113.701 34.8529 113.701C34.5815 113.701 34.4463 113.582 34.4463 113.38C34.4463 113.179 34.624 113.005 35.0355 112.994V112.993ZM35.0355 113.178C34.822 113.184 34.7129 113.247 34.7129 113.364C34.7129 113.444 34.7781 113.5 34.8785 113.5C34.979 113.5 35.0161 113.475 35.0258 113.444C35.0347 113.355 35.0379 113.266 35.0355 113.178Z" fill="white"/>
<path d="M35.4942 113.678V112.64H35.7356V112.738C35.7666 112.694 35.809 112.659 35.8585 112.636C35.908 112.613 35.9631 112.603 36.0181 112.606C36.0581 112.606 36.0979 112.609 36.1374 112.615V112.873C36.0814 112.852 36.0217 112.842 35.9616 112.844C35.8564 112.844 35.7632 112.884 35.7583 112.97C35.754 113.146 35.754 113.414 35.754 113.678L35.4942 113.678Z" fill="white"/>
<path d="M36.503 112.639H36.8183V112.853H36.503C36.503 113.072 36.5006 113.223 36.5006 113.386C36.5006 113.463 36.5488 113.494 36.6358 113.494C36.6992 113.496 36.7622 113.483 36.8183 113.454V113.669C36.7383 113.696 36.6537 113.71 36.5686 113.708C36.3813 113.708 36.2437 113.627 36.2437 113.433V112.451L36.503 112.305V112.639Z" fill="white"/>
<path d="M37.5407 112.993V112.953C37.5407 112.869 37.4803 112.815 37.3702 112.815C37.2521 112.816 37.1355 112.841 37.0288 112.89V112.66C37.1464 112.626 37.2686 112.609 37.3915 112.609C37.6436 112.609 37.8 112.707 37.8 112.951C37.8 113.122 37.7932 113.272 37.7932 113.435C37.7926 113.515 37.7966 113.594 37.8053 113.673C37.618 113.673 37.5156 113.701 37.3586 113.701C37.0873 113.701 36.9516 113.582 36.9516 113.38C36.9516 113.179 37.1298 113.005 37.5407 112.994V112.993ZM37.5407 113.178C37.3282 113.184 37.2181 113.247 37.2181 113.364C37.2181 113.444 37.2838 113.5 37.3842 113.5C37.4847 113.5 37.5219 113.475 37.5291 113.444C37.5382 113.355 37.5415 113.266 37.5388 113.178" fill="white"/>
<path d="M39.4385 113.678H39.1811V113.014C39.1811 112.877 39.1251 112.826 39.0082 112.826C38.9401 112.826 38.8397 112.852 38.8397 112.903C38.8421 112.928 38.8469 112.959 38.8469 112.995V113.678H38.5895V113.014C38.5895 112.877 38.5311 112.825 38.4307 112.825C38.3442 112.825 38.2578 112.848 38.2578 112.923V113.678H38.0009V112.659C38.2312 112.659 38.3022 112.614 38.4727 112.614C38.6243 112.614 38.6852 112.648 38.7417 112.694C38.8402 112.638 38.9537 112.61 39.0686 112.614C39.2902 112.614 39.4404 112.709 39.4404 112.98L39.4385 113.678Z" fill="white"/>
<path d="M40.6085 113.156C40.6085 113.483 40.4096 113.707 40.1034 113.707C39.7973 113.707 39.6012 113.481 39.6012 113.156C39.6012 112.832 39.8021 112.608 40.1034 112.608C40.4047 112.608 40.6085 112.826 40.6085 113.156ZM39.8789 113.156C39.8789 113.381 39.9817 113.492 40.1102 113.492C40.2386 113.492 40.3323 113.39 40.3323 113.156C40.3323 112.934 40.2294 112.823 40.0986 112.823C39.9677 112.823 39.8789 112.923 39.8789 113.156Z" fill="white"/>
<path d="M41.1431 112.609C41.2284 112.607 41.3134 112.617 41.3956 112.639V112.869C41.3131 112.834 41.2241 112.816 41.1339 112.815C41.045 112.815 40.989 112.851 40.989 112.904C40.989 113.064 41.4468 113.048 41.4468 113.368C41.4468 113.541 41.3159 113.707 41.0122 113.707C40.9158 113.709 40.8196 113.697 40.7268 113.672V113.456C40.8137 113.483 40.9044 113.498 40.9958 113.499C41.1199 113.499 41.1832 113.453 41.1832 113.385C41.1832 113.21 40.7225 113.236 40.7225 112.932C40.7225 112.733 40.8813 112.609 41.1431 112.609Z" fill="white"/>
<path d="M34.8177 115.541V114.354H35.4667V114.497C35.3551 114.489 35.2069 114.487 35.0142 114.487C34.9973 114.487 34.9881 114.498 34.9881 114.516C34.9881 114.586 34.9843 114.713 34.9843 114.856H35.4126V114.993H34.9843V115.539L34.8177 115.541Z" fill="white"/>
<path d="M35.8052 114.479C35.8059 114.492 35.8039 114.504 35.7991 114.516C35.7944 114.528 35.7871 114.539 35.7777 114.548C35.7683 114.557 35.757 114.564 35.7445 114.569C35.732 114.574 35.7187 114.576 35.7052 114.576C35.6787 114.576 35.6533 114.566 35.6345 114.548C35.6158 114.53 35.6053 114.506 35.6053 114.481C35.6053 114.456 35.6158 114.431 35.6345 114.414C35.6533 114.396 35.6787 114.386 35.7052 114.386C35.7182 114.385 35.7311 114.387 35.7432 114.392C35.7553 114.396 35.7664 114.403 35.7757 114.412C35.785 114.42 35.7925 114.43 35.7975 114.442C35.8026 114.453 35.8052 114.465 35.8052 114.478V114.479ZM35.7922 114.724C35.7868 114.971 35.7849 115.286 35.7849 115.54H35.627V114.724L35.7922 114.724Z" fill="white"/>
<path d="M36.0954 114.922V115.54H35.9375V114.744C36.1176 114.744 36.1418 114.702 36.3122 114.702C36.4716 114.702 36.6126 114.776 36.6126 114.984V115.54H36.4547V115.01C36.4547 114.883 36.3919 114.838 36.2712 114.838C36.164 114.838 36.0954 114.878 36.0954 114.922Z" fill="white"/>
<path d="M37.2249 115.009V114.967C37.2249 114.879 37.1674 114.829 37.0602 114.829C36.9728 114.829 36.8866 114.848 36.8077 114.884V114.746C36.8931 114.716 36.9835 114.7 37.0747 114.7C37.2679 114.7 37.3828 114.774 37.3828 114.961C37.3828 115.102 37.377 115.228 37.377 115.361C37.377 115.431 37.3809 115.489 37.3847 115.535C37.249 115.535 37.164 115.558 37.0525 115.558C36.8506 115.558 36.7468 115.459 36.7468 115.309C36.7468 115.147 36.8878 115.015 37.2249 115.008V115.009ZM37.2249 115.125C37.01 115.128 36.9173 115.184 36.9173 115.299C36.9171 115.318 36.9211 115.336 36.929 115.353C36.9368 115.37 36.9484 115.386 36.963 115.398C36.9776 115.411 36.9947 115.42 37.0134 115.426C37.0321 115.431 37.0518 115.433 37.0713 115.431C37.1679 115.431 37.2085 115.408 37.2162 115.371C37.2251 115.289 37.2282 115.207 37.2254 115.125" fill="white"/>
<path d="M37.6947 114.922V115.54H37.5373V114.744C37.717 114.744 37.7411 114.702 37.912 114.702C38.0714 114.702 38.2119 114.776 38.2119 114.984V115.54H38.0545V115.01C38.0545 114.883 37.9917 114.838 37.871 114.838C37.7633 114.838 37.6947 114.878 37.6947 114.922Z" fill="white"/>
<path d="M38.7827 115.432C38.8294 115.431 38.8759 115.427 38.9218 115.419V115.549C38.8742 115.559 38.8256 115.564 38.7769 115.565C38.5157 115.565 38.3423 115.421 38.3423 115.132C38.3423 114.869 38.4963 114.7 38.7769 114.7C38.8255 114.7 38.8739 114.705 38.9218 114.713V114.855C38.8749 114.841 38.826 114.835 38.7769 114.836C38.6195 114.836 38.521 114.92 38.521 115.134C38.521 115.347 38.6175 115.431 38.7822 115.431" fill="white"/>
<path d="M39.2535 114.479C39.2543 114.492 39.2522 114.504 39.2474 114.516C39.2427 114.528 39.2353 114.539 39.2259 114.548C39.2164 114.558 39.205 114.565 39.1925 114.569C39.18 114.574 39.1665 114.576 39.1531 114.576C39.1266 114.576 39.1011 114.566 39.0824 114.548C39.0636 114.53 39.0531 114.506 39.0531 114.481C39.0531 114.456 39.0636 114.431 39.0824 114.414C39.1011 114.396 39.1266 114.386 39.1531 114.386C39.1661 114.385 39.1791 114.387 39.1912 114.392C39.2034 114.396 39.2145 114.403 39.2239 114.411C39.2333 114.42 39.2407 114.43 39.2458 114.442C39.2509 114.453 39.2535 114.465 39.2535 114.478V114.479ZM39.2405 114.724C39.2347 114.97 39.2328 115.285 39.2328 115.539H39.0753V114.724H39.2405Z" fill="white"/>
<path d="M39.5268 115.125C39.5261 115.137 39.5261 115.148 39.5268 115.16C39.5268 115.344 39.6379 115.435 39.803 115.435C39.8692 115.437 39.9349 115.425 39.9962 115.402V115.534C39.9312 115.555 39.8629 115.565 39.7944 115.564C39.5365 115.564 39.3569 115.428 39.3569 115.124C39.3569 114.867 39.5273 114.699 39.761 114.699C39.9812 114.699 40.0725 114.842 40.0725 115.027C40.0723 115.059 40.0699 115.092 40.0653 115.124L39.5268 115.125ZM39.861 115.001C39.8924 115.001 39.904 114.988 39.904 114.959C39.904 114.884 39.8533 114.831 39.7494 114.831C39.6986 114.829 39.6491 114.846 39.6106 114.878C39.5721 114.909 39.5476 114.953 39.5418 115.001H39.861Z" fill="white"/>
<path d="M40.2111 115.54V114.723H40.3632V114.806C40.3882 114.77 40.4223 114.742 40.4622 114.723C40.5021 114.704 40.5465 114.695 40.5911 114.697C40.6223 114.696 40.6534 114.699 40.6838 114.705V114.866C40.6431 114.853 40.6006 114.847 40.5578 114.848C40.4578 114.848 40.3762 114.883 40.3724 114.964C40.369 115.107 40.369 115.322 40.369 115.539L40.2111 115.54Z" fill="white"/>
<path d="M41.2174 115.009V114.967C41.2174 114.879 41.16 114.829 41.0523 114.829C40.9651 114.829 40.879 114.848 40.8002 114.884V114.746C40.8856 114.716 40.9761 114.7 41.0673 114.7C41.2604 114.7 41.3753 114.774 41.3753 114.961C41.3753 115.102 41.3695 115.228 41.3695 115.361C41.3695 115.431 41.3734 115.489 41.3768 115.535C41.2416 115.535 41.1561 115.558 41.045 115.558C40.8432 115.558 40.7389 115.459 40.7389 115.309C40.7389 115.147 40.8799 115.015 41.2174 115.008V115.009ZM41.2174 115.125C41.0026 115.128 40.9098 115.184 40.9098 115.299C40.9097 115.318 40.9136 115.336 40.9215 115.353C40.9293 115.37 40.9409 115.385 40.9554 115.398C40.9699 115.41 40.987 115.42 41.0056 115.426C41.0243 115.431 41.0439 115.433 41.0634 115.431C41.16 115.431 41.2005 115.408 41.2083 115.371C41.2169 115.289 41.22 115.207 41.2174 115.125Z" fill="white"/>
<path d="M41.9012 115.543C41.8585 115.543 41.8166 115.531 41.7811 115.508C41.7455 115.486 41.7177 115.454 41.7014 115.416C41.685 115.379 41.6807 115.338 41.689 115.298C41.6974 115.258 41.718 115.221 41.7483 115.193C41.7785 115.164 41.8171 115.145 41.859 115.137C41.901 115.129 41.9444 115.133 41.9839 115.149C42.0233 115.164 42.057 115.191 42.0806 115.225C42.1043 115.258 42.1168 115.298 42.1166 115.339C42.1173 115.366 42.1122 115.393 42.1017 115.418C42.0911 115.443 42.0753 115.466 42.0551 115.485C42.0349 115.504 42.0109 115.519 41.9844 115.529C41.958 115.539 41.9297 115.544 41.9012 115.543ZM41.9012 115.168C41.8655 115.167 41.8301 115.175 41.7997 115.193C41.7692 115.211 41.745 115.237 41.7303 115.268C41.7155 115.299 41.7109 115.333 41.7169 115.367C41.7229 115.4 41.7393 115.431 41.764 115.456C41.7888 115.48 41.8206 115.497 41.8556 115.504C41.8905 115.512 41.9269 115.509 41.9601 115.496C41.9933 115.483 42.0218 115.462 42.0418 115.434C42.0619 115.405 42.0726 115.372 42.0726 115.338C42.074 115.316 42.0705 115.294 42.0625 115.273C42.0544 115.253 42.042 115.234 42.0259 115.218C42.0098 115.202 41.9904 115.189 41.969 115.181C41.9475 115.172 41.9245 115.168 41.9012 115.168ZM41.8466 115.469H41.8046V115.2C41.8355 115.2 41.8529 115.196 41.8867 115.196C41.9413 115.196 41.9833 115.222 41.9833 115.271C41.9834 115.286 41.9785 115.301 41.9694 115.314C41.9602 115.326 41.9472 115.336 41.9321 115.341C41.9311 115.341 41.9303 115.342 41.9297 115.343C41.9291 115.345 41.9288 115.346 41.9287 115.347C41.9289 115.35 41.9297 115.353 41.9311 115.355L42.0074 115.469H41.964L41.9012 115.378C41.8887 115.36 41.8824 115.356 41.8689 115.356H41.8428L41.8466 115.469ZM41.8742 115.324C41.9225 115.324 41.9427 115.306 41.9427 115.272C41.9427 115.238 41.9186 115.23 41.8833 115.23C41.8606 115.23 41.8495 115.236 41.8486 115.241C41.8486 115.271 41.8486 115.3 41.8486 115.324H41.8742Z" fill="white"/>
<path d="M44.5341 90H27.4659C25.5527 90 24 91.5494 24 93.466V134.534C24 136.447 25.5494 138 27.4659 138H44.5341C46.4473 138 48 136.451 48 134.536V93.466C48 92.5467 47.6348 91.6652 46.9849 91.0152C46.3349 90.3652 45.4533 90 44.5341 90ZM34.2696 93.8129H37.7321C37.9005 93.8129 38.0403 93.9477 38.0403 94.1161C38.0403 94.2845 37.9005 94.4192 37.7304 94.4192H34.2696C34.1012 94.4192 33.9631 94.2845 33.9631 94.1161C33.9631 93.9477 34.0978 93.8129 34.2662 93.8129H34.2696ZM31.8529 93.466C32.0137 93.466 32.1679 93.5299 32.2816 93.6436C32.3953 93.7573 32.4592 93.9115 32.4592 94.0723C32.4592 94.2331 32.3953 94.3873 32.2816 94.501C32.1679 94.6147 32.0137 94.6786 31.8529 94.6786C31.6921 94.6786 31.5379 94.6147 31.4242 94.501C31.3105 94.3873 31.2466 94.2331 31.2466 94.0723C31.2466 93.9115 31.3105 93.7573 31.4242 93.6436C31.5379 93.5299 31.6921 93.466 31.8529 93.466ZM36.0008 136.269C35.6824 136.269 35.367 136.206 35.0728 136.084C34.7786 135.962 34.5112 135.784 34.286 135.558C34.0609 135.333 33.8822 135.066 33.7603 134.772C33.6385 134.477 33.5757 134.162 33.5757 133.844C33.5757 133.525 33.6385 133.21 33.7603 132.915C33.8822 132.621 34.0609 132.354 34.286 132.129C34.5112 131.903 34.7786 131.725 35.0728 131.603C35.367 131.481 35.6824 131.418 36.0008 131.418C36.644 131.418 37.2608 131.674 37.7156 132.129C38.1704 132.583 38.4259 133.2 38.4259 133.844C38.4259 134.487 38.1704 135.104 37.7156 135.558C37.2608 136.013 36.644 136.269 36.0008 136.269ZM46.6999 129.333C46.6999 129.471 46.6454 129.604 46.5482 129.701C46.451 129.799 46.3191 129.855 46.1812 129.855H25.8188C25.6809 129.855 25.549 129.799 25.4518 129.701C25.3547 129.604 25.3001 129.471 25.3001 129.333V98.4915C25.3001 98.2052 25.5325 97.9694 25.8188 97.9694H46.1795C46.4658 97.9694 46.7015 98.2052 46.7015 98.4915V129.333H46.6999Z" fill="#83786F"/>
</g>
</g>
<defs>
<clipPath id="clip0_6_153321">
<rect width="202.959" height="202.959" fill="white" transform="translate(16.1523 14.9053)"/>
</clipPath>
</defs>
</svg>
