<svg width="210" height="184" viewBox="0 0 210 184" fill="none" xmlns="http://www.w3.org/2000/svg">
<path d="M52.1494 79.5167C55.8263 78.501 59.5755 78.005 63.3034 77.992L68.1145 68.7232L84.8167 73.1066L84.4648 83.5354C87.7039 85.3718 90.7358 87.6494 93.4325 90.3424L103.387 87.2009L112.104 102.114L104.483 109.241C105.499 112.918 105.995 116.667 106.008 120.395L115.277 125.206L110.893 141.908L100.465 141.556C98.6282 144.795 96.3533 147.817 93.6576 150.524L96.7991 160.478L81.8858 169.195L74.7594 161.575C71.0825 162.59 67.3333 163.086 63.6054 163.099L58.7943 172.368L42.0921 167.985L42.4467 157.546C39.2076 155.71 36.1853 153.435 33.479 150.739L23.5246 153.881L14.8018 138.987L22.4228 131.86C21.4071 128.183 20.9015 124.431 20.898 120.706L11.6293 115.895L16.0127 99.1929L26.4414 99.5449C28.2779 96.3057 30.5527 93.2835 33.2485 90.5772L30.107 80.6227L45.0203 71.9054L52.1494 79.5167ZM54.7837 104.153C45.9466 109.314 42.9753 120.661 48.137 129.498C53.2987 138.335 64.645 141.306 73.4822 136.145C82.3193 130.983 85.2906 119.637 80.1289 110.799C74.9645 101.972 63.6209 98.9909 54.7837 104.153Z" fill="#EFEFEF"/>
<path d="M158.287 16.5079C161.186 16.3346 164.066 16.5617 166.846 17.1456L171.911 11.0067L183.665 16.9325L181.745 24.6524C183.867 26.539 185.762 28.7155 187.356 31.1505L195.278 30.3919L199.397 42.8995L192.586 46.9975C192.759 49.8966 192.532 52.7767 191.948 55.5566L198.087 60.6217L192.161 72.3754L184.441 70.4548C182.555 72.5772 180.378 74.4724 177.946 76.0564L178.704 83.9782L166.206 88.1003L162.108 81.2891C159.209 81.4623 156.329 81.2352 153.549 80.6514L148.484 86.7903L136.73 80.8644L138.651 73.1445C136.529 71.2579 134.634 69.0814 133.04 66.6465L125.118 67.405L120.999 54.8975L127.81 50.7995C127.637 47.9004 127.864 45.0202 128.448 42.2404L122.309 37.1752L128.235 25.4215L135.955 27.3421C137.841 25.2198 140.018 23.3246 142.45 21.7405L141.691 13.8188L154.189 9.69664L158.287 16.5079ZM156.334 35.2976C148.927 37.7405 144.901 45.732 147.344 53.139C149.787 60.546 157.779 64.5716 165.186 62.1287C172.593 59.6858 176.618 51.6942 174.175 44.2872C171.723 36.8775 163.741 32.8547 156.334 35.2976Z" fill="#EFEFEF"/>
<path d="M162.511 45.2182L160.211 43.5506C158.774 42.5156 156.972 42.1131 155.228 42.4965L35.7193 67.879C34.0135 68.2432 32.5185 69.2973 31.6368 70.8115L30.0076 73.5524C29.6434 74.1657 29.3751 74.8366 29.2409 75.5458L44.7382 143.865C45.2034 146.49 45.8882 149.999 48.8591 151.014C49.9516 151.379 51.1208 151.455 52.2516 151.206L174.851 123.326C177.285 122.789 179.164 120.853 179.643 118.419L165.003 51.5049C165.003 51.5049 164.505 46.6557 162.511 45.2182Z" fill="#9A9A9A"/>
<path d="M158.389 49.3407L46.248 73.0264C44.0361 73.4936 42.4389 74.7997 42.6805 75.9437L43.7742 81.122C45.0677 85.3179 46.0048 82.8146 48.2168 82.3474L160.358 58.6617C162.57 58.1946 163.091 59.2814 162.849 58.1375L162.571 56.2303C162.571 56.2303 162.553 48.7469 158.389 49.3407Z" fill="#C4C4C4"/>
<path d="M162.789 54.5927L44.1324 80.3476L58.415 143.603L176.848 116.861L162.789 54.5927Z" fill="white"/>
<path d="M86.0096 78.8753L80.6793 79.8866C80.144 79.9882 79.7919 80.5015 79.8928 81.0332L80.3494 83.4399C80.4503 83.9716 80.966 84.3202 81.5012 84.2187L86.8315 83.2074C87.3668 83.1058 87.7189 82.5925 87.618 82.0608L87.1614 79.6541C87.0605 79.1224 86.5449 78.7737 86.0096 78.8753Z" fill="#C4C4C4"/>
<path d="M87.9505 87.472L82.6202 88.4833C82.0849 88.5849 81.7328 89.0982 81.8337 89.6299L82.2903 92.0366C82.3912 92.5683 82.9069 92.9169 83.4421 92.8154L88.7724 91.8041C89.3077 91.7025 89.6598 91.1892 89.5589 90.6575L89.1023 88.2508C89.0014 87.7191 88.4857 87.3704 87.9505 87.472Z" fill="#C4C4C4"/>
<path d="M89.6759 95.1135L84.3456 96.1248C83.8103 96.2263 83.4582 96.7397 83.5591 97.2713L84.0157 99.6781C84.1166 100.21 84.6323 100.558 85.1675 100.457L90.4978 99.4456C91.0331 99.344 91.3852 98.8307 91.2843 98.299L90.8277 95.8923C90.7268 95.3606 90.2111 95.0119 89.6759 95.1135Z" fill="#C4C4C4"/>
<path d="M91.4013 102.755L86.071 103.766C85.5358 103.868 85.1836 104.381 85.2845 104.913L85.7411 107.32C85.842 107.851 86.3577 108.2 86.8929 108.099L92.2232 107.087C92.7585 106.986 93.1106 106.472 93.0098 105.941L92.5531 103.534C92.4523 103.002 91.9366 102.654 91.4013 102.755Z" fill="#C4C4C4"/>
<path d="M117.74 72.5506L90.7713 78.516C90.2394 78.6336 89.9029 79.1574 90.0198 79.6858L90.5489 82.0776C90.6657 82.606 91.1917 82.9389 91.7237 82.8213L118.692 76.8559C119.224 76.7382 119.56 76.2145 119.444 75.6861L118.914 73.2943C118.798 72.7659 118.272 72.4329 117.74 72.5506Z" fill="#C4C4C4"/>
<path d="M124.495 80.0778L92.7113 87.1084C92.1794 87.2261 91.8429 87.7498 91.9598 88.2782L92.4888 90.67C92.6057 91.1984 93.1317 91.5314 93.6636 91.4137L125.448 84.3831C125.98 84.2654 126.316 83.7417 126.199 83.2133L125.67 80.8215C125.553 80.2931 125.027 79.9601 124.495 80.0778Z" fill="#C4C4C4"/>
<path d="M113.699 90.485L94.4355 94.746C93.9036 94.8637 93.5671 95.3874 93.684 95.9158L94.2131 98.3076C94.3299 98.836 94.8559 99.169 95.3878 99.0513L114.651 94.7903C115.183 94.6726 115.519 94.1489 115.402 93.6205L114.873 91.2287C114.757 90.7003 114.231 90.3673 113.699 90.485Z" fill="#C4C4C4"/>
<path d="M115.423 98.1228L96.1603 102.384C95.6284 102.501 95.2919 103.025 95.4088 103.554L95.9379 105.945C96.0548 106.474 96.5807 106.807 97.1127 106.689L116.376 102.428C116.908 102.31 117.244 101.787 117.127 101.258L116.598 98.8665C116.481 98.3381 115.955 98.0052 115.423 98.1228Z" fill="#C4C4C4"/>
<path fill-rule="evenodd" clip-rule="evenodd" d="M154.446 97.1479C150.294 98.0856 148.159 95.7909 148.159 95.7909C149.947 97.331 151.968 97.7075 154.446 97.1479C156.924 96.5884 158.587 95.38 159.54 93.2214C159.54 93.2214 158.599 96.2103 154.446 97.1479Z" fill="#D9D9D9"/>
<path d="M149.648 94.0585L149.415 96.0553L150.316 97.0184L152.518 97.6879L156.178 97.2503L158.12 95.2564L158.436 93.6296L156.393 92.1467L154.925 91.7004L151.348 92.508L149.648 94.0585Z" fill="#C4C4C4"/>
<path fill-rule="evenodd" clip-rule="evenodd" d="M158.272 92.4274C158.419 92.4599 158.549 92.6167 158.594 92.8162L158.907 94.2037C158.933 94.3178 159.535 94.8419 159.5 94.9389C159.079 96.1255 161.808 95.6993 160.864 97.1939C160.211 97.9038 155.93 98.7351 154.859 98.9769C153.788 99.2187 149.565 100.308 148.671 99.947C147.176 99.003 149.325 97.9007 148.435 97.0102C148.362 96.9375 149.179 96.5203 149.153 96.4062L148.84 95.0187C148.795 94.8192 148.845 94.6218 148.964 94.5291C149.083 94.4365 149.244 94.4695 149.364 94.6111C149.729 95.0426 150.1 95.4005 150.48 95.688C150.532 95.7253 150.586 95.7624 150.642 95.7991C151.471 96.3458 152.705 96.8194 154.291 96.4612C155.878 96.1029 156.788 95.1454 157.302 94.2953C157.336 94.2387 157.369 94.1825 157.4 94.1269C157.62 93.7035 157.801 93.2205 157.945 92.6734C157.993 92.4941 158.124 92.395 158.272 92.4274Z" fill="#C4C4C4"/>
<path d="M152.932 90.4418C154.279 90.1377 155.124 88.7993 154.82 87.4525C154.516 86.1057 153.178 85.2604 151.831 85.5645C150.484 85.8686 149.639 87.207 149.943 88.5538C150.247 89.9006 151.585 90.7459 152.932 90.4418Z" fill="#C4C4C4"/>
<path fill-rule="evenodd" clip-rule="evenodd" d="M149.13 88.7373C148.724 86.9416 149.851 85.1572 151.647 84.7517C153.443 84.3462 155.227 85.4733 155.633 87.269C156.038 89.0647 154.911 90.8492 153.116 91.2546C151.32 91.6601 149.535 90.5331 149.13 88.7373ZM151.986 86.2524C151.019 86.4707 150.412 87.4316 150.631 88.3985C150.849 89.3654 151.81 89.9723 152.777 89.754C153.744 89.5356 154.35 88.5748 154.132 87.6078C153.914 86.6409 152.953 86.034 151.986 86.2524Z" fill="#C4C4C4"/>
<path fill-rule="evenodd" clip-rule="evenodd" d="M153.231 93.0991C151.339 93.5263 148.865 96.2685 149.336 98.9232C149.424 99.4187 149.207 99.8578 148.853 99.9039C148.498 99.95 148.14 99.5856 148.052 99.09C147.415 95.4964 150.268 91.8975 152.829 91.3194L153.403 91.1897C155.96 90.6124 160.079 92.629 161.052 96.1399C161.186 96.6249 161.019 97.1087 160.68 97.2204C160.34 97.3322 159.956 97.0296 159.821 96.5446C159.103 93.9511 155.694 92.5428 153.805 92.9695L153.231 93.0991Z" fill="#C4C4C4"/>
<path fill-rule="evenodd" clip-rule="evenodd" d="M68.8328 108.448C62.1885 109.949 58.6547 105.749 58.6547 105.749C61.598 108.583 64.8677 109.344 68.8328 108.448C72.7978 107.553 75.423 105.461 76.863 101.638C76.863 101.638 75.477 106.948 68.8328 108.448Z" fill="#D9D9D9"/>
<path d="M60.9764 102.711L60.6879 106.276L62.1795 108.039L65.752 109.332L71.625 108.706L74.6651 105.22L75.1041 102.321L71.751 99.5784L69.3693 98.7163L63.6467 100.008L60.9764 102.711Z" fill="#C4C4C4"/>
<path fill-rule="evenodd" clip-rule="evenodd" d="M74.7876 100.162C75.0263 100.226 75.2422 100.512 75.3234 100.872L75.8873 103.369C75.9336 103.575 76.9247 104.539 76.8735 104.711C76.2463 106.817 80.6205 106.171 79.1652 108.807C78.1454 110.049 71.2894 111.354 69.5759 111.741C67.8625 112.128 61.1118 113.896 59.6568 113.211C57.2102 111.457 60.6217 109.576 59.1503 107.944C59.0301 107.81 60.3265 107.099 60.2802 106.893L59.7163 104.396C59.6351 104.036 59.7072 103.685 59.895 103.524C60.0827 103.364 60.3439 103.43 60.5427 103.688C61.1489 104.477 61.7612 105.133 62.3859 105.664C62.4714 105.733 62.5599 105.802 62.6511 105.87C64.0097 106.885 66.0153 107.785 68.5538 107.212C71.0923 106.639 72.5162 104.964 73.3069 103.464C73.3596 103.364 73.4096 103.265 73.4569 103.167C73.7932 102.418 74.0643 101.561 74.2732 100.588C74.3416 100.269 74.549 100.097 74.7876 100.162Z" fill="#C4C4C4"/>
<path d="M66.1072 96.3774C68.262 95.8908 69.5652 93.5311 69.0178 91.1069C68.4704 88.6826 66.2798 87.1118 64.1249 87.5984C61.97 88.0849 60.6669 90.4446 61.2143 92.8689C61.7616 95.2931 63.9523 96.8639 66.1072 96.3774Z" fill="#C4C4C4"/>
<path fill-rule="evenodd" clip-rule="evenodd" d="M59.9137 93.1625C59.1839 89.9302 60.9214 86.784 63.7946 86.1352C66.6677 85.4865 69.5886 87.5809 70.3184 90.8132C71.0483 94.0455 69.3107 97.1918 66.4376 97.8405C63.5644 98.4893 60.6435 96.3949 59.9137 93.1625ZM64.4045 88.8364C62.8574 89.1858 61.9218 90.8799 62.3148 92.6204C62.7078 94.3608 64.2806 95.4886 65.8276 95.1393C67.3747 94.79 68.3103 93.0958 67.9173 91.3554C67.5243 89.6149 65.9516 88.4871 64.4045 88.8364Z" fill="#C4C4C4"/>
<path fill-rule="evenodd" clip-rule="evenodd" d="M65.4477 101.431C62.4206 102.114 59.8116 106.634 60.6829 111.407C60.8456 112.298 60.5163 113.075 59.9474 113.142C59.3786 113.209 58.7856 112.542 58.6229 111.651C57.4434 105.19 60.6279 99.1523 64.7244 98.2273L68.1515 97.4535C72.2427 96.5298 77.7058 100.6 79.4221 106.928C79.6591 107.802 79.4119 108.661 78.8698 108.846C78.3277 109.032 77.6961 108.473 77.459 107.599C76.1913 102.925 71.898 99.9744 68.8749 100.657L65.4477 101.431Z" fill="#C4C4C4"/>
<path d="M162.621 132.804V124.205C162.621 115.575 155.436 108.554 146.599 108.554C137.761 108.554 130.576 115.573 130.576 124.205V132.804H126.815V159.403C142.689 168.639 150.949 168.776 166.382 159.403V132.804H162.621ZM136.895 124.205C136.895 118.978 141.246 114.727 146.599 114.727C151.952 114.727 156.303 118.976 156.303 124.205V132.804H136.895V124.205ZM150.7 153.3H142.495L144.701 146.833C143.986 146.49 143.382 145.958 142.959 145.297C142.537 144.636 142.311 143.874 142.309 143.095C142.309 141.984 142.761 140.919 143.565 140.133C144.369 139.347 145.46 138.906 146.597 138.906C147.734 138.906 148.825 139.347 149.629 140.133C150.433 140.919 150.885 141.984 150.885 143.095C150.885 144.738 149.906 146.145 148.494 146.833L150.7 153.3Z" fill="#CA005D"/>
</svg>
