<svg width="116" height="171" viewBox="0 0 116 171" fill="none" xmlns="http://www.w3.org/2000/svg">
<path d="M71.4413 0H12.0582C5.40218 0 0 5.51981 0 12.3476V158.652C0 165.468 5.39048 171 12.0582 171H71.4413C78.0973 171 83.4995 165.48 83.4995 158.658V12.3476C83.4995 9.07279 82.2291 5.93214 79.9677 3.61652C77.7065 1.3009 74.6393 0 71.4413 0ZM35.7295 13.5835H47.7759C48.3618 13.5835 48.8481 14.0635 48.8481 14.6635C48.8481 15.2635 48.3618 15.7434 47.7701 15.7434H35.7295C35.1435 15.7434 34.663 15.2635 34.663 14.6635C34.663 14.0635 35.1319 13.5835 35.7177 13.5835H35.7295ZM27.3214 12.3476C27.8809 12.3476 28.4174 12.5751 28.813 12.9802C29.2085 13.3853 29.4309 13.9346 29.4309 14.5075C29.4309 15.0803 29.2085 15.6297 28.813 16.0348C28.4174 16.4398 27.8809 16.6674 27.3214 16.6674C26.762 16.6674 26.2256 16.4398 25.83 16.0348C25.4343 15.6297 25.2121 15.0803 25.2121 14.5075C25.2121 13.9346 25.4343 13.3853 25.83 12.9802C26.2256 12.5751 26.762 12.3476 27.3214 12.3476ZM41.7527 164.832C40.6447 164.832 39.5476 164.609 38.524 164.174C37.5002 163.74 36.5701 163.104 35.7866 162.302C35.0032 161.499 34.3817 160.547 33.9576 159.499C33.5336 158.451 33.3154 157.327 33.3154 156.193C33.3154 155.058 33.5336 153.934 33.9576 152.886C34.3817 151.838 35.0032 150.886 35.7866 150.083C36.5701 149.281 37.5002 148.645 38.524 148.211C39.5476 147.776 40.6447 147.553 41.7527 147.553C43.9905 147.553 46.1364 148.463 47.7187 150.083C49.301 151.704 50.1899 153.901 50.1899 156.193C50.1899 158.484 49.301 160.681 47.7187 162.302C46.1364 163.922 43.9905 164.832 41.7527 164.832ZM78.9762 140.125C78.9762 140.616 78.7865 141.088 78.4484 141.436C78.1104 141.784 77.6513 141.982 77.1715 141.985H6.32794C5.84825 141.982 5.38926 141.784 5.05116 141.436C4.71306 141.088 4.5233 140.616 4.5233 140.125V30.251C4.5233 29.231 5.33188 28.391 6.32794 28.391H77.1657C78.1617 28.391 78.982 29.231 78.982 30.251V140.125H78.9762Z" fill="#83786F"/>
<g clip-path="url(#clip0_415_25572)">
<rect x="66.4089" y="59" width="44.9237" height="32" fill="white"/>
<path d="M109.135 56.1875H69.4608C66.1038 56.1875 63.3571 59 63.3571 62.4375V90.5625C63.3571 92.2201 64.0002 93.8098 65.1448 94.9819C66.2895 96.154 67.842 96.8125 69.4608 96.8125H109.135C112.523 96.8125 115.239 94.0312 115.239 90.5625V62.4375C115.239 60.7799 114.596 59.1902 113.451 58.0181C112.307 56.846 110.754 56.1875 109.135 56.1875ZM109.135 67.6562L89.2981 78.0625L69.4608 67.6562V62.4375L89.2981 72.7813L109.135 62.4375V67.6562ZM57.2533 90.5625C57.2533 91.0938 57.3449 91.5938 57.4059 92.125H45.0458C43.3611 92.125 41.9939 90.7188 41.9939 89C41.9939 87.2812 43.3611 85.875 45.0458 85.875H57.2533V90.5625ZM51.1495 60.875H57.4059C57.3449 61.4062 57.2533 61.9062 57.2533 62.4375V67.125H51.1495C49.471 67.125 48.0977 65.7188 48.0977 64C48.0977 62.2812 49.471 60.875 51.1495 60.875ZM45.0458 76.5C45.0458 74.7812 46.4191 73.375 48.0977 73.375H57.2533V79.625H48.0977C46.4191 79.625 45.0458 78.2188 45.0458 76.5Z" fill="#FFA100"/>
</g>
<defs>
<clipPath id="clip0_415_25572">
<rect width="73.2452" height="75" fill="white" transform="translate(41.9939 39)"/>
</clipPath>
</defs>
</svg>
