<svg width="264" height="172" viewBox="0 0 264 172" fill="none" xmlns="http://www.w3.org/2000/svg">
<path d="M159.081 0.5H99.1662C92.4506 0.5 87 6.01981 87 12.8476V159.153C87 165.968 92.4387 171.5 99.1662 171.5H159.081C165.797 171.5 171.247 165.98 171.247 159.158V12.8476C171.247 9.57279 169.965 6.43214 167.684 4.11652C165.402 1.8009 162.308 0.5 159.081 0.5ZM123.049 14.0835H135.204C135.795 14.0835 136.286 14.5635 136.286 15.1635C136.286 15.7635 135.795 16.2434 135.198 16.2434H123.049C122.458 16.2434 121.973 15.7635 121.973 15.1635C121.973 14.5635 122.446 14.0835 123.037 14.0835H123.049ZM114.566 12.8476C115.131 12.8476 115.672 13.0751 116.071 13.4802C116.47 13.8853 116.694 14.4346 116.694 15.0075C116.694 15.5803 116.47 16.1297 116.071 16.5348C115.672 16.9398 115.131 17.1674 114.566 17.1674C114.002 17.1674 113.46 16.9398 113.061 16.5348C112.662 16.1297 112.438 15.5803 112.438 15.0075C112.438 14.4346 112.662 13.8853 113.061 13.4802C113.46 13.0751 114.002 12.8476 114.566 12.8476ZM129.127 165.332C128.009 165.332 126.902 165.109 125.869 164.674C124.836 164.24 123.898 163.604 123.107 162.802C122.317 161.999 121.69 161.047 121.262 159.999C120.834 158.951 120.614 157.827 120.614 156.693C120.614 155.558 120.834 154.434 121.262 153.386C121.69 152.338 122.317 151.386 123.107 150.583C123.898 149.781 124.836 149.145 125.869 148.711C126.902 148.276 128.009 148.053 129.127 148.053C131.384 148.053 133.55 148.963 135.146 150.583C136.742 152.204 137.639 154.401 137.639 156.693C137.639 158.984 136.742 161.181 135.146 162.802C133.55 164.422 131.384 165.332 129.127 165.332ZM166.683 140.625C166.683 141.116 166.492 141.588 166.151 141.936C165.81 142.284 165.347 142.482 164.863 142.485H93.3846C92.9006 142.482 92.4375 142.284 92.0964 141.936C91.7553 141.588 91.5638 141.116 91.5638 140.625V30.751C91.5638 29.731 92.3796 28.891 93.3846 28.891H164.857C165.862 28.891 166.689 29.731 166.689 30.751V140.625H166.683Z" fill="#83786F"/>
<path d="M147.438 69.272C147.438 64.1394 151.538 59.9785 156.596 59.9785H240.843C245.9 59.9785 250 64.1394 250 69.272V89.7176C250 94.8502 245.9 99.0111 240.843 99.0111H182.236L154.764 114.81L160.258 99.0111H156.596C151.538 99.0111 147.438 94.8502 147.438 89.7176V69.272Z" fill="#FFA100"/>
<path d="M177.006 77.545V73.9519C177.006 70.3457 174.013 67.4121 170.331 67.4121C166.65 67.4121 163.656 70.3449 163.656 73.9519V77.545H162.09V88.6592C168.703 92.5184 172.144 92.5757 178.573 88.6592V77.545H177.006ZM166.289 73.9519C166.289 71.7678 168.101 69.9912 170.331 69.9912C172.561 69.9912 174.374 71.767 174.374 73.9519V77.545H166.289V73.9519ZM172.04 86.1089H168.622L169.541 83.4067C169.243 83.2633 168.992 83.0409 168.815 82.7649C168.639 82.4889 168.545 82.1702 168.544 81.8447C168.544 81.3806 168.733 80.9354 169.068 80.6072C169.402 80.2789 169.857 80.0945 170.331 80.0945C170.804 80.0945 171.259 80.2789 171.594 80.6072C171.929 80.9354 172.117 81.3806 172.117 81.8447C172.117 82.5315 171.709 83.1194 171.121 83.4067L172.04 86.1089Z" fill="white"/>
<path d="M189.258 86.0004L191.31 82.3018L193.362 86.0004L196.5 84.1261L194.448 80.4275H198.553V76.6789H194.448L196.5 73.0052L193.362 71.1309L191.31 74.8046L189.258 71.1309L186.12 73.0052L188.171 76.6789H184.067V80.4275H188.171L186.12 84.1261L189.258 86.0004ZM205.433 84.1261L208.571 86.0004L210.624 82.3018L212.676 86.0004L215.814 84.1261L213.762 80.4275H217.866V76.6789H213.762L215.814 73.0052L212.676 71.1309L210.624 74.8046L208.571 71.1309L205.433 73.0052L207.485 76.6789H203.381V80.4275H207.485L205.433 84.1261ZM237.18 76.6789H233.076L235.128 73.0052L231.989 71.1309L229.937 74.8046L227.885 71.1309L224.747 73.0052L226.799 76.6789H222.695V80.4275H226.799L224.747 84.1261L227.885 86.0004L229.937 82.3018L231.989 86.0004L235.128 84.1261L233.076 80.4275H237.18V76.6789Z" fill="white"/>
</svg>
