<svg width="109" height="171" viewBox="0 0 109 171" fill="none" xmlns="http://www.w3.org/2000/svg">
<path d="M73.1529 0H12.3471C5.53161 0 0 5.51981 0 12.3476V158.653C0 165.468 5.51962 171 12.3471 171H73.1529C79.9683 171 85.5 165.48 85.5 158.658V12.3476C85.5 9.07279 84.1991 5.93214 81.8835 3.61652C79.5682 1.3009 76.4275 0 73.1529 0ZM36.5854 13.5835H48.9205C49.5205 13.5835 50.0184 14.0635 50.0184 14.6635C50.0184 15.2635 49.5205 15.7434 48.9146 15.7434H36.5854C35.9855 15.7434 35.4935 15.2635 35.4935 14.6635C35.4935 14.0635 35.9736 13.5835 36.5734 13.5835H36.5854ZM27.976 12.3476C28.5488 12.3476 29.0983 12.5751 29.5033 12.9802C29.9083 13.3853 30.136 13.9346 30.136 14.5075C30.136 15.0803 29.9083 15.6297 29.5033 16.0348C29.0983 16.4398 28.5488 16.6674 27.976 16.6674C27.4031 16.6674 26.8539 16.4398 26.4489 16.0348C26.0437 15.6297 25.8162 15.0803 25.8162 14.5075C25.8162 13.9346 26.0437 13.3853 26.4489 12.9802C26.8539 12.5751 27.4031 12.3476 27.976 12.3476ZM42.753 164.832C41.6184 164.832 40.495 164.609 39.4469 164.174C38.3986 163.74 37.4462 163.104 36.644 162.302C35.8418 161.499 35.2054 160.547 34.7712 159.499C34.337 158.451 34.1136 157.327 34.1136 156.193C34.1136 155.058 34.337 153.934 34.7712 152.886C35.2054 151.838 35.8418 150.886 36.644 150.083C37.4462 149.281 38.3986 148.645 39.4469 148.211C40.495 147.776 41.6184 147.553 42.753 147.553C45.0444 147.553 47.2417 148.463 48.8619 150.083C50.4822 151.704 51.3924 153.901 51.3924 156.193C51.3924 158.484 50.4822 160.681 48.8619 162.302C47.2417 163.922 45.0444 164.832 42.753 164.832ZM80.8683 140.125C80.8683 140.616 80.6741 141.088 80.3278 141.436C79.9817 141.784 79.5117 141.982 79.0204 141.985H6.47954C5.98836 141.982 5.51837 141.784 5.17217 141.436C4.82597 141.088 4.63166 140.616 4.63166 140.125V30.251C4.63166 29.231 5.45962 28.391 6.47954 28.391H79.0145C80.0343 28.391 80.8743 29.231 80.8743 30.251V140.125H80.8683Z" fill="#83786F"/>
<path d="M101.183 104.086H67.9586L60.2915 111.521V69.3908C60.2915 65.3017 63.7417 61.9561 67.9586 61.9561H101.183C105.4 61.9561 108.85 65.3017 108.85 69.3908V96.6517C108.85 100.741 105.4 104.086 101.183 104.086Z" fill="#FFA100"/>
<path d="M64.7262 89.8684C65.466 90.416 67.5548 91.2702 69.6872 91.2702C72.8205 91.2702 74.8658 89.7151 74.8658 86.8238C74.8658 83.9983 72.777 83.144 70.7969 82.5088C69.165 82.005 67.903 81.5889 67.903 80.2309C67.903 78.8728 69.0562 78.4567 70.0353 78.4567C71.2321 78.4567 72.4723 79.07 73.6038 80.0118L75.0181 78.2376C73.8867 77.0768 72.0589 76.1787 70.0353 76.1787C67.1849 76.1787 65.1396 77.7996 65.1396 80.4718C65.1396 83.2754 67.1414 84.1297 69.2955 84.7211C70.8187 85.1372 72.0589 85.5534 72.0589 86.9333C72.0589 88.5761 70.8839 88.9484 69.7307 88.9484C68.2294 88.9484 66.5322 88.2037 65.7053 87.678L64.7262 89.8684Z" fill="white"/>
<path d="M84.3166 85.9696C84.2948 85.9696 84.2731 85.9696 84.2731 85.9696L80.6611 76.4416H77.7019L76.8751 91.0074H79.3991L79.9431 81.0632C79.9648 81.0632 79.9866 81.0632 79.9866 81.0632L83.2504 89.3865H85.2522L88.6031 80.9756C88.6031 80.9756 88.6248 80.9756 88.6466 80.9756L89.1906 91.0074H91.7146L90.9313 76.4416H88.0374L84.3166 85.9696Z" fill="white"/>
<path d="M93.2209 89.8684C93.9607 90.416 96.0495 91.2702 98.1819 91.2702C101.315 91.2702 103.36 89.7151 103.36 86.8238C103.36 83.9983 101.272 83.144 99.2916 82.5088C97.6597 82.005 96.3977 81.5889 96.3977 80.2309C96.3977 78.8728 97.5509 78.4567 98.53 78.4567C99.7268 78.4567 100.967 79.07 102.098 80.0118L103.513 78.2376C102.381 77.0768 100.554 76.1787 98.53 76.1787C95.6796 76.1787 93.6343 77.7996 93.6343 80.4718C93.6343 83.2754 95.6361 84.1297 97.7902 84.7211C99.3134 85.1372 100.554 85.5534 100.554 86.9333C100.554 88.5761 99.3786 88.9484 98.2254 88.9484C96.7241 88.9484 95.0269 88.2037 94.2 87.678L93.2209 89.8684Z" fill="white"/>
</svg>
