<svg width="190" height="208" viewBox="0 0 190 208" fill="none" xmlns="http://www.w3.org/2000/svg">
<path d="M84.9125 38.3312C84.4891 38.3318 84.0687 38.2646 83.6691 38.1324L80.4163 37.0691C79.7843 36.8607 79.2213 36.4985 78.7839 36.0188C78.3465 35.5392 78.05 34.9589 77.9243 34.3364L77.2738 31.1367C77.1492 30.5152 77.1984 29.8736 77.4165 29.2757C77.6346 28.6778 78.014 28.1443 78.5171 27.7282L81.1403 25.5967C81.6467 25.1818 82.2594 24.9005 82.917 24.781C83.5745 24.6615 84.2537 24.7081 84.8862 24.916L88.1337 25.9793C88.7665 26.1874 89.3302 26.5494 89.7686 27.0291C90.2069 27.5087 90.5043 28.0891 90.631 28.712L91.2816 31.9068C91.4076 32.5295 91.3585 33.1726 91.1394 33.7717C90.9202 34.3708 90.5387 34.9048 90.0329 35.3202L87.4097 37.4517C86.7158 38.0193 85.8294 38.3314 84.9125 38.3312V38.3312ZM82.0007 33.3626L84.8338 34.2917L87.095 32.4335L86.5283 29.6461L83.6796 28.7368L81.4131 30.5951L82.0007 33.3626Z" fill="#F5F5F5"/>
<path d="M155.686 62.1406C159.238 58.0912 162.789 53.9971 165.56 49.426C168.33 44.8549 170.281 39.7472 170.423 34.4805C170.423 33.6806 170.082 28.1356 169.269 27.917C168.692 27.758 168.293 32.6521 167.821 33.0048C163.288 36.3586 160.345 41.3421 158.65 46.5492C157.056 51.6264 156.062 56.8556 155.686 62.1406" fill="#263238"/>
<path d="M109.418 92.9608C110.835 89.4827 117.812 72.0927 117.776 72.0927C117.739 72.0927 105.756 66.1652 109.906 54.1014C111.9 48.2783 117.036 36.5971 121.81 26.0736C124.287 20.6207 128.842 16.2509 134.567 13.8341C140.292 11.4173 146.768 11.1306 152.706 13.0311L153.928 13.4236C166.866 18.3922 169.668 31.544 164.07 43.6525L138.362 100.046L115.835 93.4527L109.418 92.9608Z" fill="#FFBF9D"/>
<path d="M128.15 46.3012C128.819 45.6773 129.845 46.6371 129.177 47.2929C127.685 48.6792 124.565 51.6132 127.906 52.7468C128.764 53.0399 128.437 54.4352 127.571 54.1441C126.117 53.6501 124.778 52.8641 124.892 51.1151C125.033 49.1303 126.787 47.5479 128.136 46.2931" fill="#E09C72"/>
<path d="M128.604 60.9701C129.215 61.0855 129.835 61.1419 130.457 61.1385C130.316 61.4676 130.051 61.7275 129.719 61.8614C128.294 62.6967 126.678 63.1524 125.025 63.1851C123.71 63.2437 122.405 62.9364 121.254 62.2973C119.741 61.4065 118.542 60.067 117.825 58.4651C117.514 57.8054 117.275 57.0983 117.003 56.4162C116.872 56.0623 116.793 55.6917 116.767 55.3157C117.16 55.4922 117.535 55.7056 117.888 55.953C118.067 56.4884 118.32 56.9959 118.641 57.4604C118.948 58.0881 119.408 58.6284 119.98 59.0311C120.925 59.6592 121.912 60.2205 122.936 60.711C123.891 61.198 124.936 61.4863 126.006 61.5585C126.46 61.6409 126.926 61.6291 127.376 61.5238C127.825 61.4185 128.247 61.2219 128.617 60.9464" fill="#353535"/>
<path d="M128.602 60.969C128.232 61.2445 127.81 61.4411 127.361 61.5464C126.911 61.6517 126.445 61.6635 125.991 61.5812C124.921 61.5089 123.876 61.2206 122.921 60.7336C121.898 60.2431 120.91 59.6818 119.965 59.0537C119.394 58.6511 118.933 58.1108 118.626 57.483C118.305 57.0185 118.052 56.511 117.873 55.9757C118.059 56.081 118.249 56.189 118.439 56.2971C120.209 57.4509 122.068 58.4634 123.998 59.3249C125.343 59.9992 126.762 60.513 128.226 60.8558C128.352 60.8876 128.475 60.9302 128.594 60.9832" fill="white"/>
<path d="M137.529 46.1088C137.395 46.3542 137.312 46.6238 137.284 46.902C137.256 47.1802 137.284 47.4612 137.366 47.7285C137.449 47.9958 137.584 48.244 137.763 48.4585C137.943 48.673 138.164 48.8495 138.413 48.9776C138.919 49.2279 139.502 49.2732 140.04 49.104C140.577 48.9348 141.029 48.5642 141.299 48.0698C141.434 47.8244 141.518 47.5544 141.546 47.2759C141.575 46.9973 141.547 46.7158 141.465 46.448C141.383 46.1801 141.248 45.9314 141.068 45.7164C140.888 45.5014 140.667 45.3245 140.418 45.1963C139.91 44.9422 139.325 44.8947 138.784 45.064C138.243 45.2332 137.79 45.606 137.519 46.1034" fill="#353535"/>
<path d="M122.047 37.9866C121.871 38.3339 121.801 38.7257 121.846 39.1128C121.892 39.4999 122.05 39.8652 122.302 40.163C122.554 40.4608 122.889 40.6779 123.263 40.787C123.638 40.8962 124.036 40.8927 124.408 40.7768C124.781 40.6609 125.11 40.4379 125.356 40.1357C125.602 39.8335 125.753 39.4654 125.79 39.0775C125.828 38.6897 125.75 38.2992 125.566 37.9551C125.383 37.611 125.102 37.3284 124.759 37.1427C124.285 36.8966 123.734 36.8477 123.225 37.0068C122.717 37.1658 122.292 37.5198 122.044 37.9913" fill="#353535"/>
<path d="M145.435 46.5792C145.964 44.8085 145.699 43.3396 144.629 42.0914C144.116 41.4688 143.465 40.9741 142.728 40.6469C142.431 40.5046 142.09 40.4819 141.777 40.5834C141.635 40.6384 141.506 40.7247 141.402 40.8358C141.297 40.947 141.219 41.0801 141.173 41.2255C141.111 41.3651 141.08 41.5161 141.08 41.6688C141.08 41.8215 141.112 41.9725 141.175 42.112C141.237 42.2515 141.328 42.3764 141.442 42.4788C141.555 42.5811 141.689 42.6585 141.834 42.7059C141.901 42.7437 141.962 42.7789 142.045 42.7882C142.097 42.8114 142.146 42.8395 142.192 42.8719C142.592 43.0347 142.948 43.2896 143.23 43.6159C143.512 43.9421 143.713 44.3304 143.816 44.7489C143.89 45.1646 143.891 45.5898 143.819 46.0056L143.72 46.5772C143.694 46.7555 143.731 46.9373 143.825 47.0913C143.919 47.2454 144.063 47.3621 144.234 47.4214L144.334 47.4781C144.507 47.5296 144.694 47.5172 144.86 47.4432C145.025 47.3692 145.158 47.2384 145.236 47.0745C145.282 46.9804 145.321 46.8828 145.351 46.7825L145.435 46.5792Z" fill="#353535"/>
<path d="M127.791 33.1174C127.535 32.8875 127.244 32.7008 126.929 32.5649L126.734 32.4542C126.26 32.1872 125.737 32.0161 125.197 31.9508C123.299 31.6627 122.024 32.5889 121.128 33.4354C121.034 33.5289 120.959 33.6393 120.906 33.7607C120.829 33.9186 120.81 34.0984 120.852 34.2689C120.894 34.4394 120.994 34.59 121.135 34.6947C121.203 34.7518 121.28 34.7958 121.363 34.8244C121.466 34.8668 121.576 34.8866 121.687 34.8825C121.798 34.8783 121.907 34.8503 122.006 34.8003C122.142 34.7308 122.273 34.6494 122.395 34.5573C122.659 34.3327 122.956 34.15 123.275 34.0156C123.666 33.8215 124.103 33.7375 124.538 33.7726C124.973 33.8077 125.391 33.9606 125.746 34.2148L126.02 34.408C126.195 34.5079 126.354 34.6485 126.528 34.7532C126.749 34.9218 127.026 35 127.302 34.9717C127.579 34.9435 127.834 34.811 128.016 34.6012C128.101 34.4898 128.163 34.3624 128.198 34.2265C128.233 34.0907 128.241 33.9491 128.22 33.8103C128.199 33.6715 128.151 33.5382 128.077 33.4183C128.004 33.2985 127.907 33.1945 127.793 33.1126" fill="#353535"/>
<path d="M117.781 72.1027C117.781 72.1027 125.619 75.0838 135.944 72.7585C135.944 72.7585 128.798 80.4052 116.532 75.2776L117.781 72.1027Z" fill="#FF9A6C"/>
<path d="M159.841 52.2234C160.093 52.2234 169.426 52.5712 166.221 60.6948C163.015 68.8185 155.067 64.0933 155.146 63.8548C155.224 63.6164 159.841 52.2234 159.841 52.2234Z" fill="#FFBF9D"/>
<path d="M158.981 61.7084C159.028 61.7084 159.091 61.8574 159.301 62.0562C159.598 62.3273 159.995 62.4772 160.408 62.4735C161.457 62.4735 162.737 61.3854 163.356 59.9396C163.654 59.2505 163.785 58.5067 163.739 57.7633C163.759 57.4799 163.706 57.196 163.585 56.9363C163.463 56.6766 163.277 56.4488 163.041 56.2727C162.885 56.1651 162.694 56.1139 162.501 56.1285C162.309 56.143 162.128 56.2224 161.992 56.3522C161.787 56.5361 161.777 56.7199 161.724 56.7149C161.672 56.71 161.599 56.5162 161.798 56.2181C161.924 56.0384 162.108 55.9024 162.323 55.8305C162.625 55.7457 162.951 55.776 163.23 55.915C163.554 56.1074 163.82 56.3751 164.004 56.6925C164.188 57.0099 164.282 57.3666 164.279 57.7285C164.364 58.5603 164.235 59.3992 163.902 60.1731C163.199 61.7928 161.714 63.0101 160.339 62.9108C160.084 62.8938 159.835 62.8224 159.613 62.702C159.39 62.5815 159.199 62.4152 159.054 62.2152C158.918 61.9071 158.944 61.7084 158.981 61.7084Z" fill="#FF9A6C"/>
<path d="M132.759 14.6808C131.668 13.4535 137.539 10.7059 141.531 10.4972C147.565 10.1743 155.964 11.6648 160.182 14.646C165.266 18.2532 168.917 22.6603 169.788 28.6226C170.659 34.5849 169.416 40.7013 166.976 46.2512C166.231 47.9455 165.318 49.6646 163.765 50.7627C161.85 52.1141 159.101 52.4073 158.178 54.8915C158.028 55.3501 157.784 55.7762 157.46 56.1453C157.136 56.5145 156.738 56.8195 156.289 57.0429C154.086 58.0367 152.774 55.8753 152.496 54.0618C151.898 50.2111 153.225 46.3456 154.532 42.634C155.46 40.0106 156.42 37.3326 158.204 35.1315C159.17 33.934 160.355 32.9006 161.252 31.6535C162.149 30.4064 162.732 28.8412 162.302 27.3954C162.181 27.0911 162.029 26.7984 161.85 26.5209C161.059 25.1018 159.883 23.9081 158.442 23.0627C157.002 22.2173 155.35 21.7508 153.656 21.7113C148.184 21.5772 138.966 20.9958 137.465 18.6705C135.283 15.3217 135.131 13.5976 135.131 13.5976L132.759 14.6808Z" fill="#263238"/>
<path d="M161.294 9.6773C161.845 9.94064 174.735 17.483 174.651 28.4834C174.568 39.4839 172.443 42.1768 172.443 42.1768C172.866 42.6826 173.21 43.2431 173.466 43.8413C173.812 44.676 171.834 47.5032 170.14 46.5591C158.566 36.3934 142.617 30.5503 124.423 25.1942L110.698 20.5734C106.68 19.7387 105.678 18.3276 107.64 17.9401C109.145 17.642 121.611 17.0457 121.611 17.0457L124.302 16.2607L132.696 10.6412C132.696 10.6412 132.376 9.37422 134.081 8.96183C135.786 8.54943 150.44 4.47022 161.294 9.6773Z" fill="#CA005D"/>
<path d="M124.302 16.2607C124.302 16.2607 124.486 16.3303 124.827 16.4396L126.401 16.9365C127.754 17.3191 129.68 17.96 132.051 18.7898C138.195 21.023 144.12 23.7629 149.758 26.978C155.396 30.188 160.834 33.7016 166.048 37.5015C168.057 38.9423 169.662 40.1447 170.769 40.9795L172.049 41.9235C172.348 42.1372 172.511 42.2415 172.511 42.2415C172.511 42.2415 172.369 42.1173 172.081 41.8887L170.827 40.895C169.73 40.0503 168.141 38.8281 166.142 37.3623C160.954 33.5081 155.523 29.9573 149.878 26.7296C144.225 23.5189 138.274 20.8047 132.098 18.6208C127.345 16.9663 124.302 16.2607 124.302 16.2607Z" fill="#263238"/>
<path opacity="0.3" d="M171.95 19.6592C171.95 19.6592 157.722 12.4448 149.863 13.3193L150.781 13.2L143.436 13.7813C142.192 13.8757 140.771 13.9105 139.915 13.0559C139.915 13.0559 144.375 11.2672 151.41 11.302C158.446 11.3368 168.776 13.7267 171.95 19.6592Z" fill="black"/>
<path d="M172.138 19.8034C171.823 19.3536 171.472 18.9268 171.089 18.5264C170.061 17.416 168.897 16.4253 167.621 15.5751C165.741 14.3009 163.673 13.2964 161.483 12.5939C158.817 11.6683 155.973 11.2939 153.141 11.4959C151.695 11.6371 150.258 11.8594 148.839 12.1617C147.465 12.4598 146.122 12.6585 144.863 13.0113C143.703 13.3755 142.513 13.6448 141.306 13.8162C140.249 13.9128 139.183 13.7785 138.189 13.4237C134.47 12.266 132.46 10.8003 132.707 10.6313C132.725 10.774 132.795 10.9061 132.906 11.004C133.207 11.2872 133.544 11.5341 133.908 11.7393C135.243 12.4963 136.661 13.1128 138.137 13.5777C139.149 13.9536 140.239 14.0999 141.321 14.005C142.544 13.8425 143.75 13.5798 144.926 13.22C146.164 12.897 147.517 12.6784 148.892 12.3853C150.307 12.0834 151.74 11.8611 153.183 11.7195C155.983 11.5175 158.796 11.8816 161.436 12.7877C163.607 13.4779 165.663 14.4565 167.543 15.6943C168.81 16.531 169.977 17.4974 171.021 18.5761C171.393 18.9587 171.672 19.2668 171.85 19.4804C172.028 19.6941 172.138 19.8034 172.138 19.8034Z" fill="#263238"/>
<path opacity="0.3" d="M174.468 33.0297C171.771 32.1354 169.967 30.8038 167.485 29.3778C164.862 27.8574 162.181 26.4662 159.615 24.8266C157.669 23.5844 155.313 22.2678 154.448 20.3549C154.161 20.8211 154.005 21.3496 153.997 21.8892C153.989 22.4289 154.128 22.9615 154.401 23.4354C154.951 24.4291 157.286 26.2029 158.283 26.8438C163.949 30.4908 167.899 32.985 174.237 35.514C174.372 34.6917 174.449 33.8618 174.468 33.0297" fill="black"/>
<path d="M174.604 27.2712C176.063 28.5332 176.939 29.3481 176.488 30.7492C176.115 31.9119 175.355 33.2335 174.09 33.0497C173.706 32.9678 173.342 32.8195 173.015 32.6124L155.665 22.9833C155.039 22.7191 154.529 22.2573 154.222 21.6766C153.881 20.7425 154.747 19.7189 155.749 19.4606C156.751 19.2022 157.847 19.4606 158.823 19.7885C164.479 21.5176 169.636 24.1807 174.604 27.2712Z" fill="#CA005D"/>
<path d="M154.416 22.0293C154.257 21.7417 154.182 21.4195 154.196 21.0952C154.234 20.6572 154.402 20.2384 154.681 19.8868C154.959 19.5352 155.337 19.2652 155.77 19.1078C156.882 18.75 158.356 18.9885 159.804 19.54C161.252 20.0915 162.884 20.7325 164.526 21.4529C167.378 22.651 170.112 24.0876 172.695 25.7458C173.681 26.3867 174.442 26.9532 174.972 27.3457L175.57 27.8028C175.711 27.9071 175.785 27.9618 175.79 27.9518C175.735 27.8833 175.672 27.8215 175.601 27.768L175.029 27.2712C174.505 26.8538 173.775 26.2774 172.794 25.6067C170.23 23.8981 167.494 22.4335 164.626 21.2343C162.957 20.5139 161.341 19.8829 159.867 19.3363C158.393 18.7898 156.872 18.5463 155.67 18.9488C155.217 19.1273 154.829 19.4256 154.55 19.8081C154.272 20.1906 154.116 20.6409 154.101 21.1051C154.095 21.3557 154.15 21.6042 154.264 21.8305C154.306 21.9025 154.357 21.9693 154.416 22.0293V22.0293Z" fill="#263238"/>
<path d="M130.068 12.405L141.883 15.9874L139.758 18.7946L127.093 14.3925L130.068 12.405Z" fill="white"/>
<path d="M144.238 28.0611C144.265 28.0015 139.291 25.5768 133.132 22.6801C126.973 19.7834 121.947 17.4283 121.915 17.483C121.884 17.5376 126.857 19.9673 133.022 22.864C139.186 25.7607 144.207 28.0909 144.238 28.0611Z" fill="#263238"/>
<path d="M147.213 88.3102L147.37 80.9666L120.834 90.3026C120.834 90.3026 115.929 75.218 115.929 74.5025L110.048 78.0054L100.274 74.0305L90.4998 69.4495L70.7315 102.242L49.9927 160.136L98.8625 191.001L135.094 154.233L157.129 122.434L169.237 102.302L147.213 88.3102Z" fill="#CA005D"/>
<path d="M118.474 90.1982C118.442 89.9543 118.428 89.7086 118.432 89.4629C118.432 88.966 118.432 88.2605 118.405 87.4009L118.526 87.4755C115.61 88.8227 112.918 90.567 110.536 92.6527L110.326 92.8415V92.5633C110.326 92.2403 110.289 91.8876 110.268 91.5398C110.053 87.9375 109.875 84.6732 109.744 82.3131C109.691 81.1604 109.649 80.2164 109.618 79.5158C109.618 79.2077 109.618 78.9593 109.618 78.7556C109.603 78.6667 109.603 78.5762 109.618 78.4873C109.643 78.5732 109.657 78.6616 109.66 78.7506C109.66 78.9544 109.702 79.2028 109.733 79.5108C109.78 80.2064 109.854 81.1505 109.938 82.3032C110.106 84.6632 110.31 87.9226 110.525 91.5249C110.525 91.8776 110.567 92.2254 110.583 92.5484L110.357 92.4639C112.756 90.3591 115.489 88.6253 118.458 87.3264L118.584 87.2767V87.4009C118.584 88.2555 118.547 88.9462 118.536 89.4579C118.535 89.7058 118.513 89.9533 118.474 90.1982V90.1982Z" fill="#263238"/>
<path d="M144.768 88.6779C144.675 88.7433 144.572 88.7968 144.464 88.8369L143.577 89.2343L140.288 90.6653L129.396 95.2811L124.223 97.4425L124.003 97.5369L124.045 97.3133C124.472 94.9787 124.674 92.6122 124.648 90.243L124.769 90.3125L122.319 91.4404L121.663 91.7286C121.591 91.7666 121.513 91.7951 121.432 91.813C121.497 91.7635 121.567 91.7218 121.642 91.6888L122.277 91.3609L124.696 90.1684L124.811 90.1088V90.238C124.885 92.6203 124.709 95.0036 124.286 97.353L124.108 97.2238L129.276 95.0426L140.199 90.4964L143.525 89.1499L144.432 88.7921C144.54 88.7444 144.653 88.7062 144.768 88.6779Z" fill="#263238"/>
<path d="M86.4759 207.999L15.4087 207.686C13.3763 207.677 11.3655 207.29 9.49118 206.545C7.61687 205.801 5.91574 204.714 4.48492 203.347C3.0541 201.98 1.92161 200.359 1.15211 198.578C0.382611 196.796 -0.00882532 194.889 0.000150951 192.964L0.755627 24.2304C0.764564 22.3049 1.17387 20.4 1.96019 18.6243C2.7465 16.8486 3.89441 15.237 5.33839 13.8815C6.78236 12.526 8.49412 11.4531 10.3759 10.7241C12.2577 9.99505 14.2727 9.62421 16.3058 9.63271L87.3521 9.94573C89.3845 9.9542 91.3953 10.3417 93.2696 11.0861C95.1439 11.8306 96.8451 12.9173 98.2759 14.2844C99.7067 15.6515 100.839 17.272 101.609 19.0536C102.378 20.8352 102.77 22.7428 102.761 24.6677L102.042 193.401C102.032 195.327 101.622 197.233 100.834 199.01C100.047 200.786 98.8976 202.398 97.4521 203.754C96.0065 205.109 94.2932 206.182 92.4099 206.91C90.5266 207.639 88.5102 208.008 86.4759 207.999V207.999Z" fill="#263238"/>
<path d="M87.2734 15.7688L73.4912 15.7092L33.2516 15.5303H28.4092L16.3426 15.4757C13.4706 15.4638 10.711 16.5319 8.66994 18.4453C6.62882 20.3588 5.47303 22.9613 5.45637 25.6812L4.72188 190.375C4.71072 193.097 5.84095 195.713 7.86435 197.647C9.88776 199.581 12.6389 200.675 15.5137 200.69L86.4392 200.998C89.3135 201.007 92.074 199.935 94.1143 198.018C96.1546 196.101 97.3077 193.494 97.3202 190.772L98.0652 26.0737C98.0763 23.3521 96.9457 20.7376 94.922 18.8052C92.8983 16.8728 90.1472 15.7807 87.2734 15.7688V15.7688Z" fill="#FAFAFA"/>
<path d="M31.919 81.2698C34.7051 79.6748 37.7049 78.4415 40.8378 77.6029L42.674 69.2507L57.5737 69.0023L59.7195 77.285C62.877 78.0232 65.9169 79.1561 68.7589 80.6537L76.2875 75.9782L87.011 85.7812L82.3418 93.0751C84.0259 95.7138 85.3282 98.5547 86.2136 101.522L95.0327 103.261L95.295 117.372L86.5441 119.404C85.7688 122.395 84.5742 125.274 82.9923 127.965L87.9239 135.094L77.5728 145.25L69.8764 140.828C67.0905 142.424 64.0907 143.657 60.9576 144.495L59.1266 152.847L44.227 153.096L42.0759 144.823C38.9169 144.089 35.8764 142.956 33.0365 141.454L25.5027 146.13L14.7844 136.302L19.4536 129.013C17.7695 126.374 16.4655 123.533 15.5766 120.566L6.76268 118.832L6.50037 104.721L15.2461 102.689C16.0269 99.7041 17.223 96.8303 18.8031 94.1434L13.8663 87.0085L24.2173 76.8577L31.919 81.2797V81.2698ZM39.862 100.066C37.6665 102.22 36.1949 104.943 35.6332 107.889C35.0715 110.836 35.445 113.874 36.7063 116.619C37.9677 119.365 40.0603 121.694 42.7196 123.314C45.3789 124.933 48.4855 125.769 51.6465 125.716C54.8075 125.663 57.881 124.724 60.4783 123.017C63.0757 121.31 65.0803 118.912 66.2386 116.126C67.397 113.34 67.657 110.292 66.986 107.366C66.3149 104.44 64.7429 101.768 62.4686 99.6883C60.9581 98.3071 59.1752 97.2212 57.2216 96.4926C55.268 95.7641 53.182 95.4072 51.0827 95.4422C48.9834 95.4773 46.912 95.9037 44.9867 96.697C43.0614 97.4904 41.32 98.6351 39.862 100.066V100.066Z" fill="#E0E0E0"/>
<path d="M60.2913 49.2273C60.5214 48.0382 60.9184 46.8835 61.4717 45.794L59.3731 43.106L63.1768 38.8976L66.3246 40.4578C67.3749 39.7691 68.5184 39.2175 69.7242 38.8181L70.2489 35.5041L76.0828 35.0768L77.1321 38.2716C78.3877 38.4895 79.6069 38.8655 80.7573 39.3895L83.5904 37.4021L87.9868 40.9795L86.3395 43.9606C87.063 44.9566 87.6434 46.0393 88.0655 47.1803L91.5648 47.6771L92.0213 53.2022L88.6479 54.1959C88.416 55.3853 88.0172 56.5399 87.4622 57.6292L89.5607 60.3122L85.7781 64.5008L82.6303 62.9406C81.5792 63.6268 80.4358 64.1766 79.2306 64.5753L78.706 67.8893L72.872 68.3216L71.8228 65.1268C70.5665 64.9087 69.3471 64.531 68.1975 64.0039L65.3592 65.9913L60.9156 62.3891L62.5629 59.408C61.8367 58.4127 61.2544 57.3299 60.8316 56.1883L57.3323 55.6915L56.9231 50.2161L60.3018 49.2224L60.2913 49.2273ZM68.1975 50.9166C68.0732 52.1594 68.3639 53.4078 69.0286 54.4857C69.6933 55.5637 70.6985 56.4169 71.9025 56.925C73.1064 57.4332 74.4484 57.5706 75.7393 57.3179C77.0301 57.0653 78.2046 56.4353 79.0973 55.5168C79.9899 54.5983 80.5557 53.4377 80.7147 52.1985C80.8738 50.9593 80.6181 49.704 79.9838 48.6098C79.3495 47.5155 78.3685 46.6374 77.1792 46.0992C75.9898 45.5611 74.6522 45.39 73.3547 45.6102C72.0011 45.8399 70.7642 46.483 69.8329 47.4412C68.9016 48.3995 68.3272 49.6201 68.1975 50.9166Z" fill="#F2F2F2"/>
<path d="M10.1939 172.15C10.2363 170.724 10.4816 169.31 10.9231 167.947L7.94846 165.169L11.5894 159.614L15.5347 160.906C16.6352 159.925 17.8705 159.09 19.2071 158.422L19.1494 154.442L25.87 152.952L27.6958 156.504C29.203 156.548 30.6973 156.782 32.1394 157.2L35.0669 154.382L40.9376 157.831L39.6102 161.562C40.6446 162.605 41.5268 163.775 42.2334 165.04H46.4305L48.0044 171.405L44.2533 173.134C44.2108 174.561 43.9656 175.977 43.524 177.342L46.4987 180.115L42.8105 185.63L38.8653 184.338C37.7634 185.317 36.5283 186.153 35.1928 186.822L35.2243 190.772L28.4984 192.263L26.678 188.71C25.1774 188.679 23.6882 188.456 22.25 188.05L19.3173 190.867L13.4519 187.419L14.8159 183.682C13.7819 182.639 12.8997 181.469 12.1928 180.204L8.02191 180.234L6.448 173.864L10.1939 172.15ZM19.9154 173.944C20.2524 175.293 21.0042 176.518 22.0757 177.463C23.1472 178.408 24.4904 179.031 25.9357 179.254C27.3809 179.476 28.8634 179.288 30.1959 178.713C31.5283 178.138 32.651 177.202 33.422 176.023C34.193 174.844 34.5779 173.476 34.5279 172.09C34.478 170.704 33.9955 169.363 33.1413 168.237C32.2872 167.11 31.0998 166.249 29.729 165.761C28.3583 165.274 26.8657 165.182 25.4398 165.497C23.5295 165.923 21.8752 167.048 20.8396 168.627C19.804 170.205 19.4717 172.109 19.9154 173.919V173.944Z" fill="#F2F2F2"/>
<path d="M17.2292 56.382C17.403 55.4853 17.703 54.6146 18.1211 53.7934L16.5472 51.7662L19.4169 48.5913L21.7725 49.7688C22.5664 49.2512 23.4291 48.8352 24.338 48.5316L24.721 46.0473L29.1174 45.7095L29.9044 48.1192C30.8521 48.2869 31.7728 48.5708 32.643 48.9639L34.7783 47.4733L38.1307 50.1862L36.8663 52.4071C37.4128 53.1572 37.8521 53.9725 38.1727 54.8318L40.7958 55.1945L41.1421 59.3582L38.5976 60.1084C38.4198 61.0042 38.12 61.8744 37.7057 62.6971L39.2796 64.7193L36.4624 67.8942L34.1067 66.7167C33.3134 67.2352 32.4507 67.6513 31.5413 67.9538L31.1583 70.4381L26.7618 70.7611L25.9696 68.3662C25.0231 68.2001 24.104 67.9161 23.2363 67.5216L21.101 69.0121L17.7276 66.3192L18.971 64.0883C18.4245 63.3382 17.9852 62.5229 17.6646 61.6636L15.0415 61.2959L14.6952 57.1323L17.2397 56.387L17.2292 56.382ZM23.1838 58.4042C23.2578 59.2847 23.6056 60.1248 24.1831 60.8183C24.7607 61.5119 25.5422 62.028 26.4291 62.3014C27.3159 62.5748 28.2685 62.5934 29.1664 62.3547C30.0644 62.116 30.8677 61.6308 31.4749 60.9603C32.082 60.2898 32.4659 59.464 32.5781 58.5871C32.6903 57.7102 32.5257 56.8215 32.1052 56.0331C31.6847 55.2447 31.027 54.5918 30.2152 54.157C29.4033 53.7221 28.4737 53.5247 27.5435 53.5897C26.9228 53.633 26.3173 53.7921 25.7617 54.0579C25.2062 54.3236 24.7116 54.6908 24.3064 55.1383C23.9012 55.5857 23.5935 56.1046 23.4008 56.6651C23.2082 57.2256 23.1344 57.8166 23.1838 58.4042V58.4042Z" fill="#EBEBEB"/>
<path d="M67.0801 160.409C67.2276 159.639 67.4834 158.89 67.8408 158.183L66.4767 156.444L68.9373 153.722L70.9624 154.715C71.6429 154.268 72.3841 153.911 73.1658 153.652L73.4964 151.511L77.2685 151.227L77.9505 153.299C78.7632 153.44 79.552 153.684 80.2956 154.025L82.1319 152.728L85.0121 155.058L83.9629 156.981C84.4298 157.626 84.8055 158.326 85.0803 159.063L87.3468 159.376L87.6406 162.953L85.4581 163.594C85.3063 164.365 85.0488 165.113 84.6921 165.82L86.0614 167.559L83.5956 170.287L81.5705 169.293C80.8913 169.739 80.1519 170.097 79.3723 170.356L79.0418 172.503L75.2644 172.781L74.5824 170.709C73.7699 170.568 72.9812 170.324 72.2372 169.984L70.401 171.281L67.5208 168.95L68.57 167.032C68.1027 166.386 67.727 165.685 67.4526 164.946L65.1861 164.633L64.8923 161.055L67.0801 160.414V160.409ZM72.1953 162.148C72.2588 162.906 72.5582 163.629 73.0554 164.226C73.5527 164.823 74.2256 165.267 74.9891 165.501C75.7526 165.736 76.5724 165.752 77.345 165.545C78.1177 165.339 78.8084 164.92 79.33 164.343C79.8515 163.765 80.1805 163.053 80.2754 162.298C80.3703 161.543 80.2268 160.779 79.863 160.101C79.4993 159.423 78.9316 158.863 78.2317 158.491C77.5317 158.118 76.731 157.951 75.9307 158.01C74.8559 158.089 73.8586 158.57 73.1581 159.346C72.4576 160.123 72.1113 161.13 72.1953 162.148Z" fill="#EBEBEB"/>
<path d="M50.8899 132.854H27.9738C26.6221 132.856 25.2937 132.521 24.1225 131.882C22.9513 131.243 21.9788 130.322 21.3031 129.214C20.6273 128.105 20.2722 126.847 20.2736 125.567C20.2749 124.287 20.6327 123.03 21.3109 121.923L32.7899 103.136L44.248 84.3353C44.9231 83.2282 45.894 82.3089 47.0631 81.6697C48.2322 81.0306 49.5583 80.6941 50.9082 80.6941C52.2581 80.6941 53.5843 81.0306 54.7534 81.6697C55.9225 82.3089 56.8934 83.2282 57.5685 84.3353L68.9898 103.136L80.4479 121.933C81.1258 123.04 81.4836 124.296 81.4852 125.576C81.4868 126.856 81.1321 128.113 80.457 129.221C79.7818 130.33 78.8101 131.25 77.6396 131.89C76.4692 132.529 75.1414 132.865 73.7902 132.863L50.8899 132.854Z" fill="#CA005D"/>
<path d="M75.5635 124.104C75.5635 124.104 75.6265 124.218 75.7419 124.442C75.9381 124.896 76.013 125.389 75.9599 125.877C75.9068 126.365 75.7274 126.833 75.4376 127.239C75.2116 127.563 74.9189 127.84 74.5772 128.054C74.1812 128.292 73.7284 128.432 73.2604 128.461C69.3518 128.501 63.712 128.496 56.7396 128.511L32.2391 128.536H28.7398C28.1156 128.531 27.5086 128.342 27.0028 127.996C26.497 127.65 26.1176 127.163 25.9172 126.603C25.7008 126.04 25.6607 125.429 25.8018 124.844C25.8385 124.7 25.891 124.561 25.9382 124.417C25.9854 124.273 26.0694 124.144 26.1428 124.01L26.5835 123.244L28.3725 120.149C30.7806 115.98 33.2726 111.663 35.8276 107.231C38.3826 102.799 40.8746 98.4908 43.2879 94.3123L46.8345 88.181C47.1283 87.6842 47.4011 87.1873 47.7106 86.6904C48.0267 86.1903 48.4705 85.7734 49.0012 85.4781C49.5257 85.1952 50.1138 85.0346 50.7168 85.0096C51.3198 84.9845 51.9204 85.0957 52.4691 85.334C53.0079 85.5672 53.4781 85.9221 53.8384 86.3675C54.1535 86.8184 54.4408 87.2862 54.6988 87.7686L56.2727 90.5312L59.3156 95.8128C61.2829 99.2212 63.1087 102.396 64.7823 105.298L72.6518 119.036L74.7871 122.777L75.3379 123.771L75.5163 124.109C75.5163 124.109 75.4429 124 75.317 123.786L74.7451 122.822L72.5679 119.101C70.6844 115.856 67.9668 111.176 64.6039 105.392L59.1162 95.9221C58.1299 94.2228 57.1121 92.4441 56.0628 90.6454L54.4889 87.8879C54.2355 87.4157 53.9534 86.9579 53.6442 86.5165C53.3079 86.0889 52.8643 85.7474 52.3536 85.5228C51.8378 85.2999 51.2734 85.1962 50.7069 85.2204C50.1405 85.2446 49.5882 85.3959 49.0956 85.6619C48.5949 85.9381 48.1775 86.3317 47.8837 86.8047C47.5847 87.3016 47.3066 87.7984 47.0128 88.2953C45.8586 90.3026 44.6782 92.3497 43.4715 94.4365L36.0165 107.355C33.4615 111.772 30.9642 116.085 28.5561 120.273L26.7671 123.374C26.4412 123.853 26.1836 124.371 26.0012 124.914C25.8717 125.457 25.9099 126.025 26.1113 126.548C26.2968 127.069 26.6491 127.523 27.1193 127.845C27.5895 128.167 28.1541 128.343 28.7345 128.347H32.2653L56.7658 128.372H73.2761C73.7301 128.345 74.1699 128.212 74.5562 127.984C74.891 127.778 75.1798 127.511 75.4061 127.199C75.7564 126.703 75.9393 126.117 75.9308 125.52C75.9264 125.027 75.8007 124.542 75.5635 124.104Z" fill="#263238"/>
<path d="M47.1807 120.089C47.1807 118.161 48.8018 116.726 51.1102 116.726C53.4186 116.726 55.003 118.161 55.003 120.089C55.003 122.017 53.4291 123.513 51.1102 123.513C48.7913 123.513 47.1807 121.967 47.1807 120.089ZM47.2174 100.379H55.003L53.6914 114.902H48.4923L47.2174 100.379Z" fill="white"/>
<path d="M51.9916 82.179C51.5189 82.0296 51.0294 81.9329 50.5331 81.8908C49.3303 81.8643 48.1555 82.2369 47.2122 82.9441C46.2822 83.6726 45.5319 84.5849 45.014 85.6172C44.5942 86.4023 44.4001 86.919 44.3634 86.9041C44.3725 86.7741 44.4044 86.6465 44.4578 86.5265C44.5715 86.1879 44.7064 85.8561 44.8618 85.5328C45.35 84.4527 46.1037 83.4987 47.06 82.7504C48.0454 82.008 49.2872 81.6396 50.5436 81.7169C50.9192 81.7464 51.2875 81.8319 51.6349 81.9703C51.767 82.0171 51.8882 82.088 51.9916 82.179Z" fill="white"/>
<path d="M42.4065 90.1685C42.6708 89.4488 43.0846 88.7865 43.6237 88.2208C43.5243 88.5953 43.3459 88.9469 43.099 89.2543C42.9329 89.5986 42.6977 89.9091 42.4065 90.1685Z" fill="white"/>
<path opacity="0.3" d="M62.3899 92.2703L26.6937 113.104L22.0559 120.705L64.9082 96.4041L62.3899 92.2703Z" fill="white"/>
<path opacity="0.3" d="M68.0087 101.502L20.7233 127.93C20.917 128.625 21.2759 129.269 21.7725 129.813L68.8954 102.873L68.0087 101.502Z" fill="white"/>
<path opacity="0.3" d="M33.1205 10.1146C27.617 9.22519 21.0538 10.7406 15.5189 9.85124C14.6953 9.72205 13.7981 9.59784 13.0741 9.99532C12.2032 10.4673 11.9042 11.5207 11.8622 12.4796C11.8402 13.7953 12.1088 15.1009 12.6509 16.3125C13.193 17.5241 13.9966 18.615 15.01 19.5151C17.0728 21.3012 19.6493 22.4668 22.4126 22.864C24.6109 23.2167 26.9717 23.1472 28.9339 22.1435C32.3755 20.3797 34.0281 13.6969 33.1205 10.1146Z" fill="black"/>
<path d="M11.7468 19.6593C11.7468 19.6593 8.40484 15.9527 7.92217 14.2385C7.5969 13.1057 7.75954 9.93078 7.92217 7.9185C7.9587 7.24099 8.20364 6.58838 8.62684 6.04103C9.05005 5.49369 9.63304 5.0755 10.304 4.83798C10.5018 4.74559 10.7223 4.70558 10.9421 4.7222C11.1619 4.73882 11.3729 4.81145 11.5527 4.93238C12.0061 4.3508 12.5154 3.81023 13.0741 3.31759C14.3857 2.04563 15.01 1.1811 17.8955 1.9711C17.8955 1.9711 20.0203 -0.150485 21.2427 0.00851001C22.063 0.123448 22.8745 0.289426 23.6717 0.505369C23.6717 0.505369 28.3095 0.316563 29.2644 1.72764C29.8066 2.36015 30.5381 2.8226 31.3629 3.05425C32.0912 3.29808 32.7605 3.6779 33.3309 4.17121C33.9014 4.66452 34.3614 5.26128 34.6839 5.9261C35.2272 7.14536 35.5414 8.44513 35.6125 9.76682L30.8907 9.94072C30.8907 9.94072 31.216 20.2207 30.0356 21.0505C28.8552 21.8802 28.3935 21.602 28.3935 21.602C28.3935 21.602 27.4859 24.0167 23.9446 22.228C23.9446 22.228 21.0066 23.0677 19.7475 21.92C18.4883 20.7722 13.903 9.73204 13.903 9.73204L14.0342 15.1975C14.0342 15.1975 16.4632 18.7451 15.2723 19.5748C14.0814 20.4046 11.7468 19.6593 11.7468 19.6593Z" fill="#FFBF9D"/>
<path d="M17.6437 5.70251C17.7526 5.91002 17.8421 6.12615 17.9112 6.34843L18.5513 8.14209C19.0759 9.65751 19.7947 11.7543 20.5607 14.1044C21.3266 16.4545 21.9667 18.5513 22.6907 19.9822C22.9689 20.5444 23.2916 21.0859 23.656 21.602C23.8015 21.7888 23.9363 21.9829 24.06 22.1833C24.06 22.1833 24.0023 22.1436 23.9183 22.0591C23.8344 21.9746 23.7137 21.8405 23.5668 21.6616C23.1658 21.153 22.8146 20.6109 22.5175 20.0419C21.7358 18.6208 21.0748 16.4843 20.3036 14.1491C19.5324 11.8139 18.8503 9.71713 18.3677 8.18681C18.1421 7.45643 17.9585 6.84529 17.8116 6.36831C17.7307 6.15268 17.6744 5.92948 17.6437 5.70251V5.70251Z" fill="#FF9A6C"/>
<path d="M23.4514 4.44543C23.5578 4.65816 23.6387 4.88148 23.6927 5.11123L24.2541 6.9496C24.7105 8.50974 25.3296 10.6611 25.9959 13.0461C26.6622 15.431 27.2498 17.5973 27.659 19.1674C27.8531 19.9176 28.0105 20.5387 28.1364 21.0306C28.2071 21.2557 28.2528 21.4871 28.2728 21.7212C28.1706 21.5069 28.0898 21.284 28.0315 21.0554C27.8846 20.5586 27.701 19.9524 27.4754 19.2121C27.0137 17.6569 26.3946 15.5005 25.7283 13.1156C25.062 10.7307 24.4797 8.56439 24.0652 6.99432C23.8764 6.24903 23.7137 5.62299 23.5878 5.13607C23.5214 4.91002 23.4757 4.67895 23.4514 4.44543V4.44543Z" fill="#FF9A6C"/>
<path d="M141.998 165.959C140.534 164.43 138.636 163.332 136.53 162.798C134.424 162.264 132.201 162.316 130.126 162.948L126.532 159.232L126.007 158.705L97.593 129.177C98.3936 127.424 98.6863 125.5 98.441 123.604C98.1958 121.708 97.4214 119.908 96.1976 118.39C94.9739 116.872 93.3449 115.69 91.4785 114.966C89.6121 114.242 87.5756 114.002 85.5788 114.271L84.2043 114.778L89.0362 117.853L88.7791 122.822L84.8706 126.181L79.6242 125.937L76.1774 122.34L74.7608 122.892C74.3516 125.903 76.4817 129.694 78.8058 132.118C80.2685 133.645 82.164 134.741 84.2663 135.276C86.3686 135.811 88.589 135.761 90.6626 135.134L119.554 165.154L120.441 166.089L123.18 168.936C122.319 170.829 122.052 172.917 122.41 174.95C122.768 176.984 123.736 178.877 125.199 180.403C127.513 182.818 130.582 184.428 133.777 184.348L135.199 183.821L131.752 180.224L132.009 175.231L135.918 171.877L141.164 172.12L143.189 176.239L144.611 175.713C145.051 174.009 145.042 172.228 144.587 170.528C144.131 168.827 143.243 167.259 141.998 165.959V165.959Z" fill="#E0E0E0"/>
<path opacity="0.3" d="M141.998 165.959C140.534 164.43 138.636 163.332 136.53 162.798C134.424 162.264 132.201 162.316 130.126 162.948L126.532 159.232L126.007 158.705L97.593 129.177C98.3936 127.424 98.6863 125.5 98.441 123.604C98.1958 121.708 97.4214 119.908 96.1976 118.39C94.9739 116.872 93.3449 115.69 91.4785 114.966C89.6121 114.242 87.5756 114.002 85.5788 114.271L84.2043 114.778L89.0362 117.853L88.7791 122.822L84.8706 126.181L79.6242 125.937L76.1774 122.34L74.7608 122.892C74.3516 125.903 76.4817 129.694 78.8058 132.118C80.2685 133.645 82.164 134.741 84.2663 135.276C86.3686 135.811 88.589 135.761 90.6626 135.134L119.554 165.154L120.441 166.089L123.18 168.936C122.319 170.829 122.052 172.917 122.41 174.95C122.768 176.984 123.736 178.877 125.199 180.403C127.513 182.818 130.582 184.428 133.777 184.348L135.199 183.821L131.752 180.224L132.009 175.231L135.918 171.877L141.164 172.12L143.189 176.239L144.611 175.713C145.051 174.009 145.042 172.228 144.587 170.528C144.131 168.827 143.243 167.259 141.998 165.959V165.959Z" fill="black"/>
<path d="M140.576 166.486C139.111 164.956 137.212 163.859 135.105 163.325C132.999 162.791 130.775 162.843 128.699 163.475L125.126 159.729L124.601 159.232L96.1869 129.708C96.9875 127.955 97.2802 126.032 97.0349 124.136C96.7897 122.24 96.0153 120.44 94.7915 118.922C93.5678 117.403 91.9388 116.221 90.0724 115.497C88.206 114.773 86.1695 114.534 84.1727 114.803L87.6196 118.4L87.3625 123.369L83.454 126.727L78.1814 126.484L74.7608 122.892C74.2856 124.745 74.3401 126.686 74.9185 128.513C75.4969 130.34 76.5785 131.989 78.0521 133.289C79.5257 134.59 81.3383 135.495 83.3037 135.913C85.269 136.331 87.3164 136.245 89.2355 135.666L118.117 165.691L119.003 166.625L121.742 169.472C120.942 171.226 120.651 173.15 120.897 175.047C121.144 176.943 121.919 178.743 123.144 180.261C124.369 181.779 125.998 182.961 127.865 183.684C129.732 184.408 131.769 184.647 133.767 184.378L130.32 180.781L130.577 175.812L134.48 172.453L139.753 172.697L143.2 176.289C143.646 174.577 143.64 172.787 143.182 171.077C142.725 169.367 141.83 167.79 140.576 166.486Z" fill="#E0E0E0"/>
<path d="M140.576 166.486C140.576 166.486 140.739 166.655 141.049 166.983C141.491 167.51 141.884 168.071 142.224 168.662C142.769 169.633 143.154 170.677 143.367 171.758C143.647 173.241 143.602 174.763 143.236 176.229V176.299L143.184 176.249L139.732 172.657H139.768L134.496 172.419H134.538L130.629 175.777V175.738C130.551 177.288 130.467 178.977 130.377 180.731V180.686C131.427 181.794 132.618 183.017 133.824 184.279L133.913 184.368H133.782C130.828 184.762 127.828 184.047 125.422 182.376C123.016 180.706 121.395 178.211 120.903 175.425C120.551 173.385 120.82 171.293 121.679 169.393V169.482L89.1515 135.696L89.2512 135.721C87.1951 136.337 84.9978 136.395 82.9084 135.889C79.9973 135.178 77.499 133.409 75.9537 130.967C74.4084 128.524 73.9403 125.604 74.6506 122.837L74.6926 122.668L74.8132 122.797L78.2601 126.394L78.1919 126.365L83.4383 126.608L83.3701 126.633L87.2733 123.274V123.339C87.3573 121.656 87.443 120 87.5304 118.37V118.435L84.0888 114.838L83.9681 114.713H84.1413C86.2548 114.428 88.4105 114.703 90.3687 115.508C92.2289 116.283 93.8377 117.513 95.0298 119.072C96.222 120.631 96.9545 122.462 97.1522 124.377C97.3353 126.199 97.0322 128.036 96.2709 129.718V129.634L128.741 163.445H128.699C130.244 162.978 131.878 162.829 133.489 163.008C135.1 163.187 136.653 163.69 138.042 164.484C138.747 164.897 139.405 165.378 140.005 165.92C140.393 166.297 140.587 166.496 140.587 166.496L139.989 165.935C139.385 165.4 138.724 164.927 138.016 164.523C136.63 163.744 135.085 163.252 133.483 163.081C131.881 162.91 130.26 163.063 128.725 163.53V163.53L96.1974 129.768L96.1607 129.733V129.684C96.9047 128.023 97.2003 126.213 97.0211 124.417C96.8352 122.56 96.1308 120.783 94.9802 119.27C93.7861 117.668 92.1479 116.409 90.2463 115.633C88.3448 114.857 86.2538 114.594 84.2042 114.872L84.2619 114.723L87.7088 118.321L87.735 118.345V118.385C87.6511 120.041 87.5671 121.698 87.4832 123.354V123.393L87.4517 123.418L83.5432 126.777H83.517H83.475L78.2286 126.539H78.1866H78.1604L74.6768 122.961L74.8447 122.921C74.3743 124.76 74.4288 126.683 75.0027 128.495C75.5766 130.306 76.6492 131.941 78.1104 133.23C79.5716 134.519 81.3688 135.417 83.3174 135.831C85.2661 136.245 87.296 136.161 89.1988 135.586H89.2565L89.2984 135.631L121.826 169.417L121.863 169.457V169.502C121.013 171.38 120.747 173.448 121.097 175.464C121.423 177.387 122.305 179.186 123.646 180.661C124.908 182.071 126.535 183.144 128.368 183.777C130.104 184.37 131.965 184.554 133.793 184.313L133.751 184.423L130.309 180.82V180.791C130.404 179.042 130.493 177.352 130.572 175.822V175.797L134.48 172.443L139.726 172.692L143.163 176.294H143.095C143.752 173.753 143.407 171.073 142.124 168.757C141.793 168.164 141.407 167.6 140.97 167.072L140.576 166.486Z" fill="#263238"/>
<path d="M94.8963 131.408C94.8963 131.408 94.8648 131.507 94.7756 131.671C94.6463 131.904 94.5008 132.128 94.3402 132.342C93.8097 133.054 93.1695 133.687 92.441 134.22C91.7114 134.75 90.9013 135.172 90.0381 135.472C89.7787 135.567 89.5122 135.643 89.2407 135.701C89.0518 135.74 88.9417 135.76 88.9417 135.745C88.9417 135.73 89.3509 135.606 89.9909 135.353C91.6642 134.69 93.1268 133.627 94.2352 132.267C94.6497 131.746 94.87 131.408 94.8963 131.408Z" fill="#263238"/>
<path d="M130.199 140.545L115.084 133.892L101.596 132.302L106.548 136.252C106.548 136.252 89.1096 142.006 88.8053 143.308C88.501 144.609 90.1799 148.087 93.2542 147.446C93.2542 147.446 91.5282 149.434 92.2469 151.62C92.9657 153.806 94.5553 154.228 97.4933 153.717C97.4933 153.717 95.4997 156.544 97.0631 157.985C98.6265 159.426 101.061 159.058 101.061 159.058C101.061 159.058 101.092 162.501 103.012 162.804C104.933 163.107 110.284 162.75 112.283 162.163L122.434 159.182L129.05 157.806L130.199 140.545Z" fill="#FFBF9D"/>
<path d="M102.425 144.917C102.483 145.106 100.473 145.827 97.9393 146.522C95.4053 147.218 93.3067 147.63 93.249 147.441C93.1913 147.253 95.2007 146.537 97.7294 145.837C100.258 145.136 102.367 144.729 102.425 144.917Z" fill="#FF9A6C"/>
<path d="M104.99 151.714C105.048 151.903 103.453 152.524 101.428 153.101C99.403 153.677 97.7137 153.995 97.6507 153.806C97.5878 153.617 99.1879 152.996 101.213 152.42C103.238 151.844 104.927 151.526 104.99 151.714Z" fill="#FF9A6C"/>
<path d="M107.288 157.364C107.325 157.572 105.877 157.86 104.172 158.268C102.467 158.675 101.15 159.262 101.024 159.053C100.898 158.844 102.152 158.034 103.962 157.562C105.772 157.09 107.288 157.185 107.288 157.364Z" fill="#FF9A6C"/>
<path d="M109.198 135.701C109.256 135.889 107.273 136.57 104.828 137.37C102.383 138.17 100.379 138.786 100.295 138.597C100.211 138.408 102.11 137.499 104.581 136.699C107.052 135.899 109.146 135.512 109.198 135.701Z" fill="#FF9A6C"/>
<path d="M127.356 139.293L160.035 150.502L158.12 171.743L122.146 158.01L127.356 139.293Z" fill="#FFBF9D"/>
<path d="M169.284 102.123C169.284 102.123 173.544 106.297 176.026 113.794C178.508 121.292 190.191 153.071 189.908 163.187C189.598 173.646 182.164 181.109 165.827 176.975C156.079 174.49 144.464 170.516 144.464 170.516L152.722 144.823L159.18 146.363L148.734 127.82L169.284 102.123Z" fill="#CA005D"/>
<path d="M161.808 114.276C161.871 114.316 157.349 120.412 151.714 127.895C146.08 135.378 141.463 141.405 141.39 141.345C141.316 141.285 145.849 135.209 151.484 127.726C157.118 120.243 161.745 114.231 161.808 114.276Z" fill="#263238"/>
<path d="M174.31 149.876C174.31 149.876 174.027 149.747 173.518 149.523C172.798 149.226 172.054 148.984 171.294 148.798C170.323 148.544 169.148 148.301 167.842 148.038L163.603 147.148C160.596 146.512 157.874 145.921 155.911 145.484L153.587 144.947C153.3 144.893 153.017 144.817 152.743 144.719C153.035 144.738 153.324 144.781 153.608 144.848L155.953 145.305C157.931 145.697 160.675 146.259 163.666 146.9L167.884 147.804C169.185 148.087 170.36 148.341 171.331 148.624C172.102 148.833 172.851 149.113 173.565 149.459C173.759 149.552 173.947 149.657 174.127 149.772C174.253 149.821 174.316 149.866 174.31 149.876Z" fill="#263238"/>
<path opacity="0.3" d="M182.663 150.994C182.557 150.384 182.298 149.806 181.908 149.311C181.517 148.815 181.006 148.416 180.417 148.147C179.234 147.622 177.963 147.299 176.661 147.193C170.785 146.433 164.851 146.199 158.928 146.01L159.453 146.234C166.771 147.513 173.933 149.489 180.832 152.132C181.018 152.232 181.223 152.296 181.436 152.321C181.648 152.346 181.864 152.33 182.07 152.276C182.294 152.144 182.471 151.951 182.577 151.722C182.683 151.493 182.713 151.239 182.663 150.994Z" fill="black"/>
</svg>
