<svg width="231" height="184" viewBox="0 0 231 184" fill="none" xmlns="http://www.w3.org/2000/svg">
<path d="M35.5878 97.37C38.8059 95.4253 42.2312 93.9545 45.7651 92.9476L47.8578 82.8691L64.8758 82.573L67.3239 92.5627C70.8874 93.4412 74.372 94.7936 77.6492 96.6296L86.2569 90.9931L98.5072 102.819L93.1767 111.614C95.1213 114.832 96.5921 118.258 97.599 121.791L107.678 123.884L107.974 140.902L97.984 143.35C97.1054 146.914 95.7531 150.388 93.917 153.676L99.5535 162.283L87.7278 174.533L78.9325 169.203C75.7145 171.148 72.2891 172.618 68.7552 173.625L66.6625 183.704L49.6445 184L47.1964 174C43.6329 173.122 40.1582 171.77 36.8711 169.933L28.2634 175.57L16.0132 163.764L21.3436 154.969C19.399 151.751 17.9183 148.325 16.9213 144.791L6.84277 142.699L6.54663 125.681L16.5363 123.233C17.4149 119.669 18.7672 116.194 20.6033 112.907L14.9668 104.3L26.7926 92.0494L35.5878 97.37ZM44.6595 120.044C37.6509 127.3 37.8582 138.859 45.1136 145.867C52.369 152.876 63.9282 152.669 70.9368 145.413C77.9453 138.158 77.7381 126.599 70.4827 119.59C63.2273 112.591 51.6681 112.789 44.6595 120.044Z" fill="#EFEFEF"/>
<path d="M119.494 8.85451C122.198 7.91674 124.992 7.36395 127.785 7.17639L130.954 0L143.688 2.48755L143.925 10.3253C146.442 11.5494 148.821 13.109 150.983 14.9944L158.297 12.1614L165.543 22.9309L160.173 28.6365C161.111 31.3412 161.664 34.1348 161.851 36.9283L169.027 40.097L166.54 52.8309L158.702 53.0678C157.478 55.585 155.918 57.9639 154.033 60.1159L156.866 67.4305L146.106 74.676L140.401 69.306C137.696 70.2438 134.903 70.7966 132.109 70.9841L128.94 78.1605L116.206 75.673L115.97 67.8352C113.452 66.6112 111.073 65.0515 108.912 63.1661L101.597 65.9991L94.3515 55.2296L99.7215 49.524C98.7837 46.8193 98.2309 44.0257 98.0433 41.2322L90.8669 38.0635L93.3545 25.3296L101.192 25.0927C102.416 22.5755 103.976 20.1966 105.861 18.0446L103.028 10.73L113.788 3.48455L119.494 8.85451ZM122.652 27.2051C116.276 31.4991 114.588 40.1562 118.882 46.533C123.176 52.9099 131.833 54.5979 138.209 50.3039C144.586 46.0099 146.274 37.3528 141.98 30.976C137.676 24.5991 129.029 22.9112 122.652 27.2051Z" fill="#EFEFEF"/>
<path d="M178.041 106.592L165.682 152.039L128.161 162.414C126.947 162.75 126.197 164.072 126.454 165.445L167.498 154.882L168.949 154.428L217.615 141.398L223.014 119.849L230.033 94.5789C230.546 93.039 229.273 91.4694 227.841 91.8643L179.344 105.181C178.712 105.348 178.209 105.891 178.041 106.592Z" fill="#9A9A9A"/>
<path d="M180.568 108.053L169.324 149.433L213.409 137.341L223.281 96.5531L180.568 108.053Z" fill="white"/>
<path d="M192.845 125.351C189.923 123.55 189.727 121.402 190.303 119.376C191.056 116.726 192.845 115.202 194.926 115.056C197.007 114.91 200.42 116.929 200.168 120.134C199.917 123.34 197.892 124.88 196.922 124.88C201.686 126.206 202.445 133.795 202.445 133.795L188.785 136.381C188.785 136.381 186.887 131.518 192.845 125.351Z" fill="#9A9A9A"/>
<path d="M227.841 91.8544C227.851 91.8544 227.841 91.9334 227.802 92.0913C227.762 92.2789 227.713 92.5059 227.644 92.7922C227.486 93.4338 227.279 94.3321 227.002 95.4673C226.41 97.8265 225.581 101.193 224.534 105.368C222.392 113.798 219.421 125.486 216.055 138.684L216.015 138.832L215.867 138.871C213.607 139.483 211.228 140.125 208.809 140.776C193.983 144.735 180.568 148.308 170.815 150.914C165.978 152.178 162.049 153.204 159.285 153.925C157.953 154.26 156.897 154.527 156.146 154.724C155.811 154.803 155.534 154.872 155.327 154.922C155.139 154.961 155.041 154.981 155.041 154.971C155.041 154.961 155.13 154.932 155.307 154.872C155.515 154.813 155.781 154.724 156.117 154.626C156.867 154.408 157.903 154.112 159.236 153.737C161.98 152.977 165.899 151.891 170.726 150.569C180.469 147.933 193.874 144.3 208.681 140.283C211.1 139.631 213.479 138.99 215.739 138.387L215.561 138.565C218.987 125.377 222.017 113.709 224.199 105.289C225.304 101.133 226.193 97.7772 226.815 95.4278C227.121 94.3025 227.367 93.4141 227.545 92.7724C227.624 92.496 227.693 92.269 227.743 92.0913C227.802 91.9334 227.831 91.8544 227.841 91.8544Z" fill="#9A9A9A"/>
<path d="M43.905 37.3196L43.0904 36.7971C42.5815 36.473 41.961 36.371 41.3753 36.5352L2.88602 47.0082C2.31295 47.1651 1.82497 47.5526 1.55448 48.0847L1.05356 49.0484C0.941602 49.264 0.863355 49.4973 0.831475 49.7411L5.76513 73.1505C5.97424 74.0343 6.27513 75.2141 7.30515 75.502C7.68375 75.6046 8.08285 75.608 8.4626 75.5014L47.3368 63.2176C48.1542 62.9879 48.7555 62.2931 48.8713 61.456L44.8742 39.4093C44.8742 39.4093 44.6107 37.7698 43.905 37.3196Z" fill="#9A9A9A"/>
<path d="M42.5828 38.8015L4.9052 49.0304C4.16203 49.2322 3.64416 49.7073 3.74851 50.0917L4.22085 51.8315C4.74206 53.2334 5.01225 52.3639 5.75542 52.1621L43.433 41.9332C44.1762 41.7314 44.3745 42.0909 44.2701 41.7066L44.1384 41.0634C44.1384 41.0634 43.9874 38.5188 42.5828 38.8015Z" fill="#C4C4C4"/>
<path d="M43.9784 40.4721L4.12523 51.531L8.97077 74.0926L47.9513 61.9531L43.9784 40.4721Z" fill="white"/>
<path d="M18.9524 50.1321L17.1586 50.577C16.9785 50.6216 16.8685 50.8029 16.9129 50.9818L17.1137 51.7917C17.1581 51.9706 17.3401 52.0794 17.5202 52.0347L19.3139 51.5899C19.494 51.5452 19.6041 51.3639 19.5597 51.185L19.3588 50.3751C19.3145 50.1962 19.1325 50.0874 18.9524 50.1321Z" fill="#C4C4C4"/>
<path d="M19.6753 53.0477L17.8815 53.4926C17.7014 53.5373 17.5914 53.7185 17.6358 53.8974L17.8366 54.7073C17.881 54.8862 18.063 54.9951 18.2431 54.9504L20.0368 54.5055C20.2169 54.4608 20.327 54.2796 20.2826 54.1007L20.0817 53.2908C20.0374 53.1119 19.8554 53.003 19.6753 53.0477Z" fill="#C4C4C4"/>
<path d="M20.3181 55.6393L18.5244 56.0842C18.3443 56.1289 18.2342 56.3101 18.2786 56.489L18.4795 57.2989C18.5238 57.4778 18.7058 57.5867 18.8859 57.542L20.6797 57.0971C20.8598 57.0524 20.9698 56.8712 20.9254 56.6923L20.7246 55.8824C20.6802 55.7035 20.4982 55.5946 20.3181 55.6393Z" fill="#C4C4C4"/>
<path d="M20.9612 58.231L19.1674 58.6759C18.9873 58.7206 18.8773 58.9018 18.9217 59.0807L19.1225 59.8906C19.1669 60.0695 19.3489 60.1784 19.529 60.1337L21.3227 59.6888C21.5028 59.6441 21.6129 59.4629 21.5685 59.284L21.3676 58.4741C21.3233 58.2952 21.1413 58.1863 20.9612 58.231Z" fill="#C4C4C4"/>
<path d="M29.7144 47.4628L20.5827 49.7276C20.4026 49.7723 20.2926 49.9536 20.3369 50.1325L20.5378 50.9424C20.5822 51.1213 20.7642 51.2301 20.9443 51.1854L30.0759 48.9206C30.256 48.8759 30.3661 48.6947 30.3217 48.5158L30.1208 47.7059C30.0765 47.527 29.8945 47.4181 29.7144 47.4628Z" fill="#C4C4C4"/>
<path d="M32.0682 49.974L21.3059 52.6432C21.1257 52.6879 21.0157 52.8692 21.0601 53.0481L21.261 53.858C21.3053 54.0369 21.4873 54.1457 21.6674 54.101L32.4297 51.4318C32.6098 51.3871 32.7199 51.2058 32.6755 51.0269L32.4746 50.217C32.4303 50.0381 32.2483 49.9293 32.0682 49.974Z" fill="#C4C4C4"/>
<path d="M28.4713 53.6171L21.9487 55.2348C21.7686 55.2795 21.6585 55.4608 21.7029 55.6397L21.9038 56.4496C21.9481 56.6285 22.1301 56.7373 22.3103 56.6926L28.8329 55.0749C29.013 55.0302 29.123 54.849 29.0786 54.6701L28.8778 53.8602C28.8334 53.6813 28.6514 53.5724 28.4713 53.6171Z" fill="#C4C4C4"/>
<path d="M29.1144 56.2088L22.5918 57.8266C22.4116 57.8712 22.3016 58.0525 22.346 58.2314L22.5468 59.0413C22.5912 59.2202 22.7732 59.329 22.9533 59.2844L29.4759 57.6666C29.656 57.6219 29.7661 57.4407 29.7217 57.2618L29.5208 56.4519C29.4765 56.273 29.2945 56.1641 29.1144 56.2088Z" fill="#C4C4C4"/>
<path d="M14.4254 57.1C15.1645 56.7009 15.839 55.133 15.4956 54.0525C15.0456 52.6396 14.0247 51.9838 12.7374 52.0161C11.4501 52.0483 10.2009 53.2381 10.3901 54.9586C10.5792 56.679 11.83 57.3107 12.6446 57.3107C9.70071 59.5066 10.8173 64.2631 10.8173 64.2631L18.2246 62.1732C18.2246 62.1732 18.1436 57.5492 14.4254 57.1Z" fill="#9A9A9A"/>
<path d="M42.6662 55.5566C42.9547 55.4008 43.218 54.7889 43.0839 54.3671C42.9083 53.8157 42.5098 53.5597 42.0074 53.5723C41.505 53.5849 41.0174 54.0493 41.0912 54.7208C41.165 55.3923 41.6532 55.6388 41.9712 55.6388C40.8222 56.4959 41.258 58.3524 41.258 58.3524L44.149 57.5367C44.149 57.5367 44.1175 55.7319 42.6662 55.5566Z" fill="#9A9A9A"/>
<path d="M60.0686 103.638C51.5398 98.7618 42.636 94.3099 33.0411 92.1876C31.6986 91.8914 30.3068 91.6348 28.9446 91.8421C27.5823 92.0494 26.23 92.7996 25.6377 94.0335C24.8184 95.7412 25.6081 97.7747 26.6544 99.3541C28.9643 102.829 32.4094 105.376 35.8939 107.676C45.4197 113.993 55.6561 119.136 65.8729 124.269C64.5798 117.014 62.033 110.755 60.0686 103.638Z" fill="#CA005D"/>
<path d="M125.436 122.423C128.22 131.84 131.586 141.218 137.045 149.382C137.815 150.527 138.634 151.672 139.769 152.461C140.894 153.251 142.385 153.646 143.678 153.162C145.445 152.501 146.284 150.477 146.62 148.612C147.36 144.505 146.62 140.28 145.702 136.213C143.185 125.069 139.345 114.27 135.515 103.5C131.418 109.65 128.94 115.928 125.436 122.423Z" fill="#CA005D"/>
<path d="M59.9402 103.451C59.9402 103.451 60.6114 168.7 97.2239 169.973C133.836 171.246 135.376 103.915 135.376 103.451C135.376 103.451 131.053 93.7176 97.6582 94.1026C64.2638 94.4777 59.9402 103.451 59.9402 103.451Z" fill="#CA005D"/>
<path d="M95.1213 35.6056C95.1213 35.6056 63.1977 35.2206 58.1436 62.8699C53.0896 90.5193 80.0874 91.0326 87.8561 91.5657C91.3801 91.8026 98.9119 91.8322 105.555 91.7137C120.273 91.4571 130.668 88.6142 134.211 74.9524C134.626 73.3631 134.902 71.7245 135.011 70.0661C135.939 55.0914 125.811 34.8652 95.1213 35.6056Z" fill="#CA005D"/>
<rect x="69" y="55" width="57" height="24" rx="12" fill="#91004B"/>
<path d="M81.5287 68.8124C81.2325 70.3425 79.742 71.3395 78.2119 71.0433C76.6819 70.7472 75.6849 69.2566 75.981 67.7266C76.2772 66.1966 77.7677 65.1996 79.2978 65.4957C80.8278 65.7918 81.8248 67.2824 81.5287 68.8124Z" fill="white"/>
<path d="M113.926 68.2991C113.63 69.8292 112.139 70.8262 110.609 70.53C109.079 70.2339 108.082 68.7433 108.378 67.2133C108.674 65.6832 110.165 64.6863 111.695 64.9824C113.235 65.2785 114.232 66.7691 113.926 68.2991Z" fill="white"/>
<path d="M80.9714 59.2292C79.9702 58.5014 78.9832 58.3424 77.9567 58.7407C77.4493 58.9262 76.992 59.2275 76.6213 59.6206C76.4653 59.7768 76.3753 59.9868 76.3697 60.2073C76.3729 60.3095 76.3989 60.4096 76.4458 60.5003C76.4928 60.5911 76.5596 60.6701 76.6412 60.7316C76.7156 60.8017 76.8039 60.8553 76.9005 60.8891C76.997 60.9229 77.0996 60.936 77.2016 60.9277C77.3036 60.9193 77.4027 60.8897 77.4926 60.8407C77.5825 60.7917 77.6612 60.7244 77.7235 60.6431C77.7622 60.6095 77.7981 60.5783 77.8224 60.5281C77.8485 60.5007 77.8772 60.4757 77.908 60.4537C78.0997 60.2374 78.3398 60.0695 78.6087 59.9637C78.8776 59.858 79.1676 59.8173 79.455 59.8451C79.734 59.891 80.0028 59.9851 80.2495 60.123L80.5887 60.3124C80.6956 60.3683 80.8187 60.3853 80.9369 60.3604C81.055 60.3354 81.1609 60.2701 81.2362 60.1757L81.2943 60.1252C81.3655 60.0268 81.3992 59.9061 81.3892 59.7851C81.3792 59.6641 81.3263 59.5508 81.2399 59.4655C81.1908 59.4153 81.1377 59.3692 81.0811 59.3275L80.9714 59.2292Z" fill="white"/>
<path d="M113.547 59.2292C112.545 58.5014 111.558 58.3424 110.532 58.7407C110.025 58.9262 109.567 59.2275 109.196 59.6206C109.041 59.7768 108.95 59.9868 108.945 60.2073C108.948 60.3095 108.974 60.4096 109.021 60.5003C109.068 60.5911 109.135 60.6701 109.216 60.7316C109.291 60.8017 109.379 60.8553 109.476 60.8891C109.572 60.9229 109.675 60.936 109.777 60.9277C109.879 60.9193 109.978 60.8897 110.068 60.8407C110.158 60.7917 110.236 60.7244 110.299 60.6431C110.337 60.6095 110.373 60.5783 110.398 60.5281C110.424 60.5007 110.452 60.4757 110.483 60.4537C110.675 60.2374 110.915 60.0695 111.184 59.9637C111.453 59.858 111.743 59.8173 112.03 59.8451C112.309 59.891 112.578 59.9851 112.825 60.123L113.164 60.3124C113.271 60.3683 113.394 60.3853 113.512 60.3604C113.63 60.3354 113.736 60.2701 113.811 60.1757L113.869 60.1252C113.941 60.0268 113.974 59.9061 113.964 59.7851C113.954 59.6641 113.901 59.5508 113.815 59.4655C113.766 59.4153 113.713 59.3692 113.656 59.3275L113.547 59.2292Z" fill="white"/>
<path d="M134 104.875C134 107.153 118.33 109 99 109C79.67 109 64 107.153 64 104.875C64 101.781 79.67 98 99 98C118.33 98 132.618 101.438 134 104.875Z" fill="#91004B"/>
<path d="M161.958 52.1189C162.896 50.5881 165.127 50.6376 165.997 52.2086L183.701 80.5019C184.57 82.0706 183.441 84 181.655 84H145.345C143.513 84 142.391 81.9802 143.352 80.4122L161.958 52.1189Z" fill="#FFA100"/>
<path d="M163.5 80C163.089 80 162.736 79.7546 162.442 79.2639C162.147 78.7731 162 78.1852 162 77.5C162 76.8148 162.147 76.2269 162.442 75.7361C162.736 75.2454 163.089 75 163.5 75C163.911 75 164.264 75.2454 164.558 75.7361C164.853 76.2269 165 76.8148 165 77.5C165 77.9537 164.931 78.3704 164.792 78.75C164.658 79.1296 164.478 79.4352 164.25 79.6667C164.028 79.8889 163.778 80 163.5 80Z" fill="white"/>
<path d="M164.779 73L165 63H162L162.221 73H164.779Z" fill="white"/>
<path d="M48.0494 63.6854V58.2543C48.0494 52.8033 43.5678 48.3691 38.0559 48.3691C32.5439 48.3691 28.0623 52.8022 28.0623 58.2543V63.6854H25.7168V80.4851C35.6174 86.3185 40.7691 86.4051 50.3949 80.4851V63.6854H48.0494ZM32.0034 58.2543C32.0034 54.9529 34.7172 52.2676 38.0559 52.2676C41.3945 52.2676 44.1083 54.9518 44.1083 58.2543V63.6854H32.0034V58.2543ZM40.6141 76.6302H35.4965L36.8724 72.5458C36.426 72.3289 36.0498 71.9928 35.786 71.5756C35.5225 71.1584 35.3818 70.6766 35.3805 70.1846C35.3805 69.4831 35.6621 68.8102 36.1636 68.3141C36.6651 67.8179 37.3454 67.5392 38.0548 67.5392C38.7641 67.5392 39.4441 67.8179 39.9457 68.3141C40.4472 68.8102 40.729 69.4831 40.729 70.1846C40.729 71.2228 40.1187 72.1114 39.2382 72.5458L40.6141 76.6302Z" fill="#CA005D"/>
</svg>
