<svg width="230" height="194" viewBox="0 0 230 194" fill="none" xmlns="http://www.w3.org/2000/svg">
<path d="M32.0001 105.64C35.2601 103.67 38.7301 102.18 42.3101 101.16L44.4301 90.95L61.6701 90.65L64.1501 100.77C67.7601 101.66 71.2901 103.03 74.6101 104.89L83.3301 99.18L95.7401 111.16L90.3401 120.07C92.3101 123.33 93.8001 126.8 94.8201 130.38L105.03 132.5L105.33 149.74L95.2101 152.22C94.3201 155.83 92.9501 159.35 91.0901 162.68L96.8001 171.4L84.8201 183.81L75.9101 178.41C72.6501 180.38 69.1801 181.87 65.6001 182.89L63.4801 193.1L46.2401 193.4L43.7601 183.27C40.1501 182.38 36.6301 181.01 33.3001 179.15L24.5801 184.86L12.1701 172.9L17.5701 163.99C15.6001 160.73 14.1001 157.26 13.0901 153.68L2.88008 151.56L2.58008 134.32L12.7001 131.84C13.5901 128.23 14.9601 124.71 16.8201 121.38L11.1101 112.66L23.0901 100.25L32.0001 105.64ZM41.1901 128.61C34.0901 135.96 34.3001 147.67 41.6501 154.77C49.0001 161.87 60.7101 161.66 67.8101 154.31C74.9101 146.96 74.7001 135.25 67.3501 128.15C60.0001 121.06 48.2901 121.26 41.1901 128.61Z" fill="#EFEFEF"/>
<path d="M117 15.97C119.74 15.02 122.57 14.46 125.4 14.27L128.61 7L141.51 9.52L141.75 17.46C144.3 18.7 146.71 20.28 148.9 22.19L156.31 19.32L163.65 30.23L158.21 36.01C159.16 38.75 159.72 41.58 159.91 44.41L167.18 47.62L164.66 60.52L156.72 60.76C155.48 63.31 153.9 65.72 151.99 67.9L154.86 75.31L143.96 82.65L138.18 77.21C135.44 78.16 132.61 78.72 129.78 78.91L126.57 86.18L113.67 83.66L113.43 75.72C110.88 74.48 108.47 72.9 106.28 70.99L98.87 73.86L91.53 62.95L96.97 57.17C96.02 54.43 95.46 51.6 95.27 48.77L88 45.56L90.52 32.66L98.46 32.42C99.7 29.87 101.28 27.46 103.19 25.28L100.32 17.87L111.22 10.53L117 15.97ZM120.2 34.56C113.74 38.91 112.03 47.68 116.38 54.14C120.73 60.6 129.5 62.31 135.96 57.96C142.42 53.61 144.13 44.84 139.78 38.38C135.42 31.92 126.66 30.21 120.2 34.56Z" fill="#EFEFEF"/>
<path d="M176.311 114.982L163.791 161.022L125.781 171.532C124.551 171.872 123.791 173.212 124.051 174.602L165.631 163.902L167.101 163.442L216.401 150.242L221.871 128.412L228.981 102.812C229.501 101.252 228.211 99.6625 226.761 100.062L177.631 113.552C176.991 113.722 176.481 114.272 176.311 114.982Z" fill="#9A9A9A"/>
<path d="M178.871 116.462L167.481 158.382L212.141 146.132L222.141 104.812L178.871 116.462Z" fill="white"/>
<path d="M190.845 133.351C187.923 131.55 187.727 129.401 188.303 127.376C189.056 124.726 190.845 123.202 192.926 123.056C195.007 122.91 198.42 124.929 198.168 128.134C197.917 131.34 195.892 132.88 194.922 132.88C199.686 134.206 200.445 141.795 200.445 141.795L186.785 144.381C186.785 144.381 184.887 139.518 190.845 133.351Z" fill="#9A9A9A"/>
<path d="M226.761 100.052C226.771 100.052 226.761 100.132 226.721 100.292C226.681 100.482 226.631 100.712 226.561 101.002C226.401 101.652 226.191 102.562 225.911 103.712C225.311 106.102 224.471 109.512 223.411 113.742C221.241 122.282 218.231 134.122 214.821 147.492L214.781 147.642L214.631 147.682C212.341 148.302 209.931 148.952 207.481 149.612C192.461 153.622 178.871 157.242 168.991 159.882C164.091 161.162 160.111 162.202 157.311 162.932C155.961 163.272 154.891 163.542 154.131 163.742C153.791 163.822 153.511 163.892 153.301 163.942C153.111 163.982 153.011 164.002 153.011 163.992C153.011 163.982 153.101 163.952 153.281 163.892C153.491 163.832 153.761 163.742 154.101 163.642C154.861 163.422 155.911 163.122 157.261 162.742C160.041 161.972 164.011 160.872 168.901 159.532C178.771 156.862 192.351 153.182 207.351 149.112C209.801 148.452 212.211 147.802 214.501 147.192L214.321 147.372C217.791 134.012 220.861 122.192 223.071 113.662C224.191 109.452 225.091 106.053 225.721 103.673C226.031 102.533 226.281 101.632 226.461 100.982C226.541 100.702 226.611 100.472 226.661 100.292C226.721 100.132 226.751 100.052 226.761 100.052Z" fill="#9A9A9A"/>
<path d="M0.98838 38.899L0.412962 39.6927C0.0558063 40.1887 -0.0830885 40.8105 0.0491915 41.4123L8.42252 80.9442C8.54818 81.5329 8.91195 82.0488 9.43446 82.353L10.3803 82.9152C10.5919 83.0409 10.8234 83.1335 11.0681 83.1798L32.5769 87.4127C33.6417 87.6244 34.6933 87.0159 35.0439 85.9907C35.1695 85.6137 35.196 85.2103 35.11 84.82L25.9827 43.8529C25.7975 43.0129 25.1295 42.3648 24.2895 42.1994L3.15777 38.0392C2.33102 37.8805 1.48443 38.2112 0.98838 38.899Z" fill="#9A9A9A"/>
<path d="M2.44336 38.7733L11.5707 79.8661L33.7144 84.2248L24.7392 43.1584L2.44336 38.7733Z" fill="white"/>
<path d="M24.6863 76.698L25.2948 76.6782C25.3676 76.6782 25.4337 76.6187 25.4469 76.5459L25.4734 76.4268C25.4734 76.4268 25.4866 76.2152 25.6851 76.2417C25.8239 76.2615 26.7036 76.4401 26.7036 76.4401C26.7036 76.4401 26.9351 76.4798 26.8954 76.665L26.8623 76.8369C26.8491 76.8964 26.8822 76.956 26.9351 76.989L27.5304 77.3065C27.5965 77.3396 27.6692 77.3197 27.7089 77.2602L27.828 77.0816C27.8478 77.0486 27.8677 77.0089 27.8677 76.9758C27.8809 76.8964 27.8743 76.7708 27.8148 76.665C27.7222 76.4798 27.2063 75.9837 26.062 75.8117C24.9774 75.653 24.6533 76.0565 24.5673 76.1557C24.5144 76.2152 24.4747 76.3805 24.4879 76.4533C24.4945 76.4798 24.5011 76.5261 24.5144 76.5724C24.5342 76.6451 24.607 76.7046 24.6863 76.698Z" fill="white"/>
<path d="M19.1967 57.8547C20.169 57.5108 20.7312 56.4393 20.5195 55.0636C20.2418 53.2646 18.747 51.6309 17.1795 51.4259C15.612 51.2209 14.5736 52.5106 14.8513 54.3162C15.0696 55.7052 16.0088 56.9817 17.1398 57.5968C12.9068 57.7555 13.9254 62.8946 13.9254 62.8946L24.8186 65.0375C24.8186 65.0375 23.6215 59.1048 19.1967 57.8547Z" fill="#9A9A9A"/>
<path d="M56.8 111.99C48.16 107.05 39.1399 102.54 29.4199 100.39C28.0599 100.09 26.6499 99.83 25.2699 100.04C23.8899 100.25 22.5199 101.01 21.9199 102.26C21.0899 103.99 21.8899 106.05 22.9499 107.65C25.2899 111.17 28.7799 113.75 32.3099 116.08C41.9599 122.48 52.33 127.69 62.68 132.89C61.37 125.54 58.79 119.2 56.8 111.99Z" fill="#CA005D"/>
<path d="M123.02 131.02C125.84 140.56 129.25 150.06 134.78 158.33C135.56 159.49 136.39 160.65 137.54 161.45C138.68 162.25 140.19 162.65 141.5 162.16C143.29 161.49 144.14 159.44 144.48 157.55C145.23 153.39 144.48 149.11 143.55 144.99C141 133.7 137.11 122.76 133.23 111.85C129.08 118.08 126.57 124.44 123.02 131.02Z" fill="#CA005D"/>
<path d="M56.6699 111.8C56.6699 111.8 57.3499 177.9 94.4399 179.19C131.53 180.48 133.09 112.27 133.09 111.8C133.09 111.8 128.71 101.94 94.8799 102.33C61.0499 102.71 56.6699 111.8 56.6699 111.8Z" fill="#CA005D"/>
<path d="M92.31 43.07C92.31 43.07 59.97 42.68 54.85 70.69C49.73 98.7 77.08 99.22 84.95 99.76C88.52 100 96.15 100.03 102.88 99.91C117.79 99.65 128.32 96.77 131.91 82.93C132.33 81.32 132.61 79.66 132.72 77.98C133.66 62.81 123.4 42.32 92.31 43.07Z" fill="#CA005D"/>
<rect x="65" y="62" width="57" height="24" rx="12" fill="#91004B"/>
<path d="M78.5399 76.71C78.2399 78.26 76.7299 79.27 75.1799 78.97C73.6299 78.67 72.6199 77.16 72.9199 75.61C73.2199 74.06 74.7299 73.05 76.2799 73.35C77.8299 73.65 78.8399 75.16 78.5399 76.71Z" fill="white"/>
<path d="M111.36 76.19C111.06 77.74 109.55 78.75 108 78.45C106.45 78.15 105.44 76.64 105.74 75.09C106.04 73.54 107.55 72.53 109.1 72.83C110.66 73.13 111.67 74.64 111.36 76.19Z" fill="white"/>
<path d="M77.9754 67.0017C76.9611 66.2645 75.9613 66.1034 74.9214 66.5069C74.4074 66.6948 73.9441 67 73.5686 67.3983C73.4105 67.5565 73.3193 67.7692 73.3137 67.9926C73.3169 68.0961 73.3432 68.1976 73.3908 68.2895C73.4384 68.3814 73.506 68.4615 73.5887 68.5237C73.6641 68.5947 73.7536 68.6491 73.8514 68.6833C73.9492 68.7175 74.0531 68.7308 74.1564 68.7224C74.2597 68.7139 74.3602 68.6839 74.4513 68.6342C74.5423 68.5846 74.622 68.5164 74.6851 68.4341C74.7243 68.4 74.7607 68.3684 74.7853 68.3176C74.8118 68.2898 74.8408 68.2645 74.8721 68.2422C75.0663 68.0231 75.3095 67.853 75.5819 67.7459C75.8543 67.6387 76.1481 67.5975 76.4392 67.6257C76.7219 67.6722 76.9942 67.7675 77.2441 67.9072L77.5877 68.099C77.696 68.1557 77.8207 68.1729 77.9404 68.1477C78.0601 68.1224 78.1674 68.0562 78.2437 67.9606L78.3025 67.9095C78.3746 67.8097 78.4088 67.6875 78.3987 67.5649C78.3886 67.4423 78.3349 67.3275 78.2474 67.2412C78.1976 67.1903 78.1438 67.1435 78.0865 67.1014L77.9754 67.0017Z" fill="white"/>
<path d="M76.2653 1.19345L75.4401 0.664131C74.9245 0.335785 74.2959 0.232499 73.7026 0.398819L34.7113 11.0084C34.1307 11.1674 33.6364 11.5599 33.3624 12.0989L32.8549 13.0752C32.7415 13.2936 32.6622 13.53 32.6299 13.777L37.6279 37.4917C37.8398 38.387 38.1446 39.5822 39.1881 39.8738C39.5716 39.9778 39.9759 39.9813 40.3606 39.8732L79.7419 27.4292C80.57 27.1965 81.1791 26.4927 81.2963 25.6446L77.2471 3.31039C77.2471 3.31039 76.9802 1.64954 76.2653 1.19345Z" fill="#9A9A9A"/>
<path d="M74.9258 2.69459L36.7567 13.057C36.0039 13.2614 35.4792 13.7427 35.585 14.1321L36.0635 15.8946C36.5915 17.3148 36.8652 16.4339 37.618 16.2295L75.7871 5.86715C76.5399 5.66275 76.7408 6.02696 76.6351 5.63759L76.5017 4.98602C76.5017 4.98602 76.3487 2.40821 74.9258 2.69459Z" fill="#C4C4C4"/>
<path d="M76.3398 4.38706L35.9668 15.5903L40.8755 38.4461L80.3645 26.1483L76.3398 4.38706Z" fill="white"/>
<path d="M50.9871 14.173L49.17 14.6237C48.9875 14.6689 48.876 14.8525 48.921 15.0338L49.1245 15.8542C49.1694 16.0355 49.3538 16.1457 49.5363 16.1005L51.3534 15.6498C51.5358 15.6045 51.6473 15.4209 51.6024 15.2397L51.3989 14.4192C51.3539 14.238 51.1696 14.1277 50.9871 14.173Z" fill="#C4C4C4"/>
<path d="M51.7195 17.1267L49.9024 17.5774C49.7199 17.6226 49.6085 17.8062 49.6534 17.9875L49.8569 18.8079C49.9019 18.9892 50.0862 19.0994 50.2687 19.0542L52.0858 18.6035C52.2683 18.5583 52.3797 18.3746 52.3348 18.1934L52.1313 17.3729C52.0863 17.1917 51.902 17.0814 51.7195 17.1267Z" fill="#C4C4C4"/>
<path d="M52.3709 19.7521L50.5538 20.2028C50.3713 20.248 50.2598 20.4316 50.3048 20.6129L50.5083 21.4333C50.5532 21.6146 50.7376 21.7248 50.9201 21.6796L52.7372 21.2289C52.9196 21.1836 53.0311 21 52.9862 20.8188L52.7827 19.9983C52.7377 19.8171 52.5533 19.7068 52.3709 19.7521Z" fill="#C4C4C4"/>
<path d="M53.022 22.3776L51.2049 22.8283C51.0224 22.8735 50.911 23.0571 50.9559 23.2384L51.1594 24.0588C51.2043 24.2401 51.3887 24.3503 51.5712 24.3051L53.3883 23.8544C53.5708 23.8091 53.6822 23.6255 53.6373 23.4443L53.4338 22.6238C53.3888 22.4426 53.2045 22.3323 53.022 22.3776Z" fill="#C4C4C4"/>
<path d="M61.8897 11.4689L52.639 13.7633C52.4565 13.8086 52.345 13.9922 52.39 14.1734L52.5935 14.9939C52.6384 15.1751 52.8228 15.2854 53.0053 15.2401L62.256 12.9458C62.4385 12.9005 62.5499 12.7169 62.505 12.5356L62.3015 11.7152C62.2566 11.5339 62.0722 11.4237 61.8897 11.4689Z" fill="#C4C4C4"/>
<path d="M64.2741 14.0129L53.3714 16.717C53.1889 16.7622 53.0775 16.9458 53.1224 17.1271L53.3259 17.9475C53.3709 18.1288 53.5552 18.239 53.7377 18.1938L64.6403 15.4897C64.8228 15.4444 64.9343 15.2608 64.8893 15.0796L64.6858 14.2591C64.6409 14.0779 64.4565 13.9676 64.2741 14.0129Z" fill="#C4C4C4"/>
<path d="M60.6304 17.7035L54.0228 19.3424C53.8403 19.3876 53.7288 19.5712 53.7738 19.7525L53.9773 20.5729C54.0222 20.7542 54.2066 20.8644 54.389 20.8192L60.9967 19.1803C61.1792 19.1351 61.2907 18.9515 61.2457 18.7702L61.0422 17.9498C60.9973 17.7685 60.8129 17.6583 60.6304 17.7035Z" fill="#C4C4C4"/>
<path d="M61.2816 20.329L54.6739 21.9678C54.4914 22.0131 54.3799 22.1967 54.4249 22.378L54.6284 23.1984C54.6733 23.3797 54.8577 23.4899 55.0402 23.4447L61.6478 21.8058C61.8303 21.7606 61.9418 21.5769 61.8968 21.3957L61.6933 20.5752C61.6484 20.394 61.464 20.2838 61.2816 20.329Z" fill="#C4C4C4"/>
<path d="M46.4012 21.2319C47.15 20.8275 47.8333 19.2392 47.4853 18.1446C47.0295 16.7133 45.9954 16.0489 44.6912 16.0816C43.3871 16.1143 42.1216 17.3196 42.3132 19.0625C42.5049 20.8054 43.772 21.4453 44.5972 21.4453C41.6149 23.6698 42.746 28.4884 42.746 28.4884L50.2499 26.3712C50.2499 26.3712 50.168 21.6869 46.4012 21.2319Z" fill="#9A9A9A"/>
<path d="M75.0103 19.6683C75.3026 19.5105 75.5693 18.8905 75.4335 18.4633C75.2556 17.9047 74.8519 17.6454 74.3429 17.6581C73.8339 17.6709 73.34 18.1413 73.4148 18.8216C73.4896 19.5018 73.9842 19.7516 74.3062 19.7516C73.1422 20.6198 73.5837 22.5005 73.5837 22.5005L76.5125 21.6742C76.5125 21.6742 76.4805 19.8459 75.0103 19.6683Z" fill="#9A9A9A"/>
<path d="M110.975 67.0017C109.961 66.2645 108.961 66.1034 107.921 66.5069C107.407 66.6948 106.944 67 106.569 67.3983C106.411 67.5565 106.319 67.7692 106.314 67.9926C106.317 68.0961 106.343 68.1976 106.391 68.2895C106.438 68.3814 106.506 68.4615 106.589 68.5237C106.664 68.5947 106.754 68.6491 106.851 68.6833C106.949 68.7175 107.053 68.7308 107.156 68.7224C107.26 68.7139 107.36 68.6839 107.451 68.6342C107.542 68.5846 107.622 68.5164 107.685 68.4341C107.724 68.4 107.761 68.3684 107.785 68.3176C107.812 68.2898 107.841 68.2645 107.872 68.2422C108.066 68.0231 108.31 67.853 108.582 67.7459C108.854 67.6387 109.148 67.5975 109.439 67.6257C109.722 67.6722 109.994 67.7675 110.244 67.9072L110.588 68.099C110.696 68.1557 110.821 68.1729 110.94 68.1477C111.06 68.1224 111.167 68.0562 111.244 67.9606L111.302 67.9095C111.375 67.8097 111.409 67.6875 111.399 67.5649C111.389 67.4423 111.335 67.3275 111.247 67.2412C111.198 67.1903 111.144 67.1435 111.087 67.1014L110.975 67.0017Z" fill="white"/>
<path d="M130 111.875C130 114.153 114.33 116 95 116C75.67 116 60 114.153 60 111.875C60 108.781 75.67 105 95 105C114.33 105 128.618 108.438 130 111.875Z" fill="#91004B"/>
<path d="M157.958 59.1189C158.896 57.5881 161.127 57.6376 161.997 59.2086L179.701 87.5019C180.57 89.0706 179.441 91 177.655 91H141.345C139.513 91 138.391 88.9802 139.352 87.4122L157.958 59.1189Z" fill="#FFA100"/>
<path d="M159.5 87C159.089 87 158.736 86.7546 158.442 86.2639C158.147 85.7731 158 85.1852 158 84.5C158 83.8148 158.147 83.2269 158.442 82.7361C158.736 82.2454 159.089 82 159.5 82C159.911 82 160.264 82.2454 160.558 82.7361C160.853 83.2269 161 83.8148 161 84.5C161 84.9537 160.931 85.3704 160.792 85.75C160.658 86.1296 160.478 86.4352 160.25 86.6667C160.028 86.8889 159.778 87 159.5 87Z" fill="white"/>
<path d="M160.779 80L161 70H158L158.221 80H160.779Z" fill="white"/>
</svg>
