<svg width="229" height="184" viewBox="0 0 229 184" fill="none" xmlns="http://www.w3.org/2000/svg">
<path d="M33.5878 97.37C36.8059 95.4253 40.2312 93.9545 43.7651 92.9476L45.8578 82.8691L62.8758 82.573L65.3239 92.5627C68.8874 93.4412 72.372 94.7936 75.6492 96.6296L84.2569 90.9931L96.5072 102.819L91.1767 111.614C93.1213 114.832 94.5921 118.258 95.599 121.791L105.678 123.884L105.974 140.902L95.984 143.35C95.1054 146.914 93.7531 150.388 91.917 153.676L97.5535 162.283L85.7278 174.533L76.9325 169.203C73.7145 171.148 70.2891 172.618 66.7552 173.625L64.6625 183.704L47.6445 184L45.1964 174C41.6329 173.122 38.1582 171.77 34.8711 169.933L26.2634 175.57L14.0132 163.764L19.3436 154.969C17.399 151.751 15.9183 148.325 14.9213 144.791L4.84277 142.699L4.54663 125.681L14.5363 123.233C15.4149 119.669 16.7672 116.194 18.6033 112.907L12.9668 104.3L24.7926 92.0494L33.5878 97.37ZM42.6595 120.044C35.6509 127.3 35.8582 138.859 43.1136 145.867C50.369 152.876 61.9282 152.669 68.9368 145.413C75.9453 138.158 75.7381 126.599 68.4827 119.59C61.2273 112.591 49.6681 112.789 42.6595 120.044Z" fill="#EFEFEF"/>
<path d="M117.494 8.85451C120.198 7.91674 122.992 7.36395 125.785 7.17639L128.954 0L141.688 2.48755L141.925 10.3253C144.442 11.5494 146.821 13.109 148.983 14.9944L156.297 12.1614L163.543 22.9309L158.173 28.6365C159.111 31.3412 159.664 34.1348 159.851 36.9283L167.027 40.097L164.54 52.8309L156.702 53.0678C155.478 55.585 153.918 57.9639 152.033 60.1159L154.866 67.4305L144.106 74.676L138.401 69.306C135.696 70.2438 132.903 70.7966 130.109 70.9841L126.94 78.1605L114.206 75.673L113.97 67.8352C111.452 66.6112 109.073 65.0515 106.912 63.1661L99.597 65.9991L92.3515 55.2296L97.7215 49.524C96.7837 46.8193 96.2309 44.0257 96.0433 41.2322L88.8669 38.0635L91.3545 25.3296L99.1923 25.0927C100.416 22.5755 101.976 20.1966 103.861 18.0446L101.028 10.73L111.788 3.48455L117.494 8.85451ZM120.652 27.2051C114.276 31.4991 112.588 40.1562 116.882 46.533C121.176 52.9099 129.833 54.5979 136.209 50.3039C142.586 46.0099 144.274 37.3528 139.98 30.976C135.676 24.5991 127.029 22.9112 120.652 27.2051Z" fill="#EFEFEF"/>
<path d="M176.041 106.592L163.682 152.039L126.161 162.414C124.947 162.75 124.197 164.072 124.454 165.445L165.498 154.882L166.949 154.428L215.615 141.398L221.014 119.849L228.033 94.5789C228.546 93.039 227.272 91.4694 225.841 91.8643L177.344 105.181C176.712 105.348 176.209 105.891 176.041 106.592Z" fill="#9A9A9A"/>
<path d="M178.568 108.053L167.324 149.433L211.409 137.341L221.281 96.5531L178.568 108.053Z" fill="white"/>
<path d="M190.845 125.351C187.923 123.55 187.727 121.402 188.303 119.376C189.056 116.726 190.845 115.202 192.926 115.056C195.007 114.91 198.42 116.929 198.168 120.134C197.917 123.34 195.892 124.88 194.922 124.88C199.686 126.206 200.445 133.795 200.445 133.795L186.785 136.381C186.785 136.381 184.887 131.518 190.845 125.351Z" fill="#9A9A9A"/>
<path d="M225.841 91.8544C225.851 91.8544 225.841 91.9334 225.802 92.0913C225.762 92.2789 225.713 92.5059 225.644 92.7922C225.486 93.4338 225.279 94.3321 225.002 95.4673C224.41 97.8265 223.581 101.193 222.534 105.368C220.392 113.798 217.421 125.486 214.055 138.684L214.015 138.832L213.867 138.871C211.607 139.483 209.228 140.125 206.809 140.776C191.983 144.735 178.568 148.308 168.815 150.914C163.978 152.178 160.049 153.204 157.285 153.925C155.953 154.26 154.897 154.527 154.146 154.724C153.811 154.803 153.534 154.872 153.327 154.922C153.139 154.961 153.041 154.981 153.041 154.971C153.041 154.961 153.13 154.932 153.307 154.872C153.515 154.813 153.781 154.724 154.117 154.626C154.867 154.408 155.903 154.112 157.236 153.737C159.98 152.977 163.899 151.891 168.726 150.569C178.469 147.933 191.874 144.3 206.681 140.283C209.1 139.631 211.479 138.99 213.739 138.387L213.561 138.565C216.987 125.377 220.017 113.709 222.199 105.289C223.304 101.133 224.193 97.7772 224.815 95.4278C225.121 94.3025 225.367 93.4141 225.545 92.7724C225.624 92.496 225.693 92.269 225.743 92.0913C225.802 91.9334 225.831 91.8544 225.841 91.8544Z" fill="#9A9A9A"/>
<path d="M66.5936 123.208C63.1688 132.416 59.184 141.539 53.1762 149.315C52.3351 150.402 51.4308 151.491 50.252 152.205C49.0732 152.918 47.5542 153.208 46.3089 152.64C44.5858 151.854 43.8895 149.787 43.6811 147.904C43.2287 143.756 44.2425 139.593 45.4446 135.595C48.7117 124.641 53.2771 114.135 57.8336 103.648C61.4887 110.048 63.5425 116.485 66.5936 123.208Z" fill="#CA005D"/>
<path d="M123.436 122.423C126.22 131.84 129.586 141.218 135.045 149.382C135.815 150.527 136.634 151.672 137.769 152.461C138.894 153.251 140.385 153.646 141.678 153.162C143.445 152.501 144.284 150.477 144.62 148.612C145.36 144.505 144.62 140.28 143.702 136.213C141.185 125.069 137.345 114.27 133.515 103.5C129.418 109.65 126.94 115.928 123.436 122.423Z" fill="#CA005D"/>
<path d="M57.9402 103.451C57.9402 103.451 58.6114 168.7 95.2239 169.973C131.836 171.246 133.376 103.915 133.376 103.451C133.376 103.451 129.053 93.7176 95.6582 94.1026C62.2638 94.4777 57.9402 103.451 57.9402 103.451Z" fill="#CA005D"/>
<path d="M132 104.875C132 107.153 116.33 109 97 109C77.67 109 62 107.153 62 104.875C62 101.781 77.67 98 97 98C116.33 98 130.618 101.438 132 104.875Z" fill="#91004B"/>
<path d="M159.958 52.1189C160.896 50.5881 163.127 50.6376 163.997 52.2086L181.701 80.5019C182.57 82.0706 181.441 84 179.655 84H143.345C141.513 84 140.391 81.9802 141.352 80.4122L159.958 52.1189Z" fill="#FFA100"/>
<path d="M161.5 80C161.089 80 160.736 79.7546 160.442 79.2639C160.147 78.7731 160 78.1852 160 77.5C160 76.8148 160.147 76.2269 160.442 75.7361C160.736 75.2454 161.089 75 161.5 75C161.911 75 162.264 75.2454 162.558 75.7361C162.853 76.2269 163 76.8148 163 77.5C163 77.9537 162.931 78.3704 162.792 78.75C162.658 79.1296 162.478 79.4352 162.25 79.6667C162.028 79.8889 161.778 80 161.5 80Z" fill="white"/>
<path d="M162.779 73L163 63H160L160.221 73H162.779Z" fill="white"/>
<path d="M43.7211 77.1867L42.9066 76.6642C42.3977 76.34 41.7771 76.2381 41.1914 76.4023L2.70218 86.8753C2.12911 87.0322 1.64113 87.4197 1.37064 87.9517L0.869721 88.9154C0.757764 89.131 0.679517 89.3644 0.647637 89.6081L5.58129 113.018C5.7904 113.901 6.09129 115.081 7.12131 115.369C7.49991 115.472 7.89901 115.475 8.27876 115.368L47.153 103.085C47.9704 102.855 48.5717 102.16 48.6874 101.323L44.6904 79.2763C44.6904 79.2763 44.4269 77.6369 43.7211 77.1867Z" fill="#9A9A9A"/>
<path d="M42.3989 78.6685L4.72136 88.8974C3.97819 89.0992 3.46032 89.5743 3.56467 89.9587L4.03701 91.6985C4.55823 93.1004 4.82841 92.2309 5.57158 92.0291L43.2492 81.8002C43.9923 81.5984 44.1906 81.9579 44.0863 81.5736L43.9546 80.9304C43.9546 80.9304 43.8036 78.3858 42.3989 78.6685Z" fill="#C4C4C4"/>
<path d="M43.7947 80.3391L3.94152 91.3981L8.78706 113.96L47.7676 101.82L43.7947 80.3391Z" fill="white"/>
<path d="M18.7685 89.9991L16.9748 90.444C16.7947 90.4886 16.6847 90.6699 16.729 90.8488L16.9299 91.6587C16.9743 91.8376 17.1563 91.9464 17.3364 91.9018L19.1301 91.4569C19.3102 91.4122 19.4202 91.2309 19.3759 91.052L19.175 90.2421C19.1306 90.0632 18.9486 89.9544 18.7685 89.9991Z" fill="#C4C4C4"/>
<path d="M19.4914 92.9148L17.6977 93.3596C17.5176 93.4043 17.4076 93.5856 17.4519 93.7645L17.6528 94.5744C17.6972 94.7533 17.8792 94.8621 18.0593 94.8174L19.853 94.3726C20.0331 94.3279 20.1431 94.1466 20.0988 93.9677L19.8979 93.1578C19.8535 92.9789 19.6715 92.8701 19.4914 92.9148Z" fill="#C4C4C4"/>
<path d="M20.1342 95.5063L18.3405 95.9512C18.1604 95.9959 18.0504 96.1771 18.0948 96.3561L18.2956 97.1659C18.34 97.3449 18.522 97.4537 18.7021 97.409L20.4958 96.9641C20.6759 96.9195 20.786 96.7382 20.7416 96.5593L20.5407 95.7494C20.4964 95.5705 20.3144 95.4617 20.1342 95.5063Z" fill="#C4C4C4"/>
<path d="M20.7773 98.098L18.9836 98.5429C18.8035 98.5876 18.6934 98.7688 18.7378 98.9478L18.9387 99.7577C18.9831 99.9366 19.165 100.045 19.3452 100.001L21.1389 99.5558C21.319 99.5112 21.429 99.3299 21.3847 99.151L21.1838 98.3411C21.1394 98.1622 20.9574 98.0534 20.7773 98.098Z" fill="#C4C4C4"/>
<path d="M29.5305 87.3298L20.3989 89.5947C20.2188 89.6394 20.1087 89.8206 20.1531 89.9995L20.354 90.8094C20.3983 90.9883 20.5803 91.0972 20.7604 91.0525L29.8921 88.7876C30.0722 88.743 30.1822 88.5617 30.1379 88.3828L29.937 87.5729C29.8926 87.394 29.7106 87.2852 29.5305 87.3298Z" fill="#C4C4C4"/>
<path d="M31.8843 89.841L21.122 92.5103C20.9419 92.555 20.8319 92.7362 20.8762 92.9151L21.0771 93.725C21.1215 93.9039 21.3035 94.0128 21.4836 93.9681L32.2459 91.2988C32.426 91.2542 32.536 91.0729 32.4917 90.894L32.2908 90.0841C32.2464 89.9052 32.0644 89.7964 31.8843 89.841Z" fill="#C4C4C4"/>
<path d="M28.2875 93.4841L21.7649 95.1019C21.5847 95.1466 21.4747 95.3278 21.5191 95.5067L21.7199 96.3166C21.7643 96.4955 21.9463 96.6044 22.1264 96.5597L28.649 94.9419C28.8291 94.8973 28.9392 94.716 28.8948 94.5371L28.6939 93.7272C28.6496 93.5483 28.4676 93.4395 28.2875 93.4841Z" fill="#C4C4C4"/>
<path d="M28.9305 96.0759L22.4079 97.6936C22.2278 97.7383 22.1178 97.9195 22.1621 98.0984L22.363 98.9083C22.4074 99.0872 22.5894 99.1961 22.7695 99.1514L29.2921 97.5336C29.4722 97.489 29.5822 97.3077 29.5379 97.1288L29.337 96.3189C29.2926 96.14 29.1106 96.0312 28.9305 96.0759Z" fill="#C4C4C4"/>
<path d="M14.2415 96.9671C14.9807 96.568 15.6552 95 15.3117 93.9195C14.8618 92.5067 13.8409 91.8509 12.5536 91.8831C11.2663 91.9154 10.0171 93.1052 10.2062 94.8256C10.3954 96.5461 11.6462 97.1778 12.4608 97.1778C9.51687 99.3736 10.6334 104.13 10.6334 104.13L18.0407 102.04C18.0407 102.04 17.9598 97.4163 14.2415 96.9671Z" fill="#9A9A9A"/>
<path d="M42.4824 95.4236C42.7709 95.2679 43.0341 94.6559 42.9001 94.2342C42.7244 93.6827 42.326 93.4268 41.8236 93.4394C41.3211 93.4519 40.8335 93.9163 40.9074 94.5878C40.9812 95.2593 41.4694 95.5059 41.7873 95.5059C40.6383 96.3629 41.0741 98.2194 41.0741 98.2194L43.9652 97.4037C43.9652 97.4037 43.9336 95.599 42.4824 95.4236Z" fill="#9A9A9A"/>
<path d="M105.25 40.4741C105.25 40.4741 74.2584 31.2233 61.6476 56.7526C49.0368 82.2818 75.1939 90.2881 82.6135 92.9673C85.9805 94.1779 93.3093 96.3008 99.8138 98.0325C114.223 101.875 125.139 101.995 132.389 89.6718C133.235 88.2389 133.96 86.7195 134.527 85.1342C139.594 70.8047 135.352 48.2856 105.25 40.4741Z" fill="#CA005D"/>
<rect x="73.793" y="51.182" width="57" height="24" rx="12" transform="rotate(15.9293 73.793 51.182)" fill="#91004B"/>
<path d="M87.7497 67.6441L91.2879 65.6822C91.4429 65.596 91.5574 65.4518 91.6061 65.2812C91.6547 65.1106 91.6337 64.9277 91.5475 64.7727C91.4613 64.6176 91.3171 64.5032 91.1465 64.4545C90.976 64.4058 90.7931 64.4269 90.6381 64.5131L87.1044 66.4833L85.143 62.9448C85.0568 62.7897 84.9126 62.6753 84.7421 62.6266C84.5715 62.5779 84.3886 62.599 84.2336 62.6852C84.0786 62.7714 83.9641 62.9156 83.9154 63.0862C83.8667 63.2568 83.8878 63.4397 83.974 63.5948L85.9436 67.1287L82.4054 69.0906C82.3284 69.133 82.2605 69.1902 82.2057 69.259C82.1509 69.3278 82.1103 69.4067 82.0862 69.4913C82.062 69.5759 82.0549 69.6644 82.0651 69.7517C82.0754 69.839 82.1028 69.9235 82.1458 70.0002C82.1882 70.0772 82.2454 70.1451 82.3142 70.1998C82.383 70.2546 82.4619 70.2953 82.5465 70.3194C82.631 70.3435 82.7195 70.3507 82.8068 70.3404C82.8941 70.3302 82.9786 70.3028 83.0552 70.2597L86.5889 68.2896L88.5503 71.8281C88.5927 71.9051 88.6499 71.973 88.7187 72.0278C88.7875 72.0826 88.8664 72.1232 88.9509 72.1473C89.0355 72.1714 89.124 72.1786 89.2113 72.1684C89.2986 72.1581 89.3831 72.1307 89.4597 72.0876C89.5368 72.0452 89.6046 71.988 89.6594 71.9192C89.7142 71.8504 89.7548 71.7715 89.779 71.6869C89.8031 71.6024 89.8103 71.5139 89.8 71.4265C89.7898 71.3392 89.7624 71.2547 89.7193 71.1781L87.7497 67.6441Z" fill="white"/>
<path d="M111.79 74.5054L115.328 72.5434C115.483 72.4572 115.597 72.313 115.646 72.1424C115.695 71.9718 115.674 71.7889 115.588 71.6339C115.501 71.4788 115.357 71.3644 115.187 71.3157C115.016 71.267 114.833 71.2881 114.678 71.3743L111.144 73.3445L109.183 69.806C109.097 69.6509 108.953 69.5365 108.782 69.4878C108.612 69.4391 108.429 69.4602 108.274 69.5464C108.119 69.6326 108.004 69.7769 107.955 69.9474C107.907 70.118 107.928 70.3009 108.014 70.456L109.984 73.9899L106.445 75.9518C106.368 75.9942 106.301 76.0515 106.246 76.1202C106.191 76.189 106.15 76.268 106.126 76.3525C106.102 76.4371 106.095 76.5256 106.105 76.6129C106.115 76.7002 106.143 76.7847 106.186 76.8614C106.228 76.9384 106.285 77.0063 106.354 77.0611C106.423 77.1158 106.502 77.1565 106.586 77.1806C106.671 77.2047 106.76 77.2119 106.847 77.2016C106.934 77.1914 107.019 77.164 107.095 77.1209L110.629 75.1508L112.59 78.6893C112.633 78.7663 112.69 78.8342 112.759 78.889C112.827 78.9438 112.906 78.9844 112.991 79.0085C113.076 79.0327 113.164 79.0398 113.251 79.0296C113.339 79.0193 113.423 78.9919 113.5 78.9488C113.577 78.9064 113.645 78.8492 113.699 78.7804C113.754 78.7116 113.795 78.6327 113.819 78.5481C113.843 78.4636 113.85 78.3751 113.84 78.2877C113.83 78.2004 113.802 78.1159 113.759 78.0393L111.79 74.5054Z" fill="white"/>
</svg>
