<svg width="227" height="191" viewBox="0 0 227 191" fill="none" xmlns="http://www.w3.org/2000/svg">
<path d="M31.5878 104.37C34.8059 102.425 38.2312 100.955 41.7651 99.9476L43.8578 89.8691L60.8758 89.573L63.3239 99.5627C66.8874 100.441 70.372 101.794 73.6492 103.63L82.2569 97.9931L94.5072 109.819L89.1767 118.614C91.1213 121.832 92.5921 125.258 93.599 128.791L103.678 130.884L103.974 147.902L93.984 150.35C93.1054 153.914 91.7531 157.388 89.917 160.676L95.5535 169.283L83.7278 181.533L74.9325 176.203C71.7145 178.148 68.2891 179.618 64.7552 180.625L62.6625 190.704L45.6445 191L43.1964 181C39.6329 180.122 36.1582 178.77 32.8711 176.933L24.2634 182.57L12.0132 170.764L17.3436 161.969C15.399 158.751 13.9183 155.325 12.9213 151.791L2.84277 149.699L2.54663 132.681L12.5363 130.233C13.4149 126.669 14.7672 123.194 16.6033 119.907L10.9668 111.3L22.7926 99.0494L31.5878 104.37ZM40.6595 127.044C33.6509 134.3 33.8582 145.859 41.1136 152.867C48.369 159.876 59.9282 159.669 66.9368 152.413C73.9453 145.158 73.7381 133.599 66.4827 126.59C59.2273 119.591 47.6681 119.789 40.6595 127.044Z" fill="#EFEFEF"/>
<path d="M115.494 15.8545C118.198 14.9167 120.992 14.3639 123.785 14.1764L126.954 7L139.688 9.48755L139.925 17.3253C142.442 18.5494 144.821 20.109 146.983 21.9944L154.297 19.1614L161.543 29.9309L156.173 35.6365C157.111 38.3412 157.664 41.1348 157.851 43.9283L165.027 47.097L162.54 59.8309L154.702 60.0678C153.478 62.585 151.918 64.9639 150.033 67.1159L152.866 74.4305L142.106 81.676L136.401 76.306C133.696 77.2438 130.903 77.7966 128.109 77.9841L124.94 85.1605L112.206 82.673L111.97 74.8352C109.452 73.6112 107.073 72.0515 104.912 70.1661L97.597 72.9991L90.3515 62.2296L95.7215 56.524C94.7837 53.8193 94.2309 51.0257 94.0433 48.2322L86.8669 45.0635L89.3545 32.3296L97.1923 32.0927C98.4163 29.5755 99.976 27.1966 101.861 25.0446L99.0283 17.73L109.788 10.4845L115.494 15.8545ZM118.652 34.2051C112.276 38.4991 110.588 47.1562 114.882 53.533C119.176 59.9099 127.833 61.5979 134.209 57.3039C140.586 53.0099 142.274 44.3528 137.98 37.976C133.676 31.5991 125.029 29.9112 118.652 34.2051Z" fill="#EFEFEF"/>
<path d="M174.041 113.592L161.682 159.039L124.161 169.414C122.947 169.75 122.197 171.072 122.454 172.445L163.498 161.882L164.949 161.428L213.615 148.398L219.014 126.849L226.033 101.579C226.546 100.039 225.272 98.4694 223.841 98.8643L175.344 112.181C174.712 112.348 174.209 112.891 174.041 113.592Z" fill="#9A9A9A"/>
<path d="M176.568 115.053L165.324 156.433L209.409 144.341L219.281 103.553L176.568 115.053Z" fill="white"/>
<path d="M188.845 132.351C185.923 130.55 185.727 128.402 186.303 126.376C187.056 123.726 188.845 122.202 190.926 122.056C193.007 121.91 196.42 123.929 196.168 127.134C195.917 130.34 193.892 131.88 192.922 131.88C197.686 133.206 198.445 140.795 198.445 140.795L184.785 143.381C184.785 143.381 182.887 138.518 188.845 132.351Z" fill="#9A9A9A"/>
<path d="M223.841 98.8544C223.851 98.8544 223.841 98.9334 223.802 99.0913C223.762 99.2789 223.713 99.5059 223.644 99.7922C223.486 100.434 223.279 101.332 223.002 102.467C222.41 104.826 221.581 108.193 220.534 112.368C218.392 120.798 215.421 132.486 212.055 145.684L212.015 145.832L211.867 145.871C209.607 146.483 207.228 147.125 204.809 147.776C189.983 151.735 176.568 155.308 166.815 157.914C161.978 159.178 158.049 160.204 155.285 160.925C153.953 161.26 152.897 161.527 152.146 161.724C151.811 161.803 151.534 161.872 151.327 161.922C151.139 161.961 151.041 161.981 151.041 161.971C151.041 161.961 151.13 161.932 151.307 161.872C151.515 161.813 151.781 161.724 152.117 161.626C152.867 161.408 153.903 161.112 155.236 160.737C157.98 159.977 161.899 158.891 166.726 157.569C176.469 154.933 189.874 151.3 204.681 147.283C207.1 146.631 209.479 145.99 211.739 145.387L211.561 145.565C214.987 132.377 218.017 120.709 220.199 112.289C221.304 108.133 222.193 104.777 222.815 102.428C223.121 101.302 223.367 100.414 223.545 99.7724C223.624 99.496 223.693 99.269 223.743 99.0913C223.802 98.9334 223.831 98.8544 223.841 98.8544Z" fill="#9A9A9A"/>
<path d="M64.5936 130.208C61.1688 139.416 57.184 148.539 51.1762 156.315C50.3351 157.402 49.4308 158.491 48.252 159.205C47.0732 159.918 45.5542 160.208 44.3089 159.64C42.5858 158.854 41.8895 156.787 41.6811 154.904C41.2287 150.756 42.2425 146.593 43.4446 142.595C46.7117 131.641 51.2771 121.135 55.8336 110.648C59.4887 117.048 61.5425 123.485 64.5936 130.208Z" fill="#CA005D"/>
<path d="M121.436 129.423C124.22 138.84 127.586 148.218 133.045 156.382C133.815 157.527 134.634 158.672 135.769 159.461C136.894 160.251 138.385 160.646 139.678 160.162C141.445 159.501 142.284 157.477 142.62 155.612C143.36 151.505 142.62 147.28 141.702 143.213C139.185 132.069 135.345 121.27 131.515 110.5C127.418 116.65 124.94 122.928 121.436 129.423Z" fill="#CA005D"/>
<path d="M55.9402 110.451C55.9402 110.451 56.6114 175.7 93.2239 176.973C129.836 178.246 131.376 110.915 131.376 110.451C131.376 110.451 127.053 100.718 93.6582 101.103C60.2638 101.478 55.9402 110.451 55.9402 110.451Z" fill="#CA005D"/>
<path d="M130 111.875C130 114.153 114.33 116 95 116C75.67 116 60 114.153 60 111.875C60 108.781 75.67 105 95 105C114.33 105 128.618 108.438 130 111.875Z" fill="#91004B"/>
<path d="M157.958 59.1189C158.896 57.5881 161.127 57.6376 161.997 59.2086L179.701 87.5019C180.57 89.0706 179.441 91 177.655 91H141.345C139.513 91 138.391 88.9802 139.352 87.4122L157.958 59.1189Z" fill="#FFA100"/>
<path d="M159.5 87C159.089 87 158.736 86.7546 158.442 86.2639C158.147 85.7731 158 85.1852 158 84.5C158 83.8148 158.147 83.2269 158.442 82.7361C158.736 82.2454 159.089 82 159.5 82C159.911 82 160.264 82.2454 160.558 82.7361C160.853 83.2269 161 83.8148 161 84.5C161 84.9537 160.931 85.3704 160.792 85.75C160.658 86.1296 160.478 86.4352 160.25 86.6667C160.028 86.8889 159.778 87 159.5 87Z" fill="white"/>
<path d="M160.779 80L161 70H158L158.221 80H160.779Z" fill="white"/>
<path d="M0.975654 38.4883L0.407645 39.2717C0.0550878 39.7614 -0.0820187 40.3751 0.0485582 40.9692L8.31407 79.9921C8.43812 80.5732 8.79721 81.0824 9.31299 81.3828L10.2466 81.9377C10.4555 82.0618 10.684 82.1532 10.9256 82.1989L32.1574 86.3773C33.2086 86.5863 34.2466 85.9856 34.5927 84.9736C34.7167 84.6015 34.7428 84.2032 34.658 83.818L25.6482 43.3784C25.4653 42.5492 24.8059 41.9094 23.9768 41.7462L3.11711 37.6395C2.30101 37.4828 1.46532 37.8093 0.975654 38.4883Z" fill="#9A9A9A"/>
<path d="M2.41211 38.3642L11.4219 78.9279L33.2805 83.2304L24.4208 42.6928L2.41211 38.3642Z" fill="white"/>
<path d="M24.3686 75.8006L24.9692 75.781C25.041 75.781 25.1063 75.7222 25.1194 75.6504L25.1455 75.5329C25.1455 75.5329 25.1586 75.324 25.3544 75.3501C25.4915 75.3697 26.3599 75.546 26.3599 75.546C26.3599 75.546 26.5884 75.5851 26.5492 75.768L26.5166 75.9377C26.5035 75.9965 26.5361 76.0552 26.5884 76.0879L27.176 76.4012C27.2413 76.4339 27.3131 76.4143 27.3522 76.3555L27.4698 76.1793C27.4893 76.1466 27.5089 76.1075 27.5089 76.0748C27.522 75.9965 27.5155 75.8724 27.4567 75.768C27.3653 75.5851 26.8561 75.0955 25.7266 74.9257C24.6558 74.769 24.3359 75.1673 24.251 75.2652C24.1988 75.324 24.1596 75.4872 24.1727 75.559C24.1792 75.5851 24.1858 75.6308 24.1988 75.6765C24.2184 75.7484 24.2902 75.8071 24.3686 75.8006Z" fill="white"/>
<path d="M18.9495 57.1999C19.9093 56.8604 20.4642 55.8027 20.2553 54.4447C19.9811 52.6689 18.5056 51.0563 16.9582 50.8539C15.4109 50.6515 14.3859 51.9246 14.6601 53.707C14.8755 55.078 15.8026 56.3381 16.919 56.9453C12.7406 57.102 13.746 62.1749 13.746 62.1749L24.499 64.2902C24.499 64.2902 23.3173 58.4339 18.9495 57.1999Z" fill="#9A9A9A"/>
<path d="M103.25 47.4741C103.25 47.4741 72.2584 38.2233 59.6476 63.7526C47.0368 89.2818 73.1939 97.2881 80.6135 99.9673C83.9805 101.178 91.3093 103.301 97.8138 105.032C112.223 108.875 123.139 108.995 130.389 96.6718C131.235 95.2389 131.96 93.7195 132.527 92.1342C137.594 77.8047 133.352 55.2856 103.25 47.4741Z" fill="#CA005D"/>
<rect x="71.793" y="58.182" width="57" height="24" rx="12" transform="rotate(15.9293 71.793 58.182)" fill="#91004B"/>
<path d="M85.7497 74.6441L89.2879 72.6822C89.4429 72.596 89.5574 72.4518 89.6061 72.2812C89.6547 72.1106 89.6337 71.9277 89.5475 71.7727C89.4613 71.6176 89.3171 71.5032 89.1465 71.4545C88.976 71.4058 88.7931 71.4269 88.6381 71.5131L85.1044 73.4833L83.143 69.9448C83.0568 69.7897 82.9126 69.6753 82.7421 69.6266C82.5715 69.5779 82.3886 69.599 82.2336 69.6852C82.0786 69.7714 81.9641 69.9156 81.9154 70.0862C81.8667 70.2568 81.8878 70.4397 81.974 70.5948L83.9436 74.1287L80.4054 76.0906C80.3284 76.133 80.2605 76.1902 80.2057 76.259C80.1509 76.3278 80.1103 76.4067 80.0862 76.4913C80.062 76.5759 80.0549 76.6644 80.0651 76.7517C80.0754 76.839 80.1028 76.9235 80.1458 77.0002C80.1882 77.0772 80.2454 77.1451 80.3142 77.1998C80.383 77.2546 80.4619 77.2953 80.5465 77.3194C80.631 77.3435 80.7195 77.3507 80.8068 77.3404C80.8941 77.3302 80.9786 77.3028 81.0552 77.2597L84.5889 75.2896L86.5503 78.8281C86.5927 78.9051 86.6499 78.973 86.7187 79.0278C86.7875 79.0826 86.8664 79.1232 86.9509 79.1473C87.0355 79.1714 87.124 79.1786 87.2113 79.1684C87.2986 79.1581 87.3831 79.1307 87.4597 79.0876C87.5368 79.0452 87.6046 78.988 87.6594 78.9192C87.7142 78.8504 87.7548 78.7715 87.779 78.6869C87.8031 78.6024 87.8103 78.5139 87.8 78.4265C87.7898 78.3392 87.7624 78.2547 87.7193 78.1781L85.7497 74.6441Z" fill="white"/>
<path d="M109.79 81.5054L113.328 79.5434C113.483 79.4572 113.597 79.313 113.646 79.1424C113.695 78.9718 113.674 78.7889 113.588 78.6339C113.501 78.4788 113.357 78.3644 113.187 78.3157C113.016 78.267 112.833 78.2881 112.678 78.3743L109.144 80.3445L107.183 76.806C107.097 76.6509 106.953 76.5365 106.782 76.4878C106.612 76.4391 106.429 76.4602 106.274 76.5464C106.119 76.6326 106.004 76.7769 105.955 76.9474C105.907 77.118 105.928 77.3009 106.014 77.456L107.984 80.9899L104.445 82.9518C104.368 82.9942 104.301 83.0515 104.246 83.1202C104.191 83.189 104.15 83.268 104.126 83.3525C104.102 83.4371 104.095 83.5256 104.105 83.6129C104.115 83.7002 104.143 83.7847 104.186 83.8614C104.228 83.9384 104.285 84.0063 104.354 84.0611C104.423 84.1158 104.502 84.1565 104.586 84.1806C104.671 84.2047 104.76 84.2119 104.847 84.2016C104.934 84.1914 105.019 84.164 105.095 84.1209L108.629 82.1508L110.59 85.6893C110.633 85.7663 110.69 85.8342 110.759 85.889C110.827 85.9438 110.906 85.9844 110.991 86.0085C111.076 86.0327 111.164 86.0398 111.251 86.0296C111.339 86.0193 111.423 85.9919 111.5 85.9488C111.577 85.9064 111.645 85.8492 111.699 85.7804C111.754 85.7116 111.795 85.6327 111.819 85.5481C111.843 85.4636 111.85 85.3751 111.84 85.2877C111.83 85.2004 111.802 85.1159 111.759 85.0393L109.79 81.5054Z" fill="white"/>
<path d="M76.2653 1.19345L75.4401 0.664131C74.9245 0.335785 74.2959 0.232499 73.7026 0.398819L34.7113 11.0084C34.1307 11.1674 33.6364 11.5599 33.3624 12.0989L32.8549 13.0752C32.7415 13.2936 32.6622 13.53 32.6299 13.777L37.6279 37.4917C37.8398 38.387 38.1446 39.5822 39.1881 39.8738C39.5716 39.9778 39.9759 39.9813 40.3606 39.8732L79.7419 27.4292C80.57 27.1965 81.1791 26.4927 81.2963 25.6446L77.2471 3.31039C77.2471 3.31039 76.9802 1.64954 76.2653 1.19345Z" fill="#9A9A9A"/>
<path d="M74.9258 2.69459L36.7567 13.057C36.0039 13.2614 35.4792 13.7427 35.585 14.1321L36.0635 15.8946C36.5915 17.3148 36.8652 16.4339 37.618 16.2295L75.7871 5.86715C76.5399 5.66275 76.7408 6.02696 76.6351 5.63759L76.5017 4.98602C76.5017 4.98602 76.3487 2.40821 74.9258 2.69459Z" fill="#C4C4C4"/>
<path d="M76.3398 4.38706L35.9668 15.5903L40.8755 38.4461L80.3645 26.1483L76.3398 4.38706Z" fill="white"/>
<path d="M50.9871 14.173L49.17 14.6237C48.9875 14.6689 48.876 14.8525 48.921 15.0338L49.1245 15.8542C49.1694 16.0355 49.3538 16.1457 49.5363 16.1005L51.3534 15.6498C51.5358 15.6045 51.6473 15.4209 51.6024 15.2397L51.3989 14.4192C51.3539 14.238 51.1696 14.1277 50.9871 14.173Z" fill="#C4C4C4"/>
<path d="M51.7195 17.1267L49.9024 17.5774C49.7199 17.6226 49.6085 17.8062 49.6534 17.9875L49.8569 18.8079C49.9019 18.9892 50.0862 19.0994 50.2687 19.0542L52.0858 18.6035C52.2683 18.5583 52.3797 18.3746 52.3348 18.1934L52.1313 17.3729C52.0863 17.1917 51.902 17.0814 51.7195 17.1267Z" fill="#C4C4C4"/>
<path d="M52.3709 19.7521L50.5538 20.2028C50.3713 20.248 50.2598 20.4316 50.3048 20.6129L50.5083 21.4333C50.5532 21.6146 50.7376 21.7248 50.9201 21.6796L52.7372 21.2289C52.9196 21.1836 53.0311 21 52.9862 20.8188L52.7827 19.9983C52.7377 19.8171 52.5533 19.7068 52.3709 19.7521Z" fill="#C4C4C4"/>
<path d="M53.022 22.3776L51.2049 22.8283C51.0224 22.8735 50.911 23.0571 50.9559 23.2384L51.1594 24.0588C51.2043 24.2401 51.3887 24.3503 51.5712 24.3051L53.3883 23.8544C53.5708 23.8091 53.6822 23.6255 53.6373 23.4443L53.4338 22.6238C53.3888 22.4426 53.2045 22.3323 53.022 22.3776Z" fill="#C4C4C4"/>
<path d="M61.8897 11.4689L52.639 13.7633C52.4565 13.8086 52.345 13.9922 52.39 14.1734L52.5935 14.9939C52.6384 15.1751 52.8228 15.2854 53.0053 15.2401L62.256 12.9458C62.4385 12.9005 62.5499 12.7169 62.505 12.5356L62.3015 11.7152C62.2566 11.5339 62.0722 11.4237 61.8897 11.4689Z" fill="#C4C4C4"/>
<path d="M64.2741 14.0129L53.3714 16.717C53.1889 16.7622 53.0775 16.9458 53.1224 17.1271L53.3259 17.9475C53.3709 18.1288 53.5552 18.239 53.7377 18.1938L64.6403 15.4897C64.8228 15.4444 64.9343 15.2608 64.8893 15.0796L64.6858 14.2591C64.6409 14.0779 64.4565 13.9676 64.2741 14.0129Z" fill="#C4C4C4"/>
<path d="M60.6304 17.7035L54.0228 19.3424C53.8403 19.3876 53.7288 19.5712 53.7738 19.7525L53.9773 20.5729C54.0222 20.7542 54.2066 20.8644 54.389 20.8192L60.9967 19.1803C61.1792 19.1351 61.2907 18.9515 61.2457 18.7702L61.0422 17.9498C60.9973 17.7685 60.8129 17.6583 60.6304 17.7035Z" fill="#C4C4C4"/>
<path d="M61.2816 20.329L54.6739 21.9678C54.4914 22.0131 54.3799 22.1967 54.4249 22.378L54.6284 23.1984C54.6733 23.3797 54.8577 23.4899 55.0402 23.4447L61.6478 21.8058C61.8303 21.7606 61.9418 21.5769 61.8968 21.3957L61.6933 20.5752C61.6484 20.394 61.464 20.2838 61.2816 20.329Z" fill="#C4C4C4"/>
<path d="M46.4012 21.2319C47.15 20.8275 47.8333 19.2392 47.4853 18.1446C47.0295 16.7133 45.9954 16.0489 44.6912 16.0816C43.3871 16.1143 42.1216 17.3196 42.3132 19.0625C42.5049 20.8054 43.772 21.4453 44.5972 21.4453C41.6149 23.6698 42.746 28.4884 42.746 28.4884L50.2499 26.3712C50.2499 26.3712 50.168 21.6869 46.4012 21.2319Z" fill="#9A9A9A"/>
<path d="M75.0103 19.6683C75.3026 19.5105 75.5693 18.8905 75.4335 18.4633C75.2556 17.9047 74.8519 17.6454 74.3429 17.6581C73.8339 17.6709 73.34 18.1413 73.4148 18.8216C73.4896 19.5018 73.9842 19.7516 74.3062 19.7516C73.1422 20.6198 73.5837 22.5005 73.5837 22.5005L76.5125 21.6742C76.5125 21.6742 76.4805 19.8459 75.0103 19.6683Z" fill="#9A9A9A"/>
</svg>
