<svg width="153" height="197" viewBox="0 0 153 197" fill="none" xmlns="http://www.w3.org/2000/svg">
<path d="M56.2427 128.869L56.1564 161.995L41.5164 158.981L29.188 156.41C29.188 156.41 46.0656 189.697 64.4226 189.697C82.7797 189.697 85.1529 162.001 85.1529 162.001L86.2439 128.869H56.2427Z" fill="#8B6959"/>
<path d="M71.4868 86.9025C71.4868 86.9025 60.6316 94.053 57.7221 101.931C54.64 110.197 50.3867 136.981 50.3867 136.981H65.5938L71.4868 86.9025Z" fill="#CD7200"/>
<path d="M132.278 43.4078C130.916 44.1722 129.085 43.1859 128.469 41.7497C127.852 40.3134 128.136 38.6676 128.604 37.1697C129.073 35.6718 129.726 34.217 129.837 32.6575C129.891 31.2348 129.486 29.8326 128.683 28.6574C127.879 27.4822 126.719 26.596 125.374 26.1296C128.025 24.0214 128.241 19.5215 125.806 17.173C124.665 16.0696 123.149 15.4778 121.824 14.6148C121.07 14.1147 120.368 13.5406 119.728 12.9012C120.91 13.1964 122.142 13.2343 123.34 13.0121C124.301 12.8019 125.193 12.3527 125.935 11.7063C126.676 11.0598 127.242 10.2369 127.581 9.31358C127.895 8.37782 127.941 7.37313 127.714 6.41259C127.488 5.45205 126.998 4.57381 126.299 3.87675C125.578 3.20365 124.67 2.76588 123.694 2.62164C122.719 2.47739 121.722 2.63351 120.837 3.06923C119.124 3.96921 118.187 5.83697 117.355 7.58144L116.578 9.20879C114.168 6.01573 111.899 2.71171 108.182 1.58982C104.811 0.572729 101.186 1.70694 97.7032 1.45421C95.1451 1.26928 92.6917 0.344653 90.1397 0.067263C87.5877 -0.210127 84.6844 0.332324 83.1803 2.40966C82.2927 3.64251 82.0153 5.20822 81.1215 6.4164C79.2722 8.91907 75.2901 9.2581 73.7737 11.9642C72.5409 14.171 73.4902 16.951 72.9601 19.4229C72.3868 22.1166 70.1677 24.0769 68.3554 26.1419C66.5431 28.2069 64.9589 31.0732 65.976 33.6006C66.876 35.8443 69.4958 37.0525 70.3464 39.3148C70.9629 40.9668 70.519 42.7976 70.4882 44.5606C70.4574 46.3235 71.1601 48.4193 72.8799 48.82L92.439 53.9856C99.1764 56.7225 106.124 59.5334 113.397 59.4964C120.671 59.4595 128.432 55.9952 131.273 49.3132C130.215 49.2764 129.211 48.8351 128.469 48.0803C129.412 47.6351 130.244 46.9844 130.903 46.1759C131.562 45.3674 132.032 44.4216 132.278 43.4078Z" fill="#263238"/>
<path d="M116.251 49.5475C117.866 44.6161 119.457 39.5861 120.19 34.4205C120.924 29.2549 120.77 23.8735 118.957 19.01C118.686 18.2703 116.338 13.2958 115.549 13.3759C114.988 13.4314 116.43 18.073 116.165 18.56C113.453 23.2201 112.713 28.8296 113.151 34.2048C113.612 39.4182 114.652 44.5641 116.251 49.5475Z" fill="#263238"/>
<path d="M98.9915 92.9002C107.079 92.7276 116.251 75.024 116.251 75.024L116.775 29.6246C117.194 16.5441 109.939 5.39923 96.8587 5.33759L95.6258 5.39923C89.7591 5.72638 84.2296 8.24647 80.134 12.4597C76.0384 16.6729 73.6758 22.2715 73.5148 28.1452C73.2128 39.4812 73.0217 52.0068 73.4162 58.0601C74.2422 70.5858 86.8912 71.8679 86.8912 71.8679C86.8912 71.8679 86.959 74.7713 86.9959 78.4575C87.0822 86.736 95.743 93.1838 98.9853 92.9002H98.9915Z" fill="#9B7564"/>
<path d="M83.903 41.4695C84.2886 40.5651 85.7149 41.0614 85.3438 41.9968C84.4813 44.0087 82.6933 48.2502 86.4703 47.909C87.4411 47.8234 87.7265 49.3372 86.7493 49.4281C85.1051 49.5759 83.4474 49.3865 82.7978 47.6182C82.0722 45.6066 83.1071 43.2877 83.8854 41.4678" fill="#7F6358"/>
<path d="M93.7361 55.6857C94.3867 55.533 95.0211 55.3182 95.6304 55.0441C95.6357 55.4287 95.4882 55.7996 95.2202 56.0758C94.1836 57.5171 92.7939 58.6687 91.184 59.4205C89.9181 60.0504 88.5016 60.3167 87.0926 60.1899C85.2175 59.9736 83.4564 59.1793 82.054 57.9176C81.4618 57.4046 80.9187 56.8139 80.354 56.2623C80.0719 55.9713 79.8325 55.6418 79.6432 55.2835C80.1063 55.2858 80.5682 55.332 81.0226 55.4216C81.431 55.8699 81.901 56.2582 82.4185 56.575C82.9934 57.0582 83.6813 57.3885 84.4182 57.5353C85.6202 57.741 86.835 57.8626 88.0539 57.899C89.2051 57.9614 90.357 57.7899 91.4398 57.395C91.922 57.2781 92.375 57.0635 92.7705 56.7644C93.1661 56.4653 93.4957 56.0882 93.739 55.6565" fill="#353535"/>
<path d="M93.734 55.6853C93.4907 56.117 93.1611 56.4942 92.7655 56.7932C92.37 57.0923 91.917 57.307 91.4348 57.4238C90.352 57.8187 89.2001 57.9902 88.0489 57.9279C86.83 57.8914 85.6152 57.7698 84.4132 57.5641C83.6763 57.4173 82.9884 57.087 82.4135 56.6038C81.896 56.287 81.4261 55.8987 81.0176 55.4504C81.2456 55.4732 81.4794 55.4966 81.7132 55.52C83.9554 55.8828 86.2227 56.0683 88.494 56.0746C90.1089 56.1516 91.7272 56.0386 93.3155 55.7377C93.4532 55.7141 93.5926 55.7024 93.7323 55.7028" fill="white"/>
<path d="M96.035 37.1965C96.0103 37.4959 96.0459 37.7972 96.1395 38.0827C96.2332 38.3681 96.3831 38.632 96.5805 38.8588C96.7779 39.0856 97.0187 39.2707 97.2887 39.4032C97.5588 39.5357 97.8526 39.613 98.153 39.6304C98.759 39.6561 99.3515 39.4469 99.8064 39.0464C100.261 38.6459 100.543 38.0852 100.594 37.4817C100.619 37.1819 100.584 36.8801 100.491 36.5939C100.398 36.3078 100.248 36.0432 100.051 35.8158C99.8532 35.5884 99.6122 35.4027 99.3418 35.2698C99.0714 35.1369 98.7771 35.0595 98.4763 35.042C97.8674 35.0131 97.2711 35.2215 96.8135 35.6233C96.3558 36.0251 96.0725 36.5888 96.0234 37.1954" fill="#353535"/>
<path d="M77.2858 35.9567C77.2638 36.3748 77.3657 36.7901 77.5789 37.1507C77.7921 37.5113 78.1071 37.8012 78.4844 37.9841C78.8617 38.167 79.2846 38.2348 79.7002 38.1789C80.1158 38.1231 80.5056 37.9462 80.8209 37.6702C81.1363 37.3943 81.363 37.0317 81.4729 36.6277C81.5828 36.2236 81.571 35.7962 81.4388 35.3988C81.3067 35.0014 81.0601 34.6517 80.7299 34.3935C80.3998 34.1352 80.0007 33.9798 79.5826 33.9468C79.0104 33.9111 78.4474 34.1031 78.0168 34.4809C77.5863 34.8587 77.3232 35.3914 77.2852 35.9625" fill="#353535"/>
<path d="M104.009 34.216C103.757 32.2458 102.857 30.9181 101.263 30.1574C100.488 29.7688 99.6326 29.5662 98.7655 29.5657C98.4115 29.5553 98.067 29.6813 97.8034 29.9174C97.6875 30.0335 97.5992 30.174 97.5449 30.3287C97.4906 30.4834 97.4717 30.6483 97.4897 30.8113C97.4897 30.9754 97.5243 31.1376 97.591 31.2875C97.6578 31.4374 97.7553 31.5717 97.8773 31.6816C97.9993 31.7916 98.143 31.8748 98.2991 31.9259C98.4553 31.9769 98.6204 31.9947 98.7839 31.9781C98.8657 31.9863 98.9417 31.9939 99.027 31.9671C99.0879 31.9674 99.1485 31.9735 99.2082 31.9852C99.6718 31.9712 100.132 32.0669 100.551 32.2646C100.971 32.4622 101.337 32.7562 101.621 33.1225C101.875 33.4989 102.06 33.9163 102.171 34.3562L102.323 34.9608C102.375 35.1473 102.491 35.3097 102.65 35.4203C102.809 35.5309 103.002 35.5826 103.195 35.5667L103.318 35.579C103.511 35.5539 103.689 35.4605 103.819 35.3157C103.95 35.1709 104.024 34.9843 104.028 34.7896C104.033 34.677 104.028 34.5642 104.015 34.4523L104.009 34.216Z" fill="#353535"/>
<path d="M80.8093 28.6713C80.4585 28.5564 80.0912 28.4998 79.7221 28.5035L79.4824 28.4796C78.9 28.4238 78.3123 28.4832 77.7529 28.6543C75.7622 29.1977 74.913 30.6629 74.4012 31.8847C74.3496 32.0175 74.3234 32.1589 74.3241 32.3014C74.3176 32.4899 74.3772 32.6747 74.4927 32.824C74.6082 32.9733 74.7723 33.0777 74.9566 33.1191C75.0475 33.1459 75.1427 33.1554 75.2371 33.1471C75.3564 33.1442 75.4736 33.1156 75.5807 33.0632C75.6878 33.0109 75.7824 32.936 75.8579 32.8438C75.9619 32.7159 76.0545 32.5793 76.1349 32.4354C76.2962 32.0998 76.5083 31.7911 76.7637 31.5199C77.0631 31.159 77.4554 30.8864 77.8984 30.7314C78.3414 30.5763 78.8184 30.5447 79.2781 30.6399L79.6311 30.7105C79.8474 30.7322 80.0649 30.8011 80.2805 30.8285C80.5713 30.8979 80.8775 30.8541 81.1369 30.7059C81.3963 30.5578 81.5894 30.3165 81.6768 30.0311C81.7121 29.8845 81.7175 29.7323 81.6928 29.5836C81.668 29.4349 81.6136 29.2926 81.5327 29.1652C81.4519 29.0378 81.3462 28.928 81.2221 28.8421C81.0979 28.7563 80.9577 28.6962 80.8098 28.6654" fill="#353535"/>
<path d="M86.8911 71.868C86.8911 71.868 94.8121 71.905 102.918 66.1661C102.918 66.1661 99.4291 75.4926 86.8911 75.0364V71.868Z" fill="#7F6358"/>
<path d="M116.251 38.9819C116.461 38.8771 124.727 35.9676 124.918 44.5297C125.109 53.0918 116.442 51.5323 116.424 51.3104C116.405 51.0884 116.251 38.9819 116.251 38.9819Z" fill="#9B7564"/>
<path d="M118.97 48.0002C119.007 48.0002 119.124 48.105 119.376 48.2098C119.734 48.3574 120.135 48.3574 120.492 48.2098C121.392 47.8584 122.126 46.4037 122.138 44.8564C122.14 44.1197 121.98 43.3916 121.67 42.7236C121.583 42.4574 121.434 42.2159 121.234 42.0196C121.034 41.8232 120.791 41.6778 120.523 41.5956C120.35 41.5542 120.167 41.5747 120.008 41.6535C119.848 41.7322 119.72 41.8644 119.648 42.0271C119.537 42.2675 119.598 42.4401 119.549 42.4586C119.5 42.4771 119.364 42.3168 119.426 41.9593C119.468 41.746 119.584 41.5542 119.752 41.4168C119.984 41.2323 120.278 41.146 120.572 41.1764C120.927 41.2384 121.259 41.3907 121.538 41.6185C121.816 41.8463 122.032 42.142 122.163 42.4771C122.546 43.2112 122.743 44.0283 122.736 44.8564C122.736 46.5886 121.867 48.2283 120.634 48.6105C120.405 48.6832 120.162 48.7033 119.924 48.6691C119.686 48.635 119.459 48.5475 119.259 48.4132C118.988 48.2098 118.939 48.0187 118.97 48.0002Z" fill="#7F6358"/>
<path d="M78.8901 13.8505C77.4908 13.0984 81.6023 8.5431 84.9988 6.95273C90.1274 4.54252 97.993 3.00147 102.764 4.28979C108.515 5.84317 113.317 8.60474 116.258 13.8073C119.198 19.0099 120.363 25.0509 120.27 31.0055C120.24 32.8178 120.079 34.704 119.124 36.2636C117.953 38.1806 115.666 39.4011 115.801 42.0209C115.84 42.4945 115.784 42.9711 115.637 43.423C115.49 43.8748 115.255 44.2929 114.945 44.653C113.391 46.3482 111.449 44.801 110.549 43.2353C108.614 39.9004 108.355 35.8875 108.139 32.0349C107.985 29.298 107.837 26.4871 108.577 23.8612C108.978 22.4249 109.637 21.0626 109.958 19.6079C110.278 18.1531 110.217 16.5258 109.292 15.3299C109.08 15.0765 108.845 14.8433 108.589 14.6333C107.378 13.6035 105.915 12.9145 104.349 12.6372C102.784 12.3599 101.173 12.5042 99.682 13.0553C94.8677 14.8306 86.6631 17.4874 84.4687 15.8723C81.3373 13.5546 80.5729 12.0259 80.5729 12.0259L78.8901 13.8505Z" fill="#263238"/>
<path d="M102.302 3.11862C97.5675 1.60222 92.1923 1.75016 87.8095 4.09873C85.4795 5.33157 83.3836 7.31645 82.7056 9.86843C82.0275 12.4204 83.1494 15.5333 85.6027 16.5011L85.7753 16.5997C89.4739 17.7894 91.8286 17.2655 95.4655 15.9833C98.5476 14.8799 101.235 12.9444 104.299 11.8595C107.582 10.699 111.137 10.5487 114.507 11.428C111.178 7.72328 107.042 4.64734 102.302 3.11862Z" fill="#263238"/>
<path d="M118.631 11.619C118.557 11.6868 117.866 10.8608 116.473 9.89302C115.662 9.3269 114.787 8.85925 113.866 8.49991C112.76 8.04902 111.569 7.84902 110.377 7.91431C108.189 8.15526 106.114 9.01005 104.391 10.38C103.06 11.4341 102.443 12.3156 102.363 12.2293C102.283 12.143 102.456 11.9642 102.739 11.5697C103.144 11.0104 103.609 10.4977 104.126 10.041C105.86 8.51107 108.028 7.55884 110.327 7.31638C111.608 7.23916 112.888 7.46734 114.063 7.98211C115.013 8.37784 115.904 8.90039 116.714 9.53549C118.101 10.6574 118.68 11.5882 118.631 11.619Z" fill="#455A64"/>
<path d="M119.488 14.6643C119.416 15.5182 119.195 16.3528 118.834 17.13C117.296 20.9814 114.462 24.1753 110.821 26.1605C110.095 26.6068 109.299 26.9258 108.466 27.1036C108.361 26.9372 112.072 25.5256 115.185 21.9627C118.298 18.3998 119.333 14.5841 119.488 14.6643Z" fill="#455A64"/>
<path d="M122.982 16.0634C123.049 16.3859 123.06 16.7175 123.013 17.0435C122.968 17.9321 122.844 18.815 122.643 19.6818C121.986 22.5705 120.622 25.2513 118.675 27.4844C116.728 29.7175 114.258 31.4334 111.486 32.4787C110.654 32.7966 109.796 33.0421 108.922 33.2123C108.605 33.3 108.276 33.3334 107.948 33.3109C107.948 33.2123 109.298 32.9719 111.332 32.078C113.985 30.9605 116.348 29.2516 118.24 27.0819C120.132 24.9122 121.503 22.3389 122.249 19.5585C122.828 17.438 122.878 16.0634 122.982 16.0634Z" fill="#455A64"/>
<path d="M92.4697 2.34808C92.4697 2.44055 91.5759 2.65013 90.1951 3.20491C86.5739 4.64513 83.4939 7.18201 81.3865 10.4602C80.9964 11.1717 80.5705 11.8629 80.1105 12.5314C80.2746 11.7194 80.5904 10.9456 81.0413 10.2506C83.0292 6.75456 86.2421 4.1192 90.0595 2.85355C90.8242 2.53566 91.6418 2.3642 92.4697 2.34808Z" fill="#455A64"/>
<path d="M125.676 3.42061C125.818 3.42061 125.442 5.88629 123.5 8.20404C121.559 10.5218 119.186 11.2861 119.186 11.1752C119.186 11.0642 121.263 10.0225 123.075 7.83418C124.887 5.64589 125.498 3.36513 125.676 3.42061Z" fill="#455A64"/>
<path d="M34.4523 156.681L39.5439 153.562C40.4064 153.033 41.3986 152.754 42.4103 152.755H52.273L62.4563 162.001L65.4953 163.524L64.361 179.551L57.7407 178.743C57.7407 178.743 43.6061 179.36 42.2377 178.435C40.8692 177.51 38.8905 174.638 38.8905 174.638C38.8905 174.638 31.1421 172.123 30.3839 171.445C27.5052 168.862 28.6641 168.245 28.6641 168.245L27.3388 167.629C27.0922 168.091 25.1628 164.948 25.3662 163.37C25.4834 162.451 25.2121 162.457 25.2121 162.457C24.5755 162.085 24.0278 161.578 23.6072 160.972C23.1867 160.367 22.9034 159.676 22.7773 158.95C22.6355 158.019 26.4758 158.691 26.4758 158.691L36.0488 158.814L34.4523 156.681Z" fill="#9B7564"/>
<path d="M42.9649 158.623L33.959 146.362C33.6321 145.917 33.2052 145.556 32.7126 145.306C32.22 145.057 31.6756 144.926 31.1235 144.926H13.3089C12.9656 144.926 12.6363 145.063 12.3936 145.305C12.1508 145.548 12.0144 145.877 12.0144 146.221C12.0173 146.53 12.1286 146.829 12.3288 147.065L22.5552 158.907L42.9649 158.623Z" fill="#455A64"/>
<path d="M38.5823 163.647C37.927 163.823 37.2513 163.912 36.5727 163.912C34.944 164.012 33.3102 163.991 31.6845 163.85C30.0635 163.708 28.4546 163.451 26.8703 163.08C26.2006 162.961 25.5497 162.754 24.9347 162.463C25.6079 162.51 26.276 162.613 26.9319 162.772C28.1647 162.987 29.8476 163.246 31.7338 163.388C33.6201 163.53 35.3337 163.579 36.5727 163.579C37.2433 163.545 37.9155 163.568 38.5823 163.647Z" fill="#7F6358"/>
<path d="M41.1589 169.016C40.5033 169.191 39.8279 169.28 39.1494 169.281C37.5206 169.382 35.8865 169.359 34.2612 169.213C32.6333 169.077 31.0179 168.82 29.4284 168.443C28.7605 168.325 28.1116 168.118 27.499 167.826C28.1722 167.873 28.8403 167.976 29.4962 168.135C30.7291 168.35 32.4119 168.609 34.2981 168.751C36.1844 168.893 37.8981 168.948 39.1371 168.948C39.8117 168.914 40.4881 168.936 41.1589 169.016Z" fill="#7F6358"/>
<path d="M22.7709 158.975C22.8444 159.355 22.9433 159.73 23.0668 160.097C23.4681 161.113 24.2514 161.931 25.2489 162.377L25.3167 162.414V162.482C25.2953 163.568 25.5342 164.644 26.0133 165.62C26.6111 166.806 27.5902 167.757 28.7934 168.32L28.9598 168.4L28.8858 168.554C28.7912 168.746 28.742 168.956 28.742 169.17C28.742 169.384 28.7912 169.595 28.8858 169.787C29.0933 170.204 29.3925 170.568 29.7611 170.853C30.5734 171.484 31.4671 172.002 32.4179 172.394C34.5285 173.268 36.7132 173.951 38.9458 174.434H39.0321L39.0753 174.508C39.6374 175.343 40.2999 176.104 41.0478 176.777C41.7797 177.497 42.6772 178.026 43.6614 178.318C44.4214 178.504 45.2034 178.585 45.9853 178.558L48.3277 178.62L52.8461 178.737L60.9829 178.965L70.6792 180.938L73.3729 181.517L74.0757 181.684C74.1588 181.697 74.2397 181.722 74.3161 181.758C74.2343 181.77 74.1512 181.77 74.0695 181.758L73.3545 181.64L70.636 181.16L60.9089 179.31L52.7721 179.138L48.2599 179.033L45.9792 178.99C45.162 179.014 44.3452 178.929 43.5505 178.737C42.5017 178.426 41.5451 177.863 40.7643 177.097C39.9801 176.409 39.2863 175.624 38.6992 174.761L38.8287 174.854C36.5729 174.355 34.3673 173.651 32.2392 172.752C31.2547 172.345 30.3316 171.803 29.4961 171.143C29.0855 170.809 28.7548 170.388 28.5283 169.91C28.4213 169.671 28.3691 169.412 28.3755 169.151C28.3819 168.889 28.4467 168.633 28.5653 168.4L28.6516 168.628C27.3795 168.017 26.3533 166.99 25.7421 165.718C25.2604 164.701 25.034 163.582 25.0825 162.457L25.1503 162.562C24.6356 162.321 24.1749 161.978 23.7957 161.554C23.4165 161.131 23.1267 160.635 22.9435 160.097C22.817 159.736 22.7585 159.356 22.7709 158.975Z" fill="#7F6358"/>
<path d="M44.0745 173.732C44.1238 173.836 42.928 174.441 41.3068 174.656C39.6856 174.872 38.3788 174.607 38.3973 174.496C38.4158 174.385 39.6979 174.441 41.2513 174.225C42.8047 174.009 44.0252 173.615 44.0745 173.732Z" fill="#7F6358"/>
<path d="M48.6482 158.605C48.6482 158.722 46.6941 158.894 44.2654 158.981C41.8367 159.067 39.8704 159.042 39.8704 158.925C39.8704 158.808 41.8244 158.635 44.2531 158.549C46.6818 158.463 48.6482 158.487 48.6482 158.605Z" fill="#7F6358"/>
<path d="M41.0478 158.888C41.0478 158.888 40.9554 158.808 40.8074 158.629L40.191 157.834L37.8918 154.882L34.5138 150.48L32.5289 147.885C32.1737 147.457 31.7094 147.134 31.1851 146.948C30.9186 146.856 30.6407 146.8 30.3591 146.782C30.0817 146.782 29.7427 146.782 29.4715 146.782L17.143 146.739L13.4014 146.683L12.3843 146.652C12.2657 146.67 12.1453 146.67 12.0267 146.652C12.1444 146.629 12.2643 146.619 12.3843 146.621L13.4014 146.591L17.143 146.541L29.4715 146.492C29.7797 146.492 30.0879 146.492 30.3838 146.492C30.6923 146.516 30.9966 146.578 31.2899 146.677C31.8641 146.882 32.3714 147.24 32.757 147.713C33.4412 148.625 34.1069 149.5 34.7357 150.332L38.0705 154.758L40.2896 157.773C40.5301 158.105 40.7211 158.389 40.9061 158.599C40.9651 158.689 41.0127 158.786 41.0478 158.888Z" fill="#263238"/>
<path d="M21.7045 148.526C21.7798 148.467 21.8659 148.424 21.9581 148.398C22.0503 148.372 22.1466 148.365 22.2416 148.376C22.3367 148.388 22.4285 148.418 22.5119 148.465C22.5953 148.511 22.6686 148.574 22.7277 148.65C22.7868 148.725 22.8305 148.811 22.8563 148.903C22.8821 148.995 22.8895 149.092 22.878 149.187C22.8666 149.282 22.8365 149.374 22.7896 149.457C22.7426 149.54 22.6797 149.614 22.6044 149.673C22.4549 149.796 22.2627 149.854 22.0702 149.835C21.8777 149.816 21.7007 149.721 21.5781 149.571C21.4555 149.422 21.3973 149.229 21.4164 149.037C21.4355 148.844 21.5302 148.667 21.6798 148.545" fill="#F5F5F5"/>
<path d="M117.127 71.4551L142.203 86.1999L146.813 167.567L148.805 196.602H62.6842C62.6842 196.602 63.6766 157.575 63.9849 140.63C64.2068 128.758 63.8862 105.728 67.9053 91.5751C69.6189 85.5403 86.3979 77.7426 86.3979 77.7426C95.5888 85.8485 105.865 83.4321 117.127 71.4551Z" fill="#D47600"/>
<path opacity="0.3" d="M63.1836 179.415C70.1615 185.259 81.0043 188.433 89.9301 190.233C98.8559 192.033 107.973 192.699 116.923 194.345C123.18 195.51 129.745 197.149 135.78 195.115C138.784 194.048 141.419 192.141 143.37 189.62C145.322 187.099 146.509 184.07 146.789 180.894C146.833 180.682 146.832 180.462 146.786 180.25C146.741 180.038 146.651 179.837 146.524 179.661C146.342 179.526 146.135 179.429 145.914 179.377C145.693 179.325 145.465 179.319 145.242 179.359C118.304 180.555 89.7637 180.389 63.1836 179.396" fill="black"/>
<path d="M58.4125 162.544H121.386L121.694 129.362L150.771 125.614C150.771 125.614 150.9 159.314 150.9 170.372C150.9 183.631 139.435 192.859 129.806 191.435C120.178 190.011 58.431 178.49 58.431 178.49L58.4125 162.544Z" fill="#9B7564"/>
<path d="M152.768 132.512L118.902 136.025V96.2906C118.902 96.2906 122.231 82.865 133.93 83.4259C145.63 83.9869 152.528 96.6482 152.768 108.249C153.008 119.85 152.768 132.512 152.768 132.512Z" fill="#CD7200"/>
<path opacity="0.3" d="M118.489 136.401C118.094 128.554 118.378 121.206 117.977 113.353C115.303 124.869 114.041 136.668 114.217 148.489C114.26 151.294 114.396 154.148 115.302 156.805C116.208 159.462 118.717 161.736 121.281 162.87L121.528 136.068C120.375 136.148 119.648 136.346 118.489 136.401Z" fill="black"/>
<path d="M28.5404 88.2915V81.4803C28.5404 74.6441 22.8131 69.083 15.769 69.083C8.72479 69.083 2.9975 74.6427 2.9975 81.4803V88.2915H0V109.36C12.6527 116.676 19.2364 116.785 31.5379 109.36V88.2915H28.5404ZM8.03411 81.4803C8.03411 77.3399 11.5022 73.9722 15.769 73.9722C20.0357 73.9722 23.5038 77.3385 23.5038 81.4803V88.2915H8.03411V81.4803ZM19.0384 104.526H12.4981L14.2565 99.4035C13.6861 99.1315 13.2053 98.7101 12.8682 98.1868C12.5314 97.6636 12.3516 97.0593 12.3499 96.4424C12.3499 95.5626 12.7098 94.7187 13.3507 94.0964C13.9916 93.4742 14.861 93.1247 15.7675 93.1247C16.6741 93.1247 17.5431 93.4742 18.1841 94.0964C18.825 94.7187 19.1852 95.5626 19.1852 96.4424C19.1852 97.7443 18.4052 98.8588 17.28 99.4035L19.0384 104.526Z" fill="#CA005D"/>
</svg>
