<svg width="232" height="210" viewBox="0 0 232 210" fill="none" xmlns="http://www.w3.org/2000/svg">
<path d="M147.622 202.485L147.52 195.194L160.6 194.872L160.907 205.595L160.089 205.702C156.512 206.024 141.695 206.989 139.345 206.345C136.586 205.488 147.622 202.485 147.622 202.485Z" fill="#91004B"/>
<path opacity="0.4" d="M141.722 203.811C141.722 203.811 137.738 204.994 138.262 205.586C138.786 206.177 154.092 205.783 160.907 205.093V204.797L142.98 205.388C142.98 205.487 142.56 203.91 141.722 203.811Z" fill="white"/>
<path d="M176.154 108.918C175.321 109.231 143.672 122.296 141.485 126.477C139.299 130.658 144.713 200.373 144.713 200.373H162.724L161.579 138.393L196.664 129.404L176.154 108.918Z" fill="#3D4D55"/>
<path d="M118.463 100.666H94.8937V92.4144H146.17H226.232V100.666H162.002H118.463Z" fill="#C4C4C4"/>
<path d="M101.115 92.4144L90.7678 53.2192H133.726L143.028 92.4144H101.115Z" fill="#263238"/>
<path d="M140.278 88.9762H101.793L92.8307 55.2821H131.526L140.278 88.9762Z" fill="#F5F5F5"/>
<path d="M194.989 11.5696L196.664 44.9771L182.014 46.3429L181.177 38.2536C181.177 38.2536 181.88 37.4036 176.722 35.6845C175.639 35.3233 173.783 29.8228 173.483 25.37C172.97 17.7836 172.596 8.52295 172.596 8.52295L194.989 11.5696Z" fill="#FFBE9D"/>
<path d="M171.967 10.6169C171.302 13.8662 175.516 15.9975 175.516 15.9975C175.56 27.9117 178.765 33.0525 187 41C187 41 188.088 38.3537 190.886 38.5673L194.003 38.6987C194.003 38.6987 202.774 37.0064 204 30.5C204.657 27.3566 204.734 22.6276 204.5 17.5001C201.5 -0.999978 187.5 1.00007 187.5 1.00007C180.645 0.689804 173.473 3.17381 171.967 10.6169Z" fill="#263238"/>
<path d="M181.536 4.39709C178.521 4.50068 175.405 4.70784 172.792 6.05442C170.179 7.401 167.968 11.13 168.571 13.9267C169.073 14.0303 169.576 14.2375 170.078 14.3411C170.279 14.0303 170.581 12.6837 170.782 12.2694C170.782 12.7873 170.983 14.1339 170.983 14.6518C171.887 14.859 172.591 14.4446 173.395 14.6518C173.797 12.4766 174.601 10.4049 175.706 8.54042" fill="#263238"/>
<path d="M170.477 74.9632L167.764 83.9605L151.28 80.0895C151.801 78.4156 156.392 67.849 161.087 56.0269C162.339 52.7837 164.425 49.9589 167.138 47.7619C169.851 45.5649 173.085 44.1002 176.423 43.5771C181.118 42.7401 185.813 42.217 190.612 42.217C198.959 42.3217 209.705 45.8787 211.374 54.0391C212.626 60.3163 209.809 70.5691 209.809 84.0651L211.792 112.417C193.534 115.87 183.935 116.183 172.354 102.374L174.65 88.9823L170.477 74.9632Z" fill="#CA005D"/>
<path d="M178 20.4878C178 22.1602 179.556 29.163 181 29.9992C182.341 30.9399 182.498 35.6433 182.911 37.3156C183.736 40.4513 179.713 42.8552 179.301 45.9908C178.991 48.2903 180.745 50.3807 181.776 52.4711C182.705 54.248 183.117 56.1293 183.22 58.1152C183.323 60.1011 182.911 61.9825 182.086 63.8639C186.418 64.2819 190.75 64.5955 195.082 64.8045L198.073 58.8469L200.446 64.9091C204.262 64.9091 208.078 64.5955 211.792 63.9684C209.522 62.1915 209.419 58.8469 209.522 55.9203C209.625 52.9937 210.244 47.8722 208.285 45.7818C206.944 44.3185 204.881 43.5869 203.54 42.1236C201.58 40.0332 202.508 39.197 203.437 36.8976C204.571 34.18 204.881 31.2535 204.365 28.3269C203.953 25.5048 202.096 22.9963 200.755 20.4878C199.311 17.9793 199.208 16.2025 198.486 12.6488" fill="#263238"/>
<path d="M115.381 164.164L118.518 157.74L130.651 163.439L126.258 172.868L125.421 172.557C121.97 171.21 108.059 165.304 106.177 163.542C103.98 161.574 115.381 164.164 115.381 164.164Z" fill="#91004B"/>
<path opacity="0.4" d="M109.763 162.809C109.763 162.809 105.796 162.167 105.898 162.916C106.101 163.772 119.53 170.407 125.735 172.868L125.837 172.547L110.069 164.842C110.069 164.949 110.374 163.13 109.763 162.809Z" fill="white"/>
<path d="M200.885 105.919C200.885 105.919 145.795 94.3824 140.558 96.8995C135.217 99.4166 110.709 160.247 110.709 160.247L130.504 168.742L151.765 117.036C151.765 117.036 190.307 131.09 197.01 129.727C203.713 128.363 200.885 105.919 200.885 105.919Z" fill="#455A64"/>
<path opacity="0.2" d="M220.043 78.439C214.822 79.476 209.602 78.439 204.277 78.1279C201.04 77.9205 197.49 77.6094 194.984 79.5797C193 81.1352 192.165 83.8314 191.538 86.3202C190.285 91.7125 189.45 102.912 188.824 113.386C188.615 116.808 187.571 120.23 185.587 123.03C183.707 125.933 181.097 128.215 177.965 129.77C176.398 130.6 172.013 130.6 171.909 131.222L214.3 132.985L220.043 78.439Z" fill="black"/>
<path d="M41.9458 137.111H36.4447V199.686H41.9458V137.111Z" fill="#455A64"/>
<path d="M76.3276 139.861H2.06299C2.06299 137.695 2.89977 135.529 4.46874 133.982C5.93311 132.435 8.02507 131.61 10.2216 131.61H68.3781C70.4701 131.61 72.562 132.435 74.131 133.982C75.4908 135.529 76.3276 137.695 76.3276 139.861Z" fill="#263238"/>
<path d="M61.8872 205.187H61.1486C61.2541 202.211 60.7265 199.342 59.5658 196.579C58.5106 193.816 56.9279 191.371 54.8175 189.246C52.7072 187.121 50.3858 185.42 47.6424 184.357C44.8989 183.189 42.0499 182.657 39.0954 182.657C36.141 182.657 33.292 183.295 30.5485 184.357C27.8051 185.526 25.3782 187.227 23.3734 189.246C21.3685 191.265 19.6802 193.816 18.6251 196.579C17.5699 199.342 17.0423 202.211 17.0423 205.187H16.5147C16.4092 202.105 17.0423 199.129 18.0975 196.26C19.2582 193.391 20.8409 190.84 22.9513 188.715C25.0616 186.589 27.594 184.783 30.3375 183.614C33.081 182.445 36.141 181.807 39.0954 181.807C42.0499 181.807 45.1099 182.445 47.8534 183.614C50.5968 184.783 53.1293 186.483 55.2396 188.715C57.35 190.84 59.0382 193.497 60.0934 196.26C61.3596 199.129 61.8872 202.105 61.8872 205.187Z" fill="#455A64"/>
<path d="M19.8376 206.293C19.8376 207.043 19.6299 207.793 19.3184 208.329C19.0068 208.972 18.4876 209.4 17.9684 209.722C17.4492 210.043 16.7223 210.043 16.2031 209.936C15.5801 209.829 15.0609 209.4 14.6455 208.865C14.2302 208.329 13.9186 207.686 13.8148 206.936C13.7109 206.186 13.7109 205.436 14.0225 204.793C14.2302 204.15 14.6455 203.507 15.1647 203.079C15.6839 202.65 16.307 202.436 16.93 202.436C17.3454 202.436 17.7607 202.543 18.1761 202.757C18.5915 202.972 18.903 203.186 19.2145 203.615C19.526 203.936 19.7337 204.365 19.9414 204.793C19.7337 205.329 19.8376 205.757 19.8376 206.293Z" fill="#263238"/>
<path d="M64.6377 206.091C64.6377 206.727 64.4265 207.363 64.1096 207.893C63.7928 208.423 63.2647 208.847 62.7367 209.059C62.2086 209.271 61.4693 209.377 60.9412 209.271C60.3076 209.165 59.7795 208.847 59.357 208.423C58.9346 207.999 58.6178 207.363 58.5121 206.833C58.4065 206.197 58.4065 205.561 58.7234 205.031C58.9346 204.501 59.357 203.972 59.8851 203.654C60.4132 203.336 61.0469 203.124 61.6805 203.124C62.5254 203.124 63.3703 203.442 63.8984 204.078C64.3209 204.395 64.6377 205.243 64.6377 206.091Z" fill="#455A64"/>
<path d="M0 75.9229V121.971C0 124.908 1.15179 127.635 3.14124 129.733C5.13069 131.831 7.95781 132.985 10.7849 132.985H46.0715L41.255 76.0278C41.255 74.7691 40.7314 73.5103 39.7891 72.5663C38.8467 71.6222 37.6949 71.0978 36.3337 71.0978H4.81657C3.56007 71.0978 2.30358 71.6222 1.3612 72.5663C0.52354 73.3005 0 74.5593 0 75.9229Z" fill="#263238"/>
<path d="M6.87646 76.4497V120.963C6.87646 123.802 8.02825 126.438 10.0177 128.466C12.0072 130.494 14.8343 131.61 17.6614 131.61H52.948L48.1314 76.5511C48.1314 75.3343 47.6079 74.1175 46.6655 73.205C45.7231 72.2924 44.5714 71.7854 43.2102 71.7854H11.693C10.4365 71.7854 9.18004 72.2924 8.23767 73.205C7.4 73.9147 6.87646 75.1315 6.87646 76.4497Z" fill="#323D43"/>
<path d="M31.6313 131.724C31.2136 131.61 30.9003 131.61 30.4827 131.61H27.3501C24.7396 131.61 21.085 131.61 17.1171 131.61C15.1331 131.61 13.2536 131.61 11.4785 131.724C9.91219 131.724 8.34591 131.839 6.88405 132.297C5.83986 132.641 4.90009 133.214 4.16916 134.016C3.96033 134.246 3.75149 134.475 3.54265 134.704C3.43823 134.933 3.43823 135.048 3.43823 135.048C3.43823 135.048 3.75149 134.704 4.27358 134.131C5.10893 133.329 6.0487 132.87 7.09288 132.526C8.55474 132.183 10.121 131.953 11.5829 132.068H17.2215C21.1894 132.068 24.8441 131.953 27.4545 131.953L30.5871 131.839C30.9003 131.839 31.2136 131.724 31.6313 131.724Z" fill="#455A64"/>
<path d="M163.657 88.9762H109.334V92.4144H163.657V88.9762Z" fill="#263238"/>
<path d="M167.783 83.9535L167.052 88.1212C165.589 92.3905 161.725 93.102 157.024 93.102H126.525V86.5964L154.309 82.8353L156.293 81.4122L167.783 83.9535Z" fill="#FFBE9D"/>
<path d="M130.312 61.4708L132.714 71.0977H107.235L104.521 61.4708H130.312Z" fill="#E0E0E0"/>
<path d="M93.4551 57.345H131.338L130.714 55.2821H92.8307L93.4551 57.345Z" fill="#EBEBEB"/>
<path d="M123.189 85.1102L120.791 84.0447C120.791 84.0447 118.185 79.143 117.56 79.3561C116.934 79.5692 116.83 80.9545 117.872 83.1922L114.641 82.3397C114.641 82.3397 107.656 85.5365 107.969 85.8561C108.073 86.0693 108.177 86.2824 108.386 86.3889C108.594 86.4955 108.803 86.7086 109.011 86.7086C109.22 86.7086 109.533 86.8152 109.741 86.7086C109.95 86.7086 110.158 86.602 110.367 86.3889C111.93 85.643 113.911 84.7906 113.911 84.7906L117.664 85.8561L112.764 86.4955L108.177 90.5447C108.594 90.8644 109.116 90.9709 109.637 90.9709C110.158 90.9709 110.679 90.7578 110.992 90.4381L122.876 92.889L126.525 93.1021V86.4955L123.189 85.1102Z" fill="#FFBE9D"/>
<path d="M110.709 91.0391C110.709 91.0391 111.019 90.5864 111.431 89.9072C111.638 89.5676 111.947 89.2281 112.256 89.0017C112.669 88.7753 113.082 88.5489 113.494 88.5489C114.629 88.4357 115.763 88.2094 116.898 87.6434C115.763 87.5302 114.526 87.6434 113.391 87.983C112.875 87.983 112.463 88.2094 112.05 88.5489C111.741 88.8885 111.431 89.2281 111.225 89.6808C110.812 90.4732 110.709 91.0391 110.709 91.0391Z" fill="#EB996E"/>
<path d="M112.772 91.0392C112.772 91.0392 112.878 90.8196 113.195 90.8196C113.513 90.7463 114.147 90.7463 114.676 90.6731C115.417 90.6731 116.157 90.5999 116.898 90.5267C116.157 90.3803 115.417 90.3071 114.676 90.3803C114.147 90.3803 113.618 90.5267 113.089 90.5999C112.984 90.5999 112.878 90.6731 112.878 90.7463C112.772 90.8196 112.772 90.8928 112.772 90.8928C112.772 90.966 112.772 91.0392 112.772 91.0392Z" fill="#EB996E"/>
<path d="M183.599 198.31H187.724V135.735H183.599V198.31Z" fill="#263238"/>
<path d="M231.733 76.0194V121.99C231.733 124.922 230.589 127.644 228.612 129.739C226.636 131.833 223.931 132.985 221.122 132.985H191.162V76.0194C191.162 74.7628 191.683 73.5062 192.515 72.5638C193.451 71.6214 194.595 71.0978 195.844 71.0978H226.948C228.196 71.0978 229.444 71.6214 230.277 72.5638C231.213 73.4015 231.733 74.6581 231.733 76.0194Z" fill="#263238"/>
<path d="M149.217 135.735H223.481C223.481 133.569 222.645 131.403 221.076 129.856C219.507 128.309 217.519 127.484 215.323 127.484H157.271C155.179 127.484 153.087 128.309 151.518 129.856C149.949 131.403 149.217 133.569 149.217 135.735Z" fill="#263238"/>
<path d="M191.162 126.796C191.162 126.899 191.162 127.001 191.162 127.206C191.162 127.616 191.162 127.923 191.267 128.333C191.581 129.664 192.209 130.894 193.152 131.713C193.78 132.328 194.617 132.738 195.455 132.84C196.397 132.942 197.339 133.045 198.282 132.942H204.772C209.379 132.942 213.567 132.942 216.603 132.84L220.162 132.738H221.104C221.209 132.738 221.314 132.738 221.418 132.738C221.314 132.738 221.209 132.738 221.104 132.738H220.162L216.603 132.635C213.567 132.635 209.379 132.533 204.772 132.533H198.282C197.339 132.533 196.397 132.533 195.455 132.43C194.617 132.328 193.884 131.918 193.256 131.406C192.314 130.586 191.581 129.46 191.267 128.23C191.162 127.308 191.267 126.796 191.162 126.796Z" fill="#263238"/>
<path d="M162.969 203.811H163.702C163.598 200.923 164.226 198.035 165.273 195.25C166.32 192.569 167.995 190.093 170.09 188.03C172.184 185.967 174.592 184.317 177.419 183.182C180.142 182.048 183.073 181.429 186.005 181.429C188.937 181.429 191.869 182.048 194.591 183.182C197.314 184.317 199.827 185.967 201.921 188.03C204.015 190.093 205.586 192.569 206.737 195.25C207.785 197.932 208.413 200.82 208.308 203.811H209.041C209.041 200.82 208.413 197.829 207.261 195.147C206.109 192.362 204.434 189.887 202.235 187.824C200.036 185.761 197.523 184.007 194.801 182.873C191.974 181.738 189.042 181.119 186.005 181.119C182.969 181.119 179.932 181.738 177.21 182.873C174.383 184.007 171.87 185.658 169.776 187.824C167.681 189.99 165.901 192.465 164.75 195.147C163.598 197.829 162.969 200.82 162.969 203.811Z" fill="#455A64"/>
<path d="M204.915 204.716C204.915 205.352 205.128 205.988 205.554 206.518C205.98 207.048 206.512 207.472 207.258 207.684C207.896 207.896 208.642 208.002 209.387 207.896C210.132 207.79 210.771 207.472 211.304 207.048C211.836 206.624 212.155 205.988 212.368 205.458C212.581 204.928 212.475 204.186 212.155 203.656C211.836 203.126 211.41 202.596 210.771 202.278C210.132 201.96 209.387 201.748 208.748 201.748C208.216 201.748 207.79 201.854 207.364 201.96C206.938 202.172 206.512 202.384 206.193 202.702C205.873 203.02 205.554 203.338 205.341 203.762C205.022 203.868 204.915 204.292 204.915 204.716Z" fill="#263238"/>
<path d="M159.531 204.23C159.531 204.98 159.744 205.73 160.17 206.266C160.596 206.909 161.128 207.337 161.874 207.659C162.513 207.98 163.258 207.98 164.003 207.873C164.748 207.766 165.387 207.337 165.92 206.802C166.452 206.266 166.772 205.623 166.984 204.873C167.197 204.123 167.091 203.373 166.772 202.73C166.452 202.087 166.026 201.444 165.387 201.016C164.748 200.587 164.003 200.373 163.364 200.373C162.832 200.373 162.406 200.48 161.98 200.694C161.554 200.909 161.128 201.123 160.809 201.552C160.49 201.873 160.17 202.302 159.957 202.73C159.638 203.266 159.531 203.694 159.531 204.23Z" fill="#263238"/>
<path d="M77.0151 125.421C77.3708 124.201 77.845 123.092 78.5564 121.872C79.0306 120.652 79.742 119.543 80.4533 118.545C80.0976 119.765 79.6234 120.874 78.9121 121.983C78.3193 123.314 77.7265 124.423 77.0151 125.421Z" fill="#FAFAFA"/>
<path d="M83.8914 140.549C82.5544 139.084 81.4083 137.41 80.4532 135.735C81.1218 136.468 81.7903 137.2 82.2678 138.038C82.8409 138.77 83.4139 139.607 83.8914 140.549Z" fill="#FAFAFA"/>
<path d="M68.0759 117.169C67.6274 116.594 67.1789 115.922 66.9099 115.154C66.4614 114.483 66.1923 113.811 66.0129 113.043C66.4614 113.619 66.9099 114.291 67.2686 114.962C67.5377 115.634 67.8965 116.402 68.0759 117.169Z" fill="#FAFAFA"/>
<path d="M91.6034 179.422L91.0812 193C91.0812 193 104.764 198.118 104.869 200.625L78.4426 200.521V179.213L91.6034 179.422Z" fill="#272727"/>
<g opacity="0.6">
<g opacity="0.6">
<g opacity="0.6">
<path opacity="0.6" d="M78.4426 200.521L78.5471 198.327L103.929 199.267C103.929 199.267 105.078 199.789 104.973 200.625L78.4426 200.521Z" fill="white"/>
</g>
</g>
</g>
<g opacity="0.3">
<g opacity="0.3">
<path opacity="0.3" d="M91.4989 182.137L91.3945 184.54L78.3381 184.331V182.137H91.4989Z" fill="black"/>
</g>
</g>
<path d="M55.4838 104.936L86.0262 100.122C89.0492 99.5984 92.0721 100.54 94.4697 102.424C96.9714 104.518 98.4308 107.762 98.3265 111.007L95.0951 182.495H76.1234L77.1658 123.462L59.1322 123.776L44.8513 111.112L34.5315 109.228L26.8177 104.518L55.4838 104.936Z" fill="#585450"/>
<path d="M47.9429 184.435L40.6314 195.925C40.6314 195.925 49.8231 207.206 48.6741 209.504L25.9038 196.029L36.5578 177.646L47.9429 184.435Z" fill="#272727"/>
<g opacity="0.6">
<g opacity="0.6">
<path opacity="0.6" d="M25.9038 196.029L27.0528 194.254L48.4652 207.832C48.4652 207.832 49.1964 208.877 48.6741 209.504L25.9038 196.029Z" fill="white"/>
</g>
</g>
<g opacity="0.3">
<path opacity="0.3" d="M46.4806 186.629L45.2272 188.718L34.0509 182.033L35.0954 180.153L46.4806 186.629Z" fill="black"/>
</g>
<path d="M91.2901 73.195L100.168 68.7036C102.466 67.6591 103.302 67.1369 103.093 66.7191C102.78 66.1968 102.989 66.4057 98.4972 67.5547C98.4972 67.5547 104.869 65.779 103.197 65.0478C102.884 64.9434 101.84 65.0478 100.795 65.3612C102.362 64.8389 102.989 64.2122 102.884 63.7944C102.675 63.0633 98.915 64.0033 97.1393 64.4211C98.6017 64.0033 101.317 63.2722 101.944 62.8544C102.78 62.3321 101.631 62.0188 100.691 61.9143C99.6462 61.9143 93.2747 62.4366 91.499 62.541C90.2456 62.6455 90.2456 61.4965 90.2456 61.4965C90.6634 58.8852 89.5144 56.5873 88.8877 56.1695C88.261 55.7517 87.4254 56.3784 87.6343 57.1096C87.8432 57.7363 87.8432 58.8852 87.7388 59.8253C87.7388 60.5564 87.5299 61.2876 87.2165 61.9143C86.9032 62.6455 86.5898 63.3766 86.2764 63.8989L79.0693 71.106L84.9186 78.522L91.2901 73.195Z" fill="#FFBE9D"/>
<path d="M96.1992 68.3904C96.1992 68.4948 97.5571 68.1815 99.3327 67.6592C101.004 67.137 102.362 66.6147 102.257 66.5102C102.257 66.4058 100.795 66.7191 99.1238 67.2414C97.5571 67.8681 96.1992 68.2859 96.1992 68.3904Z" fill="#EB996E"/>
<path d="M95.0503 66.6147C95.0503 66.7191 96.6171 66.5102 98.3927 66.0924C100.168 65.6746 101.631 65.2568 101.631 65.1523C101.631 65.0479 100.064 65.2568 98.2883 65.6746C96.5126 65.988 95.0503 66.4058 95.0503 66.6147Z" fill="#EB996E"/>
<path d="M94.1102 64.9434C94.1102 65.0479 95.5725 64.839 97.2438 64.4211C98.915 64.0033 100.377 63.69 100.273 63.4811C100.273 63.3766 98.8105 63.5855 97.1393 64.0033C95.4681 64.4211 94.1102 64.839 94.1102 64.9434Z" fill="#EB996E"/>
<path d="M50.828 16.0807C48.5281 15.3372 48.5281 14.9123 46.2282 14.3812C44.8691 14.0626 43.301 13.6377 42.0465 13.0004C40.1648 11.9383 37.7603 13.5315 35.774 14.4874C33.8923 15.4434 31.1742 14.9123 30.9652 17.0366C29.188 15.9745 27.7244 19.9044 26.7835 22.0288C25.8426 24.1531 26.0517 26.3836 26.5744 28.7203C27.5153 32.6503 29.2925 36.4741 31.6969 39.6606C31.906 39.9792 32.2197 40.2979 32.5333 40.0854C32.7424 39.9792 32.8469 39.6606 32.8469 39.4481C33.1605 37.3238 32.9514 35.1995 32.7424 33.0752C32.5333 30.9509 32.4287 28.7203 33.1605 26.7022C33.7878 24.6842 35.3559 22.8785 37.4467 22.4536C39.0148 22.135 40.5829 22.6661 41.8374 23.4096C43.1965 24.1531 44.3464 25.2152 45.7055 26.065C46.96 26.9147 48.4235 27.6582 49.9916 27.7644C51.5598 27.8706 51.1416 27.1271 51.7689 25.7463C52.3961 24.3655 53.1279 22.7723 51.6643 22.4536C53.0233 22.3474 52.8143 20.648 52.9188 19.2672C53.1279 17.9926 52.187 16.5055 50.828 16.0807Z" fill="#263238"/>
<path d="M29.9339 29.2735V53.2973C30.3517 57.2664 39.5434 65.2047 43.5125 64.578L46.2283 64.3691C49.884 63.8468 46.4372 54.9685 46.0194 51.3127C45.8105 49.537 45.706 48.0747 45.706 47.8658C45.706 47.8658 51.5553 46.7168 51.4508 40.7631C51.3464 37.943 50.7197 31.9893 50.1974 26.6623C49.4662 21.0219 44.5571 16.8439 38.8123 17.0528H38.29C32.1274 17.575 29.0983 23.1109 29.9339 29.2735Z" fill="#FFBE9D"/>
<path d="M45.0334 34.2728C44.8686 33.8227 44.2916 34.055 44.4507 34.5203C44.8192 35.5217 45.5838 37.6324 44.0418 37.4302C43.6454 37.3792 43.5419 38.1243 43.9409 38.1779C44.6122 38.2657 45.2861 38.1869 45.5358 37.3194C45.8145 36.3324 45.3731 35.1779 45.0405 34.2721" fill="#E09C72"/>
<path d="M40.5562 40.7949C40.2469 40.7253 39.9455 40.6271 39.6561 40.5016C39.6529 40.6788 39.7224 40.8496 39.8494 40.9765C40.3401 41.6394 40.9993 42.1684 41.7639 42.5129C42.3651 42.8016 43.0386 42.9226 43.7092 42.8623C44.6016 42.7603 45.4409 42.392 46.1104 41.8088C46.393 41.5716 46.6524 41.2987 46.922 41.0438C47.0568 40.9093 47.1712 40.7571 47.262 40.5918C47.0416 40.5934 46.8218 40.6153 46.6054 40.6571C46.4103 40.8643 46.186 41.0438 45.9393 41.1904C45.6649 41.4139 45.337 41.567 44.9862 41.6356C44.414 41.7319 43.8358 41.7894 43.2558 41.8078C42.708 41.838 42.1602 41.7604 41.6458 41.5797C41.4165 41.5265 41.2014 41.4281 41.0137 41.2908C40.8261 41.1535 40.6699 40.9801 40.5549 40.7814" fill="#353535"/>
<path d="M40.4975 40.8402C40.6123 41.0317 40.7687 41.1985 40.9568 41.3304C41.145 41.4624 41.3609 41.5565 41.5911 41.607C42.1077 41.7795 42.6581 41.8522 43.209 41.8209C43.7922 41.8009 44.3738 41.743 44.9495 41.6477C45.3025 41.58 45.6327 41.4308 45.9095 41.2139C46.1582 41.0713 46.3844 40.897 46.5814 40.6961C46.4722 40.707 46.3603 40.7181 46.2484 40.7293C45.1745 40.8978 44.0892 40.9874 43.0027 40.9972C42.2299 41.0366 41.4562 40.9913 40.6975 40.8623C40.6317 40.8522 40.5651 40.8474 40.4983 40.848" fill="white"/>
<path d="M39.5513 32.6047C39.5623 32.7389 39.5461 32.874 39.5038 33.002C39.4614 33.13 39.3937 33.2483 39.3047 33.35C39.2156 33.4516 39.107 33.5346 38.9852 33.594C38.8634 33.6534 38.7309 33.6881 38.5956 33.6959C38.3224 33.7074 38.0555 33.6136 37.8506 33.4341C37.6458 33.2545 37.5189 33.0032 37.4966 32.7326C37.4852 32.5982 37.5011 32.4629 37.5433 32.3346C37.5854 32.2063 37.653 32.0877 37.7421 31.9858C37.8312 31.8838 37.9399 31.8006 38.0618 31.741C38.1837 31.6814 38.3164 31.6467 38.452 31.6388C38.7265 31.6259 38.9951 31.7193 39.2012 31.8994C39.4073 32.0796 39.5347 32.3323 39.5566 32.6042" fill="#353535"/>
<path d="M48.4523 31.7281C48.4629 31.9306 48.4135 32.1318 48.3103 32.3065C48.207 32.4811 48.0546 32.6215 47.872 32.71C47.6894 32.7985 47.4848 32.8312 47.2837 32.804C47.0826 32.7768 46.894 32.6909 46.7415 32.5572C46.589 32.4234 46.4793 32.2476 46.4262 32.0518C46.3731 31.856 46.3789 31.6489 46.443 31.4564C46.507 31.2639 46.6264 31.0946 46.7862 30.9696C46.9459 30.8445 47.1391 30.7694 47.3414 30.7535C47.6182 30.7364 47.8906 30.8296 48.0989 31.0128C48.3071 31.196 48.4343 31.4542 48.4526 31.7309" fill="#353535"/>
<path d="M35.9979 31.1683C36.1237 30.1956 36.5711 29.5401 37.3628 29.1645C37.7475 28.9727 38.1719 28.8727 38.6021 28.8725C38.7778 28.8673 38.9486 28.9295 39.0793 29.0461C39.1368 29.1034 39.1805 29.1728 39.2074 29.2492C39.2343 29.3256 39.2435 29.407 39.2346 29.4874C39.2344 29.5684 39.2172 29.6485 39.184 29.7225C39.1508 29.7965 39.1023 29.8628 39.0418 29.9171C38.9812 29.9714 38.9098 30.0125 38.8323 30.0377C38.7548 30.0629 38.6729 30.0717 38.5918 30.0635C38.5511 30.0675 38.5134 30.0713 38.4711 30.058C38.4409 30.0582 38.4108 30.0612 38.3812 30.067C38.1512 30.06 37.9228 30.1073 37.7145 30.2049C37.5063 30.3025 37.3243 30.4476 37.1833 30.6284C37.0574 30.8143 36.9649 31.0204 36.91 31.2376L36.8342 31.536C36.8082 31.6281 36.7507 31.7083 36.6717 31.7629C36.5927 31.8175 36.497 31.843 36.4011 31.8352L36.3402 31.8413C36.2443 31.8288 36.156 31.7827 36.0914 31.7112C36.0268 31.6398 35.9901 31.5476 35.988 31.4515C35.9858 31.3959 35.988 31.3402 35.9949 31.285L35.9979 31.1683Z" fill="#353535"/>
<path d="M46.5778 28.7883C46.7482 28.7391 46.926 28.7134 47.1043 28.7121L47.2202 28.7006C47.502 28.6735 47.7854 28.6931 48.0542 28.7582C49.0113 28.9633 49.4096 29.5505 49.647 30.0417C49.6708 30.0952 49.6823 30.1522 49.6809 30.21C49.6825 30.2863 49.6522 30.3617 49.5952 30.4231C49.5382 30.4844 49.4581 30.528 49.3688 30.5462C49.3246 30.5577 49.2786 30.5623 49.233 30.5597C49.1754 30.5594 49.1191 30.5487 49.0677 30.5283C49.0164 30.5079 48.9714 30.4783 48.9357 30.4415C48.8865 30.3904 48.8428 30.3358 48.8052 30.2781C48.7299 30.1433 48.63 30.0198 48.5088 29.9119C48.3671 29.7679 48.1798 29.6605 47.9671 29.601C47.7544 29.5415 47.5243 29.5323 47.3015 29.5744L47.1304 29.6057C47.0257 29.6161 46.9202 29.6457 46.8158 29.6585C46.6748 29.6888 46.5272 29.6734 46.4031 29.6153C46.279 29.5573 46.1877 29.4609 46.1478 29.346C46.1319 29.2868 46.1305 29.2252 46.1437 29.1648C46.1569 29.1043 46.1843 29.0462 46.2244 28.994C46.2644 28.9418 46.3164 28.8964 46.377 28.8607C46.4377 28.825 46.5059 28.7996 46.5776 28.786" fill="#353535"/>
<path d="M45.706 47.7615C45.706 47.7615 41.9458 48.1793 37.8722 45.8813C37.8722 45.8813 39.8568 50.0594 45.706 49.3282V47.7615Z" fill="#EB996E"/>
<path d="M30.5605 33.6606C30.4561 33.6606 26.4869 32.616 26.6958 36.6896C27.0092 40.7632 30.9783 39.6143 30.9783 39.5098C30.9783 39.3009 30.5605 33.6606 30.5605 33.6606Z" fill="#FFBE9D"/>
<path d="M29.6204 38.0475C29.6204 38.0475 29.5159 38.1519 29.4115 38.1519C29.307 38.2564 29.0981 38.2564 28.8892 38.1519C28.4714 38.0475 28.0536 37.4208 27.9492 36.6896C27.9492 36.2718 27.9492 35.9584 28.0536 35.6451C28.1581 35.3317 28.367 35.1228 28.5759 35.0184C28.7848 34.9139 28.9937 35.1228 28.9937 35.2273C29.0981 35.3317 28.9937 35.4362 29.0981 35.4362C29.0981 35.4362 29.2026 35.3317 29.0981 35.2273C29.0981 35.1228 28.9937 35.0184 28.8892 35.0184C28.7848 34.9139 28.6803 34.9139 28.4714 34.9139C28.1581 34.9139 27.9492 35.2273 27.7403 35.5406C27.6358 35.854 27.5314 36.2718 27.5314 36.6896C27.6358 37.5252 28.0536 38.2564 28.6803 38.3608C28.9937 38.4653 29.2026 38.3608 29.307 38.2564C29.6204 38.1519 29.6204 38.0475 29.6204 38.0475Z" fill="#EB996E"/>
<path d="M51.3463 25.5134C48.7351 26.349 45.8105 25.7223 43.7214 24.051C42.2591 22.9021 41.1102 21.1264 39.23 20.7086C37.9766 20.3953 36.6188 20.7086 35.5743 21.3353C34.5298 21.962 33.5897 23.0065 32.8585 23.9466C34.1119 26.8712 33.4852 30.3181 32.7541 33.4516C32.6496 33.765 32.5452 34.1828 32.3363 34.3917C31.9185 34.8095 31.1873 34.4961 30.6651 34.0783C29.9339 33.4516 29.725 32.4071 29.5161 31.4671C29.0983 29.2736 28.8894 27.0801 29.3072 24.8866C29.725 22.6932 30.6651 20.6042 32.2318 19.0374C34.1119 17.0528 36.9321 16.0083 39.6478 15.9039C42.3636 15.7994 45.1837 16.7395 47.3772 18.4107C48.4217 19.1418 49.3618 20.0819 49.9885 21.2309" fill="#263238"/>
<path d="M34.4348 109.067C34.957 109.067 66.2935 112.834 71.3073 115.659C74.0232 117.229 73.8143 119.845 74.2321 120.996C75.9034 125.496 74.441 129.995 72.143 134.181L48.1184 190.059L33.4947 180.222L49.1629 132.402L26.7051 130.204C21.5868 129.472 17.5131 125.705 16.4685 120.682L13.7527 108.23L34.4348 109.067Z" fill="#665F59"/>
<path d="M19.0533 88.7262L17.91 50.9063L29.7585 48.4058L35.4749 54.1361C38.1772 56.8449 42.7503 56.5324 45.0368 53.5109L46.6998 51.323L55.6381 54.9695C56.4696 55.2821 57.1971 55.9072 57.5089 56.7407L67.4866 76.8488L85.2593 64.5548L90.7678 74.2442L70.2928 91.7476C66.4472 94.2481 61.3545 93.2062 58.7561 89.4555L54.8066 83.621L54.5988 105.709L50.9611 107.376L35.4749 110.293L13.7527 108.313L19.0533 88.7262Z" fill="#D47600"/>
<path opacity="0.3" d="M36.4446 109.431C28.7909 110.235 20.8184 108.224 14.4403 104.101L15.6096 99.9784L36.4446 109.431Z" fill="black"/>
<path d="M17.5639 50.4688C17.5639 50.4688 25.0113 52.7703 25.6407 60.3025C26.2701 67.8348 26.4799 89.3854 26.4799 89.3854C26.4799 89.3854 27.6337 90.2223 27.319 91.1638C27.0043 92.0007 48.8221 104.136 48.8221 104.136L44.4166 111.668C44.4166 111.668 30.5707 109.994 15.0465 101.939C7.07458 97.7545 10.2214 65.2194 10.3263 64.8009C10.5361 64.3825 12.4241 50.4688 17.5639 50.4688Z" fill="#C46F06"/>
<path opacity="0.3" d="M54.3231 82.894C54.434 79.0056 54.1013 74.1962 54.8777 70.4102C55.4322 76.1404 56.3195 81.9731 57.7613 87.601L54.3231 82.894Z" fill="black"/>
<path opacity="0.3" d="M26.8178 91.245C25.8144 92.2743 25.3127 93.6123 25.3127 95.0532C25.3127 95.4649 25.3127 95.8766 25.2124 96.2883C25.1121 96.7 24.8111 97.1117 24.51 97.2146C24.0084 97.3176 23.4063 96.803 23.4063 96.2883C23.306 95.7737 23.5067 95.1562 23.7073 94.6415C24.3094 93.0977 25.2124 91.6567 26.7175 91.0392" fill="black"/>
<path opacity="0.2" d="M67.8611 76.2274C67.0018 77.2818 66.25 79.8122 66.3574 81.1829C66.4648 82.5535 66.787 82.8698 66.6796 84.2405C66.6796 84.4514 67.1093 84.5568 66.8944 84.7677C66.5722 84.9785 66.0352 84.7677 65.9278 84.3459C65.8204 83.9242 65.9278 83.5024 66.0352 83.0807C66.0352 83.6079 65.4982 84.0296 64.9612 83.8187C64.4242 83.7133 64.102 83.1861 63.9946 82.659C63.8872 82.1318 63.9946 81.6046 64.102 81.1829C64.3168 80.0231 64.639 78.8633 65.2834 77.9144C65.9278 76.9655 66.8944 76.122 68.0759 75.9111" fill="black"/>
<path d="M48.3112 105.17C48.3112 105.17 50.6867 105.07 51.9261 104.669C53.1655 104.268 55.2312 103.968 56.264 104.168C57.2968 104.368 59.8789 105.27 61.5314 105.771C63.184 106.273 64.5266 105.872 64.6299 106.573C64.7332 107.375 63.8037 108.277 62.1511 108.277C62.1511 108.277 64.0102 108.878 63.7004 109.279C63.3905 109.68 62.8741 110.582 62.0478 110.582C62.0478 110.582 61.9446 111.985 60.6019 112.085C60.6019 112.085 60.0855 113.187 57.8132 113.789C57.8132 113.789 58.0198 114.791 56.264 115.091C54.5082 115.392 44.6963 111.083 44.6963 111.083L48.3112 105.17Z" fill="#FFBE9D"/>
<path d="M153.686 119.576C152.854 119.89 143.672 122.296 141.485 126.477C139.299 130.658 144.713 200.373 144.713 200.373H162.724L161.579 138.392H146.466L153.686 119.576Z" fill="#3D4D55"/>
</svg>
