<svg width="232" height="210" viewBox="0 0 232 210" fill="none" xmlns="http://www.w3.org/2000/svg">
<path d="M147.622 202.485L147.52 195.194L160.6 194.872L160.907 205.595L160.089 205.702C156.512 206.024 141.695 206.989 139.345 206.345C136.586 205.488 147.622 202.485 147.622 202.485Z" fill="#91004B"/>
<path opacity="0.4" d="M141.722 203.811C141.722 203.811 137.738 204.994 138.262 205.586C138.786 206.177 154.092 205.783 160.907 205.093V204.797L142.98 205.388C142.98 205.487 142.56 203.91 141.722 203.811Z" fill="white"/>
<path d="M176.154 108.918C175.321 109.231 143.672 122.296 141.485 126.477C139.299 130.658 144.713 200.373 144.713 200.373H162.724L161.579 138.392L196.664 129.404L176.154 108.918Z" fill="#3D4D55"/>
<path d="M118.463 100.666H94.8937V92.4144H146.17H226.232V100.666H162.002H118.463Z" fill="#C4C4C4"/>
<path d="M101.115 92.4144L90.7678 53.2192H133.726L143.028 92.4144H101.115Z" fill="#263238"/>
<path d="M140.278 88.9763H101.793L92.8307 55.2822H131.526L140.278 88.9763Z" fill="#F5F5F5"/>
<path d="M194.989 11.5696L196.664 44.9771L182.014 46.3429L181.177 38.2536C181.177 38.2536 181.88 37.4036 176.722 35.6845C175.639 35.3233 173.783 29.8228 173.483 25.37C172.97 17.7836 172.596 8.52295 172.596 8.52295L194.989 11.5696Z" fill="#FFBE9D"/>
<path d="M171.967 10.6169C171.302 13.8662 175.516 15.9975 175.516 15.9975C175.56 27.9117 178.765 33.0525 187 41C187 41 188.088 38.3537 190.886 38.5673L194.003 38.6987C194.003 38.6987 202.774 37.0064 204 30.5C204.657 27.3566 204.734 22.6276 204.5 17.5001C201.5 -0.999978 187.5 1.00007 187.5 1.00007C180.645 0.689804 173.473 3.17381 171.967 10.6169Z" fill="#263238"/>
<path d="M181.536 4.39716C178.521 4.50074 175.405 4.7079 172.792 6.05448C170.179 7.40106 167.968 11.1301 168.571 13.9268C169.073 14.0304 169.576 14.2375 170.078 14.3411C170.279 14.0304 170.581 12.6838 170.782 12.2695C170.782 12.7874 170.983 14.134 170.983 14.6519C171.887 14.859 172.591 14.4447 173.395 14.6519C173.797 12.4766 174.601 10.405 175.706 8.54048" fill="#263238"/>
<path d="M170.477 74.9632L167.764 83.9605L151.28 80.0895C151.801 78.4156 156.392 67.849 161.087 56.0269C162.339 52.7837 164.425 49.9589 167.138 47.7619C169.851 45.5649 173.085 44.1002 176.423 43.5771C181.118 42.7401 185.813 42.217 190.612 42.217C198.959 42.3217 209.705 45.8787 211.374 54.0391C212.626 60.3163 209.809 70.5691 209.809 84.0651L211.792 112.417C193.534 115.87 183.935 116.183 172.354 102.374L174.65 88.9823L170.477 74.9632Z" fill="#CA005D"/>
<path d="M178 20.4878C178 22.1601 179.556 29.163 181 29.9991C182.341 30.9398 182.498 35.6433 182.911 37.3156C183.736 40.4512 179.713 42.8552 179.301 45.9908C178.991 48.2902 180.745 50.3806 181.776 52.4711C182.705 54.2479 183.117 56.1293 183.22 58.1152C183.323 60.1011 182.911 61.9824 182.086 63.8638C186.418 64.2819 190.75 64.5954 195.082 64.8045L198.073 58.8468L200.446 64.909C204.262 64.909 208.078 64.5954 211.792 63.9683C209.522 62.1915 209.419 58.8468 209.522 55.9202C209.625 52.9937 210.244 47.8722 208.285 45.7817C206.944 44.3185 204.881 43.5868 203.54 42.1235C201.58 40.0331 202.508 39.197 203.437 36.8975C204.571 34.18 204.881 31.2534 204.365 28.3268C203.953 25.5048 202.096 22.9963 200.755 20.4878C199.311 17.9793 199.208 16.2024 198.486 12.6487" fill="#263238"/>
<path d="M115.381 164.164L118.518 157.74L130.651 163.439L126.258 172.868L125.421 172.557C121.97 171.21 108.059 165.304 106.177 163.542C103.98 161.574 115.381 164.164 115.381 164.164Z" fill="#91004B"/>
<path opacity="0.4" d="M109.763 162.809C109.763 162.809 105.796 162.167 105.898 162.916C106.101 163.772 119.53 170.407 125.735 172.868L125.837 172.547L110.069 164.842C110.069 164.949 110.374 163.13 109.763 162.809Z" fill="white"/>
<path d="M200.885 105.919C200.885 105.919 145.795 94.3823 140.558 96.8994C135.217 99.4165 110.709 160.247 110.709 160.247L130.504 168.742L151.765 117.036C151.765 117.036 190.307 131.09 197.01 129.727C203.713 128.363 200.885 105.919 200.885 105.919Z" fill="#455A64"/>
<path opacity="0.2" d="M220.043 78.439C214.822 79.476 209.602 78.439 204.277 78.1279C201.04 77.9205 197.49 77.6094 194.984 79.5797C193 81.1352 192.165 83.8314 191.538 86.3202C190.285 91.7125 189.45 102.912 188.824 113.386C188.615 116.808 187.571 120.23 185.587 123.03C183.707 125.933 181.097 128.215 177.965 129.77C176.398 130.6 172.013 130.6 171.909 131.222L214.3 132.985L220.043 78.439Z" fill="black"/>
<path d="M41.9458 137.111H36.4447V199.686H41.9458V137.111Z" fill="#455A64"/>
<path d="M76.3274 139.861H2.06287C2.06287 137.695 2.89965 135.529 4.46862 133.982C5.93299 132.435 8.02495 131.61 10.2215 131.61H68.378C70.47 131.61 72.5619 132.435 74.1309 133.982C75.4907 135.529 76.3274 137.695 76.3274 139.861Z" fill="#263238"/>
<path d="M61.8872 205.187H61.1486C61.2541 202.211 60.7265 199.342 59.5658 196.579C58.5106 193.816 56.9279 191.371 54.8175 189.246C52.7072 187.121 50.3858 185.42 47.6424 184.357C44.8989 183.189 42.0499 182.657 39.0954 182.657C36.141 182.657 33.292 183.295 30.5485 184.357C27.8051 185.526 25.3782 187.227 23.3734 189.246C21.3685 191.265 19.6802 193.816 18.6251 196.579C17.5699 199.342 17.0423 202.211 17.0423 205.187H16.5147C16.4092 202.105 17.0423 199.129 18.0975 196.26C19.2582 193.391 20.8409 190.84 22.9513 188.715C25.0616 186.589 27.594 184.783 30.3375 183.614C33.081 182.445 36.141 181.807 39.0954 181.807C42.0499 181.807 45.1099 182.445 47.8534 183.614C50.5968 184.783 53.1293 186.483 55.2396 188.715C57.35 190.84 59.0382 193.497 60.0934 196.26C61.3596 199.129 61.8872 202.105 61.8872 205.187Z" fill="#455A64"/>
<path d="M19.8376 206.293C19.8376 207.043 19.6299 207.793 19.3184 208.329C19.0068 208.972 18.4876 209.4 17.9684 209.722C17.4492 210.043 16.7223 210.043 16.2031 209.936C15.5801 209.829 15.0609 209.4 14.6455 208.865C14.2302 208.329 13.9186 207.686 13.8148 206.936C13.7109 206.186 13.7109 205.436 14.0225 204.793C14.2302 204.15 14.6455 203.507 15.1647 203.079C15.6839 202.65 16.307 202.436 16.93 202.436C17.3454 202.436 17.7607 202.543 18.1761 202.757C18.5915 202.972 18.903 203.186 19.2145 203.615C19.526 203.936 19.7337 204.365 19.9414 204.793C19.7337 205.329 19.8376 205.757 19.8376 206.293Z" fill="#263238"/>
<path d="M64.6377 206.091C64.6377 206.727 64.4265 207.363 64.1096 207.893C63.7928 208.423 63.2647 208.847 62.7367 209.059C62.2086 209.271 61.4693 209.377 60.9412 209.271C60.3076 209.165 59.7795 208.847 59.357 208.423C58.9346 207.999 58.6178 207.363 58.5121 206.833C58.4065 206.197 58.4065 205.561 58.7234 205.031C58.9346 204.501 59.357 203.972 59.8851 203.654C60.4132 203.336 61.0469 203.124 61.6805 203.124C62.5254 203.124 63.3703 203.442 63.8984 204.078C64.3209 204.395 64.6377 205.243 64.6377 206.091Z" fill="#455A64"/>
<path d="M0 75.9228V121.971C0 124.908 1.15179 127.635 3.14124 129.733C5.13069 131.831 7.95781 132.985 10.7849 132.985H46.0715L41.255 76.0277C41.255 74.769 40.7314 73.5103 39.7891 72.5662C38.8467 71.6222 37.6949 71.0977 36.3337 71.0977H4.81657C3.56007 71.0977 2.30358 71.6222 1.3612 72.5662C0.52354 73.3005 0 74.5592 0 75.9228Z" fill="#263238"/>
<path d="M46.6109 78.9671C47.4192 72.2945 48.5507 66.6044 48.5507 66.6044H63.4221C63.4221 66.6044 61.5874 75.0767 61.9916 77.0337C62.3472 78.747 62.0724 79.8788 69.5808 79.9967C70.0254 79.6666 70.68 80.2167 71.2539 79.7295C71.767 79.2786 72.1986 78.7473 72.5309 78.1576C72.9777 77.4522 73.323 76.6906 73.5573 75.8941C73.5886 75.7469 73.6626 75.6116 73.7706 75.504C73.8785 75.3965 74.0159 75.3213 74.1665 75.2874C74.317 75.2535 74.4744 75.2623 74.62 75.3127C74.7656 75.3631 74.8933 75.4531 74.9879 75.5719C75.287 76.2006 74.9879 78.2833 73.5169 80.2875C72.046 82.2916 75.8366 81.2542 77.2025 80.8926C78.5684 80.5311 82.8601 79.6351 83.3046 79.9652C83.9593 80.4604 83.5471 81.2385 82.1731 81.5371C80.7991 81.8358 76.7337 83.109 76.96 83.832C77.1863 84.5551 84.129 82.6296 84.129 82.6296C84.129 82.6296 85.5515 81.9772 85.8344 82.7946C86.3436 84.2643 78.8108 85.7497 78.0834 85.8755C77.5823 85.9619 77.8006 86.74 78.334 86.6221C78.8674 86.5042 85.2201 84.5551 85.7535 86.0484C86.1657 87.1958 79.5706 87.3294 78.4795 88.4612C77.3884 89.5929 83.4743 87.8482 83.8219 88.9563C83.9512 89.3729 81.3972 89.5615 77.7763 90.0645C74.0374 90.4112 70.2805 90.5398 66.5257 90.4496C58.0797 90.8976 57.3362 91.5027 50.9673 91.0626C43.5396 90.6304 46.328 81.262 46.6109 78.9671Z" fill="#FFAC95"/>
<path d="M35.8587 15.8766C40.1971 14.1701 44.6713 17.1251 46.8977 21.1849C49.1242 25.2448 49.8077 30.1608 51.0143 34.7947C52.2209 39.4285 54.3398 44.1801 58.3319 46.0202C57.1032 47.8035 55.5085 49.2498 53.698 50.2229C51.8876 51.196 49.9208 51.6639 47.9831 51.5824C46.0454 51.5009 44.2005 50.8728 42.6222 49.7573C41.0439 48.6417 39.784 47.0754 38.9613 45.2058C39.8355 46.4875 33.9367 36.2437 34.1865 37.8658C34.1865 37.8658 35.7505 53.4043 35.1555 53.3206C35.6541 53.6571 34.5605 53.237 35.1555 53.3206C32.7044 52.0281 30.5509 50.1905 28.8186 47.9133C27.0863 45.6361 25.8092 42.9641 25.0607 40.0507C24.3122 37.1373 24.107 34.0398 24.4569 30.9361C24.8068 27.8323 25.7049 24.7834 27.0996 21.9643L27.2384 21.5905C28.5692 18.8069 29.7518 21.0243 32.1864 19.3658" fill="#465058"/>
<path d="M11.7315 85.5777C12.5473 78.636 13.6086 72.7572 13.6086 72.7572H28.1814C28.1814 72.7572 26.3678 81.5631 26.7717 83.5991C27.1281 85.3815 55.371 86.5589 62.7287 86.6815C63.1722 86.3381 63.8058 86.9105 64.376 86.4036C64.8788 85.9345 65.3018 85.3818 65.6274 84.7683C66.062 84.0327 66.4002 83.2408 66.6333 82.4135C66.6651 82.2623 66.7378 82.1235 66.843 82.0132C66.9482 81.903 67.0815 81.8259 67.2275 81.7907C67.3735 81.7556 67.5261 81.764 67.6677 81.8149C67.8093 81.8658 67.9339 81.9571 68.0272 82.0783C68.3202 82.7324 68.0272 84.8991 66.5937 86.9841C65.1601 89.069 68.8588 87.9898 70.2052 87.6137C71.5516 87.2375 75.7492 86.3054 76.1848 86.6488C76.8184 87.164 76.4224 87.9734 75.076 88.2841C73.7296 88.5948 69.7458 89.9194 69.9597 90.6716C70.1735 91.4238 76.9848 89.4206 76.9848 89.4206C76.9848 89.4206 78.3787 88.742 78.6559 89.5923C79.1628 91.1213 71.7734 92.6666 71.0685 92.7975C70.5774 92.8874 70.7834 93.6969 71.3061 93.6151C71.8288 93.5333 78.0619 91.4647 78.5846 93.0182C78.9885 94.212 72.5179 94.351 71.4566 95.5284C70.3953 96.7058 76.3512 94.8906 76.6917 96.0435C76.8184 96.4768 74.3157 96.6731 70.7754 97.1964C67.1089 97.5571 63.4248 97.6909 59.7428 97.597C51.4743 98.0631 22.2256 98.6926 15.9846 98.2348C8.72189 97.7115 11.4543 87.9652 11.7315 85.5777Z" fill="#FFBE9D"/>
<path d="M13.0509 73.6432L15.8605 59.6593C17.9358 48.2079 34.1231 47.4244 34.1231 47.4244L46.8223 47.2186C46.8223 47.2186 56.2489 45.9603 62.0597 52.4576C68.0701 59.1845 64.0073 70.8179 64.0073 70.8179L56.4485 70.2719C57.5631 72.2037 58.1799 74.3783 58.2444 76.603C58.2444 80.3304 54.3173 82.0478 54.3173 82.0478L53.12 93.4042L57.111 111.725L15.6051 110.079C16.2955 103.933 18.3862 98.0222 21.7192 92.7948L20.9211 73.6115L13.0509 73.6432Z" fill="#D47600"/>
<path opacity="0.2" d="M54.0696 99.2185L17.1528 102.496L18.7305 97.9323L53.7031 97.3684L54.0696 99.2185Z" fill="black"/>
<path d="M11.7315 85.5777C12.5473 78.636 13.6086 72.7572 13.6086 72.7572H28.1814C28.1814 72.7572 26.3678 81.5631 26.7717 83.5991C27.1281 85.3815 55.371 86.5589 62.7287 86.6815C63.1722 86.3381 63.8058 86.9105 64.3761 86.4036C64.8788 85.9345 65.3018 85.3818 65.6274 84.7683C66.062 84.0327 66.4002 83.2408 66.6333 82.4135C66.6651 82.2623 66.7378 82.1235 66.843 82.0132C66.9482 81.903 67.0815 81.8259 67.2275 81.7907C67.3735 81.7556 67.5262 81.764 67.6677 81.8149C67.8093 81.8658 67.9339 81.9571 68.0272 82.0783C68.3202 82.7324 68.0272 84.8991 66.5937 86.9841C65.1601 89.069 68.8588 87.9898 70.2052 87.6137C71.5516 87.2375 75.7492 86.3054 76.1848 86.6488C76.8184 87.164 76.4224 87.9734 75.076 88.2841C73.7296 88.5948 69.7458 89.9194 69.9597 90.6716C70.1735 91.4238 76.9848 89.4206 76.9848 89.4206C76.9848 89.4206 78.3787 88.742 78.6559 89.5923C79.1628 91.1213 71.7734 92.6666 71.0685 92.7975C70.5775 92.8874 70.7834 93.6969 71.3061 93.6151C71.8288 93.5333 78.0619 91.4647 78.5846 93.0182C78.9885 94.212 72.5179 94.351 71.4566 95.5284C70.3953 96.7058 76.3512 94.8906 76.6917 96.0435C76.8184 96.4768 74.3157 96.6731 70.7754 97.1964C67.1089 97.5571 63.4248 97.6909 59.7428 97.597C51.4743 98.0631 22.2256 98.6926 15.9846 98.2348C8.72189 97.7115 11.4543 87.9652 11.7315 85.5777Z" fill="#EEA28D"/>
<path d="M45.4147 45.2711C45.4147 44.4858 45.4147 43.6952 45.4147 42.8993C45.4262 42.4455 46.8521 41.6388 46.8521 41.6388L47.8563 41C47.8563 41 50.0519 39.8196 50.7615 38.903C51.4712 37.9864 51.871 36.8769 51.9055 35.7284C52.108 31.8307 51.9946 23.8692 51.9055 20.7068C51.8971 20.2907 51.7708 19.885 51.5406 19.5348C51.3105 19.1845 50.9855 18.9033 50.6016 18.7223L43.9042 15.5599C43.5039 15.3701 43.0564 15.296 42.6144 15.3465C42.1725 15.3969 41.7545 15.5697 41.4099 15.8445L33.9755 21.869C33.7159 22.0865 33.5087 22.3574 33.3687 22.6621C33.2287 22.9669 33.1594 23.2981 33.1656 23.632L33.3519 45.3186C33.3472 45.7395 33.2218 46.1508 32.9899 46.5057C32.758 46.8606 32.429 47.1451 32.0399 47.3267L31.7484 47.469C31.4485 47.6182 31.1856 47.8294 30.9778 48.0879C30.7701 48.3464 30.6225 48.646 30.5455 48.9658C30.4684 49.2856 30.4636 49.618 30.5315 49.9398C30.5994 50.2616 30.7383 50.5651 30.9386 50.8291L38.0733 59.5259C39.2152 61.0439 47.3218 60.617 47.8563 58.8144C49.5326 53.1773 49.0953 53.794 49.6298 49.8488C49.6996 49.3193 49.5753 48.7829 49.2789 48.3343C48.9824 47.8857 48.533 47.554 48.0101 47.3979C47.5505 47.2497 46.1496 46.9651 45.8636 46.5839C45.5776 46.2026 45.4207 45.7437 45.4147 45.2711Z" fill="#FFB29D"/>
<path d="M46.2034 31.7176C46.0695 31.352 45.6009 31.5408 45.7301 31.9187C46.0294 32.732 46.6504 34.4464 45.398 34.2821C45.0761 34.2407 44.992 34.8459 45.3161 34.8894C45.8613 34.9606 46.4086 34.8967 46.6115 34.1921C46.8378 33.3904 46.4793 32.4527 46.2092 31.7171" fill="#E09C72"/>
<path d="M42.5671 37.0148C42.3159 36.9584 42.0711 36.8786 41.836 36.7766C41.8334 36.9206 41.8899 37.0593 41.993 37.1624C42.3916 37.7008 42.9269 38.1305 43.548 38.4102C44.0363 38.6447 44.5833 38.743 45.1279 38.694C45.8528 38.6112 46.5345 38.3121 47.0782 37.8383C47.3077 37.6457 47.5184 37.424 47.7374 37.217C47.8469 37.1078 47.9398 36.9842 48.0135 36.8499C47.8345 36.8512 47.656 36.869 47.4802 36.903C47.3218 37.0712 47.1396 37.217 46.9392 37.3361C46.7163 37.5176 46.4501 37.642 46.1651 37.6977C45.7004 37.7759 45.2307 37.8226 44.7597 37.8375C44.3147 37.862 43.8699 37.799 43.452 37.6523C43.2658 37.6091 43.0911 37.5292 42.9387 37.4176C42.7863 37.3061 42.6594 37.1653 42.566 37.0039" fill="#353535"/>
<path d="M42.4795 37.0719C42.5683 37.2182 42.6918 37.3467 42.8424 37.4494C42.993 37.552 43.1675 37.6267 43.355 37.6688C43.774 37.8077 44.2236 37.8721 44.6767 37.8581C45.1559 37.8531 45.6349 37.8196 46.1101 37.7578C46.4018 37.7129 46.6771 37.6062 46.9105 37.4476C47.1187 37.3444 47.3094 37.2169 47.4769 37.069C47.6443 36.9211 47.5521 36.9275 47.4599 36.934C46.5737 37.0423 45.4231 37.2452 44.5311 37.2338C43.8957 37.25 42.9716 37.0579 42.3527 36.9475C42.299 36.9387 42.2444 36.934 42.4799 37.0778" fill="white"/>
<path d="M41.7508 30.3628C41.7597 30.4718 41.7466 30.5815 41.7122 30.6855C41.6778 30.7894 41.6228 30.8855 41.5505 30.9681C41.4781 31.0507 41.3899 31.1181 41.291 31.1663C41.1921 31.2146 41.0845 31.2427 40.9745 31.2491C40.7527 31.2584 40.5359 31.1822 40.3695 31.0364C40.2031 30.8906 40.1001 30.6864 40.0819 30.4667C40.0727 30.3575 40.0856 30.2476 40.1198 30.1434C40.1541 30.0393 40.209 29.9429 40.2814 29.8601C40.3537 29.7773 40.442 29.7097 40.541 29.6613C40.6401 29.6129 40.7478 29.5847 40.858 29.5783C41.0809 29.5678 41.299 29.6437 41.4664 29.79C41.6338 29.9363 41.7373 30.1415 41.7551 30.3624" fill="#353535"/>
<path d="M48.9802 29.6507C48.9888 29.8153 48.9486 29.9787 48.8648 30.1205C48.781 30.2624 48.6572 30.3764 48.5089 30.4482C48.3606 30.5201 48.1944 30.5467 48.031 30.5246C47.8677 30.5025 47.7145 30.4328 47.5907 30.3241C47.4668 30.2155 47.3777 30.0727 47.3346 29.9137C47.2915 29.7547 47.2962 29.5865 47.3482 29.4301C47.4002 29.2738 47.4971 29.1362 47.6269 29.0347C47.7567 28.9331 47.9136 28.8721 48.0779 28.8592C48.3027 28.8453 48.524 28.921 48.6931 29.0698C48.8623 29.2186 48.9656 29.4283 48.9804 29.653" fill="#353535"/>
<path d="M38.8647 29.1962C38.9669 28.4062 39.3303 27.8738 39.9732 27.5687C40.2857 27.4129 40.6304 27.3317 40.9798 27.3315C41.1225 27.3273 41.2613 27.3778 41.3674 27.4725C41.4141 27.5191 41.4496 27.5754 41.4715 27.6375C41.4933 27.6995 41.5008 27.7656 41.4935 27.831C41.4934 27.8967 41.4794 27.9618 41.4525 28.0219C41.4255 28.082 41.3861 28.1359 41.3369 28.18C41.2877 28.224 41.2298 28.2574 41.1668 28.2779C41.1039 28.2984 41.0373 28.3055 40.9714 28.2988C40.9384 28.3021 40.9078 28.3052 40.8734 28.2944C40.8489 28.2946 40.8245 28.297 40.8004 28.3017C40.6136 28.296 40.4281 28.3344 40.259 28.4137C40.0898 28.493 39.942 28.6108 39.8275 28.7577C39.7252 28.9086 39.6501 29.076 39.6055 29.2524L39.5439 29.4949C39.5228 29.5696 39.4762 29.6348 39.412 29.6791C39.3478 29.7234 39.2701 29.7442 39.1922 29.7378L39.1427 29.7427C39.0648 29.7327 38.9931 29.6952 38.9406 29.6371C38.8882 29.5791 38.8584 29.5043 38.8566 29.4262C38.8548 29.381 38.8567 29.3358 38.8622 29.2909L38.8647 29.1962Z" fill="#353535"/>
<path d="M47.4577 27.2631C47.5961 27.2232 47.7405 27.2023 47.8853 27.2012L47.9795 27.1918C48.2083 27.1699 48.4385 27.1858 48.6568 27.2387C49.4342 27.4052 49.7577 27.8822 49.9505 28.2812C49.9699 28.3246 49.9792 28.3709 49.978 28.4178C49.9793 28.4798 49.9547 28.541 49.9084 28.5909C49.8622 28.6407 49.7971 28.6761 49.7245 28.6908C49.6887 28.7002 49.6513 28.7039 49.6143 28.7018C49.5675 28.7016 49.5217 28.6929 49.48 28.6763C49.4384 28.6597 49.4018 28.6357 49.3728 28.6058C49.3328 28.5644 49.2973 28.52 49.2668 28.4731C49.2057 28.3637 49.1245 28.2634 49.0261 28.1757C48.911 28.0588 48.7589 27.9715 48.5861 27.9232C48.4133 27.8749 48.2264 27.8674 48.0455 27.9016L47.9065 27.927C47.8215 27.9355 47.7358 27.9595 47.651 27.9699C47.5365 27.9945 47.4166 27.982 47.3158 27.9348C47.215 27.8877 47.1409 27.8094 47.1085 27.7161C47.0956 27.668 47.0944 27.618 47.1051 27.5689C47.1158 27.5198 47.1381 27.4726 47.1706 27.4302C47.2032 27.3878 47.2454 27.3509 47.2946 27.3219C47.3439 27.2929 47.3993 27.2723 47.4575 27.2612" fill="#353535"/>
<path d="M46.9038 41.3737C44.462 42.1971 41.2154 41.4078 38.6689 40.7001C39.7791 41.7402 41.1474 42.4123 42.5899 42.626C44.0325 42.8397 44.4104 43.1893 45.6689 42.5L46.9038 41.3737Z" fill="#ECA692"/>
<path d="M25.6312 22.6257C28.6438 12.44 37.6861 12.3457 39.5033 12.3457C41.3204 12.3457 44.8431 11.2917 49.7844 16.357C50.5274 17.1022 51.1606 17.9468 51.6653 18.866C52.758 20.2207 53.5116 21.8106 53.8649 23.5066C54.093 24.3025 54.1312 25.1398 53.9765 25.9527C53.8889 25.9527 53.8809 25.0246 53.4824 23.5931C53.259 22.7557 52.9409 21.9457 52.534 21.1785C52.9598 23.0618 52.7844 25.029 52.0319 26.8101L50.2466 26.4404L43.8707 24.3089C44.2179 22.4416 43.9556 20.5138 43.1216 18.8031C41.671 26.2044 33.4462 26.9674 33.4462 26.9674L33.8686 40.9677C25.4125 39.1901 25.1052 28.2258 25.1689 25.9527C25.2435 24.8344 25.398 23.7226 25.6312 22.6257Z" fill="#4D5A64"/>
<path d="M49.8546 206.536L49.149 171.403L62.6029 169.182L60.4941 206.377L49.8546 206.536Z" fill="#F3A995"/>
<path d="M61.0648 206.686L61.0252 205.449L49.3551 205.743L49.4265 209.827H50.1479C53.3588 209.93 66.4797 210.136 68.6123 209.438C70.9828 208.693 61.0648 206.686 61.0648 206.686Z" fill="#665F59"/>
<path d="M64.918 209.541C65.0082 209.191 65.133 208.851 65.2906 208.526C65.494 208.235 65.7308 207.969 65.9962 207.733C65.6482 207.878 65.3659 208.146 65.2034 208.487C64.9864 208.793 64.8852 209.167 64.918 209.541V209.541Z" fill="#263238"/>
<path d="M64.6562 206.306L63.7366 170.697L77.2539 169.182L75.4939 206.218L64.6562 206.306Z" fill="#FFB29D"/>
<path d="M16.1448 105.266C29.3212 105.353 54.9761 106.617 68.105 107.822C73.3375 108.298 78.9981 109.163 82.645 112.954C86.0541 116.506 86.8469 121.749 87.4732 126.634L93.1814 171.3C74.9511 173.164 56.5533 172.58 38.4779 169.563L38.8584 136.365L39.1438 131.162C39.1438 131.162 26.1972 133.058 18.8559 129.846C11.5147 126.634 10.6959 114.879 16.1448 105.266Z" fill="#91004B"/>
<path d="M76.0648 206.67V205.433L64.3947 205.727L64.466 209.811H65.1875C68.3984 209.914 81.5272 210.12 83.6519 209.422C85.9907 208.677 76.0648 206.67 76.0648 206.67Z" fill="#665F59"/>
<path d="M31.6313 131.724C31.2136 131.61 30.9003 131.61 30.4827 131.61H27.3501C24.7396 131.61 21.085 131.61 17.1171 131.61C15.1331 131.61 13.2536 131.61 11.4785 131.724C9.91219 131.724 8.34591 131.839 6.88405 132.297C5.83986 132.641 4.90009 133.214 4.16916 134.016C3.96033 134.246 3.75149 134.475 3.54265 134.704C3.43823 134.933 3.43823 135.048 3.43823 135.048C3.43823 135.048 3.75149 134.704 4.27358 134.131C5.10893 133.329 6.0487 132.87 7.09288 132.526C8.55474 132.183 10.121 131.953 11.5829 132.068H17.2215C21.1894 132.068 24.8441 131.953 27.4545 131.953L30.5871 131.839C30.9003 131.839 31.2136 131.724 31.6313 131.724Z" fill="#455A64"/>
<path d="M163.657 88.9763H109.334V92.4144H163.657V88.9763Z" fill="#263238"/>
<path d="M167.783 83.9536L167.052 88.1212C165.589 92.3905 161.725 93.1021 157.024 93.1021H126.525V86.5965L154.309 82.8354L156.293 81.4123L167.783 83.9536Z" fill="#FFBE9D"/>
<path d="M130.312 61.4709L132.714 71.0978H107.235L104.521 61.4709H130.312Z" fill="#E0E0E0"/>
<path d="M93.4551 57.3451H131.338L130.714 55.2822H92.8307L93.4551 57.3451Z" fill="#EBEBEB"/>
<path d="M123.189 85.1102L120.791 84.0447C120.791 84.0447 118.185 79.143 117.56 79.3561C116.934 79.5692 116.83 80.9545 117.872 83.1922L114.641 82.3397C114.641 82.3397 107.656 85.5365 107.969 85.8561C108.073 86.0693 108.177 86.2824 108.386 86.3889C108.594 86.4955 108.803 86.7086 109.011 86.7086C109.22 86.7086 109.533 86.8152 109.741 86.7086C109.95 86.7086 110.158 86.602 110.367 86.3889C111.93 85.643 113.911 84.7906 113.911 84.7906L117.664 85.8561L112.764 86.4955L108.177 90.5447C108.594 90.8644 109.116 90.9709 109.637 90.9709C110.158 90.9709 110.679 90.7578 110.992 90.4381L122.876 92.889L126.525 93.1021V86.4955L123.189 85.1102Z" fill="#FFBE9D"/>
<path d="M110.709 91.0391C110.709 91.0391 111.019 90.5864 111.431 89.9072C111.638 89.5676 111.947 89.2281 112.256 89.0017C112.669 88.7753 113.082 88.5489 113.494 88.5489C114.629 88.4357 115.763 88.2094 116.898 87.6434C115.763 87.5302 114.526 87.6434 113.391 87.983C112.875 87.983 112.463 88.2094 112.05 88.5489C111.741 88.8885 111.431 89.2281 111.225 89.6808C110.812 90.4732 110.709 91.0391 110.709 91.0391Z" fill="#EB996E"/>
<path d="M112.772 91.0391C112.772 91.0391 112.878 90.8195 113.195 90.8195C113.513 90.7463 114.147 90.7463 114.676 90.6731C115.417 90.6731 116.157 90.5999 116.898 90.5266C116.157 90.3802 115.417 90.307 114.676 90.3802C114.147 90.3802 113.618 90.5266 113.089 90.5999C112.984 90.5999 112.878 90.6731 112.878 90.7463C112.772 90.8195 112.772 90.8927 112.772 90.8927C112.772 90.9659 112.772 91.0391 112.772 91.0391Z" fill="#EB996E"/>
<path d="M183.599 198.31H187.724V135.735H183.599V198.31Z" fill="#263238"/>
<path d="M231.733 76.0194V121.99C231.733 124.922 230.589 127.644 228.612 129.739C226.636 131.833 223.931 132.985 221.122 132.985H191.162V76.0194C191.162 74.7628 191.683 73.5062 192.515 72.5637C193.451 71.6213 194.595 71.0977 195.844 71.0977H226.948C228.196 71.0977 229.444 71.6213 230.277 72.5637C231.213 73.4015 231.733 74.6581 231.733 76.0194Z" fill="#263238"/>
<path d="M149.217 135.735H223.481C223.481 133.569 222.645 131.403 221.076 129.856C219.507 128.309 217.519 127.484 215.323 127.484H157.271C155.179 127.484 153.087 128.309 151.518 129.856C149.949 131.403 149.217 133.569 149.217 135.735Z" fill="#263238"/>
<path d="M191.162 126.796C191.162 126.899 191.162 127.001 191.162 127.206C191.162 127.616 191.162 127.923 191.267 128.333C191.581 129.664 192.209 130.894 193.152 131.713C193.78 132.328 194.617 132.738 195.455 132.84C196.397 132.942 197.339 133.045 198.282 132.942H204.772C209.379 132.942 213.567 132.942 216.603 132.84L220.162 132.738H221.104C221.209 132.738 221.314 132.738 221.418 132.738C221.314 132.738 221.209 132.738 221.104 132.738H220.162L216.603 132.635C213.567 132.635 209.379 132.533 204.772 132.533H198.282C197.339 132.533 196.397 132.533 195.455 132.43C194.617 132.328 193.884 131.918 193.256 131.406C192.314 130.586 191.581 129.46 191.267 128.23C191.162 127.308 191.267 126.796 191.162 126.796Z" fill="#263238"/>
<path d="M162.969 203.811H163.702C163.598 200.923 164.226 198.035 165.273 195.25C166.32 192.568 167.995 190.093 170.09 188.03C172.184 185.967 174.592 184.317 177.419 183.182C180.142 182.048 183.073 181.429 186.005 181.429C188.937 181.429 191.869 182.048 194.591 183.182C197.314 184.317 199.827 185.967 201.921 188.03C204.015 190.093 205.586 192.568 206.737 195.25C207.785 197.932 208.413 200.82 208.308 203.811H209.041C209.041 200.82 208.413 197.829 207.261 195.147C206.109 192.362 204.434 189.887 202.235 187.824C200.036 185.761 197.523 184.007 194.801 182.873C191.974 181.738 189.042 181.119 186.005 181.119C182.969 181.119 179.932 181.738 177.21 182.873C174.383 184.007 171.87 185.658 169.776 187.824C167.681 189.99 165.901 192.465 164.75 195.147C163.598 197.829 162.969 200.82 162.969 203.811Z" fill="#455A64"/>
<path d="M204.915 204.716C204.915 205.352 205.128 205.988 205.554 206.518C205.98 207.048 206.512 207.472 207.258 207.684C207.896 207.896 208.642 208.002 209.387 207.896C210.132 207.79 210.771 207.472 211.304 207.048C211.836 206.624 212.155 205.988 212.368 205.458C212.581 204.928 212.475 204.186 212.155 203.656C211.836 203.126 211.41 202.596 210.771 202.278C210.132 201.96 209.387 201.748 208.748 201.748C208.216 201.748 207.79 201.854 207.364 201.96C206.938 202.172 206.512 202.384 206.193 202.702C205.873 203.02 205.554 203.338 205.341 203.762C205.022 203.868 204.915 204.292 204.915 204.716Z" fill="#263238"/>
<path d="M159.531 204.23C159.531 204.98 159.744 205.73 160.17 206.266C160.596 206.909 161.128 207.337 161.874 207.659C162.513 207.98 163.258 207.98 164.003 207.873C164.748 207.766 165.387 207.337 165.92 206.802C166.452 206.266 166.772 205.623 166.984 204.873C167.197 204.123 167.091 203.373 166.772 202.73C166.452 202.087 166.026 201.444 165.387 201.016C164.748 200.587 164.003 200.373 163.364 200.373C162.832 200.373 162.406 200.48 161.98 200.694C161.554 200.909 161.128 201.123 160.809 201.552C160.49 201.873 160.17 202.302 159.957 202.73C159.638 203.266 159.531 203.694 159.531 204.23Z" fill="#263238"/>
<path d="M153.686 119.576C152.854 119.89 143.672 122.296 141.485 126.477C139.299 130.658 144.713 200.373 144.713 200.373H162.724L161.579 138.392H146.466L153.686 119.576Z" fill="#3D4D55"/>
</svg>
