<svg width="191" height="72" viewBox="0 0 191 72" fill="none" xmlns="http://www.w3.org/2000/svg">
<rect width="191" height="72" fill="#EFEFEF"/>
<g clip-path="url(#clip0_1_3)">
<g clip-path="url(#clip1_1_3)">
<g clip-path="url(#clip2_1_3)">
<rect width="360" height="1414" transform="translate(-85 -48)" fill="#CA005D"/>
<path d="M124.397 7.67196C123.651 7.81373 118.812 6.91378 118.812 6.91378C118.812 6.91378 122.418 8.76299 122.511 9.26844C122.603 9.77389 121.087 12.8744 121.087 12.8744C121.087 12.8744 123.651 10.2608 124.434 9.60746C124.988 9.13899 126.085 9.15132 126.899 9.28077C130.58 9.81314 134.334 9.16577 137.624 7.43156C141.094 5.644 141.112 5.28648 141.112 5.28648C141.112 5.28648 138.45 3.56056 133.876 4.23243C128.779 4.97212 125.149 7.51786 124.397 7.67196Z" fill="#91004B"/>
<path d="M36.0479 65.928C35.1603 66.1684 30.3281 65.0528 30.3281 65.0528C30.3281 65.0528 33.9153 67.2533 34.2235 67.6848C34.5317 68.1163 33.564 71.9996 33.564 71.9996C33.564 71.9996 35.8075 68.9176 36.6458 67.9868C37.182 67.4321 38.4948 67.5615 39.1605 67.6601C43.6931 68.4 48.3357 67.3454 52.1039 64.7199C55.9808 61.9523 55.9192 61.4221 55.9192 61.4221C55.9192 61.4221 52.2827 58.9565 46.7786 60.0291C41.2746 61.1016 36.917 65.6692 36.0171 65.9157" fill="#91004B"/>
<path d="M161.859 6.53798C160.571 6.72906 153.976 4.35592 153.976 4.35592C153.976 4.35592 158.636 8.02351 159.006 8.67073C159.376 9.31795 157.36 14.6437 157.36 14.6437C157.36 14.6437 161.021 10.7049 162.39 9.53369C163.222 8.82483 165.077 9.23782 165.958 9.48438C166.84 9.73094 175.604 12.4739 184.615 7.51806C190.489 4.28195 190.495 3.52377 190.495 3.52377C190.495 3.52377 185.811 -0.56297 177.909 0.06576C170.008 0.69449 163.117 6.32224 161.884 6.51332" fill="#FFA100"/>
<path d="M6.46556 56.2751C5.18354 56.6326 0 54.5553 0 54.5553C0 54.5553 5.04794 57.5264 5.23285 58.0503C5.41775 58.5743 2.07711 63.4254 2.07711 63.4254C2.07711 63.4254 5.41159 60.5468 6.7799 59.4311C8.01261 58.4448 10.928 58.0812 12.6291 58.1983C14.3302 58.3154 21.1594 59.2955 29.8377 53.5198C35.5143 49.7412 35.4589 49.057 35.4589 49.057C35.4589 49.057 30.4479 46.0613 22.5647 47.7811C14.6816 49.5008 7.74141 55.8868 6.46556 56.2504" fill="#FFA100"/>
<path d="M61.9802 51.9488C61.1542 52.0351 58.2266 50.1736 58.2266 50.1736C58.2266 50.1736 60.9693 52.5591 61.0248 52.8981C61.0803 53.2371 58.5039 55.826 58.5039 55.826C58.5039 55.826 60.8584 54.4453 61.8199 53.909C62.6705 53.4467 64.501 53.5576 65.518 53.835C66.535 54.1124 70.603 55.4623 76.5508 52.9043C80.4338 51.2338 80.477 50.8147 80.477 50.8147C80.477 50.8147 77.7588 48.4169 72.7479 48.5895C67.7369 48.762 62.7876 51.8749 61.974 51.9488" fill="#FFA100"/>
<path d="M36.544 36.0881C35.2326 36.6866 33.8065 36.9916 32.3651 36.9819C26.8487 36.9819 22.0781 34.0602 22.0781 26.5462C22.0781 19.0323 27.009 15.9503 32.5192 15.9503C33.8789 15.9453 35.233 16.1257 36.544 16.4866V19.9816C35.2585 19.438 33.8778 19.1551 32.4822 19.1494C28.6053 19.1494 25.8317 21.1219 25.8317 26.4599C25.8317 31.798 28.858 33.7335 32.5192 33.7335C33.9007 33.7639 35.2729 33.4991 36.544 32.9568V36.0881Z" fill="white"/>
<path d="M50.8415 29.5296C50.8415 33.9122 48.3021 36.9265 44.3945 36.9265C40.4868 36.9265 37.9844 33.8876 37.9844 29.5296C37.9844 25.1717 40.5484 22.1328 44.3945 22.1328C48.2405 22.1328 50.8415 25.0546 50.8415 29.5296ZM41.5284 29.5296C41.5284 32.5377 42.8412 34.0294 44.4869 34.0294C46.1326 34.0294 47.3221 32.661 47.3221 29.5296C47.3221 26.5401 46.0093 25.0484 44.3328 25.0484C42.6563 25.0484 41.5284 26.3921 41.5284 29.5296Z" fill="white"/>
<path d="M71.3176 36.5321H68.0386V27.619C68.0386 25.7698 67.3236 25.0794 65.8197 25.0794C64.963 25.0794 63.681 25.4369 63.681 26.1211C63.681 26.454 63.7673 26.8731 63.7673 27.3539V36.5321H60.4821V27.619C60.4821 25.7698 59.7425 25.0794 58.4605 25.0794C57.351 25.0794 56.2478 25.3814 56.2478 26.3923V36.5321H52.9688V22.848C55.8656 22.848 56.7901 22.1885 58.9351 22.1885C60.8766 22.1885 61.647 22.6446 62.362 23.2672C63.6355 22.5219 65.0978 22.1622 66.5717 22.2316C69.4069 22.2316 71.3176 23.5199 71.3176 27.1628V36.5321Z" fill="white"/>
<path d="M73.7344 43.0717C73.796 39.9404 73.8515 37.7337 73.8515 33.8257V22.6319C75.8855 22.6319 77.1613 22.1572 79.1645 22.1572C82.7763 22.1572 85.7903 24.7523 85.7903 29.6157C85.7903 34.3003 82.5667 36.8646 79.5836 36.8646C78.7169 36.929 77.8525 36.7129 77.1182 36.2482V43.0717H73.7344ZM78.8933 24.9557C77.79 24.9557 77.1058 25.4365 77.1058 25.9111V33.0737C77.1058 33.5853 77.8824 34.0291 78.8933 34.0291C80.9827 34.0291 82.1784 32.6607 82.1784 29.554C82.1784 26.4474 80.9827 24.9557 78.8933 24.9557Z" fill="white"/>
<path d="M94.6914 27.3234V26.7809C94.6914 25.6529 93.9086 24.9317 92.5157 24.9317C91.0056 24.9418 89.5161 25.2826 88.1519 25.9303V22.8483C89.6506 22.3933 91.2083 22.1627 92.7745 22.1641C95.9981 22.1641 97.9951 23.477 97.9951 26.7563C97.9951 29.0554 97.9149 31.0711 97.9149 33.2655C97.9149 34.4305 97.9704 35.7311 98.0567 36.4584C95.6714 36.4584 94.3894 36.8406 92.3616 36.8406C88.8977 36.8406 87.1719 35.2318 87.1719 32.5258C87.1719 29.8198 89.4401 27.4836 94.6914 27.3357V27.3234ZM94.6914 29.8013C91.9671 29.8937 90.5742 30.732 90.5742 32.31C90.5742 33.3764 91.4062 34.1284 92.6883 34.1284C93.9703 34.1284 94.4449 33.8017 94.5681 33.3764C94.6813 32.1883 94.7225 30.9944 94.6914 29.8013Z" fill="white"/>
<path d="M100.555 36.5322V22.5707H103.636V23.8898C104.032 23.3068 104.572 22.837 105.205 22.5268C105.837 22.2165 106.539 22.0766 107.242 22.1208C107.752 22.1251 108.261 22.1663 108.765 22.2441V25.7082C108.05 25.4299 107.288 25.2958 106.521 25.3137C105.177 25.3137 103.988 25.85 103.926 27.015C103.871 29.3758 103.871 32.9818 103.871 36.5261L100.555 36.5322Z" fill="white"/>
<path d="M113.427 22.5705H117.452V25.4368H113.427C113.427 28.3894 113.396 30.4173 113.396 32.5994C113.396 33.6411 114.013 34.0603 115.122 34.0603C115.932 34.0895 116.736 33.9045 117.452 33.524V36.4088C116.43 36.7757 115.351 36.9553 114.266 36.9389C111.874 36.9389 110.117 35.8417 110.117 33.2405V20.0371L113.427 18.0708V22.5705Z" fill="white"/>
<path d="M126.676 27.3234V26.7809C126.676 25.6529 125.905 24.9317 124.5 24.9317C122.992 24.9419 121.504 25.2828 120.142 25.9303V22.8483C121.643 22.392 123.203 22.1614 124.771 22.1641C127.989 22.1641 129.986 23.477 129.986 26.7563C129.986 29.0555 129.899 31.0711 129.899 33.2655C129.891 34.3318 129.942 35.3978 130.053 36.4584C127.662 36.4584 126.355 36.8406 124.352 36.8406C120.888 36.8406 119.156 35.2318 119.156 32.5258C119.156 29.8198 121.431 27.4836 126.676 27.3357V27.3234ZM126.676 29.8013C123.964 29.8938 122.559 30.7321 122.559 32.3101C122.559 33.3764 123.397 34.1284 124.679 34.1284C125.961 34.1284 126.435 33.8017 126.528 33.3764C126.644 32.1885 126.686 30.9944 126.651 29.8013" fill="white"/>
<path d="M150.896 36.5322H147.611V27.619C147.611 25.7698 146.896 25.0856 145.404 25.0856C144.535 25.0856 143.253 25.4369 143.253 26.1211C143.284 26.454 143.345 26.8731 143.345 27.3539V36.5322H140.06V27.619C140.06 25.7698 139.314 25.0794 138.032 25.0794C136.929 25.0794 135.826 25.3815 135.826 26.3924V36.5322H132.547V22.848C135.487 22.848 136.393 22.2316 138.569 22.2316C140.504 22.2316 141.281 22.6878 142.002 23.3103C143.259 22.5553 144.709 22.1806 146.174 22.2316C149.004 22.2316 150.92 23.5199 150.92 27.1629L150.896 36.5322Z" fill="white"/>
<path d="M165.834 29.5232C165.834 33.912 163.294 36.92 159.387 36.92C155.479 36.92 152.977 33.8812 152.977 29.5232C152.977 25.1653 155.541 22.1572 159.387 22.1572C163.233 22.1572 165.834 25.0851 165.834 29.5232ZM156.521 29.5232C156.521 32.5374 157.833 34.0291 159.473 34.0291C161.112 34.0291 162.308 32.6607 162.308 29.5232C162.308 26.5398 160.995 25.0482 159.325 25.0482C157.655 25.0482 156.521 26.3919 156.521 29.5232Z" fill="white"/>
<path d="M172.65 22.1579C173.738 22.1394 174.824 22.2785 175.873 22.5709V25.6529C174.821 25.1871 173.684 24.9417 172.533 24.9317C171.398 24.9317 170.684 25.4125 170.684 26.1337C170.684 28.2787 176.527 28.0692 176.527 32.3655C176.527 34.6893 174.856 36.9269 170.979 36.9269C169.748 36.9488 168.521 36.7889 167.337 36.4522V33.5551C168.445 33.9181 169.603 34.1094 170.77 34.1222C172.354 34.1222 173.161 33.5058 173.161 32.5997C173.161 30.2389 167.281 30.5964 167.281 26.5097C167.281 23.8283 169.309 22.1579 172.65 22.1579Z" fill="white"/>
<path d="M91.9219 61.5705V45.6118H100.206V47.535C98.7819 47.4364 96.8897 47.4117 94.4304 47.4117C94.2147 47.4117 94.0976 47.5535 94.0976 47.7939C94.0976 48.7431 94.0483 50.4444 94.0483 52.3614H99.5154V54.2106H94.0483V61.552L91.9219 61.5705Z" fill="white"/>
<path d="M104.52 47.2945C104.53 47.4657 104.504 47.637 104.443 47.7975C104.383 47.958 104.29 48.1041 104.17 48.2265C104.05 48.3489 103.905 48.4449 103.746 48.5084C103.587 48.5719 103.416 48.6014 103.245 48.5951C102.906 48.5951 102.582 48.4607 102.342 48.2214C102.103 47.9821 101.969 47.6576 101.969 47.3192C101.969 46.9808 102.103 46.6562 102.342 46.417C102.582 46.1777 102.906 46.0432 103.245 46.0432C103.41 46.0374 103.575 46.065 103.73 46.1244C103.884 46.1838 104.025 46.2736 104.144 46.3887C104.263 46.5038 104.358 46.6416 104.423 46.7941C104.487 46.9465 104.521 47.1104 104.52 47.276V47.2945ZM104.354 50.5923C104.286 53.9024 104.262 58.137 104.262 61.5519H102.246V50.5861L104.354 50.5923Z" fill="white"/>
<path d="M108.226 53.2543V61.5696H106.211V50.8688C108.51 50.8688 108.818 50.3018 110.994 50.3018C113.028 50.3018 114.828 51.2942 114.828 54.0865V61.5696H112.812V54.444C112.812 52.7365 112.011 52.1263 110.47 52.1263C109.102 52.1263 108.226 52.6687 108.226 53.2543Z" fill="white"/>
<path d="M122.641 54.4199V53.8528C122.641 52.6693 121.908 52.0036 120.539 52.0036C119.424 52.0086 118.323 52.259 117.316 52.7371V50.8879C118.405 50.479 119.56 50.2701 120.724 50.2715C123.19 50.2715 124.656 51.2639 124.656 53.7727C124.656 55.6712 124.582 57.3724 124.582 59.1477C124.582 60.0969 124.632 60.8736 124.681 61.49C122.949 61.49 121.864 61.7982 120.441 61.7982C117.864 61.7982 116.539 60.4729 116.539 58.4573C116.539 56.2814 118.339 54.5062 122.641 54.4137V54.4199ZM122.641 55.9794C119.898 56.0225 118.715 56.7807 118.715 58.3217C118.712 58.5721 118.763 58.8202 118.864 59.0495C118.964 59.2788 119.112 59.4842 119.298 59.652C119.484 59.8198 119.703 59.9462 119.942 60.0229C120.18 60.0996 120.432 60.1249 120.681 60.0969C121.914 60.0969 122.431 59.7887 122.53 59.2895C122.644 58.19 122.683 57.0841 122.647 55.9794" fill="white"/>
<path d="M128.634 53.2548V61.5701H126.625V50.8693C128.918 50.8693 129.226 50.3022 131.408 50.3022C133.442 50.3022 135.235 51.2947 135.235 54.0869V61.5701H133.226V54.4445C133.226 52.737 132.425 52.1268 130.884 52.1268C129.51 52.1268 128.634 52.6692 128.634 53.2548Z" fill="white"/>
<path d="M142.527 60.1031C143.123 60.1006 143.717 60.0428 144.302 59.9305V61.6811C143.696 61.8177 143.076 61.8879 142.453 61.8907C139.119 61.8907 136.906 59.9552 136.906 56.0718C136.906 52.546 138.872 50.2715 142.453 50.2715C143.073 50.2752 143.692 50.3309 144.302 50.4379V52.3549C143.704 52.1702 143.08 52.0828 142.453 52.096C140.444 52.096 139.187 53.2302 139.187 56.0965C139.187 58.9628 140.419 60.0969 142.521 60.0969" fill="white"/>
<path d="M148.534 47.2948C148.544 47.4665 148.518 47.6384 148.457 47.7993C148.396 47.9602 148.302 48.1066 148.182 48.2291C148.061 48.3516 147.916 48.4475 147.756 48.5105C147.596 48.5736 147.424 48.6025 147.252 48.5954C146.914 48.5954 146.59 48.4609 146.35 48.2217C146.111 47.9824 145.977 47.6578 145.977 47.3194C145.977 46.981 146.111 46.6565 146.35 46.4172C146.59 46.1779 146.914 46.0435 147.252 46.0435C147.418 46.0368 147.584 46.0638 147.739 46.1228C147.895 46.1817 148.036 46.2715 148.156 46.3866C148.276 46.5018 148.371 46.6399 148.436 46.7928C148.501 46.9457 148.535 47.1101 148.534 47.2763V47.2948ZM148.368 50.5864C148.294 53.8964 148.269 58.1311 148.269 61.546H146.26V50.5864H148.368Z" fill="white"/>
<path d="M152.021 55.9857C152.012 56.1417 152.012 56.2981 152.021 56.4541C152.021 58.9197 153.439 60.1525 155.547 60.1525C156.391 60.173 157.23 60.0198 158.012 59.7026V61.4778C157.182 61.7558 156.311 61.8913 155.436 61.8785C152.144 61.8785 149.852 60.0601 149.852 55.9672C149.852 52.5091 152.027 50.2593 155.01 50.2593C157.821 50.2593 158.986 52.1763 158.986 54.6604C158.983 55.0975 158.952 55.534 158.893 55.9672L152.021 55.9857ZM156.286 54.3214C156.687 54.3214 156.835 54.1364 156.835 53.7543C156.835 52.7372 156.188 52.0283 154.863 52.0283C154.214 52.0087 153.581 52.2335 153.09 52.6582C152.6 53.0828 152.286 53.6765 152.212 54.3214H156.286Z" fill="white"/>
<path d="M160.75 61.5705V50.5862H162.692V51.6958C163.01 51.2228 163.445 50.8396 163.955 50.5827C164.464 50.3259 165.031 50.204 165.601 50.2287C165.998 50.2216 166.396 50.2609 166.784 50.3458V52.5032C166.264 52.3368 165.721 52.2556 165.175 52.2629C163.9 52.2629 162.858 52.7375 162.809 53.8285C162.765 55.7455 162.765 58.6303 162.765 61.5459L160.75 61.5705Z" fill="white"/>
<path d="M173.6 54.4199V53.8528C173.6 52.6693 172.867 52.0036 171.492 52.0036C170.379 52.0087 169.281 52.2591 168.275 52.7371V50.8879C169.365 50.479 170.519 50.2701 171.683 50.2715C174.149 50.2715 175.616 51.2639 175.616 53.7727C175.616 55.6712 175.542 57.3724 175.542 59.1477C175.542 60.0969 175.591 60.8736 175.634 61.49C173.908 61.49 172.818 61.7982 171.4 61.7982C168.824 61.7982 167.492 60.4729 167.492 58.4573C167.492 56.2814 169.292 54.5062 173.6 54.4137V54.4199ZM173.6 55.9794C170.857 56.0225 169.674 56.7807 169.674 58.3217C169.672 58.5715 169.722 58.819 169.823 59.0479C169.923 59.2767 170.07 59.4818 170.256 59.6495C170.441 59.8172 170.659 59.9438 170.897 60.0209C171.134 60.098 171.386 60.1239 171.634 60.0969C172.867 60.0969 173.385 59.7887 173.483 59.2895C173.594 58.1898 173.633 57.0841 173.6 55.9794Z" fill="white"/>
<path d="M182.324 61.6015C181.778 61.6027 181.244 61.4418 180.79 61.1392C180.336 60.8367 179.982 60.406 179.773 59.902C179.564 59.3979 179.509 58.8431 179.616 58.3078C179.722 57.7726 179.985 57.2811 180.372 56.8956C180.758 56.5102 181.25 56.2481 181.785 56.1427C182.321 56.0373 182.875 56.0933 183.379 56.3035C183.883 56.5138 184.312 56.8688 184.614 57.3237C184.915 57.7786 185.075 58.3127 185.073 58.8585C185.082 59.2217 185.017 59.5831 184.882 59.9206C184.747 60.258 184.545 60.5644 184.288 60.8211C184.031 61.0778 183.724 61.2793 183.386 61.4135C183.048 61.5477 182.687 61.6116 182.324 61.6015ZM182.324 56.5654C181.868 56.5458 181.416 56.663 181.028 56.902C180.639 57.141 180.33 57.4909 180.142 57.9067C179.954 58.3224 179.894 58.785 179.971 59.2349C180.048 59.6848 180.257 60.1014 180.573 60.4312C180.888 60.761 181.295 60.9888 181.741 61.0853C182.188 61.1818 182.652 61.1427 183.076 60.9729C183.499 60.803 183.863 60.5104 184.118 60.1325C184.374 59.7545 184.511 59.3087 184.512 58.8523C184.529 58.5559 184.484 58.2592 184.382 57.9806C184.279 57.702 184.12 57.4475 183.915 57.233C183.71 57.0185 183.463 56.8486 183.189 56.7337C182.915 56.6189 182.621 56.5616 182.324 56.5654ZM181.627 60.6152H181.091V56.9908C181.486 56.9908 181.707 56.9414 182.139 56.9414C182.835 56.9414 183.372 57.2928 183.372 57.9523C183.373 58.1562 183.311 58.3554 183.194 58.5222C183.077 58.689 182.91 58.8152 182.718 58.8831C182.705 58.8936 182.695 58.9067 182.687 58.9216C182.68 58.9365 182.676 58.9528 182.675 58.9694C182.677 59.0083 182.687 59.0462 182.706 59.0804L183.68 60.6152H183.125L182.324 59.3824C182.163 59.1482 182.083 59.0865 181.911 59.0865H181.578L181.627 60.6152ZM181.979 58.655C182.595 58.655 182.854 58.4208 182.854 57.9647C182.854 57.5085 182.546 57.3976 182.096 57.3976C181.806 57.3976 181.664 57.4716 181.652 57.5455C181.652 57.9524 181.652 58.3407 181.652 58.655H181.979Z" fill="white"/>
</g>
</g>
</g>
<defs>
<clipPath id="clip0_1_3">
<rect width="360" height="935" fill="white" transform="translate(-85 -48)"/>
</clipPath>
<clipPath id="clip1_1_3">
<rect width="360" height="1414" fill="white" transform="translate(-85 -48)"/>
</clipPath>
<clipPath id="clip2_1_3">
<rect width="360" height="1414" fill="white" transform="translate(-85 -48)"/>
</clipPath>
</defs>
</svg>
