<svg width="177" height="228" viewBox="0 0 177 228" fill="none" xmlns="http://www.w3.org/2000/svg">
<ellipse cx="88.2266" cy="138" rx="88.2266" ry="90" fill="#EFEFEF"/>
<mask id="mask0_6288_79860" style="mask-type:alpha" maskUnits="userSpaceOnUse" x="0" y="48" width="177" height="177">
<circle cx="88.2969" cy="136.227" r="88.2266" fill="#EFEFEF"/>
</mask>
<g mask="url(#mask0_6288_79860)">
<rect x="40.793" y="119.822" width="96.6502" height="104.631" fill="white"/>
<path d="M124.623 91.4473H52.7343C44.6766 91.4473 38.1367 97.8873 38.1367 105.853V276.549C38.1367 284.501 44.6624 290.955 52.7343 290.955H124.623C132.681 290.955 139.22 284.515 139.22 276.556V105.853C139.22 102.033 137.682 98.3684 134.945 95.6667C132.207 92.965 128.494 91.4473 124.623 91.4473ZM81.3905 107.295H95.9738C96.6831 107.295 97.2718 107.855 97.2718 108.555C97.2718 109.255 96.6831 109.815 95.9667 109.815H81.3905C80.6811 109.815 80.0994 109.255 80.0994 108.555C80.0994 107.855 80.6671 107.295 81.3762 107.295H81.3905ZM71.2118 105.853C71.889 105.853 72.5386 106.119 73.0174 106.591C73.4963 107.064 73.7654 107.705 73.7654 108.373C73.7654 109.042 73.4963 109.683 73.0174 110.155C72.5386 110.628 71.889 110.893 71.2118 110.893C70.5345 110.893 69.8852 110.628 69.4063 110.155C68.9273 109.683 68.6583 109.042 68.6583 108.373C68.6583 107.705 68.9273 107.064 69.4063 106.591C69.8852 106.119 70.5345 105.853 71.2118 105.853ZM88.6821 283.759C87.3408 283.759 86.0126 283.498 84.7735 282.991C83.5341 282.485 82.4081 281.742 81.4597 280.806C80.5112 279.87 79.7588 278.759 79.2455 277.536C78.7322 276.313 78.468 275.002 78.468 273.679C78.468 272.355 78.7322 271.044 79.2455 269.821C79.7588 268.598 80.5112 267.487 81.4597 266.551C82.4081 265.615 83.5341 264.873 84.7735 264.366C86.0126 263.859 87.3408 263.599 88.6821 263.599C91.3912 263.599 93.989 264.661 95.9045 266.551C97.8201 268.441 98.8962 271.005 98.8962 273.679C98.8962 276.352 97.8201 278.916 95.9045 280.806C93.989 282.697 91.3912 283.759 88.6821 283.759ZM133.745 254.933C133.745 255.506 133.515 256.056 133.106 256.462C132.696 256.869 132.141 257.099 131.56 257.103H45.7973C45.2166 257.099 44.6609 256.869 44.2516 256.462C43.8423 256.056 43.6126 255.506 43.6126 254.933V126.741C43.6126 125.551 44.5914 124.571 45.7973 124.571H131.553C132.759 124.571 133.752 125.551 133.752 126.741V254.933H133.745Z" fill="#83786F"/>
</g>
<path d="M50.0703 165.4C50.0703 162.701 53.1299 160.514 56.9041 160.514H119.775C123.549 160.514 126.609 162.701 126.609 165.4V176.149C126.609 178.847 123.549 181.035 119.775 181.035H76.0387H67.3215H59.6376H56.9041C53.1299 181.035 50.0703 178.847 50.0703 176.149V165.4Z" fill="#FFA100"/>
<path d="M92.6195 175.636L93.7272 173.669L94.835 175.636L96.5292 174.639L95.4215 172.672H97.6371V170.678H95.4215L96.5292 168.724L94.835 167.727L93.7272 169.681L92.6195 167.727L90.9253 168.724L92.033 170.678H89.8175V172.672H92.033L90.9253 174.639L92.6195 175.636ZM101.351 174.639L103.046 175.636L104.153 173.669L105.261 175.636L106.955 174.639L105.848 172.672H108.063V170.678H105.848L106.955 168.724L105.261 167.727L104.153 169.681L103.046 167.727L101.351 168.724L102.459 170.678H100.244V172.672H102.459L101.351 174.639ZM118.489 170.678H116.274L117.381 168.724L115.687 167.727L114.58 169.681L113.472 167.727L111.777 168.724L112.885 170.678H110.67V172.672H112.885L111.777 174.639L113.472 175.636L114.58 173.669L115.687 175.636L117.381 174.639L116.274 172.672H118.489V170.678Z" fill="white"/>
<path d="M61.3684 175.636L62.4762 173.669L63.584 175.636L65.2782 174.639L64.1705 172.672H66.386V170.678H64.1705L65.2782 168.724L63.584 167.727L62.4762 169.681L61.3684 167.727L59.6742 168.724L60.7819 170.678H58.5664V172.672H60.7819L59.6742 174.639L61.3684 175.636ZM70.1003 174.639L71.7945 175.636L72.9023 173.669L74.0101 175.636L75.7043 174.639L74.5965 172.672H76.812V170.678H74.5965L75.7043 168.724L74.0101 167.727L72.9023 169.681L71.7945 167.727L70.1003 168.724L71.2081 170.678H68.9926V172.672H71.2081L70.1003 174.639ZM87.2382 170.678H85.0227L86.1304 168.724L84.4362 167.727L83.3285 169.681L82.2206 167.727L80.5264 168.724L81.6342 170.678H79.4186V172.672H81.6342L80.5264 174.639L82.2206 175.636L83.3285 173.669L84.4362 175.636L86.1304 174.639L85.0227 172.672H87.2382V170.678Z" fill="white"/>
<path d="M76.3532 146.451H70.1492V147.711C70.6772 147.663 71.3732 147.651 72.4052 147.651C72.4892 147.651 72.5612 147.699 72.5612 147.783V154.539H73.9292V150.087C73.9292 148.671 73.9412 148.311 73.9652 147.843C73.9652 147.735 74.0132 147.651 74.1212 147.651C75.1892 147.651 75.8372 147.663 76.3532 147.711V146.451ZM80.5089 146.259C78.4809 146.259 76.7889 147.615 76.7889 150.507C76.7889 153.399 78.4809 154.719 80.5089 154.719C82.5129 154.719 84.2169 153.351 84.2169 150.459C84.2169 147.567 82.5129 146.259 80.5089 146.259ZM80.5089 153.507C79.1769 153.507 78.2769 152.607 78.2769 150.519C78.2769 148.431 79.1769 147.495 80.5089 147.495C81.8289 147.495 82.7289 148.371 82.7289 150.459C82.7289 152.559 81.8289 153.507 80.5089 153.507ZM88.9413 150.171L91.7493 146.451H90.2613L87.8253 149.523C87.5253 149.907 87.3453 149.991 87.1893 149.991C87.1893 148.611 87.2013 147.399 87.2373 146.451H85.8213V154.539H87.1893V150.591C87.3333 150.591 87.5013 150.651 87.7053 150.915L90.5973 154.539H92.1213L88.9413 150.171ZM97.4626 154.539V153.303C96.6706 153.327 95.8066 153.339 94.3666 153.339C94.2106 153.339 94.1386 153.219 94.1386 153.087V150.879H97.0186V149.691H94.1386C94.1386 148.995 94.1506 148.239 94.1626 147.831C94.1746 147.651 94.2466 147.603 94.3546 147.603C95.7586 147.603 96.7666 147.615 97.3666 147.675V146.451H92.7706V154.539H97.4626ZM100.244 148.731C101.108 149.883 102.956 153.147 103.676 154.539H105.092V150.075C105.092 148.359 105.128 147.027 105.14 146.451H103.724V151.491C103.724 151.587 103.712 151.695 103.676 151.695C103.652 151.695 103.58 151.587 103.544 151.515L100.448 146.451H98.8877V154.539H100.244V148.731Z" fill="#665F59"/>
<circle cx="91" cy="40" r="37.5" fill="white" stroke="#EFEFEF" stroke-width="5"/>
<path d="M102.118 36.2934V30.1502C102.118 23.9844 96.9909 18.9688 90.6855 18.9688C84.3801 18.9688 79.2535 23.9832 79.2535 30.1502V36.2934H76.5703V55.296C87.896 61.8943 93.7893 61.9922 104.801 55.296V36.2934H102.118ZM83.7619 30.1502C83.7619 26.4159 86.8663 23.3784 90.6855 23.3784C94.5048 23.3784 97.6092 26.4146 97.6092 30.1502V36.2934H83.7619V30.1502ZM93.6121 50.9356H87.7577L89.3317 46.3156C88.8211 46.0703 88.3907 45.6902 88.0889 45.2183C87.7875 44.7463 87.6266 44.2013 87.625 43.6449C87.625 42.8514 87.9472 42.0902 88.5209 41.529C89.0946 40.9678 89.8728 40.6526 90.6843 40.6526C91.4957 40.6526 92.2736 40.9678 92.8473 41.529C93.421 42.0902 93.7435 42.8514 93.7435 43.6449C93.7435 44.8191 93.0453 45.8243 92.0381 46.3156L93.6121 50.9356Z" fill="#83786F"/>
<g clip-path="url(#clip0_6288_79860)">
<path d="M66.0581 53.8282C64.7913 53.8279 63.5478 53.4877 62.4573 52.8431C61.3668 52.1984 60.4692 51.273 59.8582 50.1633C59.2472 49.0535 58.9452 47.8002 58.9837 46.534C59.0222 45.2677 59.3998 44.0351 60.077 42.9645C60.7543 41.8939 61.7064 41.0247 62.8341 40.4475C63.9617 39.8703 65.2236 39.6062 66.4881 39.6829C67.7526 39.7596 68.9733 40.1742 70.023 40.8834C71.0726 41.5927 71.9127 42.5706 72.4556 43.7151H87.2955L90.3294 46.749L87.2955 49.7829L85.2729 47.7603L83.2503 49.7829L81.2277 47.7603L79.2051 49.7829L77.1825 47.7603L75.1598 49.7829H72.4556C71.8814 50.9935 70.9754 52.0163 69.8429 52.7324C68.7104 53.4485 67.398 53.8284 66.0581 53.8282ZM64.0355 48.7716C64.5719 48.7716 65.0864 48.5585 65.4657 48.1792C65.845 47.7999 66.0581 47.2855 66.0581 46.749C66.0581 46.2126 65.845 45.6982 65.4657 45.3188C65.0864 44.9395 64.5719 44.7264 64.0355 44.7264C63.4991 44.7264 62.9846 44.9395 62.6053 45.3188C62.226 45.6982 62.0129 46.2126 62.0129 46.749C62.0129 47.2855 62.226 47.7999 62.6053 48.1792C62.9846 48.5585 63.4991 48.7716 64.0355 48.7716Z" fill="#FFA100"/>
</g>
<defs>
<clipPath id="clip0_6288_79860">
<rect width="32.3617" height="32.3617" fill="white" transform="translate(58.9805 30.5684)"/>
</clipPath>
</defs>
</svg>
