<svg width="190" height="208" viewBox="0 0 190 208" fill="none" xmlns="http://www.w3.org/2000/svg">
<path d="M84.913 38.3312C84.4896 38.3318 84.0692 38.2646 83.6696 38.1324L80.4168 37.0691C79.7848 36.8607 79.2218 36.4985 78.7844 36.0188C78.347 35.5392 78.0505 34.9589 77.9248 34.3364L77.2742 31.1367C77.1497 30.5152 77.1989 29.8736 77.417 29.2757C77.6351 28.6778 78.0145 28.1443 78.5176 27.7282L81.1408 25.5967C81.6472 25.1818 82.2599 24.9005 82.9175 24.781C83.575 24.6615 84.2542 24.7081 84.8867 24.916L88.1342 25.9793C88.7669 26.1874 89.3307 26.5494 89.7691 27.0291C90.2074 27.5087 90.5048 28.0891 90.6315 28.712L91.282 31.9068C91.4081 32.5295 91.359 33.1726 91.1399 33.7717C90.9207 34.3708 90.5392 34.9048 90.0334 35.3202L87.4102 37.4517C86.7163 38.0193 85.8299 38.3314 84.913 38.3312V38.3312ZM82.0012 33.3626L84.8343 34.2917L87.0954 32.4335L86.5288 29.6461L83.6801 28.7368L81.4136 30.5951L82.0012 33.3626Z" fill="#F5F5F5"/>
<path d="M155.686 62.1405C159.237 58.0911 162.789 53.997 165.559 49.4259C168.329 44.8548 170.281 39.7471 170.423 34.4804C170.423 33.6804 170.082 28.1355 169.268 27.9169C168.691 27.7579 168.293 32.6519 167.82 33.0047C163.288 36.3585 160.344 41.342 158.65 46.5491C157.055 51.6263 156.061 56.8555 155.686 62.1405" fill="#263238"/>
<path d="M109.419 92.9608C110.835 89.4827 117.813 72.0927 117.776 72.0927C117.739 72.0927 105.757 66.1652 109.907 54.1014C111.9 48.2783 117.036 36.5971 121.811 26.0736C124.288 20.6207 128.842 16.2509 134.567 13.8341C140.292 11.4173 146.768 11.1306 152.706 13.0311L153.929 13.4236C166.866 18.3922 169.668 31.544 164.07 43.6525L138.363 100.046L115.835 93.4527L109.419 92.9608Z" fill="#FFBF9D"/>
<path d="M128.149 46.3014C128.818 45.6774 129.844 46.6372 129.176 47.293C127.684 48.6793 124.564 51.6133 127.906 52.7469C128.764 53.04 128.436 54.4354 127.57 54.1442C126.116 53.6502 124.777 52.8643 124.891 51.1152C125.032 49.1304 126.787 47.548 128.135 46.2933" fill="#E09C72"/>
<path d="M128.603 60.97C129.214 61.0854 129.834 61.1417 130.456 61.1383C130.316 61.4674 130.05 61.7274 129.718 61.8613C128.293 62.6965 126.677 63.1523 125.024 63.185C123.71 63.2436 122.404 62.9363 121.254 62.2972C119.74 61.4064 118.541 60.0669 117.824 58.465C117.514 57.8053 117.274 57.0982 117.002 56.4161C116.872 56.0622 116.792 55.6916 116.766 55.3155C117.159 55.4921 117.535 55.7055 117.888 55.9529C118.066 56.4882 118.319 56.9957 118.64 57.4603C118.947 58.088 119.408 58.6283 119.979 59.031C120.924 59.659 121.912 60.2204 122.935 60.7109C123.891 61.1979 124.935 61.4862 126.005 61.5584C126.459 61.6408 126.926 61.629 127.375 61.5237C127.824 61.4183 128.247 61.2218 128.616 60.9463" fill="#353535"/>
<path d="M128.602 60.9689C128.232 61.2444 127.81 61.441 127.36 61.5463C126.911 61.6516 126.445 61.6634 125.991 61.581C124.921 61.5088 123.876 61.2205 122.92 60.7335C121.897 60.243 120.91 59.6817 119.965 59.0536C119.393 58.6509 118.933 58.1106 118.626 57.4829C118.305 57.0184 118.052 56.5109 117.873 55.9755C118.058 56.0809 118.248 56.1889 118.439 56.2969C120.209 57.4508 122.068 58.4632 123.998 59.3248C125.342 59.9991 126.762 60.5129 128.226 60.8557C128.352 60.8875 128.475 60.9301 128.594 60.9831" fill="white"/>
<path d="M137.529 46.1088C137.395 46.3542 137.312 46.6238 137.284 46.902C137.256 47.1802 137.284 47.4612 137.366 47.7285C137.449 47.9958 137.584 48.244 137.763 48.4585C137.943 48.673 138.164 48.8495 138.413 48.9776C138.919 49.2279 139.502 49.2732 140.04 49.104C140.577 48.9348 141.029 48.5642 141.299 48.0698C141.434 47.8244 141.518 47.5544 141.546 47.2759C141.575 46.9973 141.547 46.7158 141.465 46.448C141.383 46.1801 141.248 45.9314 141.068 45.7164C140.888 45.5014 140.667 45.3245 140.418 45.1963C139.91 44.9422 139.325 44.8947 138.784 45.064C138.243 45.2332 137.79 45.606 137.519 46.1034" fill="#353535"/>
<path d="M122.046 37.9867C121.87 38.3341 121.8 38.7258 121.846 39.1129C121.891 39.5 122.05 39.8653 122.302 40.1631C122.554 40.4609 122.888 40.678 123.263 40.7872C123.637 40.8963 124.036 40.8928 124.408 40.7769C124.78 40.6611 125.11 40.4381 125.355 40.1358C125.601 39.8336 125.752 39.4655 125.79 39.0776C125.827 38.6898 125.749 38.2994 125.566 37.9552C125.382 37.6111 125.101 37.3285 124.758 37.1428C124.285 36.8967 123.733 36.8478 123.225 37.0069C122.716 37.1659 122.291 37.5199 122.044 37.9914" fill="#353535"/>
<path d="M145.436 46.5793C145.964 44.8086 145.699 43.3398 144.629 42.0916C144.117 41.4689 143.466 40.9742 142.728 40.647C142.431 40.5047 142.091 40.482 141.777 40.5835C141.635 40.6386 141.507 40.7248 141.402 40.836C141.298 40.9471 141.22 41.0803 141.173 41.2257C141.112 41.3652 141.08 41.5162 141.08 41.6689C141.08 41.8216 141.113 41.9726 141.175 42.1121C141.237 42.2516 141.328 42.3766 141.442 42.4789C141.555 42.5812 141.689 42.6586 141.835 42.7061C141.901 42.7439 141.963 42.779 142.046 42.7883C142.097 42.8116 142.146 42.8396 142.193 42.8721C142.592 43.0348 142.948 43.2898 143.23 43.616C143.512 43.9423 143.713 44.3305 143.817 44.749C143.89 45.1647 143.891 45.5899 143.819 46.0057L143.721 46.5773C143.695 46.7556 143.732 46.9374 143.826 47.0914C143.919 47.2455 144.064 47.3622 144.234 47.4215L144.334 47.4782C144.508 47.5297 144.694 47.5174 144.86 47.4433C145.025 47.3693 145.159 47.2385 145.236 47.0746C145.282 46.9806 145.321 46.8829 145.352 46.7826L145.436 46.5793Z" fill="#353535"/>
<path d="M127.791 33.1175C127.536 32.8876 127.244 32.7009 126.929 32.565L126.734 32.4543C126.26 32.1873 125.738 32.0163 125.197 31.951C123.299 31.6628 122.024 32.5891 121.128 33.4355C121.034 33.529 120.959 33.6394 120.906 33.7608C120.829 33.9187 120.81 34.0985 120.852 34.269C120.894 34.4395 120.994 34.5902 121.135 34.6948C121.203 34.7519 121.28 34.7959 121.364 34.8245C121.466 34.8669 121.577 34.8868 121.687 34.8826C121.798 34.8785 121.907 34.8504 122.006 34.8004C122.143 34.7309 122.273 34.6496 122.395 34.5574C122.659 34.3328 122.956 34.1501 123.275 34.0157C123.666 33.8216 124.103 33.7376 124.538 33.7727C124.973 33.8078 125.391 33.9607 125.746 34.2149L126.02 34.4081C126.196 34.5081 126.355 34.6486 126.528 34.7533C126.749 34.9219 127.026 35.0001 127.302 34.9718C127.579 34.9436 127.834 34.8111 128.016 34.6013C128.101 34.4899 128.163 34.3625 128.198 34.2266C128.233 34.0908 128.241 33.9492 128.22 33.8104C128.199 33.6716 128.151 33.5383 128.077 33.4184C128.004 33.2986 127.908 33.1947 127.793 33.1128" fill="#353535"/>
<path d="M117.782 72.1025C117.782 72.1025 125.62 75.0837 135.945 72.7584C135.945 72.7584 128.799 80.405 116.533 75.2775L117.782 72.1025Z" fill="#FF9A6C"/>
<path d="M159.841 52.2234C160.092 52.2234 169.426 52.5712 166.22 60.6948C163.015 68.8185 155.066 64.0933 155.145 63.8548C155.224 63.6164 159.841 52.2234 159.841 52.2234Z" fill="#FFBF9D"/>
<path d="M158.981 61.7083C159.028 61.7083 159.091 61.8573 159.301 62.0561C159.598 62.3272 159.995 62.477 160.408 62.4734C161.457 62.4734 162.737 61.3853 163.356 59.9394C163.654 59.2504 163.785 58.5066 163.739 57.7632C163.759 57.4798 163.706 57.1959 163.585 56.9362C163.463 56.6765 163.277 56.4487 163.041 56.2726C162.885 56.1649 162.694 56.1137 162.501 56.1283C162.309 56.1429 162.128 56.2223 161.992 56.3521C161.787 56.536 161.777 56.7198 161.724 56.7148C161.672 56.7099 161.599 56.5161 161.798 56.218C161.924 56.0383 162.108 55.9023 162.323 55.8304C162.625 55.7456 162.951 55.7759 163.23 55.9149C163.554 56.1073 163.82 56.3749 164.004 56.6924C164.188 57.0098 164.282 57.3665 164.279 57.7284C164.364 58.5602 164.235 59.3991 163.902 60.173C163.199 61.7927 161.714 63.01 160.339 62.9106C160.084 62.8937 159.835 62.8223 159.613 62.7019C159.39 62.5814 159.199 62.415 159.054 62.2151C158.918 61.907 158.944 61.7083 158.981 61.7083Z" fill="#FF9A6C"/>
<path d="M132.76 14.6808C131.669 13.4535 137.539 10.7059 141.532 10.4972C147.565 10.1743 155.965 11.6648 160.183 14.646C165.266 18.2532 168.918 22.6603 169.789 28.6226C170.66 34.5849 169.416 40.7013 166.977 46.2512C166.232 47.9455 165.319 49.6646 163.766 50.7627C161.851 52.1141 159.102 52.4073 158.178 54.8915C158.028 55.3501 157.784 55.7762 157.46 56.1453C157.136 56.5145 156.738 56.8195 156.29 57.0429C154.086 58.0367 152.775 55.8753 152.497 54.0618C151.899 50.2111 153.226 46.3456 154.532 42.634C155.461 40.0106 156.421 37.3326 158.205 35.1315C159.17 33.934 160.356 32.9006 161.253 31.6535C162.15 30.4064 162.732 28.8412 162.302 27.3954C162.181 27.0911 162.03 26.7984 161.851 26.5209C161.06 25.1018 159.883 23.9081 158.443 23.0627C157.002 22.2173 155.35 21.7508 153.656 21.7113C148.184 21.5772 138.966 20.9958 137.466 18.6705C135.283 15.3217 135.131 13.5976 135.131 13.5976L132.76 14.6808Z" fill="#263238"/>
<path d="M161.295 9.6773C161.846 9.94064 174.736 17.483 174.652 28.4834C174.568 39.4839 172.443 42.1768 172.443 42.1768C172.866 42.6826 173.211 43.2431 173.466 43.8413C173.813 44.676 171.835 47.5032 170.14 46.5591C158.567 36.3934 142.618 30.5503 124.423 25.1942L110.699 20.5734C106.68 19.7387 105.678 18.3276 107.64 17.9401C109.146 17.642 121.611 17.0457 121.611 17.0457L124.303 16.2607L132.697 10.6412C132.697 10.6412 132.377 9.37422 134.082 8.96183C135.787 8.54943 150.44 4.47022 161.295 9.6773Z" fill="#CA005D"/>
<path d="M124.303 16.2607C124.303 16.2607 124.486 16.3303 124.827 16.4396L126.401 16.9365C127.755 17.3191 129.68 17.96 132.052 18.7898C138.196 21.023 144.12 23.7629 149.758 26.978C155.396 30.188 160.835 33.7016 166.048 37.5015C168.057 38.9423 169.663 40.1447 170.77 40.9795L172.05 41.9235C172.349 42.1372 172.512 42.2415 172.512 42.2415C172.512 42.2415 172.37 42.1173 172.081 41.8887L170.827 40.895C169.731 40.0503 168.141 38.8281 166.142 37.3623C160.955 33.5081 155.523 29.9573 149.879 26.7296C144.226 23.5189 138.274 20.8047 132.099 18.6208C127.346 16.9663 124.303 16.2607 124.303 16.2607Z" fill="#263238"/>
<path opacity="0.3" d="M171.95 19.6592C171.95 19.6592 157.722 12.4448 149.863 13.3193L150.781 13.2L143.436 13.7813C142.193 13.8757 140.771 13.9105 139.916 13.0559C139.916 13.0559 144.375 11.2672 151.411 11.302C158.446 11.3368 168.776 13.7267 171.95 19.6592Z" fill="black"/>
<path d="M172.139 19.8034C171.824 19.3536 171.473 18.9268 171.09 18.5264C170.062 17.416 168.898 16.4253 167.622 15.5751C165.742 14.3009 163.674 13.2964 161.484 12.5939C158.818 11.6683 155.974 11.2939 153.142 11.4959C151.696 11.6371 150.259 11.8594 148.84 12.1617C147.466 12.4598 146.123 12.6585 144.864 13.0113C143.704 13.3755 142.514 13.6448 141.307 13.8162C140.25 13.9128 139.184 13.7785 138.19 13.4237C134.471 12.266 132.461 10.8003 132.708 10.6313C132.726 10.774 132.796 10.9061 132.907 11.004C133.208 11.2872 133.545 11.5341 133.909 11.7393C135.244 12.4963 136.662 13.1128 138.138 13.5777C139.15 13.9536 140.24 14.0999 141.322 14.005C142.545 13.8425 143.751 13.5798 144.927 13.22C146.165 12.897 147.518 12.6784 148.893 12.3853C150.308 12.0834 151.741 11.8611 153.184 11.7195C155.984 11.5175 158.797 11.8816 161.437 12.7877C163.607 13.4779 165.664 14.4565 167.544 15.6943C168.811 16.531 169.978 17.4974 171.022 18.5761C171.394 18.9587 171.672 19.2668 171.851 19.4804C172.029 19.6941 172.139 19.8034 172.139 19.8034Z" fill="#263238"/>
<path opacity="0.3" d="M174.467 33.0299C171.771 32.1355 169.966 30.8039 167.484 29.3779C164.861 27.8575 162.18 26.4663 159.615 24.8267C157.668 23.5846 155.313 22.2679 154.447 20.355C154.16 20.8212 154.005 21.3497 153.996 21.8894C153.988 22.429 154.127 22.9616 154.4 23.4355C154.951 24.4292 157.285 26.203 158.282 26.844C163.948 30.4909 167.899 32.9851 174.236 35.5141C174.371 34.6918 174.448 33.8619 174.467 33.0299" fill="black"/>
<path d="M174.604 27.2712C176.063 28.5332 176.939 29.3481 176.488 30.7492C176.115 31.9119 175.354 33.2335 174.09 33.0497C173.706 32.9678 173.342 32.8195 173.015 32.6124L155.665 22.9833C155.039 22.7191 154.529 22.2573 154.222 21.6766C153.881 20.7425 154.747 19.7189 155.749 19.4606C156.751 19.2022 157.847 19.4606 158.823 19.7885C164.479 21.5176 169.636 24.1807 174.604 27.2712Z" fill="#CA005D"/>
<path d="M154.417 22.0293C154.258 21.7417 154.182 21.4195 154.197 21.0952C154.235 20.6572 154.403 20.2384 154.681 19.8868C154.96 19.5352 155.337 19.2652 155.77 19.1078C156.883 18.75 158.357 18.9885 159.805 19.54C161.253 20.0915 162.885 20.7325 164.527 21.4529C167.379 22.651 170.113 24.0876 172.695 25.7458C173.682 26.3867 174.442 26.9532 174.972 27.3457L175.57 27.8028C175.712 27.9071 175.785 27.9618 175.791 27.9518C175.736 27.8833 175.673 27.8215 175.602 27.768L175.03 27.2712C174.505 26.8538 173.776 26.2774 172.795 25.6067C170.231 23.8981 167.495 22.4335 164.626 21.2343C162.958 20.5139 161.342 19.8829 159.868 19.3363C158.394 18.7898 156.872 18.5463 155.671 18.9488C155.218 19.1273 154.829 19.4256 154.551 19.8081C154.273 20.1906 154.117 20.6409 154.102 21.1051C154.095 21.3557 154.151 21.6042 154.265 21.8305C154.307 21.9025 154.358 21.9693 154.417 22.0293V22.0293Z" fill="#263238"/>
<path d="M130.068 12.405L141.883 15.9874L139.758 18.7946L127.094 14.3925L130.068 12.405Z" fill="white"/>
<path d="M144.237 28.061C144.264 28.0014 139.29 25.5767 133.131 22.68C126.972 19.7833 121.946 17.4282 121.914 17.4829C121.883 17.5375 126.856 19.9672 133.021 22.8638C139.185 25.7605 144.206 28.0908 144.237 28.061Z" fill="#263238"/>
<path d="M147.213 88.3102L147.37 80.9666L120.834 90.3026C120.834 90.3026 115.928 75.218 115.928 74.5025L110.047 78.0054L100.273 74.0305L90.4993 69.4495L70.7311 102.242L49.9922 160.136L98.862 191.001L135.093 154.233L157.128 122.434L169.237 102.302L147.213 88.3102Z" fill="#CA005D"/>
<path d="M118.474 90.1982C118.443 89.9543 118.429 89.7086 118.432 89.4629C118.432 88.966 118.432 88.2605 118.406 87.4009L118.527 87.4755C115.611 88.8227 112.919 90.567 110.537 92.6527L110.327 92.8415V92.5633C110.327 92.2403 110.29 91.8876 110.269 91.5398C110.054 87.9375 109.875 84.6732 109.744 82.3131C109.692 81.1604 109.65 80.2164 109.618 79.5158C109.618 79.2077 109.618 78.9593 109.618 78.7556C109.604 78.6667 109.604 78.5762 109.618 78.4873C109.643 78.5732 109.657 78.6616 109.66 78.7506C109.66 78.9544 109.702 79.2028 109.734 79.5108C109.781 80.2064 109.855 81.1505 109.938 82.3032C110.106 84.6632 110.311 87.9226 110.526 91.5249C110.526 91.8776 110.568 92.2254 110.584 92.5484L110.358 92.4639C112.757 90.3591 115.49 88.6253 118.459 87.3264L118.584 87.2767V87.4009C118.584 88.2555 118.548 88.9462 118.537 89.4579C118.535 89.7058 118.514 89.9533 118.474 90.1982V90.1982Z" fill="#263238"/>
<path d="M144.767 88.6777C144.674 88.7432 144.572 88.7966 144.463 88.8367L143.577 89.2342L140.287 90.6652L129.396 95.281L124.223 97.4423L124.002 97.5367L124.044 97.3132C124.471 94.9786 124.673 92.6121 124.648 90.2428L124.768 90.3124L122.318 91.4403L121.662 91.7284C121.59 91.7665 121.512 91.7949 121.432 91.8129C121.496 91.7634 121.566 91.7216 121.641 91.6887L122.276 91.3608L124.695 90.1683L124.81 90.1087V90.2379C124.884 92.6201 124.708 95.0035 124.286 97.3529L124.107 97.2237L129.275 95.0425L140.198 90.4962L143.524 89.1497L144.432 88.792C144.54 88.7443 144.652 88.706 144.767 88.6777Z" fill="#263238"/>
<path d="M86.4759 207.999L15.4087 207.686C13.3763 207.677 11.3655 207.29 9.49118 206.545C7.61687 205.801 5.91574 204.714 4.48492 203.347C3.0541 201.98 1.92161 200.359 1.15211 198.578C0.382611 196.796 -0.00882532 194.889 0.000150951 192.964L0.755627 24.2304C0.764564 22.3049 1.17387 20.4 1.96019 18.6243C2.7465 16.8486 3.89441 15.237 5.33839 13.8815C6.78236 12.526 8.49412 11.4531 10.3759 10.7241C12.2577 9.99505 14.2727 9.62421 16.3058 9.63271L87.3521 9.94573C89.3845 9.9542 91.3953 10.3417 93.2696 11.0861C95.1439 11.8306 96.8451 12.9173 98.2759 14.2844C99.7067 15.6515 100.839 17.272 101.609 19.0536C102.378 20.8352 102.77 22.7428 102.761 24.6677L102.042 193.401C102.032 195.327 101.622 197.233 100.834 199.01C100.047 200.786 98.8976 202.398 97.4521 203.754C96.0065 205.109 94.2932 206.182 92.4099 206.91C90.5266 207.639 88.5102 208.008 86.4759 207.999V207.999Z" fill="#263238"/>
<path d="M87.2742 15.7688L73.4921 15.7092L33.2525 15.5303H28.4101L16.3434 15.4757C13.4715 15.4638 10.7119 16.5319 8.67079 18.4453C6.62968 20.3588 5.47388 22.9613 5.45723 25.6812L4.72274 190.375C4.71158 193.097 5.8418 195.713 7.86521 197.647C9.88861 199.581 12.6398 200.675 15.5145 200.69L86.4401 200.998C89.3143 201.007 92.0749 199.935 94.1152 198.018C96.1555 196.101 97.3085 193.494 97.321 190.772L98.066 26.0737C98.0772 23.3521 96.9466 20.7376 94.9229 18.8052C92.8992 16.8728 90.148 15.7807 87.2742 15.7688V15.7688Z" fill="#FAFAFA"/>
<path d="M31.9186 81.2699C34.7048 79.6749 37.7045 78.4416 40.8374 77.6031L42.6737 69.2509L57.5733 69.0024L59.7191 77.2851C62.8767 78.0233 65.9165 79.1562 68.7586 80.6538L76.2871 75.9783L87.0107 85.7814L82.3414 93.0753C84.0256 95.7139 85.3278 98.5548 86.2132 101.522L95.0324 103.261L95.2947 117.372L86.5438 119.404C85.7684 122.395 84.5739 125.274 82.992 127.965L87.9235 135.095L77.5725 145.25L69.8761 140.828C67.0902 142.424 64.0903 143.657 60.9572 144.495L59.1263 152.847L44.2266 153.096L42.0756 144.823C38.9165 144.089 35.8761 142.956 33.0361 141.454L25.5023 146.13L14.784 136.302L19.4533 129.013C17.7691 126.374 16.4652 123.533 15.5762 120.566L6.76232 118.832L6.5 104.722L15.2457 102.689C16.0265 99.7042 17.2227 96.8304 18.8027 94.1435L13.8659 87.0086L24.217 76.8578L31.9186 81.2798V81.2699ZM39.8616 100.066C37.6662 102.22 36.1946 104.943 35.6329 107.89C35.0712 110.836 35.4446 113.874 36.706 116.619C37.9673 119.365 40.06 121.695 42.7193 123.314C45.3786 124.933 48.4851 125.769 51.6461 125.716C54.8071 125.663 57.8806 124.724 60.478 123.017C63.0753 121.31 65.0799 118.912 66.2382 116.126C67.3966 113.34 67.6567 110.292 66.9856 107.366C66.3146 104.44 64.7425 101.768 62.4682 99.6884C60.9578 98.3072 59.1748 97.2213 57.2212 96.4928C55.2676 95.7642 53.1816 95.4073 51.0823 95.4423C48.983 95.4774 46.9116 95.9038 44.9863 96.6971C43.061 97.4905 41.3197 98.6352 39.8616 100.066V100.066Z" fill="#E0E0E0"/>
<path d="M60.292 49.2272C60.5221 48.038 60.9191 46.8834 61.4724 45.7939L59.3739 43.1059L63.1775 38.8975L66.3253 40.4576C67.3756 39.7689 68.5191 39.2174 69.7249 38.818L70.2496 35.504L76.0835 35.0767L77.1328 38.2715C78.3885 38.4894 79.6077 38.8654 80.758 39.3894L83.5911 37.402L87.9875 40.9793L86.3402 43.9605C87.0637 44.9565 87.6442 46.0392 88.0662 47.1801L91.5656 47.677L92.022 53.2021L88.6486 54.1958C88.4167 55.3851 88.0179 56.5398 87.4629 57.6291L89.5615 60.3121L85.7788 64.5006L82.631 62.9405C81.5799 63.6267 80.4366 64.1765 79.2314 64.5752L78.7067 67.8892L72.8728 68.3215L71.8235 65.1267C70.5672 64.9086 69.3478 64.5309 68.1983 64.0038L65.36 65.9912L60.9163 62.389L62.5637 59.4078C61.8374 58.4126 61.2552 57.3298 60.8324 56.1882L57.333 55.6913L56.9238 50.2159L60.3025 49.2222L60.292 49.2272ZM68.1983 50.9165C68.0739 52.1593 68.3646 53.4076 69.0293 54.4856C69.694 55.5636 70.6992 56.4168 71.9032 56.9249C73.1072 57.433 74.4492 57.5705 75.74 57.3178C77.0308 57.0652 78.2054 56.4352 79.098 55.5167C79.9907 54.5982 80.5564 53.4375 80.7155 52.1983C80.8745 50.9591 80.6189 49.7039 79.9845 48.6096C79.3502 47.5154 78.3692 46.6373 77.1799 46.0991C75.9906 45.5609 74.6529 45.3899 73.3554 45.6101C72.0019 45.8398 70.7649 46.4829 69.8336 47.4411C68.9024 48.3993 68.328 49.62 68.1983 50.9165Z" fill="#F2F2F2"/>
<path d="M10.1932 172.15C10.2356 170.724 10.4809 169.311 10.9224 167.947L7.94772 165.169L11.5887 159.615L15.534 160.906C16.6345 159.926 17.8698 159.09 19.2064 158.422L19.1487 154.442L25.8693 152.952L27.695 156.504C29.2023 156.549 30.6966 156.782 32.1387 157.2L35.0662 154.383L40.9368 157.831L39.6095 161.562C40.6438 162.606 41.5261 163.775 42.2327 165.04H46.4298L48.0037 171.405L44.2525 173.134C44.2101 174.562 43.9648 175.977 43.5233 177.342L46.498 180.115L42.8098 185.63L38.8645 184.338C37.7626 185.318 36.5276 186.153 35.1921 186.823L35.2236 190.773L28.4977 192.263L26.6772 188.711C25.1767 188.679 23.6875 188.457 22.2493 188.05L19.3166 190.867L13.4512 187.419L14.8152 183.682C13.7812 182.639 12.899 181.469 12.192 180.204L8.02117 180.234L6.44727 173.864L10.1932 172.15ZM19.9147 173.944C20.2517 175.293 21.0034 176.518 22.0749 177.463C23.1465 178.408 24.4897 179.031 25.9349 179.254C27.3802 179.476 28.8627 179.288 30.1951 178.713C31.5276 178.138 32.6502 177.202 33.4213 176.023C34.1923 174.845 34.5771 173.476 34.5272 172.09C34.4772 170.704 33.9947 169.363 33.1406 168.237C32.2865 167.11 31.099 166.249 29.7283 165.762C28.3575 165.274 26.865 165.182 25.4391 165.497C23.5287 165.923 21.8744 167.048 20.8389 168.627C19.8033 170.206 19.4709 172.109 19.9147 173.919V173.944Z" fill="#F2F2F2"/>
<path d="M17.2293 56.382C17.4031 55.4853 17.7031 54.6146 18.1212 53.7934L16.5473 51.7662L19.417 48.5913L21.7727 49.7688C22.5666 49.2512 23.4292 48.8352 24.3381 48.5316L24.7211 46.0473L29.1176 45.7095L29.9045 48.1192C30.8523 48.2869 31.7729 48.5708 32.6431 48.9639L34.7784 47.4733L38.1308 50.1862L36.8664 52.4071C37.4129 53.1572 37.8522 53.9725 38.1728 54.8318L40.796 55.1945L41.1422 59.3582L38.5977 60.1084C38.42 61.0042 38.1202 61.8744 37.7059 62.6971L39.2798 64.7193L36.4625 67.8942L34.1069 66.7167C33.3136 67.2352 32.4508 67.6513 31.5414 67.9538L31.1584 70.4381L26.7619 70.7611L25.9697 68.3662C25.0233 68.2001 24.1042 67.9161 23.2364 67.5216L21.1011 69.0121L17.7277 66.3192L18.9711 64.0883C18.4246 63.3382 17.9854 62.5229 17.6648 61.6636L15.0416 61.2959L14.6953 57.1323L17.2398 56.387L17.2293 56.382ZM23.1839 58.4042C23.258 59.2847 23.6057 60.1248 24.1832 60.8183C24.7608 61.5119 25.5423 62.028 26.4292 62.3014C27.3161 62.5748 28.2686 62.5934 29.1666 62.3547C30.0646 62.116 30.8678 61.6308 31.475 60.9603C32.0821 60.2898 32.466 59.464 32.5782 58.5871C32.6904 57.7102 32.5258 56.8215 32.1053 56.0331C31.6848 55.2447 31.0271 54.5918 30.2153 54.157C29.4035 53.7221 28.4738 53.5247 27.5437 53.5897C26.9229 53.633 26.3174 53.7921 25.7618 54.0579C25.2063 54.3236 24.7117 54.6908 24.3065 55.1383C23.9014 55.5857 23.5936 56.1046 23.4009 56.6651C23.2083 57.2256 23.1345 57.8166 23.1839 58.4042V58.4042Z" fill="#EBEBEB"/>
<path d="M67.0803 160.409C67.2278 159.639 67.4837 158.89 67.841 158.184L66.477 156.445L68.9375 153.722L70.9626 154.715C71.6431 154.269 72.3843 153.911 73.1661 153.652L73.4966 151.511L77.2687 151.228L77.9508 153.299C78.7634 153.44 79.5523 153.684 80.2959 154.025L82.1321 152.728L85.0124 155.058L83.9631 156.981C84.4301 157.626 84.8058 158.326 85.0806 159.063L87.347 159.376L87.6408 162.953L85.4583 163.594C85.3066 164.365 85.049 165.113 84.6923 165.82L86.0616 167.559L83.5959 170.287L81.5708 169.293C80.8915 169.739 80.1522 170.097 79.3725 170.357L79.042 172.503L75.2646 172.781L74.5826 170.709C73.7702 170.568 72.9814 170.324 72.2375 169.984L70.4013 171.281L67.521 168.95L68.5703 167.033C68.1029 166.386 67.7272 165.685 67.4528 164.946L65.1864 164.633L64.8926 161.055L67.0803 160.414V160.409ZM72.1955 162.148C72.2591 162.906 72.5584 163.629 73.0557 164.226C73.5529 164.823 74.2258 165.267 74.9893 165.502C75.7528 165.736 76.5726 165.752 77.3453 165.545C78.1179 165.339 78.8086 164.921 79.3302 164.343C79.8518 163.765 80.1808 163.053 80.2757 162.298C80.3705 161.544 80.227 160.779 79.8633 160.101C79.4995 159.424 78.9318 158.863 78.2319 158.491C77.532 158.119 76.7313 157.951 75.9309 158.01C74.8561 158.09 73.8588 158.57 73.1583 159.347C72.4578 160.123 72.1115 161.131 72.1955 162.148Z" fill="#EBEBEB"/>
<path d="M47.1816 120.089C47.1816 118.161 48.8028 116.726 51.1112 116.726C53.4196 116.726 55.004 118.161 55.004 120.089C55.004 122.017 53.4301 123.513 51.1112 123.513C48.7923 123.513 47.1816 121.967 47.1816 120.089ZM47.2184 100.379H55.004L53.6924 114.902H48.4932L47.2184 100.379Z" fill="white"/>
<path d="M51.9915 82.179C51.5188 82.0296 51.0293 81.9329 50.533 81.8908C49.3302 81.8643 48.1554 82.2369 47.2121 82.9441C46.2821 83.6726 45.5318 84.5849 45.0138 85.6172C44.5941 86.4023 44.4 86.919 44.3633 86.9041C44.3724 86.7741 44.4043 86.6465 44.4577 86.5265C44.5714 86.1879 44.7063 85.8561 44.8617 85.5328C45.3499 84.4527 46.1036 83.4987 47.0599 82.7504C48.0452 82.008 49.2871 81.6396 50.5435 81.7169C50.9191 81.7464 51.2873 81.8319 51.6347 81.9703C51.7669 82.0171 51.8881 82.088 51.9915 82.179Z" fill="white"/>
<path d="M42.4062 90.1684C42.6705 89.4487 43.0844 88.7864 43.6234 88.2207C43.5241 88.5952 43.3456 88.9468 43.0988 89.2542C42.9327 89.5985 42.6975 89.909 42.4062 90.1684Z" fill="white"/>
<path opacity="0.3" d="M62.3907 92.2703L26.6944 113.104L22.0566 120.705L64.9089 96.4041L62.3907 92.2703Z" fill="white"/>
<path opacity="0.3" d="M68.0081 101.502L20.7227 127.93C20.9164 128.625 21.2753 129.269 21.7719 129.813L68.8948 102.873L68.0081 101.502Z" fill="white"/>
<path opacity="0.3" d="M33.1208 10.1144C27.6174 9.22507 21.0542 10.7405 15.5193 9.85111C14.6956 9.72193 13.7985 9.59772 13.0745 9.9952C12.2036 10.4672 11.9046 11.5206 11.8626 12.4795C11.8405 13.7952 12.1092 15.1008 12.6513 16.3124C13.1934 17.524 13.9969 18.6148 15.0104 19.515C17.0732 21.3011 19.6497 22.4667 22.413 22.8638C24.6112 23.2166 26.9721 23.1471 28.9342 22.1434C32.3759 20.3795 34.0285 13.6968 33.1208 10.1144Z" fill="black"/>
<path d="M11.7468 19.6593C11.7468 19.6593 8.40484 15.9527 7.92217 14.2385C7.5969 13.1057 7.75954 9.93078 7.92217 7.9185C7.9587 7.24099 8.20364 6.58838 8.62684 6.04103C9.05005 5.49369 9.63304 5.0755 10.304 4.83798C10.5018 4.74559 10.7223 4.70558 10.9421 4.7222C11.1619 4.73882 11.3729 4.81145 11.5527 4.93238C12.0061 4.3508 12.5154 3.81023 13.0741 3.31759C14.3857 2.04563 15.01 1.1811 17.8955 1.9711C17.8955 1.9711 20.0203 -0.150485 21.2427 0.00851001C22.063 0.123448 22.8745 0.289426 23.6717 0.505369C23.6717 0.505369 28.3095 0.316563 29.2644 1.72764C29.8066 2.36015 30.5381 2.8226 31.3629 3.05425C32.0912 3.29808 32.7605 3.6779 33.3309 4.17121C33.9014 4.66452 34.3614 5.26128 34.6839 5.9261C35.2272 7.14536 35.5414 8.44513 35.6125 9.76682L30.8907 9.94072C30.8907 9.94072 31.216 20.2207 30.0356 21.0505C28.8552 21.8802 28.3935 21.602 28.3935 21.602C28.3935 21.602 27.4859 24.0167 23.9446 22.228C23.9446 22.228 21.0066 23.0677 19.7475 21.92C18.4883 20.7722 13.903 9.73204 13.903 9.73204L14.0342 15.1975C14.0342 15.1975 16.4632 18.7451 15.2723 19.5748C14.0814 20.4046 11.7468 19.6593 11.7468 19.6593Z" fill="#FFBF9D"/>
<path d="M17.6445 5.70264C17.7534 5.91014 17.843 6.12627 17.9121 6.34855L18.5522 8.14221C19.0768 9.65763 19.7955 11.7544 20.5615 14.1045C21.3275 16.4547 21.9675 18.5514 22.6915 19.9824C22.9697 20.5446 23.2924 21.086 23.6569 21.6021C23.8023 21.789 23.9372 21.983 24.0608 22.1834C24.0608 22.1834 24.0031 22.1437 23.9192 22.0592C23.8352 21.9748 23.7146 21.8406 23.5677 21.6617C23.1666 21.1532 22.8154 20.611 22.5184 20.042C21.7367 18.621 21.0757 16.4845 20.3044 14.1492C19.5332 11.814 18.8512 9.71726 18.3685 8.18693C18.1429 7.45655 17.9593 6.84541 17.8124 6.36843C17.7316 6.1528 17.6753 5.9296 17.6445 5.70264V5.70264Z" fill="#FF9A6C"/>
<path d="M23.4512 4.44531C23.5575 4.65804 23.6385 4.88135 23.6925 5.1111L24.2539 6.94948C24.7103 8.50962 25.3294 10.661 25.9957 13.0459C26.6619 15.4309 27.2495 17.5972 27.6588 19.1672C27.8529 19.9175 28.0103 20.5386 28.1362 21.0305C28.2069 21.2556 28.2526 21.487 28.2726 21.7211C28.1703 21.5068 28.0895 21.2839 28.0312 21.0553C27.8843 20.5584 27.7007 19.9523 27.4751 19.212C27.0135 17.6568 26.3944 15.5004 25.7281 13.1155C25.0618 10.7306 24.4795 8.56427 24.065 6.9942C23.8761 6.24891 23.7135 5.62287 23.5876 5.13595C23.5211 4.9099 23.4755 4.67882 23.4512 4.44531V4.44531Z" fill="#FF9A6C"/>
<path d="M141.999 165.959C140.535 164.43 138.637 163.332 136.531 162.798C134.425 162.264 132.202 162.316 130.127 162.948L126.533 159.232L126.008 158.705L97.5939 129.177C98.3944 127.424 98.6872 125.5 98.4419 123.604C98.1966 121.708 97.4223 119.909 96.1985 118.39C94.9747 116.872 93.3458 115.69 91.4793 114.966C89.6129 114.242 87.5765 114.002 85.5797 114.271L84.2051 114.778L89.037 117.854L88.78 122.822L84.8714 126.181L79.6251 125.937L76.1782 122.34L74.7617 122.892C74.3525 125.903 76.4825 129.694 78.8066 132.118C80.2694 133.645 82.1649 134.741 84.2672 135.276C86.3695 135.811 88.5898 135.762 90.6634 135.134L119.555 165.155L120.442 166.089L123.18 168.936C122.32 170.829 122.052 172.917 122.411 174.951C122.769 176.984 123.737 178.877 125.2 180.403C127.514 182.818 130.583 184.428 133.778 184.348L135.2 183.822L131.753 180.224L132.01 175.231L135.919 171.877L141.165 172.121L143.19 176.239L144.612 175.713C145.052 174.009 145.043 172.228 144.588 170.528C144.132 168.828 143.243 167.259 141.999 165.959V165.959Z" fill="#E0E0E0"/>
<path opacity="0.3" d="M141.999 165.959C140.535 164.43 138.637 163.332 136.531 162.798C134.425 162.264 132.202 162.316 130.127 162.948L126.533 159.232L126.008 158.705L97.5939 129.177C98.3944 127.424 98.6872 125.5 98.4419 123.604C98.1966 121.708 97.4223 119.909 96.1985 118.39C94.9747 116.872 93.3458 115.69 91.4793 114.966C89.6129 114.242 87.5765 114.002 85.5797 114.271L84.2051 114.778L89.037 117.854L88.78 122.822L84.8714 126.181L79.6251 125.937L76.1782 122.34L74.7617 122.892C74.3525 125.903 76.4825 129.694 78.8066 132.118C80.2694 133.645 82.1649 134.741 84.2672 135.276C86.3695 135.811 88.5898 135.762 90.6634 135.134L119.555 165.155L120.442 166.089L123.18 168.936C122.32 170.829 122.052 172.917 122.411 174.951C122.769 176.984 123.737 178.877 125.2 180.403C127.514 182.818 130.583 184.428 133.778 184.348L135.2 183.822L131.753 180.224L132.01 175.231L135.919 171.877L141.165 172.121L143.19 176.239L144.612 175.713C145.052 174.009 145.043 172.228 144.588 170.528C144.132 168.828 143.243 167.259 141.999 165.959V165.959Z" fill="black"/>
<path d="M140.577 166.486C139.112 164.956 137.213 163.859 135.106 163.325C133 162.791 130.775 162.843 128.699 163.475L125.127 159.729L124.602 159.232L96.1878 129.708C96.9883 127.955 97.2811 126.032 97.0358 124.136C96.7905 122.24 96.0162 120.44 94.7924 118.922C93.5686 117.403 91.9396 116.221 90.0732 115.497C88.2068 114.773 86.1704 114.534 84.1736 114.803L87.6204 118.4L87.3634 123.369L83.4548 126.727L78.1822 126.484L74.7616 122.892C74.2865 124.745 74.3409 126.686 74.9194 128.513C75.4978 130.34 76.5794 131.989 78.053 133.289C79.5266 134.59 81.3391 135.495 83.3045 135.913C85.2699 136.331 87.3172 136.245 89.2363 135.666L118.118 165.691L119.004 166.625L121.743 169.472C120.943 171.226 120.652 173.15 120.898 175.047C121.145 176.943 121.92 178.743 123.145 180.261C124.369 181.779 125.999 182.961 127.866 183.684C129.733 184.408 131.77 184.647 133.767 184.378L130.321 180.781L130.578 175.812L134.481 172.453L139.754 172.697L143.2 176.289C143.647 174.577 143.641 172.787 143.183 171.077C142.726 169.367 141.831 167.79 140.577 166.486Z" fill="#E0E0E0"/>
<path d="M140.576 166.486C140.576 166.486 140.739 166.655 141.048 166.983C141.49 167.51 141.883 168.071 142.223 168.662C142.768 169.633 143.154 170.677 143.367 171.758C143.646 173.241 143.602 174.763 143.236 176.229V176.299L143.183 176.249L139.731 172.657H139.768L134.495 172.419H134.537L130.629 175.777V175.738C130.55 177.288 130.466 178.977 130.377 180.731V180.686C131.426 181.794 132.617 183.017 133.824 184.279L133.913 184.368H133.782C130.828 184.762 127.828 184.047 125.422 182.376C123.016 180.706 121.394 178.211 120.902 175.425C120.55 173.385 120.82 171.293 121.678 169.393V169.482L89.151 135.696L89.2507 135.721C87.1946 136.337 84.9973 136.395 82.9079 135.889C79.9968 135.178 77.4985 133.409 75.9532 130.967C74.4079 128.524 73.9398 125.604 74.6501 122.837L74.6921 122.668L74.8128 122.797L78.2596 126.394L78.1914 126.365L83.4378 126.608L83.3696 126.633L87.2729 123.274V123.339C87.3568 121.656 87.4425 120 87.5299 118.37V118.435L84.0883 114.838L83.9676 114.713H84.1408C86.2543 114.428 88.41 114.703 90.3682 115.508C92.2284 116.283 93.8372 117.513 95.0293 119.072C96.2215 120.631 96.9541 122.462 97.1518 124.377C97.3348 126.199 97.0317 128.036 96.2704 129.718V129.634L128.74 163.445H128.698C130.244 162.978 131.877 162.829 133.489 163.008C135.1 163.187 136.652 163.69 138.042 164.484C138.747 164.897 139.404 165.378 140.004 165.92C140.392 166.297 140.586 166.496 140.586 166.496L139.988 165.935C139.385 165.4 138.724 164.927 138.016 164.523C136.63 163.744 135.085 163.252 133.483 163.081C131.881 162.91 130.259 163.063 128.724 163.53V163.53L96.1969 129.768L96.1602 129.733V129.684C96.9042 128.023 97.1999 126.213 97.0206 124.417C96.8347 122.56 96.1304 120.783 94.9798 119.27C93.7856 117.668 92.1474 116.409 90.2459 115.633C88.3443 114.857 86.2533 114.594 84.2037 114.872L84.2614 114.723L87.7083 118.321L87.7345 118.345V118.385C87.6506 120.041 87.5667 121.698 87.4827 123.354V123.393L87.4512 123.418L83.5427 126.777H83.5165H83.4745L78.2281 126.539H78.1862H78.1599L74.6763 122.961L74.8442 122.921C74.3738 124.76 74.4283 126.683 75.0022 128.495C75.5761 130.306 76.6487 131.941 78.1099 133.23C79.5712 134.519 81.3683 135.417 83.317 135.831C85.2656 136.245 87.2955 136.161 89.1983 135.586H89.256L89.298 135.631L121.825 169.417L121.862 169.457V169.502C121.013 171.38 120.747 173.448 121.096 175.464C121.422 177.387 122.305 179.186 123.646 180.661C124.907 182.071 126.535 183.144 128.368 183.777C130.103 184.37 131.965 184.554 133.792 184.313L133.75 184.423L130.309 180.82V180.791C130.403 179.042 130.492 177.352 130.571 175.822V175.797L134.48 172.443L139.726 172.692L143.162 176.294H143.094C143.751 173.753 143.406 171.073 142.124 168.757C141.792 168.164 141.406 167.6 140.969 167.072L140.576 166.486Z" fill="#263238"/>
<path d="M94.896 131.408C94.896 131.408 94.8646 131.507 94.7754 131.671C94.6461 131.904 94.5006 132.128 94.3399 132.342C93.8094 133.054 93.1693 133.687 92.4407 134.22C91.7112 134.75 90.901 135.172 90.0379 135.472C89.7785 135.567 89.5119 135.643 89.2405 135.701C89.0516 135.74 88.9414 135.76 88.9414 135.745C88.9414 135.73 89.3506 135.606 89.9907 135.353C91.664 134.69 93.1266 133.627 94.235 132.267C94.6495 131.746 94.8698 131.408 94.896 131.408Z" fill="#263238"/>
<path d="M130.199 140.545L115.084 133.892L101.595 132.302L106.548 136.252C106.548 136.252 89.1091 142.006 88.8048 143.308C88.5005 144.609 90.1794 148.087 93.2537 147.446C93.2537 147.446 91.5277 149.434 92.2464 151.62C92.9652 153.806 94.5548 154.229 97.4928 153.717C97.4928 153.717 95.4992 156.544 97.0626 157.985C98.626 159.426 101.06 159.058 101.06 159.058C101.06 159.058 101.092 162.501 103.012 162.804C104.932 163.107 110.283 162.75 112.282 162.163L122.434 159.182L129.05 157.806L130.199 140.545Z" fill="#FFBF9D"/>
<path d="M102.425 144.917C102.483 145.106 100.473 145.826 97.9395 146.522C95.4055 147.218 93.307 147.63 93.2493 147.441C93.1915 147.252 95.2009 146.537 97.7297 145.836C100.258 145.136 102.367 144.728 102.425 144.917Z" fill="#FF9A6C"/>
<path d="M104.99 151.714C105.048 151.903 103.453 152.524 101.428 153.101C99.4025 153.677 97.7132 153.995 97.6502 153.806C97.5873 153.617 99.1874 152.996 101.213 152.42C103.238 151.844 104.927 151.526 104.99 151.714Z" fill="#FF9A6C"/>
<path d="M107.288 157.364C107.325 157.572 105.877 157.86 104.172 158.268C102.467 158.675 101.15 159.262 101.024 159.053C100.898 158.844 102.152 158.034 103.962 157.562C105.772 157.09 107.288 157.185 107.288 157.364Z" fill="#FF9A6C"/>
<path d="M109.199 135.7C109.256 135.889 107.273 136.57 104.829 137.37C102.384 138.17 100.38 138.786 100.296 138.597C100.212 138.408 102.111 137.499 104.582 136.699C107.053 135.899 109.146 135.512 109.199 135.7Z" fill="#FF9A6C"/>
<path d="M127.356 139.293L160.036 150.502L158.121 171.743L122.146 158.01L127.356 139.293Z" fill="#FFBF9D"/>
<path d="M169.285 102.123C169.285 102.123 173.545 106.297 176.027 113.794C178.508 121.292 190.192 153.071 189.909 163.187C189.599 173.646 182.165 181.109 165.828 176.975C156.08 174.491 144.465 170.516 144.465 170.516L152.723 144.823L159.181 146.363L148.735 127.821L169.285 102.123Z" fill="#CA005D"/>
<path d="M161.808 114.276C161.871 114.316 157.349 120.412 151.714 127.895C146.08 135.378 141.463 141.405 141.39 141.345C141.316 141.285 145.849 135.209 151.484 127.726C157.118 120.243 161.745 114.231 161.808 114.276Z" fill="#263238"/>
<path d="M174.31 149.876C174.31 149.876 174.027 149.747 173.518 149.523C172.798 149.226 172.054 148.984 171.293 148.798C170.323 148.545 169.148 148.301 167.841 148.038L163.602 147.148C160.596 146.512 157.873 145.921 155.911 145.484L153.587 144.947C153.299 144.893 153.017 144.817 152.742 144.719C153.034 144.738 153.324 144.781 153.608 144.848L155.953 145.305C157.931 145.698 160.675 146.259 163.665 146.9L167.883 147.804C169.184 148.087 170.359 148.341 171.33 148.624C172.102 148.833 172.85 149.113 173.565 149.459C173.759 149.552 173.946 149.657 174.126 149.772C174.252 149.821 174.315 149.866 174.31 149.876Z" fill="#263238"/>
<path opacity="0.3" d="M182.662 150.994C182.557 150.384 182.298 149.806 181.907 149.311C181.516 148.815 181.005 148.416 180.417 148.147C179.234 147.622 177.962 147.299 176.66 147.193C170.785 146.433 164.851 146.199 158.928 146.01L159.452 146.234C166.77 147.513 173.933 149.489 180.831 152.132C181.017 152.232 181.223 152.296 181.435 152.321C181.648 152.346 181.863 152.33 182.069 152.276C182.294 152.144 182.471 151.951 182.577 151.722C182.683 151.493 182.712 151.239 182.662 150.994Z" fill="black"/>
<circle cx="50.5" cy="110.5" r="23.75" fill="#FFA100" stroke="black" stroke-width="0.5" stroke-miterlimit="2.9238" stroke-linecap="square" stroke-dasharray="7 1 5.6 7 2.8 5.6"/>
<path d="M64.1687 101.45C63.3866 100.653 62.1034 100.651 61.3185 101.445L48.9591 113.953C48.177 114.744 46.8991 114.745 46.1158 113.955L40.6765 108.465C39.8932 107.675 38.6154 107.676 37.8332 108.467L37.389 108.917C36.6192 109.696 36.6192 110.949 37.389 111.728L46.1158 120.56C46.8988 121.353 48.1782 121.353 48.9611 120.56L64.6159 104.717C65.3838 103.94 65.386 102.691 64.6208 101.911L64.1687 101.45Z" fill="white"/>
</svg>
