<svg width="339" height="339" viewBox="0 0 339 339" fill="none" xmlns="http://www.w3.org/2000/svg">
<mask id="mask0_7920_108753" style="mask-type:alpha" maskUnits="userSpaceOnUse" x="0" y="0" width="339" height="339">
<circle cx="169.798" cy="169.763" r="169.001" fill="#EFEFEF"/>
</mask>
<g mask="url(#mask0_7920_108753)">
<path d="M138.113 45.9946C130.564 47.8117 126.659 56.6376 125.878 64.4252C125.097 72.2127 126.138 80.5195 122.754 87.5283C119.11 95.5754 110.259 101.546 109.998 110.372C109.738 115.823 113.122 120.755 112.862 126.207C112.602 135.032 103.49 141.782 103.23 150.608C102.97 156.838 107.135 163.068 106.094 169.298C105.313 174.23 101.408 178.124 99.8458 182.796C96.722 192.141 102.97 202.265 111.3 207.716C120.672 213.687 132.646 214.985 143.059 211.61C153.472 208.235 162.323 200.188 166.488 190.064C171.174 178.902 170.133 166.183 169.092 154.242C165.968 116.602 163.625 78.962 162.063 41.0625" fill="#353535"/>
<path d="M149.78 249.595L116.767 312.978L180.315 387.395L165.143 424.263L87.2127 357.356C67.1993 348.373 58.4528 324.452 68.3764 304.703L104.939 232.602L149.78 249.595Z" fill="#FBCAA8"/>
<path d="M248 352.823L240.451 260.151L279.499 260.93C279.499 260.93 281.321 247.172 275.594 217.319C271.949 198.889 259.714 187.727 245.917 180.978V180.718L244.616 180.458C227.174 172.411 208.691 171.113 208.691 171.113L160.792 171.632C160.792 171.632 124.086 166.96 103.781 193.178C95.9717 203.302 71.7617 272.092 71.7617 272.092L129.293 299.868L123.826 261.709C123.826 261.709 124.867 289.225 128.512 298.051C130.595 302.983 136.061 318.039 136.061 318.039L135.28 363.726L248 352.823Z" fill="#91004B"/>
<path d="M221.451 246.652L214.422 277.023H281.585L277.16 226.145L221.451 246.652Z" fill="#91004B"/>
<g opacity="0.3">
<path d="M157.41 252.105C157.41 252.105 172.249 362.689 214.421 359.574C214.421 359.574 233.424 359.314 239.412 346.854V341.922L157.41 252.105Z" fill="black"/>
</g>
<g opacity="0.3">
<path d="M218.554 232.633L210.484 286.627L215.691 296.231L224.281 277.541H220.637L218.554 232.633Z" fill="black"/>
</g>
<path d="M154.526 180.463C154.787 167.224 154.787 153.466 154.787 153.466C154.787 153.466 137.866 150.091 135.002 128.026C132.139 107 139.948 57.4192 139.948 57.4192C164.679 48.0741 190.19 56.6405 207.111 76.3689L202.946 183.059C202.426 195.519 191.492 204.864 178.216 204.345C164.679 203.566 154.006 192.923 154.526 180.463Z" fill="#FBCAA8"/>
<path d="M154.781 153.462C154.781 153.462 169.62 154.76 184.718 146.453C184.718 146.453 177.169 161.509 155.042 158.913L154.781 153.462Z" fill="#E09C72"/>
<path d="M157.136 124.131C155.965 123.681 154.87 125.16 154.285 126.059C153.7 127.408 153.478 129.984 155.233 130.883C156.404 131.782 158.815 131.782 159.985 130.883C161.156 129.984 161.073 127.21 160.487 126.311C159.902 124.962 158.891 123.681 157.136 124.131Z" fill="#E09C72"/>
<path d="M196.967 102.58C194.364 108.551 187.856 113.483 188.897 119.972C189.418 124.126 192.282 128.279 191.761 132.432C190.98 137.884 185.513 141.518 184.732 146.71C183.691 153.199 190.199 158.391 192.542 164.361C196.186 173.187 191.501 183.311 191.501 192.656C191.24 207.453 203.996 221.211 218.574 222.249C224.562 222.768 231.33 220.951 234.194 215.759C236.797 211.606 236.276 206.155 237.838 201.482C240.181 194.473 246.689 189.541 248.251 182.273C250.854 169.294 234.974 158.391 236.016 145.152C236.536 139.441 239.921 134.509 241.483 129.058C243.565 121.79 241.743 113.742 236.797 108.031C232.892 103.359 227.165 100.244 223.781 95.3118C219.876 89.6009 219.876 82.3325 218.574 75.5833C215.19 59.2294 202.695 44.9522 187.075 39.2414C171.196 33.5305 152.713 36.3859 139.436 46.5098C139.436 46.5098 135.531 63.6424 153.233 66.4978C170.935 69.3533 179.005 65.9787 181.088 72.9875C181.088 72.9875 179.005 81.2942 186.294 89.0817C193.323 97.1289 200.091 95.5714 196.967 102.58Z" fill="#353535"/>
<path d="M244.585 277.025L222.978 277.544C221.676 284.813 218.032 289.745 218.032 289.745C199.809 258.335 185.752 216.282 182.368 199.409C182.888 197.592 183.409 195.775 184.19 193.698C184.971 191.362 184.19 186.689 183.93 184.093C183.409 180.459 182.368 175.268 181.847 172.931C180.806 165.663 179.764 164.625 177.161 165.403C173.777 166.442 178.463 185.391 175.86 185.911C174.298 186.17 172.475 179.68 171.955 174.229C171.434 168.778 169.091 152.424 167.269 151.386C164.666 149.828 162.323 152.424 163.104 157.616C163.885 163.067 164.666 178.902 161.802 179.161C158.939 179.421 156.596 152.164 156.596 152.164C156.596 152.164 157.116 146.194 153.732 146.454C147.745 146.713 152.431 175.268 152.951 178.123C153.212 179.94 150.348 180.459 150.088 178.383C149.827 176.306 148.265 151.126 142.278 151.386C137.592 151.645 145.923 175.008 143.319 180.459C140.716 185.911 138.894 162.029 134.468 162.288C132.906 162.288 131.605 162.807 134.729 176.306C136.291 183.574 140.976 197.073 145.142 207.975C152.17 245.356 182.628 365.544 230.788 343.479C257.601 331.278 268.534 276.765 268.534 276.765L244.585 277.025Z" fill="#FBCAA8"/>
<path d="M151.899 180.462C151.899 180.462 152.159 180.462 152.42 180.462C152.68 180.462 153.461 179.943 153.461 178.904C153.461 177.347 153.201 175.01 152.68 171.895C152.42 168.78 151.378 165.146 151.378 160.733C151.378 158.657 151.378 156.32 151.639 153.724C151.639 152.427 151.639 151.129 151.899 150.09C152.159 148.792 152.94 147.494 153.721 147.754C154.763 147.754 155.283 148.533 155.544 149.571C155.804 150.609 156.064 151.907 155.804 152.946C156.324 159.695 157.105 166.963 158.667 174.491C158.928 175.53 159.188 176.308 159.448 177.347C159.709 177.866 159.709 178.385 159.969 178.904C160.229 179.164 160.229 179.423 160.49 179.683C160.75 179.943 161.01 180.202 161.531 180.462C162.572 180.462 162.833 179.683 163.093 179.164C163.353 178.645 163.353 178.125 163.613 177.606C163.874 176.568 163.874 175.53 164.134 174.491C164.394 170.338 164.394 165.925 163.874 161.512C163.874 159.176 163.093 157.099 163.613 155.022C163.874 153.984 164.134 152.946 164.915 152.686C165.175 152.427 165.696 152.427 165.956 152.427C166.217 152.427 166.477 152.686 166.477 152.686C166.737 152.946 166.737 152.686 166.737 152.946C167.518 154.763 168.039 157.099 168.56 159.435C169.08 161.772 169.341 164.108 169.861 166.444C170.122 168.78 170.642 171.117 170.903 173.713C171.163 176.049 171.423 178.645 172.204 180.981C172.464 182.279 172.985 183.317 173.506 184.615C173.766 185.134 174.026 185.913 174.547 186.432C174.807 186.692 175.328 187.211 176.109 186.951C176.89 186.692 177.15 186.173 177.15 185.913C177.671 184.356 177.411 183.058 177.411 181.76C177.411 180.462 177.15 179.164 177.15 177.866C176.89 175.789 176.63 173.453 176.63 171.376C176.63 170.338 176.63 169.3 176.63 168.261C176.63 167.742 176.89 167.223 176.89 166.963C176.89 166.704 177.15 166.704 177.15 166.704H177.411C179.233 165.925 179.753 168.261 180.274 170.338C180.795 172.415 181.055 174.491 181.315 176.568C182.096 180.721 182.877 184.615 183.398 188.509C183.658 190.326 183.658 192.403 183.138 194.22C182.617 196.037 181.836 197.854 181.315 199.671V199.931V200.19C184.439 214.208 188.865 226.668 193.03 237.83C197.195 248.992 201.36 258.597 205.005 266.384C208.649 274.172 211.773 280.143 214.116 284.296C215.157 286.373 216.199 287.67 216.719 288.968C217.24 290.007 217.761 290.526 217.761 290.526C217.761 290.526 217.5 290.007 216.98 288.968C216.459 287.67 215.418 286.113 214.376 284.296C212.294 280.143 209.17 273.912 205.525 266.125C201.881 258.337 197.976 248.733 194.071 237.57C190.166 226.408 185.741 213.948 182.617 200.19V200.45C183.138 198.633 183.919 196.816 184.439 194.999C185.22 192.922 184.96 190.845 184.7 188.768C184.179 184.615 183.398 180.721 182.617 176.568C182.096 174.491 182.096 172.415 181.576 170.338C181.315 169.3 181.055 168.261 180.534 167.223C180.274 166.704 179.753 166.185 178.972 165.665C178.192 165.406 177.411 165.406 176.89 165.665H176.369C176.109 165.665 175.849 165.925 175.849 165.925C175.588 166.185 175.328 166.444 175.068 166.963C174.807 167.482 174.807 168.261 174.547 168.78C174.287 169.819 174.547 171.117 174.547 172.155C174.547 174.232 174.807 176.568 175.068 178.645C175.068 179.943 175.328 181.24 175.328 182.538C175.328 183.836 175.328 185.134 175.068 185.913C175.068 186.173 174.807 186.173 175.068 186.173C175.068 186.173 175.068 186.432 175.068 186.173C175.068 186.173 175.068 186.173 174.807 185.913C174.547 185.653 174.287 185.134 174.026 184.615C173.506 183.577 173.245 182.279 172.985 181.24C172.464 178.904 171.944 176.568 171.683 173.972C171.423 171.636 171.163 169.04 170.642 166.704C170.382 164.367 169.861 162.031 169.341 159.695C168.82 157.359 168.56 155.022 167.258 152.686C167.258 152.427 166.737 151.907 166.477 151.648C166.217 151.388 165.956 151.388 165.436 151.129C164.655 150.869 163.874 151.129 163.353 151.388C162.052 152.167 161.791 153.465 161.531 154.763C161.271 156.061 161.271 157.099 161.531 158.397C161.791 159.435 161.791 160.474 161.791 161.772C162.052 166.185 162.312 170.338 162.052 174.491C162.052 175.53 161.791 176.568 161.791 177.606C161.791 178.125 161.531 178.645 161.271 178.904C161.271 179.164 161.01 179.164 161.01 179.423C161.01 179.683 160.75 179.423 160.75 179.683C161.01 179.423 160.75 179.683 160.75 179.423C160.75 179.423 160.49 179.164 160.49 178.904C160.229 178.385 160.229 178.125 159.969 177.606C159.709 176.568 159.448 175.789 159.188 174.751C157.626 167.223 156.845 159.954 156.324 153.205C156.324 151.907 156.324 150.609 155.804 149.311C155.544 148.792 155.283 148.014 154.763 147.494C154.242 146.975 153.461 146.716 152.94 146.716H153.201C152.159 146.456 151.378 147.235 150.858 147.754C150.337 148.273 150.337 149.052 150.077 149.831C149.816 151.129 149.816 152.427 149.816 153.724C149.816 156.32 149.816 158.657 149.816 160.733C149.816 165.146 150.858 168.78 151.378 171.895C151.899 175.01 152.159 177.347 152.42 178.904C152.68 179.683 151.899 180.202 151.639 180.202C152.159 180.462 151.899 180.462 151.899 180.462Z" fill="#E09C72"/>
<path d="M150.078 86.6168C149.418 86.4957 148.738 86.4654 148.066 86.5273H147.625C146.554 86.5311 145.493 86.7106 144.505 87.0556C140.976 88.1838 139.696 90.5387 138.986 92.4727C138.916 92.6823 138.894 92.901 138.921 93.1174C138.944 93.4047 139.086 93.6765 139.324 93.8858C139.562 94.095 139.88 94.2286 140.223 94.2635C140.394 94.2904 140.569 94.2904 140.74 94.2635C140.956 94.2409 141.165 94.1796 141.351 94.0838C141.536 93.988 141.695 93.8599 141.816 93.7083C141.982 93.4983 142.126 93.2766 142.246 93.0458C142.479 92.5115 142.809 92.0101 143.225 91.5594C143.705 90.9656 144.37 90.4919 145.149 90.189C145.928 89.8861 146.792 89.7656 147.647 89.8403L148.303 89.894C148.701 89.894 149.11 89.9656 149.508 89.9746C150.05 90.0358 150.601 89.9226 151.046 89.6581C151.492 89.3936 151.8 88.9977 151.907 88.5509C151.945 88.3228 151.927 88.0908 151.855 87.8686C151.782 87.6464 151.657 87.4385 151.487 87.2573C151.316 87.0761 151.104 86.9252 150.862 86.8136C150.62 86.7021 150.353 86.6321 150.078 86.6079" fill="#353535"/>
<path d="M183.017 94.1979C182.178 90.5911 180.247 88.2959 177.124 87.1811C175.602 86.6042 173.966 86.3872 172.345 86.5472C171.682 86.5937 171.061 86.8911 170.613 87.3778C170.418 87.6146 170.279 87.8917 170.206 88.1887C170.134 88.4856 170.129 88.7949 170.193 89.0938C170.224 89.398 170.319 89.6924 170.472 89.958C170.625 90.2236 170.832 90.4545 171.081 90.6358C171.329 90.8171 171.613 90.9447 171.915 91.0104C172.216 91.0762 172.528 91.0785 172.831 91.0174C172.985 91.0174 173.129 91.0174 173.283 90.9518C173.397 90.9412 173.512 90.9412 173.625 90.9518C174.489 90.8398 175.368 90.9319 176.188 91.2207C177.009 91.5094 177.75 91.9866 178.349 92.6131C178.893 93.2642 179.318 94.0038 179.607 94.7991L180.004 95.892C180.136 96.228 180.383 96.5079 180.701 96.6834C181.019 96.8589 181.389 96.9192 181.748 96.8538H181.979C182.336 96.7713 182.651 96.5651 182.868 96.2724C183.084 95.9797 183.188 95.6199 183.16 95.2581C183.148 95.0484 183.118 94.8401 183.072 94.6351L183.017 94.1979Z" fill="#353535"/>
<path d="M144.108 98.3543C144.144 99.1193 144.405 99.8566 144.86 100.474C145.314 101.092 145.941 101.562 146.662 101.826C147.383 102.09 148.166 102.136 148.913 101.959C149.661 101.782 150.339 101.389 150.863 100.829C151.388 100.27 151.735 99.5684 151.862 98.8131C151.988 98.0577 151.889 97.282 151.575 96.5828C151.262 95.8836 150.749 95.2921 150.1 94.8822C149.451 94.4723 148.695 94.2622 147.927 94.2782C146.878 94.3173 145.887 94.7693 145.171 95.5353C144.455 96.3012 144.073 97.3187 144.108 98.3651" fill="#353535"/>
<path d="M170.169 100.918C170.178 101.426 170.29 101.927 170.497 102.392C170.705 102.857 171.004 103.276 171.378 103.625C171.751 103.974 172.192 104.245 172.673 104.422C173.154 104.6 173.666 104.68 174.179 104.659C175.212 104.6 176.182 104.148 176.887 103.397C177.591 102.646 177.975 101.655 177.958 100.63C177.95 100.121 177.839 99.6183 177.632 99.1522C177.426 98.6861 177.126 98.2658 176.753 97.9161C176.379 97.5664 175.938 97.2944 175.456 97.1162C174.975 96.9379 174.462 96.8571 173.948 96.8783C172.909 96.9322 171.932 97.3837 171.224 98.1373C170.515 98.891 170.13 99.888 170.149 100.918" fill="#353535"/>
<path d="M153.789 105.52C154.391 104.06 157.406 104.607 156.839 106.113C155.489 109.363 152.703 116.209 160.348 115.095C162.313 114.812 163.205 117.112 161.228 117.404C157.9 117.888 154.476 117.852 152.788 115.214C150.895 112.211 152.535 108.459 153.752 105.52" fill="#E09C72"/>
</g>
</svg>
