<svg width="190" height="190" viewBox="0 0 190 190" fill="none" xmlns="http://www.w3.org/2000/svg">
<circle cx="95" cy="95" r="95" fill="#EFEFEF"/>
<mask id="mask0_5317_61438" style="mask-type:alpha" maskUnits="userSpaceOnUse" x="0" y="0" width="190" height="190">
<circle cx="95" cy="95" r="95" fill="#EFEFEF"/>
</mask>
<g mask="url(#mask0_5317_61438)">
<path d="M33.6163 138.817C33.6163 138.817 29.8842 129.324 45.2886 116.475L45.0631 137.715L33.6163 138.817Z" fill="#102048"/>
<path d="M113.494 164.59L111.865 210.026C111.84 211.254 111.79 212.481 111.74 213.683C110.889 238.631 109.286 262.576 107.031 285.745C104.476 311.97 101.145 337.168 97.2126 361.615H71.4385C68.007 307.111 62.221 241.661 72.8412 182.449L79.3035 166.619L113.494 164.59Z" fill="#1F3C88"/>
<path d="M148.962 185.003C155.424 239.106 161.035 299.697 158.555 356.179L130.552 361.614C122.912 314.5 109.537 253.91 107.834 199.281L104.102 154.871L146.081 166.618L148.962 185.003Z" fill="#1F3C88"/>
<path d="M116.699 53.2793H97.9883V76.4734H116.699V53.2793Z" fill="#F9B384"/>
<path d="M97.8639 67.5813C104.702 77.0744 113.418 72.9164 116.675 66.5293L138.917 165.367C118.152 174.309 98.1895 175.637 79.5039 165.017L91.3264 71.4386L97.8639 67.5813Z" fill="white"/>
<path d="M127.02 38.9514C131.153 30.7608 132.08 18.1368 122.462 17.6108C114.096 9.37011 100.57 10.4973 92.7302 19.0886C77.5513 14.4047 75.297 42.2577 94.6338 41.1806L127.02 38.9514Z" fill="#353535"/>
<path d="M97.9883 53.2793V65.6027C103.524 65.728 108.158 63.6741 110.988 60.1424C110.988 60.1424 105.528 56.3351 101.244 53.2793H97.9883Z" fill="#E09C72"/>
<path d="M124.463 30.8116L122.985 45.1389C120.706 51.476 117.925 55.9595 114.394 58.7899C110.762 61.7204 106.053 62.6472 101.72 61.3197C98.0126 60.1925 94.9818 57.4373 93.7294 53.7052C93.0531 51.6513 92.9028 49.3219 93.504 46.792C93.6042 46.3913 93.6793 45.9905 93.7044 45.5898C93.9047 43.9366 93.7294 42.2835 93.3036 40.6804C92.4269 37.324 92.3768 33.8174 93.003 30.2105L109.785 24.9004L124.463 30.8116Z" fill="#F9B384"/>
<path d="M91.6513 203.039C82.9597 204.942 72.7904 204.767 61.4689 203.039C64.2491 177.766 68.0564 153.494 73.9176 131.252L49.4961 128.873C49.7215 124.94 50.2475 120.882 51.049 116.724C51.9508 112.041 53.2532 107.231 54.9064 102.322C54.9565 102.147 55.0316 101.971 55.0817 101.796C60.9679 84.7386 71.6883 71.8892 98.0134 67.5059C106.254 106.781 105.653 164.916 91.6513 203.039Z" fill="#91004B"/>
<path d="M154.572 170.302C156.05 179.169 157.352 188.036 158.705 197.253C150.264 200.259 140.069 201.361 128.372 200.835C123.488 185.105 120.156 168.699 118.253 151.742C118.253 151.667 118.253 151.617 118.228 151.566C115.222 124.615 113.268 96.161 116.7 66.5547C127.47 67.3312 138.516 70.6124 148.861 77.25C152.418 79.5294 155.273 82.8858 157.202 86.8433C164.441 101.722 167.797 114.822 170.602 128.347L147.959 137.54C148.611 140.295 149.237 143.025 149.838 145.73C151.666 154.096 153.194 162.187 154.572 170.302Z" fill="#91004B"/>
<path d="M79.1288 121.708L76.098 146.38L74.6954 148.259L67.7572 157.426C64.9268 161.158 61.0694 163.012 57.162 163.037C52.954 163.062 48.771 160.983 45.8905 156.775L33.6172 138.816C39.6537 130.75 45.4647 122.535 47.1429 111.814C55.058 121.057 57.4125 124.514 57.4125 124.514L79.1288 121.708Z" fill="#91004B"/>
<path d="M92.6048 36.0971C98.8166 35.7965 105.053 34.469 111.29 31.2128C113.269 34.995 117.928 39.9545 124.766 38.1009L125.517 33.9681L126.043 26.9547L105.429 20.3672L89.2734 25.6773L92.6048 36.0971Z" fill="#353535"/>
<path opacity="0.4" d="M154.571 170.3C141.421 169.023 128.922 162.961 118.252 151.74C118.202 151.69 118.152 151.64 118.102 151.59L118.227 151.565L149.837 145.729C151.665 154.094 153.193 162.185 154.571 170.3Z" fill="#660035"/>
<path d="M47.5148 111.514L46.7852 112.086L60.3144 129.361L61.0441 128.789L47.5148 111.514Z" fill="#91004B"/>
<path opacity="0.4" d="M143.901 101.246L148.56 127.997C148.56 127.997 140.244 133.507 137.689 128.999C135.71 125.467 138.315 113.945 143.901 101.246Z" fill="#660035"/>
<path d="M95.9842 120.257L90.3234 120.658C89.6972 120.708 89.1712 121.159 89.0209 121.81L88.9708 121.96C88.6953 122.987 88.8957 124.064 89.4968 124.891L90.5238 126.294C90.6991 126.519 90.649 126.845 90.4487 127.02C89.547 127.471 88.8957 128.347 88.8707 129.324C88.8707 129.575 88.8707 129.825 88.9208 130.051C89.1211 131.002 89.7974 131.779 90.6741 132.029L91.2251 132.18C91.3003 132.205 91.3253 132.28 91.3003 132.355L90.4987 133.683C89.8976 134.71 90.7743 136.663 91.6259 137.365C91.8012 137.64 92.3523 137.765 92.6528 137.79L95.1576 138.141C96.3098 138.291 97.4119 138.717 98.4389 139.293C103.473 142.249 109.635 141.948 115.797 141.648L115.321 125.467C111.113 122.236 106.304 119.506 100.718 117.377L87.4429 107.934C84.4873 109.211 86.3158 112.818 95.9842 120.257Z" fill="#F9B384"/>
<path d="M170.576 128.346L172.529 136.612C175.084 147.333 167.044 157.552 156.95 156.375L109.059 150.564L112.716 123.262L170.576 128.346Z" fill="#91004B"/>
<path d="M73.9672 100.773L67.2773 157.363L68.1977 157.472L74.8876 100.882L73.9672 100.773Z" fill="#91004B"/>
<path d="M112.75 122.795L112.672 123.719L148.611 126.76L148.689 125.837L112.75 122.795Z" fill="#91004B"/>
<path d="M98.2884 127.77C98.0129 127.745 91.5506 127.069 90.3984 126.744L90.6489 125.842C91.5506 126.092 96.5351 126.643 98.3886 126.844L98.2884 127.77Z" fill="#E28B6D"/>
<path d="M99.1412 133.907C98.8656 133.882 92.203 133.206 91.0508 132.88L91.3013 131.979C92.203 132.229 97.3377 132.78 99.2414 132.98L99.1412 133.907Z" fill="#E28B6D"/>
<path d="M120.207 48.6198C131.929 50.3732 133.482 31.7126 121.034 39.1768L120.207 48.6198Z" fill="#F9B384"/>
<path d="M122.912 43.5342C122.761 42.9331 122.736 42.2819 122.861 41.6557C122.987 41.0295 123.312 40.4033 123.788 39.9023C124.264 39.4264 124.965 39.0758 125.692 39.1259C126.418 39.1509 127.195 39.9274 127.37 40.2029C127.545 40.4784 127.495 40.804 127.069 40.4283C126.644 40.0526 126.168 39.9023 125.692 39.9524C125.216 39.9775 124.79 40.228 124.439 40.5786C124.089 40.9293 123.813 41.3801 123.613 41.8811C123.438 42.3821 123.337 42.9331 123.262 43.5342C123.187 44.1354 123.062 44.1354 122.912 43.5342Z" fill="#E09C72"/>
<path d="M101.52 53.1537L109.735 50.8242C109.735 50.8242 109.71 54.5313 105.778 55.433C103.523 55.9339 101.52 53.1537 101.52 53.1537Z" fill="white"/>
<path opacity="0.4" d="M68.8324 150.664L67.7553 157.427C64.9249 161.159 61.0676 163.012 57.1602 163.037C60.9924 147.382 70.1098 136.086 70.1098 136.086L68.8324 150.664Z" fill="#660035"/>
<path opacity="0.2" d="M60.5689 128.923L51.0508 116.7C51.9525 112.016 53.255 107.207 54.9081 102.297C54.9582 102.122 55.0334 101.947 55.0834 101.771C56.8869 105.153 61.1199 114.621 60.5689 128.923Z" fill="#660035"/>
<path d="M20.8907 88.896C19.3378 89.2717 18.5363 90.6743 18.5864 92.2273C16.8831 92.5529 16.0065 93.8303 15.5807 95.6338C11.1472 96.3101 12.5499 102.747 18.8369 104.751C19.3378 108.258 21.7424 111.264 25.4494 113.944L30.0582 124.138L35.3683 136.336L46.6398 114.82L44.3103 110.988L41.2795 105.978C41.0792 103.699 40.1274 100.543 38.9752 97.1366C38.9 94.2812 41.6803 87.844 44.3103 81.6071C39.1004 80.2044 36.5706 85.4394 34.2412 91.1753C29.0813 84.9635 23.8714 84.9134 20.8907 88.896Z" fill="#F9B384"/>
<path d="M25.023 95.7852C25.7244 96.4614 26.576 97.0125 27.4777 97.3882C29.0056 97.9894 29.9574 97.7389 30.283 97.6136C30.8341 97.3882 31.4603 96.5366 31.5354 95.6098C31.5855 94.8834 31.2849 94.2573 30.6588 93.8815L28.7051 92.7544L27.7783 89.0474L27.3775 89.1475L28.3544 93.0299L30.4584 94.2573C31.0846 94.633 31.1597 95.184 31.1347 95.5848C31.0846 96.3112 30.5586 97.0626 30.1578 97.2129C29.8572 97.3381 29.0307 97.5385 27.653 96.9874C26.2003 96.4113 24.973 95.3594 24.1965 94.0318L21.0906 88.7969L20.7148 89.0223L23.8208 94.2573C24.1464 94.8083 24.5471 95.3343 25.023 95.7852Z" fill="#E28B6D"/>
<path d="M22.543 98.8898C22.9688 99.2906 23.3696 99.6162 23.7954 99.7665C26.2 100.768 28.4041 100.318 29.0303 99.8416C29.6315 99.3908 29.6064 97.913 29.6064 97.7376H29.1806C29.1806 98.2887 29.0804 99.2655 28.7799 99.491C28.3541 99.7915 26.3753 100.368 23.9707 99.3657C21.6413 98.3889 18.8109 92.177 18.7859 92.127L18.4102 92.3023C18.5103 92.5277 20.4641 96.861 22.543 98.8898Z" fill="#E28B6D"/>
<path d="M18.8605 100.468C19.5619 101.144 20.3384 101.77 21.215 102.221C24.8219 104.15 25.9991 104.275 26.8007 103.874C27.2766 103.624 27.7274 102.897 27.6773 102.071C27.6523 101.545 27.3767 100.568 25.8739 99.9917L25.7236 100.392C26.9509 100.868 27.2265 101.57 27.2515 102.096C27.2766 102.772 26.9008 103.348 26.6003 103.498C25.949 103.824 24.8219 103.674 21.3903 101.845C18.034 100.067 15.7797 95.5583 15.7546 95.5332L15.3789 95.7336C15.4791 95.8839 16.7565 98.4387 18.8605 100.468Z" fill="#E28B6D"/>
<path d="M18.7852 104.977C20.4383 105.402 23.1685 105.377 23.8448 104.426C24.0201 104.175 24.1453 103.749 23.7446 103.123L23.3939 103.348C23.7195 103.849 23.5692 104.075 23.4941 104.175C22.9931 104.876 20.5385 104.977 18.8853 104.576L18.7852 104.977Z" fill="#E28B6D"/>
<path d="M27.8296 105.152L28.1552 104.902C26.9529 103.299 28.9818 99.8924 30.2091 97.8886L30.4095 97.5379L30.0337 97.3125L29.8334 97.6632C28.4808 99.8924 26.4269 103.324 27.8296 105.152Z" fill="#E28B6D"/>
<path d="M35.3687 136.361L30.0586 124.163C35.8446 120.631 40.5786 116.247 44.0853 110.787L44.2856 111.038L46.6151 114.87C46.6151 114.87 45.4378 119.879 42.0063 126.342C39.5767 130.95 35.3687 136.361 35.3687 136.361Z" fill="#F9B384"/>
<path d="M102.504 36.4447C102.319 36.3351 102.119 36.2539 101.91 36.2041L101.78 36.1515C101.464 36.0235 101.126 35.9593 100.784 35.9626C100.312 35.9649 99.8475 36.0808 99.4294 36.3003C99.0113 36.5199 98.652 36.8367 98.3818 37.2241C98.3387 37.2962 98.3069 37.3746 98.2877 37.4564C98.2533 37.5611 98.256 37.6744 98.2954 37.7773C98.3348 37.8802 98.4084 37.9663 98.5039 38.0212L98.6609 38.0848C98.7288 38.1007 98.7993 38.1019 98.8677 38.0885C98.9362 38.0751 99.001 38.0474 99.0579 38.0071C99.1354 37.9527 99.208 37.8916 99.2749 37.8246C99.4214 37.6631 99.5923 37.5256 99.7816 37.4175C100.006 37.262 100.269 37.172 100.542 37.1574C100.814 37.1429 101.085 37.2043 101.325 37.3349L101.516 37.4124C101.629 37.4791 101.745 37.5394 101.864 37.5931C102.014 37.675 102.19 37.6962 102.356 37.6524C102.521 37.6085 102.664 37.5029 102.754 37.3573C102.797 37.2811 102.825 37.197 102.835 37.1101C102.845 37.0231 102.837 36.935 102.813 36.851C102.789 36.767 102.747 36.6887 102.692 36.6208C102.637 36.5529 102.569 36.4967 102.492 36.4556" fill="#353535"/>
<path d="M114.11 38.3615C113.942 37.8881 113.651 37.4679 113.267 37.1443C112.883 36.8208 112.42 36.6055 111.926 36.5207C111.432 36.4291 110.924 36.4556 110.442 36.5982C110.341 36.6195 110.245 36.6619 110.161 36.7227C110.078 36.7835 110.007 36.8613 109.956 36.9511C109.903 37.0792 109.887 37.2197 109.91 37.3564C109.933 37.4932 109.994 37.6207 110.086 37.7243C110.178 37.8279 110.298 37.9033 110.431 37.942C110.564 37.9807 110.705 37.981 110.839 37.9429C110.886 37.9305 110.933 37.9146 110.978 37.8953L111.076 37.862C111.333 37.7807 111.607 37.7614 111.873 37.8058C112.14 37.8502 112.393 37.957 112.61 38.1175C112.812 38.2895 112.985 38.4939 113.12 38.7225L113.292 39.022C113.352 39.1182 113.444 39.1905 113.551 39.2263C113.658 39.2622 113.775 39.2595 113.881 39.2185L113.95 39.1948C114.055 39.1498 114.14 39.0685 114.189 38.9657C114.239 38.863 114.249 38.7458 114.219 38.6359C114.201 38.5719 114.179 38.509 114.155 38.4475L114.11 38.3615Z" fill="#353535"/>
<path d="M99.0016 39.9728C98.9011 40.1527 98.8372 40.3508 98.8138 40.5556C98.7904 40.7603 98.8079 40.9676 98.8652 41.1655C98.9226 41.3634 99.0187 41.5479 99.148 41.7083C99.2772 41.8687 99.437 42.0017 99.6182 42.0997C99.8026 42.2022 100.005 42.2674 100.215 42.2914C100.425 42.3154 100.637 42.2979 100.84 42.2397C101.043 42.1816 101.232 42.084 101.398 41.9526C101.563 41.8212 101.7 41.6584 101.803 41.4737C101.903 41.2944 101.967 41.0969 101.991 40.8927C102.014 40.6886 101.997 40.4817 101.941 40.2842C101.884 40.0867 101.789 39.9024 101.66 39.742C101.532 39.5816 101.373 39.4482 101.193 39.3496C100.822 39.152 100.388 39.1081 99.9846 39.2272C99.5812 39.3463 99.2405 39.619 99.0358 39.9867" fill="#353535"/>
<path d="M109.718 41.6653C109.758 41.8681 109.838 42.0608 109.954 42.2319C110.07 42.4031 110.219 42.5492 110.392 42.6616C110.565 42.774 110.76 42.8503 110.963 42.886C111.166 42.9218 111.375 42.9162 111.576 42.8696C111.983 42.7729 112.335 42.5215 112.559 42.1688C112.783 41.8161 112.861 41.3898 112.776 40.9805C112.737 40.7782 112.657 40.5859 112.542 40.415C112.426 40.2442 112.278 40.0981 112.105 39.9856C111.933 39.8731 111.739 39.7964 111.537 39.76C111.334 39.7236 111.126 39.7283 110.925 39.7738C110.516 39.8672 110.16 40.118 109.934 40.4719C109.708 40.8258 109.631 41.2544 109.718 41.6653Z" fill="#353535"/>
<path d="M103.624 44.5885C103.861 43.9652 104.905 44.2545 104.66 44.8489C104.129 46.2331 103.036 49.1174 105.664 48.7014C106.349 48.5845 106.613 49.5692 105.92 49.6808C104.772 49.8799 103.597 49.8555 103.072 48.7236C102.512 47.4314 103.126 45.8641 103.624 44.5885Z" fill="#E09C72"/>
<g clip-path="url(#clip0_5317_61438)">
<path d="M33.6203 138.817C33.6203 138.817 29.8881 129.324 45.2925 116.475L45.067 137.715L33.6203 138.817Z" fill="#102048"/>
<path d="M113.497 164.59L111.869 210.026C111.844 211.254 111.794 212.481 111.744 213.683C110.892 238.631 109.289 262.576 107.035 285.745C104.48 311.97 101.149 337.168 97.2165 361.615H71.4424C68.0109 307.111 62.2249 241.661 72.8451 182.449L79.3074 166.619L113.497 164.59Z" fill="#1F3C88"/>
<path d="M148.966 185.003C155.428 239.106 161.039 299.697 158.559 356.179L130.556 361.614C122.916 314.5 109.541 253.91 107.838 199.281L104.105 154.871L146.085 166.618L148.966 185.003Z" fill="#1F3C88"/>
<path d="M116.703 53.2793H97.9922V76.4734H116.703V53.2793Z" fill="#F9B384"/>
<path d="M97.8678 67.5813C104.706 77.0744 113.422 72.9165 116.679 66.5293L138.921 165.367C118.156 174.309 98.1934 175.637 79.5078 165.017L91.3303 71.4386L97.8678 67.5813Z" fill="white"/>
<path d="M127.024 38.9514C131.157 30.7608 132.084 18.1368 122.466 17.6108C114.1 9.37011 100.574 10.4973 92.7341 19.0886C77.5552 14.4047 75.3009 42.2577 94.6377 41.1806L127.024 38.9514Z" fill="#353535"/>
<path d="M97.9922 53.2793V65.6027C103.528 65.728 108.162 63.6741 110.992 60.1424C110.992 60.1424 105.532 56.3351 101.248 53.2793H97.9922Z" fill="#E09C72"/>
<path d="M124.467 30.8097L122.989 45.137C120.71 51.474 117.929 55.9575 114.398 58.7879C110.766 61.7185 106.057 62.6453 101.724 61.3177C98.0165 60.1906 94.9857 57.4354 93.7333 53.7032C93.057 51.6493 92.9067 49.3199 93.5079 46.7901C93.6081 46.3893 93.6832 45.9886 93.7083 45.5878C93.9086 43.9347 93.7333 42.2815 93.3075 40.6785C92.4308 37.3221 92.3807 33.8154 93.0069 30.2085L109.789 24.8984L124.467 30.8097Z" fill="#F9B384"/>
<path d="M91.6552 203.039C82.9637 204.942 72.7943 204.767 61.4728 203.039C64.2531 177.766 68.0603 153.494 73.9215 131.252L49.5 128.873C49.7254 124.94 50.2514 120.882 51.0529 116.725C51.9547 112.041 53.2571 107.231 54.9103 102.322C54.9604 102.147 55.0355 101.971 55.0856 101.796C60.9718 84.7386 71.6922 71.8892 98.0173 67.5059C106.258 106.781 105.657 164.916 91.6552 203.039Z" fill="#91004B"/>
<path d="M154.576 170.302C156.054 179.169 157.356 188.036 158.709 197.253C150.268 200.259 140.073 201.361 128.376 200.835C123.492 185.105 120.16 168.699 118.257 151.742C118.257 151.667 118.257 151.617 118.232 151.566C115.226 124.615 113.272 96.161 116.704 66.5547C127.474 67.3312 138.52 70.6124 148.865 77.25C152.422 79.5294 155.277 82.8858 157.206 86.8433C164.445 101.722 167.801 114.822 170.606 128.347L147.963 137.54C148.615 140.295 149.241 143.025 149.842 145.73C151.67 154.096 153.198 162.187 154.576 170.302Z" fill="#91004B"/>
<path d="M79.1327 121.708L76.1019 146.38L74.6993 148.259L67.7611 157.426C64.9307 161.158 61.0733 163.012 57.1659 163.037C52.9579 163.062 48.7749 160.983 45.8944 156.775L33.6211 138.816C39.6576 130.75 45.4686 122.535 47.1468 111.814C55.0619 121.057 57.4164 124.514 57.4164 124.514L79.1327 121.708Z" fill="#91004B"/>
<path d="M92.6048 36.0952C98.8166 35.7946 105.053 34.4671 111.29 31.2109C113.269 34.9931 117.928 39.9525 124.766 38.099L125.517 33.9661L126.043 26.9528L105.429 20.3652L89.2734 25.6753L92.6048 36.0952Z" fill="#353535"/>
<path opacity="0.4" d="M154.575 170.3C141.425 169.023 128.926 162.961 118.256 151.74C118.206 151.69 118.156 151.64 118.105 151.59L118.231 151.565L149.841 145.729C151.669 154.094 153.197 162.185 154.575 170.3Z" fill="#660035"/>
<path d="M47.5226 111.514L46.793 112.086L60.3222 129.361L61.0519 128.789L47.5226 111.514Z" fill="#91004B"/>
<path opacity="0.4" d="M143.909 101.244L148.568 127.995C148.568 127.995 140.252 133.506 137.697 128.997C135.718 125.465 138.323 113.943 143.909 101.244Z" fill="#660035"/>
<path d="M95.992 120.257L90.3312 120.658C89.705 120.708 89.179 121.159 89.0287 121.81L88.9787 121.96C88.7031 122.987 88.9035 124.064 89.5047 124.891L90.5316 126.294C90.7069 126.519 90.6569 126.845 90.4565 127.02C89.5548 127.471 88.9035 128.347 88.8785 129.324C88.8785 129.575 88.8785 129.825 88.9286 130.051C89.129 131.002 89.8052 131.779 90.6819 132.029L91.233 132.18C91.3081 132.205 91.3332 132.28 91.3081 132.355L90.5066 133.683C89.9054 134.71 90.7821 136.663 91.6337 137.365C91.809 137.64 92.3601 137.765 92.6607 137.79L95.1654 138.141C96.3176 138.291 97.4197 138.717 98.4467 139.293C103.481 142.249 109.643 141.948 115.805 141.648L115.329 125.467C111.121 122.236 106.312 119.506 100.726 117.377L87.4508 107.934C84.4951 109.211 86.3236 112.818 95.992 120.257Z" fill="#F9B384"/>
<path d="M170.583 128.346L172.537 136.612C175.092 147.333 167.052 157.552 156.958 156.375L109.066 150.564L112.723 123.262L170.583 128.346Z" fill="#91004B"/>
<path d="M73.975 100.771L67.2852 157.361L68.2055 157.47L74.8954 100.88L73.975 100.771Z" fill="#91004B"/>
<path d="M112.754 122.795L112.676 123.719L148.615 126.76L148.693 125.837L112.754 122.795Z" fill="#91004B"/>
<path d="M98.2924 127.77C98.0168 127.745 91.5545 127.069 90.4023 126.744L90.6528 125.842C91.5545 126.092 96.539 126.643 98.3926 126.844L98.2924 127.77Z" fill="#E28B6D"/>
<path d="M99.1451 133.907C98.8695 133.882 92.2069 133.206 91.0547 132.88L91.3052 131.979C92.2069 132.229 97.3416 132.78 99.2453 132.98L99.1451 133.907Z" fill="#E28B6D"/>
<path d="M120.211 48.6198C131.933 50.3732 133.486 31.7126 121.038 39.1768L120.211 48.6198Z" fill="#F9B384"/>
<path d="M122.915 43.5342C122.765 42.9331 122.74 42.2819 122.865 41.6557C122.991 41.0295 123.316 40.4033 123.792 39.9023C124.268 39.4264 124.969 39.0758 125.696 39.1259C126.422 39.1509 127.199 39.9274 127.374 40.2029C127.549 40.4784 127.499 40.804 127.073 40.4283C126.648 40.0526 126.172 39.9023 125.696 39.9524C125.22 39.9775 124.794 40.228 124.443 40.5786C124.093 40.9293 123.817 41.3801 123.617 41.8811C123.441 42.3821 123.341 42.9331 123.266 43.5342C123.191 44.1354 123.066 44.1354 122.915 43.5342Z" fill="#E09C72"/>
<path d="M101.527 53.1537L109.743 50.8242C109.743 50.8242 109.718 54.5313 105.785 55.433C103.531 55.9339 101.527 53.1537 101.527 53.1537Z" fill="white"/>
<path opacity="0.4" d="M68.8402 150.662L67.7631 157.425C64.9328 161.157 61.0754 163.01 57.168 163.035C61.0003 147.38 70.1176 136.084 70.1176 136.084L68.8402 150.662Z" fill="#660035"/>
<path opacity="0.2" d="M60.5728 128.923L51.0547 116.7C51.9564 112.016 53.2589 107.207 54.912 102.297C54.9621 102.122 55.0373 101.947 55.0874 101.771C56.8908 105.153 61.1238 114.621 60.5728 128.923Z" fill="#660035"/>
<path d="M20.8947 88.896C19.3417 89.2717 18.5402 90.6743 18.5903 92.2273C16.887 92.5529 16.0104 93.8303 15.5846 95.6338C11.1511 96.3101 12.5538 102.747 18.8408 104.751C19.3417 108.258 21.7463 111.264 25.4533 113.944L30.0621 124.138L35.3722 136.336L46.6437 114.82L44.3142 110.988L41.2835 105.978C41.0831 103.699 40.1313 100.543 38.9791 97.1366C38.9039 94.2812 41.6842 87.844 44.3142 81.6071C39.1043 80.2044 36.5745 85.4394 34.2451 91.1753C29.0853 84.9635 23.8753 84.9134 20.8947 88.896Z" fill="#F9B384"/>
<path d="M25.0269 95.7832C25.7283 96.4595 26.5799 97.0106 27.4816 97.3863C29.0095 97.9874 29.9613 97.7369 30.2869 97.6117C30.838 97.3863 31.4642 96.5346 31.5393 95.6079C31.5894 94.8815 31.2888 94.2553 30.6627 93.8796L28.709 92.7524L27.7822 89.0454L27.3814 89.1456L28.3583 93.028L30.4623 94.2553C31.0885 94.631 31.1636 95.1821 31.1386 95.5828C31.0885 96.3092 30.5625 97.0606 30.1617 97.2109C29.8611 97.3362 29.0346 97.5365 27.6569 96.9855C26.2042 96.4094 24.9769 95.3574 24.2004 94.0299L21.0945 88.7949L20.7188 89.0203L23.8247 94.2553C24.1503 94.8064 24.551 95.3324 25.0269 95.7832Z" fill="#E28B6D"/>
<path d="M22.5469 98.8898C22.9727 99.2906 23.3735 99.6162 23.7993 99.7665C26.2039 100.768 28.4081 100.318 29.0342 99.8416C29.6354 99.3908 29.6104 97.913 29.6104 97.7376H29.1846C29.1846 98.2887 29.0843 99.2655 28.7838 99.491C28.358 99.7915 26.3792 100.368 23.9746 99.3657C21.6452 98.3889 18.8148 92.177 18.7898 92.127L18.4141 92.3023C18.5143 92.5277 20.468 96.861 22.5469 98.8898Z" fill="#E28B6D"/>
<path d="M18.8644 100.468C19.5658 101.144 20.3423 101.77 21.2189 102.221C24.8258 104.15 26.003 104.275 26.8046 103.874C27.2805 103.624 27.7313 102.897 27.6812 102.071C27.6562 101.545 27.3806 100.568 25.8778 99.9917L25.7275 100.392C26.9548 100.868 27.2304 101.57 27.2554 102.096C27.2805 102.772 26.9047 103.348 26.6042 103.498C25.9529 103.824 24.8258 103.674 21.3943 101.845C18.0379 100.067 15.7836 95.5583 15.7585 95.5332L15.3828 95.7336C15.483 95.8839 16.7604 98.4387 18.8644 100.468Z" fill="#E28B6D"/>
<path d="M18.7891 104.977C20.4422 105.402 23.1724 105.377 23.8487 104.426C24.024 104.175 24.1492 103.749 23.7485 103.123L23.3978 103.348C23.7234 103.849 23.5731 104.075 23.498 104.175C22.9971 104.876 20.5424 104.977 18.8892 104.576L18.7891 104.977Z" fill="#E28B6D"/>
<path d="M27.8335 105.152L28.1591 104.902C26.9568 103.299 28.9857 99.8924 30.213 97.8886L30.4134 97.5379L30.0376 97.3125L29.8373 97.6632C28.4847 99.8924 26.4308 103.324 27.8335 105.152Z" fill="#E28B6D"/>
<path d="M35.3726 136.361L30.0625 124.163C35.8485 120.631 40.5825 116.247 44.0892 110.787L44.2896 111.038L46.619 114.87C46.619 114.87 45.4418 119.879 42.0102 126.342C39.5806 130.95 35.3726 136.361 35.3726 136.361Z" fill="#F9B384"/>
<path d="M102.508 36.4447C102.323 36.3351 102.123 36.2539 101.914 36.2041L101.784 36.1515C101.468 36.0235 101.129 35.9593 100.788 35.9626C100.316 35.9649 99.8514 36.0808 99.4333 36.3003C99.0153 36.5199 98.6559 36.8367 98.3857 37.2241C98.3426 37.2962 98.3108 37.3746 98.2916 37.4564C98.2572 37.5611 98.2599 37.6744 98.2993 37.7773C98.3387 37.8802 98.4123 37.9663 98.5078 38.0212L98.6648 38.0848C98.7327 38.1007 98.8032 38.1019 98.8716 38.0885C98.9401 38.0751 99.0049 38.0474 99.0619 38.0071C99.1393 37.9527 99.2119 37.8916 99.2788 37.8246C99.4253 37.6631 99.5962 37.5257 99.7855 37.4175C100.01 37.262 100.273 37.172 100.546 37.1574C100.818 37.1429 101.089 37.2043 101.329 37.3349L101.52 37.4124C101.632 37.4791 101.749 37.5394 101.868 37.5931C102.018 37.675 102.194 37.6962 102.36 37.6524C102.525 37.6085 102.668 37.5029 102.758 37.3573C102.801 37.2811 102.829 37.197 102.839 37.1101C102.849 37.0231 102.841 36.935 102.817 36.851C102.792 36.767 102.751 36.6887 102.696 36.6208C102.641 36.5529 102.573 36.4967 102.496 36.4556" fill="#353535"/>
<path d="M114.114 38.3615C113.946 37.8881 113.655 37.4679 113.271 37.1443C112.887 36.8208 112.424 36.6055 111.929 36.5207C111.436 36.4291 110.928 36.4556 110.446 36.5982C110.345 36.6195 110.249 36.6619 110.165 36.7227C110.081 36.7835 110.011 36.8613 109.96 36.9511C109.906 37.0792 109.89 37.2197 109.914 37.3564C109.937 37.4932 109.998 37.6207 110.09 37.7243C110.182 37.8279 110.302 37.9033 110.435 37.942C110.568 37.9807 110.709 37.981 110.843 37.9429C110.89 37.9305 110.937 37.9146 110.982 37.8953L111.08 37.862C111.337 37.7807 111.611 37.7614 111.877 37.8058C112.144 37.8502 112.396 37.957 112.614 38.1175C112.816 38.2895 112.989 38.4939 113.124 38.7225L113.296 39.022C113.356 39.1182 113.447 39.1905 113.555 39.2263C113.662 39.2622 113.779 39.2595 113.884 39.2185L113.954 39.1948C114.059 39.1498 114.144 39.0685 114.193 38.9657C114.243 38.863 114.253 38.7458 114.223 38.6359C114.205 38.5719 114.183 38.509 114.158 38.4475L114.114 38.3615Z" fill="#353535"/>
<path d="M99.0055 39.9728C98.905 40.1527 98.8411 40.3508 98.8177 40.5556C98.7943 40.7603 98.8118 40.9676 98.8692 41.1655C98.9265 41.3634 99.0226 41.5479 99.1519 41.7083C99.2811 41.8687 99.441 42.0017 99.6221 42.0997C99.8065 42.2022 100.009 42.2674 100.219 42.2914C100.429 42.3154 100.641 42.2979 100.844 42.2397C101.047 42.1816 101.236 42.084 101.401 41.9526C101.567 41.8212 101.704 41.6584 101.807 41.4737C101.907 41.2944 101.971 41.0969 101.995 40.8927C102.018 40.6886 102.001 40.4817 101.945 40.2842C101.888 40.0867 101.793 39.9024 101.664 39.742C101.536 39.5816 101.377 39.4482 101.197 39.3496C100.826 39.152 100.392 39.1081 99.9885 39.2272C99.5851 39.3463 99.2444 39.619 99.0397 39.9867" fill="#353535"/>
<path d="M109.722 41.6653C109.762 41.8681 109.842 42.0608 109.958 42.2319C110.074 42.4031 110.223 42.5492 110.396 42.6616C110.569 42.774 110.764 42.8503 110.967 42.886C111.17 42.9218 111.379 42.9162 111.58 42.8696C111.986 42.7729 112.339 42.5215 112.563 42.1688C112.787 41.8161 112.865 41.3898 112.78 40.9805C112.741 40.7782 112.661 40.5859 112.546 40.415C112.43 40.2442 112.282 40.0981 112.109 39.9856C111.937 39.8731 111.743 39.7964 111.541 39.76C111.338 39.7236 111.13 39.7283 110.929 39.7738C110.52 39.8672 110.164 40.118 109.938 40.4719C109.712 40.8258 109.635 41.2544 109.722 41.6653Z" fill="#353535"/>
<path d="M103.624 44.5885C103.861 43.9652 104.905 44.2545 104.66 44.8489C104.129 46.2331 103.036 49.1174 105.664 48.7014C106.349 48.5845 106.613 49.5692 105.92 49.6808C104.772 49.8799 103.597 49.8555 103.072 48.7236C102.512 47.4314 103.126 45.8641 103.624 44.5885Z" fill="#E09C72"/>
</g>
</g>
<defs>
<clipPath id="clip0_5317_61438">
<rect width="163.4" height="163.4" fill="white" transform="translate(13.0039 12)"/>
</clipPath>
</defs>
</svg>
