<svg width="163" height="208" viewBox="0 0 163 208" fill="none" xmlns="http://www.w3.org/2000/svg">
<path d="M151.313 120.304C151.313 121.032 151.08 121.744 150.643 122.349C150.207 122.954 149.586 123.426 148.86 123.704C148.134 123.983 147.335 124.056 146.564 123.914C145.793 123.772 145.085 123.421 144.53 122.907C143.974 122.392 143.596 121.736 143.442 121.022C143.289 120.308 143.368 119.568 143.668 118.896C143.969 118.224 144.478 117.649 145.132 117.244C145.785 116.84 146.553 116.624 147.339 116.624C148.393 116.624 149.404 117.012 150.149 117.702C150.894 118.392 151.313 119.328 151.313 120.304Z" fill="#EBEBEB"/>
<path d="M138.538 123.077C140.192 121.546 140.192 119.062 138.538 117.531C136.884 115.999 134.203 115.999 132.55 117.531C130.896 119.062 130.896 121.546 132.55 123.077C134.203 124.609 136.884 124.609 138.538 123.077Z" fill="#EBEBEB"/>
<path d="M126.475 117.528C128.955 117.528 130.966 115.666 130.966 113.369C130.966 111.071 128.955 109.209 126.475 109.209C123.995 109.209 121.984 111.071 121.984 113.369C121.984 115.666 123.995 117.528 126.475 117.528Z" fill="#EBEBEB"/>
<path d="M129.262 103.48C129.72 101.117 128.023 98.858 125.472 98.4337C122.921 98.0094 120.481 99.5809 120.023 101.944C119.565 104.307 121.262 106.566 123.813 106.99C126.364 107.415 128.804 105.843 129.262 103.48Z" fill="#EBEBEB"/>
<path d="M130.381 97.8608C133.059 97.8608 135.23 95.8501 135.23 93.3698C135.23 90.8894 133.059 88.8787 130.381 88.8787C127.703 88.8787 125.532 90.8894 125.532 93.3698C125.532 95.8501 127.703 97.8608 130.381 97.8608Z" fill="#EBEBEB"/>
<path d="M143.46 94.2107C146.154 93.1679 147.425 90.3 146.3 87.8048C145.174 85.3097 142.077 84.1323 139.383 85.175C136.689 86.2177 135.418 89.0857 136.544 91.5808C137.67 94.076 140.766 95.2534 143.46 94.2107Z" fill="#EBEBEB"/>
<path d="M159.844 114.095C160.33 112.183 159.05 110.269 156.986 109.82C154.922 109.371 152.856 110.556 152.371 112.467C151.886 114.379 153.165 116.293 155.229 116.742C157.293 117.191 159.359 116.006 159.844 114.095Z" fill="#EBEBEB"/>
<path d="M159.435 105.656C161.272 105.005 162.19 103.098 161.487 101.397C160.783 99.6957 158.724 98.845 156.888 99.4965C155.051 100.148 154.133 102.055 154.836 103.756C155.54 105.457 157.599 106.308 159.435 105.656Z" fill="#EBEBEB"/>
<path d="M155.459 93.7401C155.747 92.0972 154.542 90.5497 152.768 90.2836C150.994 90.0175 149.323 91.1336 149.036 92.7765C148.749 94.4194 149.954 95.967 151.727 96.2331C153.501 96.4992 155.172 95.383 155.459 93.7401Z" fill="#EBEBEB"/>
<path fill-rule="evenodd" clip-rule="evenodd" d="M37.2631 75.5422C38.231 76.5013 39.0576 77.5749 39.7212 78.735H43.644L45.1046 84.5827L41.569 86.1616C41.5221 87.4737 41.2871 88.7741 40.8703 90.0289L43.6567 92.5902L40.2094 97.6893L36.5054 96.4925C35.4724 97.3908 34.3128 98.1554 33.0582 98.7653V102.403L26.7445 103.751L25.0609 100.477C23.6439 100.436 22.2394 100.219 20.8855 99.8296L18.1243 102.41L12.6188 99.2214L13.911 95.7908C12.9341 94.8331 12.099 93.7594 11.4276 92.598H7.50475L6.04419 86.7503L9.57983 85.1714C9.62709 83.8594 9.86205 82.5589 10.2785 81.3041L7.49633 78.7428L10.9394 73.6436L14.6434 74.8405C15.6782 73.9443 16.8375 73.1799 18.0906 72.5677V68.9304L24.4043 67.5815L26.0879 70.8562C27.5047 70.8981 28.909 71.1158 30.2633 71.5034L33.0245 68.9226L38.53 72.1116L37.2378 75.5422H37.2631ZM29.5267 80.3412C28.3585 79.6649 27 79.3246 25.6229 79.3634C24.2459 79.4022 22.9122 79.8183 21.7905 80.5591C20.6687 81.2999 19.8094 82.3321 19.321 83.5252C18.8326 84.7183 18.7372 86.0188 19.0467 87.2622C19.3563 88.5055 20.057 89.636 21.0602 90.5105C22.0633 91.3851 23.324 91.9645 24.6827 92.1755C26.0414 92.3865 27.4371 92.2196 28.6934 91.696C29.9497 91.1723 31.0102 90.3154 31.7407 89.2336C32.2264 88.5152 32.5545 87.7153 32.7061 86.8794C32.8577 86.0435 32.8299 85.1882 32.6243 84.3623C32.4186 83.5363 32.0392 82.7561 31.5077 82.0661C30.9762 81.3761 30.303 80.79 29.5267 80.3412Z" fill="#E0E0E0"/>
<path fill-rule="evenodd" clip-rule="evenodd" d="M41.0892 50.8922C41.624 51.4246 42.081 52.0196 42.4487 52.6621H44.6206L45.4288 55.9056L43.4715 56.7789C43.4468 57.5064 43.3165 58.2276 43.0843 58.923L44.6248 60.3382L42.7181 63.1606L40.6683 62.4979C40.0945 62.9944 39.4519 63.4179 38.7573 63.7571V65.7726L35.2554 66.5172L34.3125 64.7044C33.5284 64.6815 32.7511 64.5609 32.0017 64.3458L30.4696 65.7765L27.4222 64.0027L28.1378 62.1042C27.6017 61.5727 27.1445 60.9775 26.7783 60.3343H24.6064L23.7982 57.0907L25.7639 56.2331C25.7906 55.5025 25.9237 54.7787 26.1595 54.0811L24.619 52.666L26.5215 49.8396L28.5755 50.5062C29.147 50.0089 29.7884 49.5854 30.4823 49.247V47.2315L33.9674 46.4869L34.9144 48.3036C35.6982 48.3271 36.4752 48.4464 37.2252 48.6584L38.7573 47.2315L41.8047 48.9975L41.0892 50.8961V50.8922ZM36.8001 53.5509C36.1536 53.1763 35.4016 52.9877 34.6393 53.009C33.877 53.0303 33.1387 53.2604 32.5176 53.6704C31.8966 54.0803 31.4208 54.6517 31.1504 55.3121C30.8799 55.9726 30.8271 56.6924 30.9984 57.3807C31.1698 58.069 31.5577 58.6948 32.113 59.1789C32.6684 59.6629 33.3663 59.9836 34.1184 60.1003C34.8706 60.217 35.6432 60.1244 36.3386 59.8344C37.0339 59.5443 37.6208 59.0698 38.025 58.4708C38.5667 57.6679 38.742 56.6986 38.5123 55.776C38.2826 54.8534 37.6667 54.0531 36.8001 53.5509Z" fill="#E0E0E0"/>
<path d="M10.607 56.8919C10.607 56.8919 10.6702 56.9153 10.7838 56.9816C10.9458 57.0772 11.0955 57.1897 11.23 57.3168C11.6593 57.7186 11.9541 58.2267 12.0788 58.7801C12.2035 59.3334 12.1528 59.9083 11.9329 60.4356C11.7259 60.9294 11.38 61.3628 10.9311 61.6909C10.4301 62.0557 9.82388 62.2754 9.18856 62.3225C8.50356 62.3741 7.81887 62.2194 7.23641 61.8815C6.65396 61.5437 6.20486 61.0406 5.95597 60.4473C5.83199 60.1706 5.75804 59.8769 5.7371 59.5779C5.71258 59.2905 5.73529 59.0014 5.80445 58.7203C5.92748 58.2014 6.19773 57.7223 6.58734 57.3324C6.92773 56.9959 7.34873 56.7382 7.81639 56.58C8.49672 56.3542 9.24061 56.3542 9.92094 56.58C10.1039 56.6344 10.2792 56.709 10.4429 56.8022C10.5523 56.8685 10.6112 56.9036 10.607 56.9114C10.6028 56.9192 10.3671 56.7827 9.89569 56.6463C9.23086 56.4607 8.51806 56.4868 7.87111 56.7204C7.3973 56.8908 6.97679 57.1679 6.64757 57.5266C6.31835 57.8853 6.09079 58.3143 5.98544 58.7749C5.86159 59.319 5.91581 59.885 6.14117 60.4005C6.37953 60.954 6.80092 61.4235 7.34497 61.7416C7.89323 62.0544 8.53355 62.2003 9.17593 62.1587C9.47946 62.1404 9.77788 62.0773 10.0598 61.9716C10.3331 61.8797 10.5889 61.7481 10.8175 61.5817C11.2201 61.2941 11.5383 60.9174 11.7427 60.4863C11.9472 60.0551 12.0314 59.5832 11.9876 59.114C11.9319 58.473 11.6459 57.8677 11.1753 57.3948C10.8385 57.0361 10.586 56.9075 10.607 56.8919Z" fill="#E0E0E0"/>
<path d="M14.0794 54.7399C14.0794 54.7399 14.0794 54.7048 14.1089 54.6425C14.1384 54.5801 14.1678 54.4709 14.2141 54.3462L14.635 53.1766V53.2117L12.1559 51.7966H12.219L10.9857 52.9661L10.9605 52.9895H10.9268C10.3231 52.8189 9.69734 52.7245 9.06639 52.7088H9.02851V52.6776L8.25825 51.2118L8.33822 51.2469L5.49287 51.8434L5.5518 51.7732C5.5518 52.2761 5.5518 52.8336 5.5518 53.4028V53.4495H5.5055C4.95146 53.7235 4.4391 54.0644 3.9818 54.4631L3.94392 54.4943H3.89341L2.23082 53.9602L2.33605 53.9252L0.808146 56.233V56.1278L2.07088 57.2973L2.11297 57.3324V57.3831C1.91324 57.9249 1.79015 58.4883 1.74677 59.0594V59.114L1.69206 59.1374L0.105227 59.8469L0.159945 59.7456C0.366191 60.5759 0.580855 61.4687 0.816565 62.3731L0.719755 62.3029H2.47916H2.53808L2.56755 62.3536C2.85949 62.867 3.22476 63.3417 3.6535 63.7649C3.6535 63.8077 3.6535 63.6752 3.67454 63.8584V63.8818V63.9325L3.63666 64.03L3.5651 64.221L3.41779 64.6108L3.12736 65.3905L3.08948 65.2814L5.53496 66.7121H5.4129L6.65458 65.5426L6.69667 65.5036H6.75139C7.35055 65.6761 7.97207 65.7731 8.59918 65.7921H8.65811L8.68336 65.8388C8.94012 66.3339 9.19688 66.8252 9.44521 67.3086L9.33998 67.2618L12.1811 66.6575L12.1096 66.7394C12.1096 66.1858 12.1096 65.6439 12.1096 65.1098V65.0591L12.1559 65.0358C12.7128 64.7654 13.2281 64.4271 13.688 64.03L13.7259 63.9988H13.7722L15.4348 64.5368L15.3379 64.5718C15.8809 63.7649 16.3986 63.0125 16.8869 62.2873V62.3731L15.6242 61.2036L15.6368 61.2543V61.2192C15.8254 60.6619 15.9316 60.0836 15.9525 59.4999V59.4649H15.9861L17.5772 58.7592L17.5435 58.8216C17.291 57.7924 17.0805 56.9192 16.8995 56.1746L16.9416 56.2057H15.1612C14.9398 55.802 14.6762 55.4195 14.3741 55.0635C14.2773 54.9582 14.2057 54.8725 14.151 54.8101C14.1241 54.7841 14.0988 54.7568 14.0752 54.7282C14.0752 54.7282 14.1089 54.7516 14.1636 54.8023C14.2183 54.853 14.2983 54.9348 14.3993 55.044C14.7121 55.3887 14.9857 55.7624 15.2159 56.159H15.1864H16.9458H16.9837V56.1902C17.1689 56.9348 17.4046 57.8002 17.6487 58.8177V58.8606H17.6066L16.0577 59.5584L16.0914 59.5038C16.0734 60.0986 15.97 60.6886 15.7841 61.2582L15.7631 61.1919L17.0258 62.3341L17.0679 62.377L17.0384 62.4238L15.4979 64.7122L15.4642 64.7668L15.4011 64.7434L13.7174 64.2093H13.8016C13.3335 64.617 12.8083 64.9645 12.2401 65.2424L12.2864 65.1722C12.2864 65.7063 12.2864 66.2482 12.2864 66.8018V66.868H12.2148L9.37787 67.4762H9.30631L9.27264 67.4099C9.02009 66.9304 8.76755 66.4392 8.50658 65.9441L8.59076 65.9948C7.94653 65.9751 7.30806 65.8755 6.69246 65.6985H6.78927L5.5518 66.868L5.49287 66.9187L5.42973 66.8797L2.95899 65.449L2.89165 65.41L2.9169 65.3398L3.20733 64.5601L3.35044 64.1703L3.4262 63.9754L3.45988 63.8779L3.48092 63.8311V63.8077V63.8974C3.03871 63.4639 2.66335 62.9759 2.36551 62.4472L2.44969 62.494H0.690292H0.65241V62.4238C0.429327 61.5193 0.206246 60.6266 0 59.7923V59.7222L0.0673455 59.691L1.6205 58.962L1.56999 59.0399C1.59146 58.4436 1.6976 57.8524 1.88567 57.2817L1.91093 57.3675L0.6482 56.198L0.593482 56.1512L0.631364 56.0927L2.18031 53.8082L2.21819 53.7536H2.28554L3.94392 54.2955H3.85974C4.33027 53.8899 4.85679 53.5438 5.42552 53.2663L5.38343 53.3326C5.38343 52.7634 5.38343 52.2059 5.38343 51.703V51.6446H5.44236L8.2835 51.0442H8.33822L8.36347 51.091C8.62865 51.6095 8.8854 52.1046 9.12532 52.5607L9.06639 52.5295C9.70797 52.5512 10.3436 52.6521 10.9563 52.8297H10.8974L12.1601 51.6601L12.1895 51.6329H12.2232L14.6813 53.0753H14.7024L14.2562 54.2136C14.2057 54.3345 14.1678 54.4319 14.1384 54.506C14.1089 54.5801 14.0836 54.736 14.0794 54.7399Z" fill="#E0E0E0"/>
<path d="M117.196 177.395L54.8276 177.115C53.0439 177.108 51.2793 176.761 49.6344 176.096C47.9895 175.43 46.4966 174.458 45.2409 173.235C43.9852 172.013 42.9913 170.564 42.316 168.97C41.6407 167.377 41.2972 165.671 41.3051 163.95L41.9681 13.0546C41.9759 11.3327 42.3351 9.6291 43.0252 8.04115C43.7152 6.45319 44.7227 5.01196 45.9899 3.79973C47.2571 2.58751 48.7593 1.62804 50.4108 0.976099C52.0623 0.324161 53.8306 -0.0074745 55.6149 0.000127802L117.965 0.280058C119.749 0.287627 121.513 0.634169 123.158 1.2999C124.803 1.96563 126.296 2.93751 127.552 4.16005C128.807 5.38259 129.801 6.83185 130.476 8.42507C131.152 10.0183 131.495 11.7243 131.487 13.4456L130.857 164.341C130.848 166.064 130.488 167.768 129.797 169.357C129.106 170.945 128.097 172.387 126.829 173.599C125.56 174.811 124.056 175.771 122.404 176.422C120.751 177.073 118.981 177.404 117.196 177.395Z" fill="#263238"/>
<path d="M117.896 5.48759L105.801 5.43427L70.4865 5.27431H66.2369L55.6472 5.22543C53.1268 5.21479 50.705 6.16995 48.9137 7.88114C47.1224 9.59234 46.1081 11.9197 46.0935 14.352L45.4489 161.635C45.4391 164.07 46.431 166.408 48.2067 168.138C49.9825 169.868 52.3969 170.846 54.9197 170.859L117.164 171.135C119.686 171.143 122.109 170.184 123.899 168.47C125.69 166.755 126.702 164.425 126.713 161.99L127.367 14.703C127.377 12.2691 126.384 9.93111 124.608 8.203C122.832 6.47489 120.418 5.49817 117.896 5.48759Z" fill="#FAFAFA"/>
<path d="M105.728 51.058L104.773 50.0093L107.618 48.5942L94.3975 44.4501L98.8718 56.317L100.501 54.3405C100.501 54.3405 109.054 68.2814 100.501 76.7567C92.0068 85.1734 81.9807 83.349 81.9807 83.349L83.9127 89.1967C83.9127 89.1967 99.6758 90.2336 108.115 77.049C116.554 63.8645 105.728 51.058 105.728 51.058Z" fill="#CA005D"/>
<path d="M66.0871 80.3121L67.0426 81.3608L64.193 82.776L77.4138 86.92L72.9395 75.0531L71.3148 77.0296C71.3148 77.0296 62.7577 63.0888 71.3148 54.6135C79.8088 46.1967 89.8348 48.0212 89.8348 48.0212L87.9029 42.1735C87.9029 42.1735 72.1398 41.1365 63.7006 54.3211C55.2613 67.5057 66.0871 80.3121 66.0871 80.3121Z" fill="#CA005D"/>
<path d="M105.728 51.058L104.773 50.0093L107.618 48.5942L94.3975 44.4501L98.8718 56.317L100.501 54.3405C100.501 54.3405 109.054 68.2814 100.501 76.7567C92.0068 85.1734 81.9807 83.349 81.9807 83.349L83.9127 89.1967C83.9127 89.1967 99.6758 90.2336 108.115 77.049C116.554 63.8645 105.728 51.058 105.728 51.058Z" fill="#CA005D"/>
<path d="M66.0871 80.3121L67.0426 81.3608L64.193 82.776L77.4138 86.92L72.9395 75.0531L71.3148 77.0296C71.3148 77.0296 62.7577 63.0888 71.3148 54.6135C79.8088 46.1967 89.8348 48.0212 89.8348 48.0212L87.9029 42.1735C87.9029 42.1735 72.1398 41.1365 63.7006 54.3211C55.2613 67.5057 66.0871 80.3121 66.0871 80.3121Z" fill="#CA005D"/>
<path opacity="0.8" d="M105.728 51.058L104.773 50.0093L107.618 48.5942L94.3975 44.4501L98.8718 56.317L100.501 54.3405C100.501 54.3405 109.054 68.2814 100.501 76.7567C92.0068 85.1734 81.9807 83.349 81.9807 83.349L83.9127 89.1967C83.9127 89.1967 99.6758 90.2336 108.115 77.049C116.554 63.8645 105.728 51.058 105.728 51.058Z" fill="white"/>
<path opacity="0.8" d="M66.0871 80.3121L67.0426 81.3608L64.193 82.776L77.4138 86.92L72.9395 75.0531L71.3148 77.0296C71.3148 77.0296 62.7577 63.0888 71.3148 54.6135C79.8088 46.1967 89.8348 48.0212 89.8348 48.0212L87.9029 42.1735C87.9029 42.1735 72.1398 41.1365 63.7006 54.3211C55.2613 67.5057 66.0871 80.3121 66.0871 80.3121Z" fill="white"/>
<path fill-rule="evenodd" clip-rule="evenodd" d="M93.4464 58.7614C94.0727 59.3827 94.6064 60.0789 95.0332 60.8315H97.5586L98.5015 64.6247L96.2538 65.6383C96.2231 66.4876 96.0702 67.3293 95.7992 68.1411L97.6049 69.7979L95.3741 73.096L92.9749 72.3163C92.3068 72.8988 91.5563 73.3946 90.7441 73.79V76.129L86.6487 77.0023L85.5459 74.8815C84.6291 74.8544 83.7204 74.7141 82.8436 74.4644L81.0548 76.1329L77.4897 74.0707L78.3315 71.8485C77.7049 71.2289 77.1711 70.5339 76.7447 69.7823H74.2192L73.2764 65.9891L75.5619 64.9678C75.5923 64.1184 75.7452 63.2767 76.0165 62.4649L74.215 60.8081L76.4416 57.5061L78.8408 58.2858C79.51 57.7045 80.2603 57.2089 81.0716 56.8122V54.4731L85.1671 53.5959L86.2698 55.7167C87.187 55.7433 88.096 55.8849 88.9721 56.1377L90.761 54.4653L94.3261 56.5315L93.4842 58.7497L93.4464 58.7614ZM88.4333 61.8802C87.6774 61.4422 86.7983 61.2218 85.9072 61.2466C85.016 61.2714 84.1528 61.5404 83.4267 62.0196C82.7006 62.4989 82.1442 63.1667 81.8279 63.9388C81.5116 64.7109 81.4496 65.5525 81.6498 66.3572C81.8499 67.1619 82.3032 67.8936 82.9523 68.4597C83.6014 69.0258 84.4172 69.4009 85.2964 69.5376C86.1757 69.6743 87.079 69.5664 87.8921 69.2276C88.7052 68.8889 89.3916 68.3344 89.8644 67.6343C90.1804 67.169 90.394 66.6505 90.4931 66.1085C90.5921 65.5666 90.5747 65.0118 90.4417 64.4761C90.3088 63.9404 90.0629 63.4343 89.7182 62.9868C89.3736 62.5393 88.9369 62.1593 88.4333 61.8685V61.8802Z" fill="#CA005D"/>
<path opacity="0.6" fill-rule="evenodd" clip-rule="evenodd" d="M88.4333 61.8685C87.6774 61.4306 86.7983 61.2101 85.9071 61.2349C85.0159 61.2597 84.1527 61.5288 83.4266 62.008C82.7005 62.4872 82.1441 63.1551 81.8278 63.9271C81.5116 64.6992 81.4496 65.5408 81.6497 66.3455C81.8498 67.1502 82.3031 67.8819 82.9522 68.448C83.6013 69.0141 84.4171 69.3892 85.2964 69.5259C86.1756 69.6626 87.0789 69.5548 87.892 69.216C88.7051 68.8772 89.3915 68.3227 89.8643 67.6226C90.1783 67.1578 90.3904 66.6402 90.4884 66.0995C90.5864 65.5587 90.5684 65.0054 90.4355 64.471C90.3026 63.9367 90.0574 63.4319 89.7139 62.9853C89.3703 62.5388 88.9352 62.1593 88.4333 61.8685Z" fill="white"/>
<path d="M120.856 19.5468C120.856 19.5858 119.151 19.6326 117.047 19.6482C114.942 19.6638 113.258 19.6482 113.258 19.6053C113.258 19.5624 114.942 19.5156 117.047 19.5C119.151 19.4844 120.856 19.5039 120.856 19.5468Z" fill="#263238"/>
<path d="M120.873 21.352C120.873 21.3949 119.168 21.4416 117.063 21.4572C114.959 21.4728 113.254 21.4572 113.254 21.4105C113.254 21.3637 114.959 21.3247 117.063 21.3091C119.168 21.2935 120.873 21.313 120.873 21.352Z" fill="#263238"/>
<path d="M120.889 23.1567C120.889 23.1996 119.206 23.2464 117.101 23.262C114.997 23.2776 113.288 23.262 113.288 23.2152C113.288 23.1684 114.993 23.1294 117.101 23.1138C119.21 23.0982 120.889 23.1177 120.889 23.1567Z" fill="#263238"/>
<path d="M51.5404 25.2189H51.6961H52.1381L53.767 25.1839L53.7207 25.2267C53.7207 24.8915 53.7207 24.5289 53.7207 24.1352C53.7207 23.9286 53.7207 23.7453 53.7207 23.5036C53.7468 23.3825 53.8139 23.2721 53.9123 23.1887C54.0107 23.1053 54.1352 23.0531 54.2679 23.0397C54.5288 23.0397 54.7603 23.0397 55.0465 23.0397C55.1949 23.0628 55.3295 23.1338 55.4266 23.2401C55.5237 23.3465 55.577 23.4813 55.5769 23.6206C55.5769 24.1313 55.5769 24.6654 55.5979 25.215L55.5222 25.1488H57.5762L57.4962 25.2189C57.4962 24.4393 57.4962 23.6596 57.4962 22.8526C57.4962 22.6499 57.4962 22.4627 57.4962 22.2483C57.4876 22.1586 57.4575 22.0717 57.408 21.9941C57.3584 21.9166 57.2908 21.8502 57.21 21.8L56.2672 20.9345L55.4001 20.1548L54.9792 19.765C54.8361 19.6364 54.7224 19.5038 54.5583 19.4726C54.478 19.4533 54.3942 19.4507 54.3127 19.4648C54.2312 19.479 54.1541 19.5096 54.0869 19.5545C53.9606 19.6519 53.8301 19.7923 53.7038 19.9053L52.9672 20.5915C52.5042 21.0359 52.0202 21.4452 51.6708 21.8312C51.5684 22.0548 51.5321 22.2997 51.5656 22.5407V23.2112C51.5656 23.6011 51.5656 23.9909 51.5656 24.2872C51.5656 24.5835 51.5656 24.7901 51.5656 24.9772C51.5656 25.1644 51.5656 25.2228 51.5656 25.2267C51.5606 25.1514 51.5606 25.0759 51.5656 25.0006C51.5656 24.8135 51.5656 24.5913 51.5656 24.3184C51.5656 24.0455 51.5656 23.644 51.5362 23.2307C51.5362 23.0163 51.5362 22.7902 51.5362 22.5485C51.5362 22.4276 51.5362 22.3029 51.5362 22.1587C51.5351 22.0221 51.5729 21.8876 51.6456 21.7688C52.0286 21.3361 52.4874 20.9579 52.9462 20.4979L53.6786 19.804C53.8091 19.6831 53.9185 19.5662 54.0742 19.4414C54.1579 19.3829 54.2547 19.3427 54.3575 19.3238C54.4603 19.3049 54.5663 19.3078 54.6677 19.3323C54.8631 19.3962 55.0352 19.5097 55.1644 19.6597L55.5853 20.0496L56.4524 20.8293L57.3531 21.648C57.437 21.7174 57.5131 21.7945 57.5804 21.878C57.6479 21.9732 57.6858 22.0838 57.6899 22.1976C57.6899 22.3965 57.6899 22.5875 57.6899 22.8019C57.6899 23.6167 57.6899 24.4081 57.6899 25.1722V25.2462H57.6099H55.5558H55.4254V25.18C55.4254 24.6264 55.4254 24.0923 55.4254 23.5855C55.4278 23.4741 55.3864 23.3656 55.309 23.2803C55.2316 23.1949 55.1234 23.1386 55.0045 23.1216C54.7687 23.1216 54.4867 23.1216 54.2594 23.1216C54.153 23.1305 54.0525 23.171 53.9729 23.237C53.8933 23.303 53.8388 23.391 53.8175 23.488C53.7964 23.6791 53.8175 23.9052 53.8175 24.0962V25.2462H53.7712H52.117H51.6961C51.6434 25.2417 51.5912 25.2326 51.5404 25.2189Z" fill="#263238"/>
<path d="M101.986 23.6792C101.986 23.7338 95.5717 23.7806 87.6754 23.7806C79.7792 23.7806 73.3645 23.7338 73.3645 23.6792C73.3645 23.6247 79.7792 23.5779 87.6754 23.5779C95.5717 23.5779 101.986 23.6247 101.986 23.6792Z" fill="#263238"/>
<path d="M101.241 146.89H71.1675C69.3229 146.89 67.5539 146.212 66.2492 145.004C64.9445 143.796 64.211 142.158 64.2098 140.45C64.2098 138.741 64.9429 137.102 66.2477 135.893C67.5525 134.684 69.3222 134.006 71.1675 134.006H101.241C103.087 134.006 104.856 134.684 106.161 135.893C107.466 137.102 108.199 138.741 108.199 140.45C108.198 142.158 107.464 143.796 106.16 145.004C104.855 146.212 103.086 146.89 101.241 146.89Z" fill="#CA005D"/>
<path d="M114.774 116.326C114.774 116.381 101.844 116.427 85.8953 116.427C69.947 116.427 57.0125 116.381 57.0125 116.326C57.0125 116.272 69.9428 116.225 85.8953 116.225C101.848 116.225 114.774 116.268 114.774 116.326Z" fill="#263238"/>
<path d="M103.279 119.605C103.279 119.659 95.5003 119.706 85.9077 119.706C76.3152 119.706 68.5326 119.659 68.5326 119.605C68.5326 119.55 76.311 119.504 85.9077 119.504C95.5045 119.504 103.279 119.546 103.279 119.605Z" fill="#263238"/>
<path d="M6.7612 196.938L3.80322 207.058L13.4118 207.869L15.4308 198.235L6.7612 196.938Z" fill="#CA005D"/>
<path d="M13.6892 207.049C13.2201 207.077 12.7492 207.062 12.2832 207.004C11.4172 206.936 10.2252 206.815 8.91167 206.662L5.55477 206.243C5.08662 206.206 4.62274 206.132 4.16821 206.022C4.63892 205.991 5.11176 206.007 5.5791 206.067C6.44022 206.134 7.63216 206.256 8.94573 206.414L12.3026 206.828C12.7713 206.861 13.2356 206.935 13.6892 207.049Z" fill="#263238"/>
<path opacity="0.6" d="M3.80322 207.058L13.4118 207.869L13.5675 207.13L4.0854 206.013L3.81782 206.959" fill="white"/>
<path d="M8.57593 206.608C8.80926 205.302 9.11453 204.009 9.49055 202.732C9.79308 201.438 10.1715 200.159 10.6241 198.902C10.3905 200.209 10.0853 201.504 9.70949 202.782C9.40655 204.075 9.02814 205.352 8.57593 206.608Z" fill="#263238"/>
<path d="M13.1588 206.982C13.3175 206.363 13.3258 205.72 13.1831 205.098C13.0108 204.435 12.6477 203.828 12.1323 203.341C11.4846 202.756 10.6393 202.397 9.73867 202.322C8.83984 202.234 7.93475 202.424 7.16504 202.863C6.5429 203.232 6.02963 203.738 5.67147 204.336C5.35219 204.898 5.14611 205.509 5.06333 206.139C5.05701 206.094 5.05701 206.049 5.06333 206.004C5.06164 205.876 5.06976 205.748 5.08765 205.621C5.15207 205.148 5.30694 204.691 5.54497 204.269C5.89862 203.635 6.42317 203.096 7.06775 202.705C7.87408 202.233 8.82886 202.027 9.77759 202.12C10.7272 202.198 11.6171 202.583 12.2928 203.205C12.8253 203.725 13.1924 204.37 13.3534 205.071C13.4601 205.54 13.4601 206.025 13.3534 206.495C13.3267 206.621 13.2876 206.745 13.2367 206.864C13.188 206.941 13.1686 206.982 13.1588 206.982Z" fill="#263238"/>
<path d="M46.4262 194.22L45.7792 203.233C45.7792 203.233 55.4461 206.202 55.5093 207.874L36.6279 208L37.0123 193.95L46.4262 194.22Z" fill="#CA005D"/>
<path opacity="0.6" d="M39.9705 202.295C39.7875 202.341 39.6291 202.448 39.5258 202.595C39.4226 202.742 39.3817 202.919 39.411 203.093C39.4541 203.264 39.5663 203.414 39.7246 203.511C39.8829 203.608 40.0753 203.645 40.2624 203.616C40.4566 203.566 40.6241 203.451 40.7328 203.294C40.8414 203.137 40.8835 202.948 40.851 202.764C40.7865 202.59 40.6516 202.445 40.4748 202.361C40.2979 202.277 40.0927 202.26 39.9024 202.313" fill="white"/>
<path opacity="0.6" d="M36.6182 207.982L36.6571 206.567L54.8963 207.018C55.0892 207.109 55.2544 207.243 55.3768 207.408C55.4992 207.574 55.5748 207.765 55.5969 207.964L36.6182 207.982Z" fill="white"/>
<path d="M46.0907 203.133C46.0907 203.219 45.6042 203.246 45.1614 203.507C44.7187 203.769 44.4463 204.12 44.3587 204.084C44.2711 204.048 44.4317 203.557 44.996 203.251C45.5604 202.944 46.115 203.057 46.0907 203.133Z" fill="#263238"/>
<path d="M48.0462 203.949C48.0462 204.03 47.657 204.165 47.3359 204.517C47.0148 204.868 46.9078 205.247 46.8153 205.242C46.7229 205.238 46.6791 204.751 47.0926 204.341C47.5062 203.931 48.0462 203.868 48.0462 203.949Z" fill="#263238"/>
<path d="M49.0973 206.175C49.0146 206.175 48.8978 205.76 49.1508 205.274C49.4038 204.787 49.8416 204.643 49.8757 204.715C49.9097 204.787 49.6373 205.026 49.4378 205.409C49.2384 205.792 49.1897 206.166 49.0973 206.175Z" fill="#263238"/>
<path d="M45.9934 201.07C45.9496 201.146 45.5068 201.016 45.0203 201.034C44.5338 201.052 44.0862 201.196 44.0473 201.119C44.0084 201.043 44.4025 200.75 45.0203 200.736C45.6382 200.723 46.0371 201.002 45.9934 201.07Z" fill="#263238"/>
<path d="M46.0857 199.254C45.7738 199.322 45.4476 199.312 45.1419 199.222C44.805 199.156 44.4782 199.051 44.1689 198.911C43.984 198.829 43.8052 198.736 43.6337 198.632C43.5294 198.574 43.4358 198.501 43.3564 198.416C43.2992 198.353 43.2658 198.276 43.2614 198.194C43.257 198.113 43.2818 198.032 43.3321 197.965C43.3793 197.906 43.4412 197.86 43.5124 197.828C43.5836 197.797 43.6619 197.782 43.7407 197.785C43.8599 197.785 43.9783 197.803 44.091 197.839C44.2918 197.89 44.4872 197.958 44.6748 198.042C44.9891 198.183 45.2766 198.37 45.5262 198.596C45.9544 198.983 46.0954 199.308 46.0614 199.321C46.0273 199.335 45.8133 199.073 45.3803 198.754C45.1254 198.57 44.8457 198.419 44.5483 198.303C44.3753 198.232 44.1963 198.175 44.0132 198.132C43.8137 198.078 43.6434 198.073 43.5899 198.154C43.5364 198.235 43.5656 198.195 43.5899 198.253C43.6502 198.313 43.719 198.364 43.7943 198.407C43.9491 198.51 44.1117 198.604 44.2808 198.686C44.5675 198.83 44.869 198.948 45.1808 199.037C45.4875 199.09 45.7898 199.162 46.0857 199.254Z" fill="#263238"/>
<path d="M45.9592 199.371C45.7911 199.115 45.7145 198.817 45.7402 198.519C45.7328 198.195 45.7871 197.871 45.9008 197.564C45.9664 197.382 46.0529 197.206 46.1586 197.041C46.2134 196.927 46.2989 196.827 46.4071 196.752C46.5153 196.677 46.6425 196.629 46.7765 196.613C46.8602 196.618 46.9408 196.644 47.0089 196.69C47.0769 196.735 47.1296 196.798 47.1608 196.87C47.2059 196.974 47.2354 197.083 47.2484 197.194C47.2803 197.39 47.2803 197.589 47.2484 197.785C47.1877 198.114 47.0389 198.424 46.8154 198.686C46.4311 199.137 46.0419 199.218 46.037 199.191C46.0321 199.164 46.3338 198.992 46.6305 198.564C46.8008 198.317 46.9119 198.039 46.9565 197.749C46.9833 197.581 46.9833 197.411 46.9565 197.244C46.9322 197.055 46.8641 196.906 46.7862 196.92C46.7084 196.933 46.5284 197.055 46.4457 197.199C46.3476 197.341 46.2645 197.492 46.1975 197.65C46.0825 197.927 46.0104 198.218 45.9835 198.515C45.9251 199.037 46.0127 199.362 45.9592 199.371Z" fill="#263238"/>
<path d="M46.4263 116.095L17.6542 115.892L3.75464 200.461L15.6936 201.867L30.9943 132.33L35.5772 202.115L35.5869 202.322L48.4989 202.111L46.4263 116.095Z" fill="#263238"/>
<path d="M33.3393 122.966C33.5359 122.941 33.7343 122.929 33.9328 122.93L35.6648 122.872L41.8824 122.71H41.9992V122.822C41.9992 124.489 41.9992 126.359 41.9992 128.342V128.374L41.9602 128.41L40.8753 129.333L37.6838 132.037L37.6011 132.109L37.5135 132.042L33.2566 128.527L33.2225 128.495V128.455C33.2225 126.774 33.2615 125.395 33.2761 124.399C33.2761 123.949 33.276 123.584 33.3052 123.304C33.2958 123.183 33.2958 123.061 33.3052 122.939C33.3232 123.074 33.3314 123.209 33.3296 123.345C33.3296 123.624 33.3296 123.994 33.3296 124.458C33.3296 125.436 33.3636 126.797 33.3831 128.45L33.349 128.378L37.64 131.861H37.4698L40.6515 129.158L41.7364 128.257L41.6927 128.342C41.6927 126.359 41.6927 124.489 41.6927 122.822L41.8143 122.93L35.6697 122.98H33.4366L33.3393 122.966Z" fill="#455A64"/>
<path d="M19.7997 122.583C19.9768 122.58 20.1539 122.587 20.33 122.606L21.877 122.723L27.4719 123.174H27.5887V123.286C27.3795 124.917 27.1411 126.783 26.8832 128.77V128.82L26.8394 128.847L25.5988 129.748L22.5387 132.001L22.4414 132.078L22.3587 131.983C21.123 130.536 19.9894 129.212 19.0164 128.067L18.9872 128.036V127.995C19.2304 126.337 19.4299 124.972 19.5759 123.985C19.644 123.534 19.7024 123.178 19.7413 122.899C19.7575 122.777 19.7819 122.657 19.8143 122.538C19.8143 122.538 19.8142 122.682 19.7851 122.944C19.7559 123.205 19.7121 123.593 19.6634 124.052C19.5467 125.03 19.391 126.382 19.1769 128.018L19.1526 127.946L22.5582 131.839H22.383L25.4334 129.586L26.674 128.685L26.6254 128.766C26.8978 126.778 27.1459 124.917 27.3697 123.286L27.4719 123.403L21.9598 122.836L20.3932 122.66C20.0089 122.615 19.8094 122.592 19.7997 122.583Z" fill="#455A64"/>
<path d="M37.4015 135.417C36.9497 135.256 36.5135 135.06 36.0977 134.831C35.3047 134.448 34.21 133.93 32.9937 133.353C31.7775 132.776 30.6585 132.298 29.8509 131.947C29.4034 131.776 28.9722 131.571 28.5616 131.334C29.0332 131.439 29.4915 131.59 29.9287 131.785C30.7558 132.1 31.8748 132.569 33.1105 133.137C34.3462 133.704 35.4166 134.259 36.1852 134.682C36.6169 134.888 37.0244 135.134 37.4015 135.417Z" fill="#455A64"/>
<path d="M37.0319 137.471C36.6882 137.411 36.3588 137.295 36.0589 137.129C35.3032 136.77 34.6109 136.306 34.0058 135.754C33.4022 135.202 32.8921 134.569 32.4927 133.875C32.3071 133.599 32.1769 133.294 32.1084 132.974C32.6891 133.917 33.388 134.793 34.1907 135.583C35.0552 136.313 36.0087 136.946 37.0319 137.471Z" fill="#455A64"/>
<path d="M45.1515 161.908C45.1363 162.064 45.0918 162.216 45.0202 162.358C44.8664 162.75 44.6657 163.125 44.4218 163.476C43.6199 164.656 42.4489 165.582 41.0648 166.13C39.6795 166.66 38.1537 166.792 36.6863 166.508C36.2452 166.421 35.8149 166.293 35.4019 166.125C35.2468 166.075 35.102 166 34.9738 165.905C35.5488 166.083 36.1334 166.233 36.7252 166.355C38.1616 166.581 39.6379 166.425 40.9821 165.905C42.319 165.37 43.4645 164.495 44.2855 163.381C44.6008 162.904 44.8898 162.412 45.1515 161.908Z" fill="#455A64"/>
<path d="M43.2591 161.187C42.924 161.396 42.5518 161.548 42.1596 161.637C41.2323 161.906 40.27 162.058 39.2989 162.088C38.3324 162.121 37.3647 162.069 36.4091 161.93C36.0092 161.896 35.6163 161.811 35.2415 161.678C35.2415 161.597 37.0561 161.921 39.2892 161.845C40.2408 161.815 41.1864 161.695 42.111 161.484C42.4879 161.367 42.8711 161.268 43.2591 161.187Z" fill="#455A64"/>
<path d="M21.8869 161.691C21.5965 162.012 21.2592 162.294 20.8847 162.529C20.0008 163.135 19.0276 163.621 17.9948 163.971C16.9703 164.323 15.8977 164.54 14.8082 164.616C14.3584 164.669 13.9026 164.66 13.4557 164.589C13.897 164.519 14.342 164.471 14.7887 164.444C15.8525 164.322 16.8974 164.087 17.9024 163.741C18.9051 163.393 19.8616 162.939 20.7533 162.39C21.1175 162.138 21.4959 161.905 21.8869 161.691Z" fill="#455A64"/>
<path d="M19.3473 161.588C18.4934 161.826 17.5946 161.894 16.7104 161.786C15.8197 161.76 14.9448 161.562 14.1416 161.205C14.1659 161.133 15.2946 161.444 16.7347 161.543C18.1748 161.642 19.3375 161.516 19.3473 161.588Z" fill="#455A64"/>
<path d="M30.8239 132.916C30.4181 133.145 29.9834 133.326 29.5298 133.457C28.4536 133.819 27.3426 134.086 26.2118 134.254C25.0863 134.423 23.9458 134.491 22.8063 134.457C22.3317 134.462 21.8581 134.415 21.3954 134.317C21.866 134.277 22.339 134.267 22.8111 134.286C23.9419 134.266 25.0699 134.176 26.1875 134.015C27.305 133.845 28.4086 133.604 29.4909 133.294C29.9262 133.142 30.3714 133.016 30.8239 132.916Z" fill="#455A64"/>
<path d="M30.0406 130.176C30.1136 130.176 30.1719 130.383 30.1768 130.627C30.1817 130.87 30.1233 131.077 30.0552 131.1C29.9871 131.122 29.919 130.893 29.9141 130.649C29.9092 130.406 29.9676 130.176 30.0406 130.176Z" fill="#455A64"/>
<path d="M30.0406 128.311C30.1135 128.311 30.1719 128.523 30.1719 128.761C30.1719 129 30.1087 129.212 30.0357 129.212C29.9627 129.212 29.9044 129 29.9092 128.761C29.9141 128.523 29.9676 128.311 30.0406 128.311Z" fill="#455A64"/>
<path d="M30.0844 126.436C30.1574 126.436 30.2109 126.652 30.2012 126.909C30.1914 127.166 30.1282 127.36 30.0552 127.36C29.9822 127.36 29.9336 127.148 29.9384 126.909C29.9433 126.67 30.0114 126.436 30.0844 126.436Z" fill="#455A64"/>
<path d="M30.1574 124.566C30.2304 124.566 30.2791 124.783 30.2693 125.039C30.2596 125.296 30.1866 125.49 30.1137 125.49C30.0407 125.49 29.992 125.274 30.0066 125.012C30.0212 124.751 30.0893 124.562 30.1574 124.566Z" fill="#455A64"/>
<path d="M30.2839 122.696C30.3569 122.696 30.4007 122.912 30.3812 123.169C30.3618 123.426 30.2937 123.62 30.2207 123.62C30.1477 123.62 30.1039 123.403 30.1185 123.147C30.1331 122.89 30.211 122.691 30.2839 122.696Z" fill="#455A64"/>
<path d="M30.4443 120.826C30.5173 120.826 30.5562 121.047 30.5319 121.304C30.5076 121.561 30.4298 121.754 30.3568 121.754C30.2838 121.754 30.2449 121.534 30.2692 121.277C30.2935 121.02 30.3714 120.822 30.4443 120.826Z" fill="#455A64"/>
<path d="M30.6051 119.298C30.6732 119.298 30.717 119.443 30.7024 119.609C30.6878 119.776 30.61 119.902 30.537 119.893C30.464 119.884 30.4202 119.749 30.4397 119.582C30.4591 119.416 30.5321 119.289 30.6051 119.298Z" fill="#455A64"/>
<path d="M14.3411 200.02C14.4092 200.02 14.4238 200.25 14.3703 200.502C14.3168 200.754 14.2098 200.953 14.1416 200.953C14.0735 200.953 14.0541 200.723 14.1124 200.47C14.1708 200.218 14.2681 200.02 14.3411 200.02Z" fill="#455A64"/>
<path d="M14.7352 198.177C14.8081 198.177 14.8227 198.402 14.7643 198.659C14.706 198.916 14.6087 199.109 14.5357 199.109C14.4627 199.109 14.453 198.88 14.5065 198.627C14.56 198.375 14.6622 198.163 14.7352 198.177Z" fill="#455A64"/>
<path d="M15.1341 196.338C15.2022 196.338 15.2168 196.568 15.1633 196.82C15.1097 197.073 15.0076 197.271 14.9346 197.271C14.8616 197.271 14.847 197.041 14.9054 196.784C14.9638 196.528 15.0757 196.325 15.1341 196.338Z" fill="#455A64"/>
<path d="M15.528 194.5C15.601 194.5 15.6156 194.73 15.5572 194.982C15.4988 195.235 15.4015 195.433 15.3285 195.433C15.2556 195.433 15.2458 195.203 15.2993 194.951C15.3529 194.698 15.4599 194.487 15.528 194.5Z" fill="#455A64"/>
<path d="M15.9269 192.666C15.995 192.666 16.0096 192.896 15.9561 193.148C15.9026 193.4 15.8004 193.599 15.7275 193.599C15.6545 193.599 15.6448 193.369 15.6983 193.117C15.7518 192.864 15.854 192.652 15.9269 192.666Z" fill="#455A64"/>
<path d="M16.3211 190.827C16.394 190.827 16.4086 191.057 16.3503 191.309C16.2919 191.562 16.1946 191.76 16.1265 191.76C16.0584 191.76 16.0389 191.53 16.0924 191.278C16.1459 191.026 16.253 190.814 16.3211 190.827Z" fill="#455A64"/>
<path d="M16.7201 188.989C16.7931 188.989 16.8028 189.219 16.7493 189.471C16.6958 189.723 16.5936 189.922 16.5207 189.922C16.4477 189.922 16.438 189.692 16.4915 189.439C16.545 189.187 16.6472 188.975 16.7201 188.989Z" fill="#455A64"/>
<path d="M17.1142 187.155C17.1871 187.155 17.2017 187.385 17.1482 187.637C17.0947 187.889 16.9877 188.088 16.9196 188.088C16.8514 188.088 16.832 187.862 16.8855 187.606C16.939 187.349 17.046 187.141 17.1142 187.155Z" fill="#455A64"/>
<path d="M17.5082 185.316C17.5812 185.316 17.5909 185.546 17.5374 185.799C17.4839 186.051 17.3817 186.249 17.3088 186.249C17.2358 186.249 17.2261 186.019 17.2796 185.767C17.3331 185.515 17.4401 185.303 17.5082 185.316Z" fill="#455A64"/>
<path d="M17.9072 183.478C17.9801 183.478 17.9947 183.708 17.9412 183.965C17.8877 184.222 17.7807 184.415 17.7126 184.415C17.6445 184.415 17.625 184.186 17.6834 183.933C17.7417 183.681 17.8391 183.465 17.9072 183.478Z" fill="#455A64"/>
<path d="M18.3061 181.644C18.3791 181.644 18.3888 181.874 18.3353 182.126C18.2818 182.379 18.1796 182.577 18.1066 182.577C18.0336 182.577 18.0239 182.352 18.0774 182.095C18.1309 181.838 18.2331 181.631 18.3061 181.644Z" fill="#455A64"/>
<path d="M18.705 179.806C18.7731 179.806 18.7877 180.036 18.7342 180.288C18.6807 180.54 18.5736 180.738 18.5055 180.738C18.4374 180.738 18.418 180.509 18.4763 180.256C18.5347 180.004 18.632 179.792 18.705 179.806Z" fill="#455A64"/>
<path d="M19.099 177.967C19.172 177.967 19.1866 178.197 19.1282 178.454C19.0699 178.711 18.9726 178.904 18.8996 178.904C18.8266 178.904 18.8169 178.674 18.8704 178.422C18.9239 178.17 19.0261 177.94 19.099 177.967Z" fill="#455A64"/>
<path d="M19.498 176.138C19.5661 176.138 19.5807 176.368 19.5272 176.62C19.4736 176.872 19.3715 177.07 19.2985 177.07C19.2255 177.07 19.2158 176.841 19.2693 176.584C19.3228 176.327 19.425 176.138 19.498 176.138Z" fill="#455A64"/>
<path d="M19.8921 174.295C19.9651 174.295 19.9797 174.525 19.9213 174.777C19.863 175.029 19.7656 175.228 19.6927 175.228C19.6197 175.228 19.61 174.998 19.6635 174.745C19.717 174.493 19.824 174.281 19.8921 174.295Z" fill="#455A64"/>
<path d="M20.2909 172.456C20.3591 172.456 20.3736 172.686 20.3201 172.943C20.2666 173.2 20.1644 173.393 20.0915 173.393C20.0185 173.393 20.0088 173.164 20.0623 172.911C20.1158 172.659 20.218 172.443 20.2909 172.456Z" fill="#455A64"/>
<path d="M20.6852 170.622C20.7582 170.622 20.7728 170.852 20.7144 171.104C20.656 171.357 20.5587 171.555 20.4906 171.555C20.4225 171.555 20.403 171.325 20.4565 171.068C20.5101 170.811 20.6171 170.609 20.6852 170.622Z" fill="#455A64"/>
<path d="M21.084 168.784C21.157 168.784 21.1667 169.014 21.1132 169.266C21.0597 169.518 20.9575 169.717 20.8846 169.717C20.8116 169.717 20.8019 169.487 20.8554 169.234C20.9089 168.982 21.0111 168.77 21.084 168.784Z" fill="#455A64"/>
<path d="M21.4782 166.945C21.5512 166.945 21.5658 167.175 21.5123 167.432C21.4588 167.689 21.3517 167.882 21.2836 167.882C21.2155 167.882 21.196 167.653 21.2544 167.4C21.3128 167.148 21.4004 166.936 21.4782 166.945Z" fill="#455A64"/>
<path d="M21.8869 165.111C21.9599 165.111 21.9696 165.341 21.9161 165.594C21.8626 165.846 21.7604 166.044 21.6874 166.044C21.6144 166.044 21.6047 165.814 21.6582 165.558C21.7117 165.301 21.8042 165.098 21.8869 165.111Z" fill="#455A64"/>
<path d="M22.276 163.273C22.3442 163.273 22.3588 163.503 22.3052 163.755C22.2517 164.007 22.1447 164.206 22.0766 164.206C22.0085 164.206 21.989 163.976 22.0474 163.723C22.1058 163.471 22.2031 163.259 22.276 163.273Z" fill="#455A64"/>
<path d="M22.6701 161.434C22.7431 161.434 22.7528 161.664 22.6993 161.921C22.6458 162.178 22.5436 162.372 22.4706 162.372C22.3976 162.372 22.3879 162.142 22.4414 161.89C22.4949 161.637 22.5971 161.425 22.6701 161.434Z" fill="#455A64"/>
<path d="M23.0691 159.601C23.1372 159.601 23.1518 159.83 23.0983 160.083C23.0448 160.335 22.9426 160.533 22.8697 160.533C22.7967 160.533 22.7821 160.304 22.8405 160.047C22.8988 159.79 22.9961 159.587 23.0691 159.601Z" fill="#455A64"/>
<path d="M23.4629 157.762C23.5359 157.762 23.5505 157.992 23.4921 158.244C23.4337 158.496 23.3364 158.695 23.2635 158.695C23.1905 158.695 23.1808 158.465 23.2343 158.212C23.2878 157.96 23.3948 157.748 23.4629 157.762Z" fill="#455A64"/>
<path d="M23.862 155.928C23.9301 155.928 23.9447 156.153 23.8912 156.41C23.8377 156.667 23.7355 156.861 23.6625 156.861C23.5895 156.861 23.5798 156.631 23.6333 156.379C23.6868 156.126 23.789 155.915 23.862 155.928Z" fill="#455A64"/>
<path d="M24.256 154.09C24.329 154.09 24.3436 154.32 24.2852 154.572C24.2268 154.824 24.1295 155.022 24.0566 155.022C23.9836 155.022 23.9739 154.793 24.0274 154.536C24.0809 154.279 24.1879 154.058 24.256 154.09Z" fill="#455A64"/>
<path d="M24.655 152.256C24.7231 152.256 24.7377 152.486 24.6841 152.738C24.6306 152.99 24.5285 153.189 24.4555 153.189C24.3825 153.189 24.3728 152.959 24.4263 152.706C24.4798 152.454 24.582 152.256 24.655 152.256Z" fill="#455A64"/>
<path d="M25.049 150.417C25.1219 150.417 25.1365 150.647 25.083 150.899C25.0295 151.152 24.9225 151.35 24.8544 151.35C24.7863 151.35 24.7668 151.12 24.8203 150.868C24.8738 150.615 24.9809 150.404 25.049 150.417Z" fill="#455A64"/>
<path d="M25.448 148.579C25.521 148.579 25.5308 148.809 25.4772 149.061C25.4237 149.313 25.3216 149.512 25.2486 149.512C25.1756 149.512 25.1659 149.282 25.2194 149.03C25.2729 148.777 25.3751 148.565 25.448 148.579Z" fill="#455A64"/>
<path d="M25.8421 146.74C25.9151 146.74 25.9297 146.97 25.8762 147.222C25.8226 147.475 25.7156 147.673 25.6475 147.673C25.5794 147.673 25.5599 147.443 25.6183 147.191C25.6767 146.939 25.7789 146.727 25.8421 146.74Z" fill="#455A64"/>
<path d="M26.2653 144.906C26.3383 144.906 26.348 145.136 26.2945 145.389C26.241 145.641 26.1388 145.839 26.0658 145.839C25.9929 145.839 25.9831 145.614 26.0366 145.357C26.0902 145.1 26.168 144.893 26.2653 144.906Z" fill="#455A64"/>
<path d="M26.6401 143.068C26.7082 143.068 26.7228 143.298 26.6692 143.55C26.6157 143.802 26.5087 144.001 26.4406 144.001C26.3725 144.001 26.353 143.771 26.4114 143.519C26.4698 143.266 26.5671 143.054 26.6401 143.068Z" fill="#455A64"/>
<path d="M27.034 141.229C27.107 141.229 27.1216 141.459 27.0632 141.716C27.0048 141.973 26.9075 142.167 26.8345 142.167C26.7615 142.167 26.7518 141.937 26.8053 141.684C26.8588 141.432 26.961 141.216 27.034 141.229Z" fill="#455A64"/>
<path d="M27.433 139.395C27.5011 139.395 27.5157 139.625 27.4622 139.877C27.4087 140.13 27.3065 140.328 27.2336 140.328C27.1606 140.328 27.146 140.103 27.2044 139.846C27.2627 139.589 27.36 139.382 27.433 139.395Z" fill="#455A64"/>
<path d="M27.827 137.557C27.8999 137.557 27.9145 137.787 27.8561 138.039C27.7978 138.291 27.7005 138.49 27.6275 138.49C27.5545 138.49 27.5448 138.26 27.5983 138.008C27.6518 137.755 27.7588 137.543 27.827 137.557Z" fill="#455A64"/>
<path d="M28.2114 135.719C28.2795 135.719 28.2941 135.948 28.2405 136.205C28.187 136.462 28.0849 136.656 28.0119 136.656C27.9389 136.656 27.9292 136.426 27.9827 136.174C28.0362 135.921 28.153 135.705 28.2114 135.719Z" fill="#455A64"/>
<path d="M28.62 133.885C28.693 133.885 28.7076 134.114 28.6492 134.367C28.5908 134.619 28.4935 134.817 28.4254 134.817C28.3573 134.817 28.3378 134.588 28.3914 134.331C28.4449 134.074 28.5519 133.871 28.62 133.885Z" fill="#455A64"/>
<path d="M68.2803 77.2347C68.2803 77.2347 71.6469 72.5619 71.7345 72.5214C71.7345 72.5214 74.7752 67.781 75.7822 67.781C76.7893 67.781 76.4293 68.7408 75.3882 70.4396C74.8876 71.177 74.5456 71.9971 74.3811 72.8548L76.8769 74.2517C76.8769 74.2517 78.5407 73.6524 78.6089 75.0943C78.5846 75.7535 78.4884 76.4087 78.3218 77.0499C78.2245 77.5591 77.9715 78.1088 77.451 77.9151C77.3201 77.8737 77.2066 77.7953 77.1263 77.6911C77.0461 77.5868 77.0031 77.4619 77.0034 77.3338C76.9693 76.4822 77.1445 76.1712 77.0034 76.1712C76.8623 76.1712 75.2082 80.6367 75.2082 80.6367L68.2803 77.2347Z" fill="#FFBE9D"/>
<path d="M75.0768 73.5667C75.3268 73.3935 75.5939 73.2426 75.8747 73.1161C76.1575 72.9907 76.4739 72.9452 76.7844 72.9854C76.9734 73.0114 77.146 73.0993 77.2709 73.2332C77.3487 73.3355 77.3982 73.4539 77.4152 73.578C77.4321 73.7021 77.416 73.8282 77.3682 73.9452C77.2702 74.1761 77.1321 74.3907 76.9596 74.5805" fill="#FFBE9D"/>
<path d="M73.9432 72.625C74.1799 72.4614 74.4343 72.321 74.7022 72.2059C74.9706 72.0896 75.2696 72.0473 75.5633 72.0843C75.7515 72.1031 75.9251 72.1867 76.0498 72.3186C76.1234 72.4141 76.1703 72.5249 76.1864 72.6413C76.2025 72.7576 76.1874 72.8759 76.1423 72.9855C75.9169 73.3099 75.6561 73.6119 75.3638 73.8867" fill="#FFBE9D"/>
<path d="M69.4527 74.5986L64.5876 84.2325L69.9392 89.3063L72.7367 82.1282C72.7367 82.1282 74.2303 82.4031 74.8433 81.4839C75.5244 80.4565 76.4195 77.487 76.4195 77.487L69.4527 74.5986Z" fill="#FFBE9D"/>
<path d="M72.9264 74.3329C72.9647 73.8387 73.165 73.3671 73.5005 72.9811C73.722 72.699 74.0077 72.4652 74.3373 72.2962C74.5854 72.17 74.7557 72.1295 74.7703 72.1565C74.7849 72.1836 74.1913 72.517 73.7145 73.1253C73.2378 73.7336 73.0091 74.3645 72.9264 74.3329Z" fill="#EB996E"/>
<path d="M78.3218 74.3732C78.3218 74.4047 78.1369 74.3191 77.8353 74.2741C77.4721 74.2132 77.0974 74.2655 76.7698 74.4228C76.4552 74.6109 76.1867 74.858 75.9817 75.1482C75.8065 75.3735 75.6897 75.5177 75.6606 75.4997C75.6314 75.4817 75.6849 75.315 75.8211 75.0491C75.9996 74.6982 76.2855 74.4036 76.6433 74.202C76.8306 74.1072 77.037 74.049 77.2495 74.0312C77.4621 74.0134 77.6764 74.0362 77.879 74.0983C78.205 74.2065 78.3218 74.3507 78.3218 74.3732Z" fill="#EB996E"/>
<path d="M76.5119 73.0126C76.111 73.1869 75.7283 73.3951 75.3686 73.6344C74.8237 74.085 74.561 74.6032 74.4832 74.5672C74.5543 74.1223 74.8111 73.7211 75.1983 73.4497C75.4515 73.2327 75.7592 73.0778 76.0935 72.9991C76.3465 72.9495 76.507 72.9811 76.5119 73.0126Z" fill="#EB996E"/>
<path d="M77.7088 75.0944C77.7769 75.0674 77.9034 75.4414 77.6504 75.8154C77.3975 76.1894 76.9791 76.266 76.9742 76.1804C76.9693 76.0947 77.232 75.9821 77.4266 75.6847C77.6212 75.3873 77.6358 75.1034 77.7088 75.0944Z" fill="#EB996E"/>
<path d="M68.2901 77.0498C68.2901 77.0498 68.1198 74.1704 68.869 73.5215C69.6182 72.8727 71.7881 73.5486 71.7881 73.5486" fill="#FFBE9D"/>
<path d="M72.0749 72.1743C71.7791 72.7621 71.4048 73.3132 70.9608 73.8145C70.5875 74.3615 70.1431 74.864 69.6375 75.3105C69.9324 74.7223 70.3067 74.1712 70.7516 73.6703C71.1232 73.1222 71.5678 72.6196 72.0749 72.1743Z" fill="#EB996E"/>
<path d="M29.0093 50.3744L28.9363 72.8144L39.333 73.265L39.6297 67.8082C39.6297 67.8082 43.3223 68.4841 44.2759 65.3119C44.884 63.2842 44.7332 47.6077 44.7332 47.6077L29.0093 50.3744Z" fill="#FFBE9D"/>
<path d="M46.1003 49.1935C44.4608 49.6441 44.1056 52.1044 44.1056 52.1044L41.5369 57.3584C40.2282 56.4121 38.4719 56.4572 38.1313 58.593C37.8929 60.1341 39.9557 60.445 39.9557 60.445C38.754 62.3376 37.9416 63.8696 36.1901 65.672C34.2927 67.6232 33.2322 67.8214 31.1791 67.853H28.912C28.912 67.853 27.8027 64.5185 25.7497 56.1778C23.4728 46.9269 35.2804 48.121 37.4696 45.7599C41.0455 41.9117 51.2573 47.8281 46.1003 49.1935Z" fill="#263238"/>
<path d="M25.9733 57.0522C24.0613 55.8626 23.8862 52.5462 25.0003 50.532C25.5738 49.5354 26.4209 48.6966 27.4561 48.1001C28.4914 47.5036 29.6782 47.1705 30.8968 47.1344C31.2249 47.1552 31.5544 47.1216 31.8698 47.0353C32.2947 46.8244 32.6521 46.5136 32.9061 46.1341C34.6137 44.0748 36.3116 42.0471 39.4837 42.0471C40.1865 42.0129 40.8848 42.1695 41.4929 42.4977C42.0551 42.8555 42.4767 43.3725 42.6946 43.9712C43.2808 43.6833 43.9082 43.4739 44.558 43.3493C44.8847 43.2918 45.221 43.2998 45.5441 43.3729C45.8672 43.4459 46.1697 43.5823 46.431 43.7729C46.6844 43.973 46.8532 44.2497 46.9075 44.554C46.9618 44.8583 46.8981 45.1706 46.7278 45.4356C47.2672 45.4295 47.7913 45.6017 48.206 45.9213C48.6206 46.2409 48.8986 46.687 48.9901 47.1795C49.1555 48.1663 47.6327 48.8602 47.477 48.9368C47.477 48.9368 48.3138 50.5545 46.3191 51.5278C45.5115 51.9198 44.4704 51.4512 44.3488 51.3926" fill="#263238"/>
<path d="M33.5631 59.2104C33.7037 59.7733 33.6835 60.3603 33.5047 60.9137C33.4096 61.4849 33.1565 62.0236 32.7701 62.4773C32.7019 62.4458 33.0328 61.7564 33.2566 60.8597C33.4804 59.963 33.4852 59.2104 33.5631 59.2104Z" fill="#455A64"/>
<path d="M34.8182 58.1111C34.9093 58.658 34.8779 59.2163 34.7258 59.7513C34.6591 60.3003 34.472 60.8308 34.176 61.3104C34.2165 60.7685 34.3127 60.2314 34.4631 59.7063C34.5297 59.1658 34.6486 58.6319 34.8182 58.1111Z" fill="#455A64"/>
<path d="M38.428 54.4072C38.4572 54.4388 38.1604 54.637 37.7858 55.0426C37.3066 55.5812 36.9284 56.1905 36.6668 56.845C36.4092 57.5038 36.2012 58.1783 36.0441 58.8637C36.0029 59.1562 35.9161 59.4415 35.7862 59.7108C35.7628 59.4085 35.7891 59.1046 35.8641 58.8096C35.969 58.102 36.1566 57.407 36.4236 56.7368C36.6931 56.0639 37.1105 55.4501 37.6496 54.9344C37.8572 54.701 38.1249 54.5197 38.428 54.4072Z" fill="#455A64"/>
<path d="M39.8875 51.8837C40.0096 52.0671 40.0783 52.2767 40.087 52.492C40.1656 53.0033 40.1342 53.524 39.9946 54.024C39.8632 54.5253 39.625 54.9971 39.294 55.4119C39.041 55.7318 38.8318 55.8625 38.8075 55.8625C39.2052 55.2697 39.5191 54.6322 39.7416 53.9655C39.8826 53.2797 39.9316 52.5805 39.8875 51.8837Z" fill="#455A64"/>
<path d="M27.4719 57.4891C27.4378 57.5477 27.1167 57.4441 26.7616 57.2593C26.4064 57.0746 26.1437 56.8763 26.1778 56.8087C26.2118 56.7411 26.5329 56.8538 26.8881 57.0385C27.2432 57.2233 27.5059 57.4306 27.4719 57.4891Z" fill="#455A64"/>
<path d="M32.4927 55.0919C32.5348 55.4411 32.4283 55.7919 32.1959 56.0697C31.8748 56.5608 31.4418 56.8177 31.4029 56.7681C31.364 56.7186 31.6802 56.3941 31.9721 55.9435C32.264 55.4929 32.4197 55.0784 32.4927 55.0919Z" fill="#455A64"/>
<path d="M34.0493 54.326C34.0404 54.7519 33.8777 55.1628 33.5872 55.4931C33.1736 56.0788 32.6482 56.3943 32.6141 56.3402C32.8453 55.9988 33.0988 55.6707 33.3731 55.3579C33.5759 55.0016 33.8017 54.657 34.0493 54.326Z" fill="#455A64"/>
<path d="M41.712 44.9265C41.712 44.949 41.5174 44.7913 41.1428 44.5931C40.6059 44.3283 40.0091 44.1847 39.4011 44.174C38.5011 44.1566 37.6146 44.3786 36.8469 44.8138C35.9199 45.3752 35.1683 46.1521 34.6673 47.0669C34.2875 47.7347 33.9921 48.4408 33.7867 49.1712L33.743 49.3109L33.6067 49.2433C32.8897 48.8958 32.0952 48.7076 31.2861 48.6935C30.645 48.6796 30.0061 48.7696 29.3984 48.9594C28.8595 49.1474 28.3427 49.3859 27.8562 49.6714C27.9558 49.56 28.0741 49.4641 28.2065 49.3875C28.5559 49.1505 28.939 48.9594 29.3449 48.8197C29.9667 48.6022 30.6263 48.4922 31.291 48.4953C32.1367 48.494 32.9705 48.6793 33.7235 49.036L33.5435 49.1081C33.7481 48.3582 34.0486 47.6336 34.4387 46.9497C34.9614 46.001 35.7494 45.1996 36.7204 44.6291C37.5295 44.181 38.4644 43.9661 39.4059 44.0118C40.0397 44.038 40.6558 44.2132 41.1963 44.521C41.3385 44.6073 41.472 44.7053 41.5952 44.8138C41.6795 44.8859 41.7185 44.9235 41.712 44.9265Z" fill="#455A64"/>
<path d="M47.1852 46.1475C47.1852 46.1475 47.4771 46.0754 47.7836 46.3998C47.8716 46.4966 47.938 46.6085 47.9789 46.7292C48.0198 46.8498 48.0344 46.9768 48.022 47.1028C47.9954 47.2701 47.927 47.4293 47.8223 47.5677C47.7175 47.7062 47.5793 47.8201 47.4187 47.9004C47.0354 48.1035 46.5822 48.1616 46.1538 48.0626C45.6827 47.9502 45.2409 47.7509 44.8548 47.4768C44.4471 47.1854 44.0215 46.9161 43.5801 46.6702C43.0993 46.4296 42.5804 46.2608 42.0428 46.17C40.9987 45.9954 39.9242 46.0619 38.9145 46.3638C38.0869 46.6154 37.3058 46.9831 36.5987 47.4543C35.9551 47.9055 35.338 48.3884 34.75 48.9007C34.8653 48.7352 35.0026 48.5839 35.1587 48.4501C35.5662 48.0446 36.0106 47.6723 36.4868 47.3371C37.1995 46.8343 37.9945 46.4403 38.8415 46.17C39.8892 45.8446 41.0081 45.7671 42.0963 45.9447C42.6596 46.0434 43.2029 46.2228 43.7066 46.4765C44.1561 46.7294 44.5883 47.0078 45.0007 47.3101C45.3579 47.5732 45.7681 47.7677 46.2073 47.8823C46.5837 47.9783 46.9855 47.9381 47.3311 47.7697C47.4715 47.7046 47.594 47.6107 47.6893 47.4951C47.7846 47.3796 47.8501 47.2454 47.8809 47.1028C47.9121 46.8809 47.8494 46.6564 47.7057 46.4765C47.5807 46.3123 47.3958 46.1955 47.1852 46.1475Z" fill="#455A64"/>
<path d="M17.9461 75.1665L8.66351 89.5858C7.62238 91.2711 6.66396 93.0645 5.74446 94.9255C5.39367 95.8593 5.29893 96.8591 5.46877 97.8352C5.63862 98.8113 6.06771 99.733 6.71747 100.517L6.45475 100.166C6.962 100.749 7.60374 101.219 8.33282 101.541C9.0619 101.864 9.85981 102.032 10.6679 102.032H10.9112C11.9673 102.031 13.0003 101.745 13.8836 101.209C14.7668 100.673 15.4618 99.9093 15.8833 99.0125L18.8656 94.8218L17.9461 75.1665Z" fill="#CA005D"/>
<path d="M45.9543 72.4043C43.4634 71.2282 41.0017 70.9624 38.3162 70.8903C35.1928 70.8047 30.785 70.3991 27.4184 70.7326C27.4184 70.7326 17.8195 71.3905 17.153 77.4916L18.4617 106.105L16.2676 118.226L47.0247 119.087L46.8057 104.785C47.1852 97.3407 46.3727 86.8056 46.3727 86.8056C46.8592 82.8042 49.2091 81.0018 49.5448 78.4018C49.8415 76.1038 48.1826 73.4587 45.9543 72.4043Z" fill="#CA005D"/>
<path d="M37.2848 106.506C37.1511 106.654 36.9992 106.787 36.8323 106.903C36.3939 107.239 35.9252 107.541 35.4312 107.804C33.7879 108.66 31.9405 109.125 30.0552 109.156C28.1662 109.184 26.2996 108.773 24.6258 107.961C24.123 107.716 23.643 107.433 23.1906 107.114C23.012 107.007 22.8486 106.88 22.7041 106.736C22.7333 106.695 23.4144 107.231 24.6891 107.808C26.3559 108.557 28.1883 108.935 30.0407 108.912C31.8893 108.88 33.704 108.446 35.3387 107.646C36.5939 107.024 37.2556 106.465 37.2848 106.506Z" fill="#263238"/>
<path d="M17.1045 77.807C17.1309 77.8981 17.1439 77.9921 17.1434 78.0864C17.1434 78.2937 17.1726 78.537 17.192 78.8839C17.2309 79.6139 17.2796 80.6098 17.3428 81.8264C17.4547 84.3408 17.6104 87.7563 17.7807 91.5324C17.951 95.3085 18.131 98.7421 18.2672 101.238C18.3353 102.46 18.3888 103.455 18.4326 104.181C18.4326 104.505 18.4326 104.771 18.4667 104.983C18.4782 105.076 18.4782 105.169 18.4667 105.262C18.4393 105.171 18.423 105.077 18.418 104.983C18.418 104.776 18.3694 104.532 18.3353 104.185C18.2623 103.496 18.1796 102.491 18.0872 101.252C17.9072 98.7691 17.7077 95.3355 17.5374 91.5459C17.3672 87.7563 17.2455 84.3363 17.1726 81.8354C17.1726 80.6143 17.1288 79.6184 17.1093 78.8885V78.0864C17.0953 77.9938 17.0937 77.9 17.1045 77.807Z" fill="#263238"/>
<path d="M15.1777 79.321C15.1546 79.4 15.1202 79.4758 15.0755 79.5463C14.9782 79.7131 14.8663 79.9158 14.7253 80.1637C14.4139 80.6909 13.9517 81.4569 13.363 82.3852C12.1954 84.2552 10.444 86.756 8.66337 89.5948C7.77792 91.0142 7.02382 92.4246 6.3719 93.7088C5.75664 94.8235 5.4491 96.062 5.47672 97.3137C5.52187 98.1574 5.76598 98.9818 6.19189 99.7289C6.49353 100.261 6.74652 100.504 6.72706 100.522C6.70759 100.54 6.65409 100.468 6.53732 100.346C6.37487 100.168 6.22841 99.9785 6.09945 99.7785C5.63158 99.0293 5.35532 98.1907 5.29186 97.3272C5.23469 96.0419 5.53099 94.7643 6.15298 93.6142C6.79517 92.312 7.54439 90.9106 8.43471 89.4686C10.2153 86.6118 11.9959 84.129 13.2025 82.2815L14.662 80.1006L15.0512 79.5058C15.0877 79.441 15.13 79.3792 15.1777 79.321Z" fill="#263238"/>
<path d="M71.7588 87.1795L64.6412 82.8628L60.1507 90.0724C60.1507 90.0724 53.9185 82.0562 51.0919 77.3564C48.4891 73.0351 45.1176 71.8725 43.4926 71.5571C43.381 71.5357 43.2656 71.5392 43.1557 71.5672C43.0458 71.5952 42.9447 71.647 42.8606 71.7182C42.7765 71.7895 42.7119 71.8782 42.6721 71.9771C42.6323 72.076 42.6184 72.1822 42.6315 72.2871L45.0641 87.878C45.3754 88.6891 50.513 95.5878 53.3834 99.0575C58.1755 104.852 65.2347 101.144 67.1759 97.0883C68.7327 93.871 71.1263 88.982 71.7588 87.1795Z" fill="#CA005D"/>
<path d="M62.194 96.5792C62.1083 96.2424 62.0627 95.8979 62.0578 95.5519C62.0011 94.7271 61.8857 93.9068 61.7123 93.0961C61.5392 92.2903 61.2341 91.5138 60.8074 90.7935C60.4717 90.2438 60.1896 89.9464 60.2188 89.9238C60.5256 90.1299 60.7798 90.3961 60.9631 90.7034C61.4517 91.4187 61.7931 92.2116 61.9702 93.042C62.15 93.8652 62.2412 94.703 62.2426 95.5429C62.2732 95.8888 62.2569 96.237 62.194 96.5792Z" fill="#263238"/>
<path d="M64.2762 93.3573C64.2373 93.3573 64.2033 93.0239 64.0233 92.5147C63.7936 91.8521 63.4043 91.2466 62.8848 90.7438C62.4061 90.2163 61.7304 89.8752 60.9923 89.7885C60.6856 89.7891 60.3813 89.8378 60.0923 89.9327C60.0631 89.9327 60.3647 89.6353 60.9972 89.6128C61.3963 89.6332 61.7866 89.7294 62.1439 89.8952C62.5013 90.0611 62.818 90.2932 63.0746 90.5771C63.6231 91.1039 64.0123 91.755 64.2033 92.4651C64.3067 92.7524 64.3318 93.0589 64.2762 93.3573Z" fill="#263238"/>
<path d="M43.0305 73.4812C42.9837 73.5501 42.9263 73.6124 42.8602 73.666L42.6413 73.8732L42.3688 74.1751C41.807 74.8337 41.3874 75.5865 41.1331 76.3921C40.7611 77.5875 40.6698 78.8428 40.8655 80.0735C40.9645 80.7992 41.1708 81.5088 41.4785 82.1824C41.8211 82.9064 42.2044 83.6133 42.6267 84.3002C44.3684 87.1345 46.1636 89.5858 47.4626 91.3521L49.0243 93.4339C49.2276 93.681 49.416 93.9382 49.5886 94.2045C49.5211 94.1529 49.4607 94.0939 49.4086 94.0287C49.3016 93.9071 49.141 93.7268 48.9221 93.4925C48.5232 93.0194 47.9491 92.3255 47.2874 91.4513C45.525 89.1843 43.8866 86.8367 42.3785 84.4174C41.9491 83.7233 41.5625 83.0071 41.2207 82.2725C40.9098 81.5795 40.7035 80.8502 40.6076 80.1051C40.4143 78.8437 40.5273 77.5583 40.9385 76.3425C41.2096 75.5223 41.6637 74.7639 42.2715 74.1166L42.5634 73.8237L42.8018 73.6299C42.8711 73.5718 42.9479 73.5219 43.0305 73.4812Z" fill="#263238"/>
<path d="M43.0499 114.905C42.9814 114.943 42.9078 114.971 42.831 114.991L42.1888 115.198C41.9115 115.284 41.5709 115.387 41.1671 115.486C40.7633 115.585 40.3109 115.716 39.7952 115.82C38.5966 116.086 37.3834 116.292 36.161 116.437C34.663 116.61 33.1556 116.701 31.6462 116.712C30.1372 116.711 28.6296 116.626 27.1314 116.46C25.9079 116.321 24.6931 116.122 23.4923 115.865C22.9766 115.761 22.5193 115.635 22.1203 115.536C21.7214 115.437 21.3711 115.338 21.0938 115.252L20.4516 115.049C20.3748 115.03 20.3012 115.001 20.2327 114.964C20.3124 114.965 20.3914 114.978 20.4662 115.004L21.123 115.162C21.4051 115.234 21.7506 115.32 22.1544 115.405C22.5582 115.491 23.0155 115.608 23.5312 115.694C24.5529 115.901 25.7837 116.086 27.1557 116.239C28.6471 116.388 30.146 116.465 31.6462 116.469C33.1451 116.458 34.6425 116.374 36.1318 116.216C37.5037 116.054 38.7346 115.86 39.7563 115.653C40.2671 115.563 40.7293 115.446 41.1282 115.356C41.5272 115.266 41.8823 115.18 42.1596 115.103L42.8164 114.946C42.8911 114.92 42.9701 114.906 43.0499 114.905Z" fill="#263238"/>
<path opacity="0.3" d="M16.5497 98.1065L17.9411 96.1103L17.2162 80.3843L16.5497 98.1065Z" fill="black"/>
<path opacity="0.3" d="M40.5396 79.321C40.5396 79.321 40.5833 85.0527 41.9991 87.3238C43.4148 89.5948 46.7766 94.4974 46.7669 94.2045C46.7571 93.9116 46.5723 90.1491 46.5723 90.1491C46.5723 90.1491 40.5687 82.5293 40.5396 79.321Z" fill="black"/>
<path d="M70.1387 91.6586C70.0998 91.6586 69.8711 91.208 69.3603 90.5095C68.69 89.6207 67.8569 88.8475 66.8985 88.225C65.937 87.6051 64.8648 87.1474 63.7314 86.8731C62.8605 86.6614 62.301 86.6298 62.301 86.5848C62.4333 86.5666 62.5677 86.5666 62.7 86.5848C63.0619 86.6011 63.4216 86.6463 63.7751 86.7199C64.3017 86.8252 64.8164 86.9761 65.3125 87.1705C65.92 87.4092 66.5002 87.7036 67.0445 88.0492C67.5828 88.4033 68.0815 88.8063 68.5332 89.2523C68.8977 89.6176 69.2236 90.0145 69.5062 90.4374C69.6955 90.7246 69.8583 91.0261 69.9927 91.3386C70.1095 91.5279 70.1581 91.6495 70.1387 91.6586Z" fill="white"/>
<path opacity="0.3" d="M41.5515 115.261C41.6692 115.209 41.7731 115.134 41.856 115.041C41.9389 114.948 41.9987 114.839 42.0312 114.722C42.0636 114.605 42.068 114.483 42.044 114.364C42.0199 114.246 41.9681 114.133 41.8921 114.035C41.7107 113.867 41.4904 113.738 41.2476 113.66C41.0048 113.582 40.7461 113.556 40.4909 113.585C37.9805 113.63 35.7864 115.189 33.31 115.603C31.4321 115.923 29.4909 115.563 27.6617 115.049C25.8324 114.536 24.0469 113.864 22.169 113.535C21.7803 113.444 21.3743 113.437 20.9819 113.513C20.7866 113.553 20.6079 113.644 20.4672 113.776C20.3266 113.908 20.23 114.075 20.1889 114.256C20.1402 114.626 20.2327 114.896 20.8262 115.085C20.8262 115.085 27.0487 116.685 31.5537 116.626C34.9291 116.5 38.2805 116.042 41.5515 115.261Z" fill="black"/>
</svg>
