<svg width="162" height="208" viewBox="0 0 162 208" fill="none" xmlns="http://www.w3.org/2000/svg">
<path d="M59.5034 136.34L59.4121 171.387L43.9233 168.198L30.8801 165.478C30.8801 165.478 48.7362 200.695 68.1575 200.695C87.5788 200.695 90.0896 171.393 90.0896 171.393L91.244 136.34H59.5034Z" fill="#8B6959"/>
<path d="M75.6315 91.9404C75.6315 91.9404 64.147 99.5055 61.0688 107.84C57.808 116.586 53.3081 144.922 53.3081 144.922H69.3969L75.6315 91.9404Z" fill="#D47600"/>
<path d="M139.947 45.9245C138.506 46.7331 136.569 45.6897 135.917 44.1701C135.265 42.6506 135.565 40.9094 136.06 39.3246C136.556 37.7399 137.247 36.2008 137.365 34.5508C137.421 33.0457 136.993 31.5622 136.143 30.3188C135.293 29.0755 134.066 28.138 132.643 27.6444C135.447 25.4141 135.676 20.6533 133.1 18.1686C131.893 17.0012 130.289 16.3751 128.887 15.4621C128.089 14.933 127.346 14.3257 126.669 13.6491C127.92 13.9615 129.223 14.0015 130.491 13.7665C131.507 13.5441 132.451 13.0689 133.236 12.385C134.02 11.701 134.619 10.8304 134.978 9.85355C135.309 8.86354 135.358 7.80059 135.119 6.78437C134.879 5.76814 134.36 4.83899 133.621 4.1015C132.859 3.38939 131.898 2.92624 130.865 2.77363C129.833 2.62102 128.779 2.78619 127.843 3.24718C126.03 4.19933 125.039 6.17537 124.158 8.02098L123.337 9.74268C120.787 6.3645 118.387 2.86893 114.454 1.682C110.887 0.605934 107.052 1.80591 103.368 1.53852C100.661 1.34287 98.0656 0.364634 95.3656 0.0711626C92.6657 -0.222309 89.594 0.35159 88.0028 2.54937C87.0637 3.85368 86.7702 5.51017 85.8246 6.7884C83.8681 9.43616 79.6551 9.79485 78.0508 12.6578C76.7465 14.9926 77.7508 17.9338 77.19 20.549C76.5835 23.3989 74.2357 25.4728 72.3183 27.6575C70.401 29.8422 68.725 32.8748 69.801 35.5486C70.7532 37.9225 73.5248 39.2007 74.4248 41.5941C75.077 43.3419 74.6074 45.2788 74.5748 47.144C74.5422 49.0092 75.2857 51.2265 77.1052 51.6504L97.7982 57.1155C104.926 60.0111 112.276 62.9849 119.972 62.9458C127.667 62.9067 135.878 59.2415 138.884 52.1721C137.765 52.1332 136.703 51.6664 135.917 50.8678C136.915 50.3968 137.795 49.7083 138.492 48.853C139.19 47.9976 139.687 46.997 139.947 45.9245Z" fill="#263238"/>
<path d="M122.991 52.4201C124.7 47.2028 126.382 41.8812 127.158 36.4161C127.934 30.951 127.771 25.2577 125.854 20.1121C125.567 19.3295 123.082 14.0666 122.247 14.1514C121.654 14.2101 123.18 19.1209 122.9 19.6361C120.03 24.5664 119.248 30.501 119.711 36.1879C120.198 41.7035 121.299 47.1478 122.991 52.4201Z" fill="#263238"/>
<path d="M104.731 98.2866C113.287 98.104 122.991 79.374 122.991 79.374L123.545 31.3425C123.989 17.5037 116.313 5.71268 102.474 5.64746L101.17 5.71268C94.9631 6.0588 89.113 8.72499 84.7799 13.1825C80.4468 17.64 77.9473 23.5632 77.777 29.7773C77.4574 41.7705 77.2553 55.0224 77.6726 61.4266C78.5465 74.6785 91.9288 76.035 91.9288 76.035C91.9288 76.035 92.0006 79.1066 92.0397 83.0065C92.131 91.765 101.294 98.5866 104.724 98.2866H104.731Z" fill="#9B7564"/>
<path d="M88.7673 43.8738C89.1754 42.9169 90.6843 43.442 90.2917 44.4316C89.3792 46.5602 87.4875 51.0476 91.4835 50.6866C92.5106 50.5961 92.8126 52.1977 91.7786 52.2938C90.0391 52.4502 88.2854 52.2498 87.5981 50.379C86.8304 48.2507 87.9253 45.7974 88.7488 43.872" fill="#7F6358"/>
<path d="M99.1704 58.9141C99.8587 58.7526 100.53 58.5253 101.175 58.2354C101.18 58.6423 101.024 59.0347 100.741 59.3269C99.6438 60.8517 98.1736 62.0701 96.4704 62.8655C95.131 63.5319 93.6324 63.8137 92.1418 63.6795C90.158 63.4506 88.2947 62.6104 86.811 61.2755C86.1845 60.7327 85.6099 60.1078 85.0125 59.5242C84.714 59.2163 84.4607 58.8677 84.2604 58.4887C84.7504 58.4911 85.2391 58.54 85.7198 58.6347C86.1519 59.109 86.6492 59.5199 87.1967 59.855C87.8049 60.3662 88.5327 60.7157 89.3123 60.871C90.5839 61.0887 91.8692 61.2173 93.1587 61.2558C94.3767 61.3218 95.5954 61.1404 96.741 60.7226C97.2511 60.5989 97.7304 60.3719 98.1488 60.0554C98.5673 59.739 98.9161 59.34 99.1735 58.8833" fill="#353535"/>
<path d="M99.1684 58.9132C98.911 59.37 98.5623 59.769 98.1438 60.0854C97.7253 60.4018 97.2461 60.6289 96.7359 60.7525C95.5903 61.1704 94.3717 61.3518 93.1537 61.2858C91.8641 61.2472 90.5789 61.1186 89.3073 60.901C88.5276 60.7457 87.7999 60.3962 87.1916 59.885C86.6441 59.5499 86.1469 59.139 85.7148 58.6647C85.956 58.6888 86.2033 58.7136 86.4507 58.7383C88.8228 59.1222 91.2216 59.3184 93.6247 59.3251C95.3332 59.4066 97.0453 59.287 98.7257 58.9687C98.8713 58.9437 99.0188 58.9313 99.1666 58.9318" fill="white"/>
<path d="M101.603 39.353C101.577 39.6697 101.614 39.9884 101.713 40.2905C101.812 40.5925 101.971 40.8717 102.18 41.1116C102.389 41.3516 102.643 41.5474 102.929 41.6876C103.215 41.8278 103.526 41.9095 103.843 41.9279C104.485 41.9552 105.112 41.7338 105.593 41.31C106.074 40.8863 106.372 40.2932 106.426 39.6547C106.453 39.3375 106.416 39.0181 106.317 38.7154C106.218 38.4127 106.06 38.1328 105.851 37.8922C105.642 37.6516 105.387 37.4552 105.101 37.3146C104.815 37.174 104.504 37.092 104.186 37.0735C103.541 37.0429 102.911 37.2634 102.426 37.6885C101.942 38.1136 101.642 38.71 101.59 39.3517" fill="#353535"/>
<path d="M81.7665 38.041C81.7432 38.4833 81.8511 38.9227 82.0767 39.3042C82.3022 39.6858 82.6354 39.9924 83.0346 40.1859C83.4338 40.3794 83.8812 40.4511 84.3209 40.392C84.7606 40.333 85.173 40.1458 85.5066 39.8539C85.8402 39.5619 86.0802 39.1783 86.1964 38.7508C86.3127 38.3234 86.3002 37.8712 86.1603 37.4508C86.0205 37.0303 85.7596 36.6604 85.4103 36.3871C85.061 36.1139 84.6388 35.9495 84.1965 35.9146C83.5911 35.8768 82.9955 36.0799 82.54 36.4796C82.0844 36.8793 81.8061 37.4429 81.7659 38.0471" fill="#353535"/>
<path d="M110.039 36.1998C109.773 34.1155 108.82 32.7107 107.133 31.9059C106.314 31.4948 105.409 31.2804 104.492 31.28C104.117 31.269 103.753 31.4022 103.474 31.652C103.351 31.7749 103.258 31.9236 103.2 32.0872C103.143 32.2509 103.123 32.4254 103.142 32.5978C103.142 32.7713 103.178 32.943 103.249 33.1016C103.32 33.2602 103.423 33.4022 103.552 33.5186C103.681 33.6349 103.833 33.7229 103.998 33.777C104.163 33.831 104.338 33.8498 104.511 33.8322C104.598 33.8409 104.678 33.8489 104.768 33.8206C104.833 33.8209 104.897 33.8274 104.96 33.8397C105.45 33.8249 105.937 33.9262 106.381 34.1353C106.825 34.3444 107.213 34.6555 107.513 35.0429C107.781 35.4412 107.978 35.8828 108.094 36.3482L108.255 36.9879C108.31 37.1851 108.433 37.357 108.601 37.474C108.77 37.591 108.973 37.6458 109.178 37.6289L109.308 37.6419C109.512 37.6153 109.701 37.5165 109.839 37.3633C109.976 37.2101 110.055 37.0127 110.06 36.8067C110.065 36.6876 110.06 36.5683 110.045 36.4499L110.039 36.1998Z" fill="#353535"/>
<path d="M85.4942 30.3339C85.123 30.2124 84.7345 30.1524 84.344 30.1564L84.0904 30.1311C83.4742 30.0721 82.8524 30.1349 82.2606 30.3159C80.1545 30.8909 79.2561 32.4409 78.7146 33.7336C78.66 33.8742 78.6323 34.0237 78.633 34.1744C78.6261 34.3739 78.6892 34.5694 78.8114 34.7274C78.9336 34.8853 79.1072 34.9958 79.3022 35.0395C79.3984 35.0679 79.4991 35.078 79.599 35.0692C79.7252 35.0661 79.8492 35.0358 79.9625 34.9805C80.0759 34.9251 80.1759 34.8459 80.2557 34.7483C80.3658 34.613 80.4638 34.4685 80.5488 34.3162C80.7195 33.9612 80.9439 33.6345 81.2141 33.3477C81.5309 32.9659 81.9459 32.6775 82.4146 32.5134C82.8833 32.3494 83.3879 32.3159 83.8743 32.4166L84.2478 32.4914C84.4766 32.5143 84.7066 32.5872 84.9348 32.6162C85.2424 32.6897 85.5664 32.6433 85.8409 32.4865C86.1153 32.3298 86.3196 32.0745 86.412 31.7726C86.4494 31.6175 86.4551 31.4565 86.4289 31.2991C86.4027 31.1417 86.3452 30.9912 86.2596 30.8565C86.1741 30.7217 86.0623 30.6055 85.9309 30.5146C85.7995 30.4238 85.6512 30.3602 85.4948 30.3277" fill="#353535"/>
<path d="M91.9287 76.0344C91.9287 76.0344 100.309 76.0736 108.885 70.002C108.885 70.002 105.194 79.8691 91.9287 79.3865V76.0344Z" fill="#7F6358"/>
<path d="M122.991 41.2422C123.213 41.1313 131.958 38.0531 132.161 47.1116C132.363 56.1701 123.193 54.5202 123.174 54.2854C123.154 54.0506 122.991 41.2422 122.991 41.2422Z" fill="#9B7564"/>
<path d="M125.867 50.7834C125.906 50.7834 126.03 50.8942 126.297 51.0051C126.675 51.1613 127.1 51.1613 127.478 51.0051C128.43 50.6334 129.206 49.0943 129.219 47.4574C129.221 46.6779 129.052 45.9075 128.723 45.2009C128.632 44.9192 128.474 44.6637 128.263 44.456C128.052 44.2483 127.793 44.0944 127.51 44.0074C127.327 43.9636 127.134 43.9853 126.965 44.0687C126.796 44.152 126.661 44.2918 126.584 44.4639C126.467 44.7183 126.532 44.9009 126.48 44.9205C126.428 44.94 126.284 44.7705 126.35 44.3922C126.395 44.1666 126.517 43.9637 126.695 43.8183C126.94 43.6231 127.251 43.5317 127.563 43.564C127.938 43.6296 128.289 43.7907 128.584 44.0317C128.879 44.2727 129.106 44.5855 129.245 44.94C129.651 45.7167 129.859 46.5812 129.852 47.4574C129.852 49.2899 128.932 51.0247 127.628 51.429C127.385 51.506 127.129 51.5272 126.877 51.4911C126.625 51.4549 126.385 51.3624 126.173 51.2203C125.887 51.0051 125.834 50.8029 125.867 50.7834Z" fill="#7F6358"/>
<path d="M83.4638 14.6533C81.9834 13.8577 86.3334 9.03822 89.9267 7.35565C95.3527 4.80571 103.674 3.17531 108.722 4.53833C114.807 6.18177 119.887 9.10344 122.998 14.6077C126.109 20.1119 127.341 26.503 127.243 32.8029C127.211 34.7202 127.041 36.7158 126.03 38.3658C124.791 40.394 122.372 41.6853 122.515 44.457C122.556 44.958 122.497 45.4622 122.341 45.9403C122.186 46.4183 121.937 46.8607 121.609 47.2417C119.965 49.0351 117.911 47.3982 116.959 45.7417C114.911 42.2135 114.637 37.968 114.409 33.892C114.246 30.9964 114.089 28.0226 114.872 25.2444C115.296 23.7248 115.994 22.2836 116.333 20.7445C116.672 19.2054 116.607 17.4837 115.628 16.2185C115.404 15.9504 115.155 15.7037 114.885 15.4816C113.604 14.392 112.055 13.6631 110.399 13.3697C108.743 13.0763 107.039 13.2289 105.461 13.812C100.368 15.6902 91.6876 18.501 89.3659 16.7924C86.0529 14.3403 85.2442 12.7229 85.2442 12.7229L83.4638 14.6533Z" fill="#263238"/>
<path d="M108.233 3.29975C103.224 1.69544 97.5373 1.85196 92.9004 4.33669C90.4353 5.64101 88.2179 7.74096 87.5006 10.4409C86.7832 13.1408 87.9701 16.4342 90.5657 17.4581L90.7483 17.5625C94.6613 18.8211 97.1525 18.2668 101 16.9103C104.261 15.7429 107.104 13.6952 110.346 12.5474C113.819 11.3196 117.581 11.1606 121.145 12.0909C117.624 8.17138 113.248 4.91711 108.233 3.29975Z" fill="#263238"/>
<path d="M125.508 12.2922C125.43 12.3639 124.7 11.4901 123.226 10.4662C122.368 9.86723 121.442 9.37246 120.467 8.99229C119.298 8.51526 118.037 8.30366 116.776 8.37274C114.461 8.62766 112.266 9.53201 110.444 10.9814C109.035 12.0966 108.383 13.0292 108.298 12.9378C108.213 12.8465 108.396 12.6574 108.696 12.24C109.124 11.6483 109.616 11.1059 110.163 10.6227C111.998 9.00409 114.291 7.99666 116.724 7.74014C118.078 7.65844 119.433 7.89985 120.676 8.44447C121.681 8.86314 122.624 9.41598 123.48 10.0879C124.948 11.2748 125.561 12.2596 125.508 12.2922Z" fill="#455A64"/>
<path d="M126.415 15.514C126.339 16.4174 126.105 17.3005 125.724 18.1226C124.096 22.1974 121.098 25.5764 117.245 27.6768C116.478 28.1489 115.635 28.4864 114.754 28.6746C114.643 28.4985 118.569 27.005 121.863 23.2356C125.156 19.4661 126.252 15.4292 126.415 15.514Z" fill="#455A64"/>
<path d="M130.112 16.9951C130.183 17.3363 130.194 17.6871 130.145 18.0321C130.097 18.9722 129.966 19.9062 129.754 20.8233C129.058 23.8795 127.615 26.7156 125.556 29.0782C123.496 31.4408 120.883 33.2562 117.95 34.3621C117.069 34.6985 116.162 34.9581 115.237 35.1382C114.902 35.231 114.553 35.2663 114.206 35.2425C114.206 35.1382 115.635 34.8838 117.787 33.9382C120.593 32.7558 123.093 30.9479 125.095 28.6524C127.096 26.3569 128.547 23.6345 129.336 20.6929C129.949 18.4494 130.002 16.9951 130.112 16.9951Z" fill="#455A64"/>
<path d="M97.8307 2.48438C97.8307 2.5822 96.885 2.80393 95.4242 3.39088C91.593 4.9146 88.3344 7.59855 86.1049 11.0668C85.6921 11.8195 85.2416 12.5509 84.7549 13.258C84.9285 12.399 85.2626 11.5803 85.7396 10.8451C87.8428 7.14632 91.242 4.35818 95.2807 3.01915C96.0897 2.68283 96.9547 2.50143 97.8307 2.48438Z" fill="#455A64"/>
<path d="M132.963 3.61921C133.113 3.61921 132.715 6.22785 130.661 8.67997C128.606 11.1321 126.095 11.9408 126.095 11.8234C126.095 11.706 128.293 10.6038 130.211 8.28867C132.128 5.97351 132.774 3.56052 132.963 3.61921Z" fill="#455A64"/>
<path d="M36.4497 165.766L41.8365 162.466C42.749 161.906 43.7987 161.61 44.8691 161.611H55.3036L66.0773 171.394L69.2924 173.005L68.0924 189.961L61.0883 189.106C61.0883 189.106 46.1343 189.759 44.6865 188.78C43.2387 187.802 41.1452 184.763 41.1452 184.763C41.1452 184.763 32.9476 182.102 32.1454 181.385C29.0999 178.652 30.3259 178 30.3259 178L28.9238 177.348C28.6629 177.837 26.6217 174.511 26.8369 172.842C26.9608 171.87 26.6738 171.876 26.6738 171.876C26.0003 171.483 25.4208 170.946 24.9759 170.305C24.5309 169.665 24.2313 168.934 24.0978 168.166C23.9478 167.181 28.0108 167.892 28.0108 167.892L38.1388 168.022L36.4497 165.766Z" fill="#9B7564"/>
<path d="M45.4558 167.819L35.9278 154.848C35.582 154.377 35.1303 153.994 34.6091 153.73C34.088 153.466 33.512 153.328 32.9279 153.328H14.0805C13.7172 153.328 13.3689 153.472 13.1121 153.729C12.8552 153.986 12.7109 154.334 12.7109 154.698C12.714 155.025 12.8317 155.341 13.0435 155.591L23.8629 168.119L45.4558 167.819Z" fill="#455A64"/>
<path d="M40.8192 173.134C40.1259 173.32 39.411 173.415 38.6931 173.414C36.97 173.52 35.2414 173.498 33.5215 173.349C31.8065 173.199 30.1044 172.926 28.4281 172.534C27.7197 172.408 27.0311 172.189 26.3804 171.882C27.0926 171.931 27.7995 172.04 28.4934 172.208C29.7977 172.436 31.5781 172.71 33.5737 172.86C35.5693 173.01 37.3823 173.062 38.6931 173.062C39.4026 173.026 40.1138 173.05 40.8192 173.134Z" fill="#7F6358"/>
<path d="M43.5451 178.815C42.8515 179 42.1369 179.094 41.4191 179.096C39.6958 179.202 37.9671 179.178 36.2474 179.024C34.5252 178.88 32.8161 178.608 31.1345 178.209C30.4279 178.084 29.7413 177.865 29.0933 177.557C29.8055 177.606 30.5123 177.715 31.2063 177.883C32.5106 178.111 34.291 178.385 36.2866 178.535C38.2822 178.685 40.0952 178.744 41.406 178.744C42.1198 178.707 42.8354 178.731 43.5451 178.815Z" fill="#7F6358"/>
<path d="M24.0911 168.191C24.1689 168.594 24.2735 168.99 24.4041 169.378C24.8287 170.454 25.6574 171.32 26.7128 171.791L26.7845 171.83V171.902C26.7618 173.052 27.0145 174.19 27.5214 175.222C28.1539 176.477 29.1897 177.483 30.4627 178.078L30.6388 178.163L30.5605 178.326C30.4604 178.529 30.4084 178.752 30.4084 178.978C30.4084 179.204 30.4604 179.427 30.5605 179.63C30.78 180.071 31.0966 180.457 31.4866 180.758C32.346 181.426 33.2914 181.974 34.2974 182.389C36.5304 183.313 38.8417 184.036 41.2037 184.548H41.295L41.3407 184.626C41.9354 185.508 42.6363 186.314 43.4276 187.026C44.2019 187.787 45.1514 188.347 46.1927 188.656C46.9968 188.853 47.8241 188.938 48.6514 188.91L51.1296 188.976L55.9099 189.1L64.5184 189.341L74.7769 191.428L77.6268 192.041L78.3703 192.217C78.4582 192.231 78.5438 192.258 78.6246 192.295C78.5381 192.308 78.4502 192.308 78.3637 192.295L77.6072 192.171L74.7312 191.663L64.4402 189.706L55.8317 189.524L51.0579 189.413L48.6449 189.367C47.7803 189.393 46.9161 189.303 46.0754 189.1C44.9658 188.771 43.9537 188.175 43.1276 187.365C42.298 186.636 41.5639 185.806 40.9429 184.893L41.0798 184.991C38.6932 184.463 36.3597 183.719 34.1082 182.767C33.0668 182.337 32.0901 181.764 31.2061 181.065C30.7718 180.712 30.4219 180.266 30.1822 179.761C30.0691 179.508 30.0138 179.234 30.0206 178.957C30.0274 178.681 30.096 178.409 30.2214 178.163L30.3127 178.404C28.9668 177.758 27.8812 176.672 27.2345 175.326C26.7249 174.25 26.4854 173.066 26.5367 171.876L26.6084 171.987C26.0639 171.731 25.5765 171.369 25.1753 170.921C24.7741 170.472 24.4675 169.948 24.2737 169.378C24.1399 168.997 24.0779 168.595 24.0911 168.191Z" fill="#7F6358"/>
<path d="M46.6299 183.804C46.6821 183.915 45.4169 184.554 43.7017 184.782C41.9865 185.01 40.6039 184.73 40.6235 184.612C40.6431 184.495 41.9996 184.554 43.643 184.325C45.2864 184.097 46.5777 183.68 46.6299 183.804Z" fill="#7F6358"/>
<path d="M51.4686 167.8C51.4686 167.924 49.4013 168.106 46.8318 168.198C44.2623 168.289 42.1819 168.263 42.1819 168.139C42.1819 168.015 44.2492 167.832 46.8187 167.741C49.3882 167.65 51.4686 167.676 51.4686 167.8Z" fill="#7F6358"/>
<path d="M43.4278 168.1C43.4278 168.1 43.3299 168.015 43.1734 167.826L42.5213 166.985L40.0887 163.861L36.5149 159.205L34.4149 156.459C34.0391 156.007 33.5479 155.664 32.9932 155.468C32.7112 155.37 32.4172 155.311 32.1193 155.292C31.8259 155.292 31.4672 155.292 31.1802 155.292L18.137 155.246L14.1784 155.188L13.1024 155.155C12.977 155.173 12.8495 155.173 12.7241 155.155C12.8486 155.13 12.9755 155.119 13.1024 155.122L14.1784 155.09L18.137 155.038L31.1802 154.985C31.5063 154.985 31.8324 154.985 32.1454 154.985C32.4718 155.011 32.7938 155.077 33.1041 155.181C33.7116 155.398 34.2483 155.777 34.6562 156.277C35.3801 157.242 36.0845 158.168 36.7497 159.048L40.2778 163.731L42.6256 166.92C42.8799 167.272 43.0821 167.572 43.2778 167.794C43.3402 167.889 43.3906 167.992 43.4278 168.1Z" fill="#263238"/>
<path d="M22.9628 157.137C23.0425 157.075 23.1337 157.028 23.2312 157.001C23.3287 156.974 23.4306 156.966 23.5311 156.978C23.6317 156.99 23.7288 157.022 23.8171 157.072C23.9053 157.121 23.9829 157.188 24.0454 157.268C24.1079 157.347 24.1542 157.438 24.1814 157.536C24.2087 157.633 24.2165 157.735 24.2044 157.836C24.1923 157.936 24.1605 158.034 24.1108 158.122C24.0612 158.21 23.9946 158.288 23.915 158.35C23.7567 158.48 23.5534 158.541 23.3498 158.521C23.1461 158.501 22.9589 158.401 22.8291 158.243C22.6994 158.084 22.6379 157.881 22.6581 157.677C22.6782 157.474 22.7785 157.286 22.9367 157.157" fill="#F5F5F5"/>
<path d="M123.917 75.5977L150.447 91.1973L155.325 177.282L157.432 208H66.3184C66.3184 208 67.3683 166.711 67.6944 148.783C67.9292 136.222 67.5901 111.858 71.8421 96.8841C73.6551 90.4995 91.4069 82.2497 91.4069 82.2497C101.131 90.8256 112.002 88.2691 123.917 75.5977Z" fill="#D47600"/>
<path d="M61.7991 171.967H128.424L128.75 136.862L159.512 132.896C159.512 132.896 159.649 168.55 159.649 180.25C159.649 194.278 147.519 204.04 137.332 202.534C127.145 201.028 61.8186 188.839 61.8186 188.839L61.7991 171.967Z" fill="#9B7564"/>
<path d="M161.625 140.194L125.795 143.911V101.873C125.795 101.873 129.317 87.6688 141.695 88.2622C154.073 88.8557 161.371 102.251 161.625 114.525C161.879 126.798 161.625 140.194 161.625 140.194Z" fill="#D47600"/>
<path d="M30.1951 93.4101V86.204C30.1951 78.9714 24.1357 73.0879 16.6832 73.0879C9.23061 73.0879 3.17129 78.9699 3.17129 86.204V93.4101H0V115.7C13.3862 123.44 20.3516 123.555 33.3663 115.7V93.4101H30.1951ZM8.4999 86.204C8.4999 81.8235 12.1691 78.2605 16.6832 78.2605C21.1973 78.2605 24.8664 81.822 24.8664 86.204V93.4101H8.4999V86.204ZM20.1421 110.586H13.2227L15.0831 105.166C14.4795 104.878 13.9709 104.433 13.6142 103.879C13.2579 103.325 13.0677 102.686 13.0659 102.033C13.0659 101.103 13.4466 100.21 14.1247 99.5515C14.8028 98.8932 15.7226 98.5234 16.6817 98.5234C17.6408 98.5234 18.5602 98.8932 19.2383 99.5515C19.9164 100.21 20.2975 101.103 20.2975 102.033C20.2975 103.411 19.4722 104.59 18.2818 105.166L20.1421 110.586Z" fill="#CA005D"/>
</svg>
