<svg width="20" height="20" viewBox="0 0 20 20"  xmlns="http://www.w3.org/2000/svg">
<path fill-rule="evenodd" clip-rule="evenodd" d="M1.04163 9.99984C1.04163 5.05228 5.05241 1.0415 9.99996 1.0415C14.9475 1.0415 18.9583 5.05228 18.9583 9.99984C18.9583 14.9474 14.9475 18.9582 9.99996 18.9582C5.05241 18.9582 1.04163 14.9474 1.04163 9.99984ZM9.99996 2.2915C5.74276 2.2915 2.29163 5.74264 2.29163 9.99984C2.29163 14.257 5.74276 17.7082 9.99996 17.7082C14.2572 17.7082 17.7083 14.257 17.7083 9.99984C17.7083 5.74264 14.2572 2.2915 9.99996 2.2915Z"  stroke-linejoin="round"/>
<path fill-rule="evenodd" clip-rule="evenodd" d="M14.1667 8.9585C13.5914 8.9585 13.125 9.42487 13.125 10.0002C13.125 10.5755 13.5914 11.0418 14.1667 11.0418C14.742 11.0418 15.2084 10.5755 15.2084 10.0002C15.2084 9.42487 14.742 8.9585 14.1667 8.9585ZM10 8.9585C9.42475 8.9585 8.95837 9.42487 8.95837 10.0002C8.95837 10.5755 9.42475 11.0418 10 11.0418C10.5753 11.0418 11.0417 10.5755 11.0417 10.0002C11.0417 9.42487 10.5753 8.9585 10 8.9585ZM4.79171 10.0002C4.79171 9.42487 5.25808 8.9585 5.83337 8.9585C6.40867 8.9585 6.87504 9.42487 6.87504 10.0002C6.87504 10.5755 6.40867 11.0418 5.83337 11.0418C5.25808 11.0418 4.79171 10.5755 4.79171 10.0002Z" />
</svg>
