<svg width="82" height="72" viewBox="0 0 82 72" fill="none" xmlns="http://www.w3.org/2000/svg">
<path d="M78.5114 68.7838H3.86401V72H78.5114V68.7838Z" fill="#A2004A"/>
<mask id="path-2-inside-1_1441_2539" fill="white">
<path d="M6.72461 28.8H75.3775V69.12H6.72461V28.8Z"/>
</mask>
<path d="M6.72461 28.8H75.3775V69.12H6.72461V28.8Z" fill="#FFECEC"/>
<path d="M6.72461 28.8V27.8H5.72461V28.8H6.72461ZM75.3775 28.8H76.3775V27.8H75.3775V28.8ZM6.72461 29.8H75.3775V27.8H6.72461V29.8ZM74.3775 28.8V69.12H76.3775V28.8H74.3775ZM7.72461 69.12V28.8H5.72461V69.12H7.72461Z" fill="#A2004A" mask="url(#path-2-inside-1_1441_2539)"/>
<rect x="12.4457" y="36.9" width="16.2097" height="20.16" fill="#A2004A"/>
<rect x="13.3993" y="37.86" width="14.3027" height="19.2" fill="#F6F6F9"/>
<rect x="11.4922" y="57.06" width="18.1167" height="1.92" fill="#A2004A"/>
<rect x="53.4467" y="36.9" width="16.2097" height="20.16" fill="#A2004A"/>
<rect x="54.4" y="37.86" width="14.3027" height="19.2" fill="#F6F6F9"/>
<rect x="52.4932" y="57.06" width="18.1167" height="1.92" fill="#A2004A"/>
<rect x="31.5161" y="36.9" width="19.0702" height="34.2" fill="#A2004A"/>
<rect x="33.423" y="38.9118" width="15.2562" height="22.1294" fill="#F6F6F9"/>
<rect x="33.423" y="62.0471" width="15.2562" height="7.04118" fill="#F6F6F9"/>
<path d="M48.1393 49.9765H46.772V55.0186H48.1393V49.9765Z" fill="#A2004A"/>
<rect x="0.0500488" width="81.9" height="29.2036" rx="2" fill="#CA005D"/>
<path d="M48.8613 5.8241C48.63 5.86823 47.1296 5.58808 47.1296 5.58808C47.1296 5.58808 48.2478 6.16374 48.2764 6.32108C48.3051 6.47843 47.8349 7.44362 47.8349 7.44362C47.8349 7.44362 48.63 6.63002 48.8727 6.42662C49.0448 6.28079 49.385 6.28463 49.6373 6.32492C50.7786 6.49065 51.9428 6.28912 52.9629 5.74926C54.039 5.19279 54.0447 5.0815 54.0447 5.0815C54.0447 5.0815 53.2191 4.54422 51.8009 4.75337C50.2202 4.98364 49.0945 5.77613 48.8613 5.8241Z" fill="#91004B"/>
<path d="M21.4649 23.9592C21.1896 24.0341 19.6912 23.6867 19.6912 23.6867C19.6912 23.6867 20.8035 24.3718 20.8991 24.5061C20.9947 24.6404 20.6946 25.8493 20.6946 25.8493C20.6946 25.8493 21.3903 24.8899 21.6502 24.6001C21.8165 24.4274 22.2236 24.4677 22.4301 24.4984C23.8356 24.7288 25.2753 24.4005 26.4438 23.5831C27.646 22.7216 27.6269 22.5565 27.6269 22.5565C27.6269 22.5565 26.4992 21.789 24.7924 22.1229C23.0856 22.4568 21.7343 23.8786 21.4553 23.9554" fill="#A2004A"/>
<path d="M60.4804 5.47101C60.081 5.53049 58.0359 4.79173 58.0359 4.79173C58.0359 4.79173 59.4808 5.93345 59.5955 6.13493C59.7102 6.33641 59.0852 7.99431 59.0852 7.99431C59.0852 7.99431 60.2205 6.76816 60.6448 6.40358C60.9028 6.18291 61.4781 6.31147 61.7515 6.38822C62.0248 6.46498 64.7426 7.31887 67.537 5.77611C69.3584 4.7687 69.3604 4.53268 69.3604 4.53268C69.3604 4.53268 67.9078 3.26048 65.4575 3.4562C63.0072 3.65193 60.8703 5.40385 60.4881 5.46333" fill="#FFA100"/>
<path d="M12.2926 20.9543C11.895 21.0656 10.2876 20.4189 10.2876 20.4189C10.2876 20.4189 11.853 21.3438 11.9103 21.5069C11.9676 21.67 10.9317 23.1802 10.9317 23.1802C10.9317 23.1802 11.9657 22.2841 12.39 21.9368C12.7723 21.6297 13.6763 21.5165 14.2039 21.553C14.7314 21.5895 16.8491 21.8946 19.5402 20.0966C21.3005 18.9203 21.2833 18.7073 21.2833 18.7073C21.2833 18.7073 19.7294 17.7748 17.2849 18.3101C14.8403 18.8455 12.6882 20.8334 12.2926 20.9466" fill="#FFA100"/>
<path d="M29.5059 19.6073C29.2498 19.6341 28.3419 19.0546 28.3419 19.0546C28.3419 19.0546 29.1924 19.7972 29.2096 19.9028C29.2269 20.0083 28.4279 20.8142 28.4279 20.8142C28.4279 20.8142 29.158 20.3844 29.4562 20.2175C29.72 20.0735 30.2876 20.1081 30.603 20.1944C30.9184 20.2808 32.1798 20.701 34.0242 19.9047C35.2283 19.3847 35.2417 19.2542 35.2417 19.2542C35.2417 19.2542 34.3988 18.5077 32.8449 18.5615C31.2911 18.6152 29.7563 19.5842 29.504 19.6073" fill="#FFA100"/>
<path d="M21.6195 14.67C21.2129 14.8563 20.7706 14.9513 20.3236 14.9483C18.613 14.9483 17.1337 14.0387 17.1337 11.6996C17.1337 9.36055 18.6627 8.40112 20.3714 8.40112C20.7931 8.39956 21.213 8.45572 21.6195 8.56806V9.65605C21.2209 9.48683 20.7927 9.39878 20.3599 9.39701C19.1577 9.39701 18.2977 10.011 18.2977 11.6728C18.2977 13.3345 19.2361 13.937 20.3714 13.937C20.7998 13.9465 21.2253 13.8641 21.6195 13.6953V14.67Z" fill="white"/>
<path d="M26.0522 12.6284C26.0522 13.9927 25.2647 14.931 24.0529 14.931C22.8412 14.931 22.0652 13.985 22.0652 12.6284C22.0652 11.2717 22.8603 10.3257 24.0529 10.3257C25.2456 10.3257 26.0522 11.2353 26.0522 12.6284ZM23.1642 12.6284C23.1642 13.5648 23.5713 14.0291 24.0816 14.0291C24.5919 14.0291 24.9608 13.6032 24.9608 12.6284C24.9608 11.6977 24.5537 11.2334 24.0338 11.2334C23.514 11.2334 23.1642 11.6517 23.1642 12.6284Z" fill="white"/>
<path d="M32.4048 14.8082H31.388V12.0335C31.388 11.4579 31.1663 11.2429 30.6999 11.2429C30.4342 11.2429 30.0367 11.3542 30.0367 11.5672C30.0367 11.6708 30.0634 11.8013 30.0634 11.951V14.8082H29.0447V12.0335C29.0447 11.4579 28.8154 11.2429 28.4178 11.2429C28.0738 11.2429 27.7317 11.337 27.7317 11.6517V14.8082H26.7148V10.5483C27.6132 10.5483 27.8999 10.343 28.565 10.343C29.167 10.343 29.406 10.485 29.6277 10.6788C30.0226 10.4468 30.476 10.3348 30.9331 10.3564C31.8123 10.3564 32.4048 10.7575 32.4048 11.8915V14.8082Z" fill="white"/>
<path d="M33.1525 16.8441C33.1716 15.8693 33.1888 15.1824 33.1888 13.9658V10.4812C33.8195 10.4812 34.2151 10.3334 34.8363 10.3334C35.9563 10.3334 36.891 11.1413 36.891 12.6552C36.891 14.1136 35.8914 14.9118 34.9663 14.9118C34.6975 14.9319 34.4295 14.8646 34.2018 14.7199V16.8441H33.1525ZM34.7522 11.2046C34.4101 11.2046 34.1979 11.3543 34.1979 11.502V13.7317C34.1979 13.891 34.4388 14.0291 34.7522 14.0291C35.4002 14.0291 35.771 13.6032 35.771 12.6361C35.771 11.6689 35.4002 11.2046 34.7522 11.2046Z" fill="white"/>
<path d="M39.6526 11.9414V11.7725C39.6526 11.4214 39.4099 11.1969 38.9779 11.1969C38.5096 11.2 38.0477 11.3061 37.6247 11.5077V10.5483C38.0894 10.4067 38.5725 10.3349 39.0582 10.3353C40.0578 10.3353 40.6771 10.744 40.6771 11.7649C40.6771 12.4806 40.6522 13.1081 40.6522 13.7912C40.6522 14.1539 40.6694 14.5587 40.6962 14.7852C39.9565 14.7852 39.5589 14.9041 38.9301 14.9041C37.856 14.9041 37.3208 14.4033 37.3208 13.5609C37.3208 12.7185 38.0242 11.9913 39.6526 11.9452V11.9414ZM39.6526 12.7128C38.8078 12.7416 38.3758 13.0025 38.3758 13.4938C38.3758 13.8257 38.6339 14.0598 39.0314 14.0598C39.429 14.0598 39.5761 13.9581 39.6144 13.8257C39.6495 13.4559 39.6622 13.0842 39.6526 12.7128Z" fill="white"/>
<path d="M41.4685 14.8082V10.462H42.4242V10.8726C42.5467 10.6911 42.7143 10.5449 42.9104 10.4483C43.1065 10.3517 43.3243 10.3082 43.5423 10.3219C43.7003 10.3232 43.8581 10.3361 44.0144 10.3603V11.4387C43.7928 11.352 43.5564 11.3103 43.3186 11.3159C42.902 11.3159 42.5331 11.4828 42.514 11.8455C42.4968 12.5804 42.4968 13.7029 42.4968 14.8063L41.4685 14.8082Z" fill="white"/>
<path d="M45.4614 10.462H46.7095V11.3542H45.4614C45.4614 12.2734 45.4519 12.9047 45.4519 13.584C45.4519 13.9083 45.643 14.0387 45.987 14.0387C46.2383 14.0478 46.4875 13.9903 46.7095 13.8718V14.7698C46.3927 14.8841 46.058 14.94 45.7214 14.9348C44.9798 14.9348 44.4351 14.5933 44.4351 13.7835V9.67332L45.4614 9.0612V10.462Z" fill="white"/>
<path d="M49.5686 11.9414V11.7725C49.5686 11.4214 49.3297 11.1969 48.8939 11.1969C48.4263 11.2 47.965 11.3062 47.5426 11.5077V10.5483C48.0079 10.4062 48.4917 10.3345 48.978 10.3353C49.9757 10.3353 50.595 10.744 50.595 11.7649C50.595 12.4806 50.5682 13.1081 50.5682 13.7912C50.5656 14.1231 50.5816 14.455 50.616 14.7852C49.8744 14.7852 49.4692 14.9041 48.848 14.9041C47.7739 14.9041 47.2368 14.4033 47.2368 13.5609C47.2368 12.7185 47.9421 11.9913 49.5686 11.9452V11.9414ZM49.5686 12.7128C48.7276 12.7416 48.2919 13.0025 48.2919 13.4938C48.2919 13.8257 48.5518 14.0598 48.9493 14.0598C49.3469 14.0598 49.4941 13.9581 49.5227 13.8257C49.5589 13.4559 49.5716 13.0842 49.561 12.7128" fill="white"/>
<path d="M57.0798 14.8082H56.0611V12.0335C56.0611 11.4578 55.8394 11.2448 55.3769 11.2448C55.1074 11.2448 54.7098 11.3542 54.7098 11.5672C54.7194 11.6708 54.7385 11.8013 54.7385 11.951V14.8082H53.7198V12.0335C53.7198 11.4578 53.4885 11.2429 53.091 11.2429C52.7488 11.2429 52.4067 11.3369 52.4067 11.6516V14.8082H51.3899V10.5483C52.3016 10.5483 52.5825 10.3564 53.2572 10.3564C53.8574 10.3564 54.0982 10.4984 54.3218 10.6922C54.7118 10.4572 55.1612 10.3405 55.6158 10.3564C56.4931 10.3564 57.0875 10.7575 57.0875 11.8915L57.0798 14.8082Z" fill="white"/>
<path d="M61.7111 12.6265C61.7111 13.9927 60.9236 14.9291 59.7119 14.9291C58.5001 14.9291 57.7241 13.9831 57.7241 12.6265C57.7241 11.2698 58.5192 10.3334 59.7119 10.3334C60.9045 10.3334 61.7111 11.2449 61.7111 12.6265ZM58.8231 12.6265C58.8231 13.5648 59.2302 14.0291 59.7386 14.0291C60.247 14.0291 60.6178 13.6032 60.6178 12.6265C60.6178 11.6977 60.2107 11.2334 59.6928 11.2334C59.1748 11.2334 58.8231 11.6517 58.8231 12.6265Z" fill="white"/>
<path d="M63.827 10.3334C64.1646 10.3277 64.5013 10.371 64.8266 10.462V11.4214C64.5002 11.2764 64.1476 11.2 63.7907 11.1969C63.439 11.1969 63.2173 11.3466 63.2173 11.5711C63.2173 12.2388 65.0292 12.1736 65.0292 13.511C65.0292 14.2344 64.5112 14.931 63.309 14.931C62.9273 14.9378 62.5467 14.888 62.1794 14.7832V13.8814C62.5233 13.9944 62.8823 14.0539 63.244 14.0579C63.7352 14.0579 63.9856 13.866 63.9856 13.5839C63.9856 12.849 62.1622 12.9603 62.1622 11.6881C62.1622 10.8534 62.791 10.3334 63.827 10.3334Z" fill="white"/>
<path d="M38.7908 22.6026V17.6347H41.3596V18.2334C40.9181 18.2027 40.3313 18.195 39.5687 18.195C39.5018 18.195 39.4655 18.2391 39.4655 18.314C39.4655 18.6095 39.4502 19.1391 39.4502 19.7358H41.1455V20.3115H39.4502V22.5969L38.7908 22.6026Z" fill="white"/>
<path d="M42.6995 18.1585C42.7024 18.2118 42.6943 18.2651 42.6756 18.3151C42.6568 18.365 42.6279 18.4105 42.5907 18.4486C42.5535 18.4867 42.5087 18.5166 42.4593 18.5364C42.4099 18.5561 42.357 18.5653 42.3038 18.5634C42.1989 18.5634 42.0983 18.5215 42.0241 18.4471C41.9499 18.3726 41.9082 18.2715 41.9082 18.1662C41.9082 18.0608 41.9499 17.9598 42.0241 17.8853C42.0983 17.8108 42.1989 17.769 42.3038 17.769C42.3552 17.7672 42.4063 17.7758 42.4542 17.7942C42.5022 17.8127 42.5459 17.8407 42.5828 17.8765C42.6198 17.9123 42.6491 17.9553 42.6692 18.0027C42.6892 18.0502 42.6995 18.1012 42.6995 18.1528V18.1585ZM42.6479 19.1851C42.6269 20.2155 42.6192 21.5338 42.6192 22.5968H41.9942V19.1832L42.6479 19.1851Z" fill="white"/>
<path d="M43.8484 20.0141V22.6026H43.2234V19.2715C43.9363 19.2715 44.0319 19.0949 44.7066 19.0949C45.3373 19.0949 45.8954 19.4039 45.8954 20.2731V22.6026H45.2704V20.3844C45.2704 19.8529 45.0219 19.6629 44.5441 19.6629C44.1198 19.6629 43.8484 19.8318 43.8484 20.0141Z" fill="white"/>
<path d="M48.3187 20.3767V20.2002C48.3187 19.8318 48.0913 19.6245 47.667 19.6245C47.3211 19.6261 46.9798 19.704 46.6673 19.8529V19.2772C47.0053 19.1499 47.3633 19.0849 47.7243 19.0853C48.4888 19.0853 48.9437 19.3943 48.9437 20.1753C48.9437 20.7663 48.9208 21.2959 48.9208 21.8485C48.9208 22.144 48.9361 22.3858 48.9513 22.5777C48.4143 22.5777 48.0779 22.6736 47.6364 22.6736C46.8374 22.6736 46.4265 22.2611 46.4265 21.6336C46.4265 20.9562 46.9846 20.4036 48.3187 20.3748V20.3767ZM48.3187 20.8622C47.4682 20.8756 47.1012 21.1117 47.1012 21.5914C47.1004 21.6693 47.1162 21.7465 47.1474 21.8179C47.1786 21.8893 47.2245 21.9533 47.2821 22.0055C47.3398 22.0577 47.4078 22.0971 47.4817 22.121C47.5556 22.1448 47.6337 22.1527 47.7109 22.144C48.0932 22.144 48.2537 22.0481 48.2843 21.8926C48.3195 21.5504 48.3317 21.2061 48.3206 20.8622" fill="white"/>
<path d="M50.1783 20.0141V22.6026H49.5552V19.2715C50.2662 19.2715 50.3617 19.0949 51.0383 19.0949C51.6691 19.0949 52.2253 19.4039 52.2253 20.2731V22.6026H51.6022V20.3844C51.6022 19.8529 51.3537 19.6629 50.8759 19.6629C50.4497 19.6629 50.1783 19.8318 50.1783 20.0141Z" fill="white"/>
<path d="M54.4844 22.1459C54.6692 22.1451 54.8535 22.1272 55.0349 22.0922V22.6371C54.8467 22.6797 54.6544 22.7015 54.4615 22.7024C53.4275 22.7024 52.7413 22.0999 52.7413 20.891C52.7413 19.7934 53.351 19.0853 54.4615 19.0853C54.6537 19.0865 54.8455 19.1038 55.0349 19.1371V19.7339C54.8493 19.6764 54.6557 19.6492 54.4615 19.6533C53.8384 19.6533 53.4485 20.0064 53.4485 20.8987C53.4485 21.7909 53.8308 22.144 54.4825 22.144" fill="white"/>
<path d="M56.3476 18.1585C56.3506 18.212 56.3424 18.2655 56.3236 18.3156C56.3047 18.3657 56.2756 18.4112 56.2382 18.4494C56.2008 18.4875 56.1558 18.5173 56.1062 18.537C56.0565 18.5566 56.0034 18.5656 55.9501 18.5634C55.8452 18.5634 55.7445 18.5215 55.6703 18.447C55.5961 18.3726 55.5544 18.2715 55.5544 18.1662C55.5544 18.0608 55.5961 17.9598 55.6703 17.8853C55.7445 17.8108 55.8452 17.769 55.9501 17.769C56.0016 17.7669 56.0529 17.7753 56.1011 17.7937C56.1492 17.812 56.1932 17.84 56.2303 17.8758C56.2675 17.9117 56.297 17.9547 56.3171 18.0023C56.3373 18.0498 56.3477 18.101 56.3476 18.1527V18.1585ZM56.296 19.1832C56.2731 20.2136 56.2655 21.5319 56.2655 22.5949H55.6424V19.1832H56.296Z" fill="white"/>
<path d="M57.4299 20.8641C57.4271 20.9127 57.4271 20.9614 57.4299 21.01C57.4299 21.7775 57.8695 22.1613 58.5231 22.1613C58.7848 22.1677 59.045 22.12 59.2876 22.0212V22.5738C59.0303 22.6604 58.7601 22.7026 58.4887 22.6986C57.4681 22.6986 56.7571 22.1325 56.7571 20.8584C56.7571 19.7819 57.4318 19.0815 58.3568 19.0815C59.2284 19.0815 59.5896 19.6783 59.5896 20.4516C59.5888 20.5877 59.5792 20.7235 59.561 20.8584L57.4299 20.8641ZM58.7525 20.346C58.8767 20.346 58.9226 20.2885 58.9226 20.1695C58.9226 19.8529 58.7219 19.6322 58.311 19.6322C58.1098 19.6261 57.9137 19.6961 57.7614 19.8283C57.6092 19.9605 57.512 20.1453 57.4891 20.346H58.7525Z" fill="white"/>
<path d="M60.1379 22.6026V19.1832H60.74V19.5286C60.8389 19.3813 60.9738 19.262 61.1317 19.1821C61.2897 19.1021 61.4654 19.0642 61.6421 19.0719C61.7655 19.0697 61.8886 19.0819 62.0091 19.1084V19.78C61.8479 19.7281 61.6795 19.7029 61.5103 19.7051C61.1146 19.7051 60.7916 19.8529 60.7763 20.1925C60.7629 20.7893 60.7629 21.6873 60.7629 22.5949L60.1379 22.6026Z" fill="white"/>
<path d="M64.1215 20.3767V20.2002C64.1215 19.8318 63.8941 19.6245 63.4679 19.6245C63.1226 19.6261 62.782 19.7041 62.4702 19.8529V19.2772C62.8081 19.1499 63.1662 19.0849 63.5271 19.0853C64.2916 19.0853 64.7465 19.3943 64.7465 20.1753C64.7465 20.7663 64.7236 21.2959 64.7236 21.8485C64.7236 22.144 64.7389 22.3858 64.7523 22.5777C64.2171 22.5777 63.8788 22.6736 63.4392 22.6736C62.6403 22.6736 62.2274 22.2611 62.2274 21.6336C62.2274 20.9562 62.7855 20.4036 64.1215 20.3748V20.3767ZM64.1215 20.8622C63.271 20.8756 62.904 21.1117 62.904 21.5914C62.9033 21.6691 62.919 21.7462 62.9501 21.8174C62.9811 21.8887 63.0269 21.9525 63.0843 22.0047C63.1417 22.0569 63.2095 22.0963 63.2832 22.1203C63.3569 22.1443 63.4348 22.1524 63.5118 22.144C63.8941 22.144 64.0546 22.0481 64.0852 21.8926C64.1194 21.5503 64.1316 21.2061 64.1215 20.8622Z" fill="white"/>
<path d="M66.8281 22.6122C66.6588 22.6126 66.4933 22.5625 66.3525 22.4683C66.2117 22.3741 66.1019 22.2401 66.037 22.0832C65.9722 21.9262 65.9552 21.7535 65.9883 21.5869C66.0213 21.4203 66.1029 21.2673 66.2227 21.1473C66.3425 21.0273 66.4951 20.9457 66.6611 20.9129C66.8272 20.8801 66.9992 20.8975 67.1553 20.963C67.3115 21.0284 67.4447 21.139 67.5382 21.2806C67.6317 21.4222 67.6813 21.5884 67.6805 21.7583C67.6834 21.8714 67.6633 21.9839 67.6215 22.089C67.5796 22.194 67.5169 22.2894 67.4372 22.3693C67.3574 22.4492 67.2622 22.5119 67.1575 22.5537C67.0528 22.5955 66.9407 22.6154 66.8281 22.6122ZM66.8281 21.0445C66.6867 21.0384 66.5467 21.0749 66.4261 21.1493C66.3056 21.2237 66.2099 21.3326 66.1515 21.462C66.0932 21.5915 66.0747 21.7355 66.0985 21.8755C66.1223 22.0156 66.1873 22.1453 66.2852 22.2479C66.383 22.3506 66.5092 22.4215 66.6475 22.4515C66.7858 22.4816 66.9299 22.4694 67.0613 22.4165C67.1927 22.3637 67.3053 22.2726 67.3846 22.1549C67.464 22.0373 67.5064 21.8985 67.5066 21.7564C67.5118 21.6641 67.4981 21.5718 67.4663 21.485C67.4344 21.3983 67.3852 21.3191 67.3215 21.2523C67.2579 21.1856 67.1812 21.1326 67.0963 21.0969C67.0114 21.0611 66.9201 21.0433 66.8281 21.0445ZM66.6121 22.3052H66.4458V21.1769C66.5681 21.1769 66.6369 21.1616 66.7707 21.1616C66.9867 21.1616 67.153 21.2709 67.153 21.4763C67.1534 21.5397 67.1341 21.6017 67.0978 21.6536C67.0615 21.7056 67.01 21.7449 66.9504 21.766C66.9464 21.7693 66.9431 21.7734 66.9408 21.778C66.9385 21.7826 66.9372 21.7877 66.937 21.7929C66.9375 21.805 66.9408 21.8168 66.9466 21.8274L67.2485 22.3052H67.0765L66.8281 21.9214C66.7784 21.8485 66.7535 21.8293 66.7 21.8293H66.5968L66.6121 22.3052ZM66.721 21.695C66.9122 21.695 66.9924 21.6221 66.9924 21.4801C66.9924 21.3381 66.8969 21.3036 66.7573 21.3036C66.6675 21.3036 66.6235 21.3266 66.6197 21.3496C66.6197 21.4763 66.6197 21.5971 66.6197 21.695H66.721Z" fill="white"/>
</svg>
