<svg width="11" height="20" viewBox="0 0 11 20" fill="none" xmlns="http://www.w3.org/2000/svg">
<path d="M10.139 2.18945C10.6477 1.68544 10.6094 0.890734 10.1351 0.368747C9.66935 -0.139956 8.79727 -0.105574 8.32294 0.368747L8.26746 0.424227C7.16485 1.50571 6.08335 2.60829 4.98934 3.70228L1.05326 7.63828C0.933704 7.75783 0.809457 7.87739 0.689897 8.00164C-0.0407428 8.74086 -0.199374 9.80515 0.253857 10.7327C0.48438 11.207 0.980589 11.6087 1.35177 11.9806L5.53556 16.1643L8.32215 18.9509C8.82618 19.4596 9.6209 19.4213 10.1343 18.9509C10.643 18.4851 10.6086 17.6131 10.1343 17.1388L9.15985 16.1643L4.95887 11.9634L3.15532 10.1599L2.62941 9.63402L2.47547 9.48008C2.46297 9.46758 2.44968 9.4457 2.43249 9.43319C2.62473 9.58244 2.58175 9.65121 2.50907 9.51837C2.48329 9.47539 2.46609 9.43319 2.445 9.38553C2.48797 9.48789 2.53017 9.59026 2.57315 9.69341C2.54736 9.62073 2.52626 9.54415 2.51298 9.46679C2.53017 9.58244 2.54267 9.69341 2.55987 9.80906C2.54736 9.7106 2.54736 9.61683 2.55987 9.51837C2.54267 9.63402 2.53017 9.74498 2.51298 9.86063C2.52548 9.78405 2.54736 9.71138 2.57315 9.63402C2.53017 9.73638 2.48797 9.83875 2.445 9.9419C2.47078 9.87782 2.50517 9.82234 2.53877 9.75826C2.61144 9.62542 2.30825 10.006 2.47469 9.85203L2.4786 9.84813L2.51298 9.81374L2.67943 9.6473L3.3288 8.99794L7.4829 4.84393C8.36748 3.95936 9.25206 3.0748 10.1366 2.19023L10.139 2.18945Z" fill="#97A3B6"/>
</svg>
