<svg width="35" height="35" viewBox="0 0 35 35"  xmlns="http://www.w3.org/2000/svg">
<path d="M34.6196 15.632H6.79652L23.4495 0.688202C23.7158 0.447331 23.5541 0 23.2022 0H18.9938C18.8083 0 18.6324 0.0688199 18.4945 0.191713L0.524331 16.3104C0.359745 16.4579 0.227748 16.6402 0.137283 16.845C0.0468188 17.0498 0 17.2724 0 17.4975C0 17.7227 0.0468188 17.9452 0.137283 18.1501C0.227748 18.3549 0.359745 18.5372 0.524331 18.6847L18.5991 34.9017C18.6704 34.9656 18.756 35 18.8464 35H23.1974C23.5493 35 23.711 34.5478 23.4447 34.3118L6.79652 19.368H34.6196C34.8288 19.368 35 19.191 35 18.9747V16.0253C35 15.809 34.8288 15.632 34.6196 15.632Z" />
</svg>
