<svg width="32" height="32" viewBox="0 0 32 32"  xmlns="http://www.w3.org/2000/svg">
<path d="M16 0C7.16385 0 0 7.16385 0 16C0 24.8362 7.16385 32 16 32C24.8362 32 32 24.8362 32 16C32 7.16385 24.8362 0 16 0ZM18.7162 22.5146C18.8353 22.6278 18.9305 22.7636 18.9963 22.9142C19.062 23.0647 19.097 23.2269 19.0991 23.3911C19.1012 23.5554 19.0704 23.7184 19.0085 23.8706C18.9466 24.0228 18.8549 24.161 18.7387 24.2772C18.6226 24.3933 18.4843 24.4851 18.3321 24.547C18.18 24.6089 18.0169 24.6397 17.8527 24.6376C17.6884 24.6355 17.5262 24.6005 17.3757 24.5347C17.2252 24.469 17.0893 24.3737 16.9762 24.2546L9.59154 16.87C9.3609 16.6392 9.23134 16.3263 9.23134 16C9.23134 15.6737 9.3609 15.3608 9.59154 15.13L16.9762 7.74539C17.2088 7.52431 17.5187 7.40289 17.8396 7.407C18.1606 7.41111 18.4672 7.54043 18.6942 7.76738C18.9211 7.99434 19.0504 8.30097 19.0545 8.62191C19.0587 8.94285 18.9372 9.25269 18.7162 9.48538L12.2023 16L18.7162 22.5146Z" />
</svg>
