<svg width="18" height="16" viewBox="0 0 18 16" fill="none" xmlns="http://www.w3.org/2000/svg">
<path d="M17.4776 7.32641C17.5168 7.14156 17.4561 6.94961 17.317 6.82163L16.2784 5.86541L17.1242 5.58458C17.3027 5.52415 17.4383 5.37485 17.4776 5.19C17.5168 5.00516 17.4561 4.8132 17.317 4.68523L12.3919 0.142258C12.2491 0.0107319 12.0386 -0.0354799 11.853 0.0285056L0.361187 4.01338C0.18988 4.07381 0.0614004 4.216 0.0150049 4.39374C-0.0278217 4.57148 0.0221426 4.75632 0.150622 4.88785L1.11422 5.88673L0.361187 6.14623C0.18988 6.20666 0.0614004 6.34885 0.0185738 6.52659C-0.0242528 6.70433 0.0257115 6.88917 0.154191 7.0207L1.11779 8.01959L0.364756 8.27908C0.193449 8.33951 0.0649693 8.4817 0.0221427 8.65944C-0.020684 8.83718 0.0292804 9.02203 0.15776 9.15355L1.12136 10.1524L0.368324 10.4119C0.197018 10.4724 0.0685382 10.6146 0.0257115 10.7923C-0.0171151 10.97 0.0328493 11.1549 0.161329 11.2864L4.54035 15.8365C4.64028 15.9396 4.78303 16 4.92579 16C4.98289 16 5.03999 15.9893 5.09353 15.9716L13.0414 13.341C13.07 13.3339 13.0985 13.3268 13.1199 13.3126L17.1314 11.9867C17.3098 11.9263 17.4454 11.777 17.4883 11.5921C17.5275 11.4073 17.4668 11.2153 17.3277 11.0873L16.2891 10.1311L17.1349 9.85384C17.3134 9.79341 17.449 9.64411 17.4883 9.45926C17.5275 9.27441 17.4668 9.08246 17.3277 8.95448L16.2891 7.99826L17.1349 7.72099C17.3134 7.66056 17.449 7.51126 17.4883 7.32641H17.4776ZM11.9244 7.30864L11.9565 7.71032C11.9815 8.04091 12.0065 8.37506 12.0314 8.71276C12.06 9.06824 12.0885 9.42727 12.1135 9.7863L12.3205 12.4524L10.2934 13.1242L10.247 12.5839C10.222 12.2995 10.2006 12.0116 10.1756 11.7272C10.1471 11.3788 10.1149 11.034 10.0864 10.6714C10.0578 10.3337 10.0293 9.99247 10.0007 9.65477L9.86156 7.99826L11.9244 7.31574V7.30864ZM15.9287 4.85941L12.5632 5.97205C11.4176 4.68167 10.2755 3.3913 9.12994 2.10093L11.8994 1.14114L15.9251 4.85941H15.9287ZM1.92436 10.9985L4.52608 13.7001C4.5689 13.7427 4.61887 13.7783 4.68311 13.8103C4.69738 13.8174 4.71166 13.8245 4.7295 13.828C4.77947 13.8458 4.833 13.8565 4.87939 13.86H4.92222H4.94363C4.98289 13.86 5.03286 13.8494 5.08282 13.8352L9.16562 12.4844L9.24771 13.4655L5.06498 14.8483L1.49966 11.1442L1.92436 10.9949V10.9985ZM1.92436 8.86562L4.52608 11.5672C4.5689 11.6099 4.61887 11.6454 4.68311 11.6774C4.69738 11.6845 4.71523 11.6916 4.7295 11.6952C4.77947 11.713 4.833 11.7236 4.87939 11.7272H4.91151H4.94363C4.98289 11.7272 5.03286 11.7201 5.08282 11.7023L8.99075 10.4119L9.07283 11.393L5.06498 12.7154L1.49966 9.01136L1.92436 8.86206V8.86562ZM1.92436 6.73277L4.52608 9.43438C4.5689 9.47703 4.61887 9.51258 4.68311 9.54457C4.69738 9.55168 4.71523 9.55879 4.7295 9.56235C4.77947 9.58012 4.833 9.59078 4.87939 9.59434H4.91151H4.94363C4.98289 9.59434 5.03286 9.58723 5.08282 9.56946L8.81587 8.33596L8.89796 9.31707L5.06498 10.5826L1.49966 6.87851L1.92436 6.72921V6.73277ZM5.06498 8.45327L1.49966 4.74566L5.25056 3.44462L8.39118 7.35129L5.06498 8.44971V8.45327ZM11.4568 6.33819L9.47612 6.99582L6.32479 3.07848L8.04143 2.48484C9.1799 3.77166 10.3184 5.05492 11.4604 6.34174L11.4568 6.33819ZM15.1185 6.25287L15.9251 6.99582L13.045 7.94849L12.9701 6.96738L15.1185 6.25643V6.25287ZM15.1185 8.38573L15.9251 9.12867L13.2056 10.028L13.1307 9.04335L15.1221 8.38928L15.1185 8.38573ZM15.1185 10.5186L15.9215 11.258L13.3662 12.104L13.2877 11.1264L15.1185 10.5221V10.5186Z" fill="#CA005D"/>
</svg>
