<svg width="80" height="80" viewBox="0 0 80 80" fill="none" xmlns="http://www.w3.org/2000/svg">
<path d="M69.253 29.291H5.08423V61.2076H69.253V29.291ZM67.298 55.2169C66.7277 54.6614 65.949 54.3192 65.0903 54.3192C63.3406 54.3192 61.9215 55.7383 61.9215 57.4881C61.9215 58.1414 62.1203 58.7491 62.4591 59.2542H11.2215C11.5604 58.7491 11.7592 58.143 11.7592 57.4881C11.7592 55.7383 10.3401 54.3192 8.59033 54.3192C8.02662 54.3192 7.49712 54.4691 7.0393 54.7265V35.9709C7.49875 36.2299 8.02662 36.3782 8.59033 36.3782C10.3401 36.3782 11.7592 34.9591 11.7592 33.2093C11.7592 32.4664 11.5018 31.7854 11.0749 31.2461H62.6058C62.1789 31.7854 61.9215 32.4664 61.9215 33.2093C61.9215 34.9591 63.3406 36.3782 65.0903 36.3782C65.949 36.3782 66.7277 36.0344 67.298 35.4805V55.2169Z" fill="#E3E8EF"/>
<path d="M37.0791 33.4443C30.3748 33.4443 24.9397 38.8794 24.9397 45.5837C24.9397 52.288 30.3748 57.7231 37.0791 57.7231C43.7834 57.7231 49.2185 52.288 49.2185 45.5837C49.2185 38.8794 43.7834 33.4443 37.0791 33.4443ZM39.1417 49.5541C38.7409 50.1651 38.1821 50.6278 37.4636 50.9439C36.7451 51.26 35.8392 51.418 34.746 51.418C32.8268 51.418 31.4973 51.0482 30.7593 50.3101C30.0196 49.5704 29.6025 48.632 29.5048 47.4932L32.8219 47.2846C32.8936 47.8239 33.0402 48.2345 33.2602 48.5163C33.6186 48.9725 34.1318 49.2006 34.7998 49.2006C35.2967 49.2006 35.6812 49.0833 35.95 48.8503C36.2188 48.6173 36.3541 48.3469 36.3541 48.039C36.3541 47.731 36.2254 47.485 35.9696 47.2537C35.7138 47.0223 35.1175 46.804 34.1839 46.5987C32.6541 46.255 31.5641 45.7988 30.9124 45.2285C30.2559 44.6583 29.9268 43.9333 29.9268 43.0503C29.9268 42.4703 30.0946 41.9228 30.4302 41.4064C30.7658 40.8899 31.2725 40.4859 31.947 40.191C32.6215 39.8961 33.5469 39.7478 34.7216 39.7478C36.1635 39.7478 37.2632 40.0166 38.0191 40.5527C38.7767 41.0887 39.2264 41.9424 39.3698 43.1122L36.0836 43.3044C35.9956 42.7961 35.8132 42.4263 35.5329 42.1966C35.2527 41.9668 34.8666 41.8495 34.3746 41.8495C33.9689 41.8495 33.6642 41.9359 33.4589 42.1069C33.2536 42.2796 33.151 42.4882 33.151 42.7342C33.151 42.9134 33.2357 43.0747 33.4052 43.2197C33.5697 43.368 33.9591 43.5065 34.575 43.6352C36.0983 43.9643 37.1915 44.2966 37.8497 44.6323C38.5079 44.9679 38.9885 45.385 39.2883 45.8835C39.5881 46.382 39.738 46.9376 39.738 47.5535C39.738 48.2768 39.5376 48.9448 39.1368 49.5541H39.1417ZM41.6556 51.7569H39.9791L42.9622 39.4073H44.655L41.6556 51.7569Z" fill="#E3E8EF"/>
<path d="M72.2704 24.367L66.8988 24.4272L65.7909 16.8057C65.716 16.2892 65.4439 15.8331 65.0252 15.5202C64.6065 15.2074 64.0916 15.0771 63.5752 15.152L61.5745 15.4437L59.5624 9.0131C59.4109 8.52922 59.0801 8.13332 58.6305 7.89708C58.1808 7.66247 57.666 7.61522 57.1951 7.76348L5.77829 23.2037C4.85615 23.4122 4.03827 23.6436 3.42568 23.8309C3.28883 23.8733 3.16012 23.9124 3.03793 23.9499L1.67263 24.1486C1.15617 24.2236 0.699984 24.4957 0.387172 24.9144C0.32689 24.9958 0.274755 25.0806 0.229137 25.1669H0.165597L0.139529 25.3592C0.0173368 25.6638 -0.0266523 25.9929 0.0157076 26.3253C0.0140784 26.3579 0.0124492 26.3888 0.0124492 26.4214V64.0745C0.0124492 65.2068 0.934593 66.129 2.06691 66.129H72.2687C73.401 66.129 74.3232 65.2068 74.3232 64.0745V26.4214C74.3232 25.2891 73.401 24.367 72.2687 24.367H72.2704ZM57.4981 10.0525L59.2887 15.7744L35.1908 19.2772C34.3761 19.3554 27.3835 20.2499 20.6157 21.128L57.4981 10.0525ZM63.5817 17.4558L64.5869 24.367H16.0294L63.5817 17.4558ZM72.0439 63.8481H2.29337V27.425L72.0439 26.6495V63.8481Z" fill="#E3E8EF"/>
<path d="M78.6489 11.9572L75.8075 10.4029L74.2532 7.5615C74.0398 7.17049 73.6309 6.92773 73.1845 6.92773C72.7397 6.92773 72.3308 7.17049 72.1173 7.5615L70.563 10.4029L67.7217 11.9572C67.3306 12.1706 67.0879 12.5795 67.0879 13.0259C67.0879 13.4723 67.3306 13.8797 67.7217 14.0947L70.563 15.649L72.1173 18.4904C72.3308 18.8814 72.7397 19.1241 73.1845 19.1241C73.6292 19.1241 74.0382 18.8814 74.2532 18.4904L75.8075 15.649L78.6489 14.0947C79.0399 13.8813 79.2827 13.4723 79.2827 13.0259C79.2827 12.5795 79.0399 12.1706 78.6489 11.9572ZM74.6801 14.0361C74.4748 14.1485 74.307 14.3163 74.1962 14.5199L73.1861 16.3675L72.1743 14.5183C72.0619 14.3147 71.8957 14.1468 71.6905 14.0344L69.8429 13.0243L71.6905 12.0142C71.8941 11.9018 72.0619 11.7356 72.1743 11.5303L73.1845 9.68276L74.1946 11.5287C74.307 11.734 74.4732 11.9018 74.6801 12.0142L76.5276 13.0243L74.6801 14.0344V14.0361Z" fill="#E3E8EF"/>
<path d="M1.69056 10.1371L6.03734 12.5141L8.41438 16.8609C8.67832 17.3431 9.18175 17.6413 9.7308 17.6413C10.2799 17.6413 10.7833 17.3415 11.0472 16.8609L13.4243 12.5157L17.771 10.1387C18.2533 9.87475 18.5514 9.37132 18.5514 8.82227C18.5514 8.27322 18.2517 7.76816 17.771 7.50586L13.4243 5.12881L11.0472 0.783659C10.7849 0.299778 10.2799 0 9.7308 0C9.18175 0 8.67832 0.299778 8.41438 0.780401L6.03734 5.12555L1.69056 7.5026C1.20831 7.76653 0.910156 8.26996 0.910156 8.81901C0.910156 9.36806 1.20993 9.8715 1.69056 10.1354V10.1371ZM7.33095 7.01872C7.58348 6.88023 7.78876 6.67495 7.92887 6.42242L9.7308 3.12812L11.5327 6.42405C11.6712 6.67658 11.8781 6.88186 12.129 7.02035L15.4233 8.82227L12.129 10.6242C11.8765 10.7627 11.6712 10.968 11.5311 11.2205L9.72917 14.5148L7.92724 11.2189C7.78876 10.9663 7.58185 10.7611 7.33095 10.6226L4.03665 8.82064L7.33095 7.01872Z" fill="#E3E8EF"/>
<path d="M42.7504 72.7063L39.8357 71.1113L38.2407 68.1966C38.0256 67.804 37.615 67.5596 37.167 67.5596C36.719 67.5596 36.3084 67.804 36.0933 68.1966L34.4983 71.1113L31.5836 72.7063C31.191 72.9214 30.9482 73.3319 30.9482 73.78C30.9482 74.228 31.1926 74.6386 31.5853 74.8536L34.5 76.4486L36.0933 79.3633C36.3084 79.756 36.719 80.0004 37.167 80.0004C37.615 80.0004 38.0256 79.756 38.2407 79.3633L39.8357 76.4486L42.7504 74.8553C43.143 74.6402 43.3874 74.2296 43.3874 73.7816C43.3874 73.3336 43.143 72.923 42.7504 72.7079V72.7063ZM38.7083 74.8357C38.503 74.9481 38.3352 75.1159 38.2227 75.3212L37.167 77.2502L36.1129 75.3228C36.0005 75.1176 35.8327 74.9481 35.6258 74.8357L33.6968 73.78L35.6241 72.7259C35.831 72.6134 36.0005 72.444 36.1113 72.2387L37.167 70.3097L38.2211 72.2387C38.3335 72.4456 38.503 72.6134 38.7083 72.7259L40.6373 73.7816L38.7066 74.8373L38.7083 74.8357Z" fill="#E3E8EF"/>
</svg>
