<svg width="15" height="22" viewBox="0 0 15 22" fill="none" xmlns="http://www.w3.org/2000/svg">
<path d="M13.4941 16.886H2.47266V3.15119H13.4941V16.886ZM9.99414 19.8292H5.99414V18.8482H9.99414V19.8292ZM11.9941 0.208008H3.99414C3.19849 0.208008 2.43543 0.518092 1.87282 1.07005C1.31021 1.622 0.994141 2.37061 0.994141 3.15119V18.8482C0.994141 19.6287 1.31021 20.3773 1.87282 20.9293C2.43543 21.4813 3.19849 21.7913 3.99414 21.7913H11.9941C12.7898 21.7913 13.5529 21.4813 14.1155 20.9293C14.6781 20.3773 14.9941 19.6287 14.9941 18.8482V3.15119C14.9941 2.37061 14.6781 1.622 14.1155 1.07005C13.5529 0.518092 12.7898 0.208008 11.9941 0.208008Z" fill="#665F59"/>
<path d="M10.9941 11.53C10.9941 12.593 10.1084 13.208 8.68456 13.208C7.54439 13.208 6.94389 13.1935 5.99414 13.089V7.30034C6.64205 7.23624 7.77986 7.20801 8.56762 7.20801C9.94642 7.20801 10.7524 7.78718 10.7524 8.7723C10.7524 9.43845 10.3486 9.98252 9.69594 10.1641C10.4924 10.3373 10.9941 10.8814 10.9941 11.53ZM7.45985 8.40068V9.6979H8.52496C9.03539 9.6979 9.37515 9.43006 9.37515 9.01495C9.37515 8.59145 9.06225 8.40145 8.4175 8.40145L7.45985 8.40068ZM9.5553 11.3225C9.5553 10.9425 9.20606 10.7265 8.67824 10.7265H7.46064V11.9886C7.8723 11.997 8.27527 12.0146 8.53444 12.0146C9.18788 12.0146 9.5553 11.7811 9.5553 11.3225Z" fill="#665F59"/>
</svg>
