<svg width="14" height="22" viewBox="0 0 14 22" fill="none" xmlns="http://www.w3.org/2000/svg">
<path d="M12.5 16.678H1.47852V2.94318H12.5V16.678ZM9 19.6212H5V18.6402H9V19.6212ZM11 0H3C2.20435 0 1.44129 0.310084 0.87868 0.862038C0.316071 1.41399 0 2.1626 0 2.94318V18.6402C0 19.4207 0.316071 20.1693 0.87868 20.7213C1.44129 21.2732 2.20435 21.5833 3 21.5833H11C11.7956 21.5833 12.5587 21.2732 13.1213 20.7213C13.6839 20.1693 14 19.4207 14 18.6402V2.94318C14 2.1626 13.6839 1.41399 13.1213 0.862038C12.5587 0.310084 11.7956 0 11 0Z" fill="white"/>
<path d="M10 11.322C10 12.385 9.11425 13 7.69042 13C6.55025 13 5.94975 12.9855 5 12.881V7.09233C5.64791 7.02823 6.78571 7 7.57348 7C8.95228 7 9.75822 7.57917 9.75822 8.56429C9.75822 9.23045 9.35446 9.77451 8.7018 9.95612C9.49826 10.1293 10 10.6734 10 11.322ZM6.46571 8.19267V9.48989H7.53081C8.04124 9.48989 8.38101 9.22205 8.38101 8.80694C8.38101 8.38344 8.06811 8.19344 7.42336 8.19344L6.46571 8.19267ZM8.56116 11.1145C8.56116 10.7345 8.21192 10.5185 7.6841 10.5185H6.4665V11.7806C6.87816 11.789 7.28113 11.8066 7.5403 11.8066C8.19374 11.8066 8.56116 11.5731 8.56116 11.1145Z" fill="white"/>
</svg>
