<svg width="32" height="32" viewBox="0 0 32 32"  xmlns="http://www.w3.org/2000/svg">
<path d="M8.28264 0.677652L8.19207 0.587058C7.56188 0.00951224 5.92789 -0.00936151 5.55052 0.00196291C4.73315 0.0440739 3.9511 0.348518 3.3203 0.870168C3.06544 1.06336 2.82107 1.27001 2.58821 1.48924L2.46745 1.61003C0.965918 3.17864 0.0941284 5.24524 0.0183573 7.41568C-0.245798 11.3943 2.42217 15.4258 2.79576 15.9883C6.26374 21.843 9.92418 25.3762 16.0035 29.2001C16.5696 29.5776 20.596 32.2426 24.5735 31.9821C26.7434 31.9035 28.8088 31.0304 30.3773 29.5285C30.4226 29.487 30.4604 29.4454 30.4981 29.4077C30.7231 29.1798 30.9348 28.9391 31.1321 28.6867C31.6543 28.0547 31.9587 27.271 32 26.452C32 26.0745 32 24.4325 31.4151 23.8097C31.3881 23.7764 31.3592 23.7449 31.3283 23.7153C31.043 23.4679 30.7141 23.2759 30.3585 23.1491L24.1999 21.0314C23.4112 20.7068 22.5395 20.8955 21.7885 21.6429C21.0376 22.3903 20.2791 23.1038 20.0451 23.3907C19.8802 23.624 19.6353 23.7886 19.3571 23.8533C19.0789 23.918 18.7865 23.8783 18.5356 23.7417C14.0073 21.1899 10.7506 18.3626 8.27509 13.478C8.13808 13.2268 8.09851 12.9338 8.16396 12.6552C8.22941 12.3766 8.39528 12.132 8.62982 11.9681C8.91284 11.7152 9.62229 10.9753 10.3732 10.2241C11.1242 9.47295 11.3091 8.60474 10.9846 7.81581L8.84869 1.644C8.72347 1.28866 8.53132 0.960628 8.28264 0.677652V0.677652Z" />
</svg>
