<svg width="20" height="20" viewBox="0 0 20 20" fill="none" xmlns="http://www.w3.org/2000/svg">
<path d="M20 0H0V20H20V0Z" fill="white"/>
<path d="M10.1519 4.71793L9.90827 4.6881H9.87844L9.63484 4.66821H9.60501H9.36141H9.33158L9.08798 4.67816H9.05815L8.81456 4.70301H8.78473L8.54113 4.74278H8.5113L8.27267 4.79747H8.24284L8.00422 4.86707L7.97439 4.87701L7.74073 4.95158L7.7109 4.96153L7.47725 5.04604L7.44742 5.05598L7.21873 5.15541L7.1889 5.17033L6.96519 5.2797L6.93536 5.29461L6.71662 5.4189L6.69176 5.43381L6.47799 5.56804L6.45313 5.58792L6.24931 5.7321L6.22445 5.75198L6.03056 5.9061L6.00571 5.92598L5.81679 6.09004L5.79194 6.10992L5.61296 6.28392C5.37931 6.51261 5.37434 6.89043 5.60302 7.12906C5.72234 7.24838 5.87645 7.30803 6.03056 7.30803C6.18468 7.30803 6.33382 7.25335 6.44816 7.13901L6.61719 6.97495L6.78125 6.83078L6.95028 6.69655L7.12925 6.56729L7.31319 6.45295L7.5021 6.34358L7.69599 6.24912L7.89484 6.16461L8.09867 6.09004L8.3025 6.02541L8.5113 5.97072L8.7201 5.93095L8.93387 5.90112L9.14764 5.88124L9.36141 5.8713H9.57518L9.78895 5.88621L10.0176 5.91107C10.0425 5.91107 10.0624 5.91107 10.0872 5.91107C10.3855 5.91107 10.644 5.68735 10.6788 5.37912C10.7136 5.05101 10.48 4.7577 10.1519 4.71793Z" fill="#CA005D"/>
<path d="M14.5167 7.14893C14.1836 7.14893 13.9102 7.41241 13.9102 7.74052C13.9102 8.06864 14.1836 8.33709 14.5167 8.33709C14.8498 8.33709 15.1232 8.07361 15.1232 7.7455C15.1232 7.41738 14.8547 7.1539 14.5216 7.1539L14.5167 7.14893Z" fill="#CA005D"/>
<path d="M18.3545 7.93937L17.6834 7.90954C17.3751 6.55732 16.6941 5.31944 15.6898 4.30527L16.3013 3.17676C16.5499 2.71939 16.5101 2.16259 16.1969 1.7947C15.5904 1.07882 14.3824 0.989334 13.741 1.19813C13.1842 1.38208 12.7418 1.85933 12.3689 2.29682C11.5735 2.04824 10.7433 1.92396 9.90311 1.92396C6.08506 1.92396 2.79896 4.5439 2.08805 8.08354C1.96376 7.92943 1.89416 7.73057 1.89416 7.5168C1.89416 7.31794 1.95879 7.12903 2.0781 6.96994C2.19244 6.81583 2.25707 6.63189 2.25707 6.43303C2.25707 5.9508 1.87427 5.55806 1.40199 5.55806C1.10868 5.55806 0.835249 5.71218 0.691078 5.95081C0.362964 6.40818 0.188965 6.94509 0.188965 7.51183C0.188965 8.6652 0.90982 9.67439 1.98862 10.0224L2.13279 10.0671L2.24216 9.95776C2.39627 9.80365 2.77907 9.67439 3.37067 9.57497C3.46513 9.56005 3.66398 9.52525 3.66398 9.31148C3.66398 6.14469 6.40821 3.66893 9.90808 3.66893C10.6687 3.66893 11.4045 3.79321 12.1054 4.03681C12.2496 4.08652 12.3938 4.14121 12.533 4.20584L12.5877 4.2307H12.6473C12.881 4.22075 13.1047 4.10641 13.2638 3.92247C13.3135 3.86281 13.3781 3.76835 13.4527 3.66395C13.6615 3.3607 14.0045 2.84864 14.3177 2.8387C14.8198 2.81881 14.8894 2.92819 14.8894 2.93316C14.9491 3.09224 14.4669 3.67887 13.92 4.12132L13.8703 4.1611L13.8454 4.21578C13.741 4.45938 13.746 4.73281 13.8653 4.96646L13.9349 5.05098C14.0592 5.15041 14.1785 5.24984 14.2978 5.35921C15.2524 6.23915 15.8688 7.35772 16.0826 8.59063C16.1124 8.7696 16.1373 8.94857 16.1522 9.12754V9.19217L16.1919 9.24685C16.3411 9.47554 16.5946 9.61474 16.8631 9.62965L18.1159 9.68931C18.1059 10.2859 18.0612 10.9371 17.8673 11.1608C17.8126 11.2255 17.6734 11.305 17.2906 11.3448C17.0769 11.3647 16.7935 11.3647 16.5002 11.3597H16.4206C16.0627 11.3597 15.7495 11.5784 15.6302 11.8966C15.5506 12.0656 15.4612 12.2347 15.3667 12.3938C15.1231 12.8014 14.8198 13.1892 14.4619 13.5521C14.3078 13.7062 14.1338 13.8603 13.9449 14.0144C13.7212 14.1785 13.5919 14.442 13.5919 14.7254C13.5919 14.7353 13.5919 14.7601 13.7311 16.9177H13.0848L12.2546 15.5953C12.1104 15.3667 11.8618 15.2175 11.6232 15.2026L11.5685 15.1927L11.5138 15.2076C11.4094 15.2324 11.305 15.2573 11.2006 15.2772C10.1616 15.481 9.053 15.4313 8.02889 15.133L7.96426 15.1131C7.92946 15.1032 7.89466 15.0883 7.86483 15.0833C7.82506 15.0733 7.79026 15.0684 7.76043 15.0684H7.70077C7.37763 15.0684 7.08432 15.2523 6.94015 15.5456L6.25906 16.9227H5.48352L5.55312 16.0925L5.12558 16.3709C4.76267 16.6095 4.36992 16.7736 3.95233 16.8531L3.76838 16.8879L3.69878 17.7231C3.6789 17.9667 3.75844 18.2053 3.91753 18.3843C4.08158 18.5633 4.31027 18.6677 4.54889 18.6677H6.77609C7.09923 18.6677 7.39254 18.4788 7.54169 18.1855L8.15317 16.9575C9.13751 17.1713 10.2064 17.1961 11.136 17.052L11.8966 18.265C12.0557 18.5136 12.3242 18.6677 12.6175 18.6677H14.6458C14.8845 18.6677 15.1132 18.5633 15.2722 18.3893C15.4313 18.2153 15.5158 17.9767 15.496 17.738L15.3269 15.1181C15.9831 14.5364 16.525 13.8653 16.9426 13.1146C17.6834 13.1047 18.5733 12.9953 19.1549 12.3142C19.7366 11.6331 19.8211 10.5344 19.8261 9.55508V9.53519C19.8261 8.69005 19.1847 7.99903 18.3595 7.95926L18.3545 7.93937Z" fill="#CA005D"/>
<path d="M5.30672 11.6401L4.28365 12.6632L3.26718 11.6401L2.64014 12.2672L3.65661 13.2902L2.64014 14.3067L3.26718 14.9338L4.28365 13.9173L5.30672 14.9338L5.93376 14.3067L4.91069 13.2902L5.93376 12.2672L5.30672 11.6401Z" fill="#CA005D"/>
<path d="M4.28369 9C1.92073 9 0 10.9207 0 13.2837C0 15.6467 1.92073 17.5674 4.28369 17.5674C6.64665 17.5674 8.56738 15.6467 8.56738 13.2837C8.56738 10.9207 6.64665 9 4.28369 9ZM4.28369 16.2539C2.64678 16.2539 1.32009 14.9206 1.32009 13.2903C1.32009 11.66 2.65338 10.3267 4.28369 10.3267C5.914 10.3267 7.24729 11.66 7.24729 13.2903C7.24729 14.9206 5.914 16.2539 4.28369 16.2539Z" fill="#CA005D"/>
</svg>
