<svg width="16" height="18" viewBox="0 0 16 18" fill="none" xmlns="http://www.w3.org/2000/svg">
<path d="M8 0C5.09941 0 2.74286 2.35655 2.74286 5.25714V6.85714H1.6C0.725463 6.85714 0 7.5826 0 8.45714V16.2286C0 17.1031 0.725463 17.8286 1.6 17.8286H14.4C15.2745 17.8286 16 17.1031 16 16.2286V8.45714C16 7.5826 15.2745 6.85714 14.4 6.85714H13.2571V5.25714C13.2571 2.35655 10.9006 0 8 0ZM8 1.37143C10.1645 1.37143 11.8857 3.09259 11.8857 5.25714V6.85714H4.11429V5.25714C4.11429 3.09259 5.83545 1.37143 8 1.37143ZM1.6 8.22857H14.4C14.5385 8.22857 14.6286 8.31865 14.6286 8.45714V16.2286C14.6286 16.3671 14.5385 16.4571 14.4 16.4571H1.6C1.46151 16.4571 1.37143 16.3671 1.37143 16.2286V8.45714C1.37143 8.31865 1.46151 8.22857 1.6 8.22857ZM8 9.37143C6.872 9.37143 5.94286 10.3006 5.94286 11.4286C5.94286 11.8962 6.13424 12.3028 6.4 12.65V13.7143C6.4 14.5888 7.12546 15.3143 8 15.3143C8.87454 15.3143 9.6 14.5888 9.6 13.7143V12.65C9.86576 12.3028 10.0571 11.8962 10.0571 11.4286C10.0571 10.3006 9.128 9.37143 8 9.37143ZM8 10.7429C8.38683 10.7429 8.68571 11.0417 8.68571 11.4286C8.68571 11.6355 8.59867 11.8089 8.45714 11.9357C8.31307 12.0646 8.22768 12.2567 8.22857 12.45V13.7143C8.22857 13.8528 8.13849 13.9429 8 13.9429C7.86151 13.9429 7.77143 13.8528 7.77143 13.7143V12.45C7.77143 12.2567 7.68693 12.0646 7.54286 11.9357C7.40133 11.8089 7.31429 11.6355 7.31429 11.4286C7.31429 11.0417 7.61317 10.7429 8 10.7429Z" fill="#790038"/>
</svg>
