<svg width="16" height="14" viewBox="0 0 16 14" fill="none" xmlns="http://www.w3.org/2000/svg">
<path id="Vector" d="M15.611 0.425492C15.0559 -0.114282 14.1475 -0.146064 13.5589 0.362034C12.6169 1.20349 11.7759 2.0291 10.9516 2.90234C10.1273 3.77558 9.31995 4.64881 8.54625 5.56954C7.55384 6.74443 6.59499 7.9828 5.70347 9.23702L2.57477 5.69655C2.10379 5.17263 1.27953 5.04559 0.657185 5.42667C-0.0155933 5.83943 -0.200654 6.69682 0.236661 7.316C0.236661 7.316 3.88681 12.587 4.37462 13.238C4.76147 13.7461 5.23246 14 5.87168 14C6.56137 14 7.04912 13.7459 7.48656 13.0633C8.17625 11.952 9.82467 9.25294 11.1703 7.45889C11.8431 6.55387 12.5497 5.68075 13.2898 4.80751C14.013 3.95023 14.8036 3.09284 15.5606 2.3308L15.5943 2.29901C16.1324 1.77517 16.1324 0.949563 15.611 0.425637L15.611 0.425492Z" fill="#CC8100"/>
</svg>
