<svg width="24" height="24" viewBox="0 0 24 24" fill="none" xmlns="http://www.w3.org/2000/svg">
<path d="M12 2C10.0222 2 8.08879 2.58649 6.4443 3.6853C4.79981 4.78412 3.51809 6.3459 2.76121 8.17316C2.00433 10.0004 1.8063 12.0111 2.19215 13.9509C2.578 15.8907 3.53041 17.6725 4.92894 19.0711C6.32746 20.4696 8.10929 21.422 10.0491 21.8078C11.9889 22.1937 13.9996 21.9957 15.8268 21.2388C17.6541 20.4819 19.2159 19.2002 20.3147 17.5557C21.4135 15.9112 22 13.9778 22 12C21.9972 9.3487 20.9427 6.80681 19.0679 4.93206C17.1932 3.05731 14.6513 2.00284 12 2ZM12 20.5714C10.3047 20.5714 8.64754 20.0687 7.23797 19.1269C5.82841 18.185 4.72979 16.8464 4.08104 15.2801C3.43229 13.7139 3.26254 11.9905 3.59327 10.3278C3.924 8.6651 4.74035 7.13782 5.93909 5.93908C7.13782 4.74035 8.66511 3.924 10.3278 3.59327C11.9905 3.26254 13.7139 3.43228 15.2801 4.08103C16.8464 4.72978 18.185 5.8284 19.1269 7.23797C20.0687 8.64753 20.5714 10.3047 20.5714 12C20.569 14.2725 19.6651 16.4513 18.0582 18.0582C16.4513 19.6651 14.2725 20.569 12 20.5714ZM16.7907 8.63786C16.9246 8.7718 16.9998 8.95345 16.9998 9.14286C16.9998 9.33226 16.9246 9.51391 16.7907 9.64786L11.0764 15.3621C10.9425 15.496 10.7608 15.5713 10.5714 15.5713C10.382 15.5713 10.2004 15.496 10.0664 15.3621L7.20929 12.505C7.07918 12.3703 7.00718 12.1899 7.00881 12.0026C7.01044 11.8153 7.08556 11.6361 7.21799 11.5037C7.35042 11.3713 7.52958 11.2961 7.71686 11.2945C7.90414 11.2929 8.08457 11.3649 8.21929 11.495L10.5714 13.8471L15.7807 8.63786C15.9147 8.50395 16.0963 8.42872 16.2857 8.42872C16.4751 8.42872 16.6568 8.50395 16.7907 8.63786Z" fill="#008428"/>
</svg>
