<svg width="28" height="22" viewBox="0 0 28 22"  xmlns="http://www.w3.org/2000/svg">
<path fill-rule="evenodd" clip-rule="evenodd" d="M26.7144 5.03969C26.9486 4.77207 27.1268 4.46032 27.2387 4.1228C27.3505 3.78528 27.3938 3.42879 27.3658 3.07431C27.3379 2.71983 27.2394 2.37452 27.076 2.0587C26.9126 1.74287 26.6877 1.4629 26.4146 1.23527C26.1414 1.00763 25.8255 0.836921 25.4854 0.733187C25.1453 0.629453 24.7878 0.594788 24.4341 0.631228C24.0804 0.667668 23.7376 0.774478 23.4258 0.945376C23.114 1.11627 22.8395 1.34781 22.6185 1.62635L11.1518 15.3837L5.21845 9.44769C4.71551 8.96193 4.04191 8.69315 3.34272 8.69922C2.64352 8.7053 1.97469 8.98575 1.48027 9.48017C0.985847 9.97459 0.705395 10.6434 0.69932 11.3426C0.693244 12.0418 0.962029 12.7154 1.44778 13.2183L9.44778 21.2183C9.7098 21.4802 10.0235 21.6846 10.3689 21.8185C10.7143 21.9524 11.0838 22.0129 11.4538 21.9961C11.8239 21.9793 12.1864 21.8855 12.5182 21.7209C12.85 21.5562 13.1439 21.3242 13.3811 21.0397L26.7144 5.03969Z" />
</svg>
