<svg width="65" height="85" viewBox="0 0 65 85" fill="none" xmlns="http://www.w3.org/2000/svg">
<path d="M20.1928 5.87542C19.3662 3.26587 15.115 1.41435 10.081 1.62782C5.04697 1.84129 0.966378 4.04133 0.362818 6.71187L0.240356 6.37642L0.288466 7.52219C0.415301 10.5456 5.00761 12.8066 10.5446 12.5714C16.0816 12.3405 20.464 9.70045 20.3372 6.67702L20.289 5.53126L20.1928 5.87542Z" fill="#CC8100"/>
<path d="M10.4884 11.3645C16.0246 11.1315 20.4086 8.49298 20.2804 5.47128C20.1522 2.44959 15.5603 0.188954 10.0241 0.42201C4.48796 0.655065 0.10393 3.29356 0.232135 6.31525C0.360339 9.33695 4.95223 11.5976 10.4884 11.3645Z" fill="#FFA100"/>
<path d="M12.6625 22.2088C9.57628 21.7412 7.1603 19.3252 6.69268 16.239C6.64592 15.9506 6.23287 15.9506 6.1861 16.239C5.71849 19.3252 3.3025 21.7412 0.21627 22.2088C-0.07209 22.2556 -0.07209 22.6686 0.21627 22.7154C3.3025 23.183 5.71849 25.599 6.1861 28.6852C6.23287 28.9736 6.64592 28.9736 6.69268 28.6852C7.1603 25.599 9.57628 23.183 12.6625 22.7154C12.9509 22.6686 12.9509 22.2556 12.6625 22.2088Z" fill="#CC8100"/>
<path d="M52.1917 45.5045C47.4038 40.3245 35.4973 40.6671 24.0462 46.6767C12.5951 52.6818 5.54403 62.28 7.08137 69.1642L6.42316 68.515L7.7982 71.1343C11.4184 78.0366 24.5647 78.28 37.1609 71.6753C49.7572 65.0707 57.0291 54.1199 53.4089 47.2132L52.0339 44.5938L52.1962 45.5045H52.1917Z" fill="#CC8100"/>
<path d="M35.9187 69.2983C48.5133 62.6916 55.7874 51.7394 52.166 44.8357C48.5446 37.9321 35.399 37.6914 22.8044 44.2981C10.2099 50.9047 2.93573 61.857 6.55715 68.7606C10.1786 75.6642 23.3242 75.905 35.9187 69.2983Z" fill="#FFA100"/>
<path d="M37.1615 48.8721L36.0795 47.6594C34.7991 46.4196 33.5007 45.7478 32.1482 45.5765C30.8453 45.4142 29.6236 45.6442 28.4424 46.2618C27.5046 46.7532 26.8419 47.3258 26.4587 47.984C26.0665 48.6557 25.8591 49.3545 25.8456 50.0849C25.832 50.8377 25.9222 51.7665 26.1206 52.8845L26.4001 54.521C26.5218 55.3731 26.5579 56.135 26.5128 56.7978C26.5353 56.8338 26.5534 56.8699 26.5759 56.9014C26.5534 56.8654 26.5353 56.8338 26.5128 56.7978C26.4948 57.0637 26.4677 57.3207 26.4181 57.5506C26.2513 58.3937 25.7554 59.0384 24.9259 59.4757C24.1189 59.8995 23.3344 59.9355 22.5861 59.5929C21.8602 59.2593 21.2606 58.5335 20.7963 57.456L20.2868 55.9412C20.0659 55.0034 20.0073 54.0702 20.0975 53.1325C20.1876 52.2308 20.3995 51.4328 20.7376 50.7295L18.7585 50.9775C18.3708 51.7304 18.1138 52.6276 17.9966 53.6825C17.8749 54.7825 17.9199 55.9096 18.1454 57.0637L18.5511 58.6326C19.2319 60.5442 20.2688 61.8786 21.6618 62.5188C23.1225 63.1951 24.6734 63.1274 26.2558 62.3024C27.5362 61.6307 28.4063 60.7606 28.8662 59.7191C29.308 58.7003 29.4928 57.6769 29.4252 56.649C29.3621 55.6617 29.1727 54.512 28.8707 53.2227L28.5055 51.6312C28.2891 50.6574 28.2575 49.8775 28.3973 49.2643C28.5325 48.6647 28.9338 48.1959 29.61 47.8397C30.2682 47.4926 30.958 47.3844 31.6929 47.5106C32.4458 47.6413 33.1896 48.0561 33.938 48.7865L34.9434 50.0398C35.827 51.3472 36.3004 52.9071 36.3184 54.7465L39.2939 54.3768C39.2849 53.4391 39.073 52.4698 38.6763 51.4824C38.2976 50.5357 37.7881 49.6701 37.157 48.8766L37.1615 48.8721Z" fill="#CC8100"/>
<path d="M44.6089 56.9645L44.37 55.3325L19.3893 67.1939L20.5029 68.4112L44.6089 56.9645Z" fill="#CC8100"/>
<path d="M58.7058 33.8598C60.0817 31.4079 58.485 26.9209 54.7905 23.2969C51.096 19.673 46.5816 18.1585 44.1558 19.5811L44.3213 19.2538L43.4961 20.0943C41.3186 22.3122 42.8479 27.3424 46.9119 31.3281C50.9726 35.3169 56.0287 36.7487 58.2062 34.5308L59.0314 33.6903L58.7058 33.8598Z" fill="#CC8100"/>
<path d="M47.7759 30.4379C51.8376 34.4246 56.8937 35.8587 59.069 33.641C61.2442 31.4233 59.7149 26.3937 55.6532 22.407C51.5914 18.4203 46.5353 16.9863 44.3601 19.204C42.1848 21.4216 43.7141 26.4513 47.7759 30.4379Z" fill="#FFA100"/>
<path d="M64.1777 78.3072C61.0914 77.8396 58.6754 75.4236 58.2078 72.3374C58.1611 72.049 57.748 72.049 57.7012 72.3374C57.2336 75.4236 54.8176 77.8396 51.7314 78.3072C51.443 78.354 51.443 78.767 51.7314 78.8138C54.8176 79.2814 57.2336 81.6974 57.7012 84.7836C57.748 85.072 58.1611 85.072 58.2078 84.7836C58.6754 81.6974 61.0914 79.2814 64.1777 78.8138C64.466 78.767 64.466 78.354 64.1777 78.3072Z" fill="#CC8100"/>
</svg>
