<svg width="20" height="20" viewBox="0 0 20 20" fill="none" xmlns="http://www.w3.org/2000/svg">
<path d="M2.08301 17.0846V8.7513C2.08301 8.29105 2.4561 7.91797 2.91634 7.91797H7.91634H11.2497C11.7099 7.91797 12.083 8.29105 12.083 8.7513V12.0846V17.0846C12.083 17.5449 11.7099 17.918 11.2497 17.918H2.91634C2.4561 17.918 2.08301 17.5449 2.08301 17.0846Z" fill="white"/>
<path fill-rule="evenodd" clip-rule="evenodd" d="M2.91634 8.54297C2.80128 8.54297 2.70801 8.63624 2.70801 8.7513V17.0846C2.70801 17.1997 2.80128 17.293 2.91634 17.293H11.2497C11.3647 17.293 11.458 17.1997 11.458 17.0846V8.7513C11.458 8.63623 11.3647 8.54297 11.2497 8.54297H2.91634ZM1.45801 8.7513C1.45801 7.94587 2.11093 7.29297 2.91634 7.29297H11.2497C12.0551 7.29297 12.708 7.94587 12.708 8.7513V17.0846C12.708 17.8901 12.0551 18.543 11.2497 18.543H2.91634C2.11093 18.543 1.45801 17.8901 1.45801 17.0846V8.7513Z" fill="white"/>
<path fill-rule="evenodd" clip-rule="evenodd" d="M8.75033 2.70703C8.63526 2.70703 8.54199 2.8003 8.54199 2.91536V7.08203C8.54199 7.1971 8.63525 7.29037 8.75033 7.29037H11.2503C12.0558 7.29037 12.7087 7.94327 12.7087 8.7487V11.2487C12.7087 11.3638 12.8019 11.457 12.917 11.457H17.0837C17.1987 11.457 17.292 11.3638 17.292 11.2487V2.91536C17.292 2.8003 17.1987 2.70703 17.0837 2.70703H8.75033ZM7.29199 2.91536C7.29199 2.10996 7.94489 1.45703 8.75033 1.45703H17.0837C17.8891 1.45703 18.542 2.10996 18.542 2.91536V11.2487C18.542 12.0541 17.8891 12.707 17.0837 12.707H12.917C12.1116 12.707 11.4587 12.0541 11.4587 11.2487V8.7487C11.4587 8.63363 11.3654 8.54037 11.2503 8.54037H8.75033C7.9449 8.54037 7.29199 7.88746 7.29199 7.08203V2.91536Z" fill="white"/>
</svg>
