<svg width="14" height="14" viewBox="0 0 14 14" fill="none" xmlns="http://www.w3.org/2000/svg">
<path fill-rule="evenodd" clip-rule="evenodd" d="M12.25 6.5625C12.4916 6.5625 12.6875 6.75838 12.6875 7V12.25C12.6875 12.4916 12.4916 12.6875 12.25 12.6875H1.75C1.50838 12.6875 1.3125 12.4916 1.3125 12.25V7.00242C1.3125 6.7608 1.50838 6.56492 1.75 6.56492C1.99162 6.56492 2.1875 6.7608 2.1875 7.00242V11.8125H11.8125V7C11.8125 6.75838 12.0084 6.5625 12.25 6.5625Z" fill="#83786F" stroke="#83786F" stroke-width="0.6" stroke-linecap="round" stroke-linejoin="round"/>
<path fill-rule="evenodd" clip-rule="evenodd" d="M4.06564 6.39865C4.2365 6.22779 4.5135 6.22779 4.68436 6.39865L7 8.71429L9.31564 6.39865C9.48649 6.22779 9.7635 6.22779 9.93436 6.39865C10.1052 6.5695 10.1052 6.84651 9.93436 7.01737L7.30936 9.64237C7.1385 9.81322 6.8615 9.81322 6.69064 9.64237L4.06564 7.01737C3.89479 6.84651 3.89479 6.5695 4.06564 6.39865Z" fill="#83786F" stroke="#83786F" stroke-width="0.6" stroke-linecap="round" stroke-linejoin="round"/>
<path fill-rule="evenodd" clip-rule="evenodd" d="M6.99609 1.3125C7.23772 1.3125 7.43359 1.50838 7.43359 1.75V9.33333C7.43359 9.57496 7.23772 9.77083 6.99609 9.77083C6.75447 9.77083 6.55859 9.57496 6.55859 9.33333V1.75C6.55859 1.50838 6.75447 1.3125 6.99609 1.3125Z" fill="#83786F" stroke="#83786F" stroke-width="0.6" stroke-linecap="round" stroke-linejoin="round"/>
</svg>
