<svg width="110" height="110" viewBox="0 0 110 110" fill="none" xmlns="http://www.w3.org/2000/svg">
<mask id="mask0_3515_12326" style="mask-type:alpha" maskUnits="userSpaceOnUse" x="0" y="0" width="110" height="110">
<circle cx="55" cy="55" r="55" fill="#EFEFEF"/>
</mask>
<g mask="url(#mask0_3515_12326)">
<circle cx="55" cy="55" r="55" fill="#F6F6F9"/>
<path d="M41.9901 82.476C37.1874 82.476 33.349 79.5844 30.4224 75.5979C32.1984 75.2063 33.349 75.0045 33.349 75.0045C38.7083 74.3027 44.2803 74.6792 48.3388 75.1853C48.3638 75.1883 48.392 75.1913 48.4201 75.1943C47.9935 79.5844 44.3915 82.476 41.9901 82.476Z" fill="#FFAE82"/>
<path d="M89.8158 77.4974C89.7924 77.6152 89.769 77.733 89.7436 77.8546L89.7407 77.8555C89.6971 78.0712 89.6457 78.2925 89.5882 78.5156C89.5454 78.6837 89.5005 78.8555 89.4526 79.0283L89.4496 79.0292C88.8196 81.2712 87.6863 83.7182 85.9909 85.1998C85.9909 85.1998 81.9921 83.5285 81.2515 82.6588C81.2515 82.6588 80.1663 80.6779 79.6395 78.7879C79.6395 78.7879 78.7718 76.443 79.2256 75.5134C79.6794 74.5837 80.7359 74.4838 80.7359 74.4838C80.7359 74.4838 79.9298 68.0198 81.0667 66.2387C82.2188 64.4339 82.4217 69.1737 82.9795 72.6949C83.0065 72.459 83.5316 71.1597 84.8558 71.2242C85.6473 71.2657 85.5651 72.9317 85.5609 73.0184C85.6195 72.9277 86.7114 71.1888 87.4762 71.5167C88.3581 71.8909 88.0456 74.1207 88.0456 74.1207C88.0456 74.1207 88.9244 73.1365 89.7798 73.9266C90.1352 74.2569 90.1559 75.6984 89.8158 77.4974Z" fill="#FFAF82"/>
<path d="M89.8157 77.4964C89.7924 77.6142 89.769 77.732 89.7436 77.8536L89.7406 77.8545C89.6971 78.0702 89.6456 78.2915 89.5882 78.5146C89.4258 78.6688 89.2165 78.79 88.9446 78.8608C87.6069 79.2019 87.4274 77.3002 87.4274 77.3002C87.4274 77.3002 86.6097 77.8641 85.8918 77.5787C85.1729 77.2905 85.1067 76.3466 85.1067 76.3466C85.1067 76.3466 84.2903 77.043 83.6046 76.5675C82.5966 75.8716 83.1192 74.0388 83.1192 74.0388C83.1192 74.0388 83.0086 75.4701 83.8606 76.002C84.6929 76.5242 85.5312 75.0307 85.5728 74.9579C85.5658 75.0359 85.3839 76.8273 86.2689 77.052C87.1469 77.2756 87.6233 76.0672 87.6489 76.0056C87.6459 76.076 87.5764 77.9689 88.5817 78.2103C89.1455 78.347 89.5559 77.9112 89.8157 77.4964Z" fill="#F88968"/>
<path d="M82.3603 75.4555C82.3603 75.4555 83.2739 76.3321 83.468 77.6729C83.6622 79.0138 81.3571 79.2378 79.8177 77.9969C79.8177 77.9969 80.3863 79.0711 82.2674 79.2713C83.785 79.4345 85.489 77.9788 82.3603 75.4555Z" fill="#F88968"/>
<path d="M83.7703 77.8919C83.7703 77.8919 86.2868 80.0625 84.6349 82.261C84.6349 82.261 85.9425 81.5908 85.7284 80.0411C85.4195 77.7681 83.6686 77.3066 83.6686 77.3066" fill="#F88968"/>
<path d="M81.0288 83.0074C82.4928 84.1328 84.1665 84.7307 86.0617 84.7276C85.9815 84.9124 85.8869 85.1298 85.7789 85.3771C85.3929 86.2607 84.8351 87.5268 84.1478 89.0561C82.773 92.1152 80.8811 96.2255 78.8119 100.433C76.7417 104.643 74.4981 108.942 72.4197 112.381C71.3801 114.101 70.3872 115.598 69.4825 116.757C68.5668 117.931 67.7792 118.71 67.159 119.054C66.2196 119.573 65.0672 119.526 63.7063 119.015C62.3438 118.504 60.8502 117.555 59.309 116.396C57.8498 115.299 56.3771 114.037 54.9596 112.822C54.8837 112.757 54.8079 112.692 54.7323 112.627C53.2821 111.385 51.8865 110.198 50.6558 109.337C46.5908 103.819 45.7908 97.7708 45.4556 90.6613C46.3265 91.5704 47.3969 92.7985 48.6033 94.2064C48.9504 94.6116 49.3081 95.0308 49.6746 95.4603C51.0502 97.0724 52.5492 98.8291 54.0737 100.528C56.0036 102.678 57.989 104.751 59.8374 106.337C60.7618 107.13 61.6613 107.809 62.5106 108.317C63.3552 108.822 64.1794 109.175 64.9485 109.281L65.2861 109.328L65.4504 109.037L65.0098 108.789C65.4504 109.037 65.4504 109.037 65.4504 109.037L65.4506 109.036L65.4514 109.035L65.4545 109.03L65.4667 109.008L65.5148 108.923L65.7009 108.594C65.8629 108.308 66.0983 107.894 66.3916 107.379C66.9783 106.35 67.7969 104.921 68.724 103.322C70.5796 100.121 72.8659 96.2456 74.6003 93.5252C76.3453 90.7899 78.026 88.0348 79.2701 85.9642C79.8923 84.9287 80.4055 84.064 80.7633 83.458C80.8646 83.2864 80.9534 83.1355 81.0288 83.0074Z" fill="#CA005D" stroke="#720037"/>
<path d="M54.4132 77.2496C54.6494 77.4723 54.9527 77.7801 55.3098 78.189C56.24 79.2541 57.5362 81.0069 58.9599 83.7305C61.776 89.1178 65.0915 98.3043 67.0577 113.477L58.2653 114.26H52.7104C50.8898 106.574 49.8373 94.9095 54.4132 77.2496Z" fill="#CA005D" stroke="#720037"/>
<path d="M58.6989 108.241C58.7529 107.452 58.853 106.723 59.0266 106.164L59.0274 106.162C59.1725 105.704 59.377 105.204 59.5874 104.691C59.6866 104.448 59.787 104.203 59.8831 103.958C60.1917 103.169 60.4821 102.319 60.6421 101.375C60.9585 99.509 60.7751 97.2197 59.0728 94.3186L59.0727 94.3184C57.2721 91.2456 55.9714 86.7125 55.1225 82.9903C54.6962 81.1209 54.3806 79.4408 54.1715 78.228C54.0669 77.6214 53.9889 77.1313 53.937 76.7923C53.9267 76.7253 53.9175 76.6643 53.9093 76.6094C53.8827 76.6037 53.8546 76.5978 53.8249 76.5915C53.5503 76.5338 53.1461 76.4519 52.6308 76.3559C51.6008 76.1639 50.1277 75.9157 48.3592 75.6913L48.3257 75.6876C48.3125 75.6862 48.295 75.6843 48.2785 75.6823L48.2764 75.6821C44.2406 75.1789 38.7208 74.8105 33.4245 75.4995L33.4228 75.4998L33.3844 75.5067C33.3503 75.5128 33.2993 75.5221 33.2323 75.5345C33.0985 75.5592 32.9011 75.5964 32.6481 75.6458C32.1423 75.7445 31.4148 75.892 30.5298 76.0868C29.664 76.2788 28.6534 76.5124 27.5534 76.7938L27.5528 76.794C26.2258 77.1317 25.13 77.3053 24.1717 77.4572C23.7077 77.5308 23.2759 77.5992 22.8657 77.6787C21.6713 77.9101 20.5363 78.2497 19.0247 79.1139C19.0476 79.2564 19.078 79.4426 19.1157 79.6689C19.2117 80.2445 19.3554 81.0797 19.5462 82.1158C19.9278 84.1884 20.4974 87.0637 21.2489 90.2742C22.7496 96.6853 24.9649 104.382 27.8373 109.703L27.8699 109.737C27.9215 109.791 27.9984 109.87 28.0984 109.97C28.2983 110.172 28.5903 110.462 28.9566 110.809C29.6897 111.505 30.7176 112.431 31.8982 113.356C33.0803 114.283 34.4055 115.2 35.7334 115.884C37.0517 116.562 38.3319 116.989 39.4566 117L39.5384 116.985C39.6219 116.97 39.7451 116.949 39.9048 116.921C40.2243 116.866 40.6898 116.788 41.2753 116.694C42.4464 116.506 44.0982 116.255 46.0226 116.004C49.7144 115.523 54.4244 115.04 58.6717 115.002C58.6696 114.956 58.6674 114.906 58.6651 114.854C58.6467 114.43 58.6245 113.831 58.6098 113.129C58.5803 111.727 58.58 109.904 58.6989 108.241ZM58.6989 108.241C58.6989 108.241 58.6989 108.241 58.6989 108.241L59.1976 108.277L58.6988 108.242C58.6988 108.242 58.6988 108.242 58.6989 108.241Z" fill="#CA005D" stroke="#720037"/>
<path d="M18.1389 80.6243C18.3476 80.202 18.5208 79.8593 18.6506 79.6056C21.5674 81.8861 23.645 85.595 25.0138 88.8569C25.7298 90.5632 26.2438 92.1272 26.5787 93.2645C26.746 93.8328 26.8684 94.2938 26.9487 94.6116C26.9878 94.7662 27.0169 94.8869 27.0363 94.9695C22.3957 109.259 16.3879 119.131 13.9672 122.787C10.7932 120.626 9.38703 117.023 9.12769 112.686C8.85738 108.166 9.84238 102.933 11.295 97.9382C12.7457 92.9506 14.6519 88.2368 16.1973 84.7669C16.9696 83.0329 17.651 81.6114 18.1389 80.6243Z" fill="#CA005D" stroke="#720037"/>
<path d="M32.985 75.2482L26.0811 76.694C26.0811 76.694 29.3519 83.064 37.4876 86.8146L40.7894 83.0555L44.3915 86.8146C44.3915 86.8146 52.1034 81.999 53.0965 75.8266C48.5939 75.2481 45.5922 74.6699 45.5922 74.6699C45.5922 74.6699 46.4836 79.1641 40.2856 79.6116C35.9305 79.926 32.985 75.2482 32.985 75.2482Z" fill="#CA005D" stroke="#720037" stroke-linecap="round" stroke-linejoin="round"/>
<path d="M58.8792 106.299C58.7257 106.822 58.6275 107.537 58.5753 108.35C48.4713 113.686 38.002 110.641 38.002 110.641C51.6019 110.405 58.8792 106.299 58.8792 106.299Z" fill="#970049"/>
<path d="M51.4127 90.6045C51.3599 90.6277 50.9974 90.6432 50.9974 90.6432C50.9974 90.6432 51.2866 90.7118 51.3025 90.7456C51.3184 90.7794 51.2595 91.021 51.2595 91.021C51.2595 91.021 51.4008 90.798 51.4451 90.7392C51.4781 90.698 51.5556 90.6803 51.6173 90.6775C51.8917 90.6523 52.1511 90.5482 52.3585 90.3736C52.5799 90.1922 52.5739 90.1674 52.5739 90.1674C52.5739 90.1674 52.3529 90.0906 52.0352 90.2117C51.6824 90.3484 51.4627 90.5856 51.4136 90.608L51.4127 90.6045Z" fill="#E89F25"/>
<path d="M45.9963 96.1344C45.9378 96.1665 45.5721 96.1676 45.5721 96.1676C45.5721 96.1676 45.8671 96.2612 45.897 96.2881C45.9268 96.3149 45.9214 96.6006 45.9214 96.6006C45.9214 96.6006 46.0318 96.3471 46.0756 96.2697C46.1031 96.2223 46.2016 96.211 46.2513 96.2071C46.5889 96.1861 46.9069 96.0349 47.132 95.7889C47.3619 95.5306 47.3497 95.4959 47.3497 95.4959C47.3497 95.4959 47.0459 95.3819 46.6697 95.5502C46.2927 95.7149 46.0557 96.1059 45.9972 96.1379" fill="#E89F25"/>
<path d="M54.0958 89.9114C54.0069 89.9467 53.4941 89.8879 53.4941 89.8879C53.4941 89.8879 53.8916 90.0665 53.9285 90.1067C53.9654 90.1469 53.9108 90.5522 53.9108 90.5522C53.9108 90.5522 54.1066 90.2157 54.1867 90.1114C54.2339 90.0482 54.3736 90.0463 54.4415 90.0532C54.5086 90.0566 55.1861 90.104 55.7489 89.6089C56.1154 89.2858 56.1026 89.2326 56.1026 89.2326C56.1026 89.2326 55.6975 89.022 55.1399 89.198C54.5814 89.3704 54.181 89.877 54.0958 89.9114Z" fill="#970049"/>
<path d="M43.7101 95.9397C43.6238 95.9856 43.216 95.9253 43.216 95.9253C43.216 95.9253 43.628 96.052 43.6513 96.0841C43.6746 96.1162 43.5165 96.5115 43.5165 96.5115C43.5165 96.5115 43.7078 96.2545 43.7851 96.1546C43.8575 96.0669 44.0611 95.9905 44.1855 95.9733C44.309 95.9526 44.817 95.9114 45.3437 95.3645C45.6867 95.0093 45.6711 94.9605 45.6711 94.9605C45.6711 94.9605 45.2627 94.8329 44.7232 95.0834C44.1874 95.333 43.7964 95.8938 43.7101 95.9397Z" fill="#970049"/>
<path d="M47.6387 94.7299C47.5813 94.7505 47.3391 94.6674 47.3391 94.6674C47.3391 94.6674 47.575 94.7893 47.5846 94.8133C47.5943 94.8373 47.4529 95.0602 47.4529 95.0602C47.4529 95.0602 47.5999 94.9257 47.6608 94.8707C47.7159 94.8245 47.847 94.8021 47.926 94.8065C48.0042 94.8074 48.3191 94.8365 48.7052 94.5615C48.9579 94.3804 48.9511 94.3521 48.9511 94.3521C48.9511 94.3521 48.7153 94.2301 48.3594 94.3225C48.0035 94.4149 47.6978 94.7165 47.6395 94.7335" fill="#970049"/>
<path d="M45.5445 94.0326C45.4594 94.0971 45.3655 94.1411 45.2628 94.1647C44.8705 94.2546 44.48 94.1265 44.3538 93.6004C44.2277 93.0743 44.5277 92.7768 44.92 92.6869C45.0154 92.665 45.1169 92.653 45.2154 92.6604L45.2742 92.9057C45.1732 92.8876 45.0699 92.8925 44.9709 92.9152C44.6959 92.9782 44.5311 93.1622 44.6207 93.5355C44.7102 93.9088 44.9589 93.9943 45.2193 93.9346C45.3183 93.9119 45.413 93.8715 45.4925 93.8158L45.5453 94.0362L45.5445 94.0326Z" fill="white"/>
<path d="M46.4634 93.3368C46.5367 93.6424 46.4079 93.8969 46.1287 93.9608C45.8495 94.0248 45.6183 93.8528 45.5449 93.5472C45.4716 93.2415 45.6041 92.9863 45.8796 92.9232C46.1552 92.8601 46.3883 93.0241 46.4634 93.3368ZM45.7984 93.4891C45.8487 93.6988 45.9699 93.7835 46.0874 93.7566C46.205 93.7297 46.2664 93.6144 46.2136 93.394C46.1607 93.1737 46.043 93.1032 45.9254 93.1301C45.8079 93.157 45.7455 93.2688 45.7984 93.4891Z" fill="white"/>
<path d="M48.0591 93.4914L47.8234 93.5453L47.6733 92.9203C47.6426 92.7924 47.5791 92.7545 47.4723 92.7789C47.4096 92.7932 47.3235 92.8392 47.3355 92.8889C47.3415 92.9137 47.3557 92.9405 47.3633 92.9724L47.5177 93.6152L47.282 93.6691L47.1319 93.0441C47.1012 92.9163 47.0377 92.8783 46.9456 92.8994C46.8646 92.9179 46.7924 92.9569 46.8094 93.0279L46.98 93.7382L46.7443 93.7921L46.514 92.8333C46.7203 92.7861 46.7755 92.7248 46.9301 92.6894C47.0701 92.6574 47.133 92.6767 47.1948 92.7075C47.2741 92.6332 47.3712 92.5847 47.4797 92.5674C47.6823 92.5211 47.8399 92.5787 47.9013 92.8344L48.0591 93.4914Z" fill="white"/>
<path d="M48.3506 93.9123C48.3014 93.6911 48.2684 93.5373 48.2028 93.2635L48.0145 92.4777C48.1609 92.4442 48.2411 92.392 48.3839 92.3593C48.6402 92.3005 48.8997 92.4323 48.9815 92.7737C49.0633 93.115 48.8727 93.335 48.6603 93.3837C48.5989 93.4015 48.5333 93.4016 48.4744 93.3813L48.5885 93.8578L48.3469 93.9132L48.3506 93.9123ZM48.4125 92.559C48.3356 92.5767 48.292 92.6204 48.3005 92.656L48.4207 93.1573C48.4292 93.1929 48.4918 93.2123 48.565 93.1955C48.7151 93.1611 48.7763 93.0458 48.7243 92.8289C48.6724 92.612 48.5626 92.5246 48.4125 92.559Z" fill="white"/>
<path d="M49.5892 92.4682L49.5799 92.4291C49.5611 92.3509 49.4941 92.3137 49.395 92.3364C49.2886 92.3608 49.1882 92.41 49.1002 92.479L49.0482 92.2621C49.1469 92.2058 49.2527 92.1628 49.3673 92.1403C49.5985 92.0873 49.7638 92.1469 49.8184 92.3744C49.8567 92.5344 49.8835 92.6782 49.9202 92.8311C49.9398 92.9128 49.9656 93.0044 49.9849 93.0525C49.8161 93.0912 49.7312 93.1406 49.5844 93.1742C49.3386 93.2306 49.1865 93.1454 49.1413 92.957C49.0961 92.7686 49.2184 92.5681 49.5901 92.4717L49.5892 92.4682ZM49.631 92.6423C49.4382 92.694 49.3528 92.7736 49.3792 92.8838C49.3972 92.9584 49.4687 92.9983 49.5604 92.9773C49.6521 92.9562 49.68 92.9273 49.6834 92.8928C49.6711 92.8094 49.6543 92.7232 49.631 92.6423Z" fill="white"/>
<path d="M50.1708 93.0164L49.9365 92.0385L50.1562 91.9882L50.1783 92.0806C50.1983 92.0348 50.2264 91.9909 50.2688 91.9586C50.3076 91.9272 50.3563 91.9048 50.4084 91.8966C50.4451 91.8882 50.4817 91.8798 50.52 91.8785L50.5779 92.1203C50.5224 92.1143 50.4649 92.1162 50.41 92.1288C50.3148 92.1506 50.24 92.209 50.2559 92.2916C50.2923 92.4596 50.3528 92.7121 50.4116 92.9574L50.1737 93.012L50.1708 93.0164Z" fill="white"/>
<path d="M50.8638 91.8272L51.1482 91.7619L51.1958 91.9611L50.9114 92.0264C50.9608 92.2327 50.9948 92.375 51.0314 92.5279C51.0492 92.6026 51.0998 92.6211 51.18 92.6027C51.2383 92.5893 51.2904 92.5661 51.3347 92.5259L51.3831 92.7286C51.3162 92.7703 51.243 92.8021 51.1656 92.8161C50.9943 92.8554 50.8516 92.8056 50.8082 92.6242L50.5871 91.6993L50.7873 91.507L50.863 91.8236L50.8638 91.8272Z" fill="white"/>
<path d="M51.8933 91.9458L51.8839 91.9067C51.8652 91.8285 51.7982 91.7914 51.6991 91.8141C51.5927 91.8385 51.4923 91.8877 51.4043 91.9566L51.3523 91.7398C51.451 91.6834 51.5605 91.6396 51.6714 91.6179C51.9026 91.565 52.0642 91.6255 52.1188 91.8529C52.1571 92.0129 52.1839 92.1567 52.2206 92.3096C52.2385 92.3842 52.2564 92.4589 52.2853 92.531C52.1128 92.5705 52.0279 92.62 51.8848 92.6528C51.639 92.7091 51.4869 92.6239 51.4418 92.4355C51.3966 92.2471 51.5188 92.0466 51.8905 91.9502L51.8933 91.9458ZM51.9351 92.12C51.7423 92.1717 51.6569 92.2512 51.6833 92.3614C51.7012 92.4361 51.7727 92.4759 51.8645 92.4549C51.9562 92.4339 51.9841 92.405 51.9838 92.3713C51.9715 92.2879 51.9547 92.2018 51.9314 92.1208" fill="white"/>
<path d="M53.7937 92.1919L53.558 92.2458L53.4078 91.6208C53.3771 91.4929 53.3136 91.455 53.2068 91.4794C53.1442 91.4938 53.0581 91.5397 53.0692 91.5859C53.0752 91.6107 53.0894 91.6374 53.097 91.6694L53.2515 92.3122L53.0158 92.3661L52.8656 91.7411C52.8349 91.6132 52.7714 91.5753 52.6793 91.5964C52.602 91.6141 52.5261 91.6539 52.5432 91.7249L52.7138 92.4352L52.4781 92.4891L52.2477 91.5303C52.4577 91.4822 52.5137 91.4245 52.6684 91.3891C52.8083 91.3571 52.8713 91.3764 52.9331 91.4072C53.0086 91.3337 53.1095 91.2844 53.2134 91.2644C53.416 91.218 53.5736 91.2757 53.635 91.5313L53.7928 92.1883L53.7937 92.1919Z" fill="white"/>
<path d="M54.7504 91.4592C54.8237 91.7649 54.6949 92.0193 54.4157 92.0832C54.1365 92.1472 53.9053 91.9752 53.8319 91.6696C53.7586 91.364 53.8919 91.1122 54.1675 91.0491C54.443 90.986 54.6762 91.1501 54.7504 91.4592ZM54.0854 91.6115C54.1357 91.8212 54.2569 91.9059 54.3707 91.8798C54.4846 91.8538 54.5498 91.7376 54.4969 91.5173C54.444 91.297 54.3263 91.2265 54.2088 91.2534C54.0912 91.2803 54.0289 91.392 54.0817 91.6124L54.0854 91.6115Z" fill="white"/>
<path d="M55.123 90.8325C55.1999 90.8148 55.2785 90.8043 55.3606 90.808L55.4126 91.0249C55.3316 91.0097 55.2431 91.0112 55.1625 91.0297C55.0819 91.0482 55.0383 91.0919 55.0511 91.1452C55.0869 91.2946 55.5011 91.1846 55.5735 91.4868C55.6128 91.6504 55.533 91.8337 55.2546 91.8975C55.1667 91.9176 55.0762 91.9271 54.9868 91.9251L54.9382 91.7225C55.0248 91.7289 55.1088 91.7246 55.193 91.7053C55.3066 91.6793 55.355 91.6232 55.3397 91.5592C55.2996 91.3921 54.8888 91.5162 54.8198 91.2283C54.7746 91.0398 54.8893 90.8897 55.1275 90.8352L55.123 90.8325Z" fill="white"/>
<path d="M49.9582 94.9174L49.6908 93.8008L50.2796 93.6658L50.312 93.8009C50.2079 93.8173 50.0725 93.8483 49.9007 93.8877C49.886 93.8911 49.8813 93.9034 49.8855 93.9212C49.9017 93.9888 49.9298 94.1061 49.9622 94.2412L50.3498 94.1524L50.3805 94.2804L49.9928 94.3693L50.1163 94.8849L49.9664 94.9193L49.9582 94.9174Z" fill="white"/>
<path d="M50.6204 93.7089C50.6204 93.7089 50.6263 93.7338 50.6252 93.7454C50.6242 93.7569 50.6195 93.7692 50.614 93.778C50.6085 93.7867 50.5993 93.7963 50.5902 93.8059C50.5811 93.8156 50.5703 93.818 50.5559 93.8214C50.5307 93.8271 50.5065 93.8214 50.4851 93.8113C50.4629 93.7977 50.4506 93.778 50.4447 93.7531C50.4388 93.7281 50.4445 93.7043 50.4547 93.6832C50.4685 93.6612 50.4884 93.6492 50.5136 93.6434C50.5244 93.6409 50.5353 93.6384 50.5478 93.643C50.5594 93.6441 50.5719 93.6487 50.5808 93.6542C50.5897 93.6597 50.5994 93.6687 50.6056 93.6785C50.6117 93.6884 50.6178 93.6982 50.6204 93.7089ZM50.6645 93.9428C50.7158 94.175 50.7832 94.4749 50.8398 94.7134L50.6993 94.7456L50.5168 93.9767L50.6645 93.9428Z" fill="white"/>
<path d="M50.9931 94.0679L51.133 94.6508L50.9898 94.6836L50.8099 93.9336C50.9751 93.8958 50.9877 93.8517 51.1419 93.8163C51.2887 93.7827 51.4342 93.8244 51.4811 94.0199L51.6064 94.5423L51.4633 94.5751L51.3439 94.0775C51.3149 93.9567 51.246 93.9275 51.1359 93.9527C51.0368 93.9754 50.9838 94.0288 50.9931 94.0679Z" fill="white"/>
<path d="M52.0472 93.9135L52.0378 93.8744C52.0182 93.7927 51.9557 93.7582 51.8567 93.7809C51.776 93.7994 51.7033 93.8348 51.6376 93.8836L51.6069 93.7556C51.6771 93.7095 51.758 93.676 51.8387 93.6575C52.0148 93.6172 52.1382 93.6639 52.18 93.8381C52.2115 93.9696 52.2369 94.0913 52.2667 94.2157C52.2829 94.2833 52.2957 94.3366 52.3132 94.3775C52.1885 94.4061 52.1166 94.4451 52.0139 94.4686C51.8305 94.5107 51.713 94.4401 51.6789 94.2979C51.6422 94.145 51.7408 93.9912 52.0472 93.9135ZM52.0736 94.0237C51.8792 94.0682 51.8085 94.1444 51.8341 94.2511C51.8383 94.2689 51.8426 94.2866 51.857 94.2983C51.8686 94.3144 51.883 94.3261 51.8966 94.3343C51.9138 94.3416 51.931 94.3489 51.9502 94.3482C51.9694 94.3476 51.9886 94.3469 52.0024 94.34C52.0905 94.3198 52.122 94.2901 52.1208 94.2529C52.1094 94.173 52.0952 94.0975 52.0727 94.0201" fill="white"/>
<path d="M52.464 93.7339L52.6038 94.3168L52.4607 94.3496L52.2807 93.5996C52.4459 93.5618 52.4585 93.5177 52.6127 93.4824C52.7595 93.4487 52.9013 93.4912 52.9482 93.6867L53.0736 94.2092L52.9304 94.242L52.8111 93.7444C52.7821 93.6235 52.7131 93.5943 52.603 93.6196C52.5039 93.6423 52.4509 93.6956 52.4603 93.7347L52.464 93.7339Z" fill="white"/>
<path d="M53.5762 93.9868C53.6202 93.9768 53.6597 93.964 53.702 93.9468L53.7309 94.0677C53.6895 94.0884 53.6464 94.102 53.6024 94.1121C53.3642 94.1667 53.1743 94.0677 53.1086 93.794C53.0498 93.5487 53.1507 93.3568 53.4072 93.298C53.4512 93.2879 53.496 93.2814 53.5417 93.2784L53.5741 93.4135C53.5267 93.4094 53.4819 93.4159 53.4379 93.426C53.295 93.4587 53.2221 93.5579 53.2707 93.7606C53.3193 93.9632 53.426 94.0213 53.5762 93.9868Z" fill="white"/>
<path d="M53.7948 92.9893C53.7948 92.9893 53.8007 93.0143 53.796 93.0266C53.7914 93.0389 53.7903 93.0504 53.7848 93.0592C53.7793 93.068 53.7702 93.0776 53.761 93.0872C53.7511 93.0932 53.7411 93.0993 53.7267 93.1026C53.7015 93.1084 53.6773 93.1027 53.6559 93.0926C53.6337 93.0789 53.6214 93.0592 53.6155 93.0343C53.6096 93.0094 53.6153 92.9855 53.6255 92.9644C53.6393 92.9425 53.6592 92.9304 53.6844 92.9246C53.6953 92.9221 53.7061 92.9196 53.7186 92.9243C53.7302 92.9253 53.7427 92.93 53.7516 92.9355C53.7605 92.9409 53.7702 92.9499 53.7764 92.9598C53.7825 92.9696 53.7887 92.9795 53.792 92.9937L53.7948 92.9893ZM53.8389 93.2232C53.8902 93.4554 53.9576 93.7553 54.0142 93.9938L53.8737 94.026L53.6912 93.2572L53.8389 93.2232Z" fill="white"/>
<path d="M54.1955 93.5444C54.1955 93.5444 54.2006 93.5657 54.2032 93.5764C54.245 93.7505 54.3682 93.8123 54.5187 93.7778C54.5775 93.7644 54.6373 93.7394 54.6873 93.7055L54.7171 93.8299C54.6626 93.8611 54.6028 93.886 54.5404 93.9003C54.3054 93.9542 54.1095 93.864 54.0413 93.5797C53.9833 93.338 54.1 93.1463 54.3129 93.0976C54.5148 93.0513 54.628 93.1679 54.6698 93.342C54.6774 93.374 54.6843 93.4024 54.6846 93.4361L54.1927 93.5488L54.1955 93.5444ZM54.4729 93.3609C54.5023 93.3541 54.5099 93.3374 54.5039 93.3125C54.4868 93.2414 54.4272 93.2026 54.3354 93.2236C54.2877 93.2346 54.247 93.2589 54.2208 93.2949C54.1909 93.3317 54.1791 93.3794 54.1866 93.4264L54.4766 93.36L54.4729 93.3609Z" fill="white"/>
<path d="M54.9202 93.792L54.7362 93.0239L54.8752 92.992L54.8939 93.0703C54.9082 93.0332 54.9343 92.9972 54.9667 92.9711C54.999 92.9449 55.0375 92.9286 55.0778 92.9193C55.107 92.9126 55.1327 92.9068 55.1636 92.9072L55.2003 93.0601C55.1611 93.0578 55.1192 93.0599 55.0826 93.0683C54.9911 93.0893 54.9256 93.138 54.9407 93.2171C54.9731 93.3522 55.0216 93.5549 55.0702 93.7576L54.9275 93.7903L54.9202 93.792Z" fill="white"/>
<path d="M55.7184 93.0823L55.709 93.0432C55.6894 92.9615 55.627 92.927 55.528 92.9497C55.4473 92.9682 55.3745 93.0036 55.3088 93.0524L55.2781 92.9244C55.3483 92.8784 55.4293 92.8448 55.51 92.8263C55.686 92.786 55.8094 92.8327 55.8512 93.0069C55.8828 93.1384 55.9081 93.2601 55.9379 93.3845C55.9541 93.4521 55.9669 93.5054 55.9845 93.5464C55.8598 93.5749 55.7879 93.6139 55.6888 93.6366C55.5054 93.6786 55.3879 93.6081 55.3538 93.4659C55.3172 93.313 55.4157 93.1592 55.7221 93.0815L55.7184 93.0823ZM55.7448 93.1925C55.5504 93.2371 55.4797 93.3133 55.5053 93.4199C55.5096 93.4377 55.5138 93.4555 55.5282 93.4672C55.5398 93.4832 55.5543 93.4949 55.5678 93.5031C55.585 93.5104 55.6023 93.5177 55.6178 93.5179C55.6378 93.5208 55.6562 93.5166 55.67 93.5097C55.758 93.4895 55.7896 93.4598 55.7884 93.4225C55.777 93.3427 55.7627 93.2672 55.7403 93.1898L55.7448 93.1925Z" fill="white"/>
<path d="M56.4683 93.4411C56.4278 93.4503 56.3885 93.4481 56.3503 93.4344C56.3121 93.4206 56.2795 93.3981 56.2563 93.3659C56.233 93.3338 56.22 93.2955 56.2188 93.2583C56.2167 93.2175 56.2275 93.1814 56.2501 93.1462C56.2726 93.111 56.3015 93.0857 56.3365 93.0702C56.3716 93.0547 56.4138 93.0525 56.4531 93.0547C56.4933 93.0605 56.5287 93.0787 56.5584 93.1056C56.5882 93.1325 56.6077 93.1655 56.6171 93.2046C56.6231 93.2295 56.6254 93.2552 56.6203 93.2826C56.6152 93.31 56.6057 93.3347 56.5915 93.3566C56.5774 93.3786 56.5588 93.3979 56.5356 93.4144C56.5124 93.431 56.4875 93.4404 56.4618 93.4463L56.4683 93.4411ZM56.3838 93.0893C56.3507 93.0969 56.3193 93.1116 56.2979 93.1353C56.2727 93.1598 56.2566 93.1897 56.2524 93.2206C56.2445 93.2524 56.2485 93.2852 56.2636 93.3155C56.2786 93.3458 56.3001 93.3709 56.3282 93.3907C56.3553 93.407 56.389 93.418 56.4238 93.4175C56.4586 93.4171 56.4909 93.4059 56.5177 93.3885C56.5446 93.3711 56.5652 93.3439 56.5768 93.3113C56.5892 93.2822 56.5925 93.2477 56.5849 93.2157C56.5797 93.1944 56.5746 93.1731 56.5593 93.1579C56.5477 93.1418 56.5316 93.123 56.5134 93.1121C56.4953 93.1013 56.4735 93.0913 56.4534 93.0884C56.4333 93.0855 56.4104 93.087 56.3883 93.0921L56.3838 93.0893ZM56.4006 93.3854L56.3638 93.3938L56.3032 93.1415C56.3327 93.1348 56.3474 93.1314 56.3768 93.1247C56.4283 93.1129 56.471 93.1293 56.4821 93.1755C56.4855 93.1897 56.4853 93.2048 56.4805 93.2171C56.4757 93.2295 56.4635 93.2435 56.4533 93.2496L56.455 93.2567L56.5505 93.3473L56.51 93.3565L56.4307 93.2848C56.4307 93.2848 56.4072 93.2676 56.3962 93.2702L56.3741 93.2752L56.3997 93.3818L56.4006 93.3854ZM56.3967 93.2401C56.4409 93.23 56.455 93.208 56.4473 93.176C56.4396 93.144 56.4159 93.142 56.3828 93.1496C56.3607 93.1546 56.3542 93.1598 56.3522 93.1678L56.371 93.2459L56.3931 93.2409L56.3967 93.2401Z" fill="white"/>
<path d="M60.4147 52.2257C60.9994 53.8793 61.5998 55.5871 62.1751 57.3974C64.0011 63.1685 58.2354 63.8944 58.2354 63.8944C58.2354 63.8944 60.0895 67.8252 57.1754 70.9698C54.2675 74.1144 50.581 72.4277 50.581 72.4277C50.581 72.4277 49.2459 74.1385 45.7376 74.3524C40.6503 74.6626 38.7962 72.6927 38.7962 72.6927L33.4775 71.777C32.7802 72.1536 32.233 74.6566 26.6111 75.2921C21.4988 75.8674 18.866 72.9126 18.866 72.9126C17.5121 75.4638 11.1491 75.015 10.43 70.9728C9.74834 67.1776 11.5838 65.6234 11.8058 65.4487C8.50389 67.7017 2.9945 61.6053 8.8322 55.8251C11.2086 53.4757 12.5187 52.3823 13.4067 51.2046C10.7645 51.81 8.00047 48.8431 9.17927 46.2527C10.7051 42.9093 13.4974 44.2437 16.2239 39.4454C19.8479 33.0779 22.6182 30.9032 22.7808 30.7797C22.7839 30.7797 22.7839 30.7797 22.787 30.7767C27.4616 26.5025 34.3749 24.5477 41.9386 24.9965C48.3704 25.3821 52.1225 27.9152 54.2925 30.5207C56.1623 32.7647 57.1066 35.5809 57.1722 38.4605C57.1879 39.0659 57.2223 39.6593 57.2786 40.2466C58.1759 42.3521 60.0207 46.0901 62.2001 47.2226C65.1612 48.7708 63.504 52.8612 60.4147 52.2257Z" fill="black"/>
<path d="M51.3223 48.1016C51.3223 48.1016 54.6585 44.4329 57.3788 47.6197C59.7708 50.4209 58.2794 57.8367 52.451 57.6319" fill="#F88868"/>
<path d="M45.3185 76.1196C45.0246 79.4781 37.8111 81.457 33.7119 75.7522L33.2804 68.3786L32.9614 62.9629L46.1346 65.4268L45.4842 73.963" fill="#FFAE82"/>
<path d="M45.406 74.9931C40.9066 75.0534 35.885 72.0684 33.3742 70.0051L32.9614 62.9629L46.1346 65.4268" fill="#F88868"/>
<path d="M40.3066 69.3857C26.4018 66.3224 23.8754 48.7681 23.8754 48.7681C23.8754 48.7681 23.8316 47.5933 24.063 45.8795C24.1912 44.9397 24.3975 43.8373 24.7415 42.6776C25.7389 39.3041 27.8777 35.4577 32.449 33.78C32.5897 33.7288 32.7367 33.6776 32.8836 33.6264C40.4629 31.039 51.5474 32.2498 54.9212 41.9186C55.1182 42.4909 55.2901 43.1204 55.434 43.7921C55.5153 44.1716 55.5841 44.5662 55.6466 44.9728C57.1568 54.9579 52.8012 72.1418 40.3066 69.3857Z" fill="#FFAE82"/>
<path d="M46.8069 61.7019C46.8069 62.1417 46.6849 62.5453 46.4661 62.8917C46.0502 63.5694 45.281 64.0152 44.4055 64.0152C43.3518 64.0152 42.4419 63.3496 42.1292 62.4248C42.0542 62.1959 42.0042 61.958 42.0042 61.7019C42.0042 60.4218 43.086 59.3887 44.4055 59.3887C45.7344 59.3887 46.8069 60.4218 46.8069 61.7019Z" fill="#920E07"/>
<path d="M46.4662 62.8923C46.0504 63.567 45.2812 64.0158 44.4057 64.0158C43.352 64.0158 42.4421 63.3501 42.1294 62.4254C42.5734 62.2417 43.4114 62.0218 44.6339 62.2326C45.3656 62.3712 46.0191 62.573 46.4662 62.8923Z" fill="#F85C66"/>
<path d="M37.539 51.4519C36.5604 51.5875 35.6567 50.9338 35.5191 49.9941C35.4691 49.6627 35.5223 49.3374 35.6567 49.0513C34.1965 48.8856 34.2246 48.0332 34.2246 48.0332C34.4529 48.3977 36.1601 48.1838 36.8668 48.0814H36.873C36.9575 48.0663 37.0294 48.0543 37.0825 48.0483C37.0857 48.0483 37.0888 48.0483 37.0888 48.0453C37.12 48.0392 37.1482 48.0392 37.1763 48.0392C38.0925 47.979 38.9211 48.6145 39.0524 49.5121C39.19 50.4519 38.5146 51.3194 37.539 51.4519Z" fill="black"/>
<path d="M26.2704 49.1271C26.2704 49.1271 21.28 46.4915 19.6823 50.8651C18.2783 54.7145 22.8184 61.9917 28.8938 59.6091" fill="#FFAE82"/>
<path d="M26.5799 56.4297C26.1484 55.1646 24.9134 52.5591 21.8647 51.3965C21.8647 51.3965 25.1229 54.3574 25.3699 56.6465C25.4043 56.9477 25.6607 57.1797 25.9733 57.1706L26.0453 57.1676C26.4361 57.1556 26.7019 56.7851 26.5799 56.4297Z" fill="#F88868"/>
<path d="M43.2769 66.6261C41.9418 66.3731 41.0194 65.7767 40.9537 65.7315C40.7661 65.611 40.7224 65.3671 40.8474 65.1893C40.9756 65.0116 41.2258 64.9665 41.4134 65.0869C41.5197 65.1592 44.0211 66.7616 46.6632 65.4092C46.8634 65.3068 47.1072 65.3791 47.2136 65.5689C47.3167 65.7616 47.2417 65.9966 47.0447 66.099C45.6752 66.8008 44.3432 66.8249 43.2769 66.6261Z" fill="#F88868"/>
<path d="M45.0843 57.2264H42.9737C42.733 57.2264 42.5422 57.0396 42.5422 56.8077C42.5422 56.5788 42.733 56.3921 42.9737 56.3921H45.0843C45.125 56.3921 45.15 56.371 45.1625 56.3529C45.175 56.3378 45.1906 56.3077 45.1781 56.2716L43.424 50.4914C43.3583 50.2715 43.4897 50.0396 43.721 49.9733C43.9493 49.9101 44.1901 50.0366 44.2557 50.2565L46.0098 56.0366C46.0943 56.3198 46.038 56.618 45.8566 56.8559C45.6721 57.0909 45.3907 57.2264 45.0843 57.2264Z" fill="#F88868"/>
<path d="M38.0866 43.7017C38.2804 44.1324 38.0522 44.6324 37.5863 44.78C36.0385 45.271 32.868 46.4969 31.7892 48.5571C31.7892 48.5571 31.4484 45.6264 36.9891 43.286C37.4112 43.1083 37.9052 43.295 38.0866 43.7017Z" fill="black"/>
<path d="M46.8822 44.0206C46.7696 44.4754 47.0854 44.9303 47.5701 44.9965C49.1835 45.2224 52.526 45.8971 53.9612 47.7466C53.9612 47.7466 53.7674 44.8008 47.8921 43.4272C47.4419 43.3218 46.9916 43.5899 46.8822 44.0206Z" fill="black"/>
<path d="M49.3179 51.2342C50.2935 51.3667 51.1971 50.7131 51.3347 49.7734C51.3878 49.442 51.3315 49.1167 51.1971 48.8306C52.6604 48.6679 52.6292 47.8125 52.6292 47.8125C52.4009 48.177 50.6937 47.9661 49.987 47.8607H49.9839C49.8964 47.8456 49.8244 47.8366 49.7713 47.8276C49.7713 47.8276 49.7682 47.8276 49.765 47.8245C49.7369 47.8215 49.7056 47.8185 49.6806 47.8185C48.7613 47.7613 47.9327 48.3938 47.8014 49.2914C47.6638 50.2312 48.3423 51.1017 49.3179 51.2342Z" fill="black"/>
<path d="M33.662 34.5662C33.662 34.5662 32.9616 46.3193 27.2739 51.0633C27.2739 51.0633 26.783 47.9458 22.3555 48.4157C22.3555 48.4157 21.9365 47.6838 21.2861 44.1506C20.6358 40.6144 22.9715 26.0179 39.7748 26.9577C39.7748 26.9577 45.1185 25.9125 52.5977 32.0752C60.077 38.2349 55.6464 44.9729 55.6464 44.9729C55.6464 44.9729 43.1705 43.3132 33.662 34.5662Z" fill="black"/>
<circle cx="83.4333" cy="43.4333" r="19.4333" fill="#E42525"/>
<path d="M79.0943 35.4489C79.0056 35.1079 78.4675 32.6258 81.4379 32.2064C81.4611 32.203 81.4843 32.1974 81.5071 32.1939C84.1248 31.7767 86.4671 32.0104 87.6721 33.1126C88.5767 33.9404 88.5307 34.7743 88.1616 36.8614C87.3731 41.3229 87.0526 43.9985 86.5273 47.0337C85.8137 51.1572 81.6775 51.297 80.9526 46.7519C80.3014 42.6665 79.2169 36.1586 79.1132 35.5359C79.1085 35.5065 79.102 35.4779 79.0943 35.4489Z" fill="white"/>
<path d="M83.7048 55.8858C85.0012 55.8858 86.0522 54.8285 86.0522 53.5244C86.0522 52.2203 85.0012 51.1631 83.7048 51.1631C82.4084 51.1631 81.3574 52.2203 81.3574 53.5244C81.3574 54.8285 82.4084 55.8858 83.7048 55.8858Z" fill="white"/>
</g>
</svg>
