<svg width="25" height="19" viewBox="0 0 25 19" xmlns="http://www.w3.org/2000/svg">
<path fill-rule="evenodd" clip-rule="evenodd" d="M1.82292 0C1.33945 0 0.875783 0.192057 0.53392 0.53392C0.192057 0.875783 0 1.33945 0 1.82292L0 16.4062C0 17.4125 0.816667 18.2292 1.82292 18.2292H23.1771C23.6605 18.2292 24.1242 18.0371 24.4661 17.6952C24.8079 17.3534 25 16.8897 25 16.4062V1.82292C25 1.33945 24.8079 0.875783 24.4661 0.53392C24.1242 0.192057 23.6605 0 23.1771 0H1.82292ZM1.5625 1.82292C1.5625 1.75385 1.58994 1.68761 1.63877 1.63877C1.68761 1.58994 1.75385 1.5625 1.82292 1.5625H23.1771C23.2461 1.5625 23.3124 1.58994 23.3612 1.63877C23.4101 1.68761 23.4375 1.75385 23.4375 1.82292V2.71042L12.6458 10.0021C12.6028 10.0312 12.552 10.0467 12.5 10.0467C12.448 10.0467 12.3972 10.0312 12.3542 10.0021L1.5625 2.71042V1.82292ZM1.5625 4.59583V16.4062C1.5625 16.55 1.67917 16.6667 1.82292 16.6667H23.1771C23.2461 16.6667 23.3124 16.6392 23.3612 16.5904C23.4101 16.5416 23.4375 16.4753 23.4375 16.4062V4.59583L13.5208 11.2969C12.9042 11.7135 12.0958 11.7135 11.4792 11.2969L1.5625 4.59583Z" />
</svg>
