<svg width="60" height="61" viewBox="0 0 60 61" fill="none" xmlns="http://www.w3.org/2000/svg">
<circle cx="30" cy="30.2588" r="30" fill="#FFECEC"/>
<path d="M43.1937 39.0005H16.0684V44.1672H43.1937V39.0005Z" fill="#71113D"/>
<path d="M17.6973 16.063H17.2393V39.0012H17.6973V16.063Z" fill="#A2004A"/>
<path d="M41.7591 16.063H41.301V39.0012H41.7591V16.063Z" fill="#A2004A"/>
<path d="M18.427 13.418V14.7238C18.427 15.676 19.1473 16.4495 20.0367 16.4495H21.2466C22.1348 16.4495 22.8563 15.6773 22.8563 14.7238V13.418H18.4282H18.427Z" fill="#CB4282"/>
<path d="M14 13.418V14.7238C14 15.676 14.7203 16.4495 15.6097 16.4495H16.8196C17.7078 16.4495 18.4293 15.6773 18.4293 14.7238V13.418H14Z" fill="#FFA5CF"/>
<path d="M22.8577 13.418V14.7238C22.8577 15.676 23.578 16.4495 24.4674 16.4495H25.6773C26.5654 16.4495 27.287 15.6773 27.287 14.7238V13.418H22.8588H22.8577Z" fill="#FFA5CF"/>
<path d="M36.1433 13.418V14.7238C36.1433 15.676 36.8637 16.4495 37.753 16.4495H38.9629C39.8511 16.4495 40.5726 15.6773 40.5726 14.7238V13.418H36.1445H36.1433Z" fill="#CB4282"/>
<path d="M42.1798 16.4485H43.3897C44.2779 16.4485 44.9994 15.6763 44.9994 14.7228V13.417H40.5713V14.7228C40.5713 15.675 41.2916 16.4485 42.181 16.4485H42.1798Z" fill="#FFA5CF"/>
<path d="M27.2866 13.418V14.7238C27.2866 15.676 28.007 16.4495 28.8963 16.4495H30.1062C30.9944 16.4495 31.7159 15.6773 31.7159 14.7238V13.418H27.2878H27.2866Z" fill="#CB4282"/>
<path d="M31.7136 13.418V14.7238C31.7136 15.676 32.434 16.4495 33.3233 16.4495H34.5332C35.4214 16.4495 36.1429 15.6773 36.1429 14.7238V13.418H31.7148H31.7136Z" fill="#FFA5CF"/>
<path d="M22.2933 8.25879L18.427 13.4184H22.8563L25.1758 8.25879H22.2933Z" fill="#DB3683"/>
<path d="M19.4119 8.25879L14 13.4184H18.4281L22.2944 8.25879H19.4119Z" fill="#FAC8DF"/>
<path d="M25.1772 8.25879L22.8577 13.4184H27.2858L28.0586 8.25879H25.1772Z" fill="#FAC8DF"/>
<path d="M33.8232 8.25879L36.1428 13.4184H40.5709L36.7046 8.25879H33.8232Z" fill="#DB3683"/>
<path d="M40.5721 13.4184H45.0002L39.5883 8.25879H36.7058L40.5721 13.4184Z" fill="#FAC8DF"/>
<path d="M28.0594 8.25879L27.2866 13.4184H31.7147L30.942 8.25879H28.0594Z" fill="#DB3683"/>
<path d="M30.9412 8.25879L31.714 13.4184H36.1432L33.8237 8.25879H30.9412Z" fill="#FAC8DF"/>
<path d="M20.9651 22.2379C20.9651 22.2379 18.7287 22.1067 18.257 23.0291C17.7853 23.9514 19.718 25.8985 20.9083 25.858C22.0985 25.8175 20.9651 22.2379 20.9651 22.2379Z" fill="#FCAE92"/>
<path d="M32.4603 50.9C32.4603 50.9 26.5284 49.2484 24.8441 45.6805C23.1597 42.1131 29.4826 40.4514 29.3935 40.4684C29.3044 40.4853 36.2256 41.0242 36.8719 42.0121C37.5185 43.0001 40.3161 47.0968 39.515 47.249C38.7143 47.4007 32.4603 50.9 32.4603 50.9Z" fill="#F79386"/>
<path d="M21.481 18.098C21.481 18.0896 21.4813 18.0815 21.4817 18.073C21.4938 17.7919 21.7135 17.5639 21.993 17.5429C22.0011 17.5422 22.0095 17.5418 22.018 17.5411C22.0209 17.5411 22.0235 17.5407 22.026 17.5407L34.3781 17.3389C34.381 17.3389 34.3836 17.3389 34.3861 17.3389C34.3946 17.3389 34.4026 17.3392 34.4111 17.3396C34.6909 17.3518 34.918 17.5724 34.9393 17.8527C34.94 17.8608 34.9404 17.8693 34.9411 17.8778C34.9411 17.8807 34.9415 17.8833 34.9418 17.8859L35.3596 43.6773C35.364 43.9455 35.1509 44.1665 34.8839 44.1709L22.3895 44.3749C22.1225 44.3794 21.9024 44.1657 21.898 43.8972L21.4802 18.1058C21.4802 18.1028 21.4802 18.1002 21.4802 18.0977L21.481 18.098Z" fill="#EFB0CD"/>
<path d="M35.1536 17.7245L34.132 17.0464L22.0973 17.2744L21.0566 18.224C21.0566 18.224 21.1762 19.3011 21.2426 19.3165C21.309 19.332 35.2819 19.2668 35.2779 19.0509C35.2739 18.8351 35.1539 17.7249 35.1539 17.7249L35.1536 17.7245Z" fill="#A2004A"/>
<g opacity="0.5">
<path d="M33.8714 18.3186C33.8725 18.3945 33.9187 18.459 33.9836 18.487C34.0067 18.4973 34.0328 18.5028 34.0603 18.5021C34.087 18.5017 34.1127 18.4954 34.1358 18.4844C34.2 18.4546 34.244 18.3883 34.2429 18.3124C34.2411 18.2092 34.1564 18.1271 34.054 18.1289C33.9513 18.1308 33.8695 18.2155 33.8714 18.3186Z" fill="white"/>
<path d="M33.2967 18.3279C33.2978 18.4038 33.344 18.4683 33.4089 18.4962C33.432 18.5066 33.4581 18.5121 33.4856 18.5114C33.5127 18.511 33.5387 18.5047 33.5615 18.4937C33.6257 18.4635 33.6697 18.3975 33.6682 18.3217C33.6664 18.2185 33.582 18.1364 33.4793 18.1382C33.3766 18.1401 33.2948 18.2248 33.2967 18.3279Z" fill="white"/>
<path d="M32.7217 18.3382C32.7228 18.414 32.769 18.4785 32.8339 18.5065C32.8571 18.5168 32.8831 18.5223 32.9106 18.5216C32.9381 18.5209 32.9638 18.515 32.9865 18.5039C33.0507 18.4737 33.0947 18.4078 33.0933 18.3319C33.0914 18.2288 33.0071 18.1466 32.9044 18.1485C32.8017 18.1503 32.7199 18.235 32.7217 18.3382Z" fill="white"/>
</g>
<path d="M21.4863 18.3904C21.479 17.9266 21.8473 17.5446 22.3087 17.5369L34.0977 17.3443C34.5595 17.3369 34.9399 17.7063 34.9476 18.1701L35.3566 43.4112C35.3632 43.8271 35.033 44.1693 34.6193 44.1759L22.6572 44.3715C22.2434 44.3781 21.9023 44.047 21.8957 43.6311L21.4867 18.39L21.4863 18.3904ZM20.9182 18.3856L21.3315 43.8868C21.344 44.6518 21.9716 45.2618 22.7335 45.2493L34.5716 45.0559C35.3335 45.0434 35.9409 44.4131 35.9284 43.6481L35.515 18.1469C35.5026 17.3818 34.875 16.7718 34.1131 16.7844L22.275 16.9778C21.5131 16.9903 20.9057 17.6205 20.9182 18.3856Z" fill="#790038"/>
<path d="M37.8118 52.9097C35.0992 54.8806 31.7701 55.7566 31.4363 55.9181L31.4363 51.6511L31.438 50.2235L31.5683 47.5334L31.5665 47.525L31.5609 47.4969L31.5935 47.4822L31.6646 47.4501L34.6828 46.0968H34.6835L36.6625 45.2093L36.7427 45.1734C36.7427 45.1734 35.3796 45.0198 34.492 43.7627C34.4909 43.7614 34.4906 43.7602 34.4895 43.7589C34.4888 43.758 34.4885 43.7574 34.4881 43.7564C34.3242 43.5244 34.1772 43.2546 34.0574 42.9418C33.972 42.7176 33.9002 42.4709 33.8477 42.2002C33.8015 41.9653 33.7696 41.7127 33.7539 41.4401C33.7301 41.0214 33.7318 40.6245 33.7528 40.2501C33.7682 39.9835 33.7934 39.7287 33.8267 39.4851C33.8663 39.1919 33.9177 38.9162 33.9766 38.658C34.1394 37.9445 34.3607 37.3659 34.5623 36.9359C34.8369 36.3495 35.0739 36.0397 35.0739 36.0397C35.0739 36.0397 34.7871 35.1248 34.4962 33.9811C34.472 33.8877 34.4485 33.7931 34.4251 33.6972C34.1082 32.4123 33.813 30.9213 33.9086 30.1169C34.0095 29.2589 34.6219 28.4277 35.264 28.1329C35.445 28.0492 35.6292 28.0089 35.8043 28.0227C36.041 28.0414 36.2626 28.1585 36.4415 28.4036C36.4682 28.4398 36.4937 28.4792 36.5182 28.521C36.5501 28.576 36.5806 28.6356 36.6089 28.7003C36.6089 28.7003 36.6089 28.7009 36.6096 28.7015C36.6373 28.7646 36.6632 28.8317 36.6866 28.9041C36.6866 28.9041 36.7308 29.228 36.8204 29.6885C36.8246 29.7104 36.8292 29.7329 36.8334 29.7557C36.8376 29.7769 36.8418 29.7981 36.846 29.8187C36.9184 30.1728 37.0147 30.5909 37.1369 31.0003V31.0015C37.1369 31.0015 37.1369 31.0015 37.1369 31.0022C37.1464 31.0346 37.1565 31.0677 37.1667 31.0999C37.3018 31.5371 37.4671 31.9567 37.6625 32.2696C38.3278 33.3347 39.8873 36.1315 40.2451 37.4055C40.6026 38.6789 40.382 44.2857 40.382 44.2857L40.7356 50.3299C40.7356 50.3299 40.1545 51.0483 39.4147 51.6511C38.6749 52.2539 37.8118 52.9097 37.8118 52.9097Z" fill="#FCAE92"/>
<path d="M21.1363 34.6992L21.1546 35.6429C21.1546 35.6429 22.6798 36.7097 22.5628 38.4428C22.4458 40.1762 21.3733 40.5803 21.3733 40.5803C21.3733 40.5803 19.2146 38.568 19.094 37.7532C18.9733 36.9388 18.7202 35.5173 21.1367 34.6992H21.1363Z" fill="#FCAE92"/>
<path d="M21.2711 41.125L21.2854 41.8624C21.2854 41.8624 22.4772 42.696 22.3858 44.0504C22.2945 45.4048 21.4564 45.7205 21.4564 45.7205C21.4564 45.7205 19.7694 44.148 19.6752 43.5115C19.5809 42.875 19.3832 41.7645 21.2715 41.125H21.2711Z" fill="#FCAE92"/>
<path d="M34.2166 45.9059C34.2166 45.9059 35.4967 47.9999 34.492 48.79C33.4874 49.5798 37.3329 49.193 37.3124 49.0829C37.2918 48.9728 39.3129 45.2248 38.624 45.1843C37.9348 45.1438 35.7336 44.7629 35.361 45.3467C34.9879 45.9306 34.2166 45.9059 34.2166 45.9059Z" fill="#FCAE92"/>
<path d="M21.0218 29.1143L21.0401 30.058C21.0401 30.058 22.5653 31.1247 22.4483 32.8578C22.3313 34.5912 21.2588 34.9953 21.2588 34.9953C21.2588 34.9953 19.1001 32.9827 18.9794 32.1682C18.8588 31.3538 18.6057 29.9324 21.0222 29.1143H21.0218Z" fill="#FCAE92"/>
<path d="M21.0212 30.0582L20.895 19.7102L20.968 19.708L21.0942 30.056L21.0212 30.0582Z" fill="black"/>
<path d="M31.7306 34.1497C33.6035 32.2689 33.6035 29.2194 31.7306 27.3386C29.8577 25.4578 26.821 25.4578 24.9481 27.3386C23.0752 29.2194 23.0752 32.2689 24.9481 34.1497C26.821 36.0305 29.8577 36.0305 31.7306 34.1497Z" fill="white"/>
<path d="M27.4485 33.1973L25.6398 30.6711C25.5543 30.5514 25.5811 30.3849 25.7003 30.2991C25.8195 30.2133 25.9853 30.2405 26.0708 30.3599L27.4679 32.311L30.9606 27.8613C31.0516 27.7457 31.2185 27.7258 31.3337 27.8171C31.4488 27.9085 31.4686 28.0761 31.3777 28.1918L27.4485 33.1976V33.1973Z" fill="#CA005D"/>
<path d="M29.9741 34.6993L31.9519 36.6619L31.0859 33.5449L29.9741 34.6993Z" fill="white"/>
<path d="M32.6129 39.2627H24.4109V39.6719H32.6129V39.2627Z" fill="#CA005D"/>
<path d="M32.6129 40.9565H24.4109V41.3658H32.6129V40.9565Z" fill="#CA005D"/>
</svg>
