<svg width="24" height="24" viewBox="0 0 24 24" fill="none" xmlns="http://www.w3.org/2000/svg">
<path d="M4.5 9V21H19.5V9L12 3L4.5 9Z" fill="white"/>
<path d="M4.5 21H3.75C3.75 21.4142 4.08579 21.75 4.5 21.75V21ZM4.5 9H5.25C5.25 8.7117 5.08474 8.44891 4.82489 8.32402C4.56504 8.19913 4.25661 8.23425 4.03148 8.41435L4.5 9ZM1.53148 10.4143C1.20803 10.6731 1.15559 11.1451 1.41435 11.4685C1.67311 11.792 2.14507 11.8444 2.46852 11.5857L1.53148 10.4143ZM12 3L12.4685 2.41435C12.1946 2.19522 11.8054 2.19522 11.5315 2.41435L12 3ZM21.5315 11.5857C21.8549 11.8444 22.3269 11.792 22.5857 11.4685C22.8444 11.1451 22.792 10.6731 22.4685 10.4143L21.5315 11.5857ZM19.5 9L19.9685 8.41435C19.7434 8.23425 19.435 8.19913 19.1751 8.32402C18.9153 8.44891 18.75 8.7117 18.75 9H19.5ZM19.5 21V21.75C19.9142 21.75 20.25 21.4142 20.25 21H19.5ZM5.25 21V9H3.75V21H5.25ZM4.03148 8.41435L1.53148 10.4143L2.46852 11.5857L4.96852 9.58565L4.03148 8.41435ZM2.46852 11.5857L12.4685 3.58565L11.5315 2.41435L1.53148 10.4143L2.46852 11.5857ZM11.5315 3.58565L21.5315 11.5857L22.4685 10.4143L12.4685 2.41435L11.5315 3.58565ZM22.4685 10.4143L19.9685 8.41435L19.0315 9.58565L21.5315 11.5857L22.4685 10.4143ZM18.75 9V21H20.25V9H18.75ZM19.5 20.25H4.5V21.75H19.5V20.25Z" fill="white"/>
<path d="M9.63948 13.6836L7.43359 16.0007L9.63948 18.3177V16.8543H13.3159V15.147H9.63948V13.6836Z" fill="#CA005D"/>
<path fill-rule="evenodd" clip-rule="evenodd" d="M9.70775 13.513C9.77766 13.5407 9.82353 13.608 9.82353 13.6829V14.9634H13.3162C13.4177 14.9634 13.5 15.0453 13.5 15.1463V16.8537C13.5 16.9547 13.4177 17.0366 13.3162 17.0366H9.82353V18.3171C9.82353 18.392 9.77766 18.4593 9.70775 18.487C9.63784 18.5147 9.55801 18.4972 9.50626 18.4429L7.30038 16.1258C7.23321 16.0553 7.23321 15.9447 7.30038 15.8742L9.50626 13.5571C9.55801 13.5028 9.63784 13.4853 9.70775 13.513ZM7.68704 16L9.45588 17.858V16.8537C9.45588 16.7526 9.53818 16.6707 9.63971 16.6707H13.1324V15.3293H9.63971C9.53818 15.3293 9.45588 15.2474 9.45588 15.1463V14.142L7.68704 16Z" fill="#CA005D"/>
<path d="M14.3605 9.68359L16.5664 12.0007L14.3605 14.3177V12.8543H10.6841V11.147H14.3605V9.68359Z" fill="#CA005D"/>
<path fill-rule="evenodd" clip-rule="evenodd" d="M14.2922 9.513C14.2223 9.54072 14.1765 9.60805 14.1765 9.68293V10.9634H10.6838C10.5823 10.9634 10.5 11.0453 10.5 11.1463V12.8537C10.5 12.9547 10.5823 13.0366 10.6838 13.0366H14.1765V14.3171C14.1765 14.392 14.2223 14.4593 14.2922 14.487C14.3622 14.5147 14.442 14.4972 14.4937 14.4429L16.6996 12.1258C16.7668 12.0553 16.7668 11.9447 16.6996 11.8742L14.4937 9.55713C14.442 9.50276 14.3622 9.48528 14.2922 9.513ZM16.313 12L14.5441 13.858V12.8537C14.5441 12.7526 14.4618 12.6707 14.3603 12.6707H10.8676V11.3293H14.3603C14.4618 11.3293 14.5441 11.2474 14.5441 11.1463V10.142L16.313 12Z" fill="#CA005D"/>
</svg>
