<svg width="26" height="26" viewBox="0 0 26 26" fill="none" xmlns="http://www.w3.org/2000/svg">
<path d="M4.875 9.75V22.75H21.125V9.75L13 3.25L4.875 9.75Z" fill="#665F59"/>
<path d="M4.87533 22.75V9.75L2.16699 11.9167L13.0003 3.25L23.8337 11.9167L21.1253 9.75V22.75H4.87533Z" fill="white"/>
<path d="M4.87533 22.75H4.12533C4.12533 23.1642 4.46111 23.5 4.87533 23.5V22.75ZM4.87533 9.75H5.62533C5.62533 9.4617 5.46007 9.19891 5.20022 9.07402C4.94037 8.94913 4.63193 8.98425 4.4068 9.16435L4.87533 9.75ZM1.69847 11.331C1.37502 11.5898 1.32258 12.0617 1.58134 12.3852C1.8401 12.7086 2.31207 12.7611 2.63551 12.5023L1.69847 11.331ZM13.0003 3.25L13.4688 2.66435C13.1949 2.44522 12.8057 2.44522 12.5318 2.66435L13.0003 3.25ZM23.3651 12.5023C23.6886 12.7611 24.1606 12.7086 24.4193 12.3852C24.6781 12.0617 24.6256 11.5898 24.3022 11.331L23.3651 12.5023ZM21.1253 9.75L21.5938 9.16435C21.3687 8.98425 21.0603 8.94913 20.8004 9.07402C20.5406 9.19891 20.3753 9.4617 20.3753 9.75H21.1253ZM21.1253 22.75V23.5C21.5395 23.5 21.8753 23.1642 21.8753 22.75H21.1253ZM5.62533 22.75V9.75H4.12533V22.75H5.62533ZM4.4068 9.16435L1.69847 11.331L2.63551 12.5023L5.34385 10.3357L4.4068 9.16435ZM2.63551 12.5023L13.4688 3.83565L12.5318 2.66435L1.69847 11.331L2.63551 12.5023ZM12.5318 3.83565L23.3651 12.5023L24.3022 11.331L13.4688 2.66435L12.5318 3.83565ZM24.3022 11.331L21.5938 9.16435L20.6568 10.3357L23.3651 12.5023L24.3022 11.331ZM20.3753 9.75V22.75H21.8753V9.75H20.3753ZM21.1253 22H4.87533V23.5H21.1253V22Z" fill="#665F59"/>
<g clip-path="url(#clip0_9687_136803)">
<path d="M10.4405 14.8242L8.05078 17.3344L10.4405 19.8445V18.2592H14.4233V16.4096H10.4405V14.8242Z" fill="#665F59"/>
<path fill-rule="evenodd" clip-rule="evenodd" d="M10.5151 14.6391C10.5908 14.6691 10.6405 14.742 10.6405 14.8232V16.2104H14.4242C14.5342 16.2104 14.6234 16.2991 14.6234 16.4085V18.2581C14.6234 18.3676 14.5342 18.4563 14.4242 18.4563H10.6405V19.8435C10.6405 19.9246 10.5908 19.9976 10.5151 20.0276C10.4394 20.0576 10.3529 20.0387 10.2968 19.9798L7.90711 17.4696C7.83435 17.3932 7.83435 17.2735 7.90711 17.197L10.2968 14.6869C10.3529 14.628 10.4394 14.6091 10.5151 14.6391ZM8.326 17.3333L10.2422 19.3462V18.2581C10.2422 18.1487 10.3314 18.06 10.4414 18.06H14.2251V16.6067H10.4414C10.3314 16.6067 10.2422 16.518 10.2422 16.4085V15.3205L8.326 17.3333Z" fill="#665F59"/>
<path d="M15.5566 10.4902L17.9463 13.0004L15.5566 15.5105V13.9252H11.5737V12.0756H15.5566V10.4902Z" fill="#665F59"/>
<path fill-rule="evenodd" clip-rule="evenodd" d="M15.482 10.3051C15.4062 10.3351 15.3565 10.4081 15.3565 10.4892V11.8764H11.5728C11.4629 11.8764 11.3737 11.9651 11.3737 12.0746V13.9241C11.3737 14.0336 11.4629 14.1223 11.5728 14.1223H15.3565V15.5095C15.3565 15.5906 15.4062 15.6636 15.482 15.6936C15.5577 15.7236 15.6442 15.7047 15.7003 15.6458L18.09 13.1356C18.1627 13.0592 18.1627 12.9395 18.09 12.8631L15.7003 10.3529C15.6442 10.294 15.5577 10.2751 15.482 10.3051ZM17.6711 12.9993L15.7548 15.0122V13.9241C15.7548 13.8147 15.6657 13.726 15.5557 13.726H11.772V12.2727H15.5557C15.6657 12.2727 15.7548 12.184 15.7548 12.0746V10.9865L17.6711 12.9993Z" fill="#665F59"/>
</g>
<defs>
<clipPath id="clip0_9687_136803">
<rect width="10.8333" height="10.8333" fill="white" transform="translate(7.58203 9.75)"/>
</clipPath>
</defs>
</svg>
