<svg width="25" height="22" viewBox="0 0 25 22" fill="none" xmlns="http://www.w3.org/2000/svg">
<path d="M12.4999 0.5C11.6768 0.5 10.9323 0.894089 10.5037 1.5901L0.31665 18.1555C-0.111991 18.8539 -0.102543 19.7124 0.327306 20.4099C0.712594 21.035 1.4338 21.5022 2.25833 21.5H22.7416C23.5662 21.5033 24.2876 21.035 24.6726 20.4099C25.1025 19.7122 25.1121 18.8536 24.6833 18.1555L14.4962 1.5901C14.0676 0.893811 13.3231 0.5 12.5 0.5H12.4999ZM12.4999 2.53238C12.566 2.53238 12.6893 2.61106 12.706 2.63823L22.8931 19.2036C22.9098 19.2308 22.9098 19.3352 22.8931 19.3624C22.8318 19.4618 22.8078 19.4684 22.7412 19.4682H2.25797C2.19162 19.4684 2.1674 19.4618 2.10613 19.3624C2.08942 19.3352 2.08942 19.2308 2.10613 19.2036L12.2932 2.63823C12.3099 2.61106 12.4332 2.53238 12.4993 2.53238H12.4999ZM12.4999 6.59685C11.5411 6.59685 10.764 7.35501 10.764 8.2904L11.1113 13.3711C11.1113 14.1193 11.7329 14.7258 12.4999 14.7258C13.2668 14.7258 13.8884 14.1193 13.8884 13.3711L14.2357 8.2904C14.2357 7.35501 13.4587 6.59685 12.4999 6.59685ZM12.4999 15.4033C11.5411 15.4033 10.764 16.1615 10.764 17.0969C10.764 18.0323 11.5411 18.7904 12.4999 18.7904C13.4587 18.7904 14.2358 18.0323 14.2358 17.0969C14.2358 16.1615 13.4587 15.4033 12.4999 15.4033Z" fill="#CC8100"/>
</svg>
