<svg width="24" height="18" viewBox="0 0 24 18"  xmlns="http://www.w3.org/2000/svg">
<path d="M11.9997 12C13.6565 12 14.9997 10.6569 14.9997 9C14.9997 7.34315 13.6565 6 11.9997 6C10.3428 6 8.99968 7.34315 8.99968 9C8.99968 10.6569 10.3428 12 11.9997 12Z" />
<path d="M23.2047 8.745C22.3226 6.46324 20.7912 4.48996 18.7998 3.06906C16.8084 1.64817 14.4443 0.84193 11.9997 0.75C9.55507 0.84193 7.19097 1.64817 5.19958 3.06906C3.20819 4.48996 1.6768 6.46324 0.794681 8.745C0.735106 8.90978 0.735106 9.09022 0.794681 9.255C1.6768 11.5368 3.20819 13.51 5.19958 14.9309C7.19097 16.3518 9.55507 17.1581 11.9997 17.25C14.4443 17.1581 16.8084 16.3518 18.7998 14.9309C20.7912 13.51 22.3226 11.5368 23.2047 9.255C23.2643 9.09022 23.2643 8.90978 23.2047 8.745ZM11.9997 13.875C11.0355 13.875 10.093 13.5891 9.29128 13.0534C8.48959 12.5177 7.86475 11.7564 7.49577 10.8656C7.12679 9.97479 7.03025 8.99459 7.21835 8.04893C7.40646 7.10328 7.87075 6.23464 8.55254 5.55285C9.23432 4.87107 10.103 4.40677 11.0486 4.21867C11.9943 4.03057 12.9745 4.12711 13.8653 4.49609C14.7561 4.86506 15.5174 5.48991 16.0531 6.2916C16.5888 7.09328 16.8747 8.03582 16.8747 9C16.8727 10.2923 16.3584 11.5311 15.4446 12.445C14.5308 13.3588 13.292 13.873 11.9997 13.875Z" />
</svg>
