<svg width="24" height="18" viewBox="0 0 24 18"  xmlns="http://www.w3.org/2000/svg">
<path d="M23.2047 8.745C22.3226 6.46324 20.7912 4.48996 18.7998 3.06906C16.8084 1.64817 14.4443 0.84193 11.9997 0.75C9.55507 0.84193 7.19097 1.64817 5.19958 3.06906C3.20819 4.48996 1.6768 6.46324 0.794681 8.745C0.735106 8.90978 0.735106 9.09022 0.794681 9.255C1.6768 11.5368 3.20819 13.51 5.19958 14.9309C7.19097 16.3518 9.55507 17.1581 11.9997 17.25C14.4443 17.1581 16.8084 16.3518 18.7998 14.9309C20.7912 13.51 22.3226 11.5368 23.2047 9.255C23.2643 9.09022 23.2643 8.90978 23.2047 8.745ZM11.9997 15.75C8.02468 15.75 3.82468 12.8025 2.30218 9C3.82468 5.1975 8.02468 2.25 11.9997 2.25C15.9747 2.25 20.1747 5.1975 21.6972 9C20.1747 12.8025 15.9747 15.75 11.9997 15.75Z" />
<path d="M11.9997 4.5C11.1097 4.5 10.2396 4.76392 9.49962 5.25839C8.75959 5.75285 8.18282 6.45566 7.84222 7.27792C7.50163 8.10019 7.41251 9.00499 7.58615 9.87791C7.75978 10.7508 8.18836 11.5526 8.8177 12.182C9.44704 12.8113 10.2489 13.2399 11.1218 13.4135C11.9947 13.5872 12.8995 13.4981 13.7218 13.1575C14.544 12.8169 15.2468 12.2401 15.7413 11.5001C16.2358 10.76 16.4997 9.89002 16.4997 9C16.4997 7.80653 16.0256 6.66193 15.1817 5.81802C14.3377 4.97411 13.1932 4.5 11.9997 4.5ZM11.9997 12C11.4063 12 10.8263 11.8241 10.333 11.4944C9.83962 11.1648 9.45511 10.6962 9.22804 10.148C9.00098 9.59987 8.94157 8.99667 9.05733 8.41473C9.17308 7.83279 9.4588 7.29824 9.87836 6.87868C10.2979 6.45912 10.8325 6.1734 11.4144 6.05764C11.9964 5.94189 12.5996 6.0013 13.1477 6.22836C13.6959 6.45542 14.1644 6.83994 14.4941 7.33329C14.8237 7.82664 14.9997 8.40666 14.9997 9C14.9997 9.79565 14.6836 10.5587 14.121 11.1213C13.5584 11.6839 12.7953 12 11.9997 12Z" />
</svg>
