<svg width="47" height="61" viewBox="0 0 47 61" fill="none" xmlns="http://www.w3.org/2000/svg">
<path d="M36.3726 9.15176C36.3726 9.15176 30.771 8.66947 19.7738 17.9269C13.3488 23.3323 5.17725 32.3267 5.17725 32.3267L10.7601 48.3675C10.7601 48.3675 25.6435 35.6463 28.8747 33.3977C35.019 29.1198 46.3219 23.9023 46.3219 23.9023L36.3726 9.15176Z" fill="#C6E17D" stroke="#7EA343" stroke-width="0.8" stroke-miterlimit="10"/>
<path d="M19.9612 21.1276C21.9822 18.9604 25.1261 19.023 27.3966 22.1423C30.0041 25.7313 28.7939 29.433 27.3343 30.8986C25.8746 32.3643 22.0758 35.4021 18.9194 31.1053C16.8235 28.2492 17.1417 23.7896 18.146 22.7436C19.144 21.6976 19.9674 21.1276 19.9674 21.1276H19.9612Z" fill="#7EA343"/>
<path d="M19.9352 30.1469L21.5944 28.8253C21.7878 29.1071 21.9874 29.2888 22.187 29.3702C22.5114 29.5017 22.842 29.4454 23.1851 29.2074C23.4408 29.0257 23.6092 28.819 23.6779 28.5935C23.7465 28.368 23.7402 28.1614 23.6467 27.986C23.5593 27.8169 23.4159 27.7166 23.2163 27.6791C23.0166 27.6415 22.6424 27.7292 22.0935 27.9547C21.2014 28.3117 20.4966 28.4432 19.9913 28.3555C19.4798 28.2678 19.0993 27.9734 18.8373 27.4661C18.6689 27.1341 18.594 26.7583 18.6127 26.3449C18.6377 25.9315 18.7749 25.5119 19.0432 25.1048C19.3051 24.6914 19.7418 24.2717 20.3531 23.8458C21.1016 23.3259 21.7504 23.0817 22.2993 23.113C22.8482 23.1443 23.3348 23.47 23.7527 24.0838L22.1059 25.3804C21.9126 25.1236 21.7067 24.9795 21.4946 24.9482C21.2825 24.9169 21.0455 24.992 20.7897 25.1674C20.5777 25.3115 20.4467 25.4743 20.3905 25.6434C20.3344 25.8188 20.3406 25.9754 20.4155 26.1132C20.4716 26.2134 20.5589 26.276 20.6899 26.3011C20.8209 26.3261 21.0642 26.2635 21.4198 26.1132C22.3055 25.7499 22.973 25.5432 23.4159 25.4994C23.8588 25.4555 24.2268 25.5182 24.5324 25.6935C24.8381 25.8689 25.0751 26.132 25.256 26.4827C25.4681 26.8961 25.5617 27.3471 25.5305 27.8419C25.5055 28.3367 25.3496 28.8002 25.0689 29.2449C24.7882 29.6834 24.364 30.103 23.7964 30.4976C22.7983 31.1929 21.9999 31.4622 21.4011 31.3056C20.796 31.149 20.3032 30.767 19.9165 30.1531L19.9352 30.1469Z" fill="#C6E17D"/>
<path d="M23.8465 21.3527L24.6262 20.6825L27.2773 28.0735L26.5038 28.7374L23.8465 21.3527Z" fill="#C6E17D"/>
<path d="M11.7642 44.6097L7.38525 32.0138L7.69091 31.6693C8.04646 31.2685 16.4301 21.8231 21.8757 17.7894C29.8414 11.8829 34.4325 10.9497 34.6196 10.9184L35.1311 10.8181L43.3151 23.1447L42.4855 23.5268C42.3919 23.5706 33.2286 27.8298 28.3069 31.3561C22.618 35.4274 12.7373 43.7954 12.6375 43.8769L11.7704 44.6097H11.7642ZM9.1568 32.3646L12.4878 41.9477C15.0391 39.8056 22.6492 33.4669 27.3962 30.0784C31.613 27.0594 38.6056 23.6333 41.0009 22.4933L34.42 12.5845C33.0726 12.9853 28.9868 14.4635 22.7927 19.0484C18.0519 22.5622 10.735 30.6108 9.1568 32.3708V32.3646Z" fill="#7EA343"/>
<path d="M34.4206 14.983C33.7657 14.8577 33.3415 14.1938 33.4725 13.5048C33.6035 12.8096 34.2397 12.3523 34.8947 12.4776C35.5497 12.6029 35.9738 13.2668 35.8428 13.9558C35.7119 14.651 35.0756 15.1083 34.4206 14.983Z" fill="#7EA343"/>
<path d="M40.0837 23.1444C39.4287 23.0191 39.0046 22.3552 39.1356 21.6662C39.2666 20.971 39.9028 20.5137 40.5578 20.639C41.2128 20.7643 41.6369 21.4282 41.5059 22.1172C41.3749 22.8124 40.7387 23.2697 40.0837 23.1444Z" fill="#7EA343"/>
<path d="M12.6511 42.8688C11.9961 42.7436 11.5719 42.0796 11.7029 41.3906C11.8339 40.6954 12.4702 40.2382 13.1252 40.3634C13.7801 40.4887 14.2043 41.1526 14.0733 41.8416C13.9423 42.5369 13.3061 42.9941 12.6511 42.8688Z" fill="#7EA343"/>
<path d="M9.28188 34.1559C8.62691 34.0306 8.22145 33.2665 8.37116 32.446C8.52711 31.6255 9.18208 31.068 9.84329 31.1933C10.5045 31.3186 10.9037 32.0827 10.754 32.9032C10.5981 33.7237 9.94309 34.2812 9.28188 34.1559Z" fill="#7EA343"/>
<path d="M30.6346 4.37263L30.4636 4.20495L30.2258 4.23301L30.2844 4.72957C30.2258 4.23301 30.2254 4.23307 30.2249 4.23313L30.2238 4.23326L30.2212 4.23357L30.2145 4.23445L30.1945 4.23725C30.1782 4.23963 30.1563 4.24309 30.1287 4.24795C30.0735 4.25766 29.9957 4.27298 29.8958 4.29648C29.6961 4.3435 29.4086 4.42322 29.038 4.5563C28.2965 4.82253 27.2239 5.30175 25.8575 6.15836C23.1249 7.87135 19.2195 11.0919 14.4351 17.1341L14.435 17.1342C11.6435 20.6616 8.58871 25.2163 6.23635 28.8808C5.05909 30.7148 4.0557 32.329 3.34653 33.4849C2.99192 34.0629 2.71082 34.5264 2.51825 34.8456C2.42197 35.0052 2.34782 35.1287 2.29768 35.2124L2.24071 35.3077L2.22617 35.332L2.22246 35.3383L2.22151 35.3399L2.22126 35.3403C2.2212 35.3404 2.22116 35.3405 2.65088 35.5961L2.22116 35.3405L2.06918 35.5959L2.22105 35.8515L11.4593 51.3975L11.8375 52.0341L12.2866 51.4453L11.8891 51.1421C12.2866 51.4453 12.2867 51.4453 12.2868 51.4451L12.2872 51.4446L12.2889 51.4423L12.2958 51.4333L12.3232 51.3975L12.4302 51.2573C12.5241 51.1344 12.6623 50.9536 12.8391 50.7225C13.1929 50.2602 13.7015 49.5963 14.321 48.7901C15.5598 47.1777 17.2416 44.9963 19.0135 42.7202C22.5675 38.1548 26.4544 33.2469 27.877 31.7505C30.6036 28.8856 34.6502 25.5506 38.0307 22.922C39.718 21.6101 41.2337 20.4784 42.3276 19.6748C42.8744 19.273 43.3157 18.9534 43.62 18.7343C43.7721 18.6248 43.8901 18.5404 43.9698 18.4835L44.0603 18.419L44.0832 18.4028L44.0889 18.3988L44.0903 18.3978L44.0906 18.3976L43.8018 17.9894L44.0906 18.3975L44.5793 18.0517L44.1519 17.6325L30.6346 4.37263Z" fill="#C6E17D" stroke="#7EA343" stroke-miterlimit="10"/>
<path d="M15.7061 20.7457C17.3529 18.0524 20.6527 17.4449 23.6781 20.2133C27.1588 23.3952 26.6847 27.5228 25.4746 29.3643C24.2644 31.212 20.9397 35.1893 16.7354 31.3811C13.9408 28.8507 13.3295 24.128 14.1467 22.8189C14.9701 21.5161 15.6999 20.7457 15.6999 20.7457H15.7061Z" fill="#7EA343"/>
<path d="M17.596 30.1659L19.0494 28.4309C19.3114 28.6814 19.5546 28.8318 19.7792 28.8694C20.141 28.9383 20.4778 28.8067 20.7897 28.481C21.0205 28.2367 21.1515 27.9862 21.1765 27.7294C21.2014 27.4726 21.1453 27.2659 21.0143 27.0968C20.8895 26.9402 20.7149 26.865 20.4965 26.865C20.2782 26.865 19.9102 27.0404 19.3862 27.3912C18.5254 27.9549 17.8268 28.243 17.2778 28.2618C16.7289 28.2806 16.2611 28.0551 15.8868 27.5853C15.6373 27.2784 15.4813 26.9026 15.419 26.4642C15.3503 26.0257 15.419 25.5622 15.5999 25.0737C15.787 24.5851 16.155 24.059 16.6977 23.4827C17.3652 22.775 17.9952 22.3804 18.5753 22.2989C19.1554 22.2175 19.7293 22.4493 20.3032 23.0005L18.856 24.7104C18.6002 24.4849 18.357 24.3722 18.1262 24.391C17.8954 24.4035 17.6708 24.535 17.44 24.773C17.2529 24.9735 17.1468 25.1676 17.1219 25.3555C17.1032 25.5497 17.1406 25.7063 17.2466 25.8378C17.3215 25.9318 17.4338 25.9756 17.571 25.9694C17.7082 25.9694 17.9515 25.8503 18.2946 25.6186C19.1429 25.0486 19.7917 24.6916 20.247 24.5475C20.6962 24.4035 21.1016 24.391 21.4509 24.51C21.8003 24.629 22.1121 24.8545 22.3741 25.1802C22.686 25.5685 22.8794 26.0195 22.9542 26.5393C23.0291 27.0592 22.973 27.5791 22.7733 28.0989C22.5737 28.6188 22.2182 29.1449 21.7129 29.6773C20.8209 30.6169 20.0474 31.0678 19.3862 31.0365C18.725 31.0052 18.1262 30.7108 17.596 30.1471V30.1659Z" fill="#C6E17D"/>
<path d="M19.8099 20.1504L20.4836 19.286L24.8189 26.4327L24.1577 27.2908L19.8162 20.1566L19.8099 20.1504Z" fill="#C6E17D"/>
<path d="M12.1443 46.9205L4.94589 34.8007L5.17669 34.3998C5.46363 33.905 12.2005 22.2549 17.0223 16.8808C24.0773 9.02012 28.6559 7.06591 28.843 6.99075L29.3233 6.79031L40.4204 17.8329L39.6843 18.3778C39.597 18.4404 30.9389 24.8605 26.5412 29.5957C21.4699 35.0637 12.9303 45.9184 12.843 46.0311L12.1443 46.9268V46.9205ZM6.7611 34.7881L12.3252 44.1646C14.4898 41.44 21.1393 33.1158 25.3997 28.5246C29.1861 24.4471 35.8169 19.3298 38.0313 17.6637L28.9865 8.6631C27.689 9.35208 23.7155 11.7635 18.1826 17.9331C13.9595 22.6432 8.00243 32.6773 6.7611 34.7944V34.7881Z" fill="#7EA343"/>
<path d="M29.486 11.2372C28.7749 11.2497 28.1886 10.6484 28.1823 9.89678C28.1699 9.14516 28.7375 8.53133 29.4486 8.51881C30.1597 8.50628 30.7461 9.10758 30.7523 9.8592C30.7648 10.6108 30.1971 11.2246 29.486 11.2372Z" fill="#7EA343"/>
<path d="M37.1335 18.5407C36.4224 18.5533 35.836 17.952 35.8298 17.2003C35.8173 16.4487 36.385 15.8349 37.0961 15.8224C37.8072 15.8098 38.3935 16.4111 38.3998 17.1628C38.4122 17.9144 37.8446 18.5282 37.1335 18.5407Z" fill="#7EA343"/>
<path d="M12.694 44.9979C11.9829 45.0104 11.3966 44.4091 11.3903 43.6575C11.3779 42.9059 11.9455 42.2921 12.6566 42.2796C13.3677 42.267 13.9541 42.8683 13.9603 43.6199C13.9728 44.3716 13.4052 44.9854 12.694 44.9979Z" fill="#7EA343"/>
<path d="M7.32934 36.6357C6.61823 36.6482 6.03187 35.9342 6.0194 35.0448C6.00692 34.1554 6.57456 33.4288 7.28568 33.4163C7.99679 33.4037 8.58314 34.1178 8.59562 35.0072C8.60809 35.8966 8.04045 36.6232 7.32934 36.6357Z" fill="#7EA343"/>
<path d="M27.7894 0.740171L27.6099 0.581946L27.3741 0.622451L27.4588 1.11523C27.3741 0.622451 27.3737 0.62253 27.3732 0.622613L27.3721 0.622801L27.3696 0.623253L27.3629 0.624481L27.343 0.62834C27.3269 0.631575 27.3051 0.636189 27.2778 0.642502C27.2231 0.655129 27.1461 0.674547 27.0475 0.703317C26.8504 0.760865 26.5671 0.855763 26.2037 1.00842C25.4765 1.31382 24.4297 1.84976 23.1094 2.77875C20.4692 4.63652 16.7377 8.06443 12.2795 14.3617L12.2794 14.3619C9.67926 18.0373 6.87029 22.7521 4.7154 26.5397C3.63697 28.4352 2.72048 30.1018 2.07353 31.2946C1.75003 31.8911 1.49386 32.3692 1.31846 32.6984C1.23077 32.863 1.16326 32.9904 1.11762 33.0767L1.06578 33.175L1.05255 33.2001L1.04918 33.2065L1.04831 33.2082L1.04809 33.2086C1.04803 33.2087 1.048 33.2088 1.49072 33.4411L1.048 33.2088L0.909862 33.472L1.07508 33.7191L11.1304 48.7577L11.5421 49.3734L11.9592 48.7614L11.5461 48.4798C11.9592 48.7614 11.9593 48.7613 11.9594 48.7612L11.9598 48.7606L11.9614 48.7583L11.9678 48.7489L11.9932 48.7116L12.0927 48.5659C12.18 48.438 12.3084 48.25 12.4729 48.0095C12.8018 47.5286 13.2747 46.8379 13.8507 45.9992C15.0029 44.3216 16.5674 42.0518 18.2169 39.6826C21.5257 34.9302 25.149 29.818 26.4914 28.2479C29.0637 25.2402 32.929 21.6905 36.1662 18.8819C37.7819 17.4802 39.2358 16.2677 40.2857 15.4057C40.8106 14.9747 41.2344 14.6315 41.5267 14.3961C41.6729 14.2785 41.7862 14.1878 41.8628 14.1266L41.9498 14.0573L41.9718 14.0399L41.9772 14.0356L41.9786 14.0345L41.9789 14.0343L41.6685 13.6422L41.979 14.0342L42.448 13.6628L41.9992 13.2672L27.7894 0.740171Z" fill="#C6E17D" stroke="#7EA343" stroke-miterlimit="10"/>
<path d="M13.7406 17.901C15.2439 15.1201 18.5063 14.3371 21.6814 16.9365C25.3305 19.9304 25.0748 24.0768 23.9644 25.9872C22.8541 27.8976 19.7414 32.0503 15.3375 28.4676C12.412 26.0874 11.5449 21.4023 12.2997 20.0494C13.0545 18.7028 13.7406 17.8948 13.7406 17.8948V17.901Z" fill="#7EA343"/>
<path d="M16.1311 27.2149L17.491 25.4047C17.7654 25.6427 18.0212 25.7743 18.2458 25.8056C18.6138 25.8557 18.9444 25.7054 19.2313 25.3671C19.4497 25.1103 19.5619 24.8535 19.5744 24.5967C19.5869 24.3399 19.5183 24.1332 19.381 23.9766C19.25 23.8263 19.0691 23.7574 18.8508 23.7762C18.6325 23.7887 18.2707 23.9829 17.7717 24.3587C16.942 24.9663 16.2559 25.2982 15.7132 25.3421C15.1643 25.3922 14.6902 25.1855 14.2847 24.7408C14.0165 24.4464 13.8419 24.0831 13.7545 23.6447C13.6672 23.2125 13.7046 22.7427 13.8606 22.2479C14.0227 21.7531 14.3596 21.2019 14.8773 20.6006C15.5074 19.8615 16.1124 19.4293 16.6925 19.3166C17.2664 19.2038 17.859 19.4043 18.4578 19.9241L17.1042 21.7092C16.836 21.4963 16.5865 21.4023 16.3557 21.4274C16.1249 21.4524 15.9066 21.5902 15.6882 21.847C15.5074 22.0537 15.4138 22.2542 15.4013 22.4483C15.3888 22.6425 15.4387 22.7991 15.551 22.9244C15.6321 23.0183 15.7444 23.0559 15.8816 23.0434C16.0189 23.0371 16.2559 22.9056 16.5865 22.655C17.4036 22.0412 18.0337 21.6466 18.4766 21.4838C18.9194 21.3146 19.3187 21.2833 19.6805 21.3835C20.0422 21.4838 20.3604 21.6905 20.6411 22.0036C20.9717 22.3732 21.19 22.8179 21.2898 23.3315C21.3959 23.8451 21.3584 24.3712 21.19 24.9036C21.0216 25.436 20.691 25.981 20.2169 26.5384C19.3748 27.5218 18.6263 28.0166 17.9651 28.0229C17.3038 28.0229 16.6925 27.7598 16.1249 27.2337L16.1311 27.2149Z" fill="#C6E17D"/>
<path d="M17.815 17.0806L18.4388 16.1787L23.1546 23.0873L22.537 23.9768L17.815 17.0806Z" fill="#C6E17D"/>
<path d="M11.5774 44.2462L3.74268 32.5209L3.94852 32.1138C4.20427 31.6065 10.3236 19.5993 14.8522 13.9747C21.483 5.73822 25.9556 3.546 26.1427 3.45205L26.6105 3.22656L38.2815 13.6678L37.5766 14.2503C37.4955 14.3192 29.1805 21.1965 25.0386 26.1635C20.2604 31.9008 12.3072 43.2002 12.2261 43.3192L11.5711 44.2462H11.5774ZM5.55164 32.4145L11.6148 41.484C13.6296 38.6466 19.8363 29.9717 23.8472 25.1551C27.4152 20.8771 33.7715 15.4091 35.8924 13.624L26.3797 5.11187C25.1197 5.86976 21.2772 8.49416 16.0749 14.9518C12.1076 19.8812 6.68069 30.2285 5.55788 32.4082L5.55164 32.4145Z" fill="#7EA343"/>
<path d="M27.0082 7.66088C26.2971 7.71098 25.6796 7.14101 25.6297 6.38939C25.5798 5.63777 26.1162 4.99263 26.8211 4.94252C27.526 4.89241 28.1498 5.46239 28.1997 6.21401C28.2496 6.96563 27.7131 7.61077 27.0082 7.66088Z" fill="#7EA343"/>
<path d="M35.0375 14.5447C34.3264 14.5948 33.7089 14.0248 33.659 13.2732C33.6091 12.5216 34.1455 11.8764 34.8504 11.8263C35.5553 11.7762 36.1791 12.3462 36.229 13.0978C36.2789 13.8494 35.7424 14.4946 35.0375 14.5447Z" fill="#7EA343"/>
<path d="M12.019 42.2977C11.3079 42.3478 10.6903 41.7778 10.6404 41.0262C10.5905 40.2745 11.127 39.6294 11.8318 39.5793C12.5367 39.5292 13.1605 40.0992 13.2104 40.8508C13.2603 41.6024 12.7239 42.2475 12.019 42.2977Z" fill="#7EA343"/>
<path d="M6.21915 34.2243C5.50804 34.2744 4.88426 33.5917 4.82188 32.7085C4.7595 31.8191 5.28972 31.0675 6.00083 31.0174C6.71194 30.9673 7.33572 31.65 7.3981 32.5331C7.46048 33.4225 6.93026 34.1742 6.21915 34.2243Z" fill="#7EA343"/>
<path d="M22.9353 60.2678C21.7501 60.2678 20.515 60.0799 19.2674 59.7103L19.1614 59.679V59.5725C19.1489 59.4974 18.5438 51.881 18.0947 50.3402C18.0012 50.0145 17.7641 49.5948 17.4959 49.1063C16.4791 47.271 14.7762 44.1957 16.4479 39.4291C17.0655 37.6628 16.3169 34.8944 16.0737 34.0864C16.0612 34.0551 16.0612 34.0238 16.055 33.9862C15.7056 33.3849 15.506 30.6415 16.0986 29.0443C16.3419 28.3929 16.6912 27.9983 17.1341 27.8542C17.446 27.754 17.7392 27.7039 18.0074 27.7039C18.5127 27.7039 18.9431 27.8793 19.2737 28.23C20.122 29.1194 20.0721 30.8106 20.0659 30.8857C20.0659 30.8983 20.4963 34.5248 21.276 35.527C22.0433 36.5229 22.5984 38.0261 22.8791 38.903L22.8292 38.4333C22.8292 38.4333 25.6986 36.1596 26.5969 35.3892C27.4951 34.6188 30.009 32.9214 30.009 32.9214L30.1337 33.2032C30.2086 33.3035 30.5392 34.0112 29.7719 37.9447C28.8175 42.8365 27.6823 48.3546 27.6698 48.411L29.3977 57.9816L29.3353 58.038C29.2417 58.1319 26.9961 60.2678 22.9228 60.2678H22.9353Z" fill="#F6B59C"/>
<path d="M21.4002 35.5894C21.8681 36.197 22.2548 36.9799 22.5542 37.7065L21.4002 35.5894ZM21.4002 35.5894C20.7827 34.7877 20.346 32.0443 20.2213 31.0234L21.4002 35.5894ZM19.8095 31.0259L19.8095 31.0259L19.8095 31.0259L19.8092 31.0336L19.8101 31.0412L19.9094 31.0296L19.8101 31.0412L19.8101 31.0414L19.8102 31.0419L19.8104 31.044L19.8114 31.0521L19.8152 31.0835C19.8185 31.1111 19.8236 31.1515 19.8303 31.2033C19.8437 31.3069 19.8638 31.4559 19.8904 31.6379C19.9436 32.0019 20.023 32.4985 20.1279 33.0283C20.2327 33.5578 20.3633 34.1222 20.5192 34.6214C20.6742 35.1176 20.8573 35.5604 21.0715 35.8384L21.0716 35.8384C21.6203 36.5496 22.0621 37.5448 22.3677 38.3684C22.52 38.7791 22.6377 39.1449 22.7173 39.4079C22.7571 39.5394 22.7873 39.6451 22.8075 39.7179C22.8177 39.7543 22.8253 39.7824 22.8304 39.8013L22.8361 39.8228L22.8375 39.8281L22.8378 39.8294L22.8379 39.8297L22.8379 39.8298L22.9347 39.8048L22.8379 39.8298L23.0338 39.8181L23.1461 38.9851L23.1496 38.9595L23.1402 38.9355L23.047 38.9717L23.1402 38.9355L23.1402 38.9355L23.1402 38.9353L23.1399 38.9348L23.1391 38.9325L23.1357 38.9239L23.1229 38.8909L23.0764 38.7713L22.9289 38.3921C22.8174 38.1056 22.6942 37.7891 22.6473 37.6699L22.6473 37.6699L22.6467 37.6684C22.3459 36.9386 21.9552 36.1463 21.4795 35.5284L21.4795 35.5284C21.3357 35.3418 21.1968 35.0332 21.0678 34.6495C20.9397 34.2682 20.8242 33.822 20.7236 33.367C20.5233 32.4608 20.3838 31.5268 20.3213 31.0173C20.3213 31.016 20.3213 31.0146 20.3213 31.0132C20.3214 30.8811 20.3217 30.4202 20.2198 29.8797C20.1155 29.3268 19.9017 28.6764 19.4579 28.211C19.0756 27.8074 18.5807 27.61 18.0069 27.61C17.7146 27.61 17.3924 27.6621 17.0592 27.7714C16.5261 27.941 16.1287 28.4049 15.861 29.1153L15.8609 29.1157C15.549 29.953 15.446 31.0539 15.464 32.0242C15.473 32.5105 15.5125 32.9669 15.5725 33.3448C15.6301 33.7075 15.708 34.0076 15.8012 34.1912C15.8071 34.2403 15.8143 34.2811 15.8281 34.3231C16.0759 35.1382 16.2878 36.1021 16.3783 37.0303C16.469 37.9613 16.4364 38.8461 16.2034 39.5085L16.2033 39.5086C15.3488 41.9439 15.354 43.9498 15.7048 45.5819C16.0552 47.2123 16.7497 48.4654 17.2645 49.3926L17.2645 49.3927L17.2657 49.3949C17.5362 49.8812 17.7588 50.2815 17.8421 50.574L17.8422 50.5746C17.938 50.9044 18.0448 51.5476 18.1529 52.3565C18.2606 53.1629 18.3686 54.1267 18.468 55.0932C18.6667 57.0261 18.8304 58.967 18.8865 59.6742L18.8922 59.7458L18.9619 59.7633C18.9734 59.7662 18.9848 59.7691 18.9963 59.7721C19.0826 59.7941 19.1713 59.8167 19.2948 59.8285L19.4138 59.8399L19.404 59.7208C19.3416 58.9594 19.1731 56.9841 18.9703 55.0273C18.8689 54.0489 18.7588 53.0746 18.6491 52.2587C18.5453 51.4877 18.4411 50.8516 18.3434 50.4882L18.3502 50.4814L18.3336 50.4246C18.2305 50.072 17.9923 49.6418 17.7126 49.1366C17.6685 49.0571 17.6234 48.9756 17.5776 48.8923C17.2381 48.2742 16.8528 47.5398 16.5472 46.6693C15.9372 44.9316 15.6424 42.6454 16.6853 39.6687C17.0305 38.6863 16.9694 37.4241 16.8091 36.3591C16.6482 35.2903 16.3846 34.4034 16.3124 34.1638L16.3124 34.1638L16.3115 34.1612C16.3075 34.1491 16.3063 34.1373 16.3039 34.1134C16.3034 34.1079 16.3028 34.1016 16.302 34.0946C16.2987 34.0626 16.2926 34.0157 16.2667 33.9689L16.2668 33.9688L16.2646 33.9653C16.2222 33.8956 16.1759 33.7625 16.1331 33.571C16.0911 33.3825 16.0543 33.147 16.0267 32.8796C15.9714 32.3448 15.953 31.6883 15.999 31.0366C16.045 30.384 16.1552 29.7422 16.3539 29.2339C16.5537 28.7228 16.8342 28.3679 17.2074 28.25L17.2074 28.25L17.2084 28.2497C17.504 28.1528 17.7679 28.1169 18.0006 28.1169C18.4777 28.1169 18.824 28.2934 19.0797 28.5572C19.338 28.8238 19.5073 29.1836 19.6171 29.5518C19.7266 29.9192 19.7749 30.2882 19.7956 30.5663C19.806 30.7051 19.8094 30.8206 19.8103 30.9012C19.8107 30.9415 19.8105 30.973 19.8102 30.9943L19.8097 31.0183L19.8095 31.0242L19.8095 31.0256L19.8095 31.0259Z" fill="#222D42" stroke="#222D42" stroke-width="0.2"/>
<path d="M27.9273 48.5311C28.0677 47.8471 29.1051 42.7779 29.9975 38.226H30.0038L30.0196 38.1452C30.4006 36.1944 30.5142 35.0114 30.5165 34.2939C30.5189 33.5856 30.4133 33.3144 30.3331 33.207L30.0909 32.8578L30.0355 32.7779L29.9541 32.8311L29.7046 32.9939L29.6215 33.0481L29.6751 33.1316L29.9121 33.5012L29.9119 33.5013L29.9134 33.5033C29.9145 33.5053 29.9167 33.5097 29.9198 33.5171C29.9267 33.5339 29.9379 33.5656 29.9496 33.6186C29.9733 33.7247 29.9988 33.9131 30 34.2313C30.0023 34.868 29.9069 36.0148 29.5114 38.0442C29.028 40.518 28.5025 43.1327 28.0979 45.1291C27.8956 46.1273 27.7234 46.9708 27.6019 47.5648L27.4601 48.2568L27.4224 48.4402L27.4127 48.4873L27.4103 48.4993L27.4096 48.5023L27.4095 48.503L27.4095 48.5032L27.5074 48.5234L27.4094 48.5033L27.4055 48.5224L27.409 48.5416L29.1744 58.1059L29.1973 58.2301L29.3129 58.1793C29.3852 58.1476 29.4624 58.1053 29.5446 58.0532L29.6011 58.0174L29.5895 57.9514L27.9273 48.5311Z" fill="#222D42" stroke="#222D42" stroke-width="0.2"/>
<path d="M16.6167 31.2552C17.5836 31.512 18.251 31.5997 19.1867 31.1737C18.7376 32.2009 17.1656 32.1508 16.6167 31.2552Z" fill="#222D42"/>
</svg>
