<svg width="25" height="24" viewBox="0 0 25 24" fill="none" xmlns="http://www.w3.org/2000/svg">
<path fill-rule="evenodd" clip-rule="evenodd" d="M12.0315 2.41435C12.3054 2.19522 12.6946 2.19522 12.9685 2.41435L22.9685 10.4143C23.292 10.6731 23.3444 11.1451 23.0857 11.4685C22.8269 11.792 22.355 11.8444 22.0315 11.5857L20.75 10.5605V21C20.75 21.4142 20.4142 21.75 20 21.75H5.00003C4.58581 21.75 4.25003 21.4142 4.25003 21V10.5605L2.96855 11.5857C2.6451 11.8444 2.17313 11.792 1.91438 11.4685C1.65562 11.1451 1.70806 10.6731 2.03151 10.4143L4.53151 8.41435C4.53146 8.41438 4.53155 8.41431 4.53151 8.41435L12.0315 2.41435ZM5.75003 9.36047L12.5 3.96047L19.25 9.36047V20.25H5.75003V9.36047Z" fill="#697385"/>
<path fill-rule="evenodd" clip-rule="evenodd" d="M9.25 14.5C9.25 14.0858 9.58579 13.75 10 13.75H15C15.4142 13.75 15.75 14.0858 15.75 14.5V21C15.75 21.4142 15.4142 21.75 15 21.75H10C9.58579 21.75 9.25 21.4142 9.25 21V14.5ZM10.75 15.25V20.25H14.25V15.25H10.75Z" fill="#697385"/>
<path fill-rule="evenodd" clip-rule="evenodd" d="M4.25 21C4.25 20.5858 4.58579 20.25 5 20.25H20C20.4142 20.25 20.75 20.5858 20.75 21C20.75 21.4142 20.4142 21.75 20 21.75H5C4.58579 21.75 4.25 21.4142 4.25 21Z" fill="#697385"/>
</svg>
