<svg width="24" height="24" viewBox="0 0 24 24" fill="none" xmlns="http://www.w3.org/2000/svg">
<path d="M4.5 9V21H19.5V9L12 3L4.5 9Z" fill="#CA005D"/>
<path fill-rule="evenodd" clip-rule="evenodd" d="M11.5315 2.41435C11.8054 2.19522 12.1946 2.19522 12.4685 2.41435L22.4685 10.4143C22.792 10.6731 22.8444 11.1451 22.5857 11.4685C22.3269 11.792 21.855 11.8444 21.5315 11.5857L20.25 10.5605V21C20.25 21.4142 19.9142 21.75 19.5 21.75H4.50003C4.08581 21.75 3.75003 21.4142 3.75003 21V10.5605L2.46855 11.5857C2.1451 11.8444 1.67313 11.792 1.41438 11.4685C1.15562 11.1451 1.20806 10.6731 1.53151 10.4143L4.03151 8.41435C4.03155 8.41431 4.03146 8.41438 4.03151 8.41435L11.5315 2.41435ZM5.25003 9.36047L12 3.96047L18.75 9.36047V20.25H5.25003V9.36047Z" fill="#CA005D"/>
<path d="M9.5 14.5V21H14.5V14.5H9.5Z" fill="#EFEFEF"/>
<path fill-rule="evenodd" clip-rule="evenodd" d="M8.75 14.5C8.75 14.0858 9.08579 13.75 9.5 13.75H14.5C14.9142 13.75 15.25 14.0858 15.25 14.5V21C15.25 21.4142 14.9142 21.75 14.5 21.75H9.5C9.08579 21.75 8.75 21.4142 8.75 21V14.5ZM10.25 15.25V20.25H13.75V15.25H10.25Z" fill="#EFEFEF"/>
<path fill-rule="evenodd" clip-rule="evenodd" d="M3.75 21C3.75 20.5858 4.08579 20.25 4.5 20.25H19.5C19.9142 20.25 20.25 20.5858 20.25 21C20.25 21.4142 19.9142 21.75 19.5 21.75H4.5C4.08579 21.75 3.75 21.4142 3.75 21Z" fill="#CA005D"/>
</svg>
