<svg width="14" height="8" viewBox="0 0 14 8" fill="none" xmlns="http://www.w3.org/2000/svg">
<path d="M12.4133 7.72065C12.7786 8.10802 13.3545 8.07886 13.7328 7.71767C14.1014 7.36302 14.0765 6.69895 13.7328 6.33776L13.6926 6.29551C12.9088 5.4559 12.1098 4.63235 11.3169 3.79929L8.46449 0.80204C8.37785 0.710998 8.29121 0.616386 8.20116 0.525344C7.66545 -0.0310246 6.89415 -0.151819 6.22195 0.193308C5.87821 0.368847 5.58713 0.7467 5.31757 1.02935L2.28561 4.21523L0.266192 6.33716C-0.102468 6.72097 -0.0747201 7.32613 0.266192 7.71707C0.603706 8.10445 1.2357 8.07827 1.57944 7.71707L2.28561 6.97505L5.33003 3.77608L6.63705 2.40271L7.01817 2.00225L7.12973 1.88502C7.13879 1.8755 7.15465 1.86539 7.16371 1.8523C7.05554 1.99868 7.00571 1.96595 7.10198 1.91061C7.13313 1.89098 7.16371 1.87788 7.19825 1.86182C7.12407 1.89455 7.04988 1.92668 6.97513 1.95941C7.02779 1.93977 7.08329 1.9237 7.13936 1.91359C7.05554 1.92668 6.97513 1.9362 6.89132 1.94929C6.96267 1.93977 7.03063 1.93977 7.10198 1.94929C7.01817 1.9362 6.93775 1.92668 6.85394 1.91359C6.90944 1.92311 6.9621 1.93977 7.01817 1.95941C6.94398 1.92668 6.8698 1.89455 6.79504 1.86182C6.84148 1.88145 6.88169 1.90764 6.92813 1.93322C7.0244 1.98856 6.74861 1.75769 6.86017 1.88443L6.863 1.88741L6.88792 1.91359L7.00854 2.04033L7.47913 2.53482L10.4896 5.69808C11.1306 6.37167 11.7717 7.04527 12.4127 7.71886L12.4133 7.72065Z" fill="#CA005D"/>
</svg>
