<svg width="24" height="18" viewBox="0 0 24 18" fill="none" xmlns="http://www.w3.org/2000/svg">
<path d="M20.0716 5.41487H19.1296H16.5254H16.2485H12.925C12.8499 5.41487 12.7974 5.41649 12.749 5.43263C12.5456 5.50205 12.41 5.71275 12.4423 5.91214C12.481 6.15513 12.6529 6.30124 12.9032 6.30124C13.5708 6.30124 14.2376 6.30124 14.9052 6.30124H16.7409C17.0896 6.30124 17.4384 6.30124 17.7871 6.30124H20.0708C20.3695 6.30124 20.5705 6.12284 20.5713 5.85725C20.5713 5.73858 20.5302 5.63444 20.4519 5.55533C20.3614 5.46411 20.2266 5.41406 20.0724 5.41406L20.0716 5.41487Z" fill="#222D42"/>
<path d="M20.0716 8.5555H19.1296H16.5254H16.2485H12.925C12.8499 8.5555 12.7974 8.55711 12.749 8.57326C12.5456 8.64268 12.41 8.85337 12.4423 9.05277C12.481 9.29575 12.6529 9.44187 12.9032 9.44187C13.5708 9.44187 14.2376 9.44187 14.9052 9.44187H16.7409C17.0896 9.44187 17.4384 9.44187 17.7871 9.44187H20.0708C20.3695 9.44187 20.5705 9.26346 20.5713 8.99787C20.5713 8.87921 20.5302 8.77507 20.4519 8.69596C20.3614 8.60474 20.2266 8.55469 20.0724 8.55469L20.0716 8.5555Z" fill="#222D42"/>
<path d="M20.0716 11.6961H19.1296H16.5254H16.2485H12.925C12.8499 11.6961 12.7974 11.6977 12.749 11.7139C12.5456 11.7833 12.41 11.994 12.4423 12.1934C12.481 12.4364 12.6529 12.5825 12.9032 12.5825C13.5708 12.5825 14.2376 12.5825 14.9052 12.5825H16.7409C17.0896 12.5825 17.4384 12.5825 17.7871 12.5825H20.0708C20.3695 12.5825 20.5705 12.4041 20.5713 12.1385C20.5713 12.0198 20.5302 11.9157 20.4519 11.8366C20.3614 11.7454 20.2266 11.6953 20.0724 11.6953L20.0716 11.6961Z" fill="#222D42"/>
<path d="M21.7637 0.828125H2.2361C1.00261 0.828125 0 1.83155 0 3.06423V14.9333C0 16.1668 1.00342 17.1694 2.2361 17.1694H21.7637C22.9971 17.1694 23.9998 16.166 23.9998 14.9333V3.06423C23.9998 1.83074 22.9963 0.828125 21.7637 0.828125ZM23.1118 14.9333C23.1118 15.6768 22.5071 16.2815 21.7637 16.2815H2.2361C1.49262 16.2815 0.887983 15.6768 0.887983 14.9333V3.06423C0.887983 2.32074 1.49262 1.71611 2.2361 1.71611H21.7637C22.5071 1.71611 23.1118 2.32074 23.1118 3.06423V14.9333Z" fill="#222D42"/>
<path d="M4.58139 12.9312C4.48775 12.9312 4.3933 12.9312 4.29966 12.9287C3.8815 12.9199 3.54164 12.5776 3.52631 12.1497C3.50935 11.6928 3.51258 11.3441 3.53599 11.0188C3.57393 10.4908 3.82903 10.0331 4.31661 9.61979C4.79451 9.21535 5.36604 8.96107 6.06594 8.84402C7.0847 8.67288 8.02596 8.81334 8.86228 9.26137C9.48952 9.598 9.89072 10.0412 10.0885 10.6168C10.1499 10.7952 10.1805 10.9784 10.1789 11.1633C10.1781 11.3417 10.1781 11.5193 10.1789 11.6977C10.1789 11.8196 10.1789 11.9415 10.1789 12.0634C10.1781 12.5824 9.83099 12.9312 9.31596 12.9312C8.22616 12.9312 7.13717 12.9312 6.04818 12.9312H5.89238C5.86493 12.9312 5.83748 12.9295 5.80923 12.9279H5.79228L5.517 12.9271L5.41125 12.9255H5.25949C5.16665 12.9255 5.0722 12.9271 4.97775 12.9279C4.84779 12.9295 4.71459 12.9312 4.58139 12.9312ZM6.89741 9.48175C6.66734 9.48175 6.4292 9.50274 6.18299 9.54391C5.61306 9.63997 5.15212 9.84179 4.77513 10.1615C4.43608 10.4488 4.26737 10.737 4.24396 11.0688C4.22297 11.3675 4.21974 11.6928 4.23588 12.1239C4.23831 12.182 4.27867 12.2184 4.31499 12.2192C4.53134 12.224 4.75495 12.2216 4.97049 12.2192C5.06655 12.2184 5.16181 12.2167 5.25787 12.2167H5.41609L5.52184 12.2175H5.81084L5.85363 12.22C5.86654 12.2208 5.87946 12.2216 5.89238 12.2216H6.04818C7.13717 12.2216 8.22697 12.2216 9.31596 12.2216C9.43059 12.2216 9.46933 12.1982 9.46933 12.0617C9.46933 11.9407 9.46933 11.8196 9.46933 11.6985C9.46933 11.5185 9.46933 11.3392 9.46933 11.1592C9.46933 11.0535 9.45319 10.9518 9.41686 10.8476C9.27801 10.4432 8.99547 10.1381 8.52646 9.88699C8.02111 9.61576 7.48267 9.48175 6.8966 9.48175H6.89741Z" fill="#222D42"/>
<path d="M6.85176 8.47972C5.96862 8.47972 5.19365 7.87186 5.00153 6.97015C4.78841 5.96915 5.43583 4.9738 6.44329 4.75181C7.06811 4.61457 7.6453 4.76876 8.11512 5.19822C8.22733 5.28621 8.32339 5.39519 8.4017 5.52354C8.76173 6.01759 8.84084 6.66501 8.61239 7.26076C8.37586 7.87589 7.86083 8.31666 7.2344 8.44178C7.10524 8.46761 6.97689 8.47972 6.85095 8.47972H6.85176ZM6.88002 5.41295C6.7888 5.41295 6.69435 5.42344 6.59586 5.44524C5.96781 5.58328 5.56338 6.20164 5.69577 6.82242C5.833 7.46823 6.44813 7.87428 7.09636 7.74512C7.48223 7.66843 7.8019 7.39235 7.94963 7.00648C8.09252 6.63352 8.04489 6.23232 7.82128 5.93363L7.79948 5.90134C7.76316 5.83999 7.72199 5.79156 7.67194 5.75442L7.64449 5.73101C7.41603 5.5187 7.16336 5.41376 6.87921 5.41376L6.88002 5.41295Z" fill="#222D42"/>
</svg>
