<svg width="24" height="24" viewBox="0 0 24 24" fill="none" xmlns="http://www.w3.org/2000/svg">
<mask id="mask0_3439_1127" style="mask-type:alpha" maskUnits="userSpaceOnUse" x="3" y="2" width="18" height="20">
<path d="M19.7397 18.1127C19.7333 18.2829 19.7233 18.4712 19.7078 18.6649C19.6803 19.0072 19.637 19.348 19.5723 19.6304C19.54 19.7712 19.5054 19.8844 19.4709 19.9694C19.4388 20.0488 19.4159 20.0808 19.4129 20.085C19.4125 20.0856 19.4124 20.0857 19.4127 20.0853L19.3603 20.1451L19.3217 20.2146C19.1172 20.5818 18.4652 21.2997 16.187 21.2304L16.1756 21.23H16.1642H14.9114H14.6069L14.5879 21.2486L9.50905 21.2372L9.50108 21.2372L9.49311 21.2374C8.44734 21.2572 7.57719 21.2612 6.84963 21.1916C6.11946 21.1217 5.60527 20.983 5.2399 20.7661C4.63017 20.4041 4.17442 19.6526 4.26018 17.581L4.27124 17.4017C4.578 12.4266 8.06928 8.63299 10.6687 7.1026L11.3987 6.67282L10.8837 6.00028L8.40579 2.76473C8.40841 2.76119 8.41182 2.75808 8.41558 2.75589C8.41774 2.75463 8.42052 2.75335 8.42437 2.7523C8.42809 2.75129 8.43463 2.75 8.44485 2.75H15.1807C15.1903 2.75 15.1963 2.75121 15.1997 2.75212C15.2032 2.75308 15.2058 2.75425 15.2079 2.75547C15.2121 2.75789 15.216 2.76162 15.2189 2.76603L12.8537 6.06755L12.3429 6.78057L13.1266 7.17446C14.2549 7.74152 15.9387 9.035 17.3306 10.8418C18.7187 12.6435 19.7663 14.8895 19.7458 17.3638L19.7397 18.1127Z" fill="#CA005D" stroke="black" stroke-width="1.5"/>
</mask>
<path d="M19.7405 18.0885C19.7429 18.0234 19.7447 17.961 19.746 17.9019C19.747 17.8587 19.7478 17.8174 19.7484 17.7783C19.7517 17.5537 19.7489 17.4046 19.7485 17.3865L19.746 17.3455L19.7459 17.3617L19.7459 17.3622L19.7458 17.3645L19.7405 18.0885ZM19.7405 18.0885C19.7328 18.3048 19.7193 18.5508 19.696 18.8005C19.6661 19.1218 19.6218 19.4312 19.5594 19.6846C19.5284 19.8107 19.4959 19.9108 19.4643 19.9854C19.4356 20.0533 19.4156 20.0812 19.4128 20.0851C19.4124 20.0857 19.4123 20.0858 19.4127 20.0854L19.3603 20.1451L19.3217 20.2146C19.1172 20.5818 18.4652 21.2997 16.187 21.2304L16.1756 21.23H16.1642H14.9114H14.6069L14.5879 21.2486L9.50905 21.2372L9.50108 21.2372L9.49311 21.2374C8.57889 21.2547 7.7968 21.2601 7.12428 21.214C6.44934 21.1677 5.93299 21.0719 5.5378 20.9122C5.15887 20.759 4.89435 20.5488 4.70172 20.2517C4.50106 19.9422 4.34422 19.4852 4.28069 18.7876C4.27704 18.7475 4.27371 18.7067 4.27069 18.6652L4.26846 18.6334C4.24733 18.3228 4.244 17.9734 4.26023 17.5802L4.27124 17.4017C4.53321 13.1531 7.1162 9.75985 9.50937 7.89647C9.91007 7.58447 10.3009 7.31914 10.6687 7.1026L11.3987 6.67282L10.8837 6.00028L8.40579 2.76473C8.40841 2.76119 8.41182 2.75808 8.41558 2.75589C8.41774 2.75463 8.42052 2.75335 8.42437 2.7523C8.42809 2.75129 8.43463 2.75 8.44485 2.75H15.1807C15.1903 2.75 15.1963 2.75121 15.1997 2.75212C15.2032 2.75308 15.2058 2.75425 15.2079 2.75547C15.2121 2.75789 15.216 2.76162 15.2189 2.76603L12.8537 6.06755L12.3429 6.78057L13.1266 7.17446C13.4699 7.34701 13.8718 7.59062 14.3073 7.9024C16.7009 9.61615 19.7117 13.0866 19.7458 17.2211C19.7462 17.2625 19.7462 17.3039 19.746 17.3455L19.7405 18.0885Z" stroke="#697385" stroke-width="1.5"/>
<path d="M8.5 16.689C8.7623 16.8913 9.50289 17.2069 10.2589 17.2069C11.3698 17.2069 12.095 16.6324 12.095 15.5642C12.095 14.5202 11.3544 14.2046 10.6524 13.9699C10.0738 13.7838 9.62633 13.6301 9.62633 13.1283C9.62633 12.6266 10.0352 12.4728 10.3824 12.4728C10.8067 12.4728 11.2464 12.6994 11.6475 13.0474L12.149 12.3919C11.7478 11.963 11.0998 11.6312 10.3824 11.6312C9.37175 11.6312 8.64658 12.2301 8.64658 13.2173C8.64658 14.2532 9.35632 14.5688 10.1201 14.7873C10.6601 14.941 11.0998 15.0948 11.0998 15.6046C11.0998 16.2116 10.6832 16.3491 10.2744 16.3491C9.74205 16.3491 9.14031 16.074 8.84716 15.8798L8.5 16.689Z" fill="#697385"/>
<path d="M13.1239 18L15.5 11.2994L14.6977 11L12.337 17.6925L13.1239 18Z" fill="#697385"/>
</svg>
