<svg width="93" height="93" viewBox="0 0 93 93" fill="none" xmlns="http://www.w3.org/2000/svg">
<mask id="mask0_7005_34186" style="mask-type:alpha" maskUnits="userSpaceOnUse" x="0" y="0" width="93" height="93">
<path d="M46.3115 92.6229C71.8895 92.6229 92.6229 71.8874 92.6229 46.3128C92.6229 20.7382 71.8895 0 46.3115 0C20.7334 0 0 20.7355 0 46.3101C0 71.8847 20.7361 92.6202 46.3115 92.6202V92.6229Z" fill="#ffff"/>
</mask>
<g mask="url(#mask0_7005_34186)">
<path d="M46.5 92.6229C72.1822 92.6229 93 71.803 93 46.1243C93 20.4456 72.1822 -0.377075 46.5 -0.377075C20.8178 -0.377075 0 20.4428 0 46.1216C0 71.8003 20.8205 92.6202 46.5 92.6202V92.6229Z" fill="#F6F6F9"/>
<path d="M26.6204 35.7431C25.2679 40.1694 21.746 51.3442 25.0001 53.8278C28.246 56.3114 30.8389 54.8961 30.8389 54.8961C30.8389 54.8961 31.6231 56.8087 36.2269 57.4726C40.8307 58.1366 48.4291 55.765 48.4291 55.765C48.4291 55.765 51.1094 57.1612 53.5766 57.1065C56.0357 57.0519 56.9837 54.9262 56.9837 54.9262C56.9837 54.9262 57.8854 57.1721 58.757 57.3551C59.6367 57.5409 65.3307 58.1092 66.4919 50.1475C67.6531 42.1748 63.7187 28.4453 63.7187 28.4453C63.7187 28.4453 27.9619 31.3224 26.6204 35.7486V35.7404V35.7431Z" fill="black"/>
<path d="M64.9613 20.5273C67.2892 29.8197 68.2947 36.6858 68.3029 42.8743C68.3138 48.0382 64.6444 49.8661 59.9969 50.9672C55.7646 51.9699 50.1717 53.03 44.3384 53.4044C38.5296 53.7759 33.0624 52.7486 28.9368 51.5847C24.3602 50.2896 21.6307 48.3442 21.8083 43.2104C22.0023 37.5574 22.8001 29.4891 25.3029 20.5273C25.3029 20.5273 29.0734 3.90436 45.7318 3.90436C61.2892 3.90436 64.9613 20.5273 64.9613 20.5273Z" fill="black"/>
<path d="M72.0681 85.4235C70.0463 84.653 67.6255 84.9125 65.8741 86.5136C65.9834 87.336 66.09 88.1557 66.1993 88.9781C68.1474 87.7786 70.1009 86.5901 72.0709 85.4235H72.0681Z" fill="#F88868"/>
<path d="M82.2131 75.8415C80.7377 70.5054 77.9208 62.9235 68.3033 60.3688C63.1257 59.2404 57.306 59.6311 55.5464 58.8688C54.1475 60.0519 54.6912 61.5874 52.4945 53.2049C50.4016 53.2049 46.7596 53.6639 44.7186 54.1202C44.5738 63.5082 41.6202 56.8115 39.2759 58.6147C38.0601 56.888 37.5027 57.6748 35.3606 57.8661C26.112 58.694 18.6721 58.8415 8.85791 76.3196C25.0382 93.765 55.0027 103.648 82.2131 75.8388V75.8415Z" fill="#CA005D"/>
<path d="M83.1667 79.3306C81.7322 74.6421 78.6858 64.6967 72.4071 62.9153C77.2432 65.8798 80.3962 75.3333 81.5437 80.1475C82.082 79.8716 82.623 79.5983 83.1639 79.3306H83.1667Z" fill="#960C51"/>
<path d="M67.2977 88.4617C67.1692 86.612 66.6037 78.1721 66.4753 76.3224C66.2512 78.3962 65.8796 87.265 65.6228 89.3388C65.9862 89.1147 66.9343 88.6858 67.2977 88.4617Z" fill="#960C51"/>
<path d="M26.3088 88.6803C26.1804 86.8306 25.6148 78.3907 25.4864 76.541C25.2623 78.6148 24.8907 87.4836 24.6339 89.5574C24.9973 89.3333 25.9454 88.9044 26.3088 88.6803Z" fill="#960C51"/>
<path d="M61.5519 82.071L61.5574 82.1038C61.5574 82.3306 61.6831 82.4344 61.8634 82.4208C61.9317 82.4208 62.0191 82.3989 62.082 82.377V82.5355C62.0055 82.5464 61.9399 82.5683 61.8497 82.5683C61.5574 82.5765 61.3415 82.4153 61.3361 82.0546C61.3279 81.7623 61.5137 81.5546 61.7842 81.5628C62.0328 81.5628 62.1339 81.7268 62.1448 81.9508C62.1394 81.9863 62.1557 82.0273 62.1394 82.0656L61.5191 82.0765H61.5301L61.5519 82.071ZM61.9235 81.9153C61.9235 81.9153 61.9782 81.8962 61.9727 81.8634C61.959 81.7759 61.918 81.7131 61.8033 81.7076C61.7486 81.7158 61.6803 81.724 61.653 81.7623C61.6148 81.8005 61.5765 81.8524 61.5738 81.9098L61.9344 81.9153H61.9235Z" fill="white"/>
<path d="M61.2318 81.5874C61.24 81.8798 61.2373 82.2513 61.2455 82.5437L61.0788 82.5683L61.0515 81.5901H61.2318V81.5874Z" fill="white"/>
<path d="M61.2267 81.306L61.2321 81.3497C61.2321 81.3497 61.2157 81.3852 61.1939 81.388C61.1939 81.388 61.1611 81.4044 61.1529 81.4153L61.1092 81.4208C61.0737 81.4153 61.0518 81.4071 61.0245 81.388C60.9999 81.3688 60.9944 81.3361 60.9917 81.3142C60.9972 81.2787 61.0054 81.2568 61.0245 81.2295C61.0573 81.2131 61.0764 81.1994 61.0983 81.1967L61.142 81.1913C61.142 81.1913 61.1775 81.2076 61.1802 81.2295C61.1802 81.2295 61.1966 81.2623 61.2075 81.2705L61.213 81.3142V81.2923L61.2212 81.3005L61.2267 81.306Z" fill="white"/>
<path d="M58.9942 77.8579C58.9177 77.8688 58.4888 77.7951 58.4888 77.7951C58.4888 77.7951 58.8139 77.9399 58.8221 77.9945C58.8303 78.0492 58.6964 78.306 58.6964 78.306C58.6964 78.306 58.9123 78.082 58.9942 78.0164C59.0461 77.9863 59.1363 77.9836 59.2155 77.9836C59.5489 78.0273 59.8795 77.9672 60.1718 77.8115C60.4778 77.6557 60.4724 77.6229 60.4724 77.6229C60.4724 77.6229 60.2265 77.4781 59.8166 77.5355C59.3631 77.6011 59.0489 77.8388 58.9696 77.8497L58.9942 77.8579Z" fill="#D49D35"/>
<path d="M51.1418 83.0573C51.0653 83.0683 50.6254 82.9972 50.6254 82.9972C50.6254 82.9972 50.956 83.1858 50.9724 83.2186C50.9997 83.2595 50.9259 83.5983 50.9259 83.5983C50.9259 83.5983 51.1226 83.3224 51.1909 83.2431C51.2401 83.1912 51.3576 83.2186 51.4122 83.2104C51.8166 83.2759 52.2292 83.1721 52.568 82.9317C52.9041 82.6803 52.9095 82.6339 52.9095 82.6339C52.9095 82.6339 52.5735 82.4235 52.0817 82.5273C51.5898 82.6311 51.2046 83.0246 51.1308 83.0573" fill="#D49D35"/>
<path d="M62.3579 77.7131C62.235 77.7295 61.6558 77.5328 61.6558 77.5328C61.6558 77.5328 62.0847 77.8443 62.1148 77.9071C62.1448 77.9699 61.9754 78.4235 61.9754 78.4235C61.9754 78.4235 62.2978 78.0738 62.4181 77.9645C62.4864 77.8989 62.6503 77.9317 62.735 77.9645C62.8142 77.9754 63.6066 78.224 64.3989 77.7705C64.9208 77.4809 64.9126 77.4153 64.9126 77.4153C64.9126 77.4153 64.4891 77.0574 63.776 77.1257C63.0629 77.194 62.4672 77.6858 62.347 77.7131H62.3579Z" fill="#800049"/>
<path d="M48.4723 82.2322C48.3658 82.2705 47.8849 82.0792 47.8849 82.0792C47.8849 82.0792 48.3412 82.3415 48.3548 82.3715C48.3822 82.4125 48.0843 82.8497 48.0843 82.8497C48.0843 82.8497 48.374 82.5929 48.4942 82.4863C48.6035 82.3907 48.8603 82.3661 49.0188 82.377C49.1663 82.3907 49.7865 82.459 50.5488 81.9535C51.0406 81.612 51.0434 81.5546 51.0434 81.5546C51.0434 81.5546 50.6007 81.3032 49.8876 81.4508C49.1882 81.6065 48.5816 82.1803 48.4614 82.2076V82.2295H48.4723V82.2322Z" fill="#800049"/>
<path d="M53.4562 81.8006C53.3906 81.8088 53.1064 81.6476 53.1064 81.6476C53.1064 81.6476 53.3605 81.847 53.366 81.8825C53.3715 81.9181 53.1447 82.1394 53.1447 82.1394C53.1447 82.1394 53.3523 82.0082 53.4452 81.9618C53.519 81.9181 53.6775 81.929 53.784 81.959C53.8906 81.9891 54.2431 82.0956 54.7731 81.8634C55.1228 81.7104 55.1201 81.6776 55.1201 81.6776C55.1201 81.6776 54.866 81.4782 54.4288 81.4945C53.9917 81.5109 53.5354 81.7924 53.4698 81.8006" fill="#800049"/>
<path d="M51.1392 80.4399C51.0217 80.4918 50.9043 80.5301 50.7676 80.5164C50.2704 80.5191 49.8523 80.276 49.825 79.6148C49.8114 78.9618 50.2431 78.6749 50.7403 78.6831C50.8551 78.6885 50.978 78.694 51.0955 78.7213V79.0273C50.9753 78.9781 50.8578 78.959 50.7349 78.9536C50.3851 78.959 50.1529 79.1393 50.1638 79.612C50.1748 80.0847 50.448 80.2486 50.7731 80.235C50.8988 80.2404 51.0163 80.1995 51.1338 80.1612L51.1392 80.4426V80.4399Z" fill="white"/>
<path d="M52.4183 79.8388C52.4292 80.2213 52.2079 80.4891 51.8691 80.4918C51.5193 80.4973 51.2898 80.224 51.2816 79.8552C51.2707 79.4727 51.492 79.2049 51.8308 79.2022C52.1805 79.1967 52.4073 79.4481 52.4183 79.8388ZM51.5958 79.8552C51.5986 80.1147 51.7325 80.2541 51.8663 80.2459C52.0139 80.2459 52.1095 80.1311 52.115 79.8497C52.1095 79.5683 51.9784 79.4508 51.8445 79.459C51.6969 79.459 51.5904 79.5738 51.5958 79.8552Z" fill="white"/>
<path d="M54.2621 80.4317L53.9698 80.4399L53.9588 79.6639C53.9588 79.5055 53.8933 79.4481 53.7594 79.4454C53.6829 79.4563 53.5736 79.4836 53.5709 79.541C53.5654 79.5765 53.5791 79.6066 53.5845 79.6394L53.6091 80.4481L53.3168 80.4563L53.3058 79.6803C53.3058 79.5219 53.2403 79.4645 53.1282 79.459C53.0271 79.459 52.9288 79.4863 52.9315 79.5765L52.9561 80.4645L52.6637 80.4727L52.6392 79.2814C52.8878 79.2814 52.967 79.2104 53.1692 79.2049C53.3386 79.2049 53.4124 79.2486 53.4862 79.2951C53.6009 79.2322 53.7211 79.194 53.8577 79.2077C54.1064 79.2077 54.2785 79.306 54.2894 79.6312L54.3058 80.4536L54.2594 80.4372V80.4317H54.2621Z" fill="white"/>
<path d="M54.5027 81.0055C54.5082 80.735 54.5027 80.5328 54.5 80.194L54.4808 79.2049C54.6612 79.2049 54.7786 79.1612 54.948 79.1612C55.265 79.1612 55.5437 79.3798 55.5491 79.8087C55.5655 80.235 55.2786 80.4453 55.0082 80.4508C54.9317 80.4617 54.8497 80.4399 54.7868 80.4044L54.7923 81.0027L54.5 81.0109V81.0055H54.5027ZM54.9317 79.4208C54.8442 79.4344 54.7677 79.4672 54.7759 79.5109L54.7868 80.1421C54.7868 80.1421 54.8551 80.2213 54.9562 80.2186C55.1366 80.2158 55.2431 80.0984 55.2377 79.8169C55.2322 79.5355 55.1229 79.4153 54.9317 79.4208Z" fill="white"/>
<path d="M56.3469 79.6147L56.3414 79.571C56.3496 79.4672 56.2841 79.3989 56.1475 79.4071C56.0108 79.4153 55.8824 79.4453 55.7567 79.5082L55.7513 79.2268C55.8797 79.1858 56.0108 79.1557 56.1611 79.1694C56.4535 79.1612 56.6283 79.2705 56.6338 79.5519C56.6393 79.7432 56.6338 79.9235 56.6365 80.1257C56.6365 80.2268 56.6475 80.3497 56.6529 80.4044C56.4507 80.4098 56.3223 80.4508 56.1393 80.4453C55.8332 80.4453 55.6802 80.3087 55.6693 80.0738C55.6693 79.8361 55.8551 79.6311 56.3251 79.6065L56.3496 79.6147H56.3469ZM56.3578 79.8388C56.1119 79.8524 55.9972 79.9235 56.0054 80.0574C56.019 80.1448 56.0846 80.2158 56.1966 80.2104C56.3114 80.2158 56.3524 80.1885 56.3551 80.1421C56.3633 80.0382 56.3606 79.9371 56.3551 79.8361L56.3578 79.8388Z" fill="white"/>
<path d="M56.899 80.4043L56.8607 79.1912L57.1312 79.1967L57.1257 79.3114C57.1257 79.3114 57.2022 79.2103 57.2651 79.1885C57.3197 79.1694 57.3826 79.1502 57.4509 79.1502C57.4973 79.1557 57.5383 79.1366 57.5875 79.153L57.5957 79.4453L57.399 79.4071C57.2842 79.4016 57.1695 79.4617 57.1722 79.5628C57.1777 79.765 57.1804 80.0929 57.1886 80.3852L56.8962 80.3934V80.4043H56.899Z" fill="white"/>
<path d="M58.0329 79.1803L58.3935 79.1749V79.4235L58.0356 79.429C58.0356 79.6776 58.0411 79.8689 58.0466 80.0601C58.0602 80.1475 58.0985 80.1885 58.1996 80.1858C58.2679 80.1858 58.3444 80.1639 58.4072 80.1339V80.3825C58.3225 80.418 58.2242 80.4317 58.1231 80.4344C57.9072 80.4344 57.7487 80.3415 57.7487 80.1148L57.7296 78.9563L58.0192 78.7787L58.0302 79.1721V79.1831H58.0329V79.1803Z" fill="white"/>
<path d="M59.2294 79.5847L59.224 79.541C59.2322 79.4371 59.1666 79.3688 59.03 79.377C58.8961 79.3852 58.765 79.4153 58.6393 79.4781L58.6338 79.1967C58.7622 79.1557 58.907 79.1339 59.0436 79.1393C59.336 79.1311 59.5108 79.2404 59.519 79.5328C59.5245 79.724 59.519 79.9043 59.5218 80.1065C59.5354 80.194 59.5218 80.2869 59.5382 80.3852C59.3223 80.3852 59.2076 80.4317 59.0245 80.4262C58.7185 80.4262 58.5655 80.2896 58.5546 80.0546C58.5546 79.8169 58.7404 79.612 59.2103 79.5874H59.2322H59.2294V79.5847ZM59.2349 79.7814C58.989 79.7951 58.8742 79.8661 58.8824 80C58.8961 80.0874 58.9617 80.1584 59.0737 80.153C59.1884 80.1584 59.2294 80.1311 59.2322 80.0847C59.2404 79.9808 59.2376 79.8798 59.2322 79.7787L59.2349 79.7814Z" fill="white"/>
<path d="M61.4286 80.3524L61.1363 80.3606L61.1253 79.5847C61.1253 79.4262 61.0598 79.3688 60.9259 79.3661C60.8494 79.377 60.7401 79.4043 60.7374 79.4617C60.7319 79.4972 60.7456 79.5273 60.751 79.5601L60.7756 80.3688L60.4833 80.377L60.4723 79.6011C60.4723 79.4426 60.4068 79.3852 60.2947 79.3798C60.2073 79.3934 60.0953 79.4071 60.098 79.4972L60.1226 80.3852L59.8303 80.3934L59.8057 79.2022C60.0652 79.1994 60.1472 79.1421 60.3385 79.1475C60.5078 79.1475 60.5816 79.1912 60.6554 79.2377C60.7592 79.1666 60.8904 79.1366 61.0352 79.1366C61.2838 79.1366 61.4559 79.235 61.4669 79.5601L61.4833 80.3825L61.4231 80.3579L61.4286 80.3524Z" fill="white"/>
<path d="M62.7511 79.7322C62.762 80.1147 62.5407 80.3825 62.2019 80.3852C61.8522 80.3907 61.6227 80.1175 61.6145 79.7486C61.6036 79.3661 61.8358 79.0956 62.1746 79.0929C62.5243 79.0874 62.7511 79.336 62.762 79.7295H62.7511V79.7322ZM61.9287 79.7541C61.9287 80.0136 62.0653 80.153 62.1992 80.1448C62.3331 80.1366 62.4424 80.03 62.4478 79.7486C62.4424 79.4672 62.3112 79.3497 62.1773 79.3579C62.0298 79.3579 61.9232 79.4726 61.9287 79.7541Z" fill="white"/>
<path d="M63.344 79.0737C63.4314 79.0601 63.538 79.0792 63.6309 79.1011L63.6363 79.3825C63.5407 79.3388 63.4369 79.3333 63.3467 79.3224C63.2456 79.3224 63.1718 79.3688 63.1828 79.4371C63.1855 79.6175 63.7128 79.5983 63.7238 79.9808C63.7183 80.1858 63.5899 80.3825 63.2401 80.3879C63.1254 80.3825 63.0243 80.3743 62.9205 80.3552V80.1065C63.0106 80.1257 63.1281 80.1557 63.2292 80.153C63.3631 80.1448 63.4478 80.0983 63.4478 80.0191C63.4423 79.8169 62.9259 79.847 62.9095 79.4863C62.9095 79.2486 63.0789 79.1011 63.3713 79.0929L63.3467 79.0737H63.344Z" fill="white"/>
<path d="M56.1694 82.6175L56.1366 81.2104L56.8688 81.1967L56.8934 81.3634C56.7568 81.3607 56.5765 81.3634 56.3634 81.3607C56.3415 81.3634 56.3306 81.377 56.336 81.3989C56.347 81.4754 56.347 81.6339 56.336 81.806L56.8197 81.7923V81.9508L56.336 81.9645L56.3497 82.6066H56.1694V82.6202V82.6175Z" fill="white"/>
<path d="M57.257 81.6284C57.2652 81.9207 57.2625 82.2923 57.2706 82.5847L57.104 82.6093L57.0767 81.6311H57.257V81.6284Z" fill="white"/>
<path d="M57.2621 81.3552L57.2675 81.3989C57.2675 81.3989 57.2511 81.4344 57.2293 81.4371L57.1883 81.4645L57.1446 81.4699C57.1091 81.4645 57.0872 81.4563 57.0599 81.4371C57.0353 81.418 57.0298 81.3852 57.0271 81.3634C57.0326 81.3279 57.0408 81.306 57.0599 81.2787C57.0927 81.2623 57.1118 81.2486 57.1337 81.2459L57.1774 81.2404C57.1774 81.2404 57.2129 81.2568 57.2156 81.2787C57.2156 81.2896 57.232 81.3115 57.2429 81.3197L57.2484 81.3634L57.2566 81.3497L57.2621 81.3552Z" fill="white"/>
<path d="M57.6172 81.8688L57.6309 82.5901H57.4506L57.4287 81.6475C57.6309 81.642 57.6582 81.5929 57.8495 81.5874C58.0298 81.5874 58.1992 81.6612 58.1992 81.9098L58.2129 82.5628H58.0325L58.0216 81.9481C58.0216 81.8005 57.9369 81.7459 57.8003 81.7431C57.6746 81.7377 57.5926 81.7951 57.5899 81.8524H57.6118V81.8716L57.6172 81.8688Z" fill="white"/>
<path d="M58.8935 81.9563L58.8881 81.9125C58.8963 81.8087 58.8307 81.7404 58.6941 81.7486C58.593 81.7486 58.4946 81.7759 58.4099 81.8114V81.653C58.5055 81.6175 58.6039 81.5901 58.705 81.5874C58.9208 81.5901 59.0657 81.6612 59.0657 81.8961V82.3688C59.0766 82.4453 59.0657 82.5164 59.0738 82.5819C58.9154 82.5819 58.8307 82.6175 58.6941 82.6147C58.4591 82.6257 58.3389 82.5082 58.3471 82.3251C58.3416 82.1339 58.5001 81.9754 58.8799 81.9563H58.8935ZM58.9017 82.1011C58.664 82.1011 58.552 82.1748 58.5602 82.3087C58.5602 82.3306 58.5547 82.3552 58.5684 82.3634C58.5711 82.3852 58.5957 82.4044 58.5984 82.4153C58.6203 82.4153 58.6367 82.4426 58.6613 82.4508L58.7296 82.4645C58.8443 82.4699 58.8853 82.4426 58.8881 82.3962C58.8963 82.2923 58.8935 82.2022 58.8935 82.1147" fill="white"/>
<path d="M59.4532 81.8415L59.4668 82.5628H59.2865L59.2646 81.6202C59.4668 81.6147 59.4942 81.5656 59.6854 81.5601C59.8657 81.5574 60.0242 81.6366 60.0351 81.8825L60.0488 82.5355H59.8685L59.8575 81.9207C59.8575 81.7732 59.7728 81.7186 59.6362 81.7158C59.5106 81.7104 59.4286 81.7677 59.4258 81.8251H59.4477V81.8442H59.4532V81.8415Z" fill="white"/>
<path d="M60.7023 82.4426C60.7023 82.4426 60.8034 82.4426 60.8689 82.429V82.5765C60.8689 82.5765 60.7569 82.5929 60.7023 82.6011C60.4099 82.6093 60.205 82.4344 60.1886 82.0874C60.1886 81.7814 60.3525 81.5793 60.6667 81.5683C60.7214 81.5601 60.7815 81.5738 60.8361 81.5765L60.8607 81.7432C60.7924 81.7295 60.735 81.7268 60.6777 81.7241C60.4973 81.7268 60.399 81.8197 60.4017 82.0792C60.4017 82.3279 60.5192 82.4235 60.6995 82.4317V82.4426H60.7023Z" fill="white"/>
<path d="M62.3554 82.5546L62.3308 81.5874H62.5002L62.5139 81.6858C62.5139 81.6858 62.5603 81.612 62.6122 81.5819C62.6669 81.5628 62.7079 81.5464 62.7543 81.5492C62.7898 81.5546 62.8226 81.5492 62.8581 81.5574L62.8636 81.7486L62.7243 81.7131C62.6095 81.7076 62.5166 81.765 62.5193 81.8552C62.533 82.0218 62.5357 82.2814 62.5385 82.53H62.3581V82.5546H62.3554Z" fill="white"/>
<path d="M63.4808 81.9071L63.4753 81.8634C63.4835 81.7596 63.418 81.6912 63.2813 81.6994C63.1803 81.7022 63.0819 81.7268 62.9972 81.7623V81.6038C63.0928 81.5683 63.1912 81.541 63.2923 81.5382C63.5081 81.541 63.6529 81.612 63.6529 81.847V82.3197C63.6639 82.3962 63.6529 82.4672 63.6611 82.5328C63.5027 82.5328 63.418 82.5683 63.2813 82.5656C63.0464 82.5765 62.9262 82.459 62.9344 82.2759C62.9289 82.0847 63.0874 81.9262 63.4671 81.9071H63.4808ZM63.489 82.041C63.2513 82.041 63.1393 82.1147 63.1475 82.2486C63.1475 82.2705 63.142 82.2951 63.1557 82.3033C63.1557 82.3251 63.183 82.3443 63.1857 82.3552C63.2076 82.3525 63.224 82.3825 63.2376 82.3934L63.3059 82.4071C63.4207 82.4126 63.4617 82.3852 63.4644 82.3388C63.4726 82.235 63.4699 82.1448 63.4699 82.0574L63.489 82.0328V82.0437V82.041Z" fill="white"/>
<path d="M64.2892 82.5246L64.1499 82.489C64.1499 82.489 64.0734 82.4207 64.057 82.3907C64.0297 82.3497 64.0433 82.2923 64.0351 82.2459C64.0269 82.1994 64.0543 82.153 64.098 82.1229C64.1253 82.0847 64.1799 82.0656 64.2127 82.0601C64.2565 82.0546 64.3002 82.0464 64.3603 82.0738C64.4067 82.0792 64.4368 82.1311 64.4641 82.1612C64.4914 82.2022 64.4996 82.2459 64.5051 82.2896L64.486 82.3825C64.486 82.3825 64.4504 82.4453 64.4286 82.459C64.3958 82.4754 64.3767 82.4891 64.3466 82.5164C64.3029 82.5218 64.281 82.5382 64.2483 82.53H64.2701L64.292 82.5246H64.2892ZM64.281 82.0738C64.281 82.0738 64.2045 82.0847 64.1745 82.112C64.1335 82.1393 64.1144 82.1666 64.098 82.2022C64.0925 82.2377 64.0871 82.2814 64.0816 82.3169C64.0871 82.3606 64.1144 82.3907 64.1417 82.4207C64.169 82.4508 64.2155 82.4672 64.2401 82.4754C64.2865 82.4808 64.3193 82.4754 64.3493 82.459C64.3931 82.4535 64.4122 82.4153 64.4286 82.3907C64.4477 82.3661 64.4641 82.3169 64.4477 82.2869L64.4368 82.2104C64.4368 82.1885 64.4177 82.1557 64.3931 82.1475C64.3685 82.1284 64.3548 82.1202 64.3193 82.1011C64.2947 82.0819 64.2619 82.0874 64.2401 82.0901H64.2619L64.2838 82.0738H64.281ZM64.2319 82.4317L64.1881 82.4371L64.1745 82.112C64.21 82.1175 64.2291 82.1038 64.2619 82.0983C64.3302 82.0983 64.3657 82.1175 64.3657 82.1858L64.3521 82.2431C64.3521 82.2431 64.322 82.2705 64.3138 82.2814L64.4013 82.4262L64.3575 82.4317L64.2728 82.3197C64.2728 82.3197 64.2455 82.2896 64.2346 82.2923H64.2127L64.2209 82.4289H64.2319V82.4317ZM64.2646 82.2705C64.2646 82.2705 64.3412 82.2595 64.3466 82.2131C64.3521 82.1776 64.3275 82.1585 64.2728 82.1666L64.2291 82.1721L64.2428 82.2705H64.2646Z" fill="white"/>
<path d="M54.6963 59.7951C52.2373 63.2022 48.6471 64.1803 45.9777 63.9536C41.6772 63.5246 39.9586 62.6066 39.0679 58.9317C39.2537 58.5109 40.464 57.9918 40.6171 57.582C41.5487 55.0355 41.8138 52.7158 41.781 50.3798C45.3302 50.2896 48.8793 50.1995 52.8438 50.0984C52.8356 51.2869 52.9422 52.6667 53.1389 54.0628C53.4012 55.9563 54.1936 58.265 54.6963 59.7923V59.7951Z" fill="#FFAE82"/>
<path d="M53.1366 54.0656C50.0983 56.9153 45.7704 58.4044 41.6338 57.847C41.2978 57.8033 40.9316 57.7268 40.6174 57.5847C41.5491 55.0382 41.8142 52.7186 41.7814 50.3825C45.3305 50.2923 48.8797 50.2022 52.8442 50.1011C52.836 51.2896 52.9426 52.6694 53.1393 54.0656H53.1366Z" fill="#F88868"/>
<path d="M49.4096 75.0273L45.232 69.9945L40.8085 74.724C40.6009 74.9344 40.2949 74.9754 40.0326 74.8333C39.5845 74.5683 29.0927 68.123 27.5927 59.4836C27.5654 59.3251 27.6009 59.1503 27.6965 59.0137C27.7921 58.877 27.9397 58.7896 28.1118 58.7623C34.1992 57.8989 37.4424 57.5437 37.4916 57.5301C38.3987 57.5246 39.4752 57.6284 39.6255 57.7732C39.7757 57.918 39.8386 58.1284 39.8058 58.3251C39.8058 58.3497 38.7812 59.7322 40.0708 61.3634C41.1856 62.7623 43.1528 63.5628 45.9287 63.735C51.0326 64.0382 53.7457 59.7678 54.3359 58.8743C54.4315 58.5792 54.7484 58.3907 55.0572 58.459L65.4506 59.4891C65.6364 59.5246 65.7976 59.6448 65.885 59.8169C65.9725 59.9891 65.9643 60.1967 65.8932 60.3579C65.7129 60.7295 61.3195 69.8443 50.1391 75.1776C50.0544 75.2158 49.661 75.3443 49.4096 75.0273ZM45.202 68.4481H45.2156C45.3878 68.4481 45.549 68.5219 45.6719 68.6585L49.926 73.9044C58.661 69.735 63.1391 62.8798 64.4561 60.7514L55.1801 59.4399C54.1828 60.8415 51.3495 65.3388 45.8659 64.9454C42.7129 64.7104 40.4451 63.7268 39.1391 62.0055C38.1173 60.6639 38.1364 59.5683 38.1364 58.6585C36.7211 58.918 33.2757 59.0929 29.0134 59.6585C30.5162 66.5328 38.2648 72.1421 40.161 73.4208L44.7566 68.6366C44.8686 68.5137 45.0408 68.4508 45.1992 68.4508L45.202 68.4481Z" fill="#960C51"/>
<path d="M32.1802 31.0574C32.1802 31.0574 29.0818 28.0273 26.6092 30.0055C23.6829 32.3415 26.743 40.7513 31.9288 39.8606" fill="#FFA278"/>
<path d="M31.3523 37.0765C30.9315 35.8115 29.7485 33.2076 26.8086 32.0464C26.8086 32.0464 29.9452 35.0082 30.1856 37.2978C30.2184 37.5984 30.4643 37.8279 30.7649 37.8197H30.8332C31.2102 37.806 31.4671 37.4372 31.3496 37.0792L31.3523 37.0765Z" fill="#F88868"/>
<path d="M58.3385 31.0574C58.3385 31.0574 61.4341 28.0273 63.9095 30.0055C66.8303 32.3415 63.7757 40.7513 58.5899 39.8606" fill="#FFA278"/>
<path d="M59.1664 37.0765C59.5817 35.8115 60.7675 33.2076 63.7074 32.0464C63.7074 32.0464 60.5681 35.0082 60.3304 37.2978C60.3003 37.5984 60.0544 37.8279 59.7511 37.8197H59.6828C59.3058 37.806 59.0489 37.4372 59.1692 37.0792L59.1664 37.0765Z" fill="#F88868"/>
<path d="M61.8958 27.8579C61.8521 28.3416 61.8029 28.847 61.751 29.3525C60.68 39.8088 57.4505 53.0246 45.9204 53.0246C34.3904 53.0246 30.221 40.5547 28.7729 30.3579C28.6718 29.612 28.5789 28.8907 28.5051 28.1776C27.4723 18.4864 34.9942 9.95084 44.7374 9.84155H45.6089C52.8548 9.93445 58.8822 14.653 61.0707 21.0656C61.3384 21.8388 61.5379 22.6284 61.6909 23.4399C61.9505 24.8552 62.0242 26.3416 61.8931 27.8579H61.8958Z" fill="#FFAE82"/>
<path d="M46.8412 39.8907H44.6062C44.3521 39.8907 44.1472 39.683 44.1472 39.4289C44.1472 39.1748 44.3494 38.9699 44.6062 38.9699H46.8412C46.8849 38.9699 46.9095 38.9481 46.9232 38.9262C46.9396 38.9098 46.9532 38.877 46.9396 38.8388L45.0844 32.4891C45.0133 32.2431 45.1527 31.9918 45.3931 31.918C45.639 31.847 45.8931 31.9863 45.9669 32.2295L47.8193 38.5792C47.9122 38.8907 47.8521 39.2213 47.6581 39.4809C47.4614 39.7404 47.1636 39.8907 46.8385 39.8907H46.8412Z" fill="#F88868"/>
<path d="M40.9699 25.7186C41.0272 26.2322 40.6393 26.6885 40.1256 26.7049C38.3988 26.7513 34.7977 27.0819 33.0546 28.9262C33.0546 28.9262 33.6311 25.7322 39.9863 24.9508C40.4699 24.8907 40.9125 25.2377 40.9726 25.7213H40.9699V25.7186Z" fill="black"/>
<path d="M49.9454 25.5273C49.8989 26.041 50.306 26.4836 50.8197 26.4836C52.5465 26.4809 56.1558 26.7076 57.9536 28.4973C57.9536 28.4973 57.2842 25.3224 50.9071 24.7268C50.4181 24.6803 49.9891 25.0382 49.9454 25.5273Z" fill="black"/>
<path d="M59.9286 23.3115C46.3221 22.5382 45.8986 19.9481 36.3275 16.5574C35.3822 16.2213 34.3849 16.9071 34.3603 17.9098C34.2811 21.2049 33.5379 27.6557 29.1936 31.4262C29.1936 31.4262 29.1144 30.9426 28.7729 30.3552C28.6718 29.6093 28.5789 28.888 28.5051 28.1749C27.4723 18.4836 34.9942 9.94808 44.7374 9.83606H45.6089C52.8548 9.92896 58.8822 14.6503 61.0707 21.0656C61.3384 21.8388 61.5379 22.6257 61.6909 23.4399C61.6909 23.4399 61.0543 23.4126 59.9286 23.3115Z" fill="black"/>
<path d="M61.896 27.8579C61.8523 28.3415 61.8031 28.847 61.7512 29.3524C60.396 28.5737 60.0244 25.3442 59.9315 23.3115C59.8823 22.3169 59.8987 21.612 59.8987 21.612C59.8987 21.612 59.978 21.2595 61.0736 21.0656C61.3414 21.8388 61.5408 22.6284 61.6938 23.4399C61.9534 24.8552 62.0272 26.3415 61.896 27.8579Z" fill="black"/>
<path d="M52.0983 44.0901C51.7841 44.724 51.3414 45.2759 50.825 45.7595C50.3797 46.183 49.8742 46.5546 49.3524 46.8798C48.5054 47.4071 47.5737 47.8415 46.5819 47.9207C45.6365 48 44.6939 47.7568 43.825 47.3825C42.9179 46.9918 42.0737 46.459 41.3305 45.8114C40.8578 45.3961 40.4234 44.9371 40.0409 44.4399C39.8387 44.1748 39.642 43.8852 39.6065 43.5546C39.5709 43.224 39.7294 42.7022 40.06 42.7541L40.1529 42.7677C44.825 43.4863 47.9207 43.694 51.3797 42.6694C51.5682 42.612 51.7622 42.6065 51.9234 42.6639C52.0846 42.7131 52.213 42.8278 52.2731 43.0027C52.3961 43.3606 52.2649 43.7513 52.0983 44.0874V44.0901Z" fill="#1F0E13"/>
<path d="M50.8277 45.7595C50.3823 46.183 49.8768 46.5546 49.355 46.8798C48.508 47.4071 47.5763 47.8415 46.5845 47.9207C45.6391 48 44.6965 47.7568 43.8277 47.3825C42.9206 46.9918 42.0763 46.459 41.3331 45.8115C41.3686 45.7349 41.4124 45.6612 41.4615 45.5901C41.7976 45.1202 42.3249 44.8442 42.8823 44.6639C43.0162 44.6175 43.1528 44.5792 43.2867 44.5437C45.0599 44.0874 46.9424 44.1284 48.7293 44.5191C48.7976 44.5355 48.8632 44.5519 48.9315 44.5656C49.6911 44.7541 50.4834 45.0956 50.8277 45.7568V45.7595Z" fill="#E74E5B"/>
<path d="M51.9233 42.6666C51.8058 42.9016 51.6583 43.1202 51.4916 43.2923C51.0408 43.7623 50.0517 44.2267 48.9315 44.5683C47.9616 44.8634 46.8905 45.0628 45.9807 45.0819C44.9343 45.1093 43.8851 44.9644 42.8823 44.6666C42.3987 44.5218 41.9288 44.3415 41.4725 44.1257C40.8823 43.847 40.4206 43.3579 40.1528 42.7677C44.825 43.4863 47.9206 43.694 51.3796 42.6694C51.5681 42.612 51.7621 42.6065 51.9233 42.6639V42.6666Z" fill="#FFF0F3"/>
<path d="M44.7267 48.4563C45.6229 48.5792 46.5382 48.5738 47.4343 48.4399C47.1201 48.8552 46.5983 49.1011 46.0791 49.0847C45.56 49.0683 45.0546 48.7869 44.7267 48.4563Z" fill="#F88868"/>
<path d="M57.6722 33.336C57.0492 32.0519 55.7268 31.1366 54.3061 31.0082C52.8853 30.8797 51.4181 31.5382 50.6039 32.7486C52.7296 31.5737 55.5793 31.877 57.6695 33.336H57.6722Z" fill="#1F0E13"/>
<path d="M55.2052 31.4617C55.9784 31.6202 56.8309 31.3032 57.3145 30.6776C57.3391 31.1393 57.0549 31.6038 56.6314 31.795C56.2079 31.9836 55.6724 31.8852 55.2052 31.4644V31.4617Z" fill="#1F0E13"/>
<path d="M56.5328 32.0519C56.8908 32.2131 57.2569 32.3743 57.6449 32.4344C58.0328 32.4945 58.4563 32.4399 58.7678 32.2022C58.5356 32.5901 58.0766 32.8306 57.6257 32.8005C57.1749 32.7705 56.7514 32.4726 56.5328 32.0519Z" fill="#1F0E13"/>
<path d="M35.022 33.336C35.6449 32.0519 36.9673 31.1366 38.3881 31.0082C39.8089 30.8797 41.2761 31.5382 42.0903 32.7486C39.9646 31.5737 37.1149 31.877 35.0247 33.336H35.022Z" fill="#1F0E13"/>
<path d="M37.4892 31.4617C36.716 31.6202 35.8635 31.3032 35.3799 30.6776C35.3553 31.1393 35.6395 31.6038 36.063 31.795C36.4865 31.9836 37.022 31.8852 37.4892 31.4644V31.4617Z" fill="#1F0E13"/>
<path d="M36.1612 32.0519C35.8033 32.2131 35.4372 32.3743 35.0492 32.4344C34.6612 32.4945 34.2377 32.4399 33.9263 32.2022C34.1585 32.5901 34.6175 32.8306 35.0683 32.8005C35.5192 32.7705 35.9427 32.4726 36.1612 32.0519Z" fill="#1F0E13"/>
<path d="M7.95433 75.7042C7.89149 70.4774 8.03903 65.0949 7.96526 62.4228C7.84504 58.0621 5.34231 56.0321 4.274 54.3463C3.81226 53.6168 2.93247 52.4037 2.5281 51.614C2.03903 50.6577 1.62646 49.1031 1.36144 48.0676C0.869632 46.1468 0.981654 45.4501 1.11007 43.6441C1.14286 43.1741 1.41881 41.2124 1.87236 41.0649C2.25488 40.9392 2.59094 41.114 2.81499 41.4446C3.13466 41.9146 3.09914 42.4528 3.40788 43.5812C3.39149 42.1851 3.41335 40.1659 4.23029 38.6168C4.35324 38.3845 4.58821 38.0785 4.82045 37.9474C5.03903 37.8271 5.71663 37.5785 6.04723 37.8353C6.04723 37.8353 6.30133 36.9692 6.50898 36.2151C6.67564 35.6004 7.17564 34.2288 8.02264 34.7315C8.69477 35.1304 8.92428 36.1359 8.97619 37.3463C9.17291 36.6086 9.41062 36.0457 9.70297 35.8681C10.5773 35.3381 11.7767 35.6359 11.9707 37.8026C12.1647 39.9692 11.8997 43.2862 13.8751 46.7042C14.2303 47.319 14.7112 48.3026 15.4243 48.5785C16.4079 48.9583 16.5882 48.1632 16.7494 47.5075C16.8041 47.2862 16.927 46.9337 17.1073 46.4009C17.3396 45.7151 17.692 45.0567 18.1975 44.5348C18.7057 44.0129 19.427 43.6495 20.1593 43.7097C20.5527 43.7424 20.9571 43.9282 20.8997 44.3572C20.6729 46.0676 20.7358 46.9856 20.5172 48.696C20.3123 50.3189 19.9817 51.2124 19.621 52.8135C19.1265 55.0157 15.7603 57.1222 16.7631 60.5239C17.8095 64.0758 20.8696 79.6359 22.6374 88.7889C17.1647 85.3955 7.97346 77.8818 7.94887 75.7015L7.95433 75.7042Z" fill="#FFAE82"/>
<path d="M3.40522 43.5567C3.22762 44.6277 3.34237 45.1058 3.61833 46.1441C3.938 47.1769 4.3615 48.1741 4.94347 49.0867C4.66751 48.043 4.27407 47.0567 4.00631 46.0375C3.6921 45.0293 3.56095 44.6195 3.40522 43.5567ZM13.5254 54.0375C12.9681 52.4364 11.326 51.1086 9.87243 50.584C9.83145 50.5703 9.71396 50.6277 9.78227 50.6851C10.9899 51.7069 12.162 52.7834 12.7249 54.3818C13.1921 55.7042 12.9899 57.0621 12.5446 58.1441C12.5036 58.2452 12.6238 58.3381 12.6839 58.2725C13.8861 56.9856 13.785 54.778 13.5254 54.0375ZM10.4407 46.4747C9.93254 44.8162 9.67024 43.5075 9.41341 41.7944C9.16751 40.1523 9.10467 39.1031 8.9544 37.4528C8.9544 37.4337 8.90248 37.4392 8.90248 37.4556C8.71669 39.2643 8.7003 40.4282 9.06095 42.2069C9.64292 45.073 9.82052 45.2752 10.3998 46.4802C10.4079 46.4938 10.4407 46.4883 10.438 46.4747H10.4407ZM6.6156 41.625C6.62106 40.972 6.60194 39.8026 6.60194 39.6004C6.60194 39.3408 6.57462 38.9419 6.5309 38.6823C6.48445 38.42 6.38882 38.1632 6.24675 37.9337C6.23309 37.9118 6.2003 37.89 6.18664 37.9118C6.31505 38.2233 6.36423 38.5649 6.36423 38.9009C6.36423 39.125 6.34784 39.3517 6.32325 39.5731C6.30139 39.7752 6.30412 39.9665 6.29593 40.1687C6.27407 40.7971 6.21942 41.2588 6.26041 41.8845C6.30959 42.6714 6.33418 43.1168 6.49265 43.89C6.95986 46.1468 7.26041 46.7998 7.7686 47.7534C7.7768 47.767 7.80959 47.7616 7.80686 47.7479C7.29866 46.0894 7.06369 45.1933 6.7768 43.4856C6.62926 42.6058 6.61013 42.0894 6.61287 41.6195L6.6156 41.625Z" fill="#F88868"/>
<path d="M82.5736 75.235C82.8741 69.2924 82.8085 62.4754 82.9643 59.3579C83.1828 55.0027 85.7293 53.0273 86.8331 51.3634C87.3113 50.6448 88.2184 49.4508 88.6391 48.6694C89.1473 47.7241 89.5954 46.1803 89.885 45.1476C90.4206 43.2405 90.3222 42.5383 90.2348 40.7295C90.2129 40.2596 89.9807 38.2924 89.5298 38.1339C89.1501 38 88.8085 38.1694 88.579 38.4945C88.2484 38.959 88.273 39.4973 87.9397 40.6175C87.9861 39.2213 88.0107 37.2022 87.2266 35.6366C87.1091 35.4017 86.8796 35.0902 86.6501 34.9563C86.4342 34.8306 85.7621 34.5683 85.426 34.817C85.426 34.817 85.191 33.9454 85.0025 33.1858C84.8495 32.5683 84.3796 31.1858 83.5216 31.6694C82.8413 32.0547 82.5872 33.0547 82.5107 34.2623C82.3304 33.5191 82.1063 32.9508 81.8167 32.7678C80.9561 32.2186 79.7484 32.4891 79.508 34.653C79.2675 36.817 79.4588 40.1366 77.4069 43.5109C77.038 44.1175 76.5353 45.0902 75.8167 45.3497C74.8249 45.7077 74.661 44.9098 74.5134 44.2486C74.4643 44.0246 74.3468 43.6694 74.1801 43.1366C73.9615 42.4454 73.6255 41.7814 73.1309 41.2459C72.6364 40.7104 71.9233 40.3333 71.1883 40.3798C70.7921 40.4044 70.385 40.5793 70.4315 41.0109C70.62 42.7268 70.538 43.6421 70.7156 45.3579C70.885 46.9864 71.1938 47.888 71.5189 49.4945C71.967 51.7077 75.2839 53.888 74.2047 57.265C72.9697 61.1339 68.9943 79.3989 67.1747 87.847C66.6091 90.4754 82.508 76.5028 82.5708 75.2323L82.5736 75.235Z" fill="#FFAE82"/>
<path d="M87.9399 40.5984C87.7596 41.6585 87.6202 42.0629 87.2841 43.0656C86.9918 44.0793 86.5765 45.0574 86.2787 46.0929C86.8798 45.194 87.3251 44.2077 87.6694 43.1804C87.9699 42.1476 88.0929 41.6722 87.9399 40.5984ZM81.3169 47.4809C79.8524 47.9727 78.1803 49.2651 77.5902 50.8525C77.3169 51.5875 77.1667 53.7896 78.3388 55.1038C78.3989 55.1694 78.5218 55.0793 78.4809 54.9782C78.0601 53.888 77.888 52.5246 78.3825 51.2131C78.9809 49.6284 80.1749 48.5793 81.4071 47.582C81.4754 47.5273 81.3606 47.4672 81.3197 47.4809H81.3169ZM82.5246 34.3716C82.3388 36.0192 82.2514 37.0656 81.9699 38.7022C81.6776 40.4099 81.3852 41.7131 80.8388 43.358C80.8333 43.3716 80.8688 43.3771 80.877 43.3634C81.4836 42.1722 81.6667 41.9754 82.3115 39.123C82.7104 37.3498 82.7213 36.1858 82.5765 34.3771C82.5765 34.358 82.5273 34.3525 82.5246 34.3716ZM85.224 34.9181C85.0792 35.1448 84.9781 35.3962 84.9235 35.6585C84.8716 35.9153 84.8361 36.3142 84.8306 36.5738C84.8279 36.776 84.7814 37.9454 84.7705 38.5957C84.765 39.0656 84.7322 39.582 84.5656 40.459C84.2404 42.1612 83.9863 43.0492 83.4426 44.6967C83.4371 44.7104 83.4727 44.7159 83.4809 44.7022C84.0082 43.7596 84.3251 43.1148 84.8415 40.8689C85.0191 40.0984 85.0519 39.6558 85.1202 38.8689C85.1749 38.2432 85.1311 37.7787 85.1202 37.1503C85.1202 36.9481 85.1229 36.7569 85.1065 36.5547C85.0874 36.3306 85.0738 36.1066 85.0792 35.8798C85.0874 35.5437 85.1421 35.2049 85.2787 34.8962C85.2678 34.8743 85.2322 34.8962 85.2186 34.9153L85.224 34.9181Z" fill="#F88868"/>
<path d="M19.7592 21.1859L20.3794 23.0957H22.3876L20.7646 24.276L21.3848 26.1859L19.7592 25.0055L18.1362 26.1859L18.7564 24.276L17.1307 23.0957H19.1389L19.7592 21.1859Z" fill="#FFFF17"/>
<path d="M14.9806 36.317L15.2784 37.235H16.2429L15.4615 37.8033L15.762 38.7213L14.9806 38.153L14.1965 38.7213L14.497 37.8033L13.7156 37.235H14.6801L14.9806 36.317Z" fill="#FFFF17"/>
<path d="M19.2403 33.153C19.5819 33.8334 19.948 34.5793 20.478 35.1339C20.4644 35.1203 20.4835 34.858 20.4835 34.8607C20.4835 34.6421 20.4835 34.4235 20.4835 34.205C20.4835 33.9864 20.4835 33.7678 20.4835 33.5492C20.4835 33.541 20.4999 33.3006 20.478 33.2787C19.948 32.7241 19.5819 31.9782 19.2403 31.2979C19.2595 31.3361 19.2349 31.5438 19.2349 31.5683C19.2349 31.7869 19.2321 32.0055 19.2321 32.2241C19.2321 32.4427 19.2321 32.6612 19.2349 32.8798C19.2349 32.9208 19.2157 33.1011 19.2403 33.153Z" fill="#A133BC"/>
<path d="M10.9099 64.6858C11.3744 65.6121 11.8716 66.6257 12.5929 67.3798C12.5765 67.3607 12.6011 67.0055 12.6011 67.011C12.6039 66.7132 12.6039 66.4154 12.6039 66.1175C12.6039 65.8197 12.6039 65.5219 12.6011 65.2241C12.6011 65.2132 12.623 64.8853 12.5929 64.8552C11.8716 64.1011 11.3744 63.0875 10.9099 62.1613C10.9345 62.2132 10.9017 62.4973 10.9017 62.5301C10.8989 62.8279 10.8989 63.1257 10.8989 63.4236C10.8989 63.7214 10.8989 64.0192 10.9017 64.317C10.9017 64.3744 10.8771 64.6203 10.9099 64.6858Z" fill="#A133BC"/>
<path d="M5.54325 34.2514C7.6662 34.9809 9.9203 33.8661 9.99954 31.4973C10.0187 30.9372 9.98041 30.1448 9.99407 29.7076C9.91484 32.0574 7.6061 33.1038 5.54325 32.3962C5.72085 32.4563 5.34107 34.1831 5.54325 34.2514Z" fill="#A133BC"/>
<path d="M18.3275 12.1312C16.699 13.6776 16.6444 16.1913 18.71 17.3552C19.1963 17.6312 19.9176 17.9618 20.3001 18.1776C18.2537 17.0219 18.3903 14.4918 19.9723 12.9864C19.8357 13.1148 18.4832 11.9809 18.3275 12.1284V12.1312Z" fill="#A133BC"/>
<path d="M8.01861 22.8716C9.24539 22.8962 10.3383 23.3251 11.3601 23.9863C11.2946 23.9426 11.3683 23.1421 11.3683 23.0574C11.3683 22.9645 11.4448 22.1831 11.3601 22.1284C10.3383 21.47 9.24539 21.041 8.01861 21.0137C8.01861 21.0137 7.99129 22.8689 8.01861 22.8689V22.8716Z" fill="#EF2ECA"/>
<path d="M23.0435 11.4126C23.7894 10.4399 24.784 9.81423 25.9206 9.38254C25.8468 9.40986 25.2457 8.87434 25.1774 8.82516C25.1009 8.77052 24.5189 8.24593 24.4233 8.28145C23.2867 8.71314 22.2949 9.34156 21.5463 10.3115C21.5463 10.3115 23.0244 11.4317 23.0408 11.4099L23.0435 11.4126Z" fill="#EF2ECA"/>
<path d="M26.0411 82.4508C27.2761 81.6066 28.328 80.5355 29.3826 79.4809C29.4865 79.3771 29.3908 78.6885 29.3908 78.5519C29.3908 78.429 29.2925 77.7131 29.3826 77.623C28.328 78.6776 27.2761 79.7486 26.0411 80.5929C25.9537 80.653 26.0329 81.4208 26.0329 81.5219C26.0329 81.6093 26.1121 82.4016 26.0411 82.4508Z" fill="#FFFF1F"/>
<path d="M16.9536 45.5137C17.8415 45.4891 18.5601 45.0028 19.1803 44.3989C19.2814 44.3006 19.1885 43.6039 19.1885 43.47C19.1885 43.3498 19.0929 42.6257 19.1803 42.541C18.5601 43.1421 17.8415 43.6312 16.9536 43.6558C16.9235 43.6558 16.9563 45.511 16.9536 45.511V45.5137Z" fill="#EF2ECA"/>
<path d="M72.1696 14.4973L72.7242 16.2022H74.5165L73.0657 17.2568L73.6204 18.9617L72.1696 17.9071L70.7187 18.9617L71.2706 17.2568L69.8198 16.2022H71.6149L72.1696 14.4973Z" fill="#A133BC"/>
<path d="M70.6041 35.8989C71.4593 35.8989 72.167 36.0274 72.8091 36.6339C72.7927 36.6175 72.82 36.2213 72.82 36.2295C72.8227 35.9044 72.8254 35.5793 72.8254 35.2569C72.8254 34.9345 72.8254 34.6066 72.82 34.2842C72.82 34.276 72.8418 33.9099 72.8091 33.8798C72.167 33.2733 71.4593 33.1448 70.6041 33.1448C70.585 33.1448 70.5823 35.8989 70.6041 35.8989Z" fill="#FFFF1F"/>
<path d="M68.0548 12.4235C68.91 12.4235 69.6177 12.5519 70.2597 13.1584C70.2433 13.1421 70.2707 12.7459 70.2707 12.7541C70.2734 12.4289 70.2761 12.1038 70.2761 11.7814C70.2761 11.459 70.2761 11.1311 70.2707 10.8087C70.2707 10.8005 70.2925 10.4344 70.2597 10.4043C69.6177 9.79779 68.91 9.66937 68.0548 9.66937C68.0357 9.66937 68.033 12.4235 68.0548 12.4235Z" fill="#FFFF1F"/>
<path d="M86.1534 37.7978C86.8774 37.0437 87.4895 36.1639 87.9621 35.2268C87.9977 35.1557 87.9703 34.8825 87.9703 34.8224C87.9731 34.4973 87.9758 34.1721 87.9758 33.8497C87.9758 33.5273 87.9758 33.1995 87.9703 32.8771C87.9703 32.8415 87.9348 32.5273 87.9621 32.4727C87.4895 33.4098 86.8774 34.2896 86.1534 35.0437C86.1206 35.0765 86.1452 35.4344 86.1452 35.4481C86.1425 35.7732 86.1397 36.0984 86.1397 36.4208C86.1397 36.7432 86.1397 37.071 86.1452 37.3934C86.1452 37.388 86.1725 37.7787 86.1534 37.7978Z" fill="#A133BC"/>
<path d="M63.1693 10.9454C63.8933 10.1913 64.5053 9.3115 64.978 8.37434C65.0135 8.3033 64.9862 8.03007 64.9862 7.96997C64.9889 7.64483 64.9917 7.31969 64.9917 6.99729C64.9917 6.67488 64.9917 6.34702 64.9862 6.02461C64.9862 5.98909 64.9507 5.67488 64.978 5.62024C64.5053 6.5574 63.8933 7.43718 63.1693 8.19128C63.1365 8.22406 63.1611 8.58199 63.1611 8.59565C63.1583 8.92079 63.1556 9.24592 63.1556 9.56833C63.1556 9.89073 63.1556 10.2186 63.1611 10.541C63.1611 10.5355 63.1884 10.9262 63.1693 10.9454Z" fill="#A133BC"/>
<path d="M69.0524 66.377C70.0087 66.8688 70.8529 67.5382 71.8065 68.03C71.7272 67.989 71.8201 66.7595 71.8201 66.653C71.8201 66.5328 71.9158 65.3306 71.8065 65.2759C70.8502 64.7841 70.0059 64.1147 69.0524 63.6229C69.1316 63.6639 69.0387 64.8934 69.0387 65C69.0387 65.1202 68.9431 66.3224 69.0524 66.377Z" fill="#EF2ECA"/>
<path d="M62.0563 86.377C63.1656 86.9781 64.2011 88.3388 64.2558 89.6339C64.264 89.8251 64.2694 89.3989 64.2667 89.4945C64.2722 89.2213 64.2722 88.9453 64.2722 88.6721C64.2722 88.1093 64.2858 87.541 64.2612 86.9781C64.2039 85.6339 63.2175 84.2541 62.0536 83.6229C62.1383 83.6694 62.0399 84.8907 62.0399 85C62.0399 85.1229 61.9416 86.3169 62.0536 86.377H62.0563Z" fill="#FFFF1F"/>
<path d="M76.489 67.6011C77.0436 67.9017 77.5628 68.582 77.5901 69.2295C77.5928 69.3252 77.5955 69.112 77.5955 69.1612C77.5955 69.0246 77.5956 68.888 77.5983 68.7486C77.5983 68.4672 77.6065 68.1831 77.5928 67.9017C77.5655 67.2295 77.071 66.541 76.489 66.2241C76.53 66.2459 76.4808 66.8579 76.4808 66.9126C76.4808 66.9754 76.4316 67.5711 76.489 67.6011Z" fill="#FFFF1F"/>
<path d="M77.0494 27.4125C78.1696 27.3907 78.7734 26.7049 79.2543 25.7595C79.2925 25.6858 79.2625 25.4153 79.2652 25.3552C79.2679 25.03 79.2707 24.7049 79.2707 24.3825C79.2707 24.0601 79.2707 23.7322 79.2652 23.4098C79.2652 23.3743 79.227 23.0601 79.2543 23.0054C78.7734 23.9508 78.1723 24.6366 77.0494 24.6584C77.0111 24.6584 77.0466 27.4125 77.0494 27.4125Z" fill="#EF2ECA"/>
<path d="M67.5599 51.0765C67.7812 51.306 67.9397 51.5683 68.1118 51.8333C68.2485 52.041 68.4097 52.1667 68.6638 52.1776C68.6419 52.1776 68.7266 49.4262 68.6638 49.4235C68.4042 49.4126 68.2567 49.2869 68.1118 49.0792C67.9315 48.817 67.7812 48.5519 67.5599 48.3224C67.5791 48.3415 67.549 48.7295 67.549 48.7268C67.5463 49.0519 67.5435 49.3771 67.5435 49.6995C67.5435 50.0219 67.5435 50.3497 67.549 50.6721C67.549 50.6858 67.5272 51.041 67.5599 51.0765Z" fill="#EF2ECA"/>
</g>
</svg>
