<svg width="25" height="26" viewBox="0 0 25 26" fill="none" xmlns="http://www.w3.org/2000/svg">
<path d="M12.5 23C9.84783 23 7.3043 21.9464 5.42893 20.0711C3.55357 18.1957 2.5 15.6522 2.5 13C2.5 10.3478 3.55357 7.8043 5.42893 5.92893C7.3043 4.05357 9.84783 3 12.5 3C15.1522 3 17.6957 4.05357 19.5711 5.92893C21.4464 7.8043 22.5 10.3478 22.5 13C22.5 15.6522 21.4464 18.1957 19.5711 20.0711C17.6957 21.9464 15.1522 23 12.5 23ZM12.5 0.5C10.8585 0.5 9.23303 0.823322 7.71646 1.45151C6.19989 2.07969 4.8219 3.00043 3.66117 4.16117C1.31696 6.50537 0 9.68479 0 13C0 16.3152 1.31696 19.4946 3.66117 21.8388C4.8219 22.9996 6.19989 23.9203 7.71646 24.5485C9.23303 25.1767 10.8585 25.5 12.5 25.5C15.8152 25.5 18.9946 24.183 21.3388 21.8388C23.683 19.4946 25 16.3152 25 13C25 11.3585 24.6767 9.73303 24.0485 8.21646C23.4203 6.69989 22.4996 5.3219 21.3388 4.16117C20.1781 3.00043 18.8001 2.07969 17.2835 1.45151C15.767 0.823322 14.1415 0.5 12.5 0.5Z" fill="#CA005D"/>
<path d="M12.5 23C9.84783 23 7.3043 21.9464 5.42893 20.0711C3.55357 18.1957 2.5 15.6522 2.5 13C2.5 10.3478 3.55357 7.8043 5.42893 5.92893C7.3043 4.05357 9.84783 3 12.5 3C15.1522 3 17.6957 4.05357 19.5711 5.92893C21.4464 7.8043 22.5 10.3478 22.5 13C22.5 15.6522 21.4464 18.1957 19.5711 20.0711C17.6957 21.9464 15.1522 23 12.5 23ZM12.5 0.5C10.8585 0.5 9.23303 0.823322 7.71646 1.45151C6.19989 2.07969 4.8219 3.00043 3.66117 4.16117C1.31696 6.50537 0 9.68479 0 13C0 16.3152 1.31696 19.4946 3.66117 21.8388C4.8219 22.9996 6.19989 23.9203 7.71646 24.5485C9.23303 25.1767 10.8585 25.5 12.5 25.5C15.8152 25.5 18.9946 24.183 21.3388 21.8388C23.683 19.4946 25 16.3152 25 13C25 11.3585 24.6767 9.73303 24.0485 8.21646C23.4203 6.69989 22.4996 5.3219 21.3388 4.16117C20.1781 3.00043 18.8001 2.07969 17.2835 1.45151C15.767 0.823322 14.1415 0.5 12.5 0.5ZM12.5 6.75C10.8424 6.75 9.25268 7.40848 8.08058 8.58058C6.90848 9.75268 6.25 11.3424 6.25 13C6.25 14.6576 6.90848 16.2473 8.08058 17.4194C9.25268 18.5915 10.8424 19.25 12.5 19.25C14.1576 19.25 15.7473 18.5915 16.9194 17.4194C18.0915 16.2473 18.75 14.6576 18.75 13C18.75 11.3424 18.0915 9.75268 16.9194 8.58058C15.7473 7.40848 14.1576 6.75 12.5 6.75Z" fill="#CA005D"/>
</svg>
