<svg width="62" height="45" viewBox="0 0 62 45" fill="none" xmlns="http://www.w3.org/2000/svg">
<path d="M58.8029 36.046C57.6427 38.0596 56.0335 39.6552 54.1095 40.9067C51.8874 42.3524 49.2447 43.3392 46.3869 43.981C37.089 46.0697 25.515 44.5062 18.7469 43.2092C17.3743 42.946 16.1997 42.694 15.2815 42.4855C13.7318 42.1335 12.2631 41.5961 10.9393 40.8844C10.9323 40.8806 10.9254 40.8768 10.9185 40.8733C1.84788 35.9888 -2.00445 29.0079 1.01139 22.3958C1.05814 22.2926 9.95043 1.29417 31.0356 8.22903C40.2921 11.2736 36.8873 13.8605 47.1475 17.0964C51.9443 18.6094 58.2919 21.3077 60.0332 27.6732C60.6545 29.9449 60.4453 33.1959 58.8032 36.046H58.8029Z" fill="#FFEBC8"/>
<path d="M16.3308 7.07748C16.3308 7.07748 18.1274 6.63594 18.6473 7.31437C19.1673 7.99279 17.887 9.86326 16.9143 10.0083C15.9417 10.1537 16.3308 7.07748 16.3308 7.07748Z" fill="#FE9F73"/>
<path d="M11.2538 32.0713C11.2538 32.0713 15.8254 29.842 16.6633 26.6932C17.5015 23.5443 12.1205 23.1417 12.1953 23.1423C12.2701 23.1426 6.73042 24.6162 6.3522 25.5154C5.97399 26.4143 4.31063 30.1598 4.98349 30.1631C5.65634 30.1665 11.2538 32.0716 11.2538 32.0716V32.0713Z" fill="#ED7163"/>
<path d="M15.2972 3.79319C15.296 3.7865 15.2945 3.77981 15.2927 3.77312C15.2412 3.54657 15.0289 3.39452 14.7988 3.41915C14.7921 3.41976 14.7852 3.42067 14.7782 3.42159C14.7761 3.42189 14.7737 3.42189 14.7716 3.4225L4.7121 5.10777C4.70998 5.10807 4.70756 5.10868 4.70544 5.10929C4.69878 5.11051 4.69181 5.11203 4.68545 5.11385C4.45986 5.16555 4.30815 5.37871 4.33267 5.60952C4.33328 5.61621 4.33419 5.6232 4.3351 5.62989C4.3354 5.63202 4.3354 5.63446 4.336 5.63658L7.82532 26.641C7.86166 26.8594 8.06727 27.0069 8.28469 26.9704L18.4601 25.2656C18.6775 25.2292 18.8244 25.0227 18.7881 24.8043L15.2988 3.79988C15.2984 3.79775 15.2978 3.79531 15.2972 3.79319Z" fill="#FFF6E6"/>
<path d="M4.13991 5.53601L4.86878 4.83234L14.6748 3.21549L15.6607 3.83097C15.6607 3.83097 15.7237 4.72348 15.6719 4.74598C15.6202 4.76848 4.26497 6.80741 4.2362 6.63134C4.20744 6.45558 4.14021 5.53601 4.14021 5.53601H4.13991Z" fill="#CC8100"/>
<g opacity="0.5">
<path d="M5.2692 5.82633C5.27949 5.88806 5.25164 5.94736 5.20288 5.97989C5.18562 5.99175 5.16533 5.99996 5.14293 6.00361C5.12112 6.00726 5.09932 6.00604 5.07873 6.00057C5.0221 5.98597 4.97638 5.93884 4.96639 5.87711C4.95246 5.79318 5.00908 5.71381 5.09236 5.69982C5.17593 5.68584 5.25497 5.7424 5.2689 5.82633H5.2692Z" fill="white"/>
<path d="M5.73661 5.74793C5.74691 5.80966 5.71905 5.86895 5.6703 5.90149C5.65304 5.91335 5.63275 5.92156 5.61034 5.92521C5.58824 5.92886 5.56613 5.92764 5.54615 5.92217C5.48952 5.90727 5.4441 5.86044 5.4338 5.79871C5.41987 5.71478 5.4762 5.63541 5.55977 5.62143C5.64335 5.60744 5.72238 5.664 5.73631 5.74793H5.73661Z" fill="white"/>
<path d="M6.20564 5.66943C6.21594 5.73116 6.18808 5.79046 6.13932 5.82299C6.12206 5.83485 6.10177 5.84306 6.07937 5.84671C6.05726 5.85036 6.03516 5.84915 6.01517 5.84367C5.95854 5.82877 5.91312 5.78194 5.90283 5.72021C5.8889 5.63628 5.94522 5.55691 6.0288 5.54293C6.11237 5.52894 6.19141 5.5855 6.20534 5.66943H6.20564Z" fill="white"/>
</g>
<path d="M18.7519 24.5872C18.8083 24.9257 18.5802 25.2459 18.2435 25.3025L8.50141 26.9345C8.16438 26.9911 7.84521 26.7624 7.78919 26.4239L4.37406 5.86711C4.31138 5.48943 4.56544 5.13212 4.94153 5.06917L14.5425 3.46054C14.9186 3.39759 15.2744 3.65242 15.3371 4.0304L18.7522 24.5869L18.7519 24.5872ZM14.4868 3.00166L4.84554 4.61699C4.22508 4.72099 3.80599 5.31032 3.90955 5.9334L7.3598 26.7016C7.46336 27.3247 8.05021 27.7455 8.67068 27.6415L18.3119 26.0262C18.9324 25.9222 19.3515 25.3329 19.2479 24.7098L15.7977 3.94161C15.6941 3.31853 15.1073 2.89766 14.4868 3.00166Z" fill="#790038"/>
<path d="M12.1908 31.5128V31.5405V31.5493L12.1775 34.2156L12.0997 41.481C9.49128 40.2014 8.10503 39.1351 8.10503 39.1351C8.10503 39.1351 7.35859 38.7085 6.1856 37.7488C5.01262 36.7891 4.26617 36.0426 3.94627 35.7227L4.12541 29.8209C4.12541 29.8209 2.95595 24.4841 3.0368 23.2084C3.11825 21.9325 3.95493 19.0089 4.33405 17.8847C4.44549 17.5542 4.51241 17.126 4.55086 16.6863C4.55389 16.6534 4.55662 16.6206 4.55904 16.5875C4.55904 16.5865 4.55904 16.5862 4.55904 16.5862C4.59235 16.1642 4.60053 15.7375 4.59931 15.3814C4.59931 15.3702 4.59931 15.3592 4.59931 15.3477C4.59931 15.3164 4.59931 15.2862 4.59871 15.2561C4.59871 15.2482 4.59871 15.2403 4.59871 15.2324C4.59356 14.8024 4.57539 14.5075 4.57539 14.5075C4.58266 14.4345 4.59296 14.3661 4.60537 14.3019C4.61809 14.2347 4.63383 14.1724 4.6517 14.1143C4.66533 14.0702 4.68047 14.0285 4.69652 13.9899C4.80583 13.7275 4.97359 13.58 5.17163 13.5253C5.31819 13.4845 5.48171 13.4945 5.65068 13.5459C6.24844 13.7278 6.91493 14.4281 7.15112 15.2339C7.59232 16.738 7.19685 21.0901 7.19685 21.0901C7.19685 21.0901 8.21914 22.1271 8.86111 24.1946C9.03129 24.7426 9.17482 25.3629 9.26536 26.0556C9.29958 26.319 9.31684 26.5662 9.31866 26.7982C9.32138 27.0661 9.30352 27.3136 9.26991 27.5417C9.22236 27.8662 9.14242 28.1517 9.04158 28.4026C8.5047 29.7409 7.37641 30.1003 7.37641 30.1003L7.45091 30.1222L9.29141 30.6623L12.0945 31.4849L12.1908 31.5131H12.1914L12.1908 31.5128Z" fill="#FCAE92"/>
<path d="M18.0443 17.2206L18.1696 17.9897C18.1696 17.9897 17.0895 19.0841 17.442 20.4741C17.7945 21.8641 18.7253 22.0316 18.7253 22.0316C18.7253 22.0316 20.1794 20.0745 20.1564 19.3949C20.1334 18.7152 20.1279 17.5235 18.0443 17.2209V17.2206Z" fill="#FE9F73"/>
<path d="M18.744 22.0841L18.7135 22.0765C18.2465 21.9603 17.9573 21.5987 17.9452 21.5832C17.9149 21.5474 17.1779 20.6643 17.3248 19.6367C17.4713 18.6138 18.3252 17.7809 18.3616 17.7459L18.4255 17.8128C18.4167 17.821 17.5579 18.6594 17.4159 19.6501C17.2748 20.636 18.0088 21.516 18.0164 21.5248C18.02 21.5294 18.2871 21.8624 18.7053 21.9789L19.535 20.8029C20.4032 19.5443 20.0028 18.5594 19.9989 18.5493L20.0837 18.5131C20.0882 18.5238 20.1939 18.7771 20.1888 19.1946C20.1839 19.5774 20.0794 20.1762 19.6107 20.8562L18.744 22.0844V22.0841Z" fill="black"/>
<path d="M18.8871 22.459L18.9849 23.0599C18.9849 23.0599 18.141 23.915 18.4162 25.0012C18.6915 26.0875 19.4188 26.2182 19.4188 26.2182C19.4188 26.2182 20.555 24.6886 20.5371 24.158C20.5193 23.6271 20.515 22.6956 18.8868 22.459H18.8871Z" fill="#FE9F73"/>
<path d="M19.4346 26.2591L19.4107 26.2533C19.0458 26.1627 18.8199 25.8799 18.8105 25.8681C18.7869 25.8401 18.2109 25.1501 18.3257 24.347C18.4401 23.5479 19.1075 22.8968 19.136 22.8694L19.186 22.9217C19.1793 22.9281 18.508 23.5831 18.3971 24.3573C18.2869 25.1276 18.8605 25.8155 18.8662 25.8224C18.8692 25.8261 19.0779 26.0861 19.4046 26.1773L20.0529 25.2584C20.7312 24.2749 20.4187 23.505 20.4154 23.4974L20.4817 23.4691C20.4956 23.5016 20.8145 24.2813 20.112 25.3L19.4349 26.2597L19.4346 26.2591Z" fill="black"/>
<path d="M9.08601 28.2783C9.08601 28.2783 8.35744 30.1704 9.29041 30.6615C10.2234 31.1526 7.04323 31.4141 7.04384 31.3214C7.04444 31.2289 4.84662 28.4881 5.40017 28.3522C5.95371 28.2163 7.68459 27.5771 8.07401 27.9955C8.46342 28.4139 9.08601 28.2783 9.08601 28.2783Z" fill="#FCAE92"/>
<path d="M17.3087 12.6682L17.434 13.4373C17.434 13.4373 16.3539 14.5317 16.7064 15.9217C17.0589 17.3117 17.9897 17.4792 17.9897 17.4792C17.9897 17.4792 19.4438 15.5221 19.4208 14.8425C19.3981 14.1631 19.3923 12.9711 17.3087 12.6685V12.6682Z" fill="#FE9F73"/>
<path d="M12.1447 31.5154L12.1311 34.2181L12.2231 34.2186L12.2368 31.5158L12.1447 31.5154Z" fill="black"/>
<path d="M11.9494 31.653L11.9122 31.5685C13.4774 30.8752 14.9318 29.5411 15.6204 28.5951C16.2297 27.7585 16.491 27.14 16.4934 27.1336L16.5785 27.1695C16.5758 27.1759 16.3111 27.8035 15.6949 28.6495C14.999 29.6053 13.5301 30.9527 11.9494 31.653Z" fill="black"/>
<path d="M18.0082 17.531L17.978 17.5237C17.558 17.424 17.2249 17.0484 17.2109 17.0323C17.1788 16.9946 16.4418 16.1115 16.589 15.0837C16.7355 14.0607 17.5895 13.2278 17.6258 13.1929L17.6897 13.2598C17.6809 13.268 16.8221 14.1064 16.6801 15.0971C16.539 16.0826 17.273 16.963 17.2806 16.9718C17.2833 16.9748 17.5919 17.3221 17.9695 17.4261L18.7992 16.2499C19.6674 14.9913 19.267 14.0063 19.2631 13.9963L19.3479 13.9601C19.3524 13.9707 19.4581 14.224 19.453 14.6416C19.4481 15.0244 19.3436 15.6232 18.8749 16.3031L18.0085 17.531H18.0082Z" fill="black"/>
<path d="M17.3871 13.4447L15.9311 5.02196L16.022 5.00706L17.4779 13.4295L17.3871 13.4447Z" fill="black"/>
<path d="M18.4517 8.77362L18.3766 8.7201C18.3829 8.71098 19.0146 7.80448 18.5513 7.27445C18.0816 6.73743 16.4219 7.10447 16.4053 7.10812L16.385 7.0178C16.4552 7.00199 18.115 6.63525 18.6203 7.21333C19.1318 7.7981 18.4795 8.73409 18.4517 8.77362Z" fill="black"/>
<path d="M5.97133 29.0969C5.9577 29.1067 5.93984 29.1091 5.92348 29.1021C5.37539 28.86 4.86303 28.0527 4.84123 28.0183C4.827 27.9955 4.83366 27.9657 4.85637 27.9511C4.87908 27.9368 4.90906 27.9435 4.92329 27.9663C4.92844 27.9745 5.44171 28.7831 5.96255 29.013C5.98708 29.0239 5.99828 29.0525 5.98738 29.0772C5.98374 29.0854 5.97799 29.0924 5.97133 29.0972V29.0969Z" fill="#000100"/>
<path d="M6.63526 28.9951C6.62467 29.0027 6.61104 29.006 6.59741 29.0033C6.01026 28.8856 5.3362 28.2081 5.30803 28.1795C5.28926 28.1603 5.28926 28.1293 5.30834 28.1105C5.32741 28.0913 5.3583 28.0916 5.37708 28.1105C5.38374 28.1172 6.05871 28.7956 6.61649 28.9072C6.64284 28.9124 6.65979 28.9382 6.65464 28.9647C6.65222 28.9774 6.64495 28.9878 6.63526 28.9948V28.9951Z" fill="#000100"/>
<path d="M7.3899 30.1439L7.36204 30.0557C7.3678 30.0539 7.93981 29.8659 8.45126 29.2827C8.92335 28.7445 9.43995 27.7486 9.2192 26.0615C8.99723 24.3631 8.45035 23.1109 8.03035 22.3592C7.57553 21.5448 7.16764 21.1267 7.1637 21.1224L7.14856 21.1072L7.15038 21.0856C7.15431 21.0421 7.5401 16.725 7.10647 15.2468C6.84696 14.3613 6.01816 13.5509 5.36802 13.5463C5.36741 13.5463 5.36711 13.5463 5.3665 13.5463C5.04522 13.5448 4.81296 13.7458 4.69517 14.128C4.66065 14.2399 4.63582 14.368 4.62128 14.5088C4.62552 14.5823 4.68639 15.6743 4.59675 16.6906C4.55284 17.1924 4.47896 17.5989 4.37752 17.8997C4.03049 18.9287 3.16475 21.9188 3.08238 23.2118C3.00244 24.4665 4.15798 29.7577 4.16979 29.8112L4.07985 29.831C4.03201 29.6129 2.90978 24.4738 2.99063 23.2061C3.0736 21.9045 3.94207 18.9029 4.29031 17.8702C4.38933 17.5764 4.4617 17.1768 4.505 16.6827C4.59675 15.6424 4.52983 14.5218 4.52923 14.5106V14.5069V14.5033C4.54437 14.3552 4.57071 14.2199 4.60705 14.101C4.77269 13.5642 5.11123 13.4526 5.36681 13.4542C5.36741 13.4542 5.36802 13.4542 5.36862 13.4542C5.69596 13.4566 6.08417 13.6497 6.43331 13.9845C6.79094 14.3272 7.06135 14.7663 7.19459 15.2209C7.62216 16.6784 7.27635 20.7067 7.24395 21.0735C7.32237 21.1574 7.69726 21.5749 8.10848 22.3108C8.53302 23.0698 9.08596 24.3348 9.31004 26.0496C9.40936 26.8101 9.37091 27.4983 9.19588 28.0952C9.05507 28.5745 8.82675 28.9959 8.51667 29.3481C7.98796 29.9487 7.41382 30.1366 7.3896 30.1442L7.3899 30.1439Z" fill="black"/>
<path d="M12.4704 12.7828L12.8114 10.8297L11.704 11.2037L10.97 10.9315L10.3604 11.4241L9.19188 11.4235L10.1342 13.1663C8.91087 14.3018 8.30585 16.7883 8.55718 18.331C8.87514 20.2847 10.4455 19.984 12.3911 19.6647C14.3367 19.3454 15.9207 19.1286 15.6027 17.1745C15.3517 15.6319 13.99 13.4679 12.4701 12.7828H12.4704Z" fill="#FFA100"/>
<g style="mix-blend-mode:multiply">
<path d="M10.9067 10.9828L10.3604 11.4243L9.19186 11.4237L10.1342 13.1664C8.91085 14.3019 8.30583 16.7885 8.55717 18.3311C8.87149 20.2615 10.4083 19.9912 12.3214 19.6761L10.9067 10.9825V10.9828Z" fill="#F1F2F2"/>
</g>
<path d="M10.9189 17.1392C11.0151 17.3745 11.2062 17.456 11.4884 17.4098C11.771 17.3636 11.8724 17.2304 11.8436 17.0531C11.8106 16.8509 11.6804 16.7849 11.248 16.7575C10.5588 16.7104 10.3565 16.4924 10.3029 16.1627C10.2336 15.7373 10.5046 15.398 11.0803 15.3034C11.7265 15.1973 12.0408 15.5026 12.1343 15.8547L11.6047 15.9417C11.5517 15.7939 11.4439 15.644 11.1296 15.6957C10.9143 15.7309 10.8017 15.8404 10.8298 16.0143C10.858 16.1883 10.9715 16.2388 11.3812 16.2625C12.115 16.3169 12.3133 16.5535 12.3696 16.9011C12.4417 17.3444 12.1565 17.7078 11.5139 17.8133C10.8958 17.9146 10.5179 17.6637 10.3889 17.2261L10.9186 17.1392H10.9189Z" fill="#F9EFE4"/>
<path d="M12.3937 17.8182L12.9391 14.9984L13.3591 14.9293L12.8173 17.7486L12.3937 17.8182Z" fill="#F9EFE4"/>
<path d="M12.4711 12.7828L9.81783 13.5306" stroke="#75452A" stroke-width="0.2" stroke-miterlimit="10" stroke-linecap="round"/>
<path d="M10.1382 13.1621L12.8863 13.0268" stroke="#75452A" stroke-width="0.2" stroke-miterlimit="10" stroke-linecap="round"/>
<path d="M59.7145 25.3791H37.3212V29.6445H59.7145V25.3791Z" fill="#71113D"/>
<path d="M38.6661 6.44244H38.2879V25.3791H38.6661V6.44244Z" fill="#A2004A"/>
<path d="M58.5301 6.44244H58.152V25.3791H58.5301V6.44244Z" fill="#A2004A"/>
<path d="M39.2684 4.25961V5.33765C39.2684 6.12374 39.8631 6.76231 40.5973 6.76231H41.5962C42.3294 6.76231 42.9251 6.12478 42.9251 5.33765V4.25961H39.2694H39.2684Z" fill="#CB4282"/>
<path d="M35.6138 4.2595V5.33754C35.6138 6.12363 36.2085 6.7622 36.9427 6.7622H37.9415C38.6748 6.7622 39.2704 6.12466 39.2704 5.33754V4.2595H35.6138Z" fill="#FFA5CF"/>
<path d="M42.9263 4.25961V5.33765C42.9263 6.12374 43.521 6.76231 44.2552 6.76231H45.254C45.9873 6.76231 46.5829 6.12478 46.5829 5.33765V4.25961H42.9273H42.9263Z" fill="#FFA5CF"/>
<path d="M53.8943 4.25961V5.33765C53.8943 6.12374 54.4889 6.76231 55.2231 6.76231H56.222C56.9552 6.76231 57.5509 6.12478 57.5509 5.33765V4.25961H53.8952H53.8943Z" fill="#CB4282"/>
<path d="M58.8776 6.76131H59.8765C60.6097 6.76131 61.2053 6.12377 61.2053 5.33665V4.25861H57.5497V5.33665C57.5497 6.12274 58.1444 6.76131 58.8786 6.76131H58.8776Z" fill="#FFA5CF"/>
<path d="M46.5826 4.25961V5.33765C46.5826 6.12374 47.1772 6.76231 47.9115 6.76231H48.9103C49.6435 6.76231 50.2392 6.12478 50.2392 5.33765V4.25961H46.5835H46.5826Z" fill="#CB4282"/>
<path d="M50.2372 4.25961V5.33765C50.2372 6.12374 50.8319 6.76231 51.5661 6.76231H52.5649C53.2982 6.76231 53.8938 6.12478 53.8938 5.33765V4.25961H50.2382H50.2372Z" fill="#FFA5CF"/>
<path d="M42.4603 0L39.2684 4.25954H42.925L44.8399 0H42.4603Z" fill="#DB3683"/>
<path d="M40.0816 0L35.6138 4.25954H39.2694L42.4612 0H40.0816Z" fill="#FAC8DF"/>
<path d="M44.8412 0L42.9263 4.25954H46.5819L47.2199 0H44.8412Z" fill="#FAC8DF"/>
<path d="M51.979 0L53.8939 4.25954H57.5496L54.3578 0H51.979Z" fill="#DB3683"/>
<path d="M57.5503 4.25954H61.2059L56.7381 0H54.3585L57.5503 4.25954Z" fill="#FAC8DF"/>
<path d="M47.2205 0L46.5825 4.25954H50.2382L49.6002 0H47.2205Z" fill="#DB3683"/>
<path d="M49.5996 0L50.2376 4.25954H53.8942L51.9793 0H49.5996Z" fill="#FAC8DF"/>
<path d="M41.3637 11.5407C41.3637 11.5407 39.5175 11.4324 39.1281 12.1939C38.7387 12.9553 40.3342 14.5628 41.3168 14.5293C42.2994 14.4959 41.3637 11.5407 41.3637 11.5407Z" fill="#FCAE92"/>
<path d="M50.8536 35.2029C50.8536 35.2029 45.9565 33.8394 44.566 30.894C43.1755 27.9488 48.3953 26.5771 48.3218 26.5911C48.2482 26.6051 53.962 27.0499 54.4955 27.8655C55.0294 28.6811 57.3389 32.0632 56.6776 32.1888C56.0166 32.3141 50.8536 35.2029 50.8536 35.2029Z" fill="#F79386"/>
<path d="M41.7898 8.12339C41.7898 8.11639 41.7901 8.10971 41.7904 8.10271C41.8004 7.87069 41.9818 7.68246 42.2125 7.66512C42.2192 7.66452 42.2262 7.66421 42.2331 7.6636C42.2356 7.6636 42.2377 7.6633 42.2398 7.6633L52.437 7.49666C52.4394 7.49666 52.4416 7.49666 52.4437 7.49666C52.4507 7.49666 52.4573 7.49696 52.4643 7.49727C52.6953 7.5073 52.8828 7.68945 52.9003 7.92086C52.9009 7.92755 52.9012 7.93455 52.9018 7.94154C52.9018 7.94398 52.9021 7.9461 52.9024 7.94823L53.2474 29.2404C53.251 29.4617 53.0751 29.6442 52.8546 29.6478L42.5399 29.8163C42.3194 29.82 42.1377 29.6436 42.1341 29.4219L41.7892 8.12977C41.7892 8.12734 41.7892 8.12521 41.7892 8.12308L41.7898 8.12339Z" fill="#EFB0CD"/>
<path d="M53.077 7.8141L52.2336 7.25426L42.2983 7.4425L41.4392 8.22644C41.4392 8.22644 41.538 9.1156 41.5928 9.12838C41.6476 9.14115 53.1829 9.08732 53.1796 8.90913C53.1763 8.73093 53.0773 7.8144 53.0773 7.8144L53.077 7.8141Z" fill="#A2004A"/>
<g opacity="0.5">
<path d="M52.0186 8.30472C52.0195 8.36736 52.0576 8.42058 52.1112 8.44369C52.1303 8.4522 52.1518 8.45676 52.1745 8.45616C52.1966 8.45585 52.2178 8.45068 52.2369 8.44156C52.2899 8.41693 52.3262 8.36219 52.3253 8.29955C52.3238 8.2144 52.2539 8.14659 52.1694 8.14811C52.0846 8.14963 52.0171 8.21957 52.0186 8.30472Z" fill="white"/>
<path d="M51.544 8.31231C51.5449 8.37495 51.583 8.42817 51.6366 8.45128C51.6557 8.45979 51.6772 8.46436 51.6999 8.46375C51.7223 8.46344 51.7438 8.45827 51.7626 8.44915C51.8156 8.42421 51.8519 8.36978 51.8507 8.30714C51.8492 8.22199 51.7796 8.15418 51.6948 8.1557C51.61 8.15722 51.5424 8.22716 51.544 8.31231Z" fill="white"/>
<path d="M51.0694 8.3203C51.0703 8.38294 51.1084 8.43616 51.162 8.45927C51.1811 8.46778 51.2026 8.47234 51.2253 8.47173C51.248 8.47113 51.2692 8.46626 51.288 8.45714C51.341 8.4322 51.3773 8.37777 51.3761 8.31513C51.3746 8.22998 51.3049 8.16217 51.2202 8.16369C51.1354 8.16521 51.0678 8.23515 51.0694 8.3203Z" fill="white"/>
</g>
<path d="M41.7942 8.36392C41.7882 7.98107 42.0922 7.66573 42.4731 7.65935L52.2055 7.50031C52.5868 7.49423 52.9008 7.79923 52.9072 8.18208L53.2448 29.0199C53.2502 29.3632 52.9777 29.6457 52.6361 29.6512L42.7608 29.8127C42.4192 29.8181 42.1376 29.5448 42.1322 29.2014L41.7945 8.36362L41.7942 8.36392ZM41.3252 8.35997L41.6664 29.4125C41.6767 30.0441 42.1948 30.5476 42.8238 30.5373L52.5968 30.3777C53.2257 30.3673 53.7272 29.847 53.7169 29.2154L53.3756 8.16292C53.3653 7.53132 52.8472 7.02775 52.2183 7.03809L42.4453 7.19774C41.8163 7.20808 41.3149 7.72837 41.3252 8.35997Z" fill="#790038"/>
<path d="M55.2373 40.0949C52.8914 42.0143 50.0122 42.8674 49.7236 43.0246L49.7236 38.8692L49.7251 37.4789L49.8377 34.8591L49.8362 34.8509L49.8314 34.8235L49.8595 34.8092L49.921 34.7779L52.5313 33.46H52.5319L54.2434 32.5958L54.3127 32.5608C54.3127 32.5608 53.1339 32.4112 52.3662 31.1869C52.3653 31.1857 52.365 31.1845 52.3641 31.1833C52.3635 31.1824 52.3632 31.1817 52.3629 31.1808C52.2212 30.9549 52.094 30.6922 51.9904 30.3875C51.9165 30.1691 51.8545 29.9289 51.809 29.6652C51.7691 29.4366 51.7415 29.1906 51.7279 28.9251C51.7073 28.5173 51.7088 28.1308 51.727 27.7662C51.7403 27.5065 51.7621 27.2584 51.7909 27.0212C51.8251 26.7356 51.8696 26.4671 51.9205 26.2156C52.0613 25.5208 52.2527 24.9573 52.4271 24.5386C52.6645 23.9675 52.8695 23.6658 52.8695 23.6658C52.8695 23.6658 52.6215 22.7749 52.3699 21.661C52.349 21.57 52.3287 21.4779 52.3084 21.3846C52.0343 20.1332 51.7791 18.6812 51.8617 17.8978C51.9489 17.0622 52.4786 16.2527 53.0339 15.9657C53.1905 15.8842 53.3498 15.8449 53.5012 15.8583C53.7059 15.8766 53.8976 15.9906 54.0523 16.2293C54.0753 16.2646 54.0974 16.3029 54.1186 16.3436C54.1462 16.3972 54.1725 16.4552 54.197 16.5182C54.197 16.5182 54.197 16.5188 54.1976 16.5194C54.2216 16.5808 54.244 16.6462 54.2643 16.7168C54.2643 16.7168 54.3024 17.0321 54.3799 17.4806C54.3836 17.5019 54.3875 17.5238 54.3911 17.546C54.3948 17.5667 54.3984 17.5874 54.402 17.6074C54.4647 17.9523 54.548 18.3595 54.6537 18.7581V18.7593C54.6537 18.7593 54.6537 18.7593 54.6537 18.7599C54.6619 18.7916 54.6706 18.8238 54.6794 18.8551C54.7963 19.2809 54.9392 19.6895 55.1082 19.9942C55.6835 21.0315 57.0323 23.7552 57.3417 24.9959C57.6509 26.236 57.4601 31.6963 57.4601 31.6963L57.766 37.5825C57.766 37.5825 57.2634 38.2821 56.6236 38.8692C55.9838 39.4562 55.2373 40.0949 55.2373 40.0949Z" fill="#FCAE92"/>
<path d="M41.5051 21.8278L41.5203 22.6068C41.5203 22.6068 42.7794 23.4875 42.6828 24.9182C42.5862 26.3493 41.7008 26.6829 41.7008 26.6829C41.7008 26.6829 39.9187 25.0216 39.8191 24.349C39.7194 23.6766 39.5105 22.5031 41.5054 21.8278H41.5051Z" fill="#FCAE92"/>
<path d="M41.691 26.7383L40.6181 25.6877C40.0343 25.1038 39.8241 24.5337 39.7502 24.1581C39.67 23.7485 39.7284 23.48 39.7309 23.4687L39.8208 23.4891C39.8184 23.4994 39.6019 24.5409 40.6826 25.6217L41.7097 26.6276C42.1001 26.4373 42.303 26.0614 42.3051 26.0575C42.3117 26.0462 42.8753 25.0473 42.5591 24.1034C42.2415 23.1546 41.2458 22.4859 41.2358 22.4792L41.2867 22.402C41.3288 22.4296 42.3187 23.0944 42.6466 24.0739C42.9761 25.0579 42.4102 26.0602 42.3856 26.1025C42.3774 26.1183 42.1579 26.5264 41.7194 26.7252L41.6907 26.7383H41.691Z" fill="black"/>
<path d="M41.6164 27.133L41.6282 27.7418C41.6282 27.7418 42.612 28.4299 42.5366 29.5481C42.4612 30.6662 41.7693 30.9268 41.7693 30.9268C41.7693 30.9268 40.3767 29.6287 40.2989 29.1032C40.221 28.5777 40.0578 27.6609 41.6167 27.133H41.6164Z" fill="#FCAE92"/>
<path d="M41.7618 30.97L40.9236 30.149C40.0491 29.2744 40.2226 28.4497 40.2305 28.415L40.3007 28.4309C40.2989 28.4391 40.1296 29.2528 40.9742 30.0973L41.7769 30.8834C42.0828 30.7343 42.2405 30.4409 42.2421 30.4379C42.2472 30.429 42.6875 29.6484 42.4407 28.9107C42.1924 28.1693 41.4145 27.6469 41.4066 27.6417L41.4463 27.5815C41.479 27.6031 42.2527 28.1225 42.5088 28.8879C42.7662 29.657 42.3238 30.44 42.305 30.4731C42.2987 30.4856 42.127 30.8043 41.7845 30.96L41.7621 30.97H41.7618Z" fill="black"/>
<path d="M52.3036 31.0793C52.3036 31.0793 53.3604 32.808 52.531 33.4603C51.7016 34.1123 54.8763 33.793 54.8593 33.7021C54.8424 33.6111 56.5109 30.517 55.9422 30.4836C55.3732 30.4501 53.556 30.1357 53.2484 30.6177C52.9404 31.0997 52.3036 31.0793 52.3036 31.0793Z" fill="#FCAE92"/>
<path d="M41.4105 17.2168L41.4256 17.9959C41.4256 17.9959 42.6847 18.8766 42.5881 20.3073C42.4915 21.7384 41.6061 22.072 41.6061 22.072C41.6061 22.072 39.824 20.4104 39.7244 19.7381C39.6248 19.0657 39.4158 17.8922 41.4108 17.2168H41.4105Z" fill="#FCAE92"/>
<path d="M49.7833 34.821L49.6764 38.8664L49.7685 38.8688L49.8753 34.8234L49.7833 34.821Z" fill="black"/>
<path d="M50.0938 34.9177C48.4129 34.5157 46.7259 33.4566 45.8698 32.6428C45.1116 31.9221 44.7382 31.3529 44.7346 31.3471L44.8118 31.2966C44.8154 31.3021 45.1837 31.8631 45.9331 32.5756C46.7807 33.3812 48.451 34.4297 50.1153 34.8277L50.0938 34.9177Z" fill="black"/>
<path d="M41.5956 22.1267L40.523 21.0763C39.9392 20.4925 39.729 19.9223 39.6551 19.5468C39.5749 19.1371 39.6333 18.8686 39.6358 18.8574L39.7257 18.8778C39.7233 18.8881 39.5068 19.9296 40.5875 21.0103L41.6149 22.0163C41.9674 21.8457 42.2088 21.4479 42.2112 21.444C42.2166 21.4345 42.7802 20.4359 42.464 19.492C42.1464 18.5433 41.1507 17.8746 41.1407 17.8679L41.1916 17.7906C41.2337 17.8183 42.2236 18.483 42.5515 19.4625C42.881 20.4466 42.3151 21.4488 42.2905 21.4911C42.2793 21.51 42.0189 21.9396 41.624 22.1142L41.5956 22.1267Z" fill="black"/>
<path d="M41.4102 17.9969L41.3061 9.45413L41.3663 9.4523L41.4705 17.9951L41.4102 17.9969Z" fill="black"/>
<path d="M39.5851 13.5936C39.5506 13.5598 38.7409 12.7576 39.1385 12.0895C39.5318 11.4294 41.23 11.489 41.3021 11.492L41.2984 11.5845C41.2815 11.5838 39.5827 11.5239 39.2175 12.1373C38.8572 12.7424 39.6411 13.5197 39.649 13.5273L39.5848 13.5936H39.5851Z" fill="black"/>
<path d="M55.5139 31.3197C55.5291 31.3267 55.5472 31.3261 55.5621 31.3161C56.0575 30.9789 56.4166 30.0915 56.4314 30.0538C56.4414 30.0289 56.4293 30.0006 56.4045 29.9903C56.3797 29.9802 56.3512 29.9924 56.3412 30.0173C56.3376 30.0261 55.9781 30.9147 55.5073 31.2352C55.4852 31.2504 55.4794 31.2805 55.4942 31.303C55.4994 31.3106 55.506 31.3161 55.5136 31.3197H55.5139Z" fill="#000100"/>
<path d="M54.8428 31.3398C54.8546 31.3453 54.8686 31.3462 54.8816 31.341C55.4379 31.119 55.979 30.3302 56.0017 30.2968C56.0168 30.2746 56.0111 30.2441 55.989 30.2289C55.9669 30.2137 55.9366 30.2195 55.9215 30.2417C55.916 30.2496 55.3743 31.039 54.8456 31.2501C54.8207 31.2601 54.8083 31.2884 54.8183 31.3133C54.8231 31.3252 54.8319 31.3343 54.8428 31.3395V31.3398Z" fill="#000100"/>
<path d="M54.3071 32.6067C54.2819 32.6037 53.6833 32.5228 53.0553 32.028C52.687 31.7376 52.3863 31.3645 52.162 30.919C51.8822 30.3637 51.7208 29.6938 51.6817 28.9278C51.5939 27.2006 51.9103 25.8562 52.1913 25.0324C52.4636 24.2342 52.757 23.7555 52.8194 23.6588C52.7212 23.3043 51.6569 19.4046 51.8152 17.8936C51.8646 17.4222 52.0514 16.9415 52.3418 16.5395C52.6253 16.1469 52.972 15.8863 53.2936 15.8245C53.5449 15.7762 53.8992 15.8236 54.159 16.3226C54.2162 16.433 54.2665 16.5614 54.308 16.7043L54.3095 16.7116C54.3107 16.7228 54.4467 17.837 54.7238 18.8436C54.8552 19.3219 54.9981 19.7017 55.1486 19.9726C55.6767 20.9251 57.0709 23.72 57.3864 24.985C57.6937 26.2171 57.5142 31.4755 57.5063 31.6987L57.4142 31.6953C57.4161 31.6409 57.6014 26.2269 57.2971 25.0075C56.9836 23.751 55.5946 20.967 55.068 20.0176C54.9142 19.7403 54.7686 19.3535 54.635 18.8682C54.3643 17.8848 54.2274 16.8001 54.2187 16.7265C54.179 16.5908 54.1314 16.4695 54.0775 16.3655C53.8925 16.0103 53.6276 15.8549 53.3111 15.9155C52.6725 16.0377 52.0033 16.9853 51.9073 17.9033C51.7465 19.4359 52.9023 23.6123 52.9141 23.6543L52.9199 23.6749L52.9078 23.6929C52.9044 23.6978 52.5786 24.1828 52.2776 25.0665C51.9999 25.8817 51.6871 27.2127 51.7741 28.9232C51.8607 30.6259 52.5496 31.512 53.1125 31.9556C53.7205 32.4349 54.3131 32.5146 54.3189 32.5155L54.3074 32.6073L54.3071 32.6067Z" fill="black"/>
<path d="M50.2512 21.3744C51.7974 19.8217 51.7974 17.3043 50.2512 15.7515C48.705 14.1988 46.1982 14.1988 44.652 15.7515C43.1058 17.3043 43.1058 19.8217 44.652 21.3744C46.1982 22.9272 48.705 22.9272 50.2512 21.3744Z" fill="white"/>
<path d="M46.7162 20.5884L45.223 18.5029C45.1525 18.4041 45.1746 18.2666 45.273 18.1958C45.3714 18.1249 45.5083 18.1474 45.5788 18.246L46.7323 19.8567L49.6156 16.1833C49.6907 16.0878 49.8285 16.0714 49.9236 16.1468C50.0187 16.2222 50.035 16.3606 49.9599 16.4561L46.7162 20.5887V20.5884Z" fill="#CA005D"/>
<path d="M48.8012 21.8278L50.434 23.448L49.719 20.8748L48.8012 21.8278Z" fill="white"/>
<path d="M50.9797 25.5953H44.2085V25.9331H50.9797V25.5953Z" fill="#CA005D"/>
<path d="M50.9797 26.9936H44.2085V27.3315H50.9797V26.9936Z" fill="#CA005D"/>
<path d="M19.8976 14.3878C22.165 16.1946 23.1508 16.4071 25.1225 19.2768C28.0832 23.5861 26.6012 27.5669 26.0097 30.0114C25.4182 32.4559 22.0664 31.3931 22.0664 29.3737C22.0664 27.3543 23.2494 25.3349 26.404 26.9292C29.1247 28.3041 29.8544 37.4473 33.6005 38.1952C35.6707 38.6085 36.6237 37.1323 37.3466 35.4318" stroke="#CA005D" stroke-width="0.8" stroke-dasharray="2 2"/>
<path d="M41.0321 33.3092L44.2556 27.5511C44.2556 27.5511 39.5226 31.4621 39.4084 31.5562C39.2949 31.6496 35.1292 37.9153 35.1292 37.9153L33.2429 38.4867L36.2627 39.2464L41.0322 33.3099L41.0321 33.3092Z" fill="#FFE2B0"/>
<path d="M36.2633 39.2457L38.4312 41.2485L44.2562 27.5511L36.2633 39.2457Z" fill="#CC8100"/>
<path d="M32.2596 35.2731L35.1292 37.9154L44.2555 27.5511L32.2596 35.2731Z" fill="#FFA100"/>
</svg>
