<svg width="56" height="56" viewBox="0 0 56 56" fill="none" xmlns="http://www.w3.org/2000/svg">
<g filter="url(#filter0_d_7829_342594)">
<circle cx="28" cy="26" r="20" fill="white"/>
<path d="M34.8105 31.143C35.3146 31.6519 36.1093 31.6136 36.6313 31.1391C37.14 30.6732 37.1056 29.8007 36.6313 29.3262L36.5758 29.2707C35.4943 28.1677 34.3917 27.0858 33.2977 25.9913L29.3617 22.0537C29.2422 21.9341 29.1226 21.8098 28.9984 21.6902C28.2591 20.9592 27.1948 20.8005 26.2673 21.254C25.793 21.4846 25.3913 21.981 25.0194 22.3523L20.8357 26.5378L18.0491 29.3254C17.5404 29.8297 17.5787 30.6247 18.0491 31.1383C18.5149 31.6472 19.3869 31.6128 19.8612 31.1383L20.8357 30.1635L25.0366 25.9608L26.8401 24.1566L27.366 23.6305L27.5199 23.4765C27.5324 23.4639 27.5543 23.4507 27.5668 23.4335C27.4176 23.6258 27.3488 23.5828 27.4816 23.5101C27.5246 23.4843 27.5668 23.4671 27.6145 23.446C27.5121 23.489 27.4097 23.5312 27.3066 23.5742C27.3793 23.5484 27.4558 23.5273 27.5332 23.514C27.4176 23.5312 27.3066 23.5437 27.1909 23.5609C27.2894 23.5484 27.3832 23.5484 27.4816 23.5609C27.366 23.5437 27.255 23.5312 27.1394 23.514C27.216 23.5265 27.2886 23.5484 27.366 23.5742C27.2636 23.5312 27.1613 23.489 27.0581 23.446C27.1222 23.4718 27.1777 23.5062 27.2417 23.5398C27.3746 23.6125 26.994 23.3092 27.148 23.4757L27.1519 23.4796L27.1863 23.514L27.3527 23.6805L28.0021 24.3301L32.1561 28.4859C33.0406 29.3708 33.9252 30.2557 34.8098 31.1407L34.8105 31.143Z" fill="#CA005D"/>
</g>
<defs>
<filter id="filter0_d_7829_342594" x="0" y="0" width="56" height="56" filterUnits="userSpaceOnUse" color-interpolation-filters="sRGB">
<feFlood flood-opacity="0" result="BackgroundImageFix"/>
<feColorMatrix in="SourceAlpha" type="matrix" values="0 0 0 0 0 0 0 0 0 0 0 0 0 0 0 0 0 0 127 0" result="hardAlpha"/>
<feOffset dy="2"/>
<feGaussianBlur stdDeviation="4"/>
<feComposite in2="hardAlpha" operator="out"/>
<feColorMatrix type="matrix" values="0 0 0 0 0.133333 0 0 0 0 0.176471 0 0 0 0 0.258824 0 0 0 0.15 0"/>
<feBlend mode="normal" in2="BackgroundImageFix" result="effect1_dropShadow_7829_342594"/>
<feBlend mode="normal" in="SourceGraphic" in2="effect1_dropShadow_7829_342594" result="shape"/>
</filter>
</defs>
</svg>
