<svg width="18" height="17" viewBox="0 0 18 17" fill="none" xmlns="http://www.w3.org/2000/svg">
<path d="M0.85 14.1471C0.85 15.5274 1.97259 16.65 3.35294 16.65H14.6471C16.0274 16.65 17.15 15.5274 17.15 14.1471V4.73529C17.15 3.35495 16.0274 2.23235 14.6471 2.23235H13.3853V0.970588C13.3853 0.627793 13.1075 0.35 12.7647 0.35C12.4219 0.35 12.1441 0.627793 12.1441 0.970588V2.23235H9.62059V0.970588C9.62059 0.627793 9.3428 0.35 9 0.35C8.6572 0.35 8.37941 0.627793 8.37941 0.970588V2.23235H5.85588V0.970588C5.85588 0.627793 5.57809 0.35 5.23529 0.35C4.8925 0.35 4.61471 0.627793 4.61471 0.970588V2.23235H3.35294C1.97259 2.23235 0.85 3.35495 0.85 4.73529V14.1471ZM2.09118 4.73529C2.09118 4.0396 2.65724 3.47353 3.35294 3.47353H4.61471V4.73529C4.61471 5.07809 4.8925 5.35588 5.23529 5.35588C5.57809 5.35588 5.85588 5.07809 5.85588 4.73529V3.47353H8.37941V4.73529C8.37941 5.07809 8.6572 5.35588 9 5.35588C9.3428 5.35588 9.62059 5.07809 9.62059 4.73529V3.47353H12.1441V4.73529C12.1441 5.07809 12.4219 5.35588 12.7647 5.35588C13.1075 5.35588 13.3853 5.07809 13.3853 4.73529V3.47353H14.6471C15.3428 3.47353 15.9088 4.0396 15.9088 4.73529V5.99706H2.09118V4.73529ZM15.9088 7.23824V14.1471C15.9088 14.8428 15.3428 15.4088 14.6471 15.4088H3.35294C2.65724 15.4088 2.09118 14.8428 2.09118 14.1471V7.23824H15.9088Z" fill="#A2004A" stroke="#A2004A" stroke-width="0.3"/>
<path d="M7.14955 14.1152L7.14966 14.1153C7.27089 14.2363 7.42974 14.2969 7.58842 14.2969C7.7471 14.2969 7.90595 14.2363 8.02718 14.1153L8.02729 14.1152L12.7332 9.40934C12.9756 9.16688 12.9757 8.77408 12.7331 8.53174C12.4908 8.28963 12.098 8.28919 11.8556 8.53179C11.8556 8.53181 11.8556 8.53183 11.8556 8.53185L7.58842 12.7988L6.14493 11.3553C5.90248 11.1129 5.50967 11.1128 5.26733 11.3554C5.02523 11.5977 5.02479 11.9904 5.26738 12.2329C5.2674 12.2329 5.26742 12.2329 5.26744 12.2329L7.14955 14.1152Z" fill="#A2004A" stroke="#A2004A" stroke-width="0.3"/>
</svg>
