<svg width="14" height="8" viewBox="0 0 14 8" fill="none" xmlns="http://www.w3.org/2000/svg">
<path d="M12.4133 0.279355C12.7786 -0.10802 13.3545 -0.0788632 13.7328 0.28233C14.1014 0.636977 14.0765 1.30105 13.7328 1.66224L13.6926 1.70449C12.9088 2.5441 12.1098 3.36765 11.3169 4.20071L8.46449 7.19796C8.37785 7.289 8.29121 7.38361 8.20116 7.47466C7.66545 8.03102 6.89415 8.15182 6.22195 7.80669C5.87821 7.63115 5.58713 7.2533 5.31757 6.97065L2.28561 3.78477L0.266192 1.66284C-0.102468 1.27903 -0.0747201 0.673871 0.266192 0.282925C0.603706 -0.10445 1.2357 -0.0782677 1.57944 0.282925L2.28561 1.02495L5.33003 4.22392L6.63705 5.59729L7.01817 5.99775L7.12973 6.11498C7.13879 6.1245 7.15465 6.13461 7.16371 6.1477C7.05554 6.00132 7.00571 6.03405 7.10198 6.08939C7.13313 6.10902 7.16371 6.12212 7.19825 6.13818C7.12407 6.10545 7.04988 6.07332 6.97513 6.04059C7.02779 6.06023 7.08329 6.0763 7.13936 6.08641C7.05554 6.07332 6.97513 6.0638 6.89132 6.05071C6.96267 6.06023 7.03063 6.06023 7.10198 6.05071C7.01817 6.0638 6.93775 6.07332 6.85394 6.08641C6.90944 6.07689 6.9621 6.06023 7.01817 6.04059C6.94398 6.07332 6.8698 6.10545 6.79504 6.13818C6.84148 6.11855 6.88169 6.09236 6.92813 6.06678C7.0244 6.01144 6.74861 6.24231 6.86017 6.11557L6.863 6.11259L6.88792 6.08641L7.00854 5.95967L7.47913 5.46518L10.4896 2.30192C11.1306 1.62833 11.7717 0.954733 12.4127 0.28114L12.4133 0.279355Z" fill="#CA005D"/>
</svg>
