<svg width="29" height="37" viewBox="0 0 29 37" fill="none" xmlns="http://www.w3.org/2000/svg">
<path d="M25.7877 24.2843C25.3171 23.7243 24.6018 24.002 23.9052 24.5149L21.2509 26.4774L17.773 28.0681C17.3918 28.247 17.42 28.5011 17.8954 28.5529C18.4884 28.6094 18.7801 28.8164 19.0766 29.0282C19.3214 29.1976 19.359 29.2494 19.6084 29.1365L22.291 27.9081L25.6513 25.3621C26.0325 25.075 26.0325 24.5855 25.7877 24.289V24.2843Z" fill="white"/>
<path d="M25.7064 26.6795L22.7885 28.6137L19.9836 29.5738C19.7295 29.6585 19.5836 29.7479 19.6824 29.9785C19.8142 30.275 19.8612 30.8351 19.7859 31.028C19.72 31.1927 19.8989 31.3528 20.106 31.2963L23.8521 30.308C24.4828 29.8609 27.1653 27.7337 27.1653 27.7337C27.5183 27.456 27.5983 27.056 27.3912 26.7971C27.0006 26.2983 26.4076 26.2088 25.7064 26.6795Z" fill="white"/>
<path d="M27.9048 30.374L18.5723 32.5153L12.8072 32.6659L9.81401 34.0637C9.35751 34.2755 9.07513 33.8143 9.50811 33.5554L12.5295 31.7765L18.0782 31.56C18.7559 31.4564 19.0571 31.1694 19.1277 30.8258C19.2547 30.181 18.6947 29.3716 17.5558 29.221L9.58812 28.1997C6.4067 27.6491 3.93592 28.8727 2.72642 30.0869L0.759212 32.0541C0.0344524 32.7789 -0.0973206 33.546 0.0579853 34.2896C0.222704 35.0332 0.712151 35.7438 1.26278 36.1768C2.08167 36.8168 2.72171 36.911 3.34764 36.8451C3.97357 36.7839 4.5948 36.5204 5.26308 36.4074C6.482 36.205 7.03733 36.1674 8.27978 36.2144L14.7367 36.4639C15.7345 36.5015 16.351 36.2897 17.3016 35.9415L28.3895 32.1388C29.5284 31.7482 28.8366 30.1575 27.9048 30.374Z" fill="white"/>
<path d="M9.95175 0.47533C13.2132 2.47077 12.1213 0 13.3449 0C14.1074 0 14.898 2.32959 16.884 0.461211C17.6229 -0.235312 18.0841 0.583574 17.6841 1.29422L16.3146 3.71322C15.7404 4.72506 15.5522 5.36511 13.4485 5.36511C11.3448 5.36511 10.8506 4.72977 10.38 3.91088L8.87402 1.29422C8.45046 0.560042 9.33994 0.098831 9.95646 0.47533H9.95175Z" fill="white"/>
<path d="M11.665 12.5752C12.8934 12.8294 13.9052 13.8553 13.877 15.0366C13.877 15.3613 13.4393 15.5307 13.0016 15.5307C12.5639 15.5307 12.1262 15.3566 12.1262 15.0366C12.2392 14.0906 11.5803 13.7659 10.9544 13.7659C10.3285 13.7659 9.66959 14.0906 9.66959 14.5001C9.66959 15.9637 13.4016 16.392 13.9052 18.3733C14.1123 19.1922 13.091 20.8535 11.6933 20.7688C10.6626 20.9476 10.079 20.7876 10.079 20.7876C8.99189 20.6041 7.67885 19.3899 7.67885 18.9804C7.67885 18.6792 7.95181 18.2557 8.28125 18.2557C8.85541 18.2557 9.86255 19.4887 10.8461 19.4887C11.5568 19.4887 11.858 19.1028 11.858 18.5427C11.858 17.5121 7.61767 16.9944 7.61767 14.7119C7.61767 13.5494 8.73775 12.6082 10.1073 12.4858C10.7238 12.3917 10.9826 12.4105 11.665 12.5705V12.5752ZM15.7171 5.9159C15.2888 5.94885 14.7711 6.44771 13.2087 6.363C11.1803 6.25475 11.0062 5.61471 10.2343 6.45712L5.66929 11.4269C4.15858 13.2106 3.17969 15.1731 3.17969 18.0062C3.17969 21.0747 5.07159 23.9314 8.21536 25.5033C11.3591 27.0704 15.2559 27.0704 18.3997 25.5033C21.5434 23.9314 23.4353 21.0794 23.4353 18.0062C23.4353 15.1731 22.4611 13.2106 20.9504 11.4269L16.3336 6.25005C16.0889 5.97709 15.9148 5.89237 15.7218 5.9112L15.7171 5.9159ZM17.722 13.2482L15.1618 21.5736C15.0582 21.9077 14.71 22.0912 14.3758 21.9877C14.0417 21.8842 13.8581 21.5359 13.9617 21.2018L16.5219 12.8764C16.6254 12.5423 16.9737 12.3587 17.3078 12.4623C17.642 12.5658 17.8255 12.9141 17.722 13.2482Z" fill="white"/>
</svg>
