<svg width="32" height="32" viewBox="0 0 32 32" fill="none" xmlns="http://www.w3.org/2000/svg">
<path d="M27.9962 17.9897C27.9962 16.693 27.9971 15.3954 27.9979 14.0988C27.9996 11.6113 28.0005 9.03996 27.9979 6.51099C27.9962 4.83038 26.7207 3.5625 25.031 3.5625H20.1212C18.9168 3.5625 17.7124 3.5625 16.508 3.5625C14.8937 3.5625 13.636 4.76596 13.5826 6.36013C13.5589 7.06357 13.564 7.78141 13.5691 8.47552C13.5708 8.75774 13.5733 9.03996 13.5733 9.32388C13.5733 9.37727 13.5733 9.42812 13.5911 9.45185L13.6165 9.5027C13.6563 9.63491 13.7401 9.71797 13.8858 9.76458C13.9409 9.78407 13.9968 9.7934 14.0518 9.7934C14.2949 9.7934 14.4906 9.61034 14.5075 9.36795C14.5126 9.29252 14.51 9.2137 14.5067 9.13064C14.505 9.08996 14.5033 9.05013 14.5024 9.00606V8.86961L14.505 8.03651C14.5067 7.53054 14.5083 7.02373 14.5092 6.51777C14.5117 5.35075 15.3587 4.50324 16.525 4.50154C17.084 4.50069 17.643 4.499 18.202 4.49646L18.9447 4.49391L19.082 4.49561H19.093L19.1235 4.499C19.137 4.50069 19.1514 4.50154 19.165 4.50154C20.7547 4.50154 22.3436 4.50154 23.9334 4.50069C24.0248 4.50069 24.1155 4.499 24.2069 4.49646L24.3416 4.49391H24.4322C24.4407 4.49391 24.4492 4.49391 24.4559 4.49561H24.461H24.6059L24.7448 4.49815C24.8447 4.49985 24.9438 4.50154 25.0471 4.50154C25.6103 4.50154 26.1228 4.7041 26.4903 5.07276C26.8579 5.44143 27.0604 5.95502 27.0604 6.51862V7.28477C27.0604 9.35862 27.0604 11.4316 27.0604 13.5055C27.0604 13.6411 27.0629 13.7767 27.0646 13.9123L27.0671 14.0996L26.935 13.9843L26.9604 14.2233L27.0671 14.1013V14.1818L27.0646 14.2276C27.0629 14.2547 27.0612 14.2827 27.0612 14.3106C27.0612 17.9829 27.0612 21.6543 27.0612 25.3266C27.0612 25.5825 27.0612 25.8724 26.9621 26.1571C26.7351 26.8055 26.2752 27.2386 25.5951 27.4445C25.5883 27.6513 25.4528 27.853 25.1869 27.853C25.125 27.853 25.07 27.842 25.0217 27.8225C24.9675 27.8505 24.9031 27.8683 24.8278 27.8683C24.5796 27.8683 24.4449 27.6928 24.4221 27.5013H22.3334C21.6296 27.5013 20.9249 27.5013 20.2211 27.5013C20.0941 27.5013 19.967 27.5038 19.84 27.5055L19.6579 27.5081L19.4504 27.5064L18.7796 27.5047C18.0275 27.503 17.2745 27.5021 16.5224 27.4996C16.4072 27.4996 16.2827 27.4962 16.1574 27.4759C15.5654 27.3809 15.0911 27.0504 14.7455 26.4953L14.7311 26.4673L14.5609 26.0258L14.5507 25.9842C14.5473 25.952 14.5422 25.9198 14.5371 25.8876C14.5253 25.8097 14.5134 25.73 14.5134 25.6444C14.5117 25.2139 14.5109 24.7833 14.5109 24.3528C14.5109 23.84 14.51 23.3273 14.5067 22.8146C14.5058 22.5595 14.7031 22.5281 14.7777 22.5162C14.9649 22.4866 15.1851 22.4493 15.3951 22.395C17.809 21.7704 19.4766 19.6762 19.5444 17.1845C19.5596 16.6099 19.5004 16.1158 19.3614 15.676L19.3547 15.6395C19.3462 15.5438 19.3174 15.4421 19.2624 15.3192L19.2522 15.2878L19.2471 15.2615C19.2454 15.2539 19.2446 15.2463 19.242 15.2395C18.4806 13.0216 16.3793 11.5308 14.012 11.5308C12.889 11.5308 11.8065 11.8732 10.8816 12.5224C10.2032 12.9987 9.66879 13.5775 9.29443 14.2428L9.27834 14.2666C9.22922 14.3267 9.19449 14.3894 9.17078 14.4581L9.15469 14.492C9.14791 14.5039 9.14029 14.5149 9.13266 14.5267C9.12165 14.5437 9.1098 14.5606 9.10048 14.5793C8.61517 15.5539 8.43053 16.5955 8.55165 17.6727C8.64058 18.4617 8.87773 19.1753 9.25801 19.7949L9.26903 19.8169C9.319 19.9339 9.39099 20.0474 9.48839 20.1644L9.50702 20.1907C9.5121 20.2 9.51719 20.2101 9.52227 20.2195C9.5265 20.2288 9.53074 20.2373 9.53667 20.2457C10.4675 21.5153 11.7184 22.2772 13.2557 22.5103C13.5377 22.5535 13.575 22.7264 13.5741 22.8908C13.5691 23.6638 13.5708 24.4511 13.5716 25.2113V25.463C13.5724 26.0046 13.6656 26.4275 13.8655 26.7945L13.8774 26.8216C13.9163 26.9377 13.9858 27.0436 14.0789 27.1708C14.6676 28.0098 15.4883 28.4352 16.5199 28.4369C17.7768 28.4386 19.0337 28.4395 20.2897 28.4395H25.059C25.308 28.4386 25.5231 28.4174 25.7154 28.3742C27.0807 28.0666 27.9979 26.8962 27.9971 25.4622V22.8366C27.9954 21.2212 27.9946 19.6059 27.9946 17.9914L27.9962 17.9897Z" fill="#697385"/>
<path d="M14.0789 21.5975C16.5834 21.5975 18.6136 19.566 18.6136 17.06C18.6136 14.5539 16.5834 12.5224 14.0789 12.5224C11.5745 12.5224 9.54429 14.5539 9.54429 17.06C9.54429 19.566 11.5745 21.5975 14.0789 21.5975Z" fill="#697385"/>
<path d="M14.0425 21.583C16.5469 21.583 18.5771 19.5514 18.5771 17.0454C18.5771 14.5394 16.5469 12.5078 14.0425 12.5078C11.538 12.5078 9.50781 14.5394 9.50781 17.0454C9.50781 19.5514 11.538 21.583 14.0425 21.583Z" fill="#F6F6F9"/>
<path d="M24.9365 28.0397C24.9365 28.0397 24.3987 27.8812 24.3869 27.866C24.375 27.8507 24.375 27.4982 24.375 27.4982H25.2719C25.2719 27.4982 25.4879 27.4821 25.6438 27.4261C25.7996 27.3702 25.9089 27.6202 25.9089 27.6295C25.9089 27.6388 25.8487 27.9914 25.8487 27.9914L25.6666 28.1228" fill="#697385"/>
<path d="M23.8962 11.7812C23.8962 11.7346 23.8911 11.6905 23.8835 11.6464V11.6422C23.6836 10.6684 22.7765 10.7303 22.7765 10.7303L21.7635 10.7227L21.766 10.7244C21.5458 10.7244 21.3256 10.7227 21.1054 10.7227C20.6921 10.7227 20.2779 10.7244 19.8646 10.7269C19.652 10.7286 19.4691 10.9083 19.4479 11.1362C19.4344 11.2786 19.4742 11.4091 19.5597 11.5041C19.6478 11.6015 19.7791 11.6549 19.9307 11.6558C20.3194 11.6575 20.7082 11.6575 21.0961 11.6575H22.5546C22.89 11.6575 22.9679 11.7354 22.9679 12.0736C22.9679 12.3719 22.9679 12.6702 22.9679 12.9686C22.9679 13.3754 22.9679 13.7813 22.9679 14.1881C22.9679 14.4636 23.1602 14.6687 23.4236 14.6763H23.438C23.6971 14.6763 23.8945 14.4788 23.897 14.2178C23.9055 13.4093 23.9004 12.6041 23.8953 11.782L23.8962 11.7812Z" fill="#697385"/>
<path d="M23.8962 22.5006C23.8962 22.5472 23.8911 22.5912 23.8835 22.6353V22.6396C23.6836 23.6133 22.7765 23.5515 22.7765 23.5515L21.7635 23.5591L21.766 23.5574C21.5458 23.5574 21.3256 23.5591 21.1054 23.5591C20.6921 23.5591 20.2779 23.5574 19.8646 23.5549C19.652 23.5532 19.4691 23.3735 19.4479 23.1455C19.4344 23.0031 19.4742 22.8726 19.5597 22.7777C19.6478 22.6802 19.7791 22.6268 19.9307 22.626C20.3194 22.6243 20.7082 22.6243 21.0961 22.6243H22.5546C22.89 22.6243 22.9679 22.5463 22.9679 22.2082C22.9679 21.9099 22.9679 21.6115 22.9679 21.3132C22.9679 20.9064 22.9679 20.5004 22.9679 20.0936C22.9679 19.8182 23.1602 19.6131 23.4236 19.6055H23.438C23.6971 19.6055 23.8945 19.8029 23.897 20.064C23.9055 20.8725 23.9004 21.6776 23.8953 22.4997L23.8962 22.5006Z" fill="#697385"/>
<path d="M4.00538 11.7812C4.00538 11.7346 4.01046 11.6905 4.01808 11.6464V11.6422C4.21797 10.6684 5.12506 10.7303 5.12506 10.7303L6.13803 10.7227L6.13549 10.7244C6.3557 10.7244 6.57591 10.7227 6.79612 10.7227C7.20944 10.7227 7.62361 10.7244 8.03693 10.7269C8.24951 10.7286 8.43246 10.9083 8.45363 11.1362C8.46718 11.2786 8.42738 11.4091 8.34183 11.5041C8.25375 11.6015 8.12247 11.6549 7.97086 11.6558C7.58211 11.6575 7.19335 11.6575 6.80544 11.6575H5.34697C5.01157 11.6575 4.93365 11.7354 4.93365 12.0736C4.93365 12.3719 4.93365 12.6702 4.93365 12.9686C4.93365 13.3754 4.93365 13.7813 4.93365 14.1881C4.93365 14.4636 4.74139 14.6687 4.47798 14.6763H4.46358C4.20441 14.6763 4.00707 14.4788 4.00453 14.2178C3.99606 13.4093 4.00114 12.6041 4.00622 11.782L4.00538 11.7812Z" fill="#697385"/>
<path d="M4.00538 22.5006C4.00538 22.5472 4.01046 22.5912 4.01808 22.6353V22.6396C4.21797 23.6133 5.12506 23.5515 5.12506 23.5515L6.13803 23.5591L6.13549 23.5574C6.3557 23.5574 6.57591 23.5591 6.79612 23.5591C7.20944 23.5591 7.62361 23.5574 8.03693 23.5549C8.24951 23.5532 8.43246 23.3735 8.45363 23.1455C8.46718 23.0031 8.42738 22.8726 8.34183 22.7777C8.25375 22.6802 8.12247 22.6268 7.97086 22.626C7.58211 22.6243 7.19335 22.6243 6.80544 22.6243H5.34697C5.01157 22.6243 4.93365 22.5463 4.93365 22.2082C4.93365 21.9099 4.93365 21.6115 4.93365 21.3132C4.93365 20.9064 4.93365 20.5004 4.93365 20.0936C4.93365 19.8182 4.74139 19.6131 4.47798 19.6055H4.46358C4.20441 19.6055 4.00707 19.8029 4.00453 20.064C3.99606 20.8725 4.00114 21.6776 4.00622 22.4997L4.00538 22.5006Z" fill="#697385"/>
</svg>
