<svg width="40" height="40" viewBox="0 0 40 40" fill="none" xmlns="http://www.w3.org/2000/svg">
<circle cx="20" cy="20.0001" r="20" fill="#FAE6EF"/>
<path d="M14.1697 21.6893C13.9474 21.4665 13.6429 21.345 13.3259 21.345C12.6674 21.345 12.1323 21.8716 12.1323 22.5197C12.1323 23.1677 12.6674 23.6943 13.3259 23.6943C13.9845 23.6943 14.5195 23.1677 14.5195 22.5156C14.5195 22.2037 14.392 21.904 14.1697 21.6853V21.6893ZM13.7252 22.5197C13.7252 22.7343 13.5482 22.9126 13.3259 22.9126C13.1078 22.9126 12.9267 22.7384 12.9267 22.5197C12.9267 22.3009 13.1037 22.1268 13.3259 22.1268C13.5441 22.1268 13.7252 22.3009 13.7252 22.5197Z" fill="#A2004A"/>
<path d="M27.6616 21.345C27.0031 21.345 26.468 21.8716 26.468 22.5197C26.468 23.1677 27.0031 23.6943 27.6616 23.6943C28.3202 23.6943 28.8552 23.1677 28.8552 22.5197C28.8552 21.8716 28.3202 21.345 27.6616 21.345ZM27.9415 22.7991C27.8674 22.872 27.7645 22.9126 27.6616 22.9126C27.4435 22.9126 27.2624 22.7384 27.2624 22.5197C27.2624 22.305 27.4394 22.1268 27.6616 22.1268C27.8798 22.1268 28.0609 22.3009 28.0609 22.5197C28.0609 22.625 28.0197 22.7222 27.9456 22.7951L27.9415 22.7991Z" fill="#A2004A"/>
<path d="M32.0013 15.6174H30.9788V13.8437C30.9788 13.7005 30.9222 13.5653 30.8212 13.4659C30.7202 13.3665 30.5828 13.3108 30.4373 13.3108C30.4373 13.3108 30.4009 13.3108 30.3807 13.3108L29.4148 13.4142V11.533C29.4148 11.3899 29.3583 11.2547 29.2572 11.1552C29.1562 11.0558 29.0188 11.0001 28.8733 11.0001C28.8329 11.0001 28.7925 11.0041 28.7521 11.0121L8.41221 15.6334L8.3718 15.6493C8.35159 15.6572 8.32735 15.6652 8.3031 15.6731L8.2546 15.701C8.23035 15.7169 8.21015 15.7328 8.19802 15.7447C8.18186 15.7566 8.16165 15.7725 8.14145 15.7924L8.10911 15.8322C8.09295 15.8561 8.07678 15.8799 8.07274 15.8919C8.06062 15.9117 8.0485 15.9316 8.03637 15.9595L8.02021 16.0032C8.01212 16.035 8.00808 16.0668 8.01212 16.0708C8.00808 16.0907 8.00404 16.1106 8 16.1504V28.4672C8 28.7615 8.24248 29.0001 8.54153 29.0001H32.0053C32.3044 29.0001 32.5468 28.7615 32.5468 28.4672V16.1543C32.5468 15.86 32.3044 15.6214 32.0053 15.6214L32.0013 15.6174ZM18.6933 15.6174L29.8917 14.4363V15.6174H18.6933ZM17.4526 14.6749L28.3277 12.2052V13.5295L17.4526 14.6749ZM31.4557 16.6873V27.9343H9.07903V16.6873H31.4597H31.4557Z" fill="#A2004A"/>
<path d="M10.3897 25.964C10.8196 25.964 11.1651 26.2748 11.1691 26.6536C11.1691 26.8429 11.3419 27.0001 11.5588 27.0001L29.4452 26.993C29.6581 26.993 29.8349 26.8393 29.8349 26.6464C29.8349 26.2641 30.1844 25.9533 30.6103 25.9533C30.8232 25.9533 31 25.7996 31 25.6067V19.3828C31 19.1935 30.8272 19.0362 30.6103 19.0362C30.1804 19.0362 29.8349 18.7254 29.8309 18.3467C29.8309 18.1573 29.6581 18.0001 29.4412 18.0001L11.5548 18.0073C11.3419 18.0073 11.1651 18.1609 11.1651 18.3538C11.1651 18.7361 10.8156 19.047 10.3897 19.047C10.1768 19.047 10 19.2006 10 19.3935V25.6174C10 25.8068 10.1728 25.964 10.3897 25.964ZM11.8923 18.704L29.0957 18.6968C29.2403 19.1827 29.6662 19.5615 30.2126 19.6901V25.3102C29.9474 25.3709 29.7023 25.496 29.5055 25.671C29.3086 25.8461 29.168 26.064 29.0997 26.3034L11.8963 26.3106C11.7517 25.8247 11.3258 25.4459 10.7794 25.3173V19.6972C11.3258 19.5722 11.7517 19.1899 11.8923 18.704Z" fill="#A2004A"/>
<path d="M20.4958 26.0476C22.4756 26.0476 24.0808 24.4679 24.0808 22.5196C24.0808 20.5714 22.4756 18.9957 20.4958 18.9917C18.5161 18.9917 16.9109 20.5714 16.9109 22.5196C16.9109 24.4679 18.5161 26.0476 20.4958 26.0476ZM20.4958 19.7775C22.0352 19.7775 23.2823 21.0048 23.2823 22.5196C23.2823 24.0345 22.0352 25.2618 20.4958 25.2618C18.9565 25.2618 17.7094 24.0345 17.7094 22.5196C17.7094 21.0048 18.9565 19.7775 20.4958 19.7775Z" fill="#A2004A"/>
<path d="M19.0388 23.026V22.9653H18.265V23.026C18.265 23.2205 18.2979 23.3906 18.372 23.5364C18.4461 23.6782 18.549 23.7956 18.6766 23.8888C18.8042 23.982 18.9524 24.0468 19.117 24.0873C19.2816 24.1318 19.4504 24.1521 19.6233 24.1521C19.8373 24.1521 20.0266 24.1278 20.1913 24.0792C20.3559 24.0306 20.4958 23.9617 20.6111 23.8685C20.7263 23.7754 20.8128 23.666 20.8745 23.5405C20.9321 23.4149 20.9609 23.2772 20.9609 23.1314C20.9609 22.9531 20.9239 22.8033 20.8375 22.6858C20.7634 22.5683 20.6687 22.4752 20.5617 22.4063C20.4588 22.3375 20.3518 22.2889 20.2406 22.2605C20.1419 22.2281 20.0595 22.2079 20.0019 22.1957C19.8126 22.1471 19.6562 22.1106 19.5368 22.0782C19.4216 22.0458 19.331 22.0175 19.2693 21.9891C19.2076 21.9608 19.1787 21.9324 19.1623 21.9122C19.1458 21.8879 19.1376 21.8514 19.1376 21.8028C19.1376 21.7461 19.1499 21.7056 19.1705 21.6772C19.1952 21.6408 19.224 21.6124 19.2611 21.5881C19.2981 21.5638 19.3434 21.5476 19.3887 21.5395C19.438 21.5274 19.4874 21.5233 19.5368 21.5233C19.615 21.5233 19.6891 21.5314 19.7509 21.5436C19.8167 21.5557 19.8702 21.576 19.9196 21.6084C19.9649 21.6367 19.9978 21.6732 20.0266 21.7259C20.0554 21.7745 20.0719 21.8393 20.0801 21.9243V21.981H20.858V21.9203C20.858 21.738 20.821 21.58 20.7469 21.4504C20.6769 21.3168 20.5823 21.2114 20.4588 21.1264C20.3394 21.0413 20.1995 20.9846 20.0431 20.9482C19.8908 20.9117 19.7344 20.8915 19.5698 20.8915C19.4257 20.8915 19.2858 20.9117 19.1417 20.9482C18.9976 20.9846 18.8701 21.0454 18.7548 21.1264C18.6396 21.2074 18.5449 21.3087 18.4708 21.4302C18.3967 21.5557 18.3638 21.6975 18.3638 21.8636C18.3638 22.0094 18.3926 22.1349 18.4461 22.2443C18.5037 22.3456 18.5819 22.4347 18.6725 22.5035C18.763 22.5724 18.8659 22.6291 18.9771 22.6737C19.0882 22.7142 19.1993 22.7466 19.3146 22.7749C19.4257 22.8073 19.5368 22.8357 19.6438 22.86C19.7509 22.8843 19.8455 22.9126 19.9278 22.945C20.006 22.9774 20.0678 23.0139 20.1131 23.0584C20.1542 23.0949 20.1748 23.1435 20.1748 23.2124C20.1748 23.2812 20.1583 23.3258 20.1295 23.3622C20.0966 23.4027 20.0554 23.4351 20.0019 23.4594C19.9484 23.4837 19.8908 23.504 19.8291 23.5121C19.7632 23.5202 19.7015 23.5243 19.6438 23.5243C19.5615 23.5243 19.4792 23.5161 19.401 23.4959C19.3269 23.4756 19.2611 23.4473 19.2034 23.4068C19.1499 23.3663 19.1088 23.3177 19.0758 23.2569C19.0429 23.1962 19.0265 23.1233 19.0265 23.0301L19.0388 23.026ZM22.1504 20.8834H22.1052L22.0887 20.9239L20.8992 24.0711L20.8663 24.1561H21.4837L21.5001 24.1156L22.6937 20.9684L22.7267 20.8834H22.1463H22.1504Z" fill="#A2004A"/>
</svg>
