<svg width="76" height="76" viewBox="0 0 76 76" fill="none" xmlns="http://www.w3.org/2000/svg">
<g opacity="0.19">
<path d="M75.9686 43.786L69.4532 12.2599C69.2771 11.3575 68.3874 10.6736 67.4977 10.7306C63.4105 10.9966 57.581 12.2599 51.1398 14.3876L41.8255 0.747484C40.9729 -0.0978976 40.3334 -0.145391 39.3695 0.20606C35.9404 2.24827 32.4556 4.64194 29.2026 7.21608L23.2433 1.58337C22.335 0.956455 21.7048 1.06094 20.8522 1.45988C11.853 8.44141 5.81032 16.3633 2.65923 25.805C-0.491872 35.2467 -0.751374 46.1131 1.39879 58.9744C1.47293 59.4778 1.76024 59.9432 2.15876 60.2377L23.6511 75.6445C24.2628 76.1005 25.1525 76.1195 25.7827 75.692C26.4129 75.2646 26.7466 74.4192 26.5798 73.6688C26.4222 72.8614 26.2739 72.0825 26.1442 71.3036L29.2675 73.7353C29.8699 74.1722 30.7225 74.2007 31.3435 73.7923C31.9644 73.3933 32.3166 72.5859 32.1869 71.845C32.0756 70.8952 32.919 68.1311 35.0228 65.0725C37.1452 61.9854 40.3797 58.4899 44.3371 55.3649C52.2612 49.1052 63.0305 44.3274 73.8369 46.0752C75.0232 46.2746 76.2095 45.0113 75.9686 43.7955V43.786ZM22.2609 69.9453L5.00401 57.5685C3.05775 45.4672 3.37286 35.5316 6.19958 27.0588C8.94288 18.8425 14.1051 11.9274 21.9458 5.57281L41.5753 24.0952C33.8829 29.6709 28.0997 36.187 24.8096 44.0804C21.7141 51.5084 20.9078 60.1332 22.2702 69.9453H22.2609ZM28.248 68.2925L25.5047 66.1364C24.8096 58.262 25.7549 51.5084 28.2202 45.5812C31.4454 37.8398 37.2379 31.4377 45.5141 25.862C46.4687 25.2256 46.5892 23.6203 45.7458 22.8319L32.0478 9.88521C34.5316 7.95698 37.2008 6.08574 39.8144 4.46147L55.3474 27.2393C47.4882 31.3617 40.1851 36.5195 35.0785 43.4535C30.2221 50.0456 27.6178 58.3569 28.248 68.2925ZM42.0665 52.3158C38.1739 55.6593 34.4019 59.3353 31.7605 63.1633C32.1683 56.3052 34.4853 50.625 38.072 45.7522C43.0674 38.9606 50.6208 33.7459 58.9248 29.6329C59.898 29.158 60.2687 27.7237 59.657 26.8118L53.466 17.7596C58.4429 16.2018 62.9008 15.2045 66.1724 14.8245L71.7795 42.0382C60.556 41.1643 49.9535 46.1036 42.0757 52.3158H42.0665Z" fill="#EFB0CD"/>
<path d="M10.2959 35.2653C10.2125 35.9397 10.2403 36.2912 10.3978 36.7186C10.6481 37.355 11.2412 37.8299 12.0475 38.0199C13.2616 38.3144 14.1328 37.8584 14.3645 36.8326C14.4943 36.2627 14.3553 35.7117 13.9938 35.3888C13.7065 35.1228 13.3358 34.9043 11.7973 34.0685C10.4257 33.3561 9.97152 33.0141 9.49886 32.3967C8.69255 31.3518 8.43305 29.9935 8.76669 28.5117C9.41545 25.6906 11.7695 24.3798 14.8835 25.1302C16.8854 25.6146 18.2571 26.688 18.7946 28.2743C19.0541 28.9772 19.1097 29.5661 19.0819 30.6584L15.6435 30.2785C15.7269 29.0437 15.2728 28.4073 14.0679 28.1223C13.1041 27.8943 12.2607 28.3218 12.0661 29.1672C11.9456 29.6801 12.0939 30.117 12.5387 30.516C12.7241 30.6743 13.4037 31.0511 14.5777 31.6463C15.7084 32.2257 16.3942 32.7197 16.8947 33.2991C17.84 34.4009 18.1273 35.7592 17.7473 37.45C17.4322 38.8273 16.7835 39.9006 15.8752 40.5561C14.726 41.3634 13.2153 41.5629 11.371 41.1165C10.0271 40.7935 8.77596 40.1476 8.05306 39.3782C7.38577 38.6753 6.97798 37.7445 6.8853 36.6236C6.82969 36.1487 6.84823 35.7022 6.93164 34.8379L10.2959 35.2558V35.2653Z" fill="#EFB0CD"/>
<path d="M28.6747 28.8446L18.9341 45.3438L16.1074 44.6694L25.8666 28.1797L28.6747 28.8541V28.8446Z" fill="#EFB0CD"/>
</g>
</svg>
