<svg width="91" height="90" viewBox="0 0 91 90" fill="none" xmlns="http://www.w3.org/2000/svg">
<circle cx="45.5" cy="45" r="45" fill="#E3E8EF"/>
<path d="M67.6984 67.7425L22.0597 68.8753C18.5249 68.963 15.6165 66.1129 15.6352 62.5793L15.8105 28.3336C15.7584 25.1608 18.5325 22.0012 22.3191 21.6426L61.8305 21.8327L67.1729 21.8602C69.7844 21.8735 71.8552 24.0631 71.7209 26.6694L71.5839 29.3303C72.9168 30.186 73.7725 31.7114 73.6847 33.415L72.1454 63.4145C72.024 65.7975 70.0856 67.6842 67.6982 67.7428L67.6984 67.7425Z" fill="#FAE6EF"/>
<g opacity="0.3">
<path d="M26.5099 28.0996C23.7739 28.9577 16.3707 24.7064 23.5016 23.8115L62.1484 23.9765L67.0373 24.0016C69.6477 24.0143 71.7196 26.2045 71.5859 28.8098" fill="#650000"/>
</g>
<g opacity="0.3">
<path d="M67.6982 67.7428L22.0595 68.8756C19.6685 68.935 17.5634 67.6499 16.4588 65.7187C17.4731 66.3668 18.6852 66.7299 19.9816 66.6975L65.6204 65.5648C68.0079 65.5064 69.9463 63.6197 70.0676 61.2365L70.2946 56.8161L62.1654 56.8455C59.1359 56.8563 56.71 54.3343 56.8419 51.3086C56.8765 50.5209 57.081 49.7799 57.4196 49.1203C58.2985 47.4069 60.081 46.2401 62.1273 46.2326L70.8393 46.2007L73.0292 46.1929L72.4848 56.8083L72.1457 63.4145C72.0244 65.7975 70.086 67.6842 67.6985 67.7428H67.6982Z" fill="#650000"/>
</g>
<g opacity="0.3">
<path d="M73.0279 46.1929L70.838 46.2007L71.6059 31.2371C71.648 30.424 71.4748 29.6525 71.1379 28.9756C71.2784 29.0085 71.4384 29.0447 71.5956 29.0779L71.5832 29.3307C72.9161 30.1864 73.7718 31.7118 73.684 33.4154L73.0282 46.1932L73.0279 46.1929Z" fill="#650000"/>
</g>
<g opacity="0.6">
<path d="M72.1947 29.8002C70.6237 29.5756 69.0387 29.4632 67.4516 29.464L28.3263 29.484C27.1579 29.4846 25.9998 29.2429 24.9377 28.7563C24.2044 28.4204 23.3038 27.9435 22.2992 27.2773C24.1298 28.1166 25.9412 28.5932 27.7305 28.6472C27.7305 28.6472 68.554 28.6035 68.651 28.604C68.748 28.6045 72.1947 29.8 72.1947 29.8V29.8002Z" fill="white"/>
</g>
<g opacity="0.6">
<path d="M70.4441 23.2619C69.8397 22.9619 69.1599 22.792 68.4382 22.7885L63.0958 22.761L23.5843 22.5709C19.7978 22.9295 17.0236 26.0891 17.0758 29.2619L16.9004 63.5076C16.891 65.3168 17.6483 66.9464 18.8651 68.0938C16.9312 67.0207 15.6205 64.9557 15.6335 62.5798L15.8088 28.3341C15.7567 25.1613 18.5308 22.0017 22.3174 21.6431L61.8288 21.8332L67.1712 21.8607C68.4617 21.8672 69.6192 22.4045 70.4439 23.2619H70.4441Z" fill="white"/>
</g>
<path d="M18.8248 68.6375C18.2231 68.3292 17.6649 67.9279 17.1669 67.4397C15.8491 66.1484 15.1288 64.4213 15.1385 62.577L15.3139 28.3316C15.3152 28.0578 15.5387 27.8369 15.8127 27.8383C16.0867 27.8394 16.3077 28.0627 16.3063 28.3368L16.131 62.5824C16.1226 64.1561 16.7373 65.6297 17.8619 66.7319C18.9862 67.8339 20.4725 68.4194 22.0467 68.3805L67.6855 67.2477C69.8008 67.1959 71.542 65.5014 71.6493 63.3901L73.1886 33.3906C73.2637 31.9341 72.5458 30.5389 71.3153 29.7487C70.6649 29.3307 69.9108 29.108 69.1332 29.1039L27.2572 28.8892C27.0389 28.8852 26.8381 28.8776 26.6541 28.8666C23.0327 28.6608 20.0842 27.0879 20.0834 25.3608C20.0832 24.8045 20.4336 23.4908 23.6873 23.3026C23.9608 23.2867 24.1956 23.4957 24.2113 23.7692C24.2272 24.0428 24.0181 24.2771 23.7446 24.2931C21.9008 24.3997 21.0759 24.906 21.0759 25.3605C21.0764 26.1268 23.0124 27.6663 26.712 27.8766C26.8841 27.8872 27.0708 27.8942 27.2688 27.898L69.1378 28.1126C70.1045 28.1178 71.0427 28.3951 71.8517 28.9149C73.3807 29.8967 74.2729 31.6314 74.1797 33.4422L72.6404 63.4416C72.5069 66.0679 70.341 68.1758 67.7098 68.2401L22.0713 69.3728C20.9232 69.4012 19.8154 69.1465 18.8246 68.6389L18.8248 68.6375Z" fill="#790038"/>
<path d="M23.1187 24.253C22.9573 24.1703 22.8476 24.0024 22.8485 23.8088C22.8498 23.535 23.0733 23.3141 23.3472 23.3154L67.0387 23.5058C68.438 23.5126 69.7382 24.0761 70.6999 25.0928C71.6618 26.1094 72.1519 27.4385 72.0803 28.8354C72.0663 29.1089 71.8331 29.3193 71.5594 29.3052C71.2859 29.2915 71.0752 29.0581 71.0892 28.7846C71.1468 27.661 70.7526 26.592 69.9787 25.7743C69.2051 24.9567 68.1592 24.5033 67.0338 24.4979L23.3424 24.3075C23.2619 24.307 23.1859 24.2875 23.1189 24.2532L23.1187 24.253Z" fill="#650000"/>
<path d="M19.2479 30.2049C19.2325 30.197 19.2177 30.1879 19.2033 30.1773C18.7424 29.843 18.4116 29.4855 18.2203 29.1153C18.1347 28.9498 18.1998 28.7462 18.3657 28.6606C18.5316 28.5753 18.7351 28.6403 18.8207 28.8059C18.961 29.0778 19.2306 29.3632 19.6003 29.6313C19.7513 29.741 19.7848 29.9519 19.6751 30.1028C19.5759 30.2394 19.3936 30.2797 19.2479 30.2052V30.2049Z" fill="#650000"/>
<path d="M20.8724 66.2002C20.7295 66.127 20.6552 65.9598 20.7041 65.8008C20.759 65.6226 20.9478 65.5224 21.1262 65.5772C21.806 65.7857 22.5766 65.8807 23.4172 65.8599L23.6328 65.8561C23.8192 65.8526 23.9732 66.0012 23.9765 66.1877C23.9797 66.3741 23.8314 66.5277 23.6447 66.5312L23.4315 66.535C22.5207 66.5577 21.6774 66.4526 20.9281 66.2226C20.9086 66.2166 20.89 66.2091 20.8727 66.2002H20.8724ZM26.1248 66.447C26.0176 66.3919 25.9433 66.2814 25.9411 66.1524C25.9379 65.966 26.0862 65.8124 26.2729 65.8089L28.913 65.7619C29.0995 65.7587 29.2535 65.9069 29.2567 66.0935C29.26 66.2798 29.1116 66.4335 28.9249 66.437L26.2848 66.484C26.2272 66.485 26.1729 66.4715 26.1248 66.447ZM31.4051 66.353C31.2978 66.2979 31.2235 66.1875 31.2213 66.0584C31.2181 65.8721 31.3664 65.7184 31.5531 65.7149L34.1932 65.6679C34.3797 65.6644 34.5337 65.8132 34.5369 65.9995C34.5402 66.1859 34.3918 66.3395 34.2051 66.343L31.565 66.39C31.5075 66.3911 31.4532 66.3776 31.4051 66.353ZM36.6853 66.259C36.578 66.2039 36.5037 66.0935 36.5016 65.9644C36.4983 65.7781 36.6466 65.6245 36.8334 65.6209L39.4735 65.574C39.6599 65.5705 39.8139 65.719 39.8172 65.9056C39.8204 66.0919 39.6721 66.2455 39.4854 66.249L36.8452 66.296C36.7877 66.2971 36.7334 66.2836 36.6853 66.259ZM41.9655 66.1651C41.8582 66.11 41.7839 65.9993 41.7818 65.8705C41.7785 65.6841 41.9269 65.5305 42.1136 65.527L44.7537 65.48C44.9401 65.4765 45.0941 65.625 45.0974 65.8116C45.1006 65.9979 44.9523 66.1516 44.7656 66.1551L42.1255 66.2021C42.0679 66.2031 42.0133 66.1896 41.9655 66.1651ZM47.2457 66.0711C47.1385 66.016 47.0642 65.9056 47.0617 65.7768C47.0585 65.5902 47.2068 65.4365 47.3935 65.4333L50.0337 65.3863C50.2201 65.3828 50.3741 65.5313 50.3773 65.7179C50.3806 65.9042 50.2322 66.0579 50.0455 66.0614L47.4054 66.1084C47.3479 66.1094 47.2936 66.0959 47.2455 66.0714L47.2457 66.0711ZM52.526 65.9771C52.4187 65.922 52.3444 65.8116 52.3422 65.6825C52.339 65.4962 52.4873 65.3426 52.674 65.339L55.3141 65.2921C55.5006 65.2885 55.6546 65.4371 55.6578 65.6236C55.6611 65.81 55.5127 65.9636 55.326 65.9671L52.6859 66.0141C52.6284 66.0152 52.5741 66.0017 52.526 65.9771ZM57.8062 65.8832C57.6989 65.8281 57.6246 65.7174 57.6225 65.5885C57.6192 65.4022 57.7676 65.2486 57.9543 65.2451L60.5944 65.1981C60.7808 65.1948 60.9348 65.3431 60.9381 65.5297C60.9413 65.716 60.793 65.8696 60.6063 65.8732L57.9662 65.9201C57.9086 65.9212 57.854 65.9077 57.8062 65.8832ZM63.0864 65.7892C62.9792 65.7341 62.9049 65.6237 62.9027 65.4946C62.8994 65.3083 63.0478 65.1546 63.2345 65.1511L65.5901 65.1092C65.6755 65.1074 65.7638 65.1022 65.8508 65.0947C66.0367 65.0785 66.2002 65.2159 66.2167 65.4017C66.2329 65.5875 66.0954 65.7511 65.9095 65.7673C65.8084 65.7762 65.7057 65.7816 65.6041 65.7843L63.2464 65.8264C63.1888 65.8275 63.1345 65.814 63.0864 65.7894V65.7892ZM68.1472 64.7758C68.1051 64.7542 68.067 64.7234 68.0359 64.6837C67.9208 64.5371 67.9462 64.3251 68.0929 64.2098C68.5717 63.8342 68.9711 63.3503 69.248 62.8108C69.3415 62.6288 69.4223 62.4381 69.488 62.2445C69.548 62.0682 69.7398 61.9734 69.9162 62.0333C70.0919 62.0936 70.1875 62.285 70.1275 62.4616C70.0511 62.6865 69.9573 62.9077 69.849 63.1191C69.528 63.7448 69.0651 64.3056 68.5101 64.7409C68.4031 64.8249 68.261 64.8341 68.1472 64.7758ZM69.9519 60.0424C69.8379 59.9841 69.7625 59.8629 69.7684 59.7265L69.8873 57.0902C69.8957 56.9039 70.0535 56.7599 70.2399 56.7683C70.4261 56.777 70.5704 56.9344 70.5623 57.1207L70.4434 59.757C70.435 59.9433 70.2772 60.0872 70.0908 60.0789C70.0408 60.0767 69.9938 60.0637 69.9519 60.0421V60.0424ZM21.6409 31.2908C21.5009 31.219 21.4261 31.0567 21.4701 30.8995C21.5204 30.7199 21.7068 30.6152 21.8865 30.6654C22.6698 30.8847 23.5215 31.0243 24.4174 31.0807C24.6036 31.0926 24.7452 31.2527 24.7333 31.4388C24.7217 31.6248 24.5612 31.7663 24.375 31.7544C23.4318 31.6953 22.5331 31.5476 21.7041 31.3156C21.6817 31.3094 21.6606 31.3011 21.6409 31.2908ZM70.1897 54.7696C70.0757 54.7112 70 54.59 70.0062 54.4539L70.1251 51.8176C70.1335 51.6313 70.2915 51.4871 70.4777 51.4955C70.6639 51.5038 70.8082 51.6618 70.8001 51.8478L70.6812 54.4841C70.6728 54.6705 70.5147 54.8147 70.3286 54.8063C70.2786 54.8041 70.2316 54.7909 70.1897 54.7696ZM26.8825 31.7536C26.7728 31.6975 26.6979 31.5832 26.6987 31.4515C26.6995 31.2651 26.8514 31.1147 27.0381 31.1155L29.6788 31.1277C29.8652 31.1285 30.0157 31.2803 30.0149 31.4668C30.0141 31.6532 29.8622 31.8036 29.6755 31.8028L27.0349 31.7906C26.98 31.7906 26.9281 31.7771 26.8825 31.7536ZM32.1635 31.7779C32.0538 31.7218 31.979 31.6075 31.9798 31.4758C31.9806 31.2894 32.1324 31.139 32.3191 31.1398L34.9598 31.152C35.1462 31.1531 35.2967 31.3046 35.2959 31.4912C35.2951 31.6775 35.1433 31.8279 34.9566 31.8271L32.3159 31.8149C32.2611 31.8149 32.2092 31.8014 32.1635 31.7779ZM70.4277 49.4972C70.3137 49.4389 70.238 49.3179 70.2443 49.1816L70.3631 46.5453C70.3715 46.359 70.5296 46.2148 70.7158 46.2231C70.9022 46.2315 71.0465 46.3895 71.0381 46.5755L70.9192 49.2118C70.9108 49.3981 70.7528 49.5423 70.5666 49.534C70.5166 49.5318 70.4696 49.5186 70.4277 49.4972ZM37.4445 31.802C37.3348 31.7458 37.26 31.6316 37.2608 31.4998C37.2616 31.3135 37.4135 31.1631 37.6002 31.1639L40.2408 31.176C40.4273 31.1768 40.5778 31.3286 40.577 31.5152C40.5762 31.7015 40.4243 31.8519 40.2376 31.8511L37.5969 31.8389C37.5421 31.8389 37.4902 31.8254 37.4445 31.802ZM42.7256 31.8263C42.6159 31.7701 42.541 31.6559 42.5418 31.5241C42.5427 31.3378 42.6945 31.1874 42.8812 31.1882L45.5219 31.2003C45.7083 31.2014 45.8588 31.3529 45.858 31.5395C45.8572 31.7258 45.7053 31.8762 45.5186 31.8754L42.878 31.8633C42.8231 31.8633 42.7712 31.8498 42.7256 31.8263ZM70.6655 44.2246C70.5515 44.1663 70.4758 44.0451 70.482 43.909L70.6009 41.2727C70.6093 41.0864 70.7674 40.9422 70.9535 40.9505C71.14 40.9592 71.284 41.1166 71.2759 41.3029L71.157 43.9392C71.1486 44.1255 70.9908 44.2697 70.8044 44.2614C70.7544 44.2592 70.7074 44.2463 70.6655 44.2246ZM48.0069 31.8506C47.8972 31.7944 47.8223 31.6802 47.8232 31.5484C47.824 31.3621 47.9758 31.2117 48.1625 31.2125L50.8032 31.2246C50.9896 31.2254 51.1401 31.3772 51.1393 31.5638C51.1385 31.7501 50.9866 31.9005 50.7999 31.8997L48.1593 31.8876C48.1044 31.8876 48.0526 31.8741 48.0069 31.8506ZM53.2879 31.8749C53.1782 31.8187 53.1034 31.7045 53.1042 31.5727C53.105 31.3864 53.2569 31.236 53.4436 31.2368L56.0842 31.2489C56.2707 31.2497 56.4212 31.4015 56.4203 31.5881C56.4195 31.7744 56.2677 31.9248 56.081 31.924L53.4403 31.9119C53.3855 31.9119 53.3336 31.8984 53.2879 31.8749ZM70.9033 38.9523C70.7892 38.894 70.7136 38.7728 70.7198 38.6367L70.8387 36.0004C70.8471 35.814 71.0051 35.6699 71.1913 35.6782C71.3777 35.6866 71.5218 35.8443 71.5137 36.0306L71.3948 38.6669C71.3864 38.8532 71.2283 38.9974 71.0422 38.9891C70.9922 38.9869 70.9452 38.9737 70.9033 38.9523ZM58.569 31.8992C58.4593 31.843 58.3844 31.7288 58.3852 31.597C58.386 31.4107 58.5379 31.2603 58.7246 31.2611L61.3653 31.2732C61.5517 31.274 61.7022 31.4258 61.7014 31.6124C61.7006 31.7987 61.5487 31.9491 61.362 31.9483L58.7214 31.9362C58.6665 31.9362 58.6146 31.9227 58.569 31.8992ZM63.85 31.9235C63.7403 31.8673 63.6655 31.7531 63.6663 31.6213C63.6671 31.435 63.8189 31.2846 64.0056 31.2854L66.6463 31.2975C66.8327 31.2984 66.9832 31.4501 66.9824 31.6367C66.9816 31.823 66.8298 31.9734 66.6431 31.9726L64.0024 31.9605C63.9475 31.9605 63.8957 31.947 63.85 31.9235ZM70.9916 33.6905C70.9138 33.6508 70.8517 33.5809 70.8233 33.491C70.652 32.9442 70.2605 32.48 69.749 32.2178C69.5793 32.1309 69.3985 32.0671 69.2124 32.028C69.03 31.9899 68.9127 31.8109 68.9511 31.6283C68.9892 31.4458 69.1683 31.3289 69.351 31.3672C69.5963 31.4185 69.8341 31.5025 70.0573 31.617C70.729 31.9613 71.2435 32.5707 71.4683 33.2893C71.5239 33.4672 71.4248 33.6565 71.2467 33.7121C71.1586 33.7397 71.0678 33.7294 70.9916 33.6903V33.6905Z" fill="#650000"/>
<path d="M18.6528 64.8202C18.6166 64.8015 18.5831 64.7759 18.5542 64.7435C18.2483 64.3987 17.9922 64.0052 17.7925 63.5745C17.7141 63.4052 17.7879 63.2049 17.957 63.1266C18.1262 63.0482 18.3272 63.1217 18.4056 63.291C18.5774 63.662 18.7976 64.0001 19.0597 64.2958C19.1835 64.4354 19.1705 64.6487 19.0311 64.7724C18.9238 64.8674 18.773 64.8817 18.6528 64.8202Z" fill="#650000"/>
<path d="M71.3574 29.772C71.1888 29.6856 71.0778 29.5063 71.0881 29.3048L71.225 26.6442C71.2829 25.5201 70.8886 24.4508 70.1153 23.6331C69.342 22.8155 68.2961 22.3621 67.1702 22.3564L22.3658 22.1364C22.0915 22.1345 21.8708 21.9117 21.8721 21.6379C21.8732 21.3641 22.0967 21.1432 22.3707 21.1445L67.175 21.3646C68.5749 21.3716 69.8754 21.9352 70.8365 22.9518C71.7979 23.9685 72.2877 25.2979 72.2159 26.6953L72.0789 29.3559C72.0648 29.6294 71.8314 29.8397 71.5579 29.8257C71.4855 29.8219 71.4177 29.803 71.3572 29.772H71.3574Z" fill="#650000"/>
<path d="M15.5842 28.7754C15.4264 28.6943 15.3172 28.5315 15.314 28.342C15.2551 24.7449 18.3764 21.518 22.2721 21.1492C22.545 21.1235 22.7871 21.3236 22.8131 21.5961C22.839 21.8688 22.6388 22.1108 22.3659 22.1367C18.9741 22.458 16.2559 25.2345 16.3067 28.3258C16.3113 28.5996 16.0927 28.8253 15.8187 28.8299C15.7344 28.8312 15.6547 28.8115 15.5844 28.7756L15.5842 28.7754Z" fill="#650000"/>
<path d="M73.1801 54.8255L61.9723 54.8663C58.9417 54.8774 56.5167 52.3556 56.648 49.3296C56.7709 46.4984 59.0979 44.2633 61.9336 44.2531L73.5187 44.2109C74.2604 44.2082 74.854 44.8255 74.8219 45.5662L74.4738 53.5829C74.4438 54.2757 73.874 54.8231 73.1801 54.8255Z" fill="#FAE6EF"/>
<g opacity="0.6">
<path d="M63.7571 51.5974C64.6698 50.6853 64.6698 49.2063 63.7571 48.2942C62.8443 47.382 61.3645 47.382 60.4517 48.2942C59.539 49.2063 59.539 50.6853 60.4517 51.5974C61.3645 52.5096 62.8443 52.5096 63.7571 51.5974Z" fill="white"/>
</g>
<g opacity="0.3">
<path d="M73.1783 54.8251L61.9699 54.8667C58.9404 54.8775 56.5146 52.3554 56.6464 49.3297C56.6564 49.1175 56.6772 48.908 56.711 48.7038C57.1209 51.2199 59.3125 53.1579 61.9696 53.1471L73.1775 53.1066C73.8716 53.1042 74.4409 52.5571 74.4717 51.864L74.7638 45.1265C74.8062 45.2639 74.8265 45.4122 74.8197 45.5661L74.4725 53.5822C74.4428 54.2761 73.8724 54.8227 73.1783 54.8248V54.8251Z" fill="#650000"/>
</g>
<g opacity="0.6">
<path d="M74.8219 45.561C74.5919 45.3595 74.2909 45.2372 73.9597 45.2388L62.3746 45.281C60.3284 45.2885 58.5459 46.4553 57.6669 48.1687C57.3284 48.8283 57.1238 49.5693 57.0893 50.357C57.0617 50.9837 57.1449 51.588 57.3208 52.1532C56.8526 51.3239 56.6034 50.3559 56.6488 49.3301C56.6834 48.5424 56.888 47.8014 57.2265 47.1417C58.1055 45.4284 59.888 44.2616 61.9342 44.254L73.5192 44.2119C74.2593 44.2095 74.8524 44.8227 74.8221 45.561H74.8219Z" fill="white"/>
</g>
<path d="M59.3087 54.7304C58.7426 54.4404 58.2222 54.0545 57.7664 53.5806C56.6559 52.4257 56.0825 50.9087 56.1519 49.3085C56.2865 46.2069 58.8253 43.7685 61.9315 43.7575L73.5165 43.7153C74.0121 43.7135 74.4744 43.9092 74.8181 44.2665C75.1618 44.6237 75.339 45.093 75.3174 45.588L74.9694 53.6046C74.9278 54.564 74.1426 55.3182 73.1818 55.3217L61.9739 55.3625C61.029 55.366 60.1217 55.1473 59.3087 54.7306V54.7304ZM73.8892 44.7944C73.7768 44.7366 73.6511 44.7064 73.5203 44.7069L61.9353 44.749C59.36 44.7585 57.2552 46.7799 57.1436 49.3511C57.086 50.6778 57.5613 51.9356 58.4821 52.8931C59.4027 53.8501 60.6416 54.375 61.9704 54.3702L73.1783 54.3294C73.6081 54.3278 73.9594 53.9902 73.978 53.5612L74.3261 45.5445C74.3355 45.3231 74.2564 45.113 74.1026 44.9532C74.0397 44.8875 73.9675 44.8341 73.8892 44.7941V44.7944Z" fill="#650000"/>
<path d="M63.5186 51.1726C64.4314 50.2605 64.4314 48.7815 63.5186 47.8694C62.6059 46.9572 61.126 46.9572 60.2133 47.8694C59.3006 48.7815 59.3006 50.2605 60.2133 51.1726C61.126 52.0848 62.6059 52.0848 63.5186 51.1726Z" fill="#650000"/>
<g opacity="0.19">
<path d="M61.6771 48.9559C62.1733 48.7423 62.48 48.347 62.3619 48.0731C62.2439 47.7991 61.7458 47.7502 61.2496 47.9638C60.7533 48.1774 60.4467 48.5727 60.5647 48.8466C60.6828 49.1205 61.1808 49.1695 61.6771 48.9559Z" fill="white"/>
</g>
<path d="M48.1401 61.4553L35.3129 61.4747C35.3129 61.4747 29.0799 62.3796 31.4855 55.8303C31.6957 55.2578 33.7998 49.5151 42.0943 49.5151C50.4194 49.908 52.5859 56.2016 52.8048 57.2993C53.831 62.446 48.1398 61.4553 48.1398 61.4553H48.1401Z" fill="#222D42"/>
<path d="M45.3174 61.1024L37.9139 61.1116C37.9139 61.1116 34.3165 61.5396 35.7048 58.441C35.8261 58.1702 37.0406 55.4531 41.828 55.4531C46.633 55.6389 47.8834 58.6165 48.0099 59.1361C48.6022 61.5712 45.3174 61.1024 45.3174 61.1024Z" fill="#CA005D"/>
<path d="M51.8253 45.8598C53.2409 45.8598 54.3885 44.713 54.3885 43.2983C54.3885 41.8836 53.2409 40.7368 51.8253 40.7368C50.4098 40.7368 49.2622 41.8836 49.2622 43.2983C49.2622 44.713 50.4098 45.8598 51.8253 45.8598Z" fill="#222D42"/>
<path d="M34.225 45.8598C35.6405 45.8598 36.7881 44.713 36.7881 43.2983C36.7881 41.8836 35.6405 40.7368 34.225 40.7368C32.8094 40.7368 31.6619 41.8836 31.6619 43.2983C31.6619 44.713 32.8094 45.8598 34.225 45.8598Z" fill="#222D42"/>
<path d="M53.7531 36.1906C53.7531 36.1906 56.982 37.4487 59.3948 39.5689C61.0968 40.9318 59.3481 42.8306 57.8212 41.3395C55.7736 39.34 53.0303 38.4621 53.0303 38.4621C53.0303 38.4621 52.0279 38.0892 52.1211 36.9243C52.1651 36.374 52.7155 35.7478 53.7531 36.1903V36.1906Z" fill="#222D42"/>
<path d="M32.3275 36.1906C32.3275 36.1906 29.0986 37.4487 26.6858 39.5689C24.9838 40.9318 26.7325 42.8306 28.2594 41.3395C30.307 39.34 33.0503 38.4621 33.0503 38.4621C33.0503 38.4621 34.0527 38.0892 33.9595 36.9243C33.9155 36.374 33.3651 35.7478 32.3275 36.1903V36.1906Z" fill="#222D42"/>
</svg>
