<svg width="57" height="56" viewBox="0 0 57 56" fill="none" xmlns="http://www.w3.org/2000/svg">
<g filter="url(#filter0_d_7844_261311)">
<rect x="8" y="6" width="41" height="40" rx="20" fill="white" shape-rendering="crispEdges"/>
<path d="M21.1534 21.3492C20.6577 20.865 19.8761 20.9014 19.3627 21.3529C18.8623 21.7962 18.8962 22.6263 19.3627 23.0778L19.4172 23.1306C20.4809 24.1801 21.5653 25.2096 22.6413 26.2509L26.5125 29.9975C26.6301 30.1113 26.7476 30.2295 26.8698 30.3433C27.5969 31.0388 28.6437 31.1898 29.5559 30.7584C30.0224 30.5389 30.4175 30.0666 30.7833 29.7133L34.8981 25.731L37.6387 23.0785C38.1391 22.5988 38.1014 21.8423 37.6387 21.3537C37.1807 20.8694 36.323 20.9022 35.8565 21.3537L34.8981 22.2812L30.7664 26.2799L28.9926 27.9966L28.4753 28.4972L28.3239 28.6437C28.3116 28.6556 28.2901 28.6683 28.2778 28.6846C28.4246 28.5017 28.4923 28.5426 28.3616 28.6117C28.3193 28.6363 28.2778 28.6526 28.2309 28.6727C28.3316 28.6318 28.4323 28.5917 28.5338 28.5507C28.4623 28.5753 28.387 28.5954 28.3109 28.608C28.4246 28.5917 28.5338 28.5798 28.6475 28.5634C28.5507 28.5753 28.4584 28.5753 28.3616 28.5634C28.4753 28.5798 28.5845 28.5917 28.6982 28.608C28.6229 28.5961 28.5514 28.5753 28.4753 28.5507C28.576 28.5917 28.6767 28.6318 28.7782 28.6727C28.7151 28.6482 28.6606 28.6155 28.5975 28.5835C28.4669 28.5143 28.8412 28.8029 28.6898 28.6445L28.6859 28.6407L28.6521 28.608L28.4884 28.4496L27.8497 27.8315L23.7641 23.8774C22.8942 23.0354 22.0242 22.1934 21.1542 21.3514L21.1534 21.3492Z" fill="#CA005D"/>
</g>
<defs>
<filter id="filter0_d_7844_261311" x="0" y="0" width="57" height="56" filterUnits="userSpaceOnUse" color-interpolation-filters="sRGB">
<feFlood flood-opacity="0" result="BackgroundImageFix"/>
<feColorMatrix in="SourceAlpha" type="matrix" values="0 0 0 0 0 0 0 0 0 0 0 0 0 0 0 0 0 0 127 0" result="hardAlpha"/>
<feOffset dy="2"/>
<feGaussianBlur stdDeviation="4"/>
<feComposite in2="hardAlpha" operator="out"/>
<feColorMatrix type="matrix" values="0 0 0 0 0 0 0 0 0 0 0 0 0 0 0 0 0 0 0.15 0"/>
<feBlend mode="normal" in2="BackgroundImageFix" result="effect1_dropShadow_7844_261311"/>
<feBlend mode="normal" in="SourceGraphic" in2="effect1_dropShadow_7844_261311" result="shape"/>
</filter>
</defs>
</svg>
