<svg width="14" height="19" viewBox="0 0 14 19" fill="none" xmlns="http://www.w3.org/2000/svg">
<path d="M2.51164 3.15112V4.54648H2.37211C1.8439 4.54648 1.41362 4.96575 1.39592 5.48965L1.39536 5.52323V16.1279C1.39536 16.6561 1.81463 17.0864 2.33853 17.1041L2.37211 17.1047H11.3024C11.8306 17.1047 12.2609 16.6854 12.2786 16.1615L12.2791 16.1279V5.52323C12.2791 4.99502 11.8599 4.56474 11.336 4.54705L11.3024 4.54648V3.15112C12.5974 3.15112 13.65 4.18888 13.6741 5.47815L13.6745 5.52323V16.1279C13.6745 17.423 12.6367 18.4756 11.3475 18.4996L11.3024 18.5H2.37211C1.07709 18.5 0.0244475 17.4623 0.000419974 16.173L0 16.1279V5.52323C0 4.22821 1.03775 3.17557 2.32703 3.15154L2.37211 3.15112H2.51164Z" fill="#A2004A"/>
<path d="M7.62277 0.5H6.35516C5.90873 0.5 5.48926 0.713607 5.22668 1.07465L4.52832 2.03489H3.90685C2.98209 2.03489 2.23242 2.78456 2.23242 3.70932V3.77909C2.23242 4.74238 3.01332 5.52328 3.97662 5.52328H9.69758C10.6609 5.52328 11.4418 4.74238 11.4418 3.77909V3.50002C11.4418 2.69085 10.7858 2.03489 9.97665 2.03489H9.53982L8.70271 1.01176C8.4377 0.687852 8.04128 0.5 7.62277 0.5ZM5.6568 2.8556L6.35516 1.89536H7.62277L8.45987 2.91848C8.72489 3.2424 9.1213 3.43025 9.53982 3.43025H9.97665C10.0152 3.43025 10.0464 3.46148 10.0464 3.50002V3.77909C10.0464 3.97175 9.89024 4.12793 9.69758 4.12793H3.97662C3.78396 4.12793 3.62778 3.97175 3.62778 3.77909V3.70932C3.62778 3.55519 3.75272 3.43025 3.90685 3.43025H4.52832C4.97475 3.43025 5.39422 3.21664 5.6568 2.8556Z" fill="#A2004A"/>
<path d="M8.39591 7.36123C8.61388 7.14326 8.96728 7.14326 9.18525 7.36123C9.39595 7.57193 9.40297 7.90919 9.20632 8.12832L9.18525 8.15056L6.67361 10.6622C6.4629 10.8729 6.12565 10.8799 5.90651 10.6833L5.88427 10.6622L4.48892 9.26685C4.27095 9.04888 4.27095 8.69548 4.48892 8.47752C4.69962 8.26681 5.03687 8.25979 5.25601 8.45645L5.27825 8.47752L6.27894 9.47819L8.39591 7.36123Z" fill="#A2004A"/>
<path d="M8.39591 11.5474C8.61388 11.3294 8.96728 11.3294 9.18525 11.5474C9.39595 11.7581 9.40297 12.0953 9.20632 12.3145L9.18525 12.3367L6.67361 14.8484C6.4629 15.0591 6.12565 15.0661 5.90651 14.8694L5.88427 14.8484L4.48892 13.453C4.27095 13.235 4.27095 12.8816 4.48892 12.6637C4.69962 12.453 5.03687 12.4459 5.25601 12.6426L5.27825 12.6637L6.27894 13.6643L8.39591 11.5474Z" fill="#A2004A"/>
</svg>
