<svg width="22" height="26" viewBox="0 0 22 26" fill="none" xmlns="http://www.w3.org/2000/svg">
<path d="M5.70947 12.8045C5.70947 12.8045 2.99364 16.1869 2.61257 21.0611C1.1865 23.4275 0.951997 25.205 2.9013 25.3507C4.85207 25.4965 5.49842 25.2704 5.49842 25.2704C5.49842 25.2704 7.58549 26.1197 11.5882 25.9858C15.5908 25.8505 18.0692 25.382 18.0692 25.382C18.0692 25.382 19.8632 25.9323 21.1603 25.3388C22.4588 24.7454 19.8617 22.016 19.8617 22.016C19.8617 22.016 18.9823 16.1185 17.3496 14.1209C15.7169 12.1233 14.8697 12.1427 14.8697 12.1427C14.8697 12.1427 8.88991 10.0454 5.70801 12.806L5.70947 12.8045Z" fill="#A2004A"/>
<path d="M6.95515 12.8044C6.95515 12.8044 5.72987 13.7816 4.51925 18.6885C4.19534 20.0034 4.51925 21.7317 4.51925 21.7317C4.51925 21.7317 2.63297 23.2429 3.02869 23.7665C3.53141 24.4328 4.22905 23.7174 5.3532 24.0298C9.46726 25.1691 16.2371 24.65 17.54 24.235C20.7439 24.8508 19.8953 22.8041 18.2362 22.0575C18.0222 20.283 16.9626 13.9809 14.4768 12.9427C11.9911 11.9045 7.73633 12.1008 6.95515 12.8044Z" fill="#CA005D"/>
<path d="M3.94763 10.9376C3.62226 11.3972 4.20119 12.4235 5.45724 12.7612C6.7133 13.0988 8.47207 13.612 10.7761 13.7815C13.08 13.9496 17.0725 13.6135 18.0706 12.8043C19.0687 11.9952 19.3647 11.4895 18.8591 10.8707C17.0651 8.67976 6.71476 7.03024 3.94763 10.9391V10.9376Z" fill="#A2004A"/>
<path d="M4.7875 10.8707C4.7875 10.8707 4.36832 10.8737 4.57791 11.4345C4.7875 11.9952 9.87327 14.1668 15.5805 12.8043C16.9743 12.3775 18.0633 12.08 18.3139 11.6546C18.5645 11.2292 17.7276 10.5078 17.7276 10.5078C17.7276 10.5078 17.9783 11.1013 17.6016 11.3779C17.2249 11.6546 8.6861 13.9496 4.78603 10.8707H4.7875Z" fill="#CA005D"/>
<path d="M16.7222 10.2875C16.7222 10.2875 13.3615 9.19423 10.628 9.32363C7.89609 9.45304 5.47631 10.3157 5.50856 10.6653C5.5408 11.0148 5.74892 11.3703 8.83263 11.7659C11.9163 12.1631 15.1276 11.6574 15.8941 11.4328C16.6592 11.2067 17.5385 10.8973 16.7222 10.2875Z" fill="#4C4152"/>
<path d="M5.03798 22.4946C4.40336 22.4024 2.80288 23.0777 3.60312 23.5224C4.40336 23.9671 6.22076 22.6672 5.03798 22.4946Z" fill="#790038"/>
<path d="M17.9167 23.7991C17.9665 23.8377 18.4824 24.1501 18.9529 23.7991C19.4234 23.448 19.0262 22.7668 18.3608 22.4857C17.6954 22.2046 16.942 23.0345 17.9152 23.7991H17.9167Z" fill="#790038"/>
<path d="M8.86048 19.218C8.88687 19.4471 8.9323 19.5601 9.0305 19.688C9.18732 19.8784 9.46286 19.9855 9.79556 19.9855C10.2997 19.9855 10.6002 19.7698 10.6002 19.4143C10.6002 19.218 10.4947 19.0469 10.3247 18.9696C10.1869 18.9056 10.0242 18.861 9.34268 18.7093C8.7403 18.5829 8.53071 18.507 8.28888 18.3419C7.87704 18.0623 7.65426 17.6384 7.65426 17.1237C7.65426 16.1465 8.46623 15.5322 9.75599 15.5322C10.587 15.5322 11.2216 15.7791 11.5763 16.2551C11.7405 16.4648 11.8181 16.6552 11.9032 17.0166L10.5152 17.1624C10.436 16.7504 10.2015 16.5794 9.70323 16.5794C9.30311 16.5794 9.00998 16.7891 9.00998 17.0806C9.00998 17.2576 9.10818 17.3915 9.31776 17.4867C9.4057 17.5253 9.70616 17.5952 10.2206 17.6964C10.7189 17.7975 11.0326 17.9061 11.2817 18.0578C11.7522 18.3434 11.9882 18.7688 11.9882 19.3519C11.9882 19.8278 11.8313 20.2339 11.5294 20.5195C11.1498 20.875 10.5738 21.0579 9.80729 21.0579C9.25034 21.0579 8.70073 20.9434 8.34751 20.747C8.02067 20.57 7.77737 20.2964 7.64107 19.9349C7.57512 19.7832 7.54287 19.6374 7.49744 19.3444L8.85902 19.218H8.86048Z" fill="#E6FAEC"/>
<path d="M15.5174 15.6602L13.1679 21.8447H11.9969L14.3536 15.6602H15.5188H15.5174Z" fill="#E6FAEC"/>
<mask id="mask0_2190_13218" style="mask-type:luminance" maskUnits="userSpaceOnUse" x="0" y="0" width="20" height="13">
<path d="M17.0813 10.4914C17.0813 10.4914 18.9764 7.99258 19.0951 6.3148C19.186 5.03713 17.5957 0.250688 10.5269 0.0067554C5.24476 -0.176194 0.551778 3.3995 0.479961 5.54879C0.331931 9.9723 4.59842 10.3278 4.61014 10.5479C4.62919 10.8975 4.82706 11.2604 7.89464 11.7631C10.9637 12.2659 14.1896 11.8732 14.962 11.6739C15.7344 11.4746 16.3001 11.4047 17.0798 10.4914H17.0813Z" fill="white"/>
</mask>
<g mask="url(#mask0_2190_13218)">
<path d="M7.96792 6.22852C7.9093 6.24637 5.30046 4.70989 3.43323 4.76641L1.97491 8.28708C1.97491 8.28708 7.89757 11.6203 9.18734 12.5529L10.4068 10.359L7.96792 6.22852Z" fill="#C6E17D"/>
<path d="M7.95265 8.67698C8.14977 7.94223 7.72264 7.18443 6.99863 6.98439C6.27462 6.78434 5.5279 7.21781 5.33079 7.95257C5.13367 8.68732 5.5608 9.44512 6.28481 9.64517C7.00882 9.84521 7.75554 9.41174 7.95265 8.67698Z" fill="#7EA343"/>
<path d="M8.63337 12.6392C8.54836 12.6362 8.46629 12.608 8.39447 12.5574C7.14721 11.656 1.81813 8.70356 1.78149 8.68423C1.57484 8.58011 1.48397 8.33172 1.57337 8.11604L3.03169 4.59538C3.09764 4.43623 3.25007 4.32914 3.42008 4.32467C5.06307 4.27559 7.12669 5.31825 7.90495 5.71093C7.97676 5.74662 8.05591 5.78678 8.09255 5.80463C8.21859 5.8433 10.0037 7.05404 10.0536 7.18642L11.4796 11.0001C11.5632 11.2232 11.4577 11.4731 11.2422 11.5653L8.81804 12.605C8.75942 12.6303 8.69493 12.6422 8.63337 12.6392ZM2.5363 8.07737C3.45526 8.54739 7.52534 10.9034 8.69786 11.6947L10.5138 10.9153L9.3017 7.6728C9.26946 7.65644 9.23282 7.63859 9.19325 7.61777C8.58061 7.30839 5.50862 4.91071 3.72054 5.21265L2.53483 8.07588L2.5363 8.07737Z" fill="#7EA343"/>
<path d="M11.2936 9.71352L14.1252 5.61426L17.9989 7.08827L15.5938 11.6248L11.2936 9.71352Z" fill="#C6E17D"/>
<path d="M14.8638 9.78361C15.4976 9.78361 16.0114 9.26218 16.0114 8.61898C16.0114 7.97577 15.4976 7.45435 14.8638 7.45435C14.23 7.45435 13.7162 7.97577 13.7162 8.61898C13.7162 9.26218 14.23 9.78361 14.8638 9.78361Z" fill="#7EA343"/>
<path d="M15.5776 12.068C15.5233 12.0665 15.4691 12.0546 15.4178 12.0309L11.1191 10.1195C10.9989 10.066 10.9095 9.96188 10.8743 9.83397C10.8391 9.70605 10.8626 9.56921 10.9373 9.46063L13.769 5.36137C13.8833 5.19627 14.0929 5.12934 14.279 5.20073L18.1527 6.67474C18.2699 6.71936 18.3637 6.81456 18.4077 6.93355C18.4517 7.05254 18.4429 7.1864 18.3828 7.29945L15.9777 11.836C15.8971 11.9877 15.7402 12.074 15.579 12.0695L15.5776 12.068ZM11.956 9.52459L15.3987 11.0551L17.3759 7.32473L14.2863 6.14969L11.9545 9.52608L11.956 9.52459Z" fill="#7EA343"/>
<path d="M9.10518 1.03467L13.9506 1.56121L13.0258 9.43845L8.07483 8.83308L9.10518 1.03467Z" fill="#C6E17D"/>
<path d="M11.2114 5.51154C11.9618 5.51154 12.5701 4.89422 12.5701 4.13272C12.5701 3.37122 11.9618 2.75391 11.2114 2.75391C10.4611 2.75391 9.85278 3.37122 9.85278 4.13272C9.85278 4.89422 10.4611 5.51154 11.2114 5.51154Z" fill="#7EA343"/>
<path d="M13.0112 9.88158C12.9995 9.88158 12.9863 9.88158 12.9745 9.87861L8.02361 9.27324C7.90782 9.25836 7.8023 9.19887 7.73048 9.10516C7.65866 9.01145 7.62789 8.89246 7.64254 8.77496L8.67289 0.976545C8.70367 0.738562 8.91618 0.570486 9.15215 0.594285L13.9976 1.11934C14.1134 1.13123 14.2203 1.19073 14.2922 1.28444C14.3654 1.37665 14.3977 1.49565 14.3845 1.61315L13.4597 9.4904C13.4465 9.60641 13.3864 9.71351 13.2955 9.78639C13.2149 9.85183 13.1138 9.88455 13.0112 9.88009V9.88158ZM8.5659 8.44773L12.6433 8.94601L13.4641 1.95376L9.48046 1.52093L8.5659 8.44773Z" fill="#7EA343"/>
<path d="M14.2072 11.5712C14.2072 11.5712 11.4167 6.78478 9.44098 5.45505C9.26656 5.33755 6.64453 7.03466 6.64453 7.03466C6.64453 7.03466 8.22303 10.4973 9.21673 12.1483L14.2072 11.5727V11.5712Z" fill="#C6E17D"/>
<path d="M10.2223 10.4603C10.9727 10.4603 11.5809 9.84295 11.5809 9.08145C11.5809 8.31995 10.9727 7.70264 10.2223 7.70264C9.47194 7.70264 8.86365 8.31995 8.86365 9.08145C8.86365 9.84295 9.47194 10.4603 10.2223 10.4603Z" fill="#7EA343"/>
<path d="M9.52741 12.7939C9.38377 12.776 9.2548 12.6868 9.18884 12.5529C8.35489 10.8662 5.92632 7.01979 5.90581 6.98707C5.83692 6.87998 5.81787 6.74909 5.85158 6.62563C5.88529 6.50367 5.97029 6.40104 6.08315 6.346C9.90847 4.48081 10.0433 4.5879 10.2881 4.78424C12.2037 6.32072 14.8946 11.8003 14.9943 12.0085C15.0587 12.1439 15.0514 12.303 14.9752 12.4309C14.899 12.5589 14.7627 12.6392 14.6147 12.6436L9.59336 12.7953C9.57138 12.7953 9.55086 12.7953 9.52887 12.7924L9.52741 12.7939ZM6.90684 6.92906C7.47258 7.82745 9.0672 10.3099 9.78829 11.7051L13.8481 11.5816C13.1769 10.2623 11.2451 6.80858 9.88795 5.60082C9.43654 5.74956 8.1497 6.33262 6.90684 6.92906Z" fill="#7EA343"/>
</g>
</svg>
