<?xml version="1.0" encoding="UTF-8" standalone="no"?>
<svg
   xmlns:dc="http://purl.org/dc/elements/1.1/"
   xmlns:cc="http://creativecommons.org/ns#"
   xmlns:rdf="http://www.w3.org/1999/02/22-rdf-syntax-ns#"
   xmlns:svg="http://www.w3.org/2000/svg"
   xmlns="http://www.w3.org/2000/svg"
   version="1.1"
   id="svg2"
   xml:space="preserve"
   width="33.825848"
   height="27.710938"
   viewBox="0 0 33.825848 27.710938"><metadata
     id="metadata8"><rdf:RDF><cc:Work
         rdf:about=""><dc:format>image/svg+xml</dc:format><dc:type
           rdf:resource="http://purl.org/dc/dcmitype/StillImage" /></cc:Work></rdf:RDF></metadata><defs
     id="defs6" /><g
     id="g10"
     transform="matrix(1.3333333,0,0,-1.3333333,0,27.710937)"><g
       id="g12"><g
         id="g14"
         transform="translate(0.199951,4.805054)"><path
           d="M 3.173076,3.357978 3.057921,3.521512 3.056334,3.52037 Z M 5.69859,5.13635 5.611357,5.316323 5.596731,5.309234 5.583442,5.299876 Z M 7.826386,5.301118 7.7679,5.10986 7.768357,5.109722 Z m 8.19869,-2.485741 0.05804,0.191394 -8e-6,2e-6 -0.05803,-0.191396 z m 0.338062,-1.017025 -0.161085,0.118574 -0.0016,-0.00227 0.162708,-0.116304 z m -0.56817,-0.26704 0.01428,0.199496 -0.0017,1.05e-4 -0.01262,-0.199601 z m -5.167506,0.326698 -0.01297,-0.19958 3.48e-4,-2.2e-5 0.01262,0.199602 z m -0.06534,-1.005661 -0.01297,-0.199579 4.58e-4,-3e-5 0.01251,0.199609 z m 5.167506,-0.323857 -0.01254,-0.199999 h 0.01254 z m 0.105111,0 V 0.328493 h 5.1e-5 z m 1.553943,2.249953 0.187062,0.070769 -1.36e-4,3.56e-4 z m -1.070999,1.00282 0.0587,0.191195 -7.27e-4,2.2e-4 -0.05797,-0.191415 z M 8.118994,6.264166 8.060692,6.072852 8.061026,6.072751 Z M 5.218487,6.022695 5.129352,6.201734 5.121751,6.197949 5.114498,6.193534 Z M 5.153147,5.982923 5.048925,6.154146 5.037965,6.146425 Z M 2.673086,4.2358 2.719761,4.041323 2.756979,4.050255 2.788268,4.072298 Z M 0.400407,3.690358 0.441165,3.49446 0.447082,3.49588 Z M 0.624834,2.710265 0.578298,2.904786 0.576307,2.904288 Z m 2.37495,0.56817 0.046534,-0.194512 4.94e-4,1.19e-4 z M 3.288224,3.194452 5.813739,4.972824 5.583442,5.299876 3.057927,3.521504 Z m 2.4976,1.761925 C 6.403492,5.255762 7.111504,5.310587 7.7679,5.109861 L 7.884872,5.492376 C 7.131962,5.722616 6.319846,5.659729 5.611357,5.316323 Z m 1.982533,0.153345 8.19869,-2.485741 0.116058,0.382792 -8.19869,2.485742 z M 15.967038,2.623983 C 16.036896,2.602799 16.100653,2.565161 16.15295,2.51423 l 0.279072,0.286565 c -0.09815,0.095583 -0.217802,0.16622 -0.348909,0.205976 z M 16.15295,2.51423 c 0.0523,-0.050929 0.09161,-0.113667 0.114638,-0.182941 l 0.379579,0.126173 c -0.04322,0.130007 -0.116995,0.247748 -0.215145,0.343333 z m 0.114638,-0.182941 c 0.02303,-0.069273 0.02909,-0.143061 0.01769,-0.215165 l 0.395092,-0.06247 c 0.02139,0.13532 0.01001,0.2738 -0.03321,0.403808 z m 0.01769,-0.215165 C 16.27388,2.044019 16.245344,1.975705 16.20207,1.916915 L 16.524204,1.67979 c 0.08122,0.110333 0.134774,0.238543 0.15617,0.373864 l -0.395092,0.06247 z M 16.20043,1.914656 c -0.04401,-0.06157 -0.10309,-0.110808 -0.171585,-0.143 l 0.170145,-0.36201 c 0.130474,0.061323 0.243019,0.155118 0.326855,0.272403 z m -0.171585,-0.143 C 15.96035,1.739463 15.884739,1.725396 15.809252,1.730801 l -0.02857,-0.398979 c 0.143799,-0.010296 0.287832,0.016501 0.418306,0.077824 l -0.170145,0.36201 z M 15.807587,1.730913 10.640082,2.057611 10.614843,1.658408 15.782349,1.33171 Z M 10.640429,2.057589 C 10.454139,2.069693 10.270671,2.007297 10.130385,1.884128 l 0.26391,-0.300586 c 0.06057,0.053176 0.139774,0.080114 0.2202,0.074889 l 0.02593,0.399158 z M 10.130385,1.884128 C 9.9901,1.76096 9.904488,1.587108 9.892384,1.400817 l 0.399158,-0.025934 c 0.0052,0.080426 0.04219,0.155484 0.102753,0.208659 z M 9.892384,1.400817 C 9.88028,1.214526 9.942676,1.031057 10.065845,0.890771 l 0.300585,0.26391 c -0.05317,0.060565 -0.08011,0.139774 -0.07489,0.220202 z m 0.173461,-0.510046 c 0.123168,-0.140286 0.29702,-0.225897 0.483311,-0.238001 l 0.02593,0.399158 c -0.08043,0.00523 -0.155484,0.042187 -0.20866,0.102753 l -0.300585,-0.26391 z m 0.483769,-0.238031 5.167504,-0.323856 0.02502,0.399217 -5.167504,0.323857 z m 5.180015,-0.324247 h 0.105111 v 0.399999 h -0.105111 z m 0.105162,0 c 0.301264,7.8e-5 0.598011,0.073258 0.864769,0.213261 L 16.513674,0.895938 C 16.304226,0.786013 16.07123,0.728554 15.834687,0.728492 Z m 0.864769,0.213261 c 0.266758,0.140003 0.49556,0.342647 0.666765,0.590536 l -0.32913,0.227316 C 16.902769,1.164972 16.723122,1.005863 16.513674,0.895938 Z m 0.666765,0.590536 c 0.171206,0.247889 0.279704,0.533621 0.31618,0.832669 L 17.285448,2.01339 C 17.256809,1.778587 17.171619,1.55424 17.037195,1.359606 Z m 0.31618,0.832669 c 0.03648,0.29905 -1.61e-4,0.602482 -0.106762,0.884255 L 17.201622,2.707675 c 0.0837,-0.22124 0.112465,-0.459484 0.08383,-0.694285 z M 17.575609,2.84957 C 17.47436,3.115664 17.3137,3.355134 17.105877,3.549728 L 16.832479,3.257744 c 0.16338,-0.152979 0.289681,-0.341236 0.369278,-0.550425 z m -0.469732,0.700158 c -0.207825,0.194594 -0.457329,0.339177 -0.7295,0.422731 L 16.258989,3.590071 C 16.472954,3.524387 16.6691,3.410723 16.832479,3.257744 Z M 16.375652,3.97268 8.176962,6.455581 8.061026,6.072751 16.259716,3.58985 Z M 8.177296,6.45548 C 7.166229,6.763599 6.075551,6.672799 5.129352,6.201734 L 5.307621,5.843655 C 6.16228,6.269147 7.14744,6.351163 8.060692,6.072853 Z M 5.114498,6.193534 5.049158,6.153762 5.257137,5.812083 5.322476,5.851854 Z M 5.037965,6.146425 2.557904,4.399302 2.788268,4.072298 5.26833,5.81942 Z M 2.626412,4.430278 0.353733,3.884835 0.447082,3.49588 2.719761,4.041323 Z M 0.359669,3.886165 C 0.268149,3.867124 0.181348,3.830016 0.104347,3.777018 L 0.331135,3.447522 C 0.364314,3.470359 0.401714,3.486347 0.441146,3.494551 Z M 0.104347,3.777018 C 0.027346,3.724019 -0.03831,3.656191 -0.088776,3.577505 L 0.247923,3.361558 C 0.269667,3.395461 0.297957,3.424686 0.331135,3.447522 Z M -0.088776,3.577505 C -0.139242,3.49882 -0.173505,3.410858 -0.189558,3.318769 L 0.204499,3.250075 c 0.006917,0.039679 0.02168,0.077579 0.043424,0.111483 z M -0.189558,3.318769 C -0.205612,3.226679 -0.203133,3.132312 -0.182268,3.041192 L 0.20764,3.130475 C 0.19865,3.169736 0.197582,3.210397 0.204499,3.250075 Z m 0.00729,-0.277577 C -0.161403,2.950072 -0.122571,2.864029 -0.068043,2.7881 l 0.3249,0.233325 C 0.233363,3.054139 0.216631,3.091213 0.20764,3.130475 Z M -0.068043,2.7881 C -0.013516,2.712173 0.055609,2.647885 0.135287,2.599001 L 0.344466,2.939947 C 0.310135,2.96101 0.280351,2.988709 0.256857,3.021425 Z M 0.135287,2.599001 C 0.214967,2.550115 0.303596,2.517618 0.395986,2.503408 L 0.456794,2.898759 C 0.416982,2.904882 0.378795,2.918885 0.344466,2.939947 Z M 0.395986,2.503408 C 0.488377,2.489198 0.582675,2.49356 0.673361,2.516241 L 0.576307,2.904288 C 0.537234,2.894516 0.496604,2.892636 0.456794,2.898759 Z M 0.671368,2.515754 3.046318,3.083923 2.95325,3.472946 0.578301,2.904776 Z m 2.375444,0.568288 c 0.08744,0.021154 0.169959,0.059031 0.243006,0.111544 L 3.056334,3.52037 C 3.025199,3.497988 2.990027,3.481843 2.952756,3.472827 Z"
           style="fill:#a2004a;fill-opacity:1;fill-rule:nonzero;stroke:none"
           id="path16" /></g><g
         id="g18"
         transform="translate(0.199951,4.805054)"><path
           d="M 3.173076,3.357978 5.69859,5.13635 c 0.663079,0.321396 1.423143,0.380252 2.127796,0.164768 l 8.19869,-2.485741 c 0.100483,-0.03047 0.192186,-0.084607 0.26741,-0.157865 0.07522,-0.073257 0.131771,-0.163496 0.164892,-0.263137 0.03312,-0.09964 0.04185,-0.205774 0.02545,-0.309486 -0.0164,-0.103713 -0.05745,-0.201975 -0.11969,-0.286537 C 16.299215,1.708925 16.213402,1.637408 16.113916,1.590651 16.014433,1.543893 15.904611,1.523461 15.794968,1.531312 L 10.627462,1.85801 C 10.494103,1.866674 10.362765,1.822008 10.26234,1.733835 10.161914,1.645663 10.100628,1.521209 10.091963,1.38785 c -0.0087,-0.133359 0.036,-0.264698 0.124175,-0.365124 0.08817,-0.100426 0.212626,-0.161713 0.345985,-0.170377 l 5.167506,-0.323857 h 0.105111 c 0.268903,7.1e-5 0.533773,0.06539 0.771877,0.190354 0.238104,0.124964 0.442327,0.305841 0.595142,0.527102 0.152817,0.221261 0.249661,0.476301 0.282217,0.743226 0.03256,0.266926 -1.43e-4,0.537764 -0.09529,0.789271 -0.09042,0.237641 -0.233904,0.451504 -0.419506,0.625291 -0.1856,0.173787 -0.408426,0.30291 -0.651493,0.377529 L 8.118994,6.264166 C 7.156835,6.557381 6.118915,6.470973 5.218487,6.022695 L 5.153147,5.982923 2.673086,4.2358 0.400407,3.690358 C 0.334931,3.676735 0.272831,3.650187 0.217741,3.61227 0.162651,3.574352 0.115679,3.525826 0.079573,3.469532 0.043468,3.413237 0.018955,3.350306 0.00747,3.284422 -0.004015,3.218538 -0.002242,3.151024 0.012686,3.085833 0.027614,3.020643 0.055396,2.959084 0.094407,2.904763 0.133417,2.850441 0.182872,2.804447 0.239876,2.769474 0.296881,2.7345 0.360289,2.711251 0.42639,2.701084 0.49249,2.690917 0.559955,2.694038 0.624834,2.710265 l 2.37495,0.56817 C 3.062139,3.29352 3.120985,3.320531 3.173076,3.357978 Z"
           style="fill:#a2004a;fill-opacity:1;fill-rule:nonzero;stroke:none"
           id="path20" /></g></g><g
       id="g22"><g
         id="g24"
         transform="translate(0.509521,-0.275635)"><path
           d="m 24.459042,8.535265 -0.179043,-0.089129 1.1e-5,-2.5e-5 z m -2.343701,0.960207 -0.06504,0.189129 -8.4e-5,-3e-5 0.06513,-0.189099 z m -5.221479,-1.798258 0.06376,-0.189571 0.0014,4.71e-4 -0.06512,0.1891 z m -0.312495,-0.639191 0.188834,0.065896 -7.7e-5,2.2e-4 z m 0.639191,-0.312493 0.06398,-0.189495 0.0011,3.84e-4 -0.06509,0.189111 z M 22.44488,8.543788 22.3826,8.733867 22.3798,8.732899 22.44489,8.543788 Z m 0.730098,-1.661896 0.09507,-0.175988 0.0028,0.00156 -0.09785,0.174428 z m -9.50264,-5.133414 -0.09506,0.175966 -5.34e-4,-2.91e-4 0.09559,-0.175675 z m -1.823825,-0.116476 -0.07307,-0.186175 5.98e-4,-2.33e-4 0.07247,0.186408 z M 2.820295,5.00409 2.823809,5.204372 2.812628,5.203943 Z M 2.624277,4.958636 2.543205,5.141469 2.542332,5.141078 Z M 0.277736,3.904681 0.195719,4.087284 0.188205,4.083522 Z M 0.686818,2.987086 0.760075,2.800761 0.768418,2.80449 Z M 2.879953,3.96718 2.938513,4.158415 2.866813,4.180371 2.798352,4.149776 Z m 8.60209,-3.269817 0.0737,0.185928 -7.81e-4,3.05e-4 z m 2.667557,0.161928 -0.0951,0.175944 -5.46e-4,-2.97e-4 0.09564,-0.175647 z m 9.502641,5.136255 -0.09476,0.176129 -3.42e-4,-1.85e-4 0.0951,-0.175944 z m 0.985842,2.628847 C 24.408792,9.084992 24.01985,9.44651 23.543743,9.64157 L 23.392097,9.27143 c 0.386294,-0.158263 0.701865,-0.451583 0.887902,-0.825294 z m -1.09434,1.017177 c -0.476107,0.195059 -1.006895,0.210353 -1.493444,0.043031 l 0.130083,-0.378258 c 0.394764,0.135758 0.825424,0.123349 1.211715,-0.034913 z m -1.493528,0.043001 -5.22148,-1.798258 0.130251,-0.378199 5.22148,1.798258 z M 16.830105,7.88678 C 16.742283,7.857243 16.661194,7.810565 16.591547,7.749447 l 0.263832,-0.300655 c 0.02984,0.02619 0.0646,0.046196 0.102238,0.058856 z M 16.591547,7.749447 C 16.521898,7.688329 16.465082,7.613992 16.424385,7.530751 l 0.359354,-0.175684 c 0.01744,0.035677 0.04179,0.067536 0.07164,0.093725 z M 16.424385,7.530751 c -0.0407,-0.083244 -0.06446,-0.173739 -0.06991,-0.266236 l 0.399306,-0.023546 c 0.0023,0.039642 0.01252,0.078424 0.02996,0.114098 l -0.359354,0.175684 z m -0.06991,-0.266236 c -0.0055,-0.0925 0.0075,-0.18516 0.03814,-0.272608 l 0.377512,0.132232 c -0.01313,0.037479 -0.01868,0.07719 -0.01635,0.11683 l -0.399306,0.023546 z m 0.03806,-0.272388 c 0.06125,-0.175534 0.189305,-0.319803 0.356329,-0.401459 l 0.175684,0.359353 C 16.852198,6.985392 16.796733,7.047883 16.7702,7.123919 Z m 0.356329,-0.401459 c 0.167023,-0.081657 0.359524,-0.0941 0.535671,-0.03463 l -0.127954,0.378983 c -0.0763,-0.02576 -0.159685,-0.02037 -0.232033,0.015 z m 0.536787,-0.034249 5.224322,1.798258 -0.130188,0.378222 -5.22432,-1.798258 z m 5.221501,1.797311 c 0.168047,0.055061 0.350568,0.045608 0.512029,-0.026518 l 0.163147,0.365217 c -0.252178,0.11265 -0.537256,0.127415 -0.799722,0.041417 z m 0.51203,-0.026518 C 23.180643,8.255086 23.309481,8.12545 23.380606,7.963548 l 0.366218,0.160886 c -0.111089,0.25287 -0.312317,0.455344 -0.564495,0.567995 z m 0.361424,-0.363664 c 0.07113,-0.161903 0.07945,-0.344482 0.02335,-0.512185 l 0.379338,-0.126894 c 0.08762,0.26193 0.07462,0.547094 -0.03647,0.799965 z m 0.02335,-0.512185 C 23.347858,7.283659 23.231354,7.142838 23.077127,7.05632 l 0.195702,-0.348856 c 0.240883,0.13513 0.42285,0.355075 0.510468,0.617005 L 23.403959,7.451363 Z M 23.07992,7.057858 13.577279,1.924444 13.767396,1.572513 23.270037,6.705926 Z M 13.576744,1.924153 C 13.325045,1.787192 13.046502,1.706775 12.760535,1.688513 l 0.02549,-0.399187 c 0.34402,0.02197 0.679108,0.118712 0.981902,0.283477 L 13.57674,1.924153 Z M 12.760535,1.688513 C 12.474568,1.67025 12.188059,1.71458 11.920982,1.81841 L 11.776043,1.445594 c 0.321294,-0.124909 0.665966,-0.178238 1.009986,-0.156268 l -0.02549,0.399187 z M 11.92158,1.818177 C 7.621894,3.505665 5.403149,4.348837 4.238513,4.770627 3.088311,5.187188 2.94553,5.201924 2.823803,5.20406 L 2.816787,4.804121 C 2.856988,4.803416 2.928691,4.819572 4.102304,4.394532 5.261483,3.974719 7.475882,3.133267 11.775445,1.445827 Z M 2.812628,5.203943 C 2.719671,5.200377 2.628241,5.179174 2.543205,5.141468 L 2.705348,4.775804 C 2.744051,4.792966 2.785661,4.802615 2.827962,4.804237 Z M 2.542332,5.141078 0.195791,4.087123 0.35968,3.722239 2.706221,4.776194 Z M 0.188205,4.083522 C 0.026392,4.002516 -0.097941,3.862218 -0.158908,3.691842 L 0.217705,3.557075 C 0.243975,3.630486 0.297547,3.690937 0.367267,3.72584 Z M -0.158908,3.691842 C -0.219876,3.521465 -0.212779,3.334139 -0.139096,3.168863 L 0.226242,3.331738 C 0.194494,3.402951 0.191436,3.483665 0.217705,3.557075 Z M -0.139096,3.168863 C -0.065412,3.003588 0.069179,2.873101 0.236656,2.804569 L 0.388143,3.174774 C 0.315982,3.204302 0.25799,3.260526 0.226242,3.331738 Z M 0.236656,2.804569 C 0.404133,2.736038 0.59159,2.734742 0.759999,2.800955 L 0.613637,3.173216 C 0.541076,3.144688 0.460306,3.145246 0.388143,3.174774 Z M 0.768418,2.80449 2.961554,3.784584 2.798352,4.149776 0.605217,3.169682 Z M 2.821393,3.775945 C 3.40587,3.596967 5.905044,2.666136 11.409127,0.511128 l 0.145832,0.372468 C 6.059275,3.035316 3.54151,3.973765 2.938513,4.158415 Z M 11.408346,0.511436 C 11.86493,0.330458 12.35572,0.252072 12.845961,0.281832 l -0.02424,0.399264 C 12.390011,0.65489 11.957814,0.723917 11.555739,0.883289 Z m 1.437615,-0.229604 c 0.490241,0.029758 0.967944,0.166934 1.399284,0.401811 l -0.19129,0.351295 C 13.67411,0.828101 13.253437,0.707303 12.821724,0.681096 l 0.02424,-0.399264 z m 1.398738,0.401515 9.50264,5.136255 -0.190197,0.351888 -9.502641,-5.136256 z m 9.502299,5.136071 c 0.483745,0.260254 0.847242,0.698527 1.013553,1.222057 L 24.379324,7.16258 C 24.244471,6.738076 23.94973,6.382702 23.557484,6.171674 Z m 1.013553,1.222057 c 0.166312,0.523529 0.122385,1.091229 -0.12248,1.582943 L 24.28001,8.446111 C 24.478559,8.047403 24.514177,7.587084 24.37932,7.16258 l 0.381227,-0.121105 z"
           style="fill:#a2004a;fill-opacity:1;fill-rule:nonzero;stroke:none"
           id="path26" /></g><g
         id="g28"
         transform="translate(0.509521,-0.275635)"><path
           d="M 24.459042,8.535265 C 24.251377,8.952419 23.89912,9.279839 23.46792,9.4565 23.036722,9.633161 22.555996,9.647012 22.115341,9.495472 L 16.893862,7.697214 C 16.831129,7.676116 16.773209,7.642774 16.723463,7.59912 16.673716,7.555466 16.633131,7.502368 16.604063,7.442909 16.574993,7.38345 16.55802,7.318811 16.554123,7.252742 c -0.0039,-0.06607 0.0054,-0.132256 0.02724,-0.194719 0.0439,-0.125784 0.135653,-0.229166 0.255339,-0.287678 0.119686,-0.058514 0.25763,-0.067431 0.383852,-0.024815 l 5.224322,1.798258 c 0.215257,0.07053 0.449056,0.058421 0.655876,-0.033968 0.206819,-0.092388 0.371851,-0.258443 0.462959,-0.465829 0.09111,-0.207387 0.101772,-0.441259 0.02991,-0.656075 -0.07186,-0.214817 -0.221096,-0.3952 -0.41865,-0.506024 L 13.672338,1.748478 C 13.39509,1.597615 13.088275,1.509036 12.773282,1.488919 12.458289,1.468802 12.142698,1.517632 11.848513,1.632002 3.249263,5.00693 2.982223,5.001249 2.820295,5.00409 2.752666,5.001496 2.686146,4.98607 2.624277,4.958636 L 0.277736,3.904681 C 0.161969,3.846726 0.073017,3.746352 0.029398,3.624458 -0.01422,3.502565 -0.009142,3.368545 0.043573,3.250301 0.096289,3.132057 0.19258,3.038702 0.3124,2.989672 0.432219,2.940642 0.566333,2.939715 0.686818,2.987086 L 2.879953,3.96718 c 0.593738,-0.181814 3.102207,-1.116454 8.60209,-3.269817 0.429329,-0.170176 0.890822,-0.243881 1.351799,-0.2159 0.460978,0.027983 0.910165,0.15697 1.315758,0.377828 l 9.502641,5.136255 c 0.437996,0.235641 0.767114,0.632465 0.917696,1.106481 0.150583,0.474017 0.110811,0.988027 -0.110895,1.433238 z"
           style="fill:#a2004a;fill-opacity:1;fill-rule:nonzero;stroke:none"
           id="path30" /></g></g><g
       id="g32"><g
         id="g34"
         transform="translate(7.861572,8.656616)"><path
           d="M 0.675923,3.292604 0.642959,3.489875 0.641489,3.489618 Z m 0.411924,0.56817 0.197747,0.03001 -3.45e-4,0.00212 -0.197402,-0.032128 z m -0.082385,1.014183 0.2,1.54e-4 v 1.18e-4 z m 10.934426,-3.590833 -0.160902,0.118792 -5.88e-4,-8.04e-4 z m 0.403402,-0.803959 -0.0019,-0.199996 0.0013,-4e-6 5.96e-4,0.2 z m 0.4034,0.204541 -0.161123,0.118492 -5.66e-4,-7.79e-4 z M 0.096391,3.704528 0.293776,3.736769 0.29366,3.737465 Z M 0.708887,3.09534 C 0.890206,3.125639 1.05233,3.226049 1.160236,3.374885 L 0.836391,3.609672 C 0.790148,3.545887 0.720668,3.502854 0.64296,3.489869 Z M 1.160236,3.374885 C 1.268141,3.523719 1.313165,3.709029 1.285583,3.890782 L 0.89011,3.830767 C 0.901931,3.752873 0.882635,3.673456 0.836391,3.609672 Z M 1.285249,3.892902 C 1.232396,4.217641 1.205714,4.5461 1.205462,4.875111 l -0.4,-3.07e-4 C 0.805731,4.524371 0.83415,4.174527 0.890444,3.828646 Z M 1.205462,4.875229 C 1.204203,5.802151 1.422866,6.716147 1.843488,7.54214 L 1.487043,7.723653 C 1.037708,6.841275 0.804117,5.864884 0.805462,4.874686 Z M 1.843488,7.54214 C 2.26411,8.368132 2.87469,9.082552 3.625072,9.626715 L 3.390247,9.950531 C 2.58864,9.369222 1.936379,8.606031 1.487043,7.723653 Z m 1.781584,2.084575 c 0.750382,0.544162 1.619156,0.902541 2.534958,1.045697 L 6.098253,11.067613 C 5.119934,10.914684 4.191854,10.531841 3.390247,9.950531 Z m 2.534958,1.045697 c 0.915801,0.143155 1.852501,0.067 2.733153,-0.2222 l 0.124801,0.380033 c -0.940769,0.308946 -1.941412,0.390296 -2.919731,0.237368 z m 2.733153,-0.2222 c 0.880651,-0.289203 1.680129,-0.783206 2.33276,-1.441431 l 0.284047,0.281634 c -0.697183,0.703157 -1.551236,1.230884 -2.492006,1.53983 z m 2.33276,-1.441431 c 0.65263,-0.658224 1.139793,-1.461888 1.42147,-2.344976 l 0.381084,0.121554 C 12.727591,7.72873 12.207172,8.587256 11.50999,9.290415 Z m 1.42147,-2.344976 C 12.92909,5.780717 12.997247,4.843403 12.846281,3.928856 L 13.24094,3.863709 c 0.161271,0.976978 0.08846,1.978279 -0.212443,2.92165 z M 12.846281,3.928856 C 12.695315,3.01431 12.329535,2.148626 11.778988,1.402915 l 0.3218,-0.23758 c 0.588129,0.796616 0.97888,1.721396 1.140152,2.698374 z M 11.778398,1.402112 C 11.70187,1.297367 11.655699,1.173556 11.64495,1.044286 l 0.398624,-0.033145 c 0.0047,0.055999 0.02466,0.109629 0.0578,0.154997 l -0.32298,0.235974 z M 11.64495,1.044286 C 11.6342,0.915013 11.65929,0.785278 11.71747,0.669334 l 0.357517,0.179391 c -0.0252,0.050222 -0.03607,0.106418 -0.03141,0.162416 z m 0.07252,-0.374952 c 0.05818,-0.115943 0.147186,-0.213605 0.257248,-0.28226 l 0.211701,0.339386 c -0.04768,0.029739 -0.08623,0.072043 -0.111432,0.122265 L 11.717469,0.669334 Z m 0.257248,-0.28226 C 12.08478,0.31842 12.211638,0.281431 12.341352,0.280173 l 0.0039,0.399982 C 12.289062,0.680699 12.234115,0.696722 12.18644,0.72646 L 11.974717,0.387074 Z m 0.367977,-0.106909 c 0.110256,-3.28e-4 0.219013,0.025498 0.317349,0.075358 L 12.479151,0.712284 C 12.437235,0.691031 12.39088,0.680023 12.343886,0.680163 l -0.0012,-0.399998 z m 0.317349,0.075358 c 0.09834,0.049861 0.183445,0.122334 0.248337,0.211469 l -0.323379,0.235427 c -0.02766,-0.037992 -0.06394,-0.068882 -0.10585,-0.090135 z m 0.247768,0.210693 c 0.709862,0.965256 1.16977,2.091209 1.338698,3.277417 L 13.850504,3.900027 C 13.690885,2.779181 13.256318,1.715267 12.585569,0.803196 l 0.322242,-0.23698 z m 1.338698,3.277417 c 0.168926,1.186208 0.04162,2.395786 -0.370565,3.520833 L 13.500358,7.226862 C 13.88983,6.163805 14.010122,5.020875 13.850504,3.900027 L 14.246509,3.843633 Z M 13.875944,7.364466 C 13.46376,8.489512 12.779517,9.495045 11.884251,10.291364 L 11.618407,9.992488 c 0.845936,-0.752442 1.492478,-1.702569 1.881951,-2.765626 z m -1.991693,2.926898 c -0.895266,0.79632 -1.973716,1.358664 -3.139145,1.63687 L 8.652228,11.539166 C 9.753444,11.276289 10.77247,10.74493 11.618407,9.992488 Z m -3.139145,1.63687 C 7.579675,12.20644 6.363504,12.191857 5.20508,11.885785 l 0.10218,-0.386729 c 1.094594,0.289207 2.243754,0.302987 3.344968,0.04011 z M 5.20508,11.885785 C 4.046656,11.579713 2.982002,10.99167 2.106089,10.174112 L 2.379023,9.881697 c 0.82765,0.77251 1.833642,1.328151 2.928237,1.617359 z M 2.106089,10.174112 C 1.230175,9.356554 0.57024,8.334903 0.185152,7.200295 L 0.56393,7.071738 C 0.9278,8.143827 1.551373,9.109186 2.379023,9.881697 Z M 0.185152,7.200295 C -0.199935,6.065689 -0.298201,4.853407 -0.100878,3.671591 L 0.29366,3.737465 C 0.10721,4.854163 0.200061,5.999648 0.56393,7.071738 Z M -0.100993,3.672287 C -0.08607,3.580921 -0.053171,3.493421 -0.004198,3.414852 l 0.339455,0.21159 C 0.314271,3.66011 0.300171,3.69761 0.293775,3.736769 Z M -0.004198,3.414852 C 0.044774,3.336286 0.108846,3.268214 0.184304,3.21458 L 0.416043,3.540612 C 0.383703,3.563599 0.356244,3.592772 0.335257,3.626442 Z M 0.184304,3.21458 C 0.259763,3.160945 0.345112,3.12281 0.435411,3.102386 L 0.523658,3.49253 C 0.484961,3.501283 0.448383,3.517626 0.416043,3.540612 Z M 0.435411,3.102386 C 0.52571,3.081961 0.619162,3.079652 0.710357,3.095592 L 0.641489,3.489618 C 0.602405,3.482787 0.562355,3.483776 0.523658,3.49253 Z"
           style="fill:#a2004a;fill-opacity:1;fill-rule:nonzero;stroke:none"
           id="path36" /></g><g
         id="g38"
         transform="translate(7.861572,8.656616)"><path
           d="m 0.675923,3.292604 c 0.129514,0.021642 0.245316,0.093364 0.322391,0.199674 0.077074,0.10631 0.109234,0.238673 0.089533,0.368496 -0.054574,0.33531 -0.082125,0.674461 -0.082385,1.014183 -0.0013,0.95856 0.224825,1.903754 0.659804,2.757939 0.434978,0.854186 1.066399,1.592991 1.842393,2.155727 0.775995,0.562736 1.674422,0.933347 2.621482,1.081389 0.94706,0.148042 1.915732,0.06929 2.826443,-0.229784 0.91071,-0.299074 1.737476,-0.809939 2.412383,-1.49063 0.674906,-0.680691 1.178696,-1.511786 1.469988,-2.425016 0.291292,-0.913229 0.361774,-1.882537 0.205656,-2.828299 -0.15612,-0.945762 -0.534385,-1.840995 -1.103723,-2.612159 -0.05484,-0.075056 -0.08792,-0.163776 -0.09563,-0.256411 -0.0077,-0.092634 0.01028,-0.1856 0.05197,-0.268683 0.04169,-0.083083 0.10547,-0.153066 0.184339,-0.202263 0.07887,-0.049196 0.169773,-0.075701 0.262723,-0.076602 0.07862,-2.35e-4 0.156182,0.018182 0.226306,0.053739 0.07013,0.035556 0.130819,0.087237 0.177094,0.150802 0.690306,0.938664 1.137543,2.033597 1.301816,3.187124 0.164273,1.153528 0.04047,2.329782 -0.360356,3.423834 -0.400827,1.094051 -1.06622,2.071881 -1.936822,2.846262 -0.8706,0.77438 -1.919339,1.321233 -3.052661,1.591774 C 7.565345,12.004242 6.382679,11.99006 5.25617,11.69242 4.129661,11.394781 3.094338,10.822938 2.242556,10.027905 1.390774,9.23287 0.74902,8.239365 0.374541,7.136017 6.3e-5,6.032668 -0.095495,4.853785 0.096391,3.704528 0.107051,3.639265 0.13055,3.576765 0.16553,3.520647 0.200509,3.464529 0.246274,3.415907 0.300174,3.377596 0.354073,3.339285 0.415036,3.312046 0.479534,3.297458 0.544033,3.282868 0.610783,3.281219 0.675923,3.292604 Z"
           style="fill:#a2004a;fill-opacity:1;fill-rule:nonzero;stroke:none"
           id="path40" /></g></g><g
       id="g42"><g
         id="g44"
         transform="translate(11.718262,10.699341)"><path
           d="m 1.036604,2.124932 h 0.2 v 0.2 h -0.2 z m 0.088635,-0.4159 0.177443,0.09227 v 0 z M 1.357052,1.429492 1.235675,1.270185 1.244384,1.264247 Z M 1.704772,1.272677 1.651558,1.079778 1.657844,1.078261 Z M 2.420666,1.245405 2.445493,1.046784 2.453545,1.048127 Z M 2.727477,1.340858 2.641491,1.52143 h -10e-7 z m 0.238632,0.184087 0.154446,-0.127191 0.00342,0.0044 -0.15787,0.122789 z M 2.932019,2.152204 2.790545,2.010731 2.79447,2.007014 Z M 2.604753,2.356745 2.679031,2.542441 v 0 z M 2.141126,2.499924 2.187219,2.69454 v 0 z M 1.616137,2.636285 1.670453,2.828861 1.664644,2.830313 Z M 1.08433,2.799918 1.010878,2.613837 1.015189,2.612249 Z M 0.620704,3.059003 0.499017,2.900282 v 0 z M 0.28662,3.447631 0.108656,3.356107 0.112031,3.350067 Z M 0.32071,4.66806 0.148102,4.769098 0.147329,4.767754 Z M 0.743428,5.131686 0.627587,5.294722 v 0 z M 1.32978,5.404408 1.277497,5.597453 h -1e-6 z m 1.384061,0 L 2.664428,5.210555 2.668868,5.209525 2.71384,5.404404 Z M 3.341101,5.131686 3.226408,4.96784 v 0 z M 3.770637,4.640788 3.593325,4.548102 3.595995,4.543312 3.770635,4.640786 Z M 3.93427,3.924894 v -0.2 h 0.2 v 0.2 z m -1.036342,0 -0.19961,-0.012476 0.01172,-0.187524 h 0.18789 z M 2.802476,4.28625 2.62519,4.193386 2.628827,4.187022 Z M 2.597935,4.511245 2.491136,4.342147 v 0 z M 2.297941,4.627151 2.257149,4.431349 2.258718,4.431036 Z M 1.438868,4.538517 1.332823,4.70819 1.327923,4.70493 1.438863,4.53852 Z M 1.268417,4.368066 1.102007,4.479006 v 0 z M 1.254781,3.877167 1.084449,3.772348 h 10e-7 z M 1.46614,3.713535 1.379838,3.533084 1.382809,3.531722 Z M 1.909313,3.563538 1.857486,3.370366 1.858641,3.370063 Z M 2.652479,3.372633 2.603227,3.178522 2.613256,3.176517 Z M 3.027471,3.270362 2.967472,3.079456 2.973942,3.077656 3.027471,3.270359 Z M 3.511552,3.045367 3.621387,3.212508 v 0 z M 3.920634,2.622648 3.752182,2.514667 3.755573,2.509712 Z M 3.96836,1.33404 3.786139,1.416473 v 0 z M 3.579732,0.836323 3.705693,0.680971 3.706157,0.68135 Z M 2.945655,0.515875 2.887558,0.707254 2.886593,0.706956 Z M 1.288871,0.502239 1.340623,0.695444 1.338207,0.696058 Z M 0.620704,0.809051 0.501926,0.648126 0.503743,0.646815 Z M 0.163895,1.347676 -0.013488,1.255289 v 0 z M 2.62e-4,2.124932 v 0.2 H -0.19673 l -0.002985,-0.19697 z m 6.091331,3.36811 v 0.2 H 5.952623 L 5.904152,5.562799 Z m 0.777256,0 0.187359,-0.069977 0.100835,0.269977 H 6.868849 Z M 4.966617,0.399969 v -0.2 h 0.138795 l 0.048563,0.130022 z m -0.770439,0 L 4.008738,0.469726 3.908346,0.199969 H 4.196178 Z M 0.836604,2.124932 c 0,-0.187081 0.03374,-0.359226 0.111191,-0.508171 L 1.302682,1.801302 C 1.261954,1.879626 1.236604,1.984747 1.236604,2.124932 Z M 0.947795,1.616761 C 1.019545,1.47878 1.115395,1.362176 1.235843,1.270406 L 1.47826,1.588578 C 1.407804,1.64226 1.349111,1.712016 1.302682,1.801302 Z M 1.244384,1.264247 C 1.364751,1.182178 1.501281,1.121342 1.651586,1.079879 L 1.757957,1.465476 C 1.644631,1.496738 1.549348,1.540445 1.469719,1.594738 Z m 0.41346,-0.185986 c 0.147772,-0.035669 0.299914,-0.05331 0.45601,-0.05331 v 0.4 c -0.125717,0 -0.246296,0.014177 -0.362154,0.042143 z m 0.45601,-0.05331 c 0.104877,0 0.215506,0.00748 0.331618,0.021999 L 2.395859,1.443861 C 2.293794,1.431103 2.199882,1.424951 2.113854,1.424951 Z M 2.453545,1.048127 C 2.580178,1.069232 2.700414,1.106452 2.813464,1.160285 L 2.64149,1.52143 C 2.563636,1.484356 2.47933,1.457942 2.387786,1.442684 Z m 0.359919,0.112158 c 0.120371,0.05732 0.223742,0.136382 0.307031,0.237518 L 2.811723,1.652086 C 2.767741,1.59868 2.712025,1.555017 2.641491,1.52143 Z m 0.310515,0.241871 c 0.095732,0.123084 0.137582,0.270891 0.137582,0.4296 h -0.4 c 0,-0.08674 -0.021784,-0.143474 -0.053323,-0.184023 z m 0.137582,0.4296 c 0,0.180173 -0.061238,0.341765 -0.191994,0.465639 L 2.79447,2.007014 C 2.836438,1.967254 2.861561,1.915215 2.861561,1.831756 Z M 3.07344,2.293625 C 2.968062,2.399003 2.83402,2.480445 2.679031,2.542441 L 2.530474,2.17105 C 2.648207,2.123957 2.732342,2.069038 2.790597,2.010782 Z M 2.679031,2.542441 C 2.531852,2.601312 2.367638,2.651809 2.187219,2.69454 L 2.095033,2.305308 C 2.260062,2.266222 2.404932,2.221267 2.530474,2.17105 Z M 2.187219,2.69454 C 2.017344,2.734774 1.845082,2.779514 1.670429,2.828775 L 1.561845,2.443795 C 1.74173,2.393058 1.919461,2.346891 2.095033,2.305308 Z M 1.664644,2.830313 C 1.489691,2.874052 1.319315,2.926486 1.153471,2.987586 L 1.015189,2.612249 C 1.194792,2.546079 1.378955,2.489425 1.56763,2.442256 Z M 1.157763,2.985949 C 1.000928,3.047858 0.862875,3.125353 0.74239,3.217724 L 0.499017,2.900282 C 0.651254,2.783567 0.822285,2.688339 1.010897,2.613887 Z M 0.74239,3.217724 C 0.628305,3.30519 0.534697,3.41369 0.461208,3.545195 L 0.112031,3.350067 C 0.211266,3.172488 0.340381,3.021903 0.499017,2.900282 Z M 0.464477,3.539101 C 0.400345,3.663802 0.363895,3.8218 0.363895,4.020347 h -0.4 c 0,-0.246899 0.045366,-0.470711 0.144867,-0.664186 z M 0.363895,4.020347 c 0,0.221742 0.046169,0.401885 0.130196,0.548018 L 0.147329,4.767754 C 0.022269,4.55026 -0.036105,4.298593 -0.036105,4.020347 Z M 0.493313,4.567024 C 0.588369,4.729411 0.710096,4.862659 0.85927,4.96865 L 0.627587,5.294722 C 0.431313,5.155265 0.271228,4.979427 0.148107,4.769095 Z M 0.85927,4.96865 C 1.011492,5.076808 1.185144,5.158031 1.382063,5.211362 L 1.277496,5.597453 C 1.03806,5.532606 0.820812,5.432014 0.627587,5.294722 Z m 0.522793,0.242712 c 0.201749,0.054641 0.402357,0.08168 0.602248,0.08168 v 0.4 c -0.236463,0 -0.472209,-0.03205 -0.706814,-0.095589 z m 0.602248,0.08168 c 0.238942,0 0.465458,-0.027717 0.68013,-0.082437 L 2.763242,5.598211 C 2.514287,5.66167 2.25445,5.693042 1.984311,5.693042 Z M 2.668869,5.209529 C 2.882548,5.160219 3.067506,5.079072 3.226408,4.96784 L 3.455793,5.295533 C 3.251067,5.438841 3.017852,5.539508 2.758813,5.599286 Z M 3.226408,4.96784 C 3.381513,4.859267 3.503434,4.72023 3.593392,4.548137 l 0.35449,0.185301 C 3.828753,4.961337 3.664317,5.149566 3.455793,5.295533 Z M 3.595997,4.543314 C 3.684681,4.384423 3.73427,4.181271 3.73427,3.924894 h 0.4 c 0,0.307247 -0.0595,0.581357 -0.188994,0.813367 z M 3.93427,4.124894 H 2.897928 v -0.4 H 3.93427 Z M 3.097539,3.93737 C 3.087135,4.103834 3.04995,4.256283 2.976124,4.385478 L 2.628827,4.187022 C 2.66409,4.125312 2.69054,4.036857 2.698318,3.912418 Z M 2.979642,4.379051 C 2.914243,4.503905 2.822511,4.605957 2.704733,4.680343 L 2.491136,4.342147 C 2.546082,4.307444 2.590711,4.2595 2.625309,4.193448 Z M 2.704733,4.680343 C 2.595099,4.749585 2.471588,4.796383 2.337164,4.823267 L 2.258718,4.431036 C 2.351562,4.412467 2.428047,4.381993 2.491136,4.342147 Z M 2.338732,4.822948 C 2.214054,4.848922 2.079693,4.861242 1.936585,4.861242 v -0.4 c 0.120522,0 0.227065,-0.010407 0.320565,-0.029887 z M 1.936585,4.861242 c -0.100509,0 -0.200675,-0.010591 -0.300288,-0.031563 L 1.718702,4.43826 C 1.791813,4.453651 1.86437,4.461242 1.936585,4.461242 Z M 1.636297,4.829679 C 1.52765,4.806806 1.426074,4.76637 1.332868,4.708117 l 0.212,-0.3392 C 1.597114,4.401571 1.654625,4.42477 1.718702,4.43826 Z M 1.327928,4.704927 C 1.237777,4.644826 1.162108,4.569157 1.102007,4.479006 l 0.33282,-0.22188 C 1.465634,4.303336 1.503598,4.3413 1.549808,4.372107 Z M 1.102007,4.479006 C 1.029327,4.369986 1.000237,4.242173 1.000237,4.108981 h 0.4 c 0,0.075894 0.016363,0.120804 0.03459,0.148145 z M 1.000237,4.108981 c 0,-0.119091 0.022469,-0.2363 0.084212,-0.336633 L 1.425113,3.981987 C 1.41413,3.999834 1.400237,4.037166 1.400237,4.108981 Z M 1.08445,3.772348 C 1.150371,3.665226 1.261419,3.589748 1.379849,3.533108 L 1.552431,3.893961 C 1.461775,3.937319 1.431917,3.97093 1.425113,3.981987 Z M 1.382809,3.531722 C 1.506272,3.475135 1.665977,3.42175 1.857487,3.370369 L 1.961138,3.756706 C 1.779929,3.805324 1.644186,3.851937 1.549471,3.895348 Z M 1.858641,3.370063 C 2.05024,3.319882 2.298509,3.256108 2.603291,3.178776 L 2.701666,3.56649 C 2.397371,3.643699 2.150195,3.707195 1.959985,3.757012 Z M 2.613256,3.176517 C 2.693724,3.160423 2.810779,3.12882 2.967506,3.079563 l 0.11993,0.381598 C 2.925988,3.511902 2.793048,3.54848 2.691702,3.568749 Z M 2.973942,3.077659 C 3.11534,3.038381 3.257889,2.97274 3.401716,2.878226 L 3.621387,3.212508 C 3.447039,3.32708 3.266867,3.411436 3.081,3.463066 Z M 3.401716,2.878226 C 3.534971,2.790658 3.652151,2.670883 3.752258,2.514715 L 4.08901,2.730582 C 3.961849,2.928952 3.806307,3.090989 3.621387,3.212508 Z M 3.755573,2.509712 C 3.845001,2.379009 3.897902,2.198999 3.897902,1.954481 h 0.400001 c 0,0.300925 -0.065278,0.56636 -0.212207,0.781104 z M 3.897902,1.954481 c 0,-0.196116 -0.037848,-0.374616 -0.111763,-0.538008 L 4.150582,1.251606 C 4.24939,1.470024 4.297903,1.705153 4.297903,1.954481 Z M 3.786139,1.416473 C 3.713327,1.255522 3.603642,1.113938 3.453307,0.991296 L 3.706157,0.68135 C 3.901269,0.84052 4.050669,1.030747 4.150582,1.251606 Z M 3.453772,0.991674 C 3.309693,0.874854 3.122848,0.778678 2.887558,0.707251 L 3.003751,0.324499 c 0.27379,0.083115 0.509663,0.200572 0.701941,0.356473 z M 2.886593,0.706956 C 2.660055,0.636935 2.389832,0.599969 2.072946,0.599969 v -0.4 c 0.346736,0 0.658319,0.040304 0.93177,0.124826 z M 2.072946,0.599969 c -0.251016,0 -0.494964,0.03188 -0.732327,0.09546 L 1.237124,0.30905 C 1.508841,0.236268 1.787609,0.199969 2.072946,0.199969 Z M 1.338207,0.696058 C 1.110803,0.753943 0.911352,0.846069 0.737664,0.971286 L 0.503743,0.646815 C 0.720956,0.49022 0.96695,0.377805 1.239536,0.30842 Z M 0.739474,0.969965 C 0.57398,1.092116 0.441379,1.247869 0.341278,1.440063 L -0.013488,1.255289 C 0.11368,1.011128 0.285617,0.807797 0.501933,0.648136 Z M 0.341278,1.440063 C 0.245997,1.623002 0.196087,1.847876 0.200239,2.121902 l -0.399954,0.00606 C -0.204654,1.802 -0.145475,1.508704 -0.013488,1.255289 Z M 2.62e-4,1.924932 h 1.036342 v 0.4 H 2.62e-4 Z m 6.091331,3.36811 h 0.777256 v 0.4 H 6.091593 Z M 6.681491,5.563019 4.779258,0.469946 5.153975,0.329991 7.056208,5.423065 Z M 4.966617,0.599969 H 4.196178 v -0.4 H 4.966617 Z M 4.383619,0.330212 6.279034,5.423285 5.904152,5.562799 4.008738,0.469726 Z"
           style="fill:#a2004a;fill-opacity:1;fill-rule:nonzero;stroke:none"
           id="path46" /></g><g
         id="g48"
         transform="translate(11.718262,10.699341)"><path
           d="m 1.036604,2.124932 c 0,-0.163633 0.029545,-0.302266 0.088635,-0.4159 C 1.184328,1.595398 1.261599,1.502218 1.357052,1.429492 1.45705,1.361312 1.572956,1.30904 1.704772,1.272677 1.836587,1.24086 1.972948,1.224951 2.113854,1.224951 c 0.095452,0 0.197723,0.00682 0.306812,0.020454 0.109088,0.018182 0.211359,0.049999 0.306811,0.095453 0.095453,0.045453 0.174997,0.106815 0.238632,0.184087 0.063635,0.081816 0.095452,0.184087 0.095452,0.306811 0,0.131816 -0.043181,0.238632 -0.129542,0.320448 C 2.850202,2.23402 2.741113,2.302201 2.604753,2.356745 2.468392,2.41129 2.31385,2.459016 2.141126,2.499924 1.968403,2.540832 1.793406,2.586286 1.616137,2.636285 1.434323,2.681738 1.257054,2.736283 1.08433,2.799918 0.911607,2.868098 0.757064,2.95446 0.620704,3.059003 0.484343,3.163546 0.372982,3.293089 0.28662,3.447631 0.204803,3.606719 0.163895,3.797624 0.163895,4.020347 c 0,0.249994 0.052272,0.465899 0.156815,0.647713 0.109089,0.186359 0.249995,0.340902 0.422718,0.463626 0.172724,0.122725 0.368174,0.213632 0.586352,0.272722 0.218177,0.059089 0.436354,0.088634 0.654531,0.088634 0.25454,0 0.497717,-0.029545 0.72953,-0.088634 C 2.9502,5.349864 3.159286,5.258956 3.341101,5.131686 3.522915,5.004416 3.666094,4.840783 3.770637,4.640788 3.879725,4.445337 3.93427,4.206706 3.93427,3.924894 H 2.897928 C 2.888838,4.070345 2.85702,4.190797 2.802476,4.28625 2.752477,4.381702 2.684297,4.456701 2.597935,4.511245 2.511573,4.565789 2.411575,4.604425 2.297941,4.627151 2.188852,4.649879 2.0684,4.661242 1.936585,4.661242 1.850223,4.661242 1.763861,4.652151 1.6775,4.633969 1.591138,4.615788 1.511594,4.583971 1.438868,4.538517 1.370688,4.493063 1.313871,4.436246 1.268417,4.368066 1.222964,4.299886 1.200237,4.213524 1.200237,4.108981 1.200237,4.013528 1.218418,3.936257 1.254781,3.877167 1.291144,3.818078 1.361597,3.763534 1.46614,3.713535 1.575229,3.663536 1.722953,3.613537 1.909313,3.563538 2.100218,3.513539 2.34794,3.449904 2.652479,3.372633 2.743386,3.354451 2.868383,3.320361 3.027471,3.270362 3.191104,3.224909 3.352464,3.14991 3.511552,3.045367 3.670639,2.940824 3.807,2.799917 3.920634,2.622648 4.038813,2.449925 4.097903,2.227203 4.097903,1.954481 4.097903,1.731759 4.054722,1.524945 3.96836,1.33404 3.881998,1.143135 3.752455,0.977229 3.579732,0.836323 3.411554,0.699962 3.200195,0.593146 2.945655,0.515875 2.69566,0.438604 2.404757,0.399969 2.072946,0.399969 c -0.268176,0 -0.529535,0.03409 -0.784075,0.10227 C 1.038877,0.565874 0.816154,0.668145 0.620704,0.809051 0.429799,0.949957 0.277529,1.129498 0.163895,1.347676 0.050261,1.565853 -0.004283,1.824938 2.62e-4,2.124932 Z"
           style="fill:#a2004a;fill-opacity:1;fill-rule:nonzero;stroke:none"
           id="path50" /></g><g
         id="g52"
         transform="translate(11.718262,10.699341)"><path
           d="M 6.091593,5.493042 H 6.868849 L 4.966617,0.399969 H 4.196178 Z"
           style="fill:#a2004a;fill-opacity:1;fill-rule:nonzero;stroke:none"
           id="path54" /></g></g></g></svg>
