<svg width="40" height="40" viewBox="0 0 40 40" fill="none" xmlns="http://www.w3.org/2000/svg">
<circle cx="20" cy="20" r="20" fill="#FAE6EF"/>
<path d="M13.0672 27.6798L12.8379 27.7794C12.7773 27.6399 12.7586 27.4859 12.7842 27.336C12.8098 27.1861 12.8784 27.047 12.9818 26.9355L12.9819 26.9354L26.8203 12.0325C26.8868 11.9524 26.9687 11.8864 27.0612 11.8383C27.1563 11.7888 27.2607 11.7594 27.3677 11.7519C27.4747 11.7444 27.5821 11.759 27.6832 11.7948C27.7843 11.8306 27.877 11.8868 27.9555 11.9599L13.0672 27.6798ZM13.0672 27.6798L12.8379 27.7794C12.8985 27.9188 12.9984 28.0376 13.1254 28.1212C13.2524 28.2047 13.401 28.2495 13.553 28.25L13.5546 28.25M13.0672 27.6798L13.5546 28.25M13.5546 28.25C13.6619 28.2497 13.768 28.2272 13.8662 28.1842C13.9644 28.1411 14.0528 28.0783 14.1257 27.9997C14.1257 27.9997 14.1258 27.9997 14.1258 27.9996L27.9638 13.0971L13.5546 28.25Z" fill="#A2004A" stroke="#A2004A" stroke-width="0.5"/>
<path d="M24.9906 28.2502L24.9911 28.2502C25.8363 28.2487 26.6464 27.9123 27.2441 27.3146C27.8417 26.717 28.1782 25.9068 28.1797 25.0616V25.0612C28.1797 24.4304 27.9926 23.8138 27.6422 23.2894C27.2918 22.765 26.7937 22.3562 26.211 22.1148C25.6283 21.8735 24.9871 21.8103 24.3684 21.9333C23.7498 22.0564 23.1816 22.3601 22.7356 22.8061C22.2896 23.2521 21.9858 23.8204 21.8628 24.439C21.7397 25.0576 21.8029 25.6988 22.0443 26.2816C22.2856 26.8643 22.6944 27.3624 23.2188 27.7128C23.7433 28.0632 24.3599 28.2502 24.9906 28.2502ZM24.0864 23.7333C24.3538 23.5541 24.6684 23.4583 24.9903 23.4583C25.4176 23.4595 25.8272 23.6286 26.1311 23.929C26.435 24.2294 26.6087 24.6371 26.6148 25.0643C26.6184 25.3862 26.5263 25.7019 26.3501 25.9713C26.1739 26.2408 25.9215 26.4519 25.6251 26.5777C25.3286 26.7034 25.0015 26.7382 24.6852 26.6777C24.3689 26.6171 24.0778 26.4639 23.8488 26.2375C23.6198 26.0111 23.4633 25.7217 23.3991 25.4062C23.3349 25.0906 23.366 24.7631 23.4884 24.4652C23.6107 24.1674 23.8189 23.9126 24.0864 23.7333Z" fill="#A2004A" stroke="#A2004A" stroke-width="0.5"/>
<path d="M15.9621 18.1335L15.9626 18.1335C16.7998 18.1259 17.6006 17.79 18.1926 17.198C18.7846 16.6059 19.1205 15.8051 19.1281 14.9679L19.1281 14.9675C19.1327 14.3348 18.9489 13.7151 18.6003 13.1871C18.2516 12.6591 17.7538 12.2468 17.1701 12.0026C16.5865 11.7583 15.9433 11.6932 15.3226 11.8155C14.7018 11.9378 14.1315 12.242 13.6841 12.6894C13.2367 13.1368 12.9325 13.7072 12.8102 14.3279C12.6878 14.9487 12.7529 15.5918 12.9972 16.1755C13.2414 16.7592 13.6537 17.257 14.1817 17.6056L14.3195 17.397L14.1817 17.6056C14.7097 17.9543 15.3294 18.138 15.9621 18.1335ZM15.0501 13.6062C15.3196 13.43 15.6352 13.3379 15.9571 13.3415C16.3844 13.3476 16.7921 13.5213 17.0925 13.8252C17.3929 14.129 17.5619 14.5387 17.5632 14.966C17.5631 15.2879 17.4674 15.6025 17.2881 15.8699C17.1088 16.1374 16.8541 16.3455 16.5562 16.4679C16.2584 16.5903 15.9309 16.6214 15.6153 16.5572C15.2997 16.493 15.0104 16.3365 14.784 16.1075C14.5576 15.8785 14.4044 15.5873 14.3438 15.2711C14.2832 14.9548 14.318 14.6277 14.4438 14.3312C14.5696 14.0348 14.7806 13.7824 15.0501 13.6062Z" fill="#A2004A" stroke="#A2004A" stroke-width="0.5"/>
</svg>
