<svg width="40" height="40" viewBox="0 0 40 40" fill="none" xmlns="http://www.w3.org/2000/svg">
<circle cx="20" cy="20.0002" r="20" fill="#FAE6EF"/>
<path d="M13.8434 21.4071L13.2142 21.224C12.8876 21.1284 12.6566 21.0169 12.5212 20.8974C12.4097 20.7939 12.354 20.6664 12.354 20.4992C12.354 20.2762 12.4336 20.1169 12.6009 19.9894C12.7841 19.8461 13.0469 19.7744 13.3814 19.7744C13.6841 19.7744 13.9708 19.8222 14.2257 19.9098H14.2496C14.5044 20.0054 14.7035 20.1089 14.8469 20.2204L14.9743 20.316L15.1177 20.2363C15.2212 20.1806 15.3088 20.101 15.3885 19.9974C15.4602 19.8859 15.492 19.7585 15.492 19.631C15.492 19.416 15.3726 19.2248 15.1416 19.0576C14.9584 18.9222 14.7035 18.8107 14.3929 18.7231C14.0903 18.6355 13.7478 18.5956 13.3655 18.5956C12.6885 18.5956 12.1389 18.7629 11.7168 19.0894C11.2788 19.424 11.0637 19.8939 11.0637 20.4912C11.0637 20.8018 11.1274 21.0886 11.2549 21.3355C11.3903 21.5664 11.5735 21.7656 11.8124 21.9328C12.0354 22.0762 12.2982 22.1956 12.5929 22.2912L13.4929 22.562C13.8354 22.6576 14.0743 22.7771 14.2177 22.9284C14.3531 23.0717 14.4168 23.239 14.4168 23.4461C14.4168 23.701 14.3292 23.9001 14.146 24.0673C13.9628 24.2266 13.6761 24.3063 13.2858 24.3063C12.8956 24.3063 12.6009 24.2425 12.3619 24.1231C12.0991 23.9877 11.9 23.8523 11.7646 23.7169L11.6611 23.6133L11.5257 23.6611C11.3982 23.7089 11.2788 23.7886 11.1752 23.8921L11.1434 23.924H11.1354C11.0478 24.0355 11 24.1788 11 24.3302C11 24.5372 11.1115 24.7363 11.3425 24.9355C11.5257 25.0709 11.7566 25.1903 12.0513 25.2939L12.1389 25.3257C12.4655 25.4213 12.8478 25.4691 13.2779 25.4691C14.0345 25.4691 14.6319 25.2859 15.054 24.9195C15.5 24.5452 15.723 24.0514 15.723 23.4461C15.723 22.8806 15.5398 22.4266 15.1814 22.1001C14.8549 21.7894 14.4009 21.5585 13.8354 21.3992L13.8434 21.4071Z" fill="#A2004A"/>
<path d="M18.4628 17.7434C18.4071 17.7434 18.3513 17.7434 18.3195 17.7513C18.2717 17.7513 18.2239 17.7513 18.1681 17.7673L18.0089 17.7912L16.1212 25.2699C16.1053 25.3257 16.0894 25.4053 16.0655 25.5009C16.0336 25.6204 16.0177 25.7319 16.0177 25.8274C16.0177 26.0106 16.0814 26.162 16.1929 26.2575C16.3044 26.369 16.4637 26.4248 16.6549 26.4248C16.7186 26.4248 16.7743 26.4248 16.8062 26.4168C16.854 26.4168 16.9018 26.4168 16.9575 26.4009L17.1089 26.377L19.0124 18.9062C19.0363 18.8266 19.0522 18.739 19.0761 18.6434C19.1 18.5319 19.108 18.4363 19.108 18.3407C19.108 18.1416 19.0363 17.9744 18.9089 17.8788C18.7894 17.7832 18.646 17.7354 18.4788 17.7354L18.4628 17.7434Z" fill="#A2004A"/>
<path d="M28.7531 17.154C28.5859 16.5009 28.3469 15.9355 28.0522 15.4735C27.7496 14.9956 27.3514 14.6293 26.8814 14.3824C26.4115 14.1275 25.862 14.0001 25.2407 14.0001C24.4045 14.0001 23.6956 14.231 23.1301 14.685C22.5806 15.139 22.1584 15.7841 21.8876 16.6045V16.6204C21.6168 17.4169 21.4814 18.4762 21.4814 19.7664C21.4814 21.8213 21.8478 23.3425 22.5726 24.2824L22.5965 24.3142C23.2337 25.1186 24.1257 25.5248 25.2407 25.5248C26.085 25.5248 26.7938 25.2939 27.3514 24.8319L27.3673 24.816C27.9089 24.362 28.323 23.7248 28.5938 22.9124C28.8646 22.108 29 21.0487 29 19.7585C29 18.6673 28.9124 17.7912 28.7531 17.1461V17.154ZM25.2248 15.5771C25.7664 15.5771 26.2045 15.8319 26.5788 16.3576C26.762 16.6204 26.9133 17.0346 27.0089 17.5841C27.1124 18.1576 27.1602 18.8903 27.1602 19.7664C27.1602 20.6425 27.1124 21.3673 27.0089 21.9408C26.9133 22.4903 26.7699 22.9045 26.5788 23.1673C26.2124 23.7009 25.7744 23.9558 25.2407 23.9558C24.7071 23.9558 24.2691 23.7009 23.8947 23.1753C23.7115 22.9124 23.5682 22.4903 23.4726 21.9408C23.3691 21.3673 23.3213 20.6346 23.3213 19.7585C23.3213 18.8824 23.377 18.1496 23.4885 17.5523C23.6 16.9788 23.7593 16.5328 23.9664 16.2381C24.285 15.7841 24.6991 15.5691 25.2328 15.5691L25.2248 15.5771Z" fill="#A2004A"/>
</svg>
