<svg width="76" height="56" viewBox="0 0 76 56" fill="none" xmlns="http://www.w3.org/2000/svg">
<path d="M72.7375 44.5878C71.3023 47.0785 69.3118 49.0522 66.9318 50.6004C64.1832 52.3886 60.9142 53.6093 57.3793 54.4031C45.878 56.9868 31.5613 55.0528 23.1894 53.4485C21.4915 53.1229 20.0385 52.8111 18.9028 52.5533C16.9858 52.1179 15.1691 51.4531 13.5315 50.5727C13.523 50.5681 13.5144 50.5634 13.5058 50.559C2.28577 44.5171 -2.47944 35.8818 1.25106 27.7029C1.30888 27.5752 12.3084 1.60079 38.3902 10.179C49.8401 13.945 45.6285 17.1449 58.3201 21.1477C64.2535 23.0192 72.1054 26.3569 74.2594 34.2309C75.0278 37.0409 74.769 41.0623 72.7378 44.5878H72.7375Z" fill="#FFE2B0"/>
<path d="M20.2004 8.75427C20.2004 8.75427 22.4228 8.2081 23.0659 9.04729C23.709 9.88648 22.1254 12.2002 20.9222 12.3796C19.7191 12.5594 20.2004 8.75427 20.2004 8.75427Z" fill="#FE9F73"/>
<path d="M13.9194 39.6711C13.9194 39.6711 19.5743 36.9136 20.6107 33.0185C21.6475 29.1235 14.9914 28.6255 15.0839 28.6262C15.1764 28.6266 8.32403 30.4494 7.85619 31.5617C7.38835 32.6736 5.33083 37.3067 6.16312 37.3108C6.99542 37.3149 13.9194 39.6715 13.9194 39.6715V39.6711Z" fill="#ED7163"/>
<path d="M18.922 4.69197C18.9205 4.6837 18.9186 4.67542 18.9164 4.66714C18.8527 4.38691 18.5901 4.19884 18.3055 4.2293C18.2972 4.23006 18.2886 4.23119 18.28 4.23231C18.2774 4.23269 18.2744 4.23269 18.2718 4.23344L5.82851 6.31807C5.82588 6.31845 5.82289 6.3192 5.82026 6.31995C5.81202 6.32146 5.80341 6.32334 5.79554 6.3256C5.51649 6.38954 5.32883 6.65322 5.35917 6.93872C5.35992 6.947 5.36104 6.95565 5.36216 6.96393C5.36254 6.96656 5.36254 6.96957 5.36329 6.9722L9.67947 32.9541C9.72442 33.2242 9.97875 33.4066 10.2477 33.3615L22.8344 31.2528C23.1034 31.2076 23.285 30.9522 23.2401 30.6822L18.9239 4.70025C18.9235 4.69761 18.9228 4.69461 18.922 4.69197Z" fill="#FFF6E6"/>
<path d="M5.12183 6.84771L6.02342 5.97729L18.1532 3.97729L19.3728 4.73863C19.3728 4.73863 19.4507 5.84263 19.3866 5.87046C19.3226 5.8983 5.27652 8.42039 5.24094 8.2026C5.20536 7.98519 5.1222 6.84771 5.1222 6.84771H5.12183Z" fill="#CC8100"/>
<g opacity="0.5">
<path d="M6.51817 7.20696C6.5309 7.28332 6.49644 7.35667 6.43614 7.39692C6.41479 7.41159 6.38969 7.42174 6.36197 7.42626C6.335 7.43077 6.30803 7.42926 6.28256 7.42249C6.21252 7.40444 6.15596 7.34613 6.1436 7.26978C6.12637 7.16596 6.19641 7.06778 6.29942 7.05048C6.4028 7.03318 6.50056 7.10314 6.51779 7.20696H6.51817Z" fill="white"/>
<path d="M7.09728 7.10979C7.11002 7.18615 7.07556 7.2595 7.01525 7.29975C6.9939 7.31442 6.9688 7.32457 6.94108 7.32909C6.91374 7.3336 6.8864 7.3321 6.86168 7.32533C6.79163 7.30689 6.73544 7.24896 6.72271 7.17261C6.70548 7.06879 6.77515 6.97061 6.87853 6.95331C6.98191 6.93601 7.07968 7.00597 7.09691 7.10979H7.09728Z" fill="white"/>
<path d="M7.67638 7.01287C7.68912 7.08922 7.65466 7.16258 7.59435 7.20282C7.573 7.21749 7.5479 7.22765 7.52019 7.23216C7.49284 7.23668 7.4655 7.23517 7.44078 7.2284C7.37073 7.20997 7.31455 7.15204 7.30181 7.07568C7.28458 6.97187 7.35425 6.87369 7.45763 6.85639C7.56101 6.83908 7.65878 6.90905 7.67601 7.01287H7.67638Z" fill="white"/>
</g>
<path d="M23.1956 30.4136C23.2652 30.8323 22.9832 31.2284 22.5667 31.2983L10.516 33.3171C10.0991 33.3871 9.70427 33.1042 9.63498 32.6856L5.41056 7.25736C5.33303 6.79018 5.64729 6.3482 6.11251 6.27034L17.9887 4.2805C18.4539 4.20263 18.894 4.51785 18.9715 4.9854L23.1959 30.4132L23.1956 30.4136ZM17.9197 3.71288L5.99377 5.711C5.22627 5.83964 4.70787 6.56863 4.83597 7.33936L9.10383 33.029C9.23194 33.7997 9.95786 34.3203 10.7254 34.1917L22.6513 32.1936C23.4188 32.0649 23.9372 31.3359 23.8091 30.5652L19.5413 4.87557C19.4132 4.10484 18.6872 3.58424 17.9197 3.71288Z" fill="#790038"/>
<path d="M15.0786 38.9805V39.0147V39.0256L15.0621 42.3237L14.9658 51.3108C11.7393 49.728 10.0246 48.4089 10.0246 48.4089C10.0246 48.4089 9.10125 47.8813 7.6503 46.6942C6.19935 45.507 5.27602 44.5837 4.88031 44.188L5.10191 36.8875C5.10191 36.8875 3.65531 30.2861 3.75532 28.7081C3.85608 27.1298 4.89102 23.5135 5.35999 22.1229C5.49783 21.714 5.58061 21.1844 5.62818 20.6404C5.63192 20.5998 5.63529 20.5592 5.63829 20.5182C5.63829 20.5171 5.63829 20.5167 5.63829 20.5167C5.67949 19.9946 5.68961 19.4669 5.68811 19.0264C5.68811 19.0125 5.68811 18.9989 5.68811 18.9846C5.68811 18.9459 5.68811 18.9086 5.68736 18.8714C5.68736 18.8616 5.68736 18.8518 5.68736 18.8421C5.68099 18.3102 5.65852 17.9453 5.65852 17.9453C5.66751 17.855 5.68024 17.7704 5.6956 17.691C5.71133 17.6079 5.73081 17.5308 5.75291 17.459C5.76977 17.4044 5.78849 17.3529 5.80835 17.3051C5.94357 16.9805 6.15108 16.7981 6.39605 16.7304C6.57734 16.6799 6.77961 16.6924 6.98862 16.7559C7.72802 16.9809 8.55245 17.8471 8.84462 18.8439C9.39037 20.7044 8.90118 26.0879 8.90118 26.0879C8.90118 26.0879 10.1657 27.3705 10.9598 29.928C11.1703 30.6058 11.3479 31.3732 11.4599 32.23C11.5022 32.5558 11.5236 32.8616 11.5258 33.1486C11.5292 33.48 11.5071 33.7862 11.4655 34.0683C11.4067 34.4696 11.3078 34.8229 11.1831 35.1332C10.519 36.7886 9.1233 37.2332 9.1233 37.2332L9.21544 37.2603L11.4921 37.9284L14.9595 38.9459L15.0786 38.9808H15.0794L15.0786 38.9805Z" fill="#FCAE92"/>
<path d="M22.3187 21.3013L22.4738 22.2526C22.4738 22.2526 21.1377 23.6063 21.5737 25.3257C22.0097 27.0451 23.1611 27.2524 23.1611 27.2524C23.1611 27.2524 24.9598 24.8314 24.9313 23.9907C24.9028 23.1501 24.8961 21.6759 22.3187 21.3016V21.3013Z" fill="#FE9F73"/>
<path d="M23.1848 27.3171L23.147 27.3077C22.5694 27.164 22.2117 26.7168 22.1967 26.6976C22.1592 26.6532 21.2475 25.5609 21.4292 24.2898C21.6105 23.0245 22.6668 21.9942 22.7117 21.9509L22.7908 22.0337C22.7799 22.0438 21.7176 23.0809 21.5419 24.3064C21.3674 25.5259 22.2753 26.6145 22.2847 26.6254C22.2892 26.631 22.6196 27.0429 23.1369 27.187L24.1632 25.7324C25.2371 24.1755 24.7419 22.9571 24.737 22.9447L24.8419 22.9C24.8475 22.9131 24.9783 23.2265 24.9719 23.7429C24.9659 24.2165 24.8367 24.9571 24.2568 25.7982L23.1848 27.3175V27.3171Z" fill="black"/>
<path d="M23.3619 27.781L23.4829 28.5243C23.4829 28.5243 22.439 29.582 22.7794 30.9256C23.1199 32.2692 24.0197 32.431 24.0197 32.431C24.0197 32.431 25.425 30.5389 25.4029 29.8826C25.3808 29.2258 25.3756 28.0737 23.3615 27.781H23.3619Z" fill="#FE9F73"/>
<path d="M24.0388 32.4818L24.0092 32.4746C23.5579 32.3625 23.2784 32.0127 23.2668 31.998C23.2376 31.9634 22.5252 31.11 22.6671 30.1165C22.8087 29.128 23.6343 28.3227 23.6695 28.2888L23.7313 28.3535C23.723 28.3614 22.8926 29.1716 22.7555 30.1293C22.6192 31.0821 23.3286 31.933 23.3357 31.9416C23.3395 31.9461 23.5976 32.2677 24.0017 32.3806L24.8037 31.2439C25.6427 30.0274 25.2562 29.075 25.252 29.0656L25.3341 29.0306C25.3513 29.0708 25.7457 30.0353 24.8767 31.2954L24.0392 32.4825L24.0388 32.4818Z" fill="black"/>
<path d="M11.237 34.9794C11.237 34.9794 10.3358 37.3198 11.4898 37.9273C12.6439 38.5348 8.71015 38.8583 8.7109 38.7436C8.71165 38.6292 5.99301 35.2389 6.67773 35.0708C7.36245 34.9027 9.50349 34.112 9.98519 34.6296C10.4669 35.1472 11.237 34.9794 11.237 34.9794Z" fill="#FCAE92"/>
<path d="M21.4082 15.6699L21.5632 16.6212C21.5632 16.6212 20.2271 17.975 20.6631 19.6944C21.0991 21.4138 22.2506 21.621 22.2506 21.621C22.2506 21.621 24.0493 19.2001 24.0208 18.3594C23.9927 17.5191 23.9856 16.0446 21.4082 15.6703V15.6699Z" fill="#FE9F73"/>
<path d="M15.0226 38.9835L15.0057 42.3267L15.1196 42.3272L15.1365 38.984L15.0226 38.9835Z" fill="black"/>
<path d="M14.7801 39.1538L14.734 39.0493C16.6702 38.1916 18.4692 36.5415 19.321 35.3713C20.0746 34.3365 20.3979 33.5714 20.4009 33.5635L20.5061 33.6079C20.5028 33.6158 20.1754 34.3921 19.4132 35.4386C18.5524 36.6208 16.7353 38.2876 14.7801 39.1538Z" fill="black"/>
<path d="M22.2745 21.6853L22.237 21.6762C21.7175 21.5529 21.3055 21.0883 21.2882 21.0684C21.2485 21.0217 20.3368 19.9294 20.5189 18.658C20.7002 17.3926 21.7565 16.3623 21.8014 16.3191L21.8804 16.4018C21.8696 16.412 20.8073 17.4491 20.6316 18.6746C20.4571 19.8937 21.365 20.9826 21.3744 20.9935C21.3778 20.9973 21.7595 21.4269 22.2265 21.5555L23.2529 20.1005C24.3268 18.5437 23.8316 17.3253 23.8267 17.3129L23.9316 17.2681C23.9372 17.2813 24.0679 17.5946 24.0616 18.1111C24.0556 18.5847 23.9264 19.3253 23.3465 20.1664L22.2749 21.6853H22.2745Z" fill="black"/>
<path d="M21.5071 16.6307L19.7062 6.21203L19.8185 6.1936L21.6195 16.6119L21.5071 16.6307Z" fill="black"/>
<path d="M22.8222 10.8527L22.7293 10.7865C22.7372 10.7752 23.5185 9.65388 22.9454 8.99825C22.3645 8.33397 20.3114 8.78798 20.2908 8.7925L20.2657 8.68078C20.3526 8.66122 22.4057 8.20758 23.0308 8.92264C23.6635 9.64598 22.8567 10.8038 22.8222 10.8527Z" fill="black"/>
<path d="M7.38615 35.9918C7.36929 36.0038 7.34719 36.0069 7.32697 35.9982C6.64899 35.6988 6.01522 34.7001 5.98825 34.6576C5.97064 34.6294 5.97889 34.5925 6.00698 34.5745C6.03507 34.5568 6.07215 34.5651 6.08976 34.5933C6.09613 34.6034 6.73102 35.6036 7.37529 35.888C7.40563 35.9015 7.41949 35.9369 7.406 35.9674C7.40151 35.9775 7.39439 35.9862 7.38615 35.9922V35.9918Z" fill="#000100"/>
<path d="M8.20636 35.866C8.19325 35.8754 8.17639 35.8796 8.15954 35.8762C7.43324 35.7306 6.59945 34.8925 6.56461 34.8572C6.54139 34.8335 6.54139 34.7951 6.56499 34.7718C6.58858 34.7481 6.62679 34.7485 6.65001 34.7718C6.65825 34.7801 7.49317 35.6193 8.18313 35.7573C8.21572 35.7637 8.2367 35.7957 8.23033 35.8284C8.22733 35.8442 8.21834 35.857 8.20636 35.8656V35.866Z" fill="#000100"/>
<path d="M9.14016 37.287L9.1057 37.178C9.11282 37.1757 9.82038 36.9432 10.453 36.2218C11.037 35.556 11.676 34.3241 11.4029 32.2372C11.1284 30.1364 10.4519 28.5874 9.93238 27.6576C9.36977 26.6502 8.86522 26.133 8.86035 26.1278L8.84163 26.109L8.84387 26.0823C8.84874 26.0285 9.32595 20.6882 8.78956 18.8598C8.46855 17.7644 7.44335 16.762 6.63915 16.7563C6.6384 16.7563 6.63802 16.7563 6.63727 16.7563C6.23986 16.7544 5.95256 17.0031 5.80685 17.4759C5.76415 17.6143 5.73344 17.7727 5.71546 17.9468C5.7207 18.0379 5.79599 19.3886 5.68512 20.6457C5.6308 21.2664 5.53941 21.7693 5.41393 22.1413C4.98467 23.4142 3.91377 27.1129 3.81189 28.7123C3.713 30.2643 5.14236 36.8093 5.15697 36.8755L5.04572 36.9C4.98654 36.6303 3.59838 30.2733 3.69839 28.7052C3.80102 27.0952 4.87529 23.3822 5.30605 22.1048C5.42853 21.7415 5.51806 21.2472 5.57162 20.636C5.68512 19.3491 5.60234 17.963 5.60159 17.9491V17.9446V17.9401C5.62031 17.7569 5.6529 17.5895 5.69785 17.4424C5.90274 16.7785 6.32151 16.6405 6.63765 16.6424C6.6384 16.6424 6.63915 16.6424 6.6399 16.6424C7.04481 16.6454 7.52501 16.8842 7.95689 17.2984C8.39926 17.7223 8.73375 18.2654 8.89856 18.8278C9.42746 20.6307 8.99969 25.6136 8.95962 26.0672C9.05663 26.171 9.52035 26.6875 10.029 27.5978C10.5542 28.5366 11.2381 30.1014 11.5153 32.2225C11.6382 33.1633 11.5906 34.0145 11.3741 34.7529C11.1999 35.3457 10.9175 35.8671 10.5339 36.3027C9.87994 37.0456 9.16975 37.278 9.13978 37.2874L9.14016 37.287Z" fill="black"/>
<path d="M15.4262 15.812L15.848 13.396L14.4782 13.8587L13.5702 13.522L12.8162 14.1314L11.3707 14.1306L12.5364 16.2863C11.0231 17.6909 10.2747 20.7667 10.5856 22.6749C10.9789 25.0917 12.9215 24.7197 15.3281 24.3247C17.7347 23.9297 19.6941 23.6615 19.3008 21.2444C18.9903 19.3362 17.3058 16.6595 15.4258 15.812H15.4262Z" fill="#FFA100"/>
<g style="mix-blend-mode:multiply">
<path d="M13.4919 13.5851L12.8162 14.1313L11.3707 14.1305L12.5364 16.2862C11.0231 17.6908 10.2747 20.7666 10.5856 22.6748C10.9744 25.0626 12.8754 24.7282 15.2419 24.3385L13.4919 13.5847V13.5851Z" fill="#F1F2F2"/>
</g>
<path d="M13.5061 21.2008C13.6252 21.492 13.8616 21.5928 14.2107 21.5356C14.5602 21.4784 14.6856 21.3137 14.6501 21.0944C14.6092 20.8443 14.4482 20.7626 13.9133 20.7288C13.0607 20.6705 12.8105 20.4008 12.7442 19.993C12.6585 19.4668 12.9937 19.047 13.7058 18.93C14.5051 18.7987 14.8939 19.1764 15.0096 19.612L14.3545 19.7196C14.289 19.5368 14.1556 19.3513 13.7668 19.4153C13.5005 19.4589 13.3612 19.5943 13.396 19.8095C13.4308 20.0246 13.5713 20.0871 14.0781 20.1164C14.9857 20.1837 15.231 20.4764 15.3007 20.9063C15.3898 21.4548 15.037 21.9043 14.2421 22.0348C13.4776 22.16 13.0102 21.8497 12.8506 21.3084L13.5057 21.2008H13.5061Z" fill="#F9EFE4"/>
<path d="M15.3306 22.0407L16.0052 18.5527L16.5247 18.4673L15.8546 21.9546L15.3306 22.0407Z" fill="#F9EFE4"/>
<path d="M15.4263 15.812L12.1443 16.737" stroke="#75452A" stroke-width="0.5" stroke-miterlimit="10" stroke-linecap="round"/>
<path d="M12.5416 16.2809L15.9409 16.1135" stroke="#75452A" stroke-width="0.5" stroke-miterlimit="10" stroke-linecap="round"/>
<path d="M73.8664 31.3933H46.1665V36.6695H73.8664V31.3933Z" fill="#DB3683"/>
<path d="M47.8312 7.96924H47.3634V31.3933H47.8312V7.96924Z" fill="#F4ACCD"/>
<path d="M72.4035 7.96924H71.9357V31.3933H72.4035V7.96924Z" fill="#F4ACCD"/>
<path d="M48.5779 5.26904V6.60255C48.5779 7.57492 49.3135 8.36481 50.2217 8.36481H51.4572C52.3642 8.36481 53.101 7.5762 53.101 6.60255V5.26904H48.5791H48.5779Z" fill="#CB4282"/>
<path d="M44.056 5.26929V6.60279C44.056 7.57516 44.7916 8.36506 45.6998 8.36506H46.9353C47.8424 8.36506 48.5791 7.57644 48.5791 6.60279V5.26929H44.056Z" fill="#FDEDF4"/>
<path d="M53.1012 5.26904V6.60255C53.1012 7.57492 53.8368 8.36481 54.745 8.36481H55.9805C56.8875 8.36481 57.6243 7.5762 57.6243 6.60255V5.26904H53.1024H53.1012Z" fill="#FDEDF4"/>
<path d="M66.6683 5.26904V6.60255C66.6683 7.57492 67.4039 8.36481 68.3121 8.36481H69.5477C70.4547 8.36481 71.1914 7.5762 71.1914 6.60255V5.26904H66.6695H66.6683Z" fill="#CB4282"/>
<path d="M72.8338 8.36359H74.0693C74.9763 8.36359 75.7131 7.57497 75.7131 6.60133V5.26782H71.1912V6.60133C71.1912 7.5737 71.9268 8.36359 72.835 8.36359H72.8338Z" fill="#FDEDF4"/>
<path d="M57.623 5.26904V6.60255C57.623 7.57492 58.3586 8.36481 59.2668 8.36481H60.5024C61.4094 8.36481 62.1462 7.5762 62.1462 6.60255V5.26904H57.6242H57.623Z" fill="#CB4282"/>
<path d="M62.1449 5.26904V6.60255C62.1449 7.57492 62.8805 8.36481 63.7887 8.36481H65.0242C65.9312 8.36481 66.668 7.5762 66.668 6.60255V5.26904H62.1461H62.1449Z" fill="#FDEDF4"/>
<path d="M52.5261 0L48.5779 5.26893H53.101L55.4697 0H52.5261Z" fill="#DB3683"/>
<path d="M49.5826 0L44.056 5.26893H48.578L52.5262 0H49.5826Z" fill="#FAC8DF"/>
<path d="M55.4699 0L53.1012 5.26893H57.6231L58.4123 0H55.4699Z" fill="#FAC8DF"/>
<path d="M64.2991 0L66.6678 5.26893H71.1897L67.2415 0H64.2991Z" fill="#DB3683"/>
<path d="M71.1899 5.26893H75.7118L70.1853 0H67.2417L71.1899 5.26893Z" fill="#FAC8DF"/>
<path d="M58.4121 0L57.6229 5.26893H62.1448L61.3557 0H58.4121Z" fill="#DB3683"/>
<path d="M61.3555 0L62.1446 5.26893H66.6677L64.2991 0H61.3555Z" fill="#FAC8DF"/>
<path d="M51.1662 14.2756C51.1662 14.2756 48.8825 14.1417 48.4008 15.0836C47.9191 16.0255 49.8927 18.0138 51.1082 17.9724C52.3237 17.931 51.1662 14.2756 51.1662 14.2756Z" fill="#FCAE92"/>
<path d="M62.9035 43.5448C62.9035 43.5448 56.8459 41.8582 55.1259 38.2148C53.4058 34.5717 59.8627 32.8749 59.7717 32.8922C59.6807 32.9095 66.7484 33.4598 67.4084 34.4687C68.0688 35.4775 70.9257 39.6611 70.1076 39.8164C69.2899 39.9714 62.9035 43.5448 62.9035 43.5448Z" fill="#F79386"/>
<path d="M51.6929 10.0484C51.6929 10.0398 51.6933 10.0315 51.6936 10.0229C51.706 9.73586 51.9304 9.50302 52.2158 9.48158C52.224 9.48083 52.2326 9.48045 52.2413 9.4797C52.2443 9.4797 52.2469 9.47932 52.2495 9.47932L64.8632 9.27319C64.8662 9.27319 64.8688 9.27319 64.8714 9.27319C64.88 9.27319 64.8883 9.27357 64.8969 9.27394C65.1827 9.28636 65.4146 9.51167 65.4363 9.79792C65.437 9.8062 65.4374 9.81485 65.4381 9.8235C65.4381 9.82651 65.4385 9.82914 65.4389 9.83178L65.8655 36.1695C65.87 36.4434 65.6524 36.669 65.3797 36.6736L52.6207 36.882C52.348 36.8865 52.1233 36.6683 52.1188 36.3941L51.6921 10.0563C51.6921 10.0533 51.6921 10.0507 51.6921 10.0481L51.6929 10.0484Z" fill="#EFB0CD"/>
<path d="M65.6539 9.66564L64.6108 8.97314L52.3211 9.20598L51.2584 10.1757C51.2584 10.1757 51.3805 11.2756 51.4483 11.2914C51.5161 11.3072 65.785 11.2406 65.7809 11.0202C65.7768 10.7997 65.6543 9.66601 65.6543 9.66601L65.6539 9.66564Z" fill="#A2004A"/>
<g opacity="0.5">
<path d="M64.3455 10.2726C64.3466 10.3501 64.3938 10.4159 64.4601 10.4445C64.4837 10.455 64.5103 10.4607 64.5384 10.4599C64.5657 10.4596 64.592 10.4532 64.6156 10.4419C64.6811 10.4114 64.7261 10.3437 64.7249 10.2662C64.7231 10.1609 64.6365 10.077 64.532 10.0789C64.4271 10.0808 64.3436 10.1673 64.3455 10.2726Z" fill="white"/>
<path d="M63.7586 10.2819C63.7597 10.3594 63.8069 10.4252 63.8732 10.4538C63.8968 10.4643 63.9234 10.47 63.9515 10.4692C63.9792 10.4688 64.0058 10.4624 64.029 10.4512C64.0946 10.4203 64.1395 10.353 64.138 10.2755C64.1361 10.1702 64.05 10.0863 63.9451 10.0882C63.8402 10.09 63.7567 10.1766 63.7586 10.2819Z" fill="white"/>
<path d="M63.1712 10.2921C63.1723 10.3696 63.2195 10.4355 63.2858 10.464C63.3094 10.4746 63.336 10.4802 63.3641 10.4795C63.3922 10.4787 63.4184 10.4727 63.4416 10.4614C63.5072 10.4306 63.5521 10.3632 63.5506 10.2857C63.5487 10.1804 63.4626 10.0965 63.3577 10.0984C63.2528 10.1003 63.1693 10.1868 63.1712 10.2921Z" fill="white"/>
</g>
<path d="M51.6973 10.3458C51.6899 9.8722 52.0659 9.48214 52.5371 9.47424L64.5759 9.27751C65.0474 9.26999 65.4359 9.64727 65.4437 10.1208L65.8614 35.8966C65.8681 36.3213 65.531 36.6707 65.1085 36.6775L52.893 36.8772C52.4705 36.884 52.1221 36.5459 52.1154 36.1212L51.6977 10.3454L51.6973 10.3458ZM51.1171 10.3409L51.5393 36.3822C51.552 37.1635 52.1929 37.7864 52.9709 37.7736L65.0598 37.5761C65.8378 37.5633 66.4581 36.9197 66.4453 36.1385L66.0232 10.0971C66.0105 9.31588 65.3696 8.69297 64.5916 8.70576L52.5027 8.90324C51.7247 8.91603 51.1044 9.55962 51.1171 10.3409Z" fill="#790038"/>
<path d="M68.3264 49.5959C65.4245 51.9702 61.8631 53.0254 61.506 53.2199L61.506 48.0797L61.5079 46.36L61.6472 43.1194L61.6453 43.1093L61.6393 43.0754L61.6742 43.0577L61.7502 43.019L64.979 41.3887H64.9798L67.0968 40.3197L67.1826 40.2765C67.1826 40.2765 65.7244 40.0914 64.7749 38.577C64.7737 38.5755 64.7734 38.574 64.7722 38.5725C64.7715 38.5714 64.7711 38.5706 64.7707 38.5695C64.5954 38.29 64.4381 37.965 64.31 37.5881C64.2186 37.318 64.1418 37.0209 64.0857 36.6948C64.0362 36.4119 64.0021 36.1076 63.9853 35.7792C63.9598 35.2748 63.9617 34.7967 63.9841 34.3457C64.0006 34.0245 64.0276 33.7175 64.0632 33.4241C64.1055 33.0709 64.1606 32.7388 64.2235 32.4277C64.3977 31.5682 64.6344 30.8712 64.8502 30.3532C65.1438 29.6468 65.3974 29.2737 65.3974 29.2737C65.3974 29.2737 65.0906 28.1715 64.7794 26.7937C64.7535 26.6812 64.7284 26.5673 64.7033 26.4518C64.3643 24.9039 64.0486 23.1078 64.1508 22.1388C64.2587 21.1052 64.9138 20.1038 65.6008 19.7488C65.7945 19.648 65.9915 19.5994 66.1788 19.616C66.432 19.6385 66.6691 19.7796 66.8605 20.0749C66.8889 20.1185 66.9163 20.1659 66.9425 20.2163C66.9766 20.2825 67.0092 20.3544 67.0395 20.4322C67.0395 20.4322 67.0395 20.433 67.0403 20.4337C67.0699 20.5097 67.0976 20.5906 67.1227 20.6779C67.1227 20.6779 67.1699 21.0679 67.2658 21.6227C67.2703 21.6491 67.2751 21.6762 67.2796 21.7036C67.2841 21.7292 67.2886 21.7548 67.2931 21.7796C67.3706 22.2062 67.4737 22.7098 67.6044 23.203V23.2045C67.6044 23.2045 67.6044 23.2045 67.6044 23.2052C67.6145 23.2443 67.6254 23.2842 67.6362 23.3229C67.7808 23.8496 67.9576 24.3551 68.1666 24.732C68.8783 26.0151 70.5466 29.3843 70.9294 30.9189C71.3119 32.4529 71.0759 39.2071 71.0759 39.2071L71.4542 46.4882C71.4542 46.4882 70.8325 47.3535 70.0411 48.0797C69.2497 48.8059 68.3264 49.5959 68.3264 49.5959Z" fill="#FCAE92"/>
<path d="M51.3394 27.0005L51.3581 27.9642C51.3581 27.9642 52.9156 29.0535 52.7961 30.8233C52.6766 32.5935 51.5814 33.0061 51.5814 33.0061C51.5814 33.0061 49.377 30.9512 49.2538 30.1192C49.1306 29.2875 48.8721 27.8359 51.3398 27.0005H51.3394Z" fill="#FCAE92"/>
<path d="M51.5689 33.0744L50.2418 31.7748C49.5196 31.0526 49.2597 30.3473 49.1683 29.8827C49.069 29.376 49.1413 29.0439 49.1443 29.03L49.2555 29.0552C49.2526 29.068 48.9847 30.3563 50.3216 31.6931L51.5921 32.9374C52.0749 32.702 52.3259 32.2371 52.3285 32.2322C52.3368 32.2182 53.0338 30.9826 52.6428 29.815C52.2499 28.6414 51.0183 27.8143 51.0059 27.806L51.0688 27.7104C51.1209 27.7447 52.3454 28.5669 52.751 29.7785C53.1586 30.9958 52.4585 32.2355 52.4282 32.2878C52.4181 32.3074 52.1465 32.8122 51.6041 33.0582L51.5685 33.0744H51.5689Z" fill="black"/>
<path d="M51.4784 33.5627L51.493 34.3158C51.493 34.3158 52.7099 35.167 52.6167 36.5501C52.5234 37.9332 51.6675 38.2556 51.6675 38.2556C51.6675 38.2556 49.9449 36.6498 49.8486 35.9998C49.7523 35.3498 49.5504 34.2157 51.4787 33.5627H51.4784Z" fill="#FCAE92"/>
<path d="M51.6578 38.3089L50.621 37.2933C49.5392 36.2115 49.7538 35.1913 49.7636 35.1485L49.8505 35.168C49.8482 35.1782 49.6388 36.1848 50.6835 37.2293L51.6765 38.2017C52.0548 38.0174 52.25 37.6544 52.2518 37.6506C52.2582 37.6397 52.8028 36.6741 52.4976 35.7616C52.1904 34.8445 51.2281 34.1983 51.2184 34.1919L51.2675 34.1174C51.3079 34.1441 52.2649 34.7866 52.5818 35.7334C52.9002 36.6847 52.353 37.6533 52.3297 37.6943C52.3219 37.7097 52.1095 38.1039 51.6859 38.2965L51.6581 38.3089H51.6578Z" fill="black"/>
<path d="M64.6985 38.4441C64.6985 38.4441 66.0057 40.5825 64.9798 41.3893C63.9538 42.1958 67.8808 41.8008 67.8599 41.6884C67.8389 41.5759 69.9028 37.7486 69.1993 37.7072C68.4955 37.6658 66.2477 37.2769 65.8672 37.8731C65.4862 38.4693 64.6985 38.4441 64.6985 38.4441Z" fill="#FCAE92"/>
<path d="M51.2221 21.2966L51.2408 22.2603C51.2408 22.2603 52.7983 23.3497 52.6788 25.1195C52.5593 26.8896 51.4641 27.3023 51.4641 27.3023C51.4641 27.3023 49.2597 25.247 49.1365 24.4153C49.0133 23.5836 48.7548 22.1321 51.2225 21.2966H51.2221Z" fill="#FCAE92"/>
<path d="M61.5802 43.0724L61.448 48.0764L61.5618 48.0794L61.6941 43.0754L61.5802 43.0724Z" fill="black"/>
<path d="M61.964 43.1923C59.8848 42.6951 57.798 41.3849 56.7391 40.3784C55.8012 39.4869 55.3393 38.7827 55.3348 38.7756L55.4304 38.7131C55.4349 38.7199 55.8903 39.4139 56.8174 40.2952C57.8658 41.2917 59.932 42.5886 61.9906 43.081L61.964 43.1923Z" fill="black"/>
<path d="M51.4517 27.3701L50.125 26.0709C49.4028 25.3487 49.1428 24.6434 49.0515 24.1789C48.9522 23.6722 49.0245 23.34 49.0275 23.3261L49.1387 23.3513C49.1357 23.3641 48.8679 24.6524 50.2048 25.9893L51.4757 27.2336C51.9117 27.0226 52.2102 26.5306 52.2132 26.5257C52.2199 26.514 52.917 25.2787 52.526 24.1112C52.133 22.9376 50.9015 22.1104 50.8891 22.1021L50.952 22.0066C51.0041 22.0408 52.2286 22.8631 52.6342 24.0747C53.0418 25.2919 52.3417 26.5317 52.3113 26.584C52.2975 26.6073 51.9754 27.1388 51.4869 27.3547L51.4517 27.3701Z" fill="black"/>
<path d="M51.2228 22.2616L51.094 11.6944L51.1685 11.6921L51.2974 22.2594L51.2228 22.2616Z" fill="black"/>
<path d="M48.965 16.815C48.9223 16.7733 47.9207 15.781 48.4125 14.9546C48.8991 14.1379 50.9997 14.2117 51.0888 14.2154L51.0843 14.3298C51.0634 14.329 48.962 14.2549 48.5103 15.0136C48.0645 15.7622 49.0343 16.7236 49.044 16.733L48.9646 16.815H48.965Z" fill="black"/>
<path d="M68.6681 38.7414C68.6868 38.7501 68.7093 38.7493 68.7276 38.7369C69.3404 38.3198 69.7847 37.2221 69.803 37.1755C69.8154 37.1447 69.8004 37.1097 69.7697 37.0969C69.739 37.0845 69.7038 37.0995 69.6914 37.1304C69.6869 37.1413 69.2423 38.2404 68.6598 38.6368C68.6325 38.6557 68.6254 38.6929 68.6437 38.7207C68.6501 38.7301 68.6583 38.7369 68.6677 38.7414H68.6681Z" fill="#000100"/>
<path d="M67.8385 38.7664C67.8531 38.7732 67.8703 38.7743 67.8864 38.7679C68.5745 38.4933 69.2438 37.5176 69.2719 37.4762C69.2907 37.4488 69.2836 37.4112 69.2562 37.3923C69.2289 37.3735 69.1914 37.3807 69.1727 37.4081C69.1659 37.4179 68.4958 38.3944 67.8418 38.6555C67.8111 38.6679 67.7958 38.7029 67.8081 38.7337C67.8141 38.7484 67.825 38.7597 67.8385 38.766V38.7664Z" fill="#000100"/>
<path d="M67.1755 40.3334C67.1445 40.3297 66.4039 40.2296 65.6271 39.6176C65.1716 39.2584 64.7996 38.7969 64.5221 38.2458C64.176 37.5589 63.9763 36.7303 63.928 35.7828C63.8194 33.6462 64.2108 31.9833 64.5584 30.9643C64.8952 29.9769 65.2581 29.3848 65.3353 29.2652C65.2139 28.8266 63.8973 24.0028 64.0932 22.1337C64.1543 21.5507 64.3854 20.956 64.7446 20.4587C65.0952 19.9731 65.5241 19.6508 65.9219 19.5744C66.2327 19.5146 66.671 19.5733 66.9924 20.1905C67.0632 20.3271 67.1253 20.4858 67.1767 20.6626L67.1785 20.6716C67.18 20.6855 67.3482 22.0638 67.691 23.3088C67.8535 23.9005 68.0303 24.3703 68.2165 24.7055C68.8697 25.8836 70.5943 29.3408 70.9846 30.9056C71.3647 32.4297 71.1426 38.9342 71.1329 39.2102L71.019 39.2061C71.0213 39.1388 71.2505 32.4418 70.8741 30.9334C70.4864 29.3792 68.7682 25.9355 68.1168 24.7611C67.9266 24.4181 67.7464 23.9396 67.5812 23.3393C67.2463 22.1228 67.077 20.7811 67.0662 20.6901C67.0171 20.5223 66.9583 20.3722 66.8916 20.2436C66.6628 19.8042 66.335 19.612 65.9436 19.6869C65.1536 19.8381 64.3258 21.0102 64.2071 22.1458C64.0082 24.0416 65.4379 29.2076 65.4525 29.2595L65.4596 29.2851L65.4446 29.3073C65.4405 29.3133 65.0375 29.9133 64.6652 31.0064C64.3217 32.0149 63.9348 33.6613 64.0423 35.7771C64.1494 37.8832 65.0015 38.9793 65.6979 39.5281C66.45 40.1209 67.183 40.2195 67.1901 40.2206L67.1759 40.3342L67.1755 40.3334Z" fill="black"/>
<path d="M62.1585 26.4393C64.0711 24.5187 64.0711 21.4047 62.1585 19.484C60.2459 17.5633 57.145 17.5633 55.2324 19.484C53.3198 21.4047 53.3198 24.5187 55.2324 26.4393C57.145 28.36 60.2459 28.36 62.1585 26.4393Z" fill="white"/>
<path d="M57.7857 25.4672L55.9387 22.8876C55.8514 22.7653 55.8788 22.5953 56.0005 22.5077C56.1223 22.42 56.2916 22.4478 56.3788 22.5697L57.8056 24.5622L61.3722 20.0183C61.4651 19.9002 61.6356 19.8799 61.7532 19.9731C61.8708 20.0664 61.891 20.2376 61.7981 20.3557L57.7857 25.4676V25.4672Z" fill="#CA005D"/>
<path d="M60.3657 27.0004L62.3854 29.0045L61.501 25.8215L60.3657 27.0004Z" fill="white"/>
<path d="M63.0599 31.6606H54.6841V32.0786H63.0599V31.6606Z" fill="#CA005D"/>
<path d="M63.0599 33.3904H54.6841V33.8083H63.0599V33.3904Z" fill="#CA005D"/>
<path d="M24.5342 17.8071C27.568 20.0495 28.887 20.3133 31.5251 23.8747C35.4866 29.2228 33.5037 34.1633 32.7122 37.1971C31.9208 40.2309 27.4361 38.9118 27.4361 36.4056C27.4361 33.8994 29.0189 31.3932 33.2399 33.3718C36.8801 35.0782 37.8565 46.4255 42.8689 47.3537C45.6389 47.8667 46.9139 46.0346 47.8812 43.9242" stroke="#790038" stroke-width="0.5" stroke-dasharray="2 2"/>
<path d="M50.8765 42.6563L53.6372 37.7248C53.6372 37.7248 49.5837 41.0743 49.4859 41.1549C49.3887 41.2349 45.8211 46.6011 45.8211 46.6011L44.2056 47.0904L46.7918 47.741L50.8765 42.6569L50.8765 42.6563Z" fill="#FFE2B0"/>
<path d="M46.792 47.7403L48.6486 49.4555L53.6373 37.7247L46.792 47.7403Z" fill="#FFA100"/>
<path d="M43.364 44.3382L45.8216 46.6011L53.6376 37.7249L43.364 44.3382Z" fill="#FFA100"/>
</svg>
