<svg width="40" height="40" viewBox="0 0 40 40" fill="none" xmlns="http://www.w3.org/2000/svg">
<rect width="40" height="40" fill="#E3E8EF"/>
<rect width="360" height="603" transform="translate(-24 -294)" fill="white"/>
<circle cx="20" cy="20" r="20" fill="#FAE6EF"/>
<mask id="path-2-outside-1_1_3" maskUnits="userSpaceOnUse" x="7" y="18.3433" width="19" height="8" fill="black">
<rect fill="white" x="7" y="18.3433" width="19" height="8"/>
<path d="M11.1731 22.4203L13.6986 20.642C14.3617 20.3206 15.1217 20.2617 15.8264 20.4772L24.0251 22.9629C24.1256 22.9934 24.2173 23.0476 24.2925 23.1208C24.3677 23.1941 24.4243 23.2843 24.4574 23.3839C24.4905 23.4836 24.4992 23.5897 24.4828 23.6934C24.4664 23.7971 24.4254 23.8954 24.3631 23.98C24.2992 24.0694 24.2134 24.1409 24.1139 24.1877C24.0144 24.2344 23.9046 24.2549 23.795 24.247L18.6275 23.9203C18.4941 23.9116 18.3628 23.9563 18.2623 24.0445C18.1619 24.1327 18.1006 24.2571 18.092 24.3905C18.0833 24.5238 18.128 24.6552 18.2161 24.7556C18.3043 24.856 18.4288 24.9173 18.5621 24.926L23.7296 25.2498H23.8347C24.1036 25.2498 24.3685 25.1844 24.6066 25.0595C24.8447 24.9345 25.0489 24.7536 25.2018 24.5324C25.3546 24.3111 25.4514 24.0561 25.484 23.7891C25.5165 23.5222 25.4838 23.2514 25.3887 22.9999C25.2983 22.7622 25.1548 22.5484 24.9692 22.3746C24.7836 22.2008 24.5608 22.0717 24.3177 21.9971L16.119 19.5142C15.1568 19.2209 14.1189 19.3073 13.2185 19.7556L13.1531 19.7954L10.6731 21.5425L8.40041 22.088C8.33493 22.1016 8.27283 22.1281 8.21774 22.1661C8.16265 22.204 8.11568 22.2525 8.07957 22.3088C8.04347 22.3651 8.01896 22.428 8.00747 22.4939C7.99599 22.5598 7.99776 22.6273 8.01269 22.6925C8.02761 22.7577 8.0554 22.8192 8.09441 22.8736C8.13342 22.9279 8.18287 22.9739 8.23988 23.0088C8.29688 23.0438 8.36029 23.0671 8.42639 23.0772C8.49249 23.0874 8.55995 23.0843 8.62483 23.0681L10.9998 22.4999C11.0621 22.4848 11.121 22.4578 11.1731 22.4203Z"/>
</mask>
<path d="M11.1731 22.4203L13.6986 20.642C14.3617 20.3206 15.1217 20.2617 15.8264 20.4772L24.0251 22.9629C24.1256 22.9934 24.2173 23.0476 24.2925 23.1208C24.3677 23.1941 24.4243 23.2843 24.4574 23.3839C24.4905 23.4836 24.4992 23.5897 24.4828 23.6934C24.4664 23.7971 24.4254 23.8954 24.3631 23.98C24.2992 24.0694 24.2134 24.1409 24.1139 24.1877C24.0144 24.2344 23.9046 24.2549 23.795 24.247L18.6275 23.9203C18.4941 23.9116 18.3628 23.9563 18.2623 24.0445C18.1619 24.1327 18.1006 24.2571 18.092 24.3905C18.0833 24.5238 18.128 24.6552 18.2161 24.7556C18.3043 24.856 18.4288 24.9173 18.5621 24.926L23.7296 25.2498H23.8347C24.1036 25.2498 24.3685 25.1844 24.6066 25.0595C24.8447 24.9345 25.0489 24.7536 25.2018 24.5324C25.3546 24.3111 25.4514 24.0561 25.484 23.7891C25.5165 23.5222 25.4838 23.2514 25.3887 22.9999C25.2983 22.7622 25.1548 22.5484 24.9692 22.3746C24.7836 22.2008 24.5608 22.0717 24.3177 21.9971L16.119 19.5142C15.1568 19.2209 14.1189 19.3073 13.2185 19.7556L13.1531 19.7954L10.6731 21.5425L8.40041 22.088C8.33493 22.1016 8.27283 22.1281 8.21774 22.1661C8.16265 22.204 8.11568 22.2525 8.07957 22.3088C8.04347 22.3651 8.01896 22.428 8.00747 22.4939C7.99599 22.5598 7.99776 22.6273 8.01269 22.6925C8.02761 22.7577 8.0554 22.8192 8.09441 22.8736C8.13342 22.9279 8.18287 22.9739 8.23988 23.0088C8.29688 23.0438 8.36029 23.0671 8.42639 23.0772C8.49249 23.0874 8.55995 23.0843 8.62483 23.0681L10.9998 22.4999C11.0621 22.4848 11.121 22.4578 11.1731 22.4203Z" fill="#A2004A"/>
<path d="M11.1731 22.4203L13.6986 20.642C14.3617 20.3206 15.1217 20.2617 15.8264 20.4772L24.0251 22.9629C24.1256 22.9934 24.2173 23.0476 24.2925 23.1208C24.3677 23.1941 24.4243 23.2843 24.4574 23.3839C24.4905 23.4836 24.4992 23.5897 24.4828 23.6934C24.4664 23.7971 24.4254 23.8954 24.3631 23.98C24.2992 24.0694 24.2134 24.1409 24.1139 24.1877C24.0144 24.2344 23.9046 24.2549 23.795 24.247L18.6275 23.9203C18.4941 23.9116 18.3628 23.9563 18.2623 24.0445C18.1619 24.1327 18.1006 24.2571 18.092 24.3905C18.0833 24.5238 18.128 24.6552 18.2161 24.7556C18.3043 24.856 18.4288 24.9173 18.5621 24.926L23.7296 25.2498H23.8347C24.1036 25.2498 24.3685 25.1844 24.6066 25.0595C24.8447 24.9345 25.0489 24.7536 25.2018 24.5324C25.3546 24.3111 25.4514 24.0561 25.484 23.7891C25.5165 23.5222 25.4838 23.2514 25.3887 22.9999C25.2983 22.7622 25.1548 22.5484 24.9692 22.3746C24.7836 22.2008 24.5608 22.0717 24.3177 21.9971L16.119 19.5142C15.1568 19.2209 14.1189 19.3073 13.2185 19.7556L13.1531 19.7954L10.6731 21.5425L8.40041 22.088C8.33493 22.1016 8.27283 22.1281 8.21774 22.1661C8.16265 22.204 8.11568 22.2525 8.07957 22.3088C8.04347 22.3651 8.01896 22.428 8.00747 22.4939C7.99599 22.5598 7.99776 22.6273 8.01269 22.6925C8.02761 22.7577 8.0554 22.8192 8.09441 22.8736C8.13342 22.9279 8.18287 22.9739 8.23988 23.0088C8.29688 23.0438 8.36029 23.0671 8.42639 23.0772C8.49249 23.0874 8.55995 23.0843 8.62483 23.0681L10.9998 22.4999C11.0621 22.4848 11.121 22.4578 11.1731 22.4203Z" stroke="#A2004A" stroke-width="0.4" mask="url(#path-2-outside-1_1_3)"/>
<mask id="path-3-outside-2_1_3" maskUnits="userSpaceOnUse" x="7.30957" y="20.2588" width="26" height="11" fill="black">
<rect fill="white" x="7.30957" y="20.2588" width="26" height="11"/>
<path d="M32.7686 22.3234C32.5609 21.9062 32.2087 21.5788 31.7775 21.4021C31.3463 21.2255 30.8656 21.2116 30.4249 21.3632L25.2034 23.1614C25.1407 23.1825 25.0828 23.2159 25.033 23.2595C24.9833 23.3032 24.9427 23.3563 24.9136 23.4157C24.8846 23.4752 24.8676 23.5398 24.8637 23.6059C24.8598 23.672 24.8691 23.7382 24.8909 23.8006C24.9348 23.9264 25.0266 24.0298 25.1463 24.0883C25.266 24.1468 25.4039 24.1557 25.5301 24.1131L30.7544 22.3149C30.9697 22.2443 31.2035 22.2564 31.4103 22.3488C31.6171 22.4412 31.7822 22.6073 31.8733 22.8147C31.9644 23.022 31.9751 23.2559 31.9032 23.4707C31.8313 23.6855 31.6821 23.8659 31.4845 23.9768L21.9819 29.1102C21.7047 29.261 21.3978 29.3496 21.0829 29.3697C20.7679 29.3898 20.4523 29.341 20.1581 29.2266C11.5588 25.8517 11.2918 25.8574 11.1299 25.8546C11.0622 25.8571 10.9957 25.8726 10.9338 25.9L8.58731 26.954C8.47154 27.0119 8.38259 27.1123 8.33897 27.2342C8.29535 27.3561 8.30043 27.4901 8.35314 27.6083C8.40586 27.7266 8.50215 27.8199 8.62197 27.869C8.74179 27.918 8.8759 27.9189 8.99639 27.8716L11.1895 26.8915C11.7833 27.0733 14.2917 28.0079 19.7916 30.1613C20.2209 30.3315 20.6824 30.4052 21.1434 30.3772C21.6044 30.3492 22.0536 30.2202 22.4592 29.9994L31.9618 24.8631C32.3998 24.6275 32.7289 24.2306 32.8795 23.7566C33.0301 23.2826 32.9903 22.7686 32.7686 22.3234Z"/>
</mask>
<path d="M32.7686 22.3234C32.5609 21.9062 32.2087 21.5788 31.7775 21.4021C31.3463 21.2255 30.8656 21.2116 30.4249 21.3632L25.2034 23.1614C25.1407 23.1825 25.0828 23.2159 25.033 23.2595C24.9833 23.3032 24.9427 23.3563 24.9136 23.4157C24.8846 23.4752 24.8676 23.5398 24.8637 23.6059C24.8598 23.672 24.8691 23.7382 24.8909 23.8006C24.9348 23.9264 25.0266 24.0298 25.1463 24.0883C25.266 24.1468 25.4039 24.1557 25.5301 24.1131L30.7544 22.3149C30.9697 22.2443 31.2035 22.2564 31.4103 22.3488C31.6171 22.4412 31.7822 22.6073 31.8733 22.8147C31.9644 23.022 31.9751 23.2559 31.9032 23.4707C31.8313 23.6855 31.6821 23.8659 31.4845 23.9768L21.9819 29.1102C21.7047 29.261 21.3978 29.3496 21.0829 29.3697C20.7679 29.3898 20.4523 29.341 20.1581 29.2266C11.5588 25.8517 11.2918 25.8574 11.1299 25.8546C11.0622 25.8571 10.9957 25.8726 10.9338 25.9L8.58731 26.954C8.47154 27.0119 8.38259 27.1123 8.33897 27.2342C8.29535 27.3561 8.30043 27.4901 8.35314 27.6083C8.40586 27.7266 8.50215 27.8199 8.62197 27.869C8.74179 27.918 8.8759 27.9189 8.99639 27.8716L11.1895 26.8915C11.7833 27.0733 14.2917 28.0079 19.7916 30.1613C20.2209 30.3315 20.6824 30.4052 21.1434 30.3772C21.6044 30.3492 22.0536 30.2202 22.4592 29.9994L31.9618 24.8631C32.3998 24.6275 32.7289 24.2306 32.8795 23.7566C33.0301 23.2826 32.9903 22.7686 32.7686 22.3234Z" fill="#A2004A"/>
<path d="M32.7686 22.3234C32.5609 21.9062 32.2087 21.5788 31.7775 21.4021C31.3463 21.2255 30.8656 21.2116 30.4249 21.3632L25.2034 23.1614C25.1407 23.1825 25.0828 23.2159 25.033 23.2595C24.9833 23.3032 24.9427 23.3563 24.9136 23.4157C24.8846 23.4752 24.8676 23.5398 24.8637 23.6059C24.8598 23.672 24.8691 23.7382 24.8909 23.8006C24.9348 23.9264 25.0266 24.0298 25.1463 24.0883C25.266 24.1468 25.4039 24.1557 25.5301 24.1131L30.7544 22.3149C30.9697 22.2443 31.2035 22.2564 31.4103 22.3488C31.6171 22.4412 31.7822 22.6073 31.8733 22.8147C31.9644 23.022 31.9751 23.2559 31.9032 23.4707C31.8313 23.6855 31.6821 23.8659 31.4845 23.9768L21.9819 29.1102C21.7047 29.261 21.3978 29.3496 21.0829 29.3697C20.7679 29.3898 20.4523 29.341 20.1581 29.2266C11.5588 25.8517 11.2918 25.8574 11.1299 25.8546C11.0622 25.8571 10.9957 25.8726 10.9338 25.9L8.58731 26.954C8.47154 27.0119 8.38259 27.1123 8.33897 27.2342C8.29535 27.3561 8.30043 27.4901 8.35314 27.6083C8.40586 27.7266 8.50215 27.8199 8.62197 27.869C8.74179 27.918 8.8759 27.9189 8.99639 27.8716L11.1895 26.8915C11.7833 27.0733 14.2917 28.0079 19.7916 30.1613C20.2209 30.3315 20.6824 30.4052 21.1434 30.3772C21.6044 30.3492 22.0536 30.2202 22.4592 29.9994L31.9618 24.8631C32.3998 24.6275 32.7289 24.2306 32.8795 23.7566C33.0301 23.2826 32.9903 22.7686 32.7686 22.3234Z" stroke="#A2004A" stroke-width="0.4" mask="url(#path-3-outside-2_1_3)"/>
<mask id="path-4-outside-3_1_3" maskUnits="userSpaceOnUse" x="14.6615" y="9" width="16" height="13" fill="black">
<rect fill="white" x="14.6615" y="9" width="16" height="13"/>
<path d="M16.3374 18.634C16.4669 18.6124 16.5827 18.5407 16.6598 18.4344C16.7369 18.328 16.769 18.1957 16.7493 18.0659C16.6948 17.7306 16.6672 17.3914 16.667 17.0517C16.6657 16.0931 16.8918 15.1479 17.3268 14.2937C17.7617 13.4396 18.3932 12.7007 19.1692 12.138C19.9452 11.5753 20.8436 11.2047 21.7906 11.0566C22.7377 10.9086 23.7064 10.9873 24.6171 11.2864C25.5278 11.5855 26.3546 12.0963 27.0295 12.777C27.7044 13.4577 28.2082 14.2888 28.4995 15.2021C28.7907 16.1153 28.8612 17.0846 28.7051 18.0304C28.549 18.9761 28.1707 19.8713 27.6014 20.6425C27.5465 20.7176 27.5135 20.8063 27.5058 20.8989C27.4981 20.9916 27.516 21.0845 27.5577 21.1676C27.5994 21.2507 27.6632 21.3207 27.7421 21.3699C27.8209 21.4191 27.9118 21.4456 28.0048 21.4465C28.0834 21.4467 28.161 21.4283 28.2311 21.3927C28.3012 21.3572 28.3619 21.3055 28.4082 21.2419C29.0985 20.3033 29.5457 19.2083 29.71 18.0548C29.8743 16.9013 29.7505 15.725 29.3496 14.631C28.9488 13.5369 28.2834 12.5591 27.4128 11.7847C26.5422 11.0103 25.4935 10.4635 24.3602 10.1929C23.2268 9.92239 22.0442 9.93658 20.9177 10.2342C19.7912 10.5319 18.7558 11.1037 17.9041 11.8987C17.0523 12.6938 16.4105 13.6873 16.036 14.7906C15.6616 15.894 15.566 17.0729 15.7579 18.2221C15.7685 18.2874 15.792 18.3499 15.827 18.406C15.862 18.4621 15.9078 18.5107 15.9617 18.549C16.0156 18.5874 16.0765 18.6146 16.141 18.6292C16.2055 18.6438 16.2723 18.6454 16.3374 18.634Z"/>
</mask>
<path d="M16.3374 18.634C16.4669 18.6124 16.5827 18.5407 16.6598 18.4344C16.7369 18.328 16.769 18.1957 16.7493 18.0659C16.6948 17.7306 16.6672 17.3914 16.667 17.0517C16.6657 16.0931 16.8918 15.1479 17.3268 14.2937C17.7617 13.4396 18.3932 12.7007 19.1692 12.138C19.9452 11.5753 20.8436 11.2047 21.7906 11.0566C22.7377 10.9086 23.7064 10.9873 24.6171 11.2864C25.5278 11.5855 26.3546 12.0963 27.0295 12.777C27.7044 13.4577 28.2082 14.2888 28.4995 15.2021C28.7907 16.1153 28.8612 17.0846 28.7051 18.0304C28.549 18.9761 28.1707 19.8713 27.6014 20.6425C27.5465 20.7176 27.5135 20.8063 27.5058 20.8989C27.4981 20.9916 27.516 21.0845 27.5577 21.1676C27.5994 21.2507 27.6632 21.3207 27.7421 21.3699C27.8209 21.4191 27.9118 21.4456 28.0048 21.4465C28.0834 21.4467 28.161 21.4283 28.2311 21.3927C28.3012 21.3572 28.3619 21.3055 28.4082 21.2419C29.0985 20.3033 29.5457 19.2083 29.71 18.0548C29.8743 16.9013 29.7505 15.725 29.3496 14.631C28.9488 13.5369 28.2834 12.5591 27.4128 11.7847C26.5422 11.0103 25.4935 10.4635 24.3602 10.1929C23.2268 9.92239 22.0442 9.93658 20.9177 10.2342C19.7912 10.5319 18.7558 11.1037 17.9041 11.8987C17.0523 12.6938 16.4105 13.6873 16.036 14.7906C15.6616 15.894 15.566 17.0729 15.7579 18.2221C15.7685 18.2874 15.792 18.3499 15.827 18.406C15.862 18.4621 15.9078 18.5107 15.9617 18.549C16.0156 18.5874 16.0765 18.6146 16.141 18.6292C16.2055 18.6438 16.2723 18.6454 16.3374 18.634Z" fill="#A2004A"/>
<path d="M16.3374 18.634C16.4669 18.6124 16.5827 18.5407 16.6598 18.4344C16.7369 18.328 16.769 18.1957 16.7493 18.0659C16.6948 17.7306 16.6672 17.3914 16.667 17.0517C16.6657 16.0931 16.8918 15.1479 17.3268 14.2937C17.7617 13.4396 18.3932 12.7007 19.1692 12.138C19.9452 11.5753 20.8436 11.2047 21.7906 11.0566C22.7377 10.9086 23.7064 10.9873 24.6171 11.2864C25.5278 11.5855 26.3546 12.0963 27.0295 12.777C27.7044 13.4577 28.2082 14.2888 28.4995 15.2021C28.7907 16.1153 28.8612 17.0846 28.7051 18.0304C28.549 18.9761 28.1707 19.8713 27.6014 20.6425C27.5465 20.7176 27.5135 20.8063 27.5058 20.8989C27.4981 20.9916 27.516 21.0845 27.5577 21.1676C27.5994 21.2507 27.6632 21.3207 27.7421 21.3699C27.8209 21.4191 27.9118 21.4456 28.0048 21.4465C28.0834 21.4467 28.161 21.4283 28.2311 21.3927C28.3012 21.3572 28.3619 21.3055 28.4082 21.2419C29.0985 20.3033 29.5457 19.2083 29.71 18.0548C29.8743 16.9013 29.7505 15.725 29.3496 14.631C28.9488 13.5369 28.2834 12.5591 27.4128 11.7847C26.5422 11.0103 25.4935 10.4635 24.3602 10.1929C23.2268 9.92239 22.0442 9.93658 20.9177 10.2342C19.7912 10.5319 18.7558 11.1037 17.9041 11.8987C17.0523 12.6938 16.4105 13.6873 16.036 14.7906C15.6616 15.894 15.566 17.0729 15.7579 18.2221C15.7685 18.2874 15.792 18.3499 15.827 18.406C15.862 18.4621 15.9078 18.5107 15.9617 18.549C16.0156 18.5874 16.0765 18.6146 16.141 18.6292C16.2055 18.6438 16.2723 18.6454 16.3374 18.634Z" stroke="#A2004A" stroke-width="0.4" mask="url(#path-4-outside-3_1_3)"/>
<mask id="path-5-outside-4_1_3" maskUnits="userSpaceOnUse" x="18.5182" y="13.3906" width="9" height="7" fill="black">
<rect fill="white" x="18.5182" y="13.3906" width="9" height="7"/>
<path d="M20.5548 17.7587C20.5548 17.9224 20.5843 18.061 20.6434 18.1746C20.7025 18.2883 20.7798 18.3814 20.8752 18.4542C20.9752 18.5224 21.0911 18.5746 21.223 18.611C21.3548 18.6428 21.4911 18.6587 21.632 18.6587C21.7275 18.6587 21.8298 18.6519 21.9389 18.6383C22.0479 18.6201 22.1502 18.5883 22.2457 18.5428C22.3411 18.4974 22.4207 18.436 22.4843 18.3587C22.5479 18.2769 22.5797 18.1746 22.5797 18.0519C22.5797 17.9201 22.5366 17.8133 22.4502 17.7315C22.3684 17.6496 22.2593 17.5815 22.1229 17.5269C21.9866 17.4724 21.832 17.4247 21.6593 17.3837C21.4866 17.3428 21.3116 17.2974 21.1343 17.2474C20.9525 17.2019 20.7752 17.1474 20.6025 17.0837C20.4298 17.0156 20.2753 16.9292 20.1389 16.8247C20.0025 16.7201 19.8912 16.5906 19.8048 16.436C19.723 16.2769 19.6821 16.086 19.6821 15.8633C19.6821 15.6133 19.7344 15.3974 19.8389 15.2156C19.948 15.0292 20.0889 14.8747 20.2616 14.752C20.4343 14.6293 20.6298 14.5383 20.848 14.4793C21.0661 14.4202 21.2843 14.3906 21.5025 14.3906C21.757 14.3906 22.0002 14.4202 22.232 14.4793C22.4684 14.5338 22.6775 14.6247 22.8593 14.752C23.0411 14.8793 23.1843 15.0429 23.2888 15.2429C23.3979 15.4383 23.4525 15.677 23.4525 15.9588H22.4161C22.407 15.8133 22.3752 15.6929 22.3207 15.5974C22.2707 15.502 22.2025 15.427 22.1161 15.3724C22.0298 15.3179 21.9298 15.2792 21.8161 15.2565C21.707 15.2338 21.5866 15.2224 21.4548 15.2224C21.3684 15.2224 21.282 15.2315 21.1957 15.2497C21.1093 15.2679 21.0298 15.2997 20.9571 15.3451C20.8889 15.3906 20.8321 15.4474 20.7866 15.5156C20.7412 15.5838 20.7184 15.6701 20.7184 15.7747C20.7184 15.8701 20.7366 15.9474 20.773 16.0065C20.8093 16.0656 20.8798 16.1201 20.9843 16.1701C21.0934 16.2201 21.2411 16.2701 21.4275 16.3201C21.6184 16.3701 21.8661 16.4338 22.1707 16.511C22.2616 16.5292 22.3866 16.5633 22.5457 16.6133C22.7093 16.6588 22.8707 16.7338 23.0297 16.8383C23.1888 16.9428 23.3252 17.0837 23.4388 17.261C23.557 17.4337 23.6161 17.6565 23.6161 17.9292C23.6161 18.1519 23.5729 18.3587 23.4865 18.5496C23.4002 18.7405 23.2706 18.9064 23.0979 19.0473C22.9297 19.1837 22.7184 19.2905 22.4638 19.3678C22.2138 19.4451 21.9229 19.4837 21.5911 19.4837C21.323 19.4837 21.0616 19.4496 20.8071 19.3814C20.5571 19.3178 20.3343 19.2155 20.1389 19.0746C19.948 18.9337 19.7957 18.7542 19.6821 18.536C19.5684 18.3178 19.5139 18.0587 19.5185 17.7587H20.5548Z"/>
<path d="M25.6098 14.3906H26.387L24.4848 19.4837H23.7144L25.6098 14.3906Z"/>
</mask>
<path d="M20.5548 17.7587C20.5548 17.9224 20.5843 18.061 20.6434 18.1746C20.7025 18.2883 20.7798 18.3814 20.8752 18.4542C20.9752 18.5224 21.0911 18.5746 21.223 18.611C21.3548 18.6428 21.4911 18.6587 21.632 18.6587C21.7275 18.6587 21.8298 18.6519 21.9389 18.6383C22.0479 18.6201 22.1502 18.5883 22.2457 18.5428C22.3411 18.4974 22.4207 18.436 22.4843 18.3587C22.5479 18.2769 22.5797 18.1746 22.5797 18.0519C22.5797 17.9201 22.5366 17.8133 22.4502 17.7315C22.3684 17.6496 22.2593 17.5815 22.1229 17.5269C21.9866 17.4724 21.832 17.4247 21.6593 17.3837C21.4866 17.3428 21.3116 17.2974 21.1343 17.2474C20.9525 17.2019 20.7752 17.1474 20.6025 17.0837C20.4298 17.0156 20.2753 16.9292 20.1389 16.8247C20.0025 16.7201 19.8912 16.5906 19.8048 16.436C19.723 16.2769 19.6821 16.086 19.6821 15.8633C19.6821 15.6133 19.7344 15.3974 19.8389 15.2156C19.948 15.0292 20.0889 14.8747 20.2616 14.752C20.4343 14.6293 20.6298 14.5383 20.848 14.4793C21.0661 14.4202 21.2843 14.3906 21.5025 14.3906C21.757 14.3906 22.0002 14.4202 22.232 14.4793C22.4684 14.5338 22.6775 14.6247 22.8593 14.752C23.0411 14.8793 23.1843 15.0429 23.2888 15.2429C23.3979 15.4383 23.4525 15.677 23.4525 15.9588H22.4161C22.407 15.8133 22.3752 15.6929 22.3207 15.5974C22.2707 15.502 22.2025 15.427 22.1161 15.3724C22.0298 15.3179 21.9298 15.2792 21.8161 15.2565C21.707 15.2338 21.5866 15.2224 21.4548 15.2224C21.3684 15.2224 21.282 15.2315 21.1957 15.2497C21.1093 15.2679 21.0298 15.2997 20.9571 15.3451C20.8889 15.3906 20.8321 15.4474 20.7866 15.5156C20.7412 15.5838 20.7184 15.6701 20.7184 15.7747C20.7184 15.8701 20.7366 15.9474 20.773 16.0065C20.8093 16.0656 20.8798 16.1201 20.9843 16.1701C21.0934 16.2201 21.2411 16.2701 21.4275 16.3201C21.6184 16.3701 21.8661 16.4338 22.1707 16.511C22.2616 16.5292 22.3866 16.5633 22.5457 16.6133C22.7093 16.6588 22.8707 16.7338 23.0297 16.8383C23.1888 16.9428 23.3252 17.0837 23.4388 17.261C23.557 17.4337 23.6161 17.6565 23.6161 17.9292C23.6161 18.1519 23.5729 18.3587 23.4865 18.5496C23.4002 18.7405 23.2706 18.9064 23.0979 19.0473C22.9297 19.1837 22.7184 19.2905 22.4638 19.3678C22.2138 19.4451 21.9229 19.4837 21.5911 19.4837C21.323 19.4837 21.0616 19.4496 20.8071 19.3814C20.5571 19.3178 20.3343 19.2155 20.1389 19.0746C19.948 18.9337 19.7957 18.7542 19.6821 18.536C19.5684 18.3178 19.5139 18.0587 19.5185 17.7587H20.5548Z" fill="#A2004A"/>
<path d="M25.6098 14.3906H26.387L24.4848 19.4837H23.7144L25.6098 14.3906Z" fill="#A2004A"/>
<path d="M20.5548 17.7587C20.5548 17.9224 20.5843 18.061 20.6434 18.1746C20.7025 18.2883 20.7798 18.3814 20.8752 18.4542C20.9752 18.5224 21.0911 18.5746 21.223 18.611C21.3548 18.6428 21.4911 18.6587 21.632 18.6587C21.7275 18.6587 21.8298 18.6519 21.9389 18.6383C22.0479 18.6201 22.1502 18.5883 22.2457 18.5428C22.3411 18.4974 22.4207 18.436 22.4843 18.3587C22.5479 18.2769 22.5797 18.1746 22.5797 18.0519C22.5797 17.9201 22.5366 17.8133 22.4502 17.7315C22.3684 17.6496 22.2593 17.5815 22.1229 17.5269C21.9866 17.4724 21.832 17.4247 21.6593 17.3837C21.4866 17.3428 21.3116 17.2974 21.1343 17.2474C20.9525 17.2019 20.7752 17.1474 20.6025 17.0837C20.4298 17.0156 20.2753 16.9292 20.1389 16.8247C20.0025 16.7201 19.8912 16.5906 19.8048 16.436C19.723 16.2769 19.6821 16.086 19.6821 15.8633C19.6821 15.6133 19.7344 15.3974 19.8389 15.2156C19.948 15.0292 20.0889 14.8747 20.2616 14.752C20.4343 14.6293 20.6298 14.5383 20.848 14.4793C21.0661 14.4202 21.2843 14.3906 21.5025 14.3906C21.757 14.3906 22.0002 14.4202 22.232 14.4793C22.4684 14.5338 22.6775 14.6247 22.8593 14.752C23.0411 14.8793 23.1843 15.0429 23.2888 15.2429C23.3979 15.4383 23.4525 15.677 23.4525 15.9588H22.4161C22.407 15.8133 22.3752 15.6929 22.3207 15.5974C22.2707 15.502 22.2025 15.427 22.1161 15.3724C22.0298 15.3179 21.9298 15.2792 21.8161 15.2565C21.707 15.2338 21.5866 15.2224 21.4548 15.2224C21.3684 15.2224 21.282 15.2315 21.1957 15.2497C21.1093 15.2679 21.0298 15.2997 20.9571 15.3451C20.8889 15.3906 20.8321 15.4474 20.7866 15.5156C20.7412 15.5838 20.7184 15.6701 20.7184 15.7747C20.7184 15.8701 20.7366 15.9474 20.773 16.0065C20.8093 16.0656 20.8798 16.1201 20.9843 16.1701C21.0934 16.2201 21.2411 16.2701 21.4275 16.3201C21.6184 16.3701 21.8661 16.4338 22.1707 16.511C22.2616 16.5292 22.3866 16.5633 22.5457 16.6133C22.7093 16.6588 22.8707 16.7338 23.0297 16.8383C23.1888 16.9428 23.3252 17.0837 23.4388 17.261C23.557 17.4337 23.6161 17.6565 23.6161 17.9292C23.6161 18.1519 23.5729 18.3587 23.4865 18.5496C23.4002 18.7405 23.2706 18.9064 23.0979 19.0473C22.9297 19.1837 22.7184 19.2905 22.4638 19.3678C22.2138 19.4451 21.9229 19.4837 21.5911 19.4837C21.323 19.4837 21.0616 19.4496 20.8071 19.3814C20.5571 19.3178 20.3343 19.2155 20.1389 19.0746C19.948 18.9337 19.7957 18.7542 19.6821 18.536C19.5684 18.3178 19.5139 18.0587 19.5185 17.7587H20.5548Z" stroke="#A2004A" stroke-width="0.4" mask="url(#path-5-outside-4_1_3)"/>
<path d="M25.6098 14.3906H26.387L24.4848 19.4837H23.7144L25.6098 14.3906Z" stroke="#A2004A" stroke-width="0.4" mask="url(#path-5-outside-4_1_3)"/>
</svg>
