<svg width="24" height="24" viewBox="0 0 24 24" fill="none" xmlns="http://www.w3.org/2000/svg">
<path d="M3.65 8.58388C3.65 8.61041 3.66054 8.63584 3.67929 8.65459C3.69804 8.67335 3.72348 8.68388 3.75 8.68388L17.4939 8.68388L14.2393 11.5999C14.2181 11.6189 14.206 11.646 14.206 11.6744C14.206 11.7028 14.2181 11.7299 14.2393 11.7489L15.1608 12.5745C15.1988 12.6085 15.2563 12.6085 15.2942 12.5745L20.3167 8.07448C20.3379 8.05551 20.35 8.02843 20.35 8C20.35 7.97157 20.3379 7.94449 20.3167 7.92552L15.2942 3.42552C15.2563 3.39149 15.1988 3.39149 15.1608 3.42552L14.2393 4.25114C14.2181 4.2701 14.206 4.29719 14.206 4.32561C14.206 4.35404 14.2181 4.38112 14.2393 4.40009L17.4939 7.31612L3.75 7.31612C3.69477 7.31612 3.65 7.36089 3.65 7.41612L3.65 8.58388Z" stroke-width="0.2" stroke-linejoin="round"/>
<path d="M20.35 15.4161C20.35 15.3609 20.3052 15.3161 20.25 15.3161L7.00609 15.3161L10.2607 12.4001C10.2819 12.3811 10.294 12.354 10.294 12.3256C10.294 12.2972 10.2819 12.2701 10.2607 12.2511L9.33921 11.4255C9.30123 11.3915 9.24373 11.3915 9.20575 11.4255L4.18327 15.9255C4.1621 15.9445 4.15 15.9716 4.15 16C4.15 16.0284 4.1621 16.0555 4.18327 16.0745L9.20575 20.5745C9.24373 20.6085 9.30123 20.6085 9.33921 20.5745L10.2607 19.7489C10.2819 19.7299 10.294 19.7028 10.294 19.6744C10.294 19.646 10.2819 19.6189 10.2607 19.5999L7.00609 16.6839H20.25C20.3052 16.6839 20.35 16.6391 20.35 16.5839V15.4161Z" stroke-width="0.2" stroke-linejoin="round"/>
</svg>
