<svg width="24" height="24" viewBox="0 0 24 24" fill="none" xmlns="http://www.w3.org/2000/svg">
<g clip-path="url(#clip0_6990_33820)">
<path d="M10 5.00348C10 4.47305 10.2107 3.96434 10.5858 3.58927C10.9609 3.21419 11.4696 3.00348 12 3.00348C12.5304 3.00348 13.0391 3.21419 13.4142 3.58927C13.7893 3.96434 14 4.47305 14 5.00348C15.1484 5.54651 16.1274 6.39181 16.8321 7.44878C17.5367 8.50575 17.9404 9.73455 18 11.0035V14.0035C18.0753 14.6252 18.2954 15.2205 18.6428 15.7416C18.9902 16.2627 19.4551 16.6949 20 17.0035H4C4.54494 16.6949 5.00981 16.2627 5.35719 15.7416C5.70457 15.2205 5.92474 14.6252 6 14.0035V11.0035C6.05956 9.73455 6.4633 8.50575 7.16795 7.44878C7.8726 6.39181 8.85159 5.54651 10 5.00348Z" stroke="#0165AA" stroke-width="2" stroke-linecap="round" stroke-linejoin="round"/>
<path d="M9 17.0035V18.0035C9 18.7991 9.31607 19.5622 9.87868 20.1248C10.4413 20.6874 11.2044 21.0035 12 21.0035C12.7956 21.0035 13.5587 20.6874 14.1213 20.1248C14.6839 19.5622 15 18.7991 15 18.0035V17.0035" stroke="#0165AA" stroke-width="2" stroke-linecap="round" stroke-linejoin="round"/>
</g>
<defs>
<clipPath id="clip0_6990_33820">
<rect width="24" height="24" fill="white" transform="translate(0 0.003479)"/>
</clipPath>
</defs>
</svg>