<svg width="22" height="18" viewBox="0 0 22 18" fill="none" xmlns="http://www.w3.org/2000/svg">
<path d="M5.20202 4.51438C5.20202 4.51438 2.48619 7.89672 2.10512 12.7709C0.679054 15.1374 0.444551 16.9148 2.39386 17.0606C4.34462 17.2063 4.99097 16.9802 4.99097 16.9802C4.99097 16.9802 7.07805 17.8295 11.0807 17.6957C15.0834 17.5603 17.5618 17.0918 17.5618 17.0918C17.5618 17.0918 19.3557 17.6421 20.6528 17.0487C21.9514 16.4552 19.3543 13.7258 19.3543 13.7258C19.3543 13.7258 18.4749 7.8283 16.8422 5.83073C15.2094 3.83316 14.3623 3.85249 14.3623 3.85249C14.3623 3.85249 8.38247 1.75527 5.20056 4.51587L5.20202 4.51438Z" fill="#A2004A"/>
<path d="M6.44782 4.51422C6.44782 4.51422 5.22255 5.49144 4.01192 10.3984C3.68802 11.7132 4.01192 13.4416 4.01192 13.4416C4.01192 13.4416 2.12564 14.9528 2.52137 15.4763C3.02408 16.1427 3.72173 15.4272 4.84588 15.7396C8.95993 16.8789 15.7297 16.3598 17.0327 15.9449C20.2366 16.5606 19.388 14.514 17.7289 13.7673C17.5149 11.9928 16.4552 5.69075 13.9695 4.65255C11.4838 3.61435 7.22901 3.81069 6.44782 4.51422Z" fill="#CA005D"/>
<path d="M3.44025 2.64741C3.11487 3.10701 3.6938 4.13331 4.94986 4.47095C6.20591 4.80859 7.96468 5.32174 10.2687 5.4913C12.5727 5.65938 16.5651 5.32323 17.5632 4.51409C18.5613 3.70494 18.8573 3.19923 18.3517 2.58047C16.5577 0.389539 6.20738 -1.25998 3.44025 2.64889V2.64741Z" fill="#A2004A"/>
<path d="M4.27999 2.58057C4.27999 2.58057 3.86082 2.58355 4.0704 3.1443C4.27999 3.70505 9.36577 5.87664 15.073 4.51419C16.4668 4.08731 17.5558 3.78983 17.8064 3.36443C18.057 2.93904 17.2201 2.21765 17.2201 2.21765C17.2201 2.21765 17.4708 2.81112 17.0941 3.08778C16.7174 3.36443 8.1786 5.65948 4.27852 2.58057H4.27999Z" fill="#CA005D"/>
<path d="M16.2147 1.9973C16.2147 1.9973 12.854 0.904068 10.1205 1.03347C7.38858 1.16287 4.96881 2.02556 5.00105 2.3751C5.0333 2.72464 5.24142 3.08013 8.32513 3.47577C11.4088 3.87291 14.6201 3.3672 15.3866 3.1426C16.1517 2.91651 17.031 2.60714 16.2147 1.9973Z" fill="#4C4152"/>
<path d="M4.5306 14.2045C3.89597 14.1123 2.29549 14.7876 3.09573 15.2323C3.89597 15.677 5.71337 14.3771 4.5306 14.2045Z" fill="#790038"/>
<path d="M17.4094 15.5088C17.4592 15.5475 17.9751 15.8599 18.4456 15.5088C18.916 15.1578 18.5188 14.4766 17.8534 14.1955C17.188 13.9144 16.4347 14.7443 17.4079 15.5088H17.4094Z" fill="#790038"/>
<path d="M8.35304 10.9278C8.37942 11.1568 8.42485 11.2699 8.52305 11.3978C8.67988 11.5882 8.95542 11.6953 9.28812 11.6953C9.7923 11.6953 10.0928 11.4796 10.0928 11.1241C10.0928 10.9278 9.98723 10.7567 9.81721 10.6794C9.67944 10.6154 9.51676 10.5708 8.83523 10.4191C8.23285 10.2927 8.02327 10.2168 7.78144 10.0517C7.36959 9.77206 7.14681 9.34816 7.14681 8.83352C7.14681 7.8563 7.95878 7.242 9.24854 7.242C10.0796 7.242 10.7142 7.48891 11.0689 7.96488C11.233 8.1746 11.3107 8.36499 11.3957 8.72643L10.0077 8.87219C9.9286 8.46018 9.6941 8.28913 9.19578 8.28913C8.79566 8.28913 8.50253 8.49885 8.50253 8.79038C8.50253 8.96738 8.60073 9.10125 8.81032 9.19644C8.89826 9.23511 9.19871 9.30502 9.71315 9.40616C10.2115 9.50731 10.5251 9.61589 10.7743 9.7676C11.2448 10.0532 11.4807 10.4786 11.4807 11.0616C11.4807 11.5376 11.3239 11.9437 11.022 12.2292C10.6424 12.5847 10.0664 12.7677 9.29984 12.7677C8.7429 12.7677 8.19328 12.6531 7.84006 12.4568C7.51322 12.2798 7.26993 12.0061 7.13362 11.6447C7.06767 11.493 7.03543 11.3472 6.98999 11.0542L8.35157 10.9278H8.35304Z" fill="#E6FAEC"/>
<path d="M15.01 7.37006L12.6605 13.5546H11.4895L13.8463 7.37006H15.0114H15.01Z" fill="#E6FAEC"/>
</svg>
