<svg width="36" height="32" viewBox="0 0 36 32" fill="none" xmlns="http://www.w3.org/2000/svg">
<path d="M24.0716 12.4149H23.1296H20.5254H20.2485H16.925C16.8499 12.4149 16.7974 12.4165 16.749 12.4326C16.5456 12.5021 16.41 12.7127 16.4423 12.9121C16.481 13.1551 16.6529 13.3012 16.9032 13.3012C17.5708 13.3012 18.2376 13.3012 18.9052 13.3012H20.7409C21.0896 13.3012 21.4384 13.3012 21.7871 13.3012H24.0708C24.3695 13.3012 24.5705 13.1228 24.5713 12.8572C24.5713 12.7386 24.5302 12.6344 24.4519 12.5553C24.3614 12.4641 24.2266 12.4141 24.0724 12.4141L24.0716 12.4149Z" fill="#222D42"/>
<path d="M24.0716 15.5555H23.1296H20.5254H20.2485H16.925C16.8499 15.5555 16.7974 15.5571 16.749 15.5733C16.5456 15.6427 16.41 15.8534 16.4423 16.0528C16.481 16.2958 16.6529 16.4419 16.9032 16.4419C17.5708 16.4419 18.2376 16.4419 18.9052 16.4419H20.7409C21.0896 16.4419 21.4384 16.4419 21.7871 16.4419H24.0708C24.3695 16.4419 24.5705 16.2635 24.5713 15.9979C24.5713 15.8792 24.5302 15.7751 24.4519 15.696C24.3614 15.6047 24.2266 15.5547 24.0724 15.5547L24.0716 15.5555Z" fill="#222D42"/>
<path d="M24.0716 18.6961H23.1296H20.5254H20.2485H16.925C16.8499 18.6961 16.7974 18.6977 16.749 18.7139C16.5456 18.7833 16.41 18.994 16.4423 19.1934C16.481 19.4364 16.6529 19.5825 16.9032 19.5825C17.5708 19.5825 18.2376 19.5825 18.9052 19.5825H20.7409C21.0896 19.5825 21.4384 19.5825 21.7871 19.5825H24.0708C24.3695 19.5825 24.5705 19.4041 24.5713 19.1385C24.5713 19.0198 24.5302 18.9157 24.4519 18.8366C24.3614 18.7454 24.2266 18.6953 24.0724 18.6953L24.0716 18.6961Z" fill="#222D42"/>
<path d="M25.7637 7.82812H6.2361C5.00261 7.82812 4 8.83155 4 10.0642V21.9333C4 23.1668 5.00342 24.1694 6.2361 24.1694H25.7637C26.9971 24.1694 27.9998 23.166 27.9998 21.9333V10.0642C27.9998 8.83074 26.9963 7.82812 25.7637 7.82812ZM27.1118 21.9333C27.1118 22.6768 26.5071 23.2815 25.7637 23.2815H6.2361C5.49262 23.2815 4.88798 22.6768 4.88798 21.9333V10.0642C4.88798 9.32074 5.49262 8.71611 6.2361 8.71611H25.7637C26.5071 8.71611 27.1118 9.32074 27.1118 10.0642V21.9333Z" fill="#222D42"/>
<path d="M8.58139 19.9312C8.48775 19.9312 8.3933 19.9312 8.29966 19.9287C7.8815 19.9199 7.54164 19.5776 7.52631 19.1497C7.50935 18.6928 7.51258 18.3441 7.53599 18.0188C7.57393 17.4908 7.82903 17.0331 8.31661 16.6198C8.79451 16.2154 9.36604 15.9611 10.0659 15.844C11.0847 15.6729 12.026 15.8133 12.8623 16.2614C13.4895 16.598 13.8907 17.0412 14.0885 17.6168C14.1499 17.7952 14.1805 17.9784 14.1789 18.1633C14.1781 18.3417 14.1781 18.5193 14.1789 18.6977C14.1789 18.8196 14.1789 18.9415 14.1789 19.0634C14.1781 19.5824 13.831 19.9312 13.316 19.9312C12.2262 19.9312 11.1372 19.9312 10.0482 19.9312H9.89238C9.86493 19.9312 9.83748 19.9295 9.80923 19.9279H9.79228L9.517 19.9271L9.41125 19.9255H9.25949C9.16665 19.9255 9.0722 19.9271 8.97775 19.9279C8.84779 19.9295 8.71459 19.9312 8.58139 19.9312ZM10.8974 16.4817C10.6673 16.4817 10.4292 16.5027 10.183 16.5439C9.61306 16.64 9.15212 16.8418 8.77513 17.1615C8.43608 17.4488 8.26737 17.737 8.24396 18.0688C8.22297 18.3675 8.21974 18.6928 8.23588 19.1239C8.23831 19.182 8.27867 19.2184 8.31499 19.2192C8.53134 19.224 8.75495 19.2216 8.97049 19.2192C9.06655 19.2184 9.16181 19.2167 9.25787 19.2167H9.41609L9.52184 19.2175H9.81084L9.85363 19.22C9.86654 19.2208 9.87946 19.2216 9.89238 19.2216H10.0482C11.1372 19.2216 12.227 19.2216 13.316 19.2216C13.4306 19.2216 13.4693 19.1982 13.4693 19.0617C13.4693 18.9407 13.4693 18.8196 13.4693 18.6985C13.4693 18.5185 13.4693 18.3392 13.4693 18.1592C13.4693 18.0535 13.4532 17.9518 13.4169 17.8476C13.278 17.4432 12.9955 17.1381 12.5265 16.887C12.0211 16.6158 11.4827 16.4817 10.8966 16.4817H10.8974Z" fill="#222D42"/>
<path d="M10.8518 15.4797C9.96862 15.4797 9.19365 14.8719 9.00153 13.9702C8.78841 12.9692 9.43583 11.9738 10.4433 11.7518C11.0681 11.6146 11.6453 11.7688 12.1151 12.1982C12.2273 12.2862 12.3234 12.3952 12.4017 12.5235C12.7617 13.0176 12.8408 13.665 12.6124 14.2608C12.3759 14.8759 11.8608 15.3167 11.2344 15.4418C11.1052 15.4676 10.9769 15.4797 10.851 15.4797H10.8518ZM10.88 12.413C10.7888 12.413 10.6943 12.4234 10.5959 12.4452C9.96781 12.5833 9.56338 13.2016 9.69577 13.8224C9.833 14.4682 10.4481 14.8743 11.0964 14.7451C11.4822 14.6684 11.8019 14.3923 11.9496 14.0065C12.0925 13.6335 12.0449 13.2323 11.8213 12.9336L11.7995 12.9013C11.7632 12.84 11.722 12.7916 11.6719 12.7544L11.6445 12.731C11.416 12.5187 11.1634 12.4138 10.8792 12.4138L10.88 12.413Z" fill="#222D42"/>
<path d="M28 32C30.1217 32 32.1567 31.1571 33.6568 29.6568C35.1571 28.1565 36 26.1217 36 24C36 21.8783 35.1571 19.8433 33.6568 18.3432C32.1565 16.8429 30.1217 16 28 16C25.8783 16 23.8433 16.8429 22.3432 18.3432C20.8429 19.8435 20 21.8783 20 24C20 26.1217 20.8429 28.1567 22.3432 29.6568C23.8435 31.1571 25.8783 32 28 32ZM23.8474 24.2109C23.9836 24.0755 24.1679 23.9994 24.3601 23.9994C24.5523 23.9994 24.7365 24.0755 24.8729 24.2109L26.5455 25.8837L30.7565 21.6727C30.9437 21.5124 31.1994 21.4578 31.4357 21.5277C31.6722 21.5976 31.857 21.7826 31.9269 22.0189C31.9969 22.2553 31.9422 22.511 31.7819 22.6983L27.0545 27.4257L27.0546 27.4256C26.9182 27.5611 26.734 27.637 26.5418 27.637C26.3497 27.637 26.1653 27.5611 26.0291 27.4256L23.8473 25.2437C23.7096 25.1072 23.6321 24.9213 23.6321 24.7274C23.6321 24.5335 23.7096 24.3476 23.8473 24.211L23.8474 24.2109Z" fill="#008428"/>
</svg>
