<svg width="61" height="36" viewBox="0 0 61 36" fill="none" xmlns="http://www.w3.org/2000/svg">
<path d="M33.144 12.3162L33.84 10.6242C34.392 10.9722 35.436 11.3562 36.12 11.3562C36.564 11.3562 36.948 11.2122 36.948 10.6602C36.948 10.1682 36.432 10.0002 35.736 9.79615C34.716 9.48415 33.444 8.99215 33.444 7.38415C33.444 5.77615 34.692 4.87615 36.348 4.87615C37.488 4.87615 38.568 5.38015 39.276 6.06415L38.208 7.42015C37.572 6.95215 36.9 6.60415 36.348 6.60415C35.964 6.60415 35.592 6.78415 35.592 7.22815C35.592 7.73215 36.144 7.91215 36.888 8.15215C37.98 8.50015 39.156 8.98015 39.156 10.5882C39.156 12.2562 37.884 13.1442 36.108 13.1442C34.908 13.1442 33.66 12.6642 33.144 12.3162ZM41.3873 14.4282L39.6953 13.8162L43.1993 3.78415L44.9153 4.38415L41.3873 14.4282ZM50.7247 5.11615C52.5247 5.11615 53.6047 6.29215 53.6047 9.06415C53.6047 11.9442 52.5367 13.1082 50.6527 13.1082C48.7087 13.1082 47.7607 11.8722 47.7607 9.10015C47.7607 6.31615 48.9607 5.11615 50.7247 5.11615ZM50.6767 11.5242C51.2167 11.5242 51.6007 11.0202 51.6007 9.08815C51.6007 7.26415 51.2407 6.74815 50.7007 6.74815C50.1247 6.74815 49.7767 7.30015 49.7767 9.22015C49.7767 10.9482 50.1367 11.5242 50.6767 11.5242Z" fill="#CA005D"/>
<g clip-path="url(#clip0_878_2527)">
<path d="M3.04382 13.94C3.44322 16.5457 1.18102 25.8826 0.577759 28.8733L8.06645 35.8176C8.25365 35.5718 9.84607 32.241 10.0957 31.7002C10.3453 31.1594 11.947 29.5903 12.7167 28.8733C13.5696 28.0129 15.3377 25.8006 15.5874 23.8341C15.837 21.8675 16.5074 19.983 16.8113 19.2865C16.9669 19.4925 17.1288 19.77 17.2723 20.1468C17.6468 21.1301 18.2084 21.3145 19.0197 21.3145C19.6687 21.3145 19.9558 20.2107 20.0182 19.6588C21.4138 20.2432 21.2427 18.678 20.9542 17.7502C22.5144 18.1803 22.6392 17.0127 22.2648 15.968C21.8904 14.9233 21.9528 14.4316 21.6407 14.0629C21.3287 13.6942 20.9542 13.8171 20.6422 13.7556C20.3302 13.6942 16.7731 8.47061 15.6498 7.97898C14.5265 7.48735 13.7776 7.73317 12.9664 7.79462C12.155 7.85607 8.84755 9.9455 7.59943 10.6215C6.35132 11.2975 3.04382 12.8953 3.04382 13.94Z" fill="#F3CD94"/>
<path d="M20.9542 17.7502C22.5144 18.1803 22.6392 17.0127 22.2648 15.968C21.8904 14.9233 21.9528 14.4316 21.6407 14.0629C21.3287 13.6942 20.9542 13.8171 20.6422 13.7556C20.3302 13.6942 16.7731 8.47061 15.6498 7.97898C14.5265 7.48735 13.7776 7.73317 12.9664 7.79462C12.155 7.85607 8.84755 9.9455 7.59943 10.6215C6.35132 11.2975 3.04382 12.8953 3.04382 13.94C3.44322 16.5457 1.18102 25.8826 0.577759 28.8733L8.06645 35.8176C8.25365 35.5718 9.84607 32.241 10.0957 31.7002C10.3453 31.1594 11.947 29.5903 12.7167 28.8733C13.5696 28.0129 15.3377 25.8006 15.5874 23.8341C15.837 21.8675 16.5074 19.983 16.8113 19.2865M20.9542 17.7502C19.7061 17.406 17.522 15.8861 16.5858 15.1691M20.9542 17.7502C21.2427 18.678 21.4138 20.2432 20.0182 19.6588M16.8113 19.2865C16.9669 19.4925 17.1288 19.77 17.2723 20.1468C17.6468 21.1301 18.2084 21.3145 19.0197 21.3145C19.6687 21.3145 19.9558 20.2107 20.0182 19.6588M16.8113 19.2865C16.561 18.9551 16.3269 18.8092 16.2114 18.7334M20.0182 19.6588C19.9041 19.611 19.7796 19.5488 19.6437 19.4708C17.8464 18.4385 16.6066 16.8283 16.2114 16.1523" stroke="#B59464" stroke-width="0.3"/>
<path d="M9.41136 13.939C10.36 13.1523 13.0101 12.505 14.2166 12.2797L14.7783 12.5255C14.5078 13.0376 13.942 14.1356 13.8422 14.4306C13.7174 14.7993 13.1557 15.5982 12.6564 16.0898C12.1572 16.5815 10.2227 17.9949 9.41136 17.9949C8.6001 17.9949 7.97604 17.5033 7.72644 16.3971C7.47678 15.2909 8.22564 14.9222 9.41136 13.939Z" fill="#DEBC88" fill-opacity="0.89"/>
<path d="M24.2031 3.09591L10.1468 3.1806C9.23735 3.18608 8.50419 3.9165 8.50921 4.81205L8.55422 12.8461C8.55924 13.7416 9.30053 14.4631 10.2099 14.4577L24.2663 14.373C25.1757 14.3675 25.9088 13.6371 25.9038 12.7415L25.8588 4.70751C25.8538 3.81197 25.1125 3.09043 24.2031 3.09591Z" fill="#323647" stroke="black" stroke-width="0.3"/>
<path d="M8.41296 5.22796V7.8924L25.9705 7.8924V5.22796L8.41296 5.22796Z" fill="black"/>
<path d="M13.5926 14.9222C13.0434 16.1021 11.0756 17.4213 10.1603 17.9335L15.8392 20.0843C16.5881 19.0806 18.1357 16.8887 18.5851 16.3971C19.1467 15.7826 20.8317 12.4026 21.0813 11.8495C21.3309 11.2964 21.2061 10.6819 20.5197 9.69864C19.8332 8.71536 18.7723 9.02265 18.2106 9.0841C17.649 9.14555 16.8377 10.3746 15.7144 11.4808C14.5911 12.5869 14.2791 13.4473 13.5926 14.9222Z" fill="#F3CD94" stroke="#B59464" stroke-width="0.3"/>
<path d="M10.1604 17.8105L9.72351 18.2407L15.5896 20.5759L15.9017 19.9L10.1604 17.8105Z" fill="#F3CD94"/>
<path d="M18.4593 9.52869C19.0082 8.91973 19.9545 8.8642 20.5729 9.40471C21.1913 9.94529 21.2477 10.8771 20.6988 11.4861L18.6812 13.7245L16.4418 11.7671L18.4593 9.52869Z" fill="#D8B27A"/>
</g>
<defs>
<clipPath id="clip0_878_2527">
<rect width="26" height="33" fill="white" transform="translate(0 3.00015)"/>
</clipPath>
</defs>
</svg>
