<svg width="21" height="19" viewBox="0 0 21 19" fill="none" xmlns="http://www.w3.org/2000/svg">
<path d="M13.004 17.155H12.9941L12.9844 17.157L12.9761 17.1586H5.98128C5.79014 17.1586 5.60683 17.2345 5.47168 17.3697C5.33652 17.5049 5.26059 17.6882 5.26059 17.8793C5.26059 18.0704 5.33652 18.2538 5.47168 18.3889C5.60683 18.5241 5.79014 18.6 5.98128 18.6H13.004C13.0156 18.6 13.0254 18.5983 13.0323 18.5968C13.0347 18.5962 13.0369 18.5957 13.0388 18.5951C14.3017 18.5903 15.5448 18.2811 16.6632 17.6944C17.7847 17.106 18.7476 16.2555 19.4699 15.2152C20.1922 14.1749 20.6526 12.9755 20.812 11.7191C20.9714 10.4627 20.8251 9.18635 20.3854 7.99863C19.9458 6.8109 19.2258 5.7469 18.2868 4.89708C17.3478 4.04726 16.2174 3.43675 14.9918 3.11747C13.7662 2.79819 12.4817 2.77957 11.2474 3.06319C10.0431 3.33992 8.92136 3.89638 7.97283 4.68696L7.66288 4.37732C7.59653 4.3088 7.51724 4.25413 7.4296 4.21648C7.34167 4.17871 7.2471 4.15883 7.15141 4.158C7.05571 4.15717 6.96081 4.1754 6.87224 4.21164C6.78367 4.24788 6.70321 4.30139 6.63554 4.36906C6.56787 4.43673 6.51436 4.51719 6.47812 4.60576C6.44189 4.69433 6.42365 4.78923 6.42448 4.88492C6.42531 4.98062 6.4452 5.07519 6.48297 5.16311C6.52062 5.25077 6.5753 5.33007 6.64384 5.39643L6.95078 5.70337C5.85087 7.0268 5.21637 8.67619 5.14672 10.3973L5.14671 10.3973L5.14667 10.3987C5.14162 10.5879 5.21117 10.7714 5.3403 10.9097C5.46942 11.048 5.64777 11.13 5.83683 11.138C6.02589 11.1459 6.21049 11.0792 6.35077 10.9522C6.49105 10.8252 6.57576 10.6481 6.58661 10.4592L6.58662 10.4592L6.58668 10.4578C6.64029 9.20004 7.06227 7.9858 7.80019 6.96589C8.5381 5.94599 9.55943 5.16538 10.7373 4.72106C11.9151 4.27674 13.1975 4.18829 14.4252 4.4667C15.6529 4.74511 16.7717 5.37811 17.6427 6.28705C18.5136 7.19599 19.0983 8.3408 19.3241 9.57925C19.5499 10.8177 19.4068 12.0952 18.9126 13.253C18.4184 14.4108 17.5949 15.3979 16.5445 16.0916C15.494 16.7853 14.2629 17.1551 13.004 17.155ZM13.0281 18.5952H13.0283H13.0281ZM15.9339 7.80488L15.9339 7.80481C15.7987 7.6697 15.6154 7.5938 15.4243 7.5938C15.2332 7.5938 15.05 7.6697 14.9148 7.80481L14.9148 7.80481L13.1572 9.56218C13.1104 9.55086 13.063 9.5425 13.0151 9.53717L13.0152 9.53655H13.004C12.7671 9.53655 12.5355 9.6068 12.3386 9.73842C12.1416 9.87003 11.9881 10.0571 11.8974 10.276C11.8068 10.4948 11.7831 10.7357 11.8293 10.968C11.8755 11.2004 11.9896 11.4138 12.1571 11.5813C12.3246 11.7488 12.5381 11.8629 12.7704 11.9091C13.0028 11.9553 13.2436 11.9315 13.4625 11.8408C13.6813 11.7502 13.8684 11.5966 14 11.3996C14.1316 11.2027 14.2018 10.9711 14.2018 10.7342H14.2024L14.2012 10.7231C14.1958 10.6752 14.1875 10.6278 14.1761 10.581L15.9337 8.8234L15.9338 8.82336C16.0687 8.68825 16.1446 8.50511 16.1446 8.31415C16.1446 8.12319 16.0688 7.94002 15.9339 7.80488ZM11.9954 1.84138H14.0133C14.2044 1.84138 14.3877 1.76545 14.5229 1.63029C14.658 1.49514 14.7339 1.31183 14.7339 1.12069C14.7339 0.929551 14.658 0.746241 14.5229 0.611085C14.3877 0.47593 14.2044 0.4 14.0133 0.4H11.9954C11.8043 0.4 11.6209 0.47593 11.4858 0.611085C11.3506 0.746241 11.2747 0.929551 11.2747 1.12069C11.2747 1.31183 11.3506 1.49514 11.4858 1.63029C11.6209 1.76545 11.8043 1.84138 11.9954 1.84138ZM11.6517 15.3966C11.6517 15.2054 11.5758 15.0221 11.4406 14.8869C11.3055 14.7518 11.1222 14.6759 10.931 14.6759H3.20568C3.01454 14.6759 2.83123 14.7518 2.69608 14.8869C2.56092 15.0221 2.48499 15.2054 2.48499 15.3966C2.48499 15.5877 2.56092 15.771 2.69608 15.9062C2.83123 16.0413 3.01454 16.1172 3.20568 16.1172H10.931C11.1222 16.1172 11.3055 16.0413 11.4406 15.9062C11.5758 15.771 11.6517 15.5877 11.6517 15.3966ZM11.8965 12.9138C11.8965 12.7227 11.8206 12.5393 11.6854 12.4042C11.5503 12.269 11.367 12.1931 11.1758 12.1931H1.62069C1.42955 12.1931 1.24624 12.269 1.11109 12.4042C0.975929 12.5393 0.9 12.7227 0.9 12.9138C0.9 13.1049 0.975929 13.2882 1.11109 13.4234C1.24624 13.5586 1.42955 13.6345 1.62069 13.6345H11.1758C11.367 13.6345 11.5503 13.5586 11.6854 13.4234C11.8206 13.2882 11.8965 13.1049 11.8965 12.9138Z" fill="#A2004A" stroke="#A2004A" stroke-width="0.2"/>
</svg>