<svg width="49" height="28" viewBox="0 0 49 28" fill="none" xmlns="http://www.w3.org/2000/svg">
<g clip-path="url(#clip0_878_2524)">
<path d="M17.9221 10.9025C14.2081 10.75 9.26751 13.5083 7.26147 14.9066L4.33838 15.2879L5.88588 25.3934L9.32482 24.6307C11.5601 23.9951 16.409 22.9528 17.9221 23.868C19.8135 25.012 24.1121 26.728 26.8632 27.3C29.6144 27.872 32.8813 26.5374 38.0397 23.296C43.1981 20.0546 47.6687 16.8132 48.3565 15.2879C49.0442 13.7626 44.7456 13.9532 43.0261 13.9532C41.6506 13.9532 36.8361 15.3525 34.6008 16.0521C32.5563 15.484 29.9293 14.7186 28.4108 13.9532C26.5194 12.9999 22.5646 11.0932 17.9221 10.9025Z" fill="#F3CD94"/>
<path d="M24.9718 18.9106C25.2011 18.9106 26.4506 19.0631 29.6144 19.6732C33.5691 20.4359 37.8678 20.6266 38.0397 18.9106C38.2116 17.1946 38.0397 17.0039 35.9764 16.4319C35.5696 16.3191 35.1028 16.1916 34.6008 16.0521M34.6008 16.0521C32.5563 15.484 29.9293 14.7186 28.4108 13.9532C26.5194 12.9999 22.5646 11.0932 17.9221 10.9025C14.2081 10.75 9.26751 13.5083 7.26147 14.9066L4.33838 15.2879L5.88588 25.3934L9.32482 24.6307C11.5601 23.9951 16.409 22.9528 17.9221 23.868C19.8135 25.012 24.1121 26.728 26.8632 27.3C29.6144 27.872 32.8813 26.5374 38.0397 23.296C43.1981 20.0546 47.6687 16.8132 48.3565 15.2879C49.0442 13.7626 44.7456 13.9532 43.0261 13.9532C41.6506 13.9532 36.8361 15.3525 34.6008 16.0521Z" stroke="#B59464" stroke-width="0.3"/>
<path d="M6.41108 14.278L0.569824 15.0295L2.64252 27.4287L8.6722 26.4894L6.41108 14.278Z" fill="#323647" stroke="#222425" stroke-width="0.3"/>
<path d="M32.8357 11.4287C35.9825 11.4287 38.5334 8.87035 38.5334 5.71444C38.5334 2.55853 35.9825 0.000152588 32.8357 0.000152588C29.689 0.000152588 27.1381 2.55853 27.1381 5.71444C27.1381 8.87035 29.689 11.4287 32.8357 11.4287Z" fill="#FFCF55"/>
<path d="M32.9208 9.89353C35.2691 9.89353 37.1728 7.9843 37.1728 5.62914C37.1728 3.27398 35.2691 1.36475 32.9208 1.36475C30.5725 1.36475 28.6688 3.27398 28.6688 5.62914C28.6688 7.9843 30.5725 9.89353 32.9208 9.89353Z" fill="#FBB500"/>
<path d="M32.9208 9.89351C35.2691 9.89351 37.1728 7.98431 37.1728 5.62914C37.1728 3.27398 35.2691 1.36475 32.9208 1.36475C35.7271 2.13234 36.6625 3.24108 36.7476 5.62914C36.8186 7.62517 35.2168 9.46711 32.9208 9.89351Z" fill="#D39800"/>
<mask id="mask0_878_2524" style="mask-type:luminance" maskUnits="userSpaceOnUse" x="31" y="2" width="4" height="7">
<path d="M34.6216 2.72937H31.0499V8.52897H34.6216V2.72937Z" fill="white"/>
</mask>
<g mask="url(#mask0_878_2524)">
<path d="M32.7106 8.4049V2.82242H33.0673V8.4049H32.7106ZM33.7391 4.60837C33.7188 4.41793 33.6333 4.26965 33.4826 4.16352C33.3332 4.0574 33.139 4.00433 32.8998 4.00433C32.7317 4.00433 32.5875 4.02977 32.4671 4.08066C32.3468 4.13154 32.2548 4.20059 32.191 4.28782C32.1272 4.37505 32.0946 4.47462 32.0931 4.58657C32.0931 4.6796 32.1142 4.76029 32.1562 4.82862C32.1997 4.89695 32.2584 4.9551 32.3323 5.00306C32.4063 5.0496 32.4882 5.08885 32.578 5.12083C32.6679 5.15281 32.7585 5.17972 32.8498 5.20152L33.2673 5.30618C33.4354 5.34543 33.597 5.39849 33.7522 5.46538C33.9087 5.53224 34.0486 5.61655 34.1718 5.71833C34.2965 5.8201 34.3951 5.94296 34.4675 6.08685C34.54 6.23079 34.5762 6.39942 34.5762 6.59279C34.5762 6.85445 34.5095 7.08485 34.3762 7.28405C34.2428 7.48176 34.0501 7.63656 33.7978 7.7485C33.5471 7.85902 33.2434 7.91422 32.8868 7.91422C32.5403 7.91422 32.2396 7.86045 31.9844 7.7529C31.7308 7.6453 31.5322 7.48828 31.3887 7.28188C31.2466 7.07542 31.1698 6.82393 31.1582 6.52736H31.9518C31.9634 6.6829 32.0113 6.81228 32.0953 6.91553C32.1794 7.01873 32.2888 7.09576 32.4237 7.14668C32.5599 7.19753 32.7121 7.22296 32.8803 7.22296C33.0556 7.22296 33.2093 7.19679 33.3412 7.14445C33.4746 7.09067 33.5789 7.01656 33.6543 6.92205C33.7297 6.8261 33.7681 6.71416 33.7696 6.58622C33.7681 6.46993 33.7341 6.37399 33.6673 6.29839C33.6007 6.22136 33.5072 6.15736 33.3868 6.1065C33.268 6.05416 33.1289 6.00765 32.9694 5.9669L32.4628 5.8361C32.096 5.74159 31.8061 5.59839 31.593 5.40649C31.3814 5.21314 31.2756 4.95655 31.2756 4.63672C31.2756 4.37359 31.3466 4.14317 31.4887 3.94546C31.6322 3.74774 31.8272 3.59437 32.0736 3.48534C32.32 3.37485 32.599 3.31961 32.9107 3.31961C33.2267 3.31961 33.5035 3.37485 33.7413 3.48534C33.9804 3.59437 34.1682 3.74629 34.3044 3.94109C34.4407 4.13445 34.511 4.35687 34.5153 4.60837H33.7391Z" fill="#FFCF55"/>
</g>
</g>
<defs>
<clipPath id="clip0_878_2524">
<rect width="49" height="28" fill="white"/>
</clipPath>
</defs>
</svg>
