<svg width="69" height="54" viewBox="0 0 69 54" fill="none" xmlns="http://www.w3.org/2000/svg">
<g clip-path="url(#clip0_2458_8076)">
<path d="M58.3537 53.9995H0L5.32317 2.37988H63.6768L58.3537 53.9995Z" fill="#EFB0CD"/>
<path d="M3.13086 51.0655L7.07184 12.8574H59.7655L55.8289 51.0655H3.13086Z" fill="white"/>
<path d="M6.7193 48.368C6.7193 48.368 6.68869 48.368 6.67119 48.368C6.43062 48.3408 6.25566 48.1187 6.2819 47.8693L9.57116 15.959C9.5974 15.7096 9.80735 15.5282 10.0523 15.5554C10.2929 15.5826 10.4678 15.8048 10.4416 16.0542L7.15233 47.9645C7.13046 48.1957 6.938 48.368 6.7193 48.368Z" fill="#DBE6FC"/>
<path d="M14.4127 48.368C14.4127 48.368 14.382 48.368 14.3645 48.368C14.124 48.3408 13.949 48.1187 13.9753 47.8693L17.2645 15.959C17.2908 15.7096 17.5007 15.5282 17.7457 15.5554C17.9862 15.5826 18.1612 15.8048 18.1349 16.0542L14.8457 47.9645C14.8238 48.1957 14.6314 48.368 14.4127 48.368Z" fill="#DBE6FC"/>
<path d="M22.1119 48.368C22.1119 48.368 22.0813 48.368 22.0638 48.368C21.8232 48.3408 21.6482 48.1187 21.6745 47.8693L24.9637 15.959C24.99 15.7096 25.1999 15.5282 25.4449 15.5554C25.6854 15.5826 25.8604 15.8048 25.8342 16.0542L22.5449 47.9645C22.523 48.1957 22.3306 48.368 22.1119 48.368Z" fill="#DBE6FC"/>
<path d="M29.8052 48.368C29.8052 48.368 29.7746 48.368 29.7571 48.368C29.5166 48.3408 29.3416 48.1187 29.3678 47.8693L32.6571 15.959C32.6833 15.7096 32.8933 15.5282 33.1382 15.5554C33.3788 15.5826 33.5538 15.8048 33.5275 16.0542L30.2383 47.9645C30.2164 48.1957 30.0239 48.368 29.8052 48.368Z" fill="#DBE6FC"/>
<path d="M37.5045 48.368C37.5045 48.368 37.4738 48.368 37.4563 48.368C37.2158 48.3408 37.0408 48.1187 37.0671 47.8693L40.3563 15.959C40.3826 15.7096 40.5925 15.5282 40.8375 15.5554C41.078 15.5826 41.253 15.8048 41.2267 16.0542L37.9375 47.9645C37.9156 48.1957 37.7232 48.368 37.5045 48.368Z" fill="#DBE6FC"/>
<path d="M45.1978 48.368C45.1978 48.368 45.1672 48.368 45.1497 48.368C44.9091 48.3408 44.7342 48.1187 44.7604 47.8693L48.0497 15.959C48.0759 15.7096 48.2859 15.5282 48.5308 15.5554C48.7714 15.5826 48.9463 15.8048 48.9201 16.0542L45.6308 47.9645C45.609 48.1957 45.4165 48.368 45.1978 48.368Z" fill="#DBE6FC"/>
<path d="M52.8912 48.368C52.8912 48.368 52.8606 48.368 52.8431 48.368C52.6025 48.3408 52.4275 48.1187 52.4538 47.8693L55.743 15.959C55.7693 15.7096 55.9792 15.5282 56.2242 15.5554C56.4647 15.5826 56.6397 15.8048 56.6135 16.0542L53.3242 47.9645C53.3023 48.1957 53.1099 48.368 52.8912 48.368Z" fill="#DBE6FC"/>
<path d="M56.1798 16.4625H10.0077C9.76714 16.4625 9.57031 16.2584 9.57031 16.0091C9.57031 15.7597 9.76714 15.5557 10.0077 15.5557H56.1798C56.4203 15.5557 56.6172 15.7597 56.6172 16.0091C56.6172 16.2584 56.4203 16.4625 56.1798 16.4625Z" fill="#DBE6FC"/>
<path d="M55.3575 24.4381H9.18545C8.94488 24.4381 8.74805 24.234 8.74805 23.9847C8.74805 23.7353 8.94488 23.5312 9.18545 23.5312H55.3575C55.5981 23.5312 55.7949 23.7353 55.7949 23.9847C55.7949 24.234 55.5981 24.4381 55.3575 24.4381Z" fill="#DBE6FC"/>
<path d="M54.5352 32.4127H8.36318C8.12261 32.4127 7.92578 32.2086 7.92578 31.9593C7.92578 31.7099 8.12261 31.5059 8.36318 31.5059H54.5352C54.7758 31.5059 54.9726 31.7099 54.9726 31.9593C54.9726 32.2086 54.7758 32.4127 54.5352 32.4127Z" fill="#DBE6FC"/>
<path d="M53.713 40.3931H7.54092C7.30035 40.3931 7.10352 40.1891 7.10352 39.9397C7.10352 39.6904 7.30035 39.4863 7.54092 39.4863H53.713C53.9535 39.4863 54.1504 39.6904 54.1504 39.9397C54.1504 40.1891 53.9535 40.3931 53.713 40.3931Z" fill="#DBE6FC"/>
<path d="M52.8907 48.3687H6.71865C6.47808 48.3687 6.28125 48.1647 6.28125 47.9153C6.28125 47.6659 6.47808 47.4619 6.71865 47.4619H52.8907C53.1313 47.4619 53.3281 47.6659 53.3281 47.9153C53.3281 48.1647 53.1313 48.3687 52.8907 48.3687Z" fill="#DBE6FC"/>
<path d="M26.0477 9.67087H7.39258L7.75562 6.17969H26.4064L26.0477 9.67087Z" fill="#A2004A"/>
<path d="M60.3647 7.44879H53.0995C52.8589 7.44879 52.6621 7.24476 52.6621 6.99539C52.6621 6.74602 52.8589 6.54199 53.0995 6.54199H60.3647C60.6053 6.54199 60.8021 6.74602 60.8021 6.99539C60.8021 7.24476 60.6053 7.44879 60.3647 7.44879Z" fill="white"/>
<path d="M60.1812 9.23102H45.6464C45.4058 9.23102 45.209 9.02699 45.209 8.77762C45.209 8.52825 45.4058 8.32422 45.6464 8.32422H60.1812C60.4218 8.32422 60.6186 8.52825 60.6186 8.77762C60.6186 9.02699 60.4218 9.23102 60.1812 9.23102Z" fill="white"/>
<path d="M58.3535 53.9995L63.6767 2.37988L68.9999 53.9995H58.3535Z" fill="#790038"/>
<path d="M15.0385 4.76071C13.7745 4.76071 12.7422 3.69521 12.7422 2.38035C12.7422 1.06549 13.7745 0 15.0385 0C16.3026 0 17.3349 1.06549 17.3349 2.38035H16.4601C16.4601 1.56877 15.8215 0.906801 15.0385 0.906801C14.2556 0.906801 13.617 1.56877 13.617 2.38035C13.617 3.19194 14.2556 3.8539 15.0385 3.8539V4.76071Z" fill="#A2004A"/>
<path d="M20.0952 4.76071C18.8311 4.76071 17.7988 3.69521 17.7988 2.38035C17.7988 1.06549 18.8311 0 20.0952 0C21.3593 0 22.3915 1.06549 22.3915 2.38035H21.5167C21.5167 1.56877 20.8781 0.906801 20.0952 0.906801C19.3122 0.906801 18.6736 1.56877 18.6736 2.38035C18.6736 3.19194 19.3122 3.8539 20.0952 3.8539V4.76071Z" fill="#A2004A"/>
<path d="M25.1518 4.76071C23.8877 4.76071 22.8555 3.69521 22.8555 2.38035C22.8555 1.06549 23.8877 0 25.1518 0C26.4159 0 27.4482 1.06549 27.4482 2.38035H26.5734C26.5734 1.56877 25.9348 0.906801 25.1518 0.906801C24.3689 0.906801 23.7303 1.56877 23.7303 2.38035C23.7303 3.19194 24.3689 3.8539 25.1518 3.8539V4.76071Z" fill="#A2004A"/>
<path d="M42.2046 4.76071C40.9405 4.76071 39.9082 3.69521 39.9082 2.38035C39.9082 1.06549 40.9405 0 42.2046 0C43.4686 0 44.5009 1.06549 44.5009 2.38035H43.6261C43.6261 1.56877 42.9875 0.906801 42.2046 0.906801C41.4216 0.906801 40.783 1.56877 40.783 2.38035C40.783 3.19194 41.4216 3.8539 42.2046 3.8539V4.76071Z" fill="#A2004A"/>
<path d="M47.2612 4.76071C45.9971 4.76071 44.9648 3.69521 44.9648 2.38035C44.9648 1.06549 45.9971 0 47.2612 0C48.5253 0 49.5576 1.06549 49.5576 2.38035H48.6828C48.6828 1.56877 48.0441 0.906801 47.2612 0.906801C46.4783 0.906801 45.8396 1.56877 45.8396 2.38035C45.8396 3.19194 46.4783 3.8539 47.2612 3.8539V4.76071Z" fill="#A2004A"/>
<path d="M52.3178 4.76071C51.0538 4.76071 50.0215 3.69521 50.0215 2.38035C50.0215 1.06549 51.0538 0 52.3178 0C53.5819 0 54.6142 1.06549 54.6142 2.38035H53.7394C53.7394 1.56877 53.1008 0.906801 52.3178 0.906801C51.5349 0.906801 50.8963 1.56877 50.8963 2.38035C50.8963 3.19194 51.5349 3.8539 52.3178 3.8539V4.76071Z" fill="#A2004A"/>
<path d="M50.0461 23.7411L43.9769 30.1176C43.817 30.2845 43.6008 30.378 43.3755 30.378C43.1501 30.378 42.934 30.2845 42.7741 30.1176L40.0532 27.2453C39.8929 27.0775 39.8027 26.8496 39.8027 26.6119C39.8027 26.3744 39.8929 26.1465 40.0532 25.9786C40.2135 25.8118 40.43 25.718 40.6559 25.718C40.8816 25.718 41.0983 25.8118 41.2587 25.9786L42.7845 27.5817V27.5819C42.9437 27.75 43.1602 27.8447 43.3859 27.8447C43.6116 27.8447 43.8282 27.75 43.9874 27.5819L48.8513 22.4772C49.0112 22.3103 49.2274 22.2168 49.4527 22.2168C49.678 22.2168 49.8942 22.3103 50.0541 22.4772C50.2131 22.6456 50.3018 22.8737 50.3003 23.1108C50.2987 23.3479 50.2075 23.5749 50.0462 23.741L50.0461 23.7411Z" fill="#FFA100"/>
</g>
<defs>
<clipPath id="clip0_2458_8076">
<rect width="69" height="54" fill="white"/>
</clipPath>
</defs>
</svg>
