<svg width="40" height="40" viewBox="0 0 40 40" fill="none" xmlns="http://www.w3.org/2000/svg">
<circle cx="20" cy="20.0002" r="20" fill="#FAE6EF"/>
<path d="M17.831 26.0476C17.2273 26.0476 16.7385 26.5389 16.7385 27.1401C16.7385 27.7412 17.2299 28.2326 17.831 28.2326C18.4322 28.2326 18.9236 27.7412 18.9236 27.1401C18.9236 26.5389 18.4322 26.0476 17.831 26.0476ZM17.831 27.506C17.6298 27.506 17.4677 27.3413 17.4677 27.1427C17.4677 26.9441 17.6324 26.7794 17.831 26.7794C18.0297 26.7794 18.1943 26.9441 18.1943 27.1427C18.1943 27.3413 18.0297 27.506 17.831 27.506Z" fill="#A2004A"/>
<path d="M13.2546 12.3477H15.0517V12.6368C15.0517 13.1796 15.4953 13.6232 16.0381 13.6232H18.9262H19.0762V13.4732V12.7439V12.5939H18.9262H16.081V12.3477H18.9262H19.0762V12.1977V11.4685V11.3185H18.9262H13.2546C12.4791 11.3185 11.85 11.9476 11.85 12.723V28.439C11.85 29.2145 12.4791 29.8436 13.2546 29.8436H22.4102C23.1857 29.8436 23.8148 29.2145 23.8148 28.439V20.0178V19.6611L23.5599 19.9106L22.8307 20.6241L22.7856 20.6682V20.7313V28.0794L22.783 28.0768V28.439C22.783 28.6463 22.6149 28.8144 22.4076 28.8144H13.2546C13.0473 28.8144 12.8792 28.6463 12.8792 28.439V12.723C12.8792 12.5158 13.0473 12.3477 13.2546 12.3477Z" fill="#A2004A" stroke="#A2004A" stroke-width="0.3"/>
<path d="M18.9263 12.3477H19.5839V12.5939H18.9263H18.7763V12.7439V13.4732V13.6232H18.9263H19.6267C20.1696 13.6232 20.6131 13.1796 20.6131 12.6368V12.3477H21.8222H21.9178L21.9582 12.261L22.298 11.5318L22.3974 11.3185H22.162H18.9263H18.7763V11.4685V12.1977V12.3477H18.9263Z" fill="#A2004A" stroke="#A2004A" stroke-width="0.3"/>
<path d="M31.1223 15.8629C31.1223 15.8629 30.7484 15.3384 30.7405 15.3281C29.8416 14.0633 29.7024 13.8816 28.4893 12.0065C26.8704 9.50421 26.5522 9.67903 25.3272 10.7519C24.4323 11.5369 22.9407 12.5961 21.1151 14.3752C18.3945 17.0249 16.2825 18.7526 16.2825 18.7526L16.5 28.5001C16.5 28.5001 22.2327 24.7822 24.305 22.5404C26.6278 20.0277 29.412 18.1595 30.9951 17.4328C32.0809 16.9632 31.5161 16.4045 31.1263 15.8629H31.1223ZM25.5619 19.1639C25.1601 21.2275 23.5214 22.7083 21.9066 22.4718C20.2917 22.2353 19.3053 20.3774 19.7071 18.3138C20.1088 16.2502 21.7475 14.7694 23.3623 15.0059C24.9772 15.2424 25.9636 17.1003 25.5619 19.1639Z" fill="#CA005D"/>
<path d="M23.3582 15.0021C21.7394 14.769 20.1046 16.2499 19.7029 18.31C19.3012 20.3702 20.2876 22.2349 21.9025 22.468C23.5173 22.7011 25.156 21.2203 25.5577 19.1601C25.9594 17.0966 24.973 15.2352 23.3582 15.0021ZM23.5571 19.5749C23.4815 19.8388 23.2548 20.0685 22.8769 20.257C22.6025 20.3942 22.2922 20.473 22.0536 20.4661C21.8348 20.4627 21.628 20.3907 21.4411 20.2502C21.3615 20.1919 21.2979 20.1302 21.1825 20.0034L21.8189 19.6092C21.9064 19.712 21.9661 19.7566 22.0536 19.7909C22.1928 19.8423 22.3638 19.8286 22.5269 19.7463C22.7775 19.6229 22.857 19.4446 22.7417 19.2733C22.6781 19.1807 22.5707 19.1224 22.4633 19.1293C22.3758 19.1293 22.2803 19.1498 21.8945 19.2458C21.5564 19.335 21.4252 19.3487 21.2541 19.3281C20.9598 19.2938 20.7132 19.1464 20.5501 18.8996C20.2359 18.43 20.4427 17.9364 21.0831 17.6176C21.4968 17.4119 21.8905 17.3742 22.2167 17.5182C22.3638 17.5799 22.4633 17.6519 22.6224 17.8027L21.982 18.214C21.811 18.0358 21.6399 18.0118 21.3933 18.1352C21.1945 18.2346 21.1149 18.406 21.2104 18.5465C21.2661 18.6322 21.3575 18.6699 21.4928 18.6665C21.5485 18.6665 21.7195 18.622 22.0059 18.5465C22.2843 18.4711 22.4752 18.4471 22.6462 18.4574C22.9724 18.478 23.223 18.6254 23.4099 18.903C23.561 19.1327 23.6167 19.3658 23.5571 19.5749ZM23.9031 19.8217L23.0877 16.2739L23.6645 15.9859L24.4798 19.5303L23.8991 19.8183L23.9031 19.8217Z" fill="white"/>
<path d="M22.6462 18.4539C22.4752 18.4436 22.2843 18.4676 22.0059 18.543C21.7195 18.6219 21.5485 18.663 21.4928 18.663C21.3576 18.6699 21.2661 18.6287 21.2104 18.543C21.1189 18.4025 21.1945 18.2311 21.3933 18.1317C21.64 18.0083 21.811 18.0323 21.982 18.2105L22.6224 17.7992C22.4633 17.6449 22.3638 17.5729 22.2167 17.5147C21.8866 17.3741 21.4928 17.4118 21.0831 17.6141C20.4427 17.9329 20.2359 18.4265 20.5501 18.8961C20.7132 19.1429 20.9598 19.2903 21.2541 19.3246C21.4252 19.3451 21.5564 19.328 21.8945 19.2423C22.2803 19.1463 22.3758 19.1292 22.4633 19.1258C22.5707 19.1223 22.6781 19.1772 22.7417 19.2697C22.857 19.4411 22.7775 19.6194 22.5269 19.7428C22.3638 19.825 22.1928 19.8422 22.0536 19.7873C21.9621 19.7496 21.9064 19.7085 21.8189 19.6022L21.1825 19.9999C21.2979 20.1301 21.3615 20.1918 21.4411 20.2467C21.624 20.3872 21.8309 20.4592 22.0536 20.4626C22.2923 20.4695 22.6025 20.3906 22.8769 20.2535C23.2588 20.065 23.4855 19.8353 23.5571 19.5714C23.6167 19.3589 23.5611 19.1258 23.4099 18.8995C23.223 18.6184 22.9684 18.4745 22.6462 18.4539Z" fill="#A2004A"/>
<path d="M23.0918 16.274L23.9072 19.8218L24.4879 19.5339L23.6685 15.9895L23.0918 16.274Z" fill="#A2004A"/>
<path d="M26.4806 9.67538C26.413 9.43201 26.2817 9.23662 25.8044 9.07894C25.526 8.98638 25.2237 8.97267 24.9373 9.05151C24.0305 9.30175 21.636 10.7517 20.4468 12.9216C18.6609 16.1849 16 18.91 16 18.91C16 18.91 18.474 16.7745 21.119 13.5523C23.9509 10.1176 26.0431 9.58969 26.4806 9.67538Z" fill="#CA005D"/>
</svg>
