<svg width="19" height="22" viewBox="0 0 19 22" fill="none" xmlns="http://www.w3.org/2000/svg">
<path d="M5.6343 0.356628C4.42367 0.356628 3.4297 1.3461 3.42969 2.55634V3.28265H2.70339C1.49253 3.28265 0.5 4.2719 0.5 5.48237V19.4388C0.5 20.6492 1.49253 21.6434 2.70339 21.6434H13.3608C14.5717 21.6434 15.5703 20.6492 15.5703 19.4388V18.7137H16.2905C17.5011 18.7137 18.5 17.7242 18.5 16.514V5.74159C18.4991 5.73096 18.4979 5.72035 18.4965 5.70978C18.4944 5.6727 18.4891 5.63587 18.4806 5.59973C18.4781 5.58824 18.4752 5.57682 18.4721 5.56549C18.4594 5.52087 18.4417 5.47781 18.4195 5.43709C18.4155 5.43007 18.4114 5.42313 18.4072 5.41627C18.3815 5.37321 18.3507 5.33339 18.3155 5.29767L13.5456 0.537536C13.5111 0.504346 13.473 0.475216 13.4319 0.450717C13.4226 0.444792 13.4132 0.439111 13.4037 0.433679C13.3161 0.386091 13.2185 0.360098 13.1188 0.357864C13.1147 0.357416 13.1106 0.357009 13.1065 0.356643L5.6343 0.356628ZM5.6343 1.60994H12.478V4.16058C12.478 5.37082 13.4769 6.36519 14.6875 6.36519H17.2479V16.514C17.2479 17.0513 16.8309 17.4653 16.2905 17.4653H5.6343C5.09392 17.4653 4.68178 17.0513 4.68178 16.514V2.55634C4.68178 2.01896 5.09392 1.60994 5.6343 1.60994ZM13.7301 2.49031L16.359 5.1131H14.6875C14.1471 5.1131 13.7301 4.69796 13.7301 4.16058V2.49031ZM2.70339 4.53474H3.42969V16.514C3.42969 17.7242 4.42367 18.7137 5.6343 18.7137H14.317V19.4388C14.317 19.9759 13.901 20.3913 13.3608 20.3913H2.70339C2.16323 20.3913 1.75209 19.9759 1.75209 19.4388V5.48237C1.75209 4.94521 2.16323 4.53474 2.70339 4.53474ZM7.79611 9.31322C7.71348 9.3129 7.63161 9.32893 7.55521 9.3604C7.47882 9.39187 7.4094 9.43815 7.35098 9.49658C7.29255 9.555 7.24627 9.62442 7.2148 9.70081C7.18333 9.77721 7.16729 9.85908 7.16762 9.94171C7.16794 10.0239 7.18445 10.1053 7.21621 10.1811C7.24797 10.2569 7.29435 10.3258 7.35271 10.3837C7.41107 10.4416 7.48027 10.4874 7.55634 10.5186C7.63242 10.5498 7.7139 10.5656 7.79611 10.5653H14.1324C14.2146 10.5656 14.296 10.5498 14.3721 10.5186C14.4482 10.4874 14.5174 10.4416 14.5758 10.3837C14.6341 10.3258 14.6805 10.2569 14.7123 10.1811C14.744 10.1053 14.7605 10.0239 14.7609 9.94171C14.7612 9.85908 14.7451 9.77721 14.7137 9.70081C14.6822 9.62442 14.6359 9.555 14.5775 9.49658C14.5191 9.43815 14.4497 9.39187 14.3733 9.3604C14.2969 9.32893 14.215 9.3129 14.1324 9.31322H7.79611ZM7.79611 12.8347C7.71348 12.8344 7.63161 12.8504 7.55521 12.8819C7.47882 12.9134 7.4094 12.9597 7.35098 13.0181C7.29255 13.0765 7.24627 13.1459 7.2148 13.2223C7.18333 13.2987 7.16729 13.3806 7.16762 13.4632C7.16794 13.5454 7.18445 13.6268 7.21621 13.7026C7.24797 13.7784 7.29435 13.8473 7.35271 13.9052C7.41107 13.9631 7.48027 14.0089 7.55634 14.0401C7.63242 14.0713 7.7139 14.0871 7.79611 14.0868H14.1324C14.2146 14.0871 14.296 14.0713 14.3721 14.0401C14.4482 14.0089 14.5174 13.9631 14.5758 13.9052C14.6341 13.8473 14.6805 13.7784 14.7123 13.7026C14.744 13.6268 14.7605 13.5454 14.7609 13.4632C14.7612 13.3806 14.7451 13.2987 14.7137 13.2223C14.6822 13.1459 14.6359 13.0765 14.5775 13.0181C14.5191 12.9597 14.4497 12.9134 14.3733 12.8819C14.2969 12.8504 14.215 12.8344 14.1324 12.8347H7.79611Z" fill="#A2004A"/>
</svg>
