<svg width="76" height="56" viewBox="0 0 76 56" fill="none" xmlns="http://www.w3.org/2000/svg">
<path d="M72.7375 44.7559C71.3023 47.2467 69.3118 49.2204 66.9318 50.7685C64.1832 52.5567 60.9142 53.7775 57.3793 54.5713C45.878 57.1549 31.5613 55.221 23.1894 53.6166C21.4915 53.2911 20.0385 52.9793 18.9028 52.7214C16.9858 52.286 15.1691 51.6213 13.5315 50.7409C13.523 50.7362 13.5144 50.7316 13.5058 50.7272C2.28577 44.6852 -2.47944 36.05 1.25106 27.871C1.30888 27.7433 12.3084 1.76895 38.3902 10.3472C49.8401 14.1132 45.6285 17.3131 58.3201 21.3158C64.2535 23.1873 72.1054 26.5251 74.2594 34.3991C75.0278 37.2091 74.769 41.2305 72.7378 44.7559H72.7375Z" fill="#EBEBF0"/>
<path d="M20.2006 8.92248C20.2006 8.92248 22.4229 8.37631 23.066 9.2155C23.7092 10.0547 22.1255 12.3684 20.9224 12.5478C19.7192 12.7276 20.2006 8.92248 20.2006 8.92248Z" fill="#FE9F73"/>
<path d="M13.9194 39.8392C13.9194 39.8392 19.5743 37.0816 20.6107 33.1866C21.6475 29.2915 14.9914 28.7935 15.0839 28.7943C15.1764 28.7946 8.32403 30.6175 7.85619 31.7297C7.38835 32.8416 5.33083 37.4747 6.16312 37.4788C6.99542 37.483 13.9194 39.8396 13.9194 39.8396V39.8392Z" fill="#ED7163"/>
<path d="M18.922 4.86012C18.9205 4.85185 18.9186 4.84357 18.9164 4.8353C18.8527 4.55506 18.5901 4.36699 18.3055 4.39746C18.2972 4.39821 18.2886 4.39934 18.28 4.40047C18.2774 4.40084 18.2744 4.40084 18.2718 4.4016L5.82851 6.48623C5.82588 6.4866 5.82289 6.48735 5.82026 6.48811C5.81202 6.48961 5.80341 6.49149 5.79554 6.49375C5.51649 6.5577 5.32883 6.82138 5.35917 7.10688C5.35992 7.11515 5.36104 7.1238 5.36216 7.13208C5.36254 7.13471 5.36254 7.13772 5.36329 7.14035L9.67947 33.1223C9.72442 33.3923 9.97875 33.5748 10.2477 33.5296L22.8344 31.4209C23.1034 31.3758 23.285 31.1204 23.2401 30.8503L18.9239 4.8684C18.9235 4.86577 18.9228 4.86276 18.922 4.86012Z" fill="#FFF6E6"/>
<path d="M5.12183 7.01574L6.02342 6.14532L18.1532 4.14532L19.3728 4.90666C19.3728 4.90666 19.4507 6.01066 19.3866 6.03849C19.3226 6.06633 5.27652 8.58842 5.24094 8.37063C5.20536 8.15322 5.1222 7.01574 5.1222 7.01574H5.12183Z" fill="#CC8100"/>
<g opacity="0.5">
<path d="M6.51817 7.37511C6.5309 7.45147 6.49644 7.52482 6.43614 7.56507C6.41479 7.57974 6.38969 7.58989 6.36197 7.59441C6.335 7.59892 6.30803 7.59742 6.28256 7.59065C6.21252 7.57259 6.15596 7.51429 6.1436 7.43793C6.12637 7.33411 6.19641 7.23593 6.29942 7.21863C6.4028 7.20133 6.50056 7.27129 6.51779 7.37511H6.51817Z" fill="white"/>
<path d="M7.09728 7.27794C7.11002 7.3543 7.07556 7.42765 7.01525 7.4679C6.9939 7.48257 6.9688 7.49272 6.94108 7.49724C6.91374 7.50175 6.8864 7.50025 6.86168 7.49348C6.79163 7.47505 6.73544 7.41712 6.72271 7.34076C6.70548 7.23694 6.77515 7.13877 6.87853 7.12146C6.98191 7.10416 7.07968 7.17412 7.09691 7.27794H7.09728Z" fill="white"/>
<path d="M7.67638 7.18096C7.68912 7.25731 7.65466 7.33067 7.59435 7.37091C7.573 7.38558 7.5479 7.39574 7.52019 7.40025C7.49284 7.40477 7.4655 7.40326 7.44078 7.39649C7.37073 7.37806 7.31455 7.32013 7.30181 7.24378C7.28458 7.13996 7.35425 7.04178 7.45763 7.02448C7.56101 7.00718 7.65878 7.07714 7.67601 7.18096H7.67638Z" fill="white"/>
</g>
<path d="M23.1956 30.5817C23.2652 31.0004 22.9832 31.3964 22.5667 31.4664L10.516 33.4852C10.0991 33.5552 9.70427 33.2723 9.63498 32.8537L5.41056 7.42545C5.33303 6.95827 5.64729 6.51629 6.11251 6.43843L17.9887 4.44859C18.4539 4.37072 18.894 4.68594 18.9715 5.1535L23.1959 30.5813L23.1956 30.5817ZM17.9197 3.88097L5.99377 5.87909C5.22627 6.00773 4.70787 6.73672 4.83597 7.50745L9.10383 33.1971C9.23194 33.9678 9.95786 34.4884 10.7254 34.3598L22.6513 32.3617C23.4188 32.233 23.9372 31.504 23.8091 30.7333L19.5413 5.04366C19.4132 4.27293 18.6872 3.75233 17.9197 3.88097Z" fill="#790038"/>
<path d="M15.0786 39.1487V39.1829V39.1938L15.0621 42.4919L14.9658 51.479C11.7393 49.8962 10.0246 48.5771 10.0246 48.5771C10.0246 48.5771 9.10125 48.0495 7.6503 46.8624C6.19935 45.6752 5.27602 44.7519 4.88031 44.3562L5.10191 37.0558C5.10191 37.0558 3.65531 30.4543 3.75532 28.8764C3.85608 27.298 4.89102 23.6817 5.35999 22.2911C5.49783 21.8822 5.58061 21.3526 5.62818 20.8087C5.63192 20.768 5.63529 20.7274 5.63829 20.6864C5.63829 20.6853 5.63829 20.6849 5.63829 20.6849C5.67949 20.1628 5.68961 19.6351 5.68811 19.1946C5.68811 19.1807 5.68811 19.1671 5.68811 19.1528C5.68811 19.1141 5.68811 19.0769 5.68736 19.0396C5.68736 19.0298 5.68736 19.0201 5.68736 19.0103C5.68099 18.4784 5.65852 18.1135 5.65852 18.1135C5.66751 18.0233 5.68024 17.9386 5.6956 17.8593C5.71133 17.7761 5.73081 17.699 5.75291 17.6272C5.76977 17.5726 5.78849 17.5211 5.80835 17.4733C5.94357 17.1487 6.15108 16.9663 6.39605 16.8986C6.57734 16.8482 6.77961 16.8606 6.98862 16.9241C7.72802 17.1491 8.55245 18.0154 8.84462 19.0122C9.39037 20.8726 8.90118 26.2561 8.90118 26.2561C8.90118 26.2561 10.1657 27.5388 10.9598 30.0962C11.1703 30.774 11.3479 31.5414 11.4599 32.3983C11.5022 32.724 11.5236 33.0298 11.5258 33.3168C11.5292 33.6482 11.5071 33.9544 11.4655 34.2365C11.4067 34.6379 11.3078 34.9911 11.1831 35.3014C10.519 36.9568 9.1233 37.4014 9.1233 37.4014L9.21544 37.4285L11.4921 38.0966L14.9595 39.1141L15.0786 39.149H15.0794L15.0786 39.1487Z" fill="#FCAE92"/>
<path d="M22.3188 21.4694L22.4739 22.4207C22.4739 22.4207 21.1378 23.7745 21.5738 25.4939C22.0098 27.2133 23.1612 27.4205 23.1612 27.4205C23.1612 27.4205 24.9599 24.9996 24.9314 24.1589C24.903 23.3182 24.8962 21.8441 22.3188 21.4698V21.4694Z" fill="#FE9F73"/>
<path d="M23.1848 27.4853L23.147 27.4759C22.5694 27.3322 22.2117 26.885 22.1967 26.8658C22.1592 26.8214 21.2475 25.7291 21.4292 24.4581C21.6105 23.1927 22.6668 22.1624 22.7117 22.1191L22.7908 22.2019C22.7799 22.2121 21.7176 23.2491 21.5419 24.4746C21.3674 25.6941 22.2753 26.7827 22.2847 26.7936C22.2892 26.7992 22.6196 27.2111 23.1369 27.3552L24.1632 25.9006C25.2371 24.3437 24.7419 23.1253 24.737 23.1129L24.8419 23.0682C24.8475 23.0813 24.9783 23.3947 24.9719 23.9111C24.9659 24.3847 24.8367 25.1253 24.2568 25.9664L23.1848 27.4857V27.4853Z" fill="black"/>
<path d="M23.3619 27.9491L23.4829 28.6924C23.4829 28.6924 22.439 29.7501 22.7794 31.0937C23.1199 32.4373 24.0197 32.5991 24.0197 32.5991C24.0197 32.5991 25.425 30.707 25.4029 30.0507C25.3808 29.3939 25.3756 28.2417 23.3615 27.9491H23.3619Z" fill="#FE9F73"/>
<path d="M24.0388 32.6498L24.0092 32.6427C23.5579 32.5306 23.2784 32.1807 23.2668 32.1661C23.2376 32.1315 22.5252 31.278 22.6671 30.2846C22.8087 29.296 23.6343 28.4907 23.6695 28.4568L23.7313 28.5215C23.723 28.5294 22.8926 29.3397 22.7555 30.2974C22.6192 31.2502 23.3286 32.101 23.3357 32.1097C23.3395 32.1142 23.5976 32.4358 24.0017 32.5486L24.8037 31.4119C25.6427 30.1954 25.2562 29.243 25.252 29.2336L25.3341 29.1986C25.3513 29.2389 25.7457 30.2033 24.8767 31.4634L24.0392 32.6506L24.0388 32.6498Z" fill="black"/>
<path d="M11.237 35.1476C11.237 35.1476 10.3358 37.488 11.4898 38.0955C12.6439 38.7029 8.71015 39.0264 8.7109 38.9117C8.71165 38.7974 5.99301 35.4071 6.67773 35.239C7.36245 35.0708 9.50349 34.2802 9.98519 34.7977C10.4669 35.3153 11.237 35.1476 11.237 35.1476Z" fill="#FCAE92"/>
<path d="M21.4082 15.838L21.5632 16.7893C21.5632 16.7893 20.2271 18.1431 20.6631 19.8625C21.0991 21.5818 22.2506 21.7891 22.2506 21.7891C22.2506 21.7891 24.0493 19.3682 24.0208 18.5275C23.9927 17.6872 23.9856 16.2127 21.4082 15.8384V15.838Z" fill="#FE9F73"/>
<path d="M15.0226 39.1515L15.0057 42.4947L15.1196 42.4953L15.1365 39.1521L15.0226 39.1515Z" fill="black"/>
<path d="M14.7801 39.322L14.734 39.2174C16.6702 38.3598 18.4692 36.7096 19.321 35.5394C20.0746 34.5046 20.3979 33.7395 20.4009 33.7316L20.5061 33.776C20.5028 33.7839 20.1754 34.5603 19.4132 35.6067C18.5524 36.789 16.7353 38.4557 14.7801 39.322Z" fill="black"/>
<path d="M22.2745 21.8535L22.237 21.8445C21.7175 21.7211 21.3055 21.2565 21.2882 21.2366C21.2485 21.1899 20.3368 20.0976 20.5189 18.8262C20.7002 17.5608 21.7565 16.5306 21.8014 16.4873L21.8804 16.5701C21.8696 16.5802 20.8073 17.6173 20.6316 18.8428C20.4571 20.0619 21.365 21.1508 21.3744 21.1617C21.3778 21.1655 21.7595 21.5951 22.2265 21.7237L23.2529 20.2688C24.3268 18.7119 23.8316 17.4935 23.8267 17.4811L23.9316 17.4363C23.9372 17.4495 24.0679 17.7628 24.0616 18.2793C24.0556 18.7529 23.9264 19.4935 23.3465 20.3346L22.2749 21.8535H22.2745Z" fill="black"/>
<path d="M21.507 16.7989L19.7061 6.38025L19.8184 6.36182L21.6194 16.7801L21.507 16.7989Z" fill="black"/>
<path d="M22.8221 11.0208L22.7292 10.9546C22.737 10.9433 23.5184 9.82204 22.9453 9.1664C22.3643 8.50212 20.3113 8.95614 20.2907 8.96065L20.2656 8.84893C20.3525 8.82937 22.4056 8.37573 23.0307 9.0908C23.6634 9.81414 22.8565 10.9719 22.8221 11.0208Z" fill="black"/>
<path d="M7.38615 36.1601C7.36929 36.1721 7.34719 36.1751 7.32697 36.1665C6.64899 35.8671 6.01522 34.8684 5.98825 34.8259C5.97064 34.7977 5.97889 34.7608 6.00698 34.7427C6.03507 34.7251 6.07215 34.7333 6.08976 34.7616C6.09613 34.7717 6.73102 35.7719 7.37529 36.0563C7.40563 36.0698 7.41949 36.1052 7.406 36.1356C7.40151 36.1458 7.39439 36.1544 7.38615 36.1605V36.1601Z" fill="#000100"/>
<path d="M8.20636 36.0341C8.19325 36.0435 8.17639 36.0476 8.15954 36.0443C7.43324 35.8987 6.59945 35.0606 6.56461 35.0253C6.54139 35.0016 6.54139 34.9632 6.56499 34.9399C6.58858 34.9162 6.62679 34.9166 6.65001 34.9399C6.65825 34.9481 7.49317 35.7873 8.18313 35.9254C8.21572 35.9318 8.2367 35.9638 8.23033 35.9965C8.22733 36.0123 8.21834 36.0251 8.20636 36.0337V36.0341Z" fill="#000100"/>
<path d="M9.14016 37.4551L9.1057 37.3461C9.11282 37.3438 9.82038 37.1113 10.453 36.3899C11.037 35.7241 11.676 34.4922 11.4029 32.4053C11.1284 30.3045 10.4519 28.7555 9.93238 27.8257C9.36977 26.8183 8.86522 26.3011 8.86035 26.2959L8.84163 26.277L8.84387 26.2503C8.84874 26.1966 9.32595 20.8563 8.78956 19.0279C8.46855 17.9325 7.44335 16.9301 6.63915 16.9244C6.6384 16.9244 6.63802 16.9244 6.63727 16.9244C6.23986 16.9225 5.95256 17.1712 5.80685 17.644C5.76415 17.7824 5.73344 17.9408 5.71546 18.1149C5.7207 18.206 5.79599 19.5567 5.68512 20.8138C5.6308 21.4345 5.53941 21.9374 5.41393 22.3094C4.98467 23.5823 3.91377 27.281 3.81189 28.8804C3.713 30.4324 5.14236 36.9774 5.15697 37.0436L5.04572 37.0681C4.98654 36.7984 3.59838 30.4414 3.69839 28.8732C3.80102 27.2633 4.87529 23.5503 5.30605 22.2729C5.42853 21.9096 5.51806 21.4153 5.57162 20.804C5.68512 19.5172 5.60234 18.1311 5.60159 18.1172V18.1127V18.1082C5.62031 17.925 5.6529 17.7576 5.69785 17.6105C5.90274 16.9466 6.32151 16.8086 6.63765 16.8104C6.6384 16.8104 6.63915 16.8104 6.6399 16.8104C7.04481 16.8135 7.52501 17.0523 7.95689 17.4665C8.39926 17.8904 8.73375 18.4335 8.89856 18.9959C9.42746 20.7988 8.99969 25.7817 8.95962 26.2353C9.05663 26.3391 9.52035 26.8556 10.029 27.7659C10.5542 28.7047 11.2381 30.2695 11.5153 32.3906C11.6382 33.3314 11.5906 34.1826 11.3741 34.921C11.1999 35.5138 10.9175 36.0352 10.5339 36.4707C9.87994 37.2136 9.16975 37.4461 9.13978 37.4555L9.14016 37.4551Z" fill="black"/>
<path d="M15.4262 15.9802L15.848 13.5641L14.4782 14.0268L13.5702 13.6902L12.8162 14.2995L11.3707 14.2988L12.5364 16.4545C11.0231 17.859 10.2747 20.9348 10.5856 22.843C10.9789 25.2598 12.9215 24.8878 15.3281 24.4929C17.7347 24.0979 19.6941 23.8297 19.3008 21.4125C18.9903 19.5043 17.3058 16.8276 15.4258 15.9802H15.4262Z" fill="#FFA100"/>
<g style="mix-blend-mode:multiply">
<path d="M13.4919 13.7533L12.8162 14.2995L11.3707 14.2987L12.5364 16.4544C11.0231 17.859 10.2747 20.9348 10.5856 22.843C10.9744 25.2308 12.8754 24.8964 15.2419 24.5067L13.4919 13.7529V13.7533Z" fill="#F1F2F2"/>
</g>
<path d="M13.5061 21.3689C13.6252 21.66 13.8616 21.7608 14.2107 21.7037C14.5602 21.6465 14.6856 21.4817 14.6501 21.2624C14.6092 21.0123 14.4482 20.9307 13.9133 20.8968C13.0607 20.8385 12.8105 20.5688 12.7442 20.1611C12.6585 19.6348 12.9937 19.215 13.7058 19.0981C14.5051 18.9668 14.8939 19.3444 15.0096 19.78L14.3545 19.8876C14.289 19.7048 14.1556 19.5193 13.7668 19.5833C13.5005 19.6269 13.3612 19.7623 13.396 19.9775C13.4308 20.1927 13.5713 20.2551 14.0781 20.2844C14.9857 20.3518 15.231 20.6444 15.3007 21.0744C15.3898 21.6228 15.037 22.0723 14.2421 22.2028C13.4776 22.3281 13.0102 22.0177 12.8506 21.4765L13.5057 21.3689H13.5061Z" fill="#F9EFE4"/>
<path d="M15.3306 22.2088L16.0052 18.7207L16.5247 18.6353L15.8546 22.1226L15.3306 22.2088Z" fill="#F9EFE4"/>
<path d="M15.4263 15.9802L12.1443 16.9052" stroke="#75452A" stroke-width="0.5" stroke-miterlimit="10" stroke-linecap="round"/>
<path d="M12.5416 16.4491L15.9409 16.2817" stroke="#75452A" stroke-width="0.5" stroke-miterlimit="10" stroke-linecap="round"/>
<path d="M73.8662 31.5614H46.1663V36.8376H73.8662V31.5614Z" fill="#DB3683"/>
<path d="M47.8311 8.13733H47.3633V31.5614H47.8311V8.13733Z" fill="#F4ACCD"/>
<path d="M72.4033 8.13721H71.9355V31.5613H72.4033V8.13721Z" fill="#F4ACCD"/>
<path d="M48.5776 5.43707V6.77058C48.5776 7.74295 49.3132 8.53284 50.2214 8.53284H51.457C52.364 8.53284 53.1007 7.74422 53.1007 6.77058V5.43707H48.5788H48.5776Z" fill="#CB4282"/>
<path d="M44.0559 5.43732V6.77082C44.0559 7.74319 44.7915 8.53309 45.6997 8.53309H46.9352C47.8422 8.53309 48.579 7.74447 48.579 6.77082V5.43732H44.0559Z" fill="#FDEDF4"/>
<path d="M53.1011 5.43707V6.77058C53.1011 7.74295 53.8367 8.53284 54.7449 8.53284H55.9804C56.8874 8.53284 57.6242 7.74422 57.6242 6.77058V5.43707H53.1023H53.1011Z" fill="#FDEDF4"/>
<path d="M66.6682 5.43707V6.77058C66.6682 7.74295 67.4038 8.53284 68.312 8.53284H69.5475C70.4545 8.53284 71.1913 7.74422 71.1913 6.77058V5.43707H66.6694H66.6682Z" fill="#CB4282"/>
<path d="M72.8338 8.53156H74.0693C74.9763 8.53156 75.7131 7.74294 75.7131 6.76929V5.43579H71.1912V6.76929C71.1912 7.74167 71.9268 8.53156 72.835 8.53156H72.8338Z" fill="#FDEDF4"/>
<path d="M57.623 5.43707V6.77058C57.623 7.74295 58.3586 8.53284 59.2668 8.53284H60.5024C61.4094 8.53284 62.1462 7.74422 62.1462 6.77058V5.43707H57.6242H57.623Z" fill="#CB4282"/>
<path d="M62.1448 5.43707V6.77058C62.1448 7.74295 62.8804 8.53284 63.7886 8.53284H65.0241C65.9311 8.53284 66.6679 7.74422 66.6679 6.77058V5.43707H62.146H62.1448Z" fill="#FDEDF4"/>
<path d="M52.5258 0.168213L48.5776 5.43715H53.1007L55.4694 0.168213H52.5258Z" fill="#DB3683"/>
<path d="M49.5824 0.168213L44.0559 5.43715H48.5778L52.526 0.168213H49.5824Z" fill="#FAC8DF"/>
<path d="M55.4698 0.168213L53.1011 5.43715H57.623L58.4122 0.168213H55.4698Z" fill="#FAC8DF"/>
<path d="M64.2991 0.168213L66.6678 5.43715H71.1897L67.2415 0.168213H64.2991Z" fill="#DB3683"/>
<path d="M71.1899 5.43715H75.7118L70.1853 0.168213H67.2417L71.1899 5.43715Z" fill="#FAC8DF"/>
<path d="M58.412 0.168213L57.6228 5.43715H62.1447L61.3556 0.168213H58.412Z" fill="#DB3683"/>
<path d="M61.3555 0.168213L62.1446 5.43715H66.6677L64.2991 0.168213H61.3555Z" fill="#FAC8DF"/>
<path d="M51.1664 14.444C51.1664 14.444 48.8826 14.3101 48.4009 15.252C47.9192 16.1939 49.8928 18.1822 51.1083 18.1408C52.3238 18.0994 51.1664 14.444 51.1664 14.444Z" fill="#FCAE92"/>
<path d="M62.9033 43.7133C62.9033 43.7133 56.8458 42.0266 55.1258 38.3832C53.4057 34.7402 59.8626 33.0434 59.7716 33.0607C59.6805 33.078 66.7483 33.6283 67.4083 34.6371C68.0687 35.646 70.9255 39.8295 70.1075 39.9849C69.2898 40.1398 62.9033 43.7133 62.9033 43.7133Z" fill="#F79386"/>
<path d="M51.6929 10.2168C51.6929 10.2082 51.6933 10.1999 51.6936 10.1913C51.706 9.90426 51.9304 9.67142 52.2158 9.64998C52.224 9.64922 52.2326 9.64885 52.2413 9.6481C52.2443 9.6481 52.2469 9.64772 52.2495 9.64772L64.8632 9.44159C64.8662 9.44159 64.8688 9.44159 64.8714 9.44159C64.88 9.44159 64.8883 9.44196 64.8969 9.44234C65.1827 9.45475 65.4146 9.68007 65.4363 9.96632C65.437 9.97459 65.4374 9.98325 65.4381 9.9919C65.4381 9.99491 65.4385 9.99754 65.4389 10.0002L65.8655 36.3379C65.87 36.6118 65.6524 36.8374 65.3797 36.842L52.6207 37.0503C52.348 37.0549 52.1233 36.8367 52.1188 36.5625L51.6921 10.2247C51.6921 10.2217 51.6921 10.2191 51.6921 10.2165L51.6929 10.2168Z" fill="#EFB0CD"/>
<path d="M65.6541 9.83416L64.6109 9.14166L52.3212 9.3745L51.2585 10.3442C51.2585 10.3442 51.3807 11.4441 51.4485 11.4599C51.5163 11.4757 65.7852 11.4091 65.781 11.1887C65.7769 10.9683 65.6544 9.83453 65.6544 9.83453L65.6541 9.83416Z" fill="#A2004A"/>
<g opacity="0.5">
<path d="M64.3455 10.4411C64.3466 10.5185 64.3938 10.5844 64.4601 10.613C64.4837 10.6235 64.5103 10.6291 64.5384 10.6284C64.5657 10.628 64.592 10.6216 64.6156 10.6103C64.6811 10.5799 64.7261 10.5122 64.7249 10.4347C64.7231 10.3293 64.6365 10.2455 64.532 10.2473C64.4271 10.2492 64.3436 10.3357 64.3455 10.4411Z" fill="white"/>
<path d="M63.7586 10.4504C63.7597 10.5279 63.8069 10.5937 63.8732 10.6223C63.8968 10.6328 63.9234 10.6385 63.9515 10.6377C63.9792 10.6373 64.0058 10.631 64.029 10.6197C64.0946 10.5888 64.1395 10.5215 64.138 10.444C64.1361 10.3387 64.05 10.2548 63.9451 10.2567C63.8402 10.2586 63.7567 10.3451 63.7586 10.4504Z" fill="white"/>
<path d="M63.1712 10.4605C63.1723 10.538 63.2195 10.6038 63.2858 10.6324C63.3094 10.643 63.336 10.6486 63.3641 10.6479C63.3922 10.6471 63.4184 10.6411 63.4416 10.6298C63.5072 10.599 63.5521 10.5316 63.5506 10.4541C63.5487 10.3488 63.4626 10.2649 63.3577 10.2668C63.2528 10.2687 63.1693 10.3552 63.1712 10.4605Z" fill="white"/>
</g>
<path d="M51.6973 10.5142C51.6899 10.0407 52.0659 9.65059 52.5371 9.64269L64.5759 9.44597C65.0474 9.43844 65.4359 9.81572 65.4437 10.2893L65.8614 36.0651C65.8681 36.4897 65.531 36.8392 65.1085 36.846L52.893 37.0457C52.4705 37.0525 52.1221 36.7143 52.1154 36.2896L51.6977 10.5139L51.6973 10.5142ZM51.1171 10.5093L51.5393 36.5507C51.552 37.3319 52.1929 37.9549 52.9709 37.9421L65.0598 37.7446C65.8378 37.7318 66.4581 37.0882 66.4453 36.3069L66.0232 10.2656C66.0105 9.48433 65.3696 8.86143 64.5916 8.87422L52.5027 9.0717C51.7247 9.08449 51.1044 9.72808 51.1171 10.5093Z" fill="#790038"/>
<path d="M68.3265 49.7644C65.4246 52.1386 61.8632 53.1939 61.5062 53.3884L61.5061 48.2482L61.508 46.5284L61.6473 43.2879L61.6454 43.2777L61.6395 43.2439L61.6743 43.2262L61.7503 43.1874L64.9791 41.5572H64.9799L67.097 40.4882L67.1827 40.4449C67.1827 40.4449 65.7245 40.2599 64.775 38.7455C64.7739 38.744 64.7735 38.7425 64.7724 38.741C64.7716 38.7398 64.7712 38.7391 64.7709 38.7379C64.5956 38.4585 64.4382 38.1335 64.3101 37.7566C64.2188 37.4865 64.142 37.1893 64.0858 36.8632C64.0363 36.5803 64.0023 36.276 63.9854 35.9477C63.9599 35.4432 63.9618 34.9651 63.9843 34.5141C64.0008 34.1929 64.0277 33.886 64.0633 33.5926C64.1056 33.2394 64.1607 32.9072 64.2236 32.5961C64.3978 31.7366 64.6345 31.0396 64.8503 30.5217C65.1439 29.8153 65.3975 29.4421 65.3975 29.4421C65.3975 29.4421 65.0908 28.34 64.7795 26.9622C64.7536 26.8497 64.7285 26.7357 64.7034 26.6202C64.3645 25.0724 64.0487 23.2762 64.151 22.3073C64.2588 21.2736 64.914 20.2723 65.6009 19.9172C65.7946 19.8164 65.9916 19.7679 66.1789 19.7844C66.4321 19.807 66.6692 19.9481 66.8606 20.2433C66.8891 20.287 66.9164 20.3344 66.9426 20.3848C66.9767 20.451 67.0093 20.5228 67.0396 20.6007C67.0396 20.6007 67.0396 20.6014 67.0404 20.6022C67.07 20.6782 67.0977 20.759 67.1228 20.8463C67.1228 20.8463 67.17 21.2364 67.2659 21.7912C67.2704 21.8175 67.2752 21.8446 67.2797 21.8721C67.2842 21.8977 67.2887 21.9232 67.2932 21.9481C67.3708 22.3746 67.4738 22.8783 67.6045 23.3714V23.3729C67.6045 23.3729 67.6045 23.3729 67.6045 23.3737C67.6146 23.4128 67.6255 23.4527 67.6363 23.4914C67.7809 24.018 67.9577 24.5236 68.1667 24.9005C68.8784 26.1835 70.5468 29.5527 70.9296 31.0874C71.312 32.6214 71.076 39.3755 71.076 39.3755L71.4543 46.6567C71.4543 46.6567 70.8327 47.522 70.0412 48.2482C69.2498 48.9744 68.3265 49.7644 68.3265 49.7644Z" fill="#FCAE92"/>
<path d="M51.3393 27.1688L51.358 28.1325C51.358 28.1325 52.9155 29.2219 52.796 30.9917C52.6765 32.7618 51.5813 33.1745 51.5813 33.1745C51.5813 33.1745 49.3769 31.1195 49.2537 30.2875C49.1304 29.4558 48.872 28.0043 51.3397 27.1688H51.3393Z" fill="#FCAE92"/>
<path d="M51.569 33.2428L50.2419 31.9432C49.5197 31.2209 49.2598 30.5157 49.1684 30.0511C49.0691 29.5444 49.1414 29.2123 49.1444 29.1984L49.2557 29.2236C49.2527 29.2364 48.9849 30.5247 50.3217 31.8615L51.5922 33.1058C52.0751 32.8704 52.326 32.4054 52.3287 32.4006C52.3369 32.3866 53.034 31.151 52.6429 29.9834C52.25 28.8098 51.0184 27.9827 51.006 27.9744L51.069 27.8788C51.121 27.9131 52.3455 28.7353 52.7512 29.9469C53.1587 31.1642 52.4586 32.4039 52.4283 32.4562C52.4182 32.4758 52.1466 32.9806 51.6042 33.2266L51.5686 33.2428H51.569Z" fill="black"/>
<path d="M51.4782 33.731L51.4928 34.484C51.4928 34.484 52.7098 35.3352 52.6166 36.7184C52.5233 38.1015 51.6674 38.4238 51.6674 38.4238C51.6674 38.4238 49.9447 36.818 49.8485 36.168C49.7522 35.5181 49.5503 34.384 51.4786 33.731H51.4782Z" fill="#FCAE92"/>
<path d="M51.6578 38.4772L50.621 37.4616C49.5392 36.3798 49.7538 35.3597 49.7636 35.3168L49.8505 35.3364C49.8482 35.3465 49.6388 36.3531 50.6835 37.3977L51.6765 38.37C52.0548 38.1857 52.25 37.8227 52.2518 37.819C52.2582 37.808 52.8028 36.8425 52.4976 35.9299C52.1904 35.0129 51.2281 34.3666 51.2184 34.3602L51.2675 34.2858C51.3079 34.3125 52.2649 34.9549 52.5818 35.9017C52.9002 36.853 52.353 37.8216 52.3297 37.8626C52.3219 37.878 52.1095 38.2722 51.6859 38.4648L51.6581 38.4772H51.6578Z" fill="black"/>
<path d="M64.6985 38.6124C64.6985 38.6124 66.0057 40.7508 64.9798 41.5577C63.9538 42.3641 67.8808 41.9692 67.8599 41.8567C67.8389 41.7442 69.9028 37.9169 69.1993 37.8755C68.4955 37.8341 66.2477 37.4452 65.8672 38.0414C65.4862 38.6376 64.6985 38.6124 64.6985 38.6124Z" fill="#FCAE92"/>
<path d="M51.2221 21.4651L51.2408 22.4288C51.2408 22.4288 52.7983 23.5181 52.6788 25.2879C52.5593 27.0581 51.4641 27.4707 51.4641 27.4707C51.4641 27.4707 49.2597 25.4154 49.1365 24.5838C49.0133 23.7521 48.7548 22.3005 51.2225 21.4651H51.2221Z" fill="#FCAE92"/>
<path d="M61.5802 43.2408L61.448 48.2449L61.5618 48.2479L61.6941 43.2438L61.5802 43.2408Z" fill="black"/>
<path d="M61.9641 43.3606C59.8849 42.8633 57.7981 41.5532 56.7392 40.5466C55.8013 39.6551 55.3395 38.951 55.335 38.9438L55.4305 38.8814C55.435 38.8882 55.8905 39.5822 56.8175 40.4635C57.8659 41.4599 59.9321 42.7569 61.9907 43.2493L61.9641 43.3606Z" fill="black"/>
<path d="M51.4517 27.5384L50.125 26.2392C49.4028 25.517 49.1428 24.8117 49.0515 24.3471C48.9522 23.8405 49.0245 23.5083 49.0275 23.4944L49.1387 23.5196C49.1357 23.5324 48.8679 24.8207 50.2048 26.1576L51.4757 27.4019C51.9117 27.1908 52.2102 26.6988 52.2132 26.6939C52.2199 26.6823 52.917 25.447 52.526 24.2794C52.133 23.1058 50.9015 22.2787 50.8891 22.2704L50.952 22.1749C51.0041 22.2091 52.2286 23.0314 52.6342 24.2429C53.0418 25.4602 52.3417 26.7 52.3113 26.7523C52.2975 26.7756 51.9754 27.3071 51.4869 27.523L51.4517 27.5384Z" fill="black"/>
<path d="M51.2228 22.4301L51.094 11.8629L51.1685 11.8606L51.2974 22.4278L51.2228 22.4301Z" fill="black"/>
<path d="M48.9649 16.9833C48.9222 16.9415 47.9206 15.9492 48.4124 15.1228C48.899 14.3062 50.9996 14.3799 51.0887 14.3837L51.0842 14.4981C51.0632 14.4973 48.9619 14.4232 48.5102 15.1819C48.0644 15.9304 49.0342 16.8919 49.0439 16.9013L48.9645 16.9833H48.9649Z" fill="black"/>
<path d="M68.6681 38.9098C68.6868 38.9185 68.7093 38.9177 68.7276 38.9053C69.3404 38.4881 69.7847 37.3905 69.803 37.3439C69.8154 37.313 69.8004 37.2781 69.7697 37.2653C69.739 37.2529 69.7038 37.2679 69.6914 37.2988C69.6869 37.3097 69.2423 38.4088 68.6598 38.8052C68.6325 38.8241 68.6254 38.8613 68.6437 38.8891C68.6501 38.8985 68.6583 38.9053 68.6677 38.9098H68.6681Z" fill="#000100"/>
<path d="M67.8383 38.9346C67.8529 38.9414 67.8702 38.9425 67.8863 38.9361C68.5744 38.6616 69.2437 37.6858 69.2718 37.6444C69.2905 37.617 69.2834 37.5794 69.2561 37.5606C69.2287 37.5417 69.1913 37.5489 69.1726 37.5764C69.1658 37.5861 68.4957 38.5626 67.8417 38.8237C67.811 38.8361 67.7956 38.8711 67.808 38.9019C67.814 38.9166 67.8249 38.9279 67.8383 38.9343V38.9346Z" fill="#000100"/>
<path d="M67.1754 40.5017C67.1443 40.4979 66.4038 40.3979 65.6269 39.7859C65.1715 39.4267 64.7995 38.9651 64.522 38.4141C64.1759 37.7272 63.9762 36.8986 63.9279 35.951C63.8193 33.8145 64.2107 32.1515 64.5583 31.1325C64.895 30.1451 65.258 29.5531 65.3352 29.4335C65.2138 28.9949 63.8972 24.1711 64.0931 22.302C64.1541 21.719 64.3852 21.1243 64.7445 20.627C65.0951 20.1414 65.5239 19.819 65.9217 19.7427C66.2326 19.6829 66.6709 19.7415 66.9923 20.3588C67.0631 20.4953 67.1252 20.6541 67.1765 20.8309L67.1784 20.8399C67.1799 20.8538 67.3481 22.232 67.6908 23.4771C67.8534 24.0688 68.0302 24.5386 68.2164 24.8737C68.8696 26.0519 70.5941 29.5091 70.9844 31.0739C71.3646 32.598 71.1425 39.1024 71.1328 39.3785L71.0189 39.3744C71.0211 39.3071 71.2504 32.6101 70.8739 31.1017C70.4863 29.5474 68.7681 26.1038 68.1167 24.9294C67.9264 24.5864 67.7463 24.1079 67.5811 23.5076C67.2462 22.2911 67.0769 20.9494 67.066 20.8583C67.017 20.6906 66.9582 20.5405 66.8915 20.4118C66.6626 19.9725 66.3349 19.7803 65.9435 19.8551C65.1535 20.0064 64.3257 21.1784 64.2069 22.314C64.008 24.2098 65.4378 29.3759 65.4524 29.4278L65.4595 29.4534L65.4445 29.4756C65.4404 29.4816 65.0374 30.0816 64.665 31.1747C64.3216 32.1831 63.9346 33.8295 64.0421 35.9454C64.1493 38.0515 65.0014 39.1476 65.6977 39.6964C66.4499 40.2892 67.1829 40.3877 67.19 40.3889L67.1758 40.5025L67.1754 40.5017Z" fill="black"/>
<path d="M62.1585 26.6078C64.0711 24.6871 64.0711 21.5731 62.1585 19.6524C60.2459 17.7318 57.145 17.7318 55.2324 19.6524C53.3198 21.5731 53.3198 24.6871 55.2324 26.6078C57.145 28.5285 60.2459 28.5285 62.1585 26.6078Z" fill="white"/>
<path d="M57.7857 25.6357L55.9387 23.056C55.8514 22.9338 55.8788 22.7638 56.0005 22.6761C56.1223 22.5885 56.2916 22.6163 56.3788 22.7382L57.8056 24.7307L61.3722 20.1867C61.4651 20.0686 61.6356 20.0483 61.7532 20.1416C61.8708 20.2349 61.891 20.406 61.7981 20.5242L57.7857 25.636V25.6357Z" fill="#CA005D"/>
<path d="M60.3657 27.1687L62.3854 29.1728L61.501 25.9898L60.3657 27.1687Z" fill="white"/>
<path d="M63.0599 31.8289H54.6841V32.2468H63.0599V31.8289Z" fill="#CA005D"/>
<path d="M63.0599 33.5588H54.6841V33.9767H63.0599V33.5588Z" fill="#CA005D"/>
<path d="M24.5342 17.9754C27.568 20.2178 28.887 20.4815 31.5251 24.043C35.4866 29.3911 33.5037 34.3315 32.7122 37.3653C31.9208 40.3991 27.4361 39.0801 27.4361 36.5739C27.4361 34.0677 29.0189 31.5615 33.2399 33.5401C36.8801 35.2465 37.8565 46.5938 42.8689 47.522C45.6389 48.035 46.9139 46.2029 47.8812 44.0924" stroke="#790038" stroke-width="0.5" stroke-dasharray="2 2"/>
<path d="M50.8767 42.8244L53.6373 37.8929C53.6373 37.8929 49.5838 41.2424 49.486 41.323C49.3888 41.403 45.8212 46.7691 45.8212 46.7691L44.2057 47.2585L46.7919 47.9091L50.8767 42.825L50.8767 42.8244Z" fill="#FFE2B0"/>
<path d="M46.792 47.9084L48.6486 49.6237L53.6373 37.8928L46.792 47.9084Z" fill="#FFA100"/>
<path d="M43.3638 44.5063L45.8214 46.7692L53.6375 37.8929L43.3638 44.5063Z" fill="#FFA100"/>
</svg>
