<svg width="53" height="63" viewBox="0 0 53 63" fill="none" xmlns="http://www.w3.org/2000/svg">
<g id="Group 2208">
<path id="Vector" d="M26.4262 62.5C38.2143 62.5 47.7704 52.904 47.7704 41.0668C47.7704 29.2295 38.2143 19.6335 26.4262 19.6335C14.6381 19.6335 5.08191 29.2295 5.08191 41.0668C5.08191 52.904 14.6381 62.5 26.4262 62.5Z" fill="#E3E8EF"/>
<g id="Group">
<path id="Vector_2" d="M20.5389 60.7266C20.3055 60.7266 20.1141 60.6002 20.1128 60.4416L19.8986 44.1448C19.8986 44.0648 19.947 43.9875 20.0338 43.9333C20.1128 43.883 20.2174 43.856 20.3259 43.856C20.3361 43.856 32.6705 44.4594 32.6705 44.4594C32.8873 44.4697 33.057 44.5883 33.0659 44.734L33.9702 60.4275C33.9753 60.5061 33.932 60.5809 33.8516 60.6376C33.7713 60.6944 33.6603 60.7253 33.5442 60.7253H20.5414L20.5389 60.7266Z" fill="#F8A081"/>
<g id="Vector_3">
<path d="M30.9816 46.9876C32.6003 46.0914 34.2801 44.2063 35.3184 42.5172C36.4485 40.6823 39.0825 36.4737 39.0991 33.9465C39.1106 32.0613 38.7228 25.3732 38.1425 23.7627C36.5786 19.4071 25.9598 20.9299 24.4177 25.1862C23.8488 26.7554 18.7633 36.1062 18.5821 40.115C18.4929 42.1097 19.2158 44.4505 21.8524 45.9178" fill="#F8A081"/>
<path d="M30.9816 46.9876C32.6003 46.0914 34.2801 44.2063 35.3184 42.5172C36.4485 40.6823 39.0825 36.4737 39.0991 33.9465C39.1106 32.0613 38.7228 25.3732 38.1424 23.7627C36.5786 19.4071 25.9598 20.9299 24.4177 25.1862C23.8488 26.7554 18.7633 36.1062 18.5821 40.115C18.4929 42.1097 19.2158 44.4505 21.8524 45.9178" stroke="#0E3847" stroke-width="0.5" stroke-linecap="round" stroke-linejoin="round"/>
</g>
</g>
<g id="Group_2">
<path id="Vector_4" d="M12.563 45.5109C12.4048 45.5109 12.2531 45.4219 12.1791 45.2685L0.469672 20.9902C0.366353 20.7762 0.454365 20.5183 0.666104 20.4138L40.1018 0.975969C40.1605 0.946312 40.2242 0.932129 40.2893 0.932129C40.3365 0.932129 40.3837 0.939865 40.4283 0.955338C40.5355 0.992731 40.6222 1.07139 40.6719 1.17325L52.3826 25.4516C52.4324 25.5534 52.4387 25.6733 52.403 25.7804C52.366 25.8887 52.2882 25.9763 52.1875 26.0266L12.7505 45.4658C12.6906 45.4954 12.6268 45.5096 12.5643 45.5096L12.563 45.5109Z" fill="#F2982E"/>
</g>
<path id="Vector_5" d="M12.6275 45.1492C12.5078 45.1492 12.3893 45.0995 12.3057 45.0064C12.1782 44.8637 12.1602 44.6535 12.2645 44.4929L26.2544 22.8915C26.3342 22.7692 26.4707 22.6953 26.6161 22.6953C26.629 22.6953 26.6431 22.6953 26.656 22.6966L52.4619 25.0884C52.6537 25.1062 52.8107 25.2489 52.8455 25.4363C52.8802 25.6249 52.7837 25.8122 52.6112 25.895L12.8167 45.1058C12.7562 45.1351 12.6918 45.1492 12.6275 45.1492Z" fill="#F5AC2E"/>
<g id="Group_3">
<path id="Vector_6" d="M27.423 25.721C27.4001 25.721 27.3758 25.7198 27.3529 25.7159L0.780951 21.2274C0.59855 21.1965 0.45569 21.0495 0.428904 20.8638C0.402118 20.6782 0.497783 20.4976 0.663602 20.4151L40.1005 0.975969C40.1605 0.946312 40.2243 0.932129 40.288 0.932129C40.4016 0.932129 40.5138 0.977258 40.5955 1.06494C40.7243 1.20033 40.7511 1.40405 40.6618 1.5691L27.7967 25.4954C27.7215 25.6359 27.5761 25.7198 27.4217 25.7198L27.423 25.721Z" fill="#FCD428"/>
</g>
<g id="Vector_7">
<path d="M37.6066 37.7531C38.1148 36.7325 38.6113 36.0988 38.623 34.1286C38.6282 33.0652 34.8265 27.3296 33.9596 26.4578C32.5325 25.2597 31.5798 26.8076 31.0547 27.45C28.9947 29.9642 33.2863 35.3449 32.8223 38.749" fill="#F8A081"/>
<path d="M37.6066 37.7531C38.1148 36.7325 38.6113 36.0988 38.623 34.1286C38.6282 33.0652 34.8265 27.3296 33.9596 26.4578C32.5325 25.2597 31.5798 26.8076 31.0547 27.45C28.9947 29.9642 33.2863 35.3449 32.8223 38.749" stroke="#0E3847" stroke-width="0.5" stroke-linecap="round" stroke-linejoin="round"/>
</g>
<path id="Vector_8" d="M20.7279 58.4176C19.945 58.4176 19.3115 58.1031 19.3115 57.715V49.9345C19.3115 49.5464 19.9462 49.2319 20.7279 49.2319H32.1247C32.9076 49.2319 33.541 49.5464 33.541 49.9345V57.715C33.541 58.1031 32.9064 58.4176 32.1247 58.4176H20.7266H20.7279Z" fill="white"/>
<path id="Vector_9" d="M35.1241 52.2935H17.7284C17.4793 52.2935 17.2787 52.4851 17.2787 52.7231V60.6862C20.0779 61.8515 23.1719 62.4998 26.4262 62.4998C29.6805 62.4998 32.7759 61.8515 35.5738 60.6862V52.7231C35.5738 52.4851 35.3718 52.2935 35.1241 52.2935Z" fill="#CA005D"/>
</g>
</svg>
