<svg width="110" height="110" viewBox="0 0 110 110" fill="none" xmlns="http://www.w3.org/2000/svg">
<mask id="mask0_4639_2566" style="mask-type:luminance" maskUnits="userSpaceOnUse" x="0" y="0" width="110" height="110">
<path d="M55 110C85.3757 110 110 85.3757 110 55C110 24.6243 85.3757 0 55 0C24.6243 0 0 24.6243 0 55C0 85.3757 24.6243 110 55 110Z" fill="white"/>
</mask>
<g mask="url(#mask0_4639_2566)">
<path d="M55 110C85.3757 110 110 85.3757 110 55C110 24.6243 85.3757 0 55 0C24.6243 0 0 24.6243 0 55C0 85.3757 24.6243 110 55 110Z" fill="#F6F6F9"/>
<path d="M82.0977 59.171C92.7751 59.171 101.431 50.5153 101.431 39.838C101.431 29.1606 92.7751 20.5049 82.0977 20.5049C71.4204 20.5049 62.7646 29.1606 62.7646 39.838C62.7646 50.5153 71.4204 59.171 82.0977 59.171Z" fill="#FF9500"/>
<path d="M61.1294 77.918C61.1294 77.918 64.2073 80.2176 69.9871 78.8711L61.1294 77.918Z" fill="#CA005D"/>
<path d="M61.1294 77.918C61.1294 77.918 64.2073 80.2176 69.9871 78.8711" stroke="#720037" stroke-linecap="round"/>
<path d="M76.2829 34.2945C75.0151 33.6649 74.6128 32.0297 75.4872 30.9105C76.519 29.5902 78.364 28.2261 81.5469 28.2523C85.6128 28.2873 89.2154 30.9805 89.1804 34.8016C89.1542 37.4598 87.1605 39.06 84.5461 40.1442C83.6192 40.5377 83.5842 41.2984 83.5755 42.1903C83.5755 43.0297 82.8847 43.703 82.0453 43.6943L80.6113 43.6768C79.7718 43.6768 79.0985 42.986 79.1073 42.1466L79.1248 40.7126C79.1335 39.5234 79.2035 38.5441 80.4276 37.7746C82.089 36.734 83.6367 36.6641 83.6542 34.7404C83.6629 33.4375 82.7011 32.5107 81.4857 32.5019C80.3839 32.4932 79.5882 33.0091 79.0636 33.6649C78.399 34.4956 77.2535 34.7579 76.3004 34.2857L76.2829 34.2945ZM84.3799 48.3636C84.3624 50.0687 82.9721 51.4415 81.2321 51.424C79.527 51.4065 78.1542 50.0162 78.1717 48.3024C78.1892 46.5711 79.5795 45.1983 81.2933 45.2158C83.0246 45.2332 84.3974 46.6235 84.3799 48.3636Z" fill="white"/>
<path d="M78.9588 72.8375C76.9214 66.3057 67.2068 43.1078 67.2068 43.1078C67.2068 43.1078 65.9652 39.785 62.7911 35.9988C62.7911 35.9988 59.1885 32.781 57.6846 32.3701C56.8626 31.7318 55.6647 30.8923 54.7203 30.6038C53.1289 30.1141 49.3427 31.7493 49.028 32.4051C48.7132 33.0609 49.6226 33.3057 51.1178 32.9035C52.613 32.5012 53.1289 32.3613 53.1289 32.3613L54.2831 33.7866C53.0852 34.626 52.0184 35.5704 51.9222 35.9376C51.7211 36.6721 52.7092 37.7651 52.7092 37.7651C52.7092 37.7651 53.3125 40.0648 54.1607 40.3184L55.0089 40.572C55.0089 40.572 56.8539 43.851 59.0923 44.0609C59.0923 44.0609 60.1154 47.541 62.4326 48.1093C62.9397 52.4202 64.9071 68.5004 66.7784 74.2016L58.6464 75.8717C59.1186 79.1244 62.4326 87.6149 62.4326 87.6149C66.1838 87.0728 81.8268 82.045 78.9588 72.8375Z" fill="#FFAE82"/>
<path d="M65.5277 47.4971C65.5277 47.4971 64.2161 48.6513 62.7559 47.8119" stroke="#F88868" stroke-linecap="round" stroke-linejoin="round"/>
<path d="M59.3809 43.8078C59.3809 43.8078 60.0804 43.3531 59.6432 42.4L58.7163 41.001" stroke="#F88868" stroke-linecap="round" stroke-linejoin="round"/>
<path d="M58.1651 37.8867C58.1651 37.8867 55.5681 38.9885 55.332 40.2039" stroke="#F88868" stroke-linecap="round" stroke-linejoin="round"/>
<path d="M46.8242 72.8028C46.8242 72.8028 51.9395 75.5047 66.0523 74.4729C62.4411 63.7702 63.0531 53.1112 63.0531 53.1112L70.6517 52.3242C70.6517 52.3242 78.8798 70.0396 79.3083 74.8926C79.3083 82.1589 66.7868 85.9276 66.7868 85.9276C66.7868 85.9276 59.7129 89.1978 54.2479 89.0929C46.0985 88.9355 46.8242 72.8028 46.8242 72.8028Z" fill="#CA005D" stroke="#720037"/>
<path d="M56.9675 35.3691C56.9675 35.3691 54.318 35.6577 53.0239 37.4415" stroke="#F88868" stroke-linecap="round" stroke-linejoin="round"/>
<path d="M36.6987 78.6263C32.1256 78.6263 28.4793 75.8719 25.6899 72.077C27.3775 71.701 28.4793 71.5087 28.4793 71.5087C33.5771 70.8441 38.8847 71.2026 42.7408 71.6836C42.767 71.6836 42.7933 71.6836 42.8195 71.6836C42.4173 75.8632 38.9896 78.6176 36.6987 78.6176V78.6263Z" fill="#FFAE82"/>
<path d="M53.6883 104.054C53.7407 103.284 53.8369 102.567 54.0118 102.017C54.1517 101.562 54.3528 101.081 54.5627 100.574C54.6589 100.338 54.755 100.093 54.8512 99.8568C55.1573 99.0873 55.4371 98.2567 55.5945 97.3298C55.9005 95.5023 55.7256 93.2638 54.0555 90.422C52.2892 87.4141 51.0213 82.9721 50.1907 79.3346C49.771 77.5071 49.4649 75.8632 49.2638 74.674C48.9927 73.2312 48.2582 72.9339 47.7511 72.8377C46.7455 72.6541 45.3027 72.4093 43.5714 72.1907H43.5364C43.5277 72.1907 43.5102 72.1907 43.4927 72.1907C39.5404 71.701 34.1366 71.3338 28.9514 72.0158H28.9164C28.8814 72.0158 28.829 72.0333 28.7678 72.042C28.6366 72.0683 28.4442 72.1032 28.1994 72.147C27.701 72.2431 26.9927 72.3918 26.1271 72.5754C25.2789 72.759 24.2908 72.9951 23.2153 73.2662C21.9124 73.5985 20.8457 73.7646 19.9013 73.9133C19.4466 73.9832 19.0269 74.0532 18.6247 74.1319C17.453 74.3592 16.3425 74.6915 14.8647 75.5396C14.891 75.6795 14.9172 75.8632 14.9522 76.0818C15.0484 76.6414 15.1883 77.4633 15.3719 78.4776C15.7479 80.5063 16.3075 83.3218 17.042 86.4609C17.9601 90.387 19.1493 94.8028 20.6008 98.8338C21.4752 101.256 36.6199 110 52.2805 110.699C52.7527 110.717 53.2161 110.673 53.6795 110.673C53.6795 110.629 53.6795 110.577 53.6795 110.525C53.662 110.114 53.6358 109.519 53.6271 108.837C53.6008 107.464 53.6008 105.68 53.7145 104.054H53.6883Z" fill="#CA005D" stroke="#720037"/>
<path d="M13.9993 76.8602C14.2004 76.458 14.3666 76.1345 14.489 75.8896C17.2609 78.0582 19.2458 81.5908 20.5486 84.6949C21.2307 86.3213 21.7203 87.8078 22.0351 88.892C22.1925 89.4342 22.3149 89.8714 22.3849 90.1774C22.4198 90.3261 22.4461 90.4397 22.4723 90.5184C18.0566 104.115 12.338 113.515 10.0383 116.995C7.02159 114.941 5.68375 111.513 5.43017 107.386C5.1766 103.084 6.11221 98.0995 7.49377 93.3515C8.87533 88.6035 10.6853 84.1178 12.1631 80.8125C12.8976 79.1599 13.5446 77.8133 14.0081 76.869L13.9993 76.8602Z" fill="#CA005D" stroke="#720037"/>
<path d="M28.1293 71.7452L21.5625 73.118C21.5625 73.118 24.6754 79.1776 32.4139 82.754L35.553 79.1776L38.9806 82.754C38.9806 82.754 46.3169 78.1721 47.2612 72.2961C42.9766 71.7452 40.1173 71.1943 40.1173 71.1943C40.1173 71.1943 40.9655 75.4702 35.0633 75.8986C30.9186 76.1959 28.1118 71.7452 28.1118 71.7452H28.1293Z" fill="#CA005D" stroke="#720037" stroke-linecap="round" stroke-linejoin="round"/>
<path d="M45.6615 86.3648C45.6091 86.3911 45.2681 86.3998 45.2681 86.3998C45.2681 86.3998 45.5391 86.461 45.5566 86.496C45.5741 86.531 45.5129 86.7583 45.5129 86.7583C45.5129 86.7583 45.6441 86.5485 45.6878 86.4873C45.7228 86.4523 45.7927 86.4348 45.8539 86.426C46.1162 86.3998 46.3611 86.3036 46.5622 86.1375C46.772 85.9626 46.7633 85.9451 46.7633 85.9451C46.7633 85.9451 46.5534 85.8752 46.2474 85.9888C45.9151 86.12 45.7053 86.3473 45.6528 86.3648H45.6615Z" fill="#E89F25"/>
<path d="M40.5111 91.6288C40.4587 91.655 40.1089 91.6637 40.1089 91.6637C40.1089 91.6637 40.3887 91.7512 40.4149 91.7774C40.4412 91.8036 40.4412 92.0747 40.4412 92.0747C40.4412 92.0747 40.5461 91.8299 40.5898 91.7599C40.616 91.7162 40.7122 91.7075 40.7559 91.6987C41.0795 91.6812 41.3768 91.5326 41.5954 91.2965C41.814 91.0517 41.8052 91.0167 41.8052 91.0167C41.8052 91.0167 41.5167 90.9118 41.1582 91.0692C40.7997 91.2265 40.5723 91.5938 40.5199 91.6288" fill="#E89F25"/>
<path d="M48.2148 85.7009C48.1274 85.7359 47.6465 85.6747 47.6465 85.6747C47.6465 85.6747 48.0225 85.8408 48.0575 85.8845C48.0924 85.9283 48.04 86.3042 48.04 86.3042C48.04 86.3042 48.2236 85.9807 48.3023 85.8845C48.346 85.8233 48.4772 85.8233 48.5471 85.8321C48.6083 85.8321 49.2554 85.8845 49.7888 85.4124C50.1385 85.1063 50.121 85.0538 50.121 85.0538C50.121 85.0538 49.7363 84.8527 49.2029 85.0189C48.6695 85.185 48.2935 85.6659 48.2061 85.7009H48.2148Z" fill="#970049"/>
<path d="M38.334 91.4361C38.2553 91.4798 37.8618 91.4186 37.8618 91.4186C37.8618 91.4186 38.2553 91.541 38.2728 91.5673C38.299 91.5935 38.1416 91.9782 38.1416 91.9782C38.1416 91.9782 38.3253 91.7334 38.3952 91.6372C38.4652 91.5498 38.6575 91.4798 38.7799 91.4623C38.8936 91.4448 39.3833 91.4011 39.8817 90.8852C40.2052 90.5442 40.1965 90.5005 40.1965 90.5005C40.1965 90.5005 39.8117 90.3781 39.2958 90.6141C38.7887 90.8502 38.4127 91.3836 38.334 91.4273V91.4361Z" fill="#970049"/>
<path d="M42.0761 90.2908C42.0237 90.3083 41.7876 90.2296 41.7876 90.2296C41.7876 90.2296 42.0149 90.3433 42.0237 90.3695C42.0324 90.3957 41.9013 90.6056 41.9013 90.6056C41.9013 90.6056 42.0412 90.4744 42.1024 90.422C42.1548 90.3782 42.2773 90.3608 42.356 90.3608C42.4347 90.3608 42.732 90.387 43.0992 90.1247C43.344 89.9498 43.3353 89.9235 43.3353 89.9235C43.3353 89.9235 43.1079 89.8099 42.7757 89.8973C42.4434 89.9848 42.1461 90.2733 42.0936 90.2908" fill="#970049"/>
<path d="M40.0827 89.6265C40.004 89.6877 39.9166 89.7314 39.8117 89.7489C39.4357 89.8363 39.0684 89.7139 38.946 89.2155C38.8236 88.7171 39.1121 88.4285 39.4881 88.3498C39.5756 88.3324 39.6718 88.3149 39.7679 88.3236L39.8204 88.5597C39.7242 88.5422 39.628 88.551 39.5319 88.5684C39.2695 88.6297 39.1121 88.8045 39.1996 89.163C39.287 89.5215 39.5231 89.6002 39.7679 89.539C39.8641 89.5215 39.9516 89.4778 40.0303 89.4254L40.0827 89.6352V89.6265Z" fill="white"/>
<path d="M40.9573 88.9622C41.0272 89.2508 40.9048 89.4956 40.6425 89.5568C40.3802 89.618 40.1528 89.4519 40.0829 89.1633C40.0129 88.8748 40.1353 88.63 40.3977 88.5687C40.66 88.5075 40.8786 88.6649 40.9573 88.9622ZM40.3277 89.1109C40.3714 89.312 40.4939 89.3907 40.5988 89.3644C40.7125 89.3382 40.7649 89.2333 40.7212 89.0234C40.6687 88.8136 40.5551 88.7436 40.4501 88.7699C40.3365 88.7961 40.2752 88.901 40.3277 89.1109Z" fill="white"/>
<path d="M42.47 89.111L42.2426 89.1635L42.1027 88.5689C42.0765 88.4464 42.0153 88.4115 41.9104 88.4377C41.8491 88.4552 41.7705 88.4989 41.7792 88.5426C41.7792 88.5689 41.7967 88.5951 41.8054 88.6213L41.9541 89.2334L41.7267 89.2859L41.5868 88.6913C41.5606 88.5689 41.4994 88.5339 41.4119 88.5514C41.3333 88.5689 41.2633 88.6038 41.2808 88.6738L41.4469 89.3471L41.2196 89.3995L41.001 88.4902C41.1933 88.4464 41.2458 88.3852 41.3945 88.3503C41.5256 88.324 41.5868 88.3415 41.648 88.3677C41.7267 88.2978 41.8142 88.2541 41.9191 88.2366C42.1115 88.1929 42.2601 88.2453 42.3213 88.4902L42.47 89.1197V89.111Z" fill="white"/>
<path d="M42.7494 89.5129C42.7056 89.303 42.6707 89.1544 42.6095 88.892L42.4346 88.14C42.5745 88.1051 42.6532 88.0613 42.7843 88.0264C43.0292 87.9739 43.274 88.0963 43.3527 88.4199C43.4314 88.7434 43.2478 88.9532 43.0467 88.997C42.9854 89.0144 42.9242 89.0144 42.8718 88.997L42.9767 89.4516L42.7494 89.5041V89.5129ZM42.8106 88.2275C42.7406 88.245 42.6969 88.2887 42.7056 88.3237L42.8193 88.8046C42.8193 88.8046 42.8893 88.857 42.9592 88.8396C43.0991 88.8046 43.1603 88.6997 43.1079 88.4898C43.0554 88.2799 42.9505 88.2013 42.8106 88.2362V88.2275Z" fill="white"/>
<path d="M43.93 88.1403V88.1053C43.9037 88.0266 43.8425 87.9916 43.7463 88.0179C43.6414 88.0441 43.5452 88.0878 43.4665 88.1578L43.4141 87.9479C43.5102 87.8955 43.6064 87.8517 43.7201 87.8342C43.9387 87.7818 44.0961 87.8342 44.1486 88.0528C44.1835 88.2015 44.2098 88.3414 44.2447 88.49C44.2622 88.5687 44.2885 88.6562 44.306 88.6999C44.1486 88.7349 44.0611 88.7873 43.9212 88.8136C43.6851 88.866 43.5452 88.7873 43.5015 88.6037C43.4578 88.4201 43.5715 88.2365 43.93 88.1403ZM43.9737 88.3064C43.7901 88.3589 43.7114 88.4288 43.7376 88.5338C43.7551 88.6037 43.825 88.6387 43.9125 88.6212C43.9999 88.6037 44.0261 88.5775 44.0261 88.5425C44.0174 88.4638 43.9999 88.3851 43.9737 88.3064Z" fill="white"/>
<path d="M44.4808 88.6556L44.2534 87.7287L44.4633 87.685L44.4808 87.7724C44.4808 87.7724 44.5245 87.685 44.5682 87.6588C44.6032 87.6325 44.6556 87.6063 44.6994 87.5976C44.7343 87.5976 44.7693 87.5801 44.8043 87.5801L44.8568 87.8074C44.8043 87.8074 44.7518 87.8074 44.6994 87.8074C44.6119 87.8249 44.5332 87.8861 44.5507 87.9648C44.5857 88.1222 44.6469 88.367 44.6994 88.5944L44.472 88.6468L44.4808 88.6556Z" fill="white"/>
<path d="M45.1456 87.5278L45.4166 87.4666L45.4604 87.6589L45.1893 87.7201C45.233 87.9125 45.268 88.0524 45.303 88.2011C45.3205 88.271 45.3642 88.2885 45.4429 88.271C45.4953 88.2623 45.5478 88.236 45.5915 88.2011L45.6352 88.3934C45.574 88.4371 45.5041 88.4634 45.4254 88.4809C45.2593 88.5158 45.1281 88.4721 45.0844 88.2972L44.8745 87.4141L45.0669 87.2305L45.1368 87.5278H45.1456Z" fill="white"/>
<path d="M46.1248 87.6412V87.6062C46.0986 87.5275 46.0373 87.4925 45.9412 87.5187C45.8362 87.545 45.74 87.5887 45.6614 87.6586L45.6089 87.4488C45.7051 87.3963 45.81 87.3526 45.9149 87.3351C46.1335 87.2826 46.2909 87.3351 46.3434 87.5625C46.3784 87.7111 46.4046 87.851 46.4396 87.9997C46.4571 88.0696 46.4745 88.1396 46.5008 88.2095C46.3346 88.2445 46.2559 88.297 46.116 88.3232C45.88 88.3756 45.74 88.2969 45.6963 88.1133C45.6526 87.9297 45.7663 87.7461 46.1248 87.6499V87.6412ZM46.1685 87.7985C45.9849 87.851 45.9062 87.921 45.9324 88.0259C45.9499 88.0958 46.0199 88.1308 46.1073 88.1133C46.1947 88.0958 46.221 88.0696 46.221 88.0346C46.2122 87.9559 46.1947 87.8772 46.1685 87.7985Z" fill="white"/>
<path d="M47.9348 87.8688L47.7075 87.9213L47.5676 87.3267C47.5413 87.2043 47.4801 87.1693 47.3752 87.1955C47.314 87.213 47.2353 87.2567 47.244 87.3004C47.244 87.3267 47.2615 87.3529 47.2703 87.3791L47.4189 87.9912L47.1916 88.0437L47.0517 87.4491C47.0254 87.3267 46.9642 87.2917 46.8768 87.3092C46.8068 87.3267 46.7281 87.3617 46.7456 87.4316L46.9118 88.1049L46.6844 88.1574L46.4658 87.248C46.6669 87.2043 46.7194 87.143 46.868 87.1168C46.9992 87.0906 47.0604 87.1081 47.1216 87.1343C47.1916 87.0644 47.2878 87.0206 47.3927 86.9944C47.5851 86.9507 47.7337 87.0031 47.7949 87.248L47.9436 87.8776L47.9348 87.8688Z" fill="white"/>
<path d="M48.8442 87.178C48.9142 87.4666 48.7917 87.7114 48.5294 87.7726C48.2671 87.8338 48.0398 87.6677 47.9698 87.3792C47.8999 87.0906 48.031 86.8458 48.2933 86.7846C48.5557 86.7234 48.7743 86.8807 48.8442 87.178ZM48.2146 87.3267C48.2584 87.5278 48.3808 87.6065 48.4857 87.5803C48.5906 87.554 48.6518 87.4491 48.6081 87.2392C48.5557 87.0294 48.442 86.9594 48.3371 86.9857C48.2234 87.0119 48.1622 87.1168 48.2146 87.3267Z" fill="white"/>
<path d="M49.1938 86.5751C49.2638 86.5576 49.3425 86.5488 49.4212 86.5488L49.4737 86.7587C49.395 86.7412 49.3163 86.7499 49.2376 86.7587C49.1589 86.7762 49.1152 86.8199 49.1326 86.8724C49.1676 87.0123 49.5611 86.9073 49.631 87.1959C49.666 87.3533 49.5961 87.5282 49.325 87.5894C49.2376 87.6069 49.1589 87.6156 49.0714 87.6156L49.0277 87.4232C49.1064 87.4232 49.1938 87.4232 49.2725 87.4057C49.3775 87.3795 49.4299 87.327 49.4124 87.2658C49.3775 87.1084 48.984 87.2221 48.914 86.9511C48.8703 86.7674 48.984 86.6275 49.2026 86.5751H49.1938Z" fill="white"/>
<path d="M44.2799 90.4655L44.0264 89.3987L44.586 89.2676L44.621 89.3987C44.5248 89.4162 44.3936 89.4425 44.2275 89.4774C44.21 89.4774 44.21 89.4949 44.21 89.5124C44.2275 89.5736 44.2537 89.6873 44.2799 89.8185L44.6472 89.731L44.6734 89.8534L44.3062 89.9409L44.4198 90.4305L44.2799 90.4655Z" fill="white"/>
<path d="M44.9093 89.32C44.9093 89.32 44.9093 89.3463 44.9093 89.355C44.9093 89.3638 44.9093 89.3813 44.9005 89.39C44.9005 89.39 44.883 89.4075 44.8743 89.4162C44.8743 89.425 44.8568 89.425 44.8393 89.4337C44.8131 89.4337 44.7956 89.4337 44.7694 89.425C44.7519 89.4162 44.7344 89.39 44.7344 89.3725C44.7344 89.3463 44.7344 89.3288 44.7431 89.3026C44.7606 89.2851 44.7781 89.2676 44.7956 89.2676C44.8043 89.2676 44.8131 89.2676 44.8306 89.2676C44.8393 89.2676 44.8568 89.2676 44.8655 89.2763C44.8743 89.2851 44.883 89.2938 44.8918 89.3026C44.8918 89.3113 44.9005 89.32 44.9093 89.3288V89.32ZM44.953 89.5386C45.0054 89.7572 45.0666 90.0458 45.1191 90.2731L44.988 90.3081L44.8131 89.5736L44.953 89.5386Z" fill="white"/>
<path d="M45.2676 89.6611L45.3988 90.212L45.2589 90.247L45.084 89.53C45.2414 89.495 45.2501 89.4513 45.3988 89.4163C45.5387 89.3813 45.6786 89.4163 45.7223 89.6087L45.8447 90.1071L45.7048 90.142L45.5911 89.6699C45.5649 89.5562 45.495 89.53 45.39 89.5475C45.2938 89.5649 45.2414 89.6174 45.2501 89.6611H45.2676Z" fill="white"/>
<path d="M46.2644 89.5129V89.4779C46.2382 89.3992 46.177 89.3642 46.0808 89.3905C46.0021 89.408 45.9322 89.4429 45.871 89.4866L45.8447 89.3642C45.9147 89.3205 45.9846 89.2855 46.0633 89.268C46.2295 89.2331 46.3519 89.2681 46.3869 89.4429C46.4131 89.5653 46.4393 89.6878 46.4656 89.8014C46.483 89.8626 46.4918 89.9151 46.5093 89.9588C46.3869 89.9851 46.3256 90.02 46.2207 90.0463C46.0458 90.09 45.9322 90.02 45.9059 89.8801C45.871 89.7315 45.9671 89.5916 46.2557 89.5129H46.2644ZM46.2907 89.6178C46.107 89.6615 46.0371 89.7315 46.0633 89.8364C46.0633 89.8539 46.0633 89.8714 46.0808 89.8801C46.0896 89.8976 46.107 89.9064 46.1158 89.9151C46.1333 89.9151 46.1508 89.9326 46.1683 89.9326C46.1857 89.9326 46.2032 89.9326 46.2207 89.9326C46.3082 89.9151 46.3344 89.8889 46.3344 89.8539C46.3256 89.7752 46.3082 89.7053 46.2907 89.6353" fill="white"/>
<path d="M46.667 89.3379L46.7982 89.8888L46.6583 89.9237L46.4834 89.2067C46.6408 89.1717 46.6495 89.128 46.7982 89.0931C46.9381 89.0581 47.0692 89.0931 47.1217 89.2854L47.2441 89.7838L47.1042 89.8188L46.9906 89.3466C46.9643 89.233 46.8944 89.2067 46.7894 89.2242C46.6933 89.2417 46.6408 89.2942 46.6495 89.3379H46.667Z" fill="white"/>
<path d="M47.725 89.5825C47.725 89.5825 47.8037 89.565 47.8474 89.5475L47.8737 89.6612C47.8737 89.6612 47.795 89.6961 47.7513 89.7049C47.5239 89.7573 47.3403 89.6612 47.2791 89.3988C47.2266 89.1628 47.3228 88.9791 47.5589 88.9267C47.6026 88.9179 47.6463 88.9092 47.69 88.9092L47.725 89.0403C47.6813 89.0403 47.6376 89.0403 47.5939 89.0491C47.454 89.0841 47.3927 89.1715 47.4365 89.3639C47.4802 89.5562 47.5851 89.6087 47.725 89.5825Z" fill="white"/>
<path d="M47.9346 88.6296C47.9346 88.6296 47.9346 88.6558 47.9346 88.6646C47.9346 88.6733 47.9346 88.6908 47.9259 88.6996C47.9259 88.6996 47.9084 88.7171 47.8997 88.7258C47.8909 88.7258 47.8822 88.7345 47.8647 88.7433C47.8385 88.7433 47.821 88.7433 47.7947 88.7345C47.7773 88.7258 47.7598 88.6996 47.7598 88.6821C47.7598 88.6558 47.7598 88.6384 47.7685 88.6121C47.786 88.5946 47.8035 88.5771 47.821 88.5771C47.8297 88.5771 47.8385 88.5771 47.856 88.5771C47.8647 88.5771 47.8822 88.5771 47.8909 88.5859C47.8909 88.5859 47.9084 88.6034 47.9172 88.6121C47.9172 88.6209 47.9259 88.6296 47.9346 88.6471V88.6296ZM47.9784 88.8482C48.0308 89.0668 48.092 89.3554 48.1445 89.5827L48.0133 89.6177L47.8385 88.8832L47.9784 88.8482Z" fill="white"/>
<path d="M48.3109 89.1635C48.3109 89.1635 48.3109 89.181 48.3109 89.1897C48.3546 89.3559 48.4683 89.4171 48.6082 89.3821C48.6607 89.3734 48.7219 89.3471 48.7656 89.3121L48.7918 89.4346C48.7394 89.4608 48.6869 89.487 48.6257 89.5045C48.3983 89.557 48.2147 89.4695 48.1535 89.1985C48.101 88.9711 48.206 88.7875 48.4158 88.7438C48.6082 88.7001 48.7131 88.8137 48.7568 88.9799C48.7568 89.0061 48.7743 89.0411 48.7743 89.0673L48.3022 89.1722L48.3109 89.1635ZM48.5732 88.9886C48.5732 88.9886 48.6082 88.9624 48.5995 88.9449C48.582 88.8749 48.5295 88.84 48.4421 88.8575C48.3983 88.8662 48.3546 88.8924 48.3371 88.9274C48.3109 88.9624 48.2934 89.0061 48.3022 89.0498L48.582 88.9886H48.5732Z" fill="white"/>
<path d="M49.0015 89.399L48.8267 88.6645L48.9578 88.6383L48.9753 88.717C48.9753 88.717 49.0103 88.647 49.0453 88.6208C49.0802 88.5945 49.1152 88.5771 49.1502 88.5683C49.1764 88.5683 49.2027 88.5596 49.2289 88.5596L49.2639 88.7082C49.2639 88.7082 49.1852 88.7082 49.1502 88.7082C49.0627 88.7257 49.0015 88.7782 49.019 88.8481C49.054 88.9793 49.0977 89.1717 49.1414 89.364L49.0015 89.399Z" fill="white"/>
<path d="M49.7625 88.717V88.682C49.7363 88.6033 49.675 88.5683 49.5789 88.5946C49.5002 88.6121 49.4302 88.647 49.369 88.6908L49.3428 88.5683C49.4127 88.5246 49.4827 88.4896 49.5614 88.4721C49.7275 88.4372 49.8499 88.4721 49.8849 88.647C49.9111 88.7694 49.9374 88.8919 49.9636 89.0055C49.9811 89.0667 49.9898 89.1192 50.0073 89.1629C49.8849 89.1892 49.8237 89.2241 49.7275 89.2504C49.5526 89.2941 49.439 89.2241 49.4127 89.0842C49.3777 88.9356 49.4739 88.7957 49.7625 88.717ZM49.7887 88.8219C49.6051 88.8656 49.5351 88.9356 49.5614 89.0405C49.5614 89.058 49.5614 89.0755 49.5789 89.0842C49.5876 89.1017 49.6051 89.1105 49.6138 89.1192C49.6313 89.1192 49.6488 89.1367 49.6576 89.1367C49.675 89.1367 49.6925 89.1367 49.71 89.1367C49.7975 89.1192 49.8237 89.093 49.8237 89.058C49.815 88.9793 49.7975 88.9093 49.78 88.8394L49.7887 88.8219Z" fill="white"/>
<path d="M50.4793 89.0587C50.4793 89.0587 50.4006 89.0587 50.3656 89.0587C50.3306 89.0412 50.2956 89.0237 50.2781 88.9975C50.2519 88.9713 50.2432 88.9275 50.2432 88.8926C50.2432 88.8576 50.2432 88.8226 50.2694 88.7876C50.2869 88.7527 50.3219 88.7264 50.3481 88.7177C50.3831 88.7002 50.418 88.7002 50.4618 88.7002C50.4967 88.7002 50.5317 88.7264 50.5579 88.7527C50.5842 88.7789 50.6017 88.8139 50.6104 88.8488C50.6104 88.8751 50.6104 88.9013 50.6104 88.9188C50.6104 88.9363 50.5929 88.9713 50.5842 88.9887C50.5667 89.0062 50.5492 89.0237 50.5317 89.0412C50.5055 89.0587 50.488 89.0674 50.4618 89.0674L50.4793 89.0587ZM50.4006 88.7177C50.4006 88.7177 50.3393 88.7352 50.3219 88.7614C50.2956 88.7876 50.2869 88.8139 50.2781 88.8401C50.2781 88.8663 50.2781 88.9013 50.2869 88.9275C50.3044 88.9538 50.3219 88.98 50.3481 88.9975C50.3743 89.015 50.4093 89.0237 50.4355 89.0237C50.4705 89.0237 50.4967 89.015 50.523 88.9975C50.5492 88.98 50.5667 88.9538 50.5754 88.9275C50.5842 88.9013 50.5929 88.8663 50.5754 88.8401C50.5754 88.8226 50.5667 88.7964 50.5492 88.7876C50.5405 88.7701 50.523 88.7527 50.5055 88.7439C50.488 88.7352 50.4705 88.7264 50.4443 88.7177C50.418 88.7089 50.4006 88.7177 50.3831 88.7177H50.4006ZM50.418 88.9975H50.3831L50.3219 88.7614C50.3481 88.7614 50.3656 88.7527 50.3918 88.7439C50.4443 88.7352 50.4793 88.7439 50.488 88.7964C50.488 88.8139 50.488 88.8226 50.488 88.8401C50.488 88.8488 50.4705 88.8663 50.4618 88.8751L50.5492 88.9713H50.5142L50.4355 88.9101C50.4355 88.9101 50.4093 88.8926 50.4006 88.8926H50.3831L50.4093 88.9975H50.418ZM50.418 88.8663C50.418 88.8663 50.4705 88.8401 50.4705 88.8051C50.4705 88.7789 50.4443 88.7701 50.4093 88.7789C50.3918 88.7789 50.3831 88.7876 50.3831 88.7964L50.4006 88.8751H50.418V88.8663Z" fill="white"/>
<path d="M11.3933 41.5C11.3933 41.5 8.45529 55.4205 10.1691 63.2552C11.883 71.0811 17.5054 70.1105 18.3623 69.8657C19.2192 69.6208 19.9537 67.3299 19.9537 67.3299C19.9537 67.3299 21.0467 69.376 23.495 69.2536C25.9521 69.1312 28.5141 67.5572 28.5141 67.5572C28.5141 67.5572 36.2264 69.376 40.7558 68.3967C45.2764 67.4173 45.9235 65.4587 45.9235 65.4587C45.9235 65.4587 48.5992 66.6828 51.6508 63.9897C54.7025 61.2965 50.4179 50.4452 48.7653 46.1431C47.1127 41.841 11.3933 41.5 11.3933 41.5Z" fill="black"/>
<path d="M46.1161 37.7573C46.1161 37.7573 48.6781 51.6778 48.7656 55.7088C48.853 59.7485 45.0056 63.8757 40.791 66.0967C36.5764 68.309 27.8149 64.3392 25.8649 61.4886C23.915 58.6381 20.1201 43.5109 20.1201 43.5109C20.1201 43.5109 38.3952 28.8209 46.1161 37.7573Z" fill="#FFAE82"/>
<path d="M39.1557 64.9951C39.1557 64.9951 39.112 66.0182 39.9514 70.6962C40.1962 74.2463 37.1795 75.8989 33.9268 75.4268C31.0062 75.007 28.2781 71.3608 28.2781 71.3608L25.3926 60.6318L39.1644 64.9951H39.1557Z" fill="#FFAE82"/>
<path d="M24.3956 51.1535C24.3956 51.1535 21.3964 47.2799 18.9131 49.2386C16.4298 51.1972 18.7994 56.5486 20.9417 58.1225C23.0753 59.6964 25.4187 57.458 25.4187 57.458L24.3956 51.1622V51.1535Z" fill="#FFAE82"/>
<path d="M39.2779 66.6039C39.2779 66.6039 33.5331 66.7001 29.6157 64.4004C29.6157 64.4004 34.8359 70.7398 39.9599 70.6961L39.2779 66.6039Z" fill="#F88868"/>
<path d="M40.3884 36.1573C40.3884 36.1573 41.0879 41.0802 34.1802 44.333C29.0299 46.7639 27.7271 49.3871 27.7271 49.3871C27.7271 49.3871 29.0736 54.3274 25.1388 55.7527C25.1388 55.7527 22.7167 47.7957 19.5776 48.8624C16.4385 49.9205 19.5164 59.1891 24.3956 58.1923C24.3956 58.1923 26.2668 60.8767 26.2668 64.8116C26.2668 64.8116 15.0395 59.4165 11.8916 49.7281C8.74375 40.0397 15.0919 35.8163 15.0919 35.8163C15.0919 35.8163 16.6484 30.5174 24.5879 27.5007C32.5275 24.4841 41.5077 26.3116 45.8534 29.7917C50.1992 33.2718 49.0887 37.81 49.0887 37.81C49.0887 37.81 52.2891 40.2583 51.9218 43.9133C51.5546 47.5683 48.0132 49.0461 48.0132 49.0461C48.0132 49.0461 45.5474 39.4189 43.51 37.0492C41.4727 34.6796 40.3972 36.1748 40.3972 36.1748L40.3884 36.1573Z" fill="black"/>
<path d="M40.7559 47.709C40.7559 47.709 41.0182 50.577 42.4522 52.1072C43.8862 53.6462 41.6478 54.8878 41.6478 54.8878" stroke="#F88868" stroke-miterlimit="10"/>
<path d="M45.9233 43.3357C45.9233 43.3357 43.921 41.6656 42.3208 43.4669" stroke="black" stroke-linecap="round" stroke-linejoin="round"/>
<path d="M36.1303 45.1807C36.1303 45.1807 34.5739 46.4486 32.2305 47.1044" stroke="black" stroke-linecap="round" stroke-linejoin="round"/>
<path d="M19.9536 51.3545C19.9536 51.3545 22.4981 52.0015 23.4949 55.3155" stroke="#F88868" stroke-linecap="round" stroke-linejoin="round"/>
<path d="M21.7553 55.001C21.7553 55.001 21.3618 54.1966 22.1837 53.1123" stroke="#F88868" stroke-linecap="round" stroke-linejoin="round"/>
<path d="M34.5299 50.3574C34.7136 51.1269 35.212 51.669 35.6492 51.5728C36.0864 51.4679 36.2962 50.7596 36.1126 49.9901C35.929 49.2207 35.4306 48.6785 34.9934 48.7747C34.5562 48.8797 34.3463 49.5879 34.5299 50.3574Z" fill="black"/>
<path d="M43.484 48.25C43.6677 49.0194 44.1661 49.5616 44.6033 49.4654C45.0405 49.3605 45.2503 48.6522 45.0667 47.8827C44.8831 47.1132 44.3847 46.5711 43.9475 46.6673C43.5103 46.7722 43.3004 47.4805 43.484 48.25Z" fill="black"/>
<path d="M42.5132 58.3762C42.5132 58.3762 40.9043 58.0089 39.1118 59.6091" stroke="#F88868" stroke-miterlimit="10" stroke-linecap="round"/>
<path d="M53.4872 101.946C53.356 102.401 53.1811 103.232 53.1374 103.94C43.2741 110.454 37.5293 104.5 37.5293 104.5C49.1938 105.12 53.4959 101.946 53.4959 101.946H53.4872Z" fill="#A80058"/>
</g>
</svg>
