<svg width="110" height="110" viewBox="0 0 110 110" fill="none" xmlns="http://www.w3.org/2000/svg">
<mask id="mask0_4639_2432" style="mask-type:alpha" maskUnits="userSpaceOnUse" x="0" y="0" width="110" height="110">
<circle cx="55" cy="55" r="55" fill="#EFEFEF"/>
</mask>
<g mask="url(#mask0_4639_2432)">
<circle cx="55" cy="55" r="55" fill="#F6F6F9"/>
<path d="M41.9896 82.476C37.1869 82.476 33.3485 79.5844 30.4219 75.5979C32.1979 75.2063 33.3485 75.0045 33.3485 75.0045C38.7078 74.3027 44.2798 74.6792 48.3383 75.1853C48.3633 75.1883 48.3915 75.1913 48.4196 75.1943C47.993 79.5844 44.391 82.476 41.9896 82.476Z" fill="#FFAE82"/>
<path d="M89.8163 77.4983C89.7929 77.6162 89.7695 77.734 89.7441 77.8556L89.7411 77.8565C89.6976 78.0722 89.6461 78.2935 89.5887 78.5166C89.5458 78.6847 89.501 78.8565 89.4531 79.0293L89.4501 79.0302C88.8201 81.2722 87.6868 83.7192 85.9914 85.2008C85.9914 85.2008 81.9926 83.5294 81.252 82.6598C81.252 82.6598 80.1668 80.6789 79.64 78.7889C79.64 78.7889 78.7723 76.444 79.2261 75.5144C79.6799 74.5847 80.7364 74.4848 80.7364 74.4848C80.7364 74.4848 79.9303 68.0208 81.0672 66.2396C82.2193 64.4349 82.4222 69.1747 82.98 72.6959C83.007 72.46 83.5321 71.1607 84.8563 71.2252C85.6478 71.2667 85.5656 72.9327 85.5614 73.0193C85.62 72.9286 86.7119 71.1898 87.4767 71.5177C88.3586 71.8919 88.0461 74.1217 88.0461 74.1217C88.0461 74.1217 88.9249 73.1375 89.7803 73.9276C90.1357 74.2579 90.1564 75.6994 89.8163 77.4983Z" fill="#FFAF82"/>
<path d="M89.8162 77.4973C89.7928 77.6152 89.7695 77.733 89.7441 77.8546L89.7411 77.8555C89.6976 78.0712 89.6461 78.2925 89.5886 78.5156C89.4263 78.6698 89.217 78.7909 88.9451 78.8618C87.6074 79.2029 87.4278 77.3011 87.4278 77.3011C87.4278 77.3011 86.6102 77.8651 85.8923 77.5797C85.1734 77.2914 85.1072 76.3475 85.1072 76.3475C85.1072 76.3475 84.2908 77.044 83.6051 76.5684C82.5971 75.8726 83.1197 74.0398 83.1197 74.0398C83.1197 74.0398 83.009 75.4711 83.8611 76.003C84.6934 76.5252 85.5317 75.0317 85.5733 74.9589C85.5663 75.0369 85.3844 76.8283 86.2693 77.053C87.1473 77.2766 87.6238 76.0681 87.6493 76.0065C87.6464 76.077 87.5769 77.9698 88.5822 78.2113C89.146 78.348 89.5564 77.9122 89.8162 77.4973Z" fill="#F88968"/>
<path d="M82.3606 75.4555C82.3606 75.4555 83.2741 76.3321 83.4683 77.6729C83.6625 79.0138 81.3573 79.2378 79.8179 77.9969C79.8179 77.9969 80.3866 79.0711 82.2676 79.2713C83.7852 79.4345 85.4893 77.9788 82.3606 75.4555Z" fill="#F88968"/>
<path d="M83.7701 77.8919C83.7701 77.8919 86.2866 80.0625 84.6346 82.261C84.6346 82.261 85.9422 81.5908 85.7282 80.0411C85.4192 77.7681 83.6683 77.3066 83.6683 77.3066" fill="#F88968"/>
<path d="M80.9278 82.4812C82.5418 83.8382 84.4222 84.5007 86.6058 84.3617C86.5888 84.4012 86.5696 84.4456 86.5484 84.4948C86.4465 84.7308 86.2963 85.0774 86.1031 85.5196C85.7168 86.4041 85.1584 87.6713 84.4706 89.2019C83.0948 92.2631 81.2012 96.3773 79.1297 100.59C77.0578 104.803 74.8092 109.112 72.7234 112.563C71.6804 114.289 70.6797 115.798 69.7634 116.973C68.8439 118.152 68.0209 118.978 67.3358 119.358C66.27 119.947 64.9976 119.87 63.5867 119.34C62.1754 118.81 60.649 117.836 59.0993 116.671C57.6306 115.567 56.1498 114.298 54.7346 113.085C54.6578 113.019 54.5812 112.954 54.5047 112.888C53.0316 111.626 51.6326 110.437 50.4081 109.587C46.0736 103.732 45.3793 97.2981 45.0645 89.7749C46.0427 90.7163 47.3575 92.2181 48.8709 93.9845C49.219 94.3908 49.5774 94.8108 49.9443 95.2408C51.3196 96.8525 52.8148 98.6047 54.3359 100.299C56.2627 102.446 58.2357 104.505 60.0662 106.076C60.9815 106.861 61.8639 107.527 62.6896 108.02C63.5138 108.513 64.2902 108.839 64.9919 108.937L65.0932 108.951L65.1425 108.864L65.0103 108.789C65.1425 108.864 65.1425 108.863 65.1426 108.863L65.1427 108.863L65.1435 108.862L65.1466 108.856L65.1589 108.835L65.2071 108.749L65.3933 108.42C65.5555 108.134 65.791 107.719 66.0845 107.205C66.6715 106.175 67.4904 104.745 68.4181 103.145C70.2738 99.9443 72.5634 96.0631 74.3019 93.336C76.0446 90.6043 77.7237 87.852 78.9669 85.7828C79.5886 84.7482 80.1013 83.8843 80.4587 83.2789C80.6374 82.9763 80.7772 82.7383 80.8724 82.5759L80.9278 82.4812Z" fill="#CA005D" stroke="#720037" stroke-width="0.3"/>
<path d="M54.2182 76.6114C54.2799 76.6615 54.3575 76.7267 54.4497 76.8086C54.7141 77.0434 55.0985 77.415 55.5733 77.9587C56.5229 79.0461 57.8343 80.822 59.2699 83.5683C62.1317 89.0431 65.487 98.3744 67.4511 113.793L58.2807 114.61H52.4342C50.542 106.792 49.4078 94.8417 54.2182 76.6114Z" fill="#CA005D" stroke="#720037" stroke-width="0.3"/>
<path d="M59.0392 115.351C54.72 115.363 49.8609 115.858 46.0678 116.352C44.1475 116.602 42.4992 116.853 41.3309 117.04C40.7467 117.134 40.2825 117.212 39.9642 117.267C39.8051 117.295 39.6824 117.316 39.5995 117.331L39.5053 117.348L39.4867 117.351C38.2746 117.348 36.9251 116.892 35.5733 116.196C34.2187 115.498 32.8743 114.567 31.6823 113.633C30.4907 112.699 29.4543 111.765 28.7157 111.064C28.3464 110.714 28.0518 110.422 27.8497 110.218C27.7486 110.116 27.6707 110.036 27.6181 109.981C27.5918 109.954 27.5718 109.933 27.5585 109.919L27.5519 109.912C24.6448 104.546 22.4136 96.7863 20.9081 90.3549C20.155 87.1378 19.5844 84.2568 19.202 82.1802C19.0108 81.1419 18.8667 80.3048 18.7705 79.7274C18.7223 79.4387 18.6861 79.2149 18.662 79.0634C18.6537 79.0112 18.6468 78.9676 18.6413 78.9328C20.2953 77.9572 21.5169 77.5845 22.7991 77.336C23.2295 77.2527 23.6713 77.1827 24.1408 77.1084C25.0903 76.9581 26.1536 76.7899 27.4665 76.4558L27.4667 76.4557C28.5715 76.1731 29.586 75.9385 30.4542 75.746C31.3424 75.5505 32.0728 75.4024 32.5811 75.3032C32.8352 75.2536 33.0338 75.2163 33.1687 75.1913C33.2362 75.1788 33.2877 75.1695 33.3223 75.1632L33.3615 75.1562L33.3713 75.1545C38.7117 74.4586 44.268 74.8305 48.3197 75.3357L48.3204 75.3358C48.3341 75.3375 48.3492 75.3391 48.363 75.3405L59.0392 115.351ZM59.0392 115.351L59.0382 115.333C59.0322 115.218 59.024 115.051 59.0148 114.84C58.9964 114.418 58.9744 113.822 58.9597 113.122C58.9304 111.725 58.9303 109.914 59.048 108.267M59.0392 115.351L59.048 108.267M59.048 108.267C59.1014 107.486 59.1993 106.789 59.3608 106.269L59.3611 106.268C59.5018 105.824 59.697 105.348 59.9041 104.842C60.0046 104.597 60.1078 104.345 60.209 104.086C60.5214 103.288 60.8214 102.412 60.9872 101.435C61.3176 99.4853 61.1176 97.1128 59.3747 94.1425L59.3746 94.1424C57.6033 91.1195 56.3119 86.6322 55.4638 82.9134C55.0392 81.0516 54.7247 79.3778 54.5164 78.1695C54.4122 77.5653 54.3346 77.0773 54.283 76.7403C54.2571 76.5718 54.2378 76.441 54.225 76.3522L54.2203 76.3196L54.2129 76.318C54.1416 76.3022 54.0355 76.2791 53.8969 76.25C53.6198 76.1918 53.213 76.1093 52.695 76.0128C51.6589 75.8197 50.1784 75.5703 48.4012 75.3448L59.048 108.267ZM59.048 108.267C59.048 108.267 59.048 108.267 59.048 108.267L59.1976 108.278L59.048 108.267Z" fill="#CA005D" stroke="#720037" stroke-width="0.3"/>
<path d="M18.4014 79.3256C18.4537 79.2238 18.4969 79.1406 18.5301 79.077C21.6987 81.3877 23.9106 85.3244 25.3366 88.7225C26.0587 90.4434 26.5769 92.0202 26.9145 93.1666C27.0832 93.7397 27.2068 94.2051 27.2881 94.5269C27.3287 94.6877 27.3588 94.8127 27.3787 94.8973C27.3875 94.9351 27.3944 94.9648 27.3992 94.9861C22.6139 109.759 16.3632 119.842 14.0658 123.271C10.5585 121.052 9.04894 117.234 8.77832 112.708C8.50451 108.129 9.5018 102.851 10.959 97.8414C12.4155 92.8335 14.3283 88.1039 15.8776 84.6255C16.6521 82.8866 17.3355 81.4609 17.8251 80.4702C18.0699 79.9748 18.2663 79.5882 18.4014 79.3256Z" fill="#CA005D" stroke="#720037" stroke-width="0.3"/>
<path d="M32.985 75.2473L26.0811 76.6931C26.0811 76.6931 29.3519 83.063 37.4876 86.8136L40.7894 83.0546L44.3915 86.8136C44.3915 86.8136 52.1034 81.9981 53.0965 75.8256C48.5939 75.2472 45.5922 74.6689 45.5922 74.6689C45.5922 74.6689 46.4836 79.1631 40.2856 79.6106C35.9305 79.925 32.985 75.2473 32.985 75.2473Z" fill="#CA005D" stroke="#720037" stroke-width="0.5" stroke-linecap="round" stroke-linejoin="round"/>
<path d="M58.8787 106.298C58.7252 106.821 58.627 107.536 58.5749 108.349C48.4708 113.685 38.0015 110.64 38.0015 110.64C51.6014 110.404 58.8787 106.298 58.8787 106.298Z" fill="#970049"/>
<path d="M51.4313 90.5544C51.3844 90.5752 51.035 90.5439 51.035 90.5439C51.035 90.5439 51.3297 90.6664 51.3518 90.7092C51.3739 90.7521 51.3641 91.035 51.3641 91.035C51.3641 91.035 51.4576 90.7858 51.4892 90.7212C51.5132 90.6761 51.5851 90.6654 51.6445 90.6705C51.9064 90.6778 52.1382 90.588 52.3057 90.4063C52.4853 90.2182 52.4746 90.1875 52.4746 90.1875C52.4746 90.1875 52.2446 90.0647 51.9595 90.1669C51.6432 90.283 51.4762 90.5385 51.4328 90.5588L51.4313 90.5544Z" fill="#E89F25"/>
<path d="M46.0407 96.088C45.9909 96.1178 45.6406 96.0702 45.6406 96.0702C45.6406 96.0702 45.9416 96.2194 45.9754 96.255C46.0092 96.2905 46.0596 96.6248 46.0596 96.6248C46.0596 96.6248 46.1161 96.3423 46.1429 96.2574C46.1601 96.2054 46.2523 96.2054 46.2992 96.2075C46.6186 96.2282 46.8939 96.0934 47.0618 95.835C47.2319 95.5628 47.2134 95.5206 47.2134 95.5206C47.2134 95.5206 46.9001 95.3462 46.5723 95.4931C46.2431 95.6358 46.092 96.0625 46.0422 96.0923" fill="#E89F25"/>
<path d="M54.1408 89.8321C54.0614 89.8623 53.5522 89.721 53.5522 89.721C53.5522 89.721 53.9731 89.9906 54.0169 90.044C54.0606 90.0974 54.0875 90.5774 54.0875 90.5774C54.0875 90.5774 54.2112 90.1996 54.2684 90.0851C54.3017 90.0157 54.437 90.0325 54.5042 90.0502C54.57 90.0636 55.2369 90.2137 55.6855 89.6957C55.9776 89.3575 55.9547 89.2918 55.9547 89.2918C55.9547 89.2918 55.52 88.9828 55.0135 89.1177C54.5054 89.2482 54.2167 89.8024 54.1408 89.8321Z" fill="#970049"/>
<path d="M43.7893 95.879C43.7153 95.9216 43.3113 95.7954 43.3113 95.7954C43.3113 95.7954 43.7323 96.0005 43.761 96.0415C43.7897 96.0826 43.7148 96.5279 43.7148 96.5279C43.7148 96.5279 43.8486 96.2504 43.9034 96.1428C43.9559 96.0491 44.1368 95.9864 44.253 95.9829C44.3678 95.9751 44.8483 95.995 45.2481 95.4205C45.5086 95.0474 45.484 94.9877 45.484 94.9877C45.484 94.9877 45.0664 94.7821 44.5964 95.0049C44.1299 95.2273 43.8634 95.8365 43.7893 95.879Z" fill="#970049"/>
<path d="M47.667 94.6781C47.6146 94.6955 47.3599 94.5581 47.3599 94.5581C47.3599 94.5581 47.6162 94.7428 47.6304 94.7739C47.6447 94.805 47.5499 95.0616 47.5499 95.0616C47.5499 95.0616 47.6678 94.9156 47.7167 94.8559C47.7618 94.8064 47.8863 94.7972 47.9649 94.8139C48.042 94.826 48.3575 94.9068 48.6827 94.6203C48.8954 94.4315 48.8831 94.3954 48.8831 94.3954C48.8831 94.3954 48.6269 94.2106 48.2951 94.2748C47.9633 94.339 47.7225 94.6698 47.6686 94.6826" fill="#970049"/>
<path d="M45.535 94.1415C45.4741 94.1989 45.4021 94.2338 45.3193 94.2462C45.0027 94.2934 44.6505 94.1124 44.4537 93.546C44.2569 92.9796 44.4598 92.7037 44.7764 92.6565C44.8533 92.645 44.9372 92.6446 45.0218 92.6642L45.1135 92.9283C45.0249 92.8972 44.9384 92.89 44.8585 92.9019C44.6366 92.935 44.5287 93.1081 44.6683 93.51C44.8079 93.9118 45.033 94.0312 45.2431 93.9999C45.323 93.988 45.3962 93.9569 45.4539 93.9081L45.5363 94.1453L45.535 94.1415Z" fill="white"/>
<path d="M46.386 93.3863C46.5042 93.721 46.4366 93.9766 46.204 94.0107C45.9713 94.0449 45.7388 93.8335 45.6206 93.4988C45.5024 93.1642 45.573 92.9082 45.8026 92.8744C46.0322 92.8407 46.265 93.0439 46.386 93.3863ZM45.8318 93.4678C45.9129 93.6974 46.0338 93.8024 46.1317 93.788C46.2297 93.7736 46.263 93.6582 46.1778 93.4169C46.0926 93.1757 45.9772 93.0862 45.8793 93.1006C45.7813 93.115 45.7466 93.2265 45.8318 93.4678Z" fill="white"/>
<path d="M48.0578 93.627L47.8521 93.6569L47.5986 92.9477C47.5467 92.8027 47.4815 92.7528 47.3883 92.7663C47.3336 92.7743 47.2633 92.8141 47.2835 92.8705C47.2936 92.8987 47.3116 92.93 47.3245 92.9663L47.5852 93.6956L47.3795 93.7255L47.126 93.0163C47.0741 92.8713 47.0089 92.8214 46.9286 92.8331C46.8578 92.8433 46.7989 92.8773 46.8278 92.9579L47.1159 93.7637L46.9101 93.7936L46.5212 92.7057C46.7012 92.6796 46.7404 92.6188 46.8754 92.5992C46.9976 92.5815 47.0587 92.6107 47.121 92.6525C47.1798 92.5804 47.2597 92.5392 47.3559 92.5337C47.5327 92.508 47.6876 92.5915 47.7914 92.8816L48.0578 93.627Z" fill="white"/>
<path d="M48.5322 93.9147C48.4547 93.6794 48.4019 93.5161 48.3022 93.2244L48.0159 92.3873C48.1311 92.3699 48.1886 92.3253 48.3009 92.3083C48.5025 92.2778 48.7384 92.4453 48.8628 92.809C48.9871 93.1726 48.8666 93.3781 48.6996 93.4033C48.6519 93.4145 48.5978 93.4068 48.5458 93.3788L48.7193 93.8864L48.5293 93.9151L48.5322 93.9147ZM48.3577 92.5188C48.2972 92.528 48.2686 92.5682 48.2815 92.6061L48.4642 93.1401C48.4771 93.178 48.532 93.2056 48.5896 93.1969C48.7077 93.179 48.7389 93.0667 48.6599 92.8357C48.5809 92.6046 48.4758 92.501 48.3577 92.5188Z" fill="white"/>
<path d="M49.5404 92.4719L49.5257 92.4297C49.4961 92.3452 49.4323 92.2981 49.3514 92.3101C49.2644 92.323 49.1868 92.3628 49.1233 92.4247L49.0414 92.1904C49.1163 92.1429 49.1995 92.1104 49.2938 92.1004C49.4828 92.0724 49.6347 92.1549 49.7206 92.4008C49.781 92.5736 49.8287 92.7281 49.8865 92.8933C49.9174 92.9816 49.9553 93.081 49.9801 93.1339C49.8421 93.1544 49.7779 93.1962 49.6579 93.214C49.457 93.2438 49.3121 93.136 49.2409 92.9325C49.1697 92.7289 49.2399 92.5326 49.5418 92.4758L49.5404 92.4719ZM49.6062 92.6601C49.45 92.6914 49.3905 92.7648 49.4321 92.8839C49.4603 92.9646 49.5284 93.0151 49.6034 93.0039C49.6784 92.9928 49.6973 92.9658 49.6942 92.9299C49.6694 92.8406 49.6401 92.748 49.6062 92.6601Z" fill="white"/>
<path d="M50.2949 93.0128L49.9401 91.9751L50.114 91.9488L50.1476 92.0469C50.1566 92.0019 50.1727 91.9598 50.2026 91.9314C50.2297 91.9035 50.2664 91.8861 50.3083 91.8837C50.3373 91.8793 50.3663 91.8749 50.3978 91.8781L50.4856 92.1347C50.4386 92.122 50.3912 92.1172 50.3477 92.1238C50.2723 92.1352 50.2198 92.1868 50.2466 92.274C50.3043 92.4518 50.396 92.7197 50.485 92.98L50.2965 93.0085L50.2949 93.0128Z" fill="white"/>
<path d="M50.8354 91.8094L51.0456 91.7764L51.1136 91.9845L50.9034 92.0176C50.9738 92.2332 51.0223 92.3819 51.0745 92.5417C51.1 92.6198 51.1421 92.6444 51.2013 92.6351C51.2445 92.6283 51.2812 92.6108 51.3093 92.5751L51.3784 92.787C51.333 92.8215 51.2813 92.8453 51.2235 92.8505C51.0969 92.8704 50.9785 92.803 50.9166 92.6134L50.601 91.6469L50.7262 91.4748L50.8342 91.8057L50.8354 91.8094Z" fill="white"/>
<path d="M51.8447 91.95L51.8299 91.9077C51.8004 91.8232 51.7366 91.7761 51.6556 91.7881C51.5687 91.801 51.4911 91.8408 51.4276 91.9028L51.3457 91.6685C51.4206 91.621 51.5068 91.588 51.5981 91.5785C51.787 91.5505 51.9359 91.6334 52.0219 91.8793C52.0823 92.0521 52.13 92.2066 52.1877 92.3718C52.216 92.4524 52.2442 92.5331 52.2814 92.6124C52.1404 92.6333 52.0762 92.6752 51.9592 92.6925C51.7583 92.7223 51.6134 92.6146 51.5422 92.411C51.471 92.2074 51.5412 92.0112 51.8431 91.9543L51.8447 91.95ZM51.9105 92.1382C51.7542 92.1694 51.6948 92.2429 51.7364 92.362C51.7646 92.4426 51.8327 92.4931 51.9077 92.482C51.9827 92.4709 52.0016 92.4438 51.9955 92.4084C51.9706 92.3192 51.9414 92.2265 51.9075 92.1386" fill="white"/>
<path d="M53.7933 92.3275L53.5875 92.3574L53.334 91.6483C53.2822 91.5032 53.217 91.4534 53.1237 91.4669C53.0691 91.4748 52.9988 91.5147 53.0175 91.5671C53.0276 91.5953 53.0456 91.6266 53.0585 91.6628L53.3192 92.3921L53.1135 92.422L52.86 91.7128C52.8081 91.5678 52.743 91.5179 52.6626 91.5296C52.5951 91.5394 52.533 91.5738 52.5618 91.6544L52.8499 92.4602L52.6441 92.4901L52.2552 91.4022C52.4385 91.3756 52.479 91.3189 52.6141 91.2993C52.7362 91.2816 52.7974 91.3108 52.8597 91.3526C52.9153 91.281 52.9984 91.2393 53.0899 91.2302C53.2667 91.2046 53.4216 91.288 53.5254 91.5781L53.7918 92.3235L53.7933 92.3275Z" fill="white"/>
<path d="M54.6736 91.5095C54.7919 91.8443 54.7243 92.0999 54.4915 92.1341C54.2587 92.1683 54.0261 91.9568 53.9079 91.622C53.7896 91.2873 53.8616 91.0351 54.0914 91.0014C54.3211 90.9676 54.554 91.1709 54.6736 91.5095ZM54.1192 91.591C54.2004 91.8206 54.3213 91.9257 54.4162 91.9118C54.5112 91.8978 54.5476 91.7819 54.4623 91.5406C54.377 91.2992 54.2616 91.2097 54.1636 91.2241C54.0656 91.2385 54.0309 91.3501 54.1162 91.5914L54.1192 91.591Z" fill="white"/>
<path d="M55.0462 90.8014C55.1076 90.7922 55.1716 90.7906 55.2408 90.8041L55.3206 91.0356C55.2503 91.0102 55.1766 91.0014 55.1122 91.011C55.0479 91.0207 55.0188 91.061 55.0384 91.1179C55.0933 91.2773 55.4213 91.212 55.5324 91.5346C55.5925 91.7091 55.5565 91.8902 55.3343 91.9236C55.2642 91.9341 55.1901 91.9333 55.115 91.9206L55.0405 91.7043C55.114 91.7212 55.1835 91.7267 55.2507 91.7166C55.3414 91.703 55.3724 91.6504 55.3489 91.5821C55.2875 91.4038 54.9647 91.4842 54.8588 91.1768C54.7896 90.9757 54.8604 90.8333 55.0504 90.8048L55.0462 90.8014Z" fill="white"/>
<path d="M50.0905 94.9181L49.6909 93.7363L50.1472 93.6667L50.1955 93.8097C50.1136 93.8143 50.0088 93.8303 49.8756 93.8506C49.8642 93.8523 49.8624 93.8645 49.8688 93.8833C49.8929 93.9548 49.9349 94.079 49.9833 94.222L50.2837 94.1762L50.3295 94.3117L50.0291 94.3575L50.2136 94.9033L50.0974 94.921L50.0905 94.9181Z" fill="white"/>
<path d="M50.5618 93.711C50.5618 93.711 50.5692 93.7363 50.57 93.7476C50.5708 93.7589 50.5693 93.7706 50.5668 93.7786C50.5643 93.7867 50.5594 93.7951 50.5546 93.8036C50.5497 93.812 50.5428 93.8132 50.5335 93.8148C50.5173 93.8176 50.5003 93.8091 50.4846 93.7966C50.4677 93.7805 50.4568 93.7596 50.4495 93.7342C50.4422 93.7088 50.4428 93.6859 50.4469 93.6661C50.4532 93.646 50.465 93.6364 50.4812 93.6336C50.4881 93.6324 50.4951 93.6312 50.5041 93.6372C50.5121 93.6396 50.5211 93.6457 50.5279 93.6521C50.5346 93.6586 50.5423 93.6687 50.5478 93.6791C50.5532 93.6896 50.5587 93.7001 50.5618 93.711ZM50.6229 93.9478C50.6887 94.1838 50.7743 94.4887 50.8444 94.7316L50.7542 94.7471L50.5281 93.9642L50.6229 93.9478Z" fill="white"/>
<path d="M50.9966 94.0348L51.2177 94.6656L51.1001 94.683L50.8156 93.8714C50.9514 93.8513 50.9547 93.8063 51.0814 93.7876C51.2021 93.7697 51.3346 93.831 51.4088 94.0426L51.6069 94.608L51.4893 94.6254L51.3005 94.0869C51.2547 93.9561 51.1903 93.9171 51.0997 93.9305C51.0183 93.9426 50.9818 93.9925 50.9966 94.0348Z" fill="white"/>
<path d="M52.005 93.9202L51.9903 93.8781C51.9597 93.7901 51.9006 93.7466 51.82 93.7586C51.7544 93.7683 51.6984 93.7968 51.6507 93.8401L51.6027 93.7023C51.6547 93.6624 51.718 93.6369 51.7836 93.6271C51.9268 93.6058 52.04 93.6695 52.1053 93.857C52.1547 93.9986 52.197 94.1291 52.2437 94.263C52.269 94.3357 52.289 94.3931 52.311 94.4381C52.2095 94.4532 52.1549 94.4855 52.0714 94.4979C51.9222 94.5201 51.81 94.4322 51.7566 94.2791C51.6993 94.1146 51.7571 93.9651 52.005 93.9202ZM52.0463 94.0388C51.8882 94.0623 51.8409 94.1338 51.8809 94.2486C51.8876 94.2677 51.8943 94.2868 51.9085 94.3008C51.9212 94.319 51.9355 94.333 51.9484 94.3432C51.9643 94.3529 51.9803 94.3626 51.9965 94.3642C52.0128 94.3658 52.029 94.3674 52.0396 94.3618C52.1112 94.3511 52.133 94.3238 52.1257 94.2846C52.1023 94.1995 52.0773 94.1187 52.045 94.035" fill="white"/>
<path d="M52.4667 93.7017L52.6876 94.3322L52.57 94.3496L52.2858 93.5384C52.4215 93.5183 52.4247 93.4733 52.5514 93.4546C52.6719 93.4367 52.8014 93.4985 52.8754 93.7099L53.0735 94.2751L52.9559 94.2925L52.7673 93.7542C52.7215 93.6235 52.6571 93.5845 52.5667 93.5979C52.4853 93.61 52.4489 93.6598 52.4637 93.7021L52.4667 93.7017Z" fill="white"/>
<path d="M53.5857 94.0194C53.6209 94.0141 53.6519 94.0055 53.6844 93.9926L53.7291 94.1218C53.6978 94.1385 53.6639 94.1476 53.6287 94.1529C53.4379 94.1815 53.2618 94.056 53.1608 93.7633C53.0703 93.5011 53.1228 93.3134 53.3282 93.2825C53.3634 93.2773 53.3999 93.2758 53.4378 93.2781L53.4876 93.4225C53.4472 93.4126 53.4106 93.4141 53.3754 93.4194C53.261 93.4365 53.2165 93.5311 53.2913 93.7478C53.366 93.9644 53.4653 94.0375 53.5857 94.0194Z" fill="white"/>
<path d="M53.736 92.9908C53.736 92.9908 53.7433 93.0162 53.7419 93.0279C53.7404 93.0396 53.7412 93.0509 53.7386 93.0589C53.7361 93.067 53.7312 93.0754 53.7264 93.0839C53.7205 93.0887 53.7146 93.0935 53.7053 93.0951C53.689 93.0979 53.6719 93.0895 53.6561 93.077C53.6393 93.0608 53.6283 93.0399 53.621 93.0145C53.6136 92.9891 53.6143 92.9661 53.6183 92.9464C53.6247 92.9263 53.6365 92.9166 53.6528 92.9138C53.6597 92.9126 53.6667 92.9114 53.6757 92.9175C53.6838 92.9199 53.6928 92.926 53.6996 92.9324C53.7063 92.9389 53.7141 92.9489 53.7196 92.9594C53.725 92.9699 53.7305 92.9804 53.7347 92.9949L53.736 92.9908ZM53.7973 93.2277C53.8632 93.4639 53.9491 93.7689 54.0195 94.0118L53.9289 94.0274L53.7021 93.2442L53.7973 93.2277Z" fill="white"/>
<path d="M54.2245 93.5261C54.2245 93.5261 54.2326 93.5492 54.2367 93.5607C54.303 93.7495 54.4202 93.8295 54.5444 93.8112C54.5929 93.804 54.6403 93.7848 54.6776 93.755L54.7249 93.8899C54.6832 93.9163 54.6358 93.9355 54.5843 93.9431C54.3905 93.9717 54.2056 93.8531 54.0973 93.5449C54.0053 93.2828 54.073 93.0945 54.2486 93.0685C54.4152 93.0439 54.5332 93.1805 54.5995 93.3693C54.6117 93.404 54.6225 93.4348 54.6286 93.4704L54.2228 93.5304L54.2245 93.5261ZM54.4326 93.3656C54.4568 93.362 54.4605 93.3453 54.451 93.3183C54.4239 93.2412 54.3656 93.1931 54.2899 93.2043C54.2506 93.2101 54.2196 93.2309 54.2032 93.2658C54.1837 93.3011 54.1818 93.35 54.1964 93.4005L54.4356 93.3652L54.4326 93.3656Z" fill="white"/>
<path d="M55.0148 93.7915L54.7389 92.9785L54.8474 92.962L54.8755 93.0448C54.8812 93.0083 54.8967 92.9743 54.9188 92.9511C54.941 92.9279 54.9698 92.9156 55.0013 92.9109C55.0241 92.9074 55.0441 92.9043 55.0695 92.9084L55.1244 93.0702C55.092 93.0633 55.0581 93.0605 55.0295 93.0649C54.9581 93.0758 54.9125 93.1183 54.9378 93.2016C54.9863 93.3446 55.0591 93.5592 55.1319 93.7737L55.0205 93.7907L55.0148 93.7915Z" fill="white"/>
<path d="M55.6764 93.0895L55.6617 93.0474C55.6311 92.9595 55.572 92.9159 55.4916 92.9279C55.426 92.9377 55.3701 92.9661 55.3225 93.0094L55.2745 92.8717C55.3264 92.8318 55.3897 92.8063 55.4552 92.7965C55.5983 92.7753 55.7114 92.8389 55.7766 93.0263C55.8259 93.1678 55.8682 93.2983 55.9148 93.4322C55.9402 93.5048 55.9601 93.5622 55.9821 93.6072C55.8807 93.6223 55.8261 93.6546 55.7457 93.6665C55.5967 93.6887 55.4845 93.6008 55.4313 93.4478C55.374 93.2833 55.4317 93.134 55.6794 93.0891L55.6764 93.0895ZM55.7177 93.2081C55.5597 93.2316 55.5125 93.303 55.5524 93.4177C55.5591 93.4368 55.5658 93.456 55.58 93.4699C55.5926 93.4882 55.6069 93.5021 55.6199 93.5123C55.6358 93.522 55.6517 93.5317 55.6649 93.5337C55.6825 93.5392 55.6974 93.5369 55.708 93.5313C55.7795 93.5207 55.8013 93.4933 55.794 93.4542C55.7706 93.3692 55.7456 93.2884 55.7134 93.2047L55.7177 93.2081Z" fill="white"/>
<path d="M56.4978 93.4597C56.4633 93.4647 56.4278 93.4575 56.3912 93.4381C56.3547 93.4187 56.3216 93.3905 56.2951 93.3531C56.2686 93.3157 56.2501 93.273 56.2425 93.2329C56.2334 93.1888 56.2365 93.1512 56.2504 93.1162C56.2643 93.0812 56.2855 93.0574 56.3141 93.045C56.3426 93.0326 56.3799 93.0354 56.4154 93.0426C56.4523 93.0537 56.4872 93.0775 56.5185 93.1101C56.5499 93.1426 56.5732 93.1805 56.5885 93.2236C56.5983 93.2511 56.6049 93.279 56.6053 93.3078C56.6057 93.3366 56.6015 93.362 56.5928 93.3839C56.5841 93.4058 56.5709 93.4242 56.5531 93.4392C56.5354 93.4542 56.5149 93.4613 56.4929 93.4645L56.4978 93.4597ZM56.3597 93.0714C56.3315 93.0755 56.3061 93.0874 56.2911 93.1102C56.273 93.1335 56.264 93.1637 56.2658 93.1965C56.2644 93.2297 56.2738 93.2654 56.2926 93.2998C56.3114 93.3342 56.3351 93.3638 56.3637 93.3885C56.3909 93.4093 56.4229 93.4252 56.4539 93.4289C56.4849 93.4327 56.5117 93.4246 56.5326 93.4092C56.5535 93.3938 56.567 93.367 56.5715 93.3334C56.5774 93.3036 56.5743 93.2669 56.5617 93.2316C56.5534 93.2081 56.545 93.1846 56.5286 93.1663C56.5154 93.1476 56.4976 93.1255 56.4795 93.1116C56.4614 93.0978 56.4402 93.0844 56.4217 93.0788C56.4032 93.0732 56.383 93.0721 56.3642 93.0748L56.3597 93.0714ZM56.4274 93.3915L56.3961 93.3961L56.2971 93.1176C56.3221 93.114 56.3347 93.1121 56.3597 93.1085C56.4036 93.1021 56.4447 93.125 56.4628 93.1759C56.4684 93.1916 56.4709 93.2078 56.4688 93.2205C56.4667 93.2331 56.4583 93.2467 56.4503 93.252L56.4531 93.2599L56.5545 93.3689L56.52 93.3739L56.4364 93.2871C56.4364 93.2871 56.4124 93.2658 56.403 93.2672L56.3842 93.2699L56.426 93.3876L56.4274 93.3915ZM56.3981 93.2349C56.4357 93.2294 56.4444 93.2075 56.4318 93.1722C56.4193 93.1369 56.3977 93.1318 56.3695 93.1359C56.3507 93.1387 56.3458 93.1435 56.3455 93.1518L56.3762 93.2381L56.395 93.2354L56.3981 93.2349Z" fill="white"/>
<path d="M60.4142 52.2247C60.9989 53.8783 61.5993 55.5862 62.1746 57.3964C64.0007 63.1676 58.2349 63.8935 58.2349 63.8935C58.2349 63.8935 60.0891 67.8242 57.1749 70.9688C54.267 74.1134 50.5805 72.4267 50.5805 72.4267C50.5805 72.4267 49.2454 74.1375 45.7371 74.3514C40.6498 74.6616 38.7957 72.6917 38.7957 72.6917L33.477 71.7761C32.7797 72.1526 32.2325 74.6556 26.6106 75.2912C21.4983 75.8665 18.8656 72.9116 18.8656 72.9116C17.5117 75.4628 11.1487 75.014 10.4295 70.9718C9.74786 67.1766 11.5833 65.6224 11.8053 65.4477C8.5034 67.7007 2.99401 61.6043 8.83171 55.8241C11.2081 53.4747 12.5182 52.3813 13.4062 51.2036C10.7641 51.809 7.99999 48.8421 9.17878 46.2517C10.7047 42.9083 13.4969 44.2427 16.2234 39.4445C19.8474 33.0769 22.6177 30.9022 22.7803 30.7787C22.7834 30.7787 22.7834 30.7787 22.7865 30.7757C27.4611 26.5016 34.3744 24.5467 41.9381 24.9955C48.3699 25.3811 52.122 27.9142 54.292 30.5197C56.1618 32.7637 57.1061 35.58 57.1718 38.4595C57.1874 39.0649 57.2218 39.6583 57.2781 40.2457C58.1755 42.3511 60.0203 46.0891 62.1996 47.2216C65.1607 48.7698 63.5035 52.8602 60.4142 52.2247Z" fill="black"/>
<path d="M51.3218 48.1016C51.3218 48.1016 54.6581 44.4329 57.3784 47.6197C59.7703 50.4209 58.2789 57.8367 52.4505 57.6319" fill="#F88868"/>
<path d="M45.3185 76.1187C45.0246 79.4771 37.8111 81.4561 33.7119 75.7512L33.2804 68.3776L32.9614 62.9619L46.1346 65.4258L45.4842 73.962" fill="#FFAE82"/>
<path d="M45.406 74.9921C40.9066 75.0524 35.885 72.0674 33.3742 70.0041L32.9614 62.9619L46.1346 65.4258" fill="#F88868"/>
<path d="M40.3071 69.3867C26.4023 66.3234 23.8759 48.769 23.8759 48.769C23.8759 48.769 23.8321 47.5943 24.0635 45.8804C24.1917 44.9407 24.398 43.8383 24.742 42.6786C25.7394 39.3051 27.8781 35.4587 32.4495 33.7809C32.5902 33.7297 32.7372 33.6785 32.8841 33.6273C40.4634 31.04 51.5479 32.2508 54.9217 41.9196C55.1187 42.4919 55.2906 43.1214 55.4345 43.7931C55.5158 44.1726 55.5846 44.5672 55.6471 44.9738C57.1573 54.9588 52.8017 72.1427 40.3071 69.3867Z" fill="#FFAE82"/>
<path d="M46.6025 61.7137C46.6025 62.1534 46.4806 62.557 46.2617 62.9034C45.8459 63.5812 45.0767 64.0269 44.2012 64.0269C43.1474 64.0269 42.2376 63.3613 41.9249 62.4366C41.8498 62.2076 41.7998 61.9697 41.7998 61.7137C41.7998 60.4335 42.8817 59.4004 44.2012 59.4004C45.5301 59.4004 46.6025 60.4335 46.6025 61.7137Z" fill="#920E07"/>
<path d="M46.2617 62.904C45.8458 63.5787 45.0766 64.0275 44.2011 64.0275C43.1474 64.0275 42.2375 63.3618 41.9248 62.4371C42.3688 62.2534 43.2068 62.0335 44.4294 62.2444C45.161 62.3829 45.8145 62.5847 46.2617 62.904Z" fill="#F85C66"/>
<path d="M37.539 51.4509C36.5604 51.5865 35.6567 50.9329 35.5191 49.9931C35.4691 49.6618 35.5223 49.3365 35.6567 49.0503C34.1965 48.8846 34.2246 48.0322 34.2246 48.0322C34.4529 48.3967 36.1601 48.1828 36.8668 48.0804H36.873C36.9575 48.0654 37.0294 48.0533 37.0825 48.0473C37.0857 48.0473 37.0888 48.0473 37.0888 48.0443C37.12 48.0383 37.1482 48.0383 37.1763 48.0383C38.0925 47.978 38.9211 48.6136 39.0524 49.5112C39.19 50.4509 38.5146 51.3184 37.539 51.4509Z" fill="black"/>
<path d="M26.2709 49.1271C26.2709 49.1271 21.2805 46.4915 19.6828 50.8651C18.2788 54.7145 22.8189 61.9917 28.8943 59.6091" fill="#FFAE82"/>
<path d="M26.5799 56.4306C26.1484 55.1656 24.9134 52.5601 21.8647 51.3975C21.8647 51.3975 25.1229 54.3583 25.3699 56.6475C25.4043 56.9487 25.6607 57.1806 25.9733 57.1716L26.0453 57.1686C26.4361 57.1565 26.7019 56.7861 26.5799 56.4306Z" fill="#F88868"/>
<path d="M43.2767 66.6271C41.9416 66.3741 41.0192 65.7777 40.9535 65.7325C40.7659 65.612 40.7221 65.368 40.8472 65.1903C40.9754 65.0126 41.2255 64.9674 41.4131 65.0879C41.5194 65.1602 44.0209 66.7626 46.663 65.4102C46.8631 65.3078 47.107 65.3801 47.2133 65.5698C47.3165 65.7626 47.2414 65.9976 47.0445 66.1C45.6749 66.8018 44.3429 66.8259 43.2767 66.6271Z" fill="#F88868"/>
<path d="M45.0846 57.2274H42.974C42.7332 57.2274 42.5425 57.0406 42.5425 56.8087C42.5425 56.5798 42.7332 56.393 42.974 56.393H45.0846C45.1252 56.393 45.1502 56.3719 45.1627 56.3539C45.1752 56.3388 45.1909 56.3087 45.1784 56.2725L43.4242 50.4924C43.3586 50.2725 43.4899 50.0406 43.7213 49.9743C43.9495 49.911 44.1903 50.0376 44.256 50.2574L46.0101 56.0376C46.0945 56.3207 46.0382 56.6189 45.8569 56.8569C45.6724 57.0918 45.391 57.2274 45.0846 57.2274Z" fill="#F88868"/>
<path d="M38.0866 43.7007C38.2804 44.1314 38.0522 44.6314 37.5863 44.779C36.0385 45.27 32.868 46.4959 31.7892 48.5562C31.7892 48.5562 31.4484 45.6254 36.9891 43.285C37.4112 43.1073 37.9052 43.2941 38.0866 43.7007Z" fill="black"/>
<path d="M46.8822 44.0216C46.7696 44.4764 47.0854 44.9312 47.5701 44.9975C49.1835 45.2234 52.526 45.8981 53.9612 47.7475C53.9612 47.7475 53.7674 44.8017 47.8921 43.4282C47.4419 43.3228 46.9916 43.5909 46.8822 44.0216Z" fill="black"/>
<path d="M49.3174 51.2352C50.293 51.3677 51.1966 50.7141 51.3342 49.7743C51.3873 49.443 51.3311 49.1177 51.1966 48.8316C52.6599 48.6689 52.6287 47.8135 52.6287 47.8135C52.4004 48.1779 50.6932 47.9671 49.9865 47.8617H49.9834C49.8959 47.8466 49.824 47.8376 49.7708 47.8285C49.7708 47.8285 49.7677 47.8285 49.7645 47.8255C49.7364 47.8225 49.7051 47.8195 49.6801 47.8195C48.7608 47.7623 47.9322 48.3948 47.8009 49.2924C47.6633 50.2322 48.3419 51.1027 49.3174 51.2352Z" fill="black"/>
<path d="M33.6615 34.5652C33.6615 34.5652 32.9611 46.3183 27.2734 51.0623C27.2734 51.0623 26.7825 47.9448 22.355 48.4147C22.355 48.4147 21.936 47.6828 21.2857 44.1496C20.6353 40.6134 22.971 26.0169 39.7743 26.9567C39.7743 26.9567 45.118 25.9115 52.5973 32.0742C60.0765 38.2339 55.6459 44.9719 55.6459 44.9719C55.6459 44.9719 43.17 43.3123 33.6615 34.5652Z" fill="black"/>
<circle cx="83.4333" cy="43.4333" r="19.4333" fill="#E42525"/>
<path d="M79.0943 35.4479C79.0056 35.1069 78.4675 32.6248 81.4379 32.2055C81.4611 32.202 81.4843 32.1964 81.5071 32.1929C84.1248 31.7758 86.4671 32.0094 87.6721 33.1116C88.5767 33.9394 88.5307 34.7733 88.1616 36.8604C87.3731 41.3219 87.0526 43.9975 86.5273 47.0327C85.8137 51.1562 81.6775 51.296 80.9526 46.751C80.3014 42.6655 79.2169 36.1576 79.1132 35.5349C79.1085 35.5055 79.102 35.4769 79.0943 35.4479Z" fill="white"/>
<path d="M83.7053 55.8858C85.0017 55.8858 86.0527 54.8285 86.0527 53.5244C86.0527 52.2203 85.0017 51.1631 83.7053 51.1631C82.4089 51.1631 81.3579 52.2203 81.3579 53.5244C81.3579 54.8285 82.4089 55.8858 83.7053 55.8858Z" fill="white"/>
</g>
</svg>
