<svg width="14" height="14" viewBox="0 0 14 14" fill="none" xmlns="http://www.w3.org/2000/svg">
<rect width="14" height="14" rx="7" fill="#CC8100"/>
<path d="M7.5641 4.78652C7.5641 4.30337 7.20513 4.05618 6.73077 4.05618C6.3718 4.05618 5.84615 4.16854 5.25641 4.35955L5 3.32584C5.60256 3.13483 6.19231 3 6.83333 3C8.38462 3 9 3.70787 9 4.69663C9 5.73034 8.38462 6.19101 7.62821 6.68539C7.17949 6.96629 6.94872 7.10112 6.94872 7.55056V8.78652H5.76923C5.74359 8.5618 5.67949 7.88764 5.67949 7.60674C5.67949 6.75281 5.91026 6.40449 6.66667 5.92135C7.1282 5.60674 7.5641 5.39326 7.5641 4.78652ZM5.44872 10.2472C5.44872 9.8427 5.80769 9.50562 6.30769 9.50562C6.8718 9.50562 7.20513 9.82022 7.20513 10.236C7.20513 10.6404 6.88462 11 6.34615 11C5.76923 11 5.44872 10.6629 5.44872 10.2472Z" fill="white"/>
</svg>
