<svg width="12" height="12" viewBox="0 0 12 12" fill="none" xmlns="http://www.w3.org/2000/svg">
<path d="M6 11C7.3807 11 8.6307 10.4404 9.53553 9.53553C10.4404 8.6307 11 7.3807 11 6C11 4.6193 10.4404 3.3693 9.53553 2.46446C8.6307 1.55964 7.3807 1 6 1C4.6193 1 3.3693 1.55964 2.46446 2.46446C1.55964 3.3693 1 4.6193 1 6C1 7.3807 1.55964 8.6307 2.46446 9.53553C3.3693 10.4404 4.6193 11 6 11Z" fill="#83786F"/>
<path fill-rule="evenodd" clip-rule="evenodd" d="M2.1993 2.1993C3.17159 1.22703 4.51585 0.625 6 0.625C7.48415 0.625 8.82841 1.22703 9.80069 2.1993L9.53553 2.46446L9.80069 2.1993C10.773 3.17159 11.375 4.51585 11.375 6C11.375 7.48415 10.773 8.82841 9.80069 9.80069C8.82841 10.773 7.48415 11.375 6 11.375C4.51585 11.375 3.17159 10.773 2.1993 9.80069L2.46446 9.53553L2.1993 9.80069C1.22703 8.82841 0.625 7.48415 0.625 6C0.625 4.51585 1.22703 3.17159 2.1993 2.1993L2.1993 2.1993ZM6 1.375C4.72275 1.375 3.56701 1.89226 2.72963 2.72963C1.89226 3.56702 1.375 4.72275 1.375 6C1.375 7.27725 1.89226 8.43299 2.72963 9.27036C3.56701 10.1077 4.72275 10.625 6 10.625C7.27725 10.625 8.43299 10.1077 9.27036 9.27036C10.1077 8.43299 10.625 7.27725 10.625 6C10.625 4.72275 10.1077 3.56701 9.27036 2.72963C8.43299 1.89226 7.27725 1.375 6 1.375Z" fill="#83786F"/>
<path fill-rule="evenodd" clip-rule="evenodd" d="M6 2.75C6.34518 2.75 6.625 3.02983 6.625 3.375C6.625 3.72018 6.34518 4 6 4C5.65483 4 5.375 3.72018 5.375 3.375C5.375 3.02983 5.65483 2.75 6 2.75Z" fill="#FFFBFF"/>
<path fill-rule="evenodd" clip-rule="evenodd" d="M5.25 5C5.25 4.79289 5.41789 4.625 5.625 4.625H6.125C6.33211 4.625 6.5 4.79289 6.5 5V8.5C6.5 8.70711 6.33211 8.875 6.125 8.875C5.91789 8.875 5.75 8.70711 5.75 8.5V5.375H5.625C5.41789 5.375 5.25 5.20711 5.25 5Z" fill="#FFFBFF"/>
<path fill-rule="evenodd" clip-rule="evenodd" d="M4.875 8.5C4.875 8.29289 5.04289 8.125 5.25 8.125H7C7.20711 8.125 7.375 8.29289 7.375 8.5C7.375 8.70711 7.20711 8.875 7 8.875H5.25C5.04289 8.875 4.875 8.70711 4.875 8.5Z" fill="#FFFBFF"/>
</svg>
