<svg width="28" height="34" viewBox="0 0 28 34" fill="none" xmlns="http://www.w3.org/2000/svg">
<path d="M14.0003 34C31.0182 28.9906 27.7486 6.49309 27.7486 6.49309C16.71 5.3297 14.0003 0 14.0003 0C14.0003 0 11.2896 5.3297 0.251934 6.49309C0.251934 6.49309 -3.01763 28.9906 14.0003 34ZM2.36466 8.10629C2.64948 8.07656 2.92747 8.04299 3.19864 8.00654C3.2913 7.99408 3.37909 7.97969 3.47077 7.96626C3.64732 7.94133 3.82485 7.91639 3.99554 7.88858C4.09991 7.87131 4.1994 7.85213 4.30182 7.83391C4.45301 7.80705 4.60615 7.78116 4.75246 7.75334C4.85975 7.7332 4.96217 7.71018 5.06751 7.68908C5.20407 7.66127 5.3416 7.6325 5.47523 7.60276C5.5796 7.57879 5.68007 7.55481 5.78248 7.53083C5.91026 7.50014 6.03804 7.46945 6.16192 7.43876C6.26238 7.41286 6.35993 7.38601 6.45844 7.35915C6.57744 7.32654 6.69742 7.29393 6.81251 7.26133C6.90908 7.23351 7.00369 7.20474 7.09636 7.17597C7.20853 7.14144 7.31973 7.10787 7.42897 7.07238C7.52163 7.04265 7.6104 7.01196 7.70111 6.98127C7.80548 6.94482 7.90985 6.90934 8.01129 6.87289C8.0981 6.8422 8.18393 6.80959 8.26879 6.77794C8.36829 6.74054 8.46583 6.70313 8.56239 6.66477C8.64433 6.63216 8.72528 6.59955 8.80527 6.56598C8.89891 6.52762 8.98962 6.48829 9.08033 6.44993C9.15739 6.41636 9.23347 6.38279 9.30858 6.34922C9.39636 6.30894 9.48317 6.26866 9.56803 6.22838C9.64021 6.19385 9.71142 6.15932 9.78165 6.1248C9.86456 6.08451 9.94552 6.04327 10.0255 6.00107C10.0918 5.96654 10.1591 5.93202 10.2245 5.89749C10.3025 5.85529 10.3786 5.81309 10.4537 5.77089C10.5152 5.73636 10.5786 5.70183 10.6381 5.66635C10.7112 5.62415 10.7824 5.58099 10.8526 5.53879C10.9092 5.50426 10.9668 5.46973 11.0214 5.4352C11.0916 5.39204 11.1579 5.34793 11.2252 5.30477C11.276 5.2712 11.3296 5.23763 11.3794 5.20406C11.4447 5.15994 11.5071 5.11583 11.5705 5.07171C11.6164 5.0391 11.6642 5.00649 11.71 4.97388C11.7725 4.9288 11.83 4.88468 11.8895 4.84056C11.9314 4.80987 11.9744 4.77822 12.0144 4.74753C12.0778 4.69862 12.1373 4.65066 12.1958 4.60271C12.228 4.57681 12.2621 4.55092 12.2923 4.52598C12.3801 4.45309 12.464 4.38212 12.544 4.31114C12.5742 4.28429 12.6015 4.25839 12.6308 4.23154C12.6796 4.18838 12.7283 4.14426 12.7732 4.1011C12.8093 4.06753 12.8415 4.03492 12.8756 4.00135C12.9108 3.96683 12.9468 3.9323 12.981 3.89873C13.0151 3.8642 13.0463 3.83159 13.0785 3.79898C13.1078 3.76829 13.139 3.73664 13.1673 3.70691C13.1985 3.67238 13.2287 3.64073 13.258 3.60716C13.2824 3.58031 13.3087 3.5525 13.3312 3.5266C13.3604 3.49303 13.3877 3.46138 13.415 3.42877C13.4345 3.40575 13.456 3.38178 13.4745 3.35876C13.5009 3.32711 13.5253 3.29642 13.5496 3.26669C13.5672 3.24559 13.5838 3.22353 13.5994 3.20434C13.6228 3.17461 13.6452 3.14488 13.6667 3.11707C13.6784 3.0998 13.6921 3.08254 13.7038 3.06623C13.7262 3.03746 13.7457 3.00965 13.7652 2.98279C13.774 2.97032 13.7828 2.95786 13.7906 2.94635C13.8111 2.91757 13.8296 2.89168 13.8452 2.86578C13.8501 2.85811 13.8559 2.85044 13.8608 2.84372C13.8784 2.81687 13.8949 2.79097 13.9096 2.76795C13.9115 2.76604 13.9135 2.76316 13.9144 2.76124C13.9457 2.71041 13.9691 2.67109 13.9827 2.64519C13.9944 2.62505 14.0022 2.61066 14.0022 2.61066C14.0022 2.61066 16.2954 7.1213 25.6388 8.10533C25.6388 8.10533 28.406 27.1482 14.0022 31.3884C-0.403538 27.1492 2.36466 8.10629 2.36466 8.10629Z" fill="white"/>
<path d="M13.2559 3.60693C13.2802 3.58008 13.3056 3.55226 13.329 3.52637C13.3066 3.55226 13.2802 3.58008 13.2559 3.60693Z" fill="#9C1B36"/>
<path d="M12.0117 4.74639C12.0751 4.69747 12.1346 4.64952 12.1931 4.60156C12.1336 4.64952 12.0751 4.69747 12.0117 4.74639Z" fill="#9C1B36"/>
<path d="M12.6289 4.23102C12.6767 4.18786 12.7264 4.14375 12.7713 4.10059C12.7264 4.14375 12.6777 4.1869 12.6289 4.23102Z" fill="#9C1B36"/>
<path d="M11.0195 5.43512C11.0898 5.39197 11.1561 5.34785 11.2234 5.30469C11.1571 5.34881 11.0898 5.39197 11.0195 5.43512Z" fill="#9C1B36"/>
<path d="M11.3789 5.20364C11.4443 5.15953 11.5067 5.11541 11.5701 5.07129C11.5067 5.11541 11.4443 5.15857 11.3789 5.20364Z" fill="#9C1B36"/>
<path d="M11.707 4.97413C11.7695 4.92906 11.827 4.88494 11.8865 4.84082C11.827 4.88494 11.7695 4.93002 11.707 4.97413Z" fill="#9C1B36"/>
<path d="M10.6367 5.66662C10.7099 5.62442 10.7811 5.58126 10.8513 5.53906C10.7801 5.58222 10.7099 5.62442 10.6367 5.66662Z" fill="#9C1B36"/>
<path d="M13.9082 2.76921C13.9082 2.76921 13.912 2.76456 13.9129 2.7627C13.911 2.76456 13.9091 2.76735 13.9082 2.76921Z" fill="#9C1B36"/>
<path d="M5.81327 10.6505C5.81327 10.6505 4.45063 24.3972 13.9998 31.389C28.4037 27.1489 25.6364 8.106 25.6364 8.106C16.293 7.12196 13.9998 2.61133 13.9998 2.61133C13.9998 2.61133 13.992 2.62476 13.9803 2.64586C13.9803 2.65641 13.4019 8.66419 5.81327 10.6495V10.6505Z" fill="#CA005D"/>
<path d="M8.80469 6.56527C8.89833 6.52691 8.98904 6.48758 9.07975 6.44922C8.99001 6.48854 8.89833 6.52691 8.80469 6.56527Z" fill="#9C1B36"/>
<path d="M13.5488 3.26742C13.5664 3.24632 13.583 3.22522 13.5986 3.20508C13.583 3.22522 13.5654 3.24632 13.5488 3.26742Z" fill="#9C1B36"/>
<path d="M13.666 3.11821C13.6777 3.10095 13.6914 3.08369 13.7031 3.06738C13.6914 3.08369 13.6787 3.10095 13.666 3.11821Z" fill="#9C1B36"/>
<path d="M12.9803 3.89844C12.9472 3.93201 12.9101 3.96653 12.875 4.00106C12.9101 3.96653 12.9462 3.93201 12.9803 3.89844Z" fill="#9C1B36"/>
<path d="M6.45703 7.35955C6.57603 7.32694 6.69601 7.29433 6.8111 7.26172C6.69503 7.29529 6.57603 7.32694 6.45703 7.35955Z" fill="#9C1B36"/>
<path d="M5.78125 7.53055C5.90903 7.49986 6.03681 7.46917 6.16068 7.43848C6.03681 7.47013 5.90903 7.49986 5.78125 7.53055Z" fill="#9C1B36"/>
<path d="M5.06641 7.68886C5.20296 7.66104 5.3405 7.63227 5.47413 7.60254C5.3405 7.63227 5.20394 7.66104 5.06641 7.68886Z" fill="#9C1B36"/>
<path d="M8.26758 6.77724C8.36707 6.73983 8.46461 6.70243 8.56118 6.66406C8.46559 6.70147 8.36707 6.73983 8.26758 6.77724Z" fill="#9C1B36"/>
<path d="M9.30859 6.34741C9.39638 6.30713 9.48222 6.26684 9.56805 6.22656C9.48319 6.26684 9.39736 6.30713 9.30859 6.34741Z" fill="#9C1B36"/>
<path d="M7.70117 6.98142C7.80554 6.94498 7.90991 6.90949 8.01135 6.87305C7.90991 6.90949 7.80554 6.94594 7.70117 6.98142Z" fill="#9C1B36"/>
<path d="M7.0957 7.17487C7.20787 7.14034 7.31907 7.10678 7.42832 7.07129C7.31907 7.10678 7.20885 7.14034 7.0957 7.17487Z" fill="#9C1B36"/>
<path d="M9.78125 6.12372C9.86416 6.08344 9.94512 6.0422 10.0251 6C9.94512 6.04124 9.86416 6.08248 9.78125 6.12372Z" fill="#9C1B36"/>
<path d="M17.5533 13.2871C17.7201 13.2871 17.8976 13.2957 18.0878 13.314C19.2436 13.4252 20.5809 14.4658 20.7438 16.4598V17.1235C20.5926 19.0321 19.1266 21.3867 14.8436 24.3407C10.5606 21.3867 9.09455 19.0321 8.94336 17.1235V16.4598C9.10625 14.4658 10.4426 13.4243 11.5994 13.314C11.7896 13.2957 11.9671 13.2871 12.1339 13.2871C13.4692 13.2871 14.1111 13.8549 14.8446 14.7142C15.5781 13.8549 16.2189 13.2871 17.5542 13.2871" fill="#700C26"/>
<path d="M16.7115 13.2871C16.8783 13.2871 17.0558 13.2957 17.246 13.314C18.4018 13.4252 19.7391 14.4658 19.902 16.4598V17.1235C19.7508 19.0321 18.2848 21.3867 14.0018 24.3407C9.71878 21.3867 8.25275 19.0321 8.10156 17.1235V16.4598C8.26446 14.4658 9.60076 13.4243 10.7576 13.314C10.9478 13.2957 11.1253 13.2871 11.2921 13.2871C12.6274 13.2871 13.2693 13.8549 14.0028 14.7142C14.7363 13.8549 15.3771 13.2871 16.7124 13.2871" fill="#FAE6EF"/>
</svg>
