<svg width="24" height="24" viewBox="0 0 24 24" fill="none" xmlns="http://www.w3.org/2000/svg">
<path d="M6.33513 11.2402L1.04102 16.8012L6.33513 22.3622V18.85H15.1587V14.7524H6.33513V11.2402Z" fill="#83786F"/>
<path fill-rule="evenodd" clip-rule="evenodd" d="M6.49821 10.832C6.66599 10.8985 6.77608 11.0601 6.77608 11.2398V14.313H15.1584C15.4021 14.313 15.5996 14.5095 15.5996 14.752V18.8496C15.5996 19.092 15.4021 19.2886 15.1584 19.2886H6.77608V22.3617C6.77608 22.5415 6.66599 22.7031 6.49821 22.7696C6.33043 22.8361 6.13884 22.7942 6.01463 22.6637L0.720513 17.1027C0.559308 16.9334 0.559308 16.6682 0.720513 16.4988L6.01463 10.9379C6.13884 10.8074 6.33043 10.7655 6.49821 10.832ZM1.64851 16.8008L5.89373 21.26V18.8496C5.89373 18.6071 6.09125 18.4105 6.3349 18.4105H14.7173V15.191H6.3349C6.09125 15.191 5.89373 14.9945 5.89373 14.752V12.3416L1.64851 16.8008Z" fill="#83786F"/>
<path d="M17.6649 1.63867L22.959 7.19963L17.6649 12.7606V9.24841H8.84134V5.15086H17.6649V1.63867Z" fill="#83786F"/>
<path fill-rule="evenodd" clip-rule="evenodd" d="M17.5018 1.23042C17.334 1.29695 17.2239 1.45853 17.2239 1.63826V4.71142H8.84157C8.59791 4.71142 8.40039 4.90798 8.40039 5.15044V9.24799C8.40039 9.49046 8.59791 9.68702 8.84157 9.68702H17.2239V12.7602C17.2239 12.9399 17.334 13.1015 17.5018 13.168C17.6696 13.2345 17.8612 13.1926 17.9854 13.0621L23.2795 7.50115C23.4407 7.33183 23.4407 7.06661 23.2795 6.89728L17.9854 1.33632C17.8612 1.20585 17.6696 1.16389 17.5018 1.23042ZM22.3515 7.19922L18.1063 11.6584V9.24799C18.1063 9.00553 17.9088 8.80897 17.6651 8.80897H9.28274V5.58947H17.6651C17.9088 5.58947 18.1063 5.39291 18.1063 5.15044V2.74002L22.3515 7.19922Z" fill="#83786F"/>
</svg>
