<svg width="204" height="72" viewBox="0 0 204 72" fill="none" xmlns="http://www.w3.org/2000/svg">
<path d="M119.741 15.7453C119.177 15.8538 115.521 15.1651 115.521 15.1651C115.521 15.1651 118.245 16.5802 118.315 16.967C118.385 17.3538 117.239 19.7264 117.239 19.7264C117.239 19.7264 119.177 17.7264 119.769 17.2264C120.188 16.8679 121.017 16.8774 121.632 16.9764C124.413 17.3838 127.25 16.8884 129.736 15.5613C132.359 14.1934 132.373 13.9198 132.373 13.9198C132.373 13.9198 130.36 12.5991 126.904 13.1132C123.052 13.6793 120.309 15.6274 119.741 15.7453Z" fill="#91004B"/>
<path d="M52.9752 60.3255C52.3045 60.5094 48.6527 59.6557 48.6527 59.6557C48.6527 59.6557 51.3636 61.3396 51.5965 61.6698C51.8294 62 51.0981 64.9717 51.0981 64.9717C51.0981 64.9717 52.7935 62.6132 53.427 61.9009C53.8322 61.4764 54.8243 61.5755 55.3274 61.6509C58.7527 62.2171 62.2612 61.4101 65.1089 59.401C68.0386 57.283 67.9921 56.8774 67.9921 56.8774C67.9921 56.8774 65.2439 54.9906 61.0845 55.8113C56.925 56.6321 53.6319 60.1274 52.9519 60.316" fill="#91004B"/>
<path d="M148.056 14.8774C147.082 15.0236 142.098 13.2075 142.098 13.2075C142.098 13.2075 145.62 16.0142 145.899 16.5094C146.178 17.0047 144.655 21.0802 144.655 21.0802C144.655 21.0802 147.422 18.066 148.456 17.1698C149.085 16.6274 150.487 16.9434 151.153 17.1321C151.819 17.3208 158.443 19.4198 165.252 15.6274C169.691 13.1509 169.696 12.5708 169.696 12.5708C169.696 12.5708 166.156 9.4434 160.185 9.92453C154.213 10.4057 149.006 14.7123 148.074 14.8585" fill="#FFA100"/>
<path d="M30.6222 52.9387C29.6534 53.2123 25.7361 51.6227 25.7361 51.6227C25.7361 51.6227 29.5509 53.8962 29.6906 54.2972C29.8304 54.6981 27.3058 58.4104 27.3058 58.4104C27.3058 58.4104 29.8257 56.2076 30.8598 55.3538C31.7913 54.5991 33.9945 54.3208 35.2801 54.4104C36.5656 54.5 41.7265 55.25 48.2847 50.8302C52.5746 47.9387 52.5327 47.4151 52.5327 47.4151C52.5327 47.4151 48.7459 45.1226 42.7885 46.4387C36.8311 47.7547 31.5864 52.6415 30.6222 52.9198" fill="#FFA100"/>
<path d="M72.5707 49.6274C71.9465 49.6934 69.7341 48.2689 69.7341 48.2689C69.7341 48.2689 71.8068 50.0943 71.8487 50.3538C71.8906 50.6132 69.9437 52.5943 69.9437 52.5943C69.9437 52.5943 71.723 51.5377 72.4496 51.1274C73.0924 50.7736 74.4757 50.8585 75.2443 51.0708C76.0128 51.283 79.087 52.316 83.5818 50.3585C86.5162 49.0802 86.5489 48.7594 86.5489 48.7594C86.5489 48.7594 84.4947 46.9245 80.7079 47.0566C76.9211 47.1887 73.1809 49.5708 72.566 49.6274" fill="#FFA100"/>
<path d="M53.3525 37.4906C52.3615 37.9485 51.2837 38.182 50.1945 38.1745C46.0257 38.1745 42.4205 35.9387 42.4205 30.1887C42.4205 24.4387 46.1468 22.0802 50.3109 22.0802C51.3385 22.0764 52.3617 22.2144 53.3525 22.4906V25.1651C52.381 24.7491 51.3377 24.5327 50.283 24.5283C47.3532 24.5283 45.2572 26.0377 45.2572 30.1226C45.2572 34.2075 47.5442 35.6887 50.3109 35.6887C51.355 35.7119 52.3919 35.5093 53.3525 35.0943V37.4906Z" fill="#CA005D"/>
<path d="M64.154 32.4717C64.154 35.8255 62.235 38.1321 59.2819 38.1321C56.3288 38.1321 54.4377 35.8066 54.4377 32.4717C54.4377 29.1368 56.3754 26.8113 59.2819 26.8113C62.1884 26.8113 64.154 29.0472 64.154 32.4717ZM57.116 32.4717C57.116 34.7736 58.1081 35.9151 59.3518 35.9151C60.5954 35.9151 61.4944 34.8679 61.4944 32.4717C61.4944 30.1839 60.5022 29.0424 59.2353 29.0424C57.9684 29.0424 57.116 30.0707 57.116 32.4717Z" fill="#CA005D"/>
<path d="M79.6366 37.8302H77.1587V31.0094C77.1587 29.5943 76.6184 29.066 75.4818 29.066C74.8344 29.066 73.8656 29.3396 73.8656 29.8632C73.8656 30.1179 73.9308 30.4387 73.9308 30.8066V37.8302H71.4482V31.0094C71.4482 29.5943 70.8892 29.066 69.9204 29.066C69.082 29.066 68.2482 29.2972 68.2482 30.0707V37.8302H65.7703V27.3585C67.9594 27.3585 68.6581 26.8538 70.279 26.8538C71.7463 26.8538 72.3285 27.2028 72.8688 27.6792C73.8312 27.1089 74.9363 26.8336 76.0501 26.8868C78.1927 26.8868 79.6366 27.8726 79.6366 30.6604V37.8302Z" fill="#CA005D"/>
<path d="M81.4579 42.8349C81.5045 40.4387 81.5464 38.75 81.5464 35.7594V27.1934C83.0835 27.1934 84.0476 26.8302 85.5614 26.8302C88.2909 26.8302 90.5686 28.8161 90.5686 32.5377C90.5686 36.1227 88.1326 38.0849 85.8782 38.0849C85.2232 38.1342 84.57 37.9688 84.015 37.6132V42.8349H81.4579ZM85.3565 28.9717C84.5227 28.9717 84.0057 29.3396 84.0057 29.7028V35.184C84.0057 35.5755 84.5926 35.9151 85.3565 35.9151C86.9355 35.9151 87.8391 34.8679 87.8391 32.4906C87.8391 30.1132 86.9355 28.9717 85.3565 28.9717Z" fill="#CA005D"/>
<path d="M97.2991 30.783V30.3679C97.2991 29.5047 96.7076 28.9528 95.6549 28.9528C94.5138 28.9605 93.3881 29.2214 92.3572 29.717V27.3585C93.4897 27.0103 94.667 26.8339 95.8506 26.8349C98.2866 26.8349 99.7957 27.8396 99.7957 30.3491C99.7957 32.1085 99.7352 33.6509 99.7352 35.3302C99.7352 36.2217 99.7771 37.217 99.8423 37.7736C98.0397 37.7736 97.0709 38.066 95.5385 38.066C92.9208 38.066 91.6166 36.8349 91.6166 34.7641C91.6166 32.6934 93.3307 30.9057 97.2991 30.7925V30.783ZM97.2991 32.6792C95.2404 32.75 94.1877 33.3915 94.1877 34.5991C94.1877 35.4151 94.8165 35.9906 95.7853 35.9906C96.7542 35.9906 97.1128 35.7406 97.206 35.4151C97.2915 34.5059 97.3226 33.5923 97.2991 32.6792Z" fill="#CA005D"/>
<path d="M101.724 37.8302V27.1462H104.053V28.1557C104.352 27.7095 104.76 27.35 105.238 27.1126C105.716 26.8752 106.247 26.7681 106.778 26.8019C107.163 26.8052 107.548 26.8367 107.928 26.8962V29.5472C107.388 29.3341 106.812 29.2315 106.233 29.2453C105.217 29.2453 104.319 29.6557 104.272 30.5472C104.23 32.3538 104.23 35.1132 104.23 37.8255L101.724 37.8302Z" fill="#CA005D"/>
<path d="M111.454 27.1462H114.496V29.3396H111.454C111.454 31.599 111.431 33.1509 111.431 34.8207C111.431 35.6179 111.897 35.9387 112.735 35.9387C113.348 35.961 113.955 35.8195 114.496 35.5283V37.7358C113.724 38.0167 112.908 38.1541 112.088 38.1415C110.281 38.1415 108.953 37.3019 108.953 35.3113V25.2075L111.454 23.7028V27.1462Z" fill="#CA005D"/>
<path d="M121.464 30.783V30.3679C121.464 29.5047 120.882 28.9528 119.82 28.9528C118.68 28.9606 117.556 29.2215 116.527 29.717V27.3585C117.661 27.0093 118.84 26.8328 120.025 26.8349C122.456 26.8349 123.965 27.8396 123.965 30.3491C123.965 32.1085 123.9 33.651 123.9 35.3302C123.894 36.1462 123.933 36.962 124.016 37.7736C122.209 37.7736 121.222 38.066 119.708 38.066C117.09 38.066 115.781 36.8349 115.781 34.7642C115.781 32.6934 117.5 30.9057 121.464 30.7925V30.783ZM121.464 32.6793C119.415 32.75 118.353 33.3915 118.353 34.5991C118.353 35.4151 118.986 35.9906 119.955 35.9906C120.924 35.9906 121.282 35.7406 121.352 35.4151C121.44 34.5061 121.471 33.5923 121.445 32.6793" fill="#CA005D"/>
<path d="M139.769 37.8302H137.287V31.0094C137.287 29.5943 136.746 29.0707 135.619 29.0707C134.962 29.0707 133.994 29.3396 133.994 29.8632C134.017 30.1179 134.063 30.4387 134.063 30.8066V37.8302H131.581V31.0094C131.581 29.5943 131.017 29.066 130.048 29.066C129.215 29.066 128.381 29.2972 128.381 30.0707V37.8302H125.903V27.3585C128.125 27.3585 128.809 26.8868 130.454 26.8868C131.916 26.8868 132.503 27.2358 133.048 27.7123C133.998 27.1345 135.094 26.8477 136.201 26.8868C138.339 26.8868 139.788 27.8726 139.788 30.6604L139.769 37.8302Z" fill="#CA005D"/>
<path d="M151.055 32.467C151.055 35.8255 149.136 38.1274 146.183 38.1274C143.23 38.1274 141.339 35.8019 141.339 32.467C141.339 29.1321 143.277 26.8302 146.183 26.8302C149.09 26.8302 151.055 29.0708 151.055 32.467ZM144.017 32.467C144.017 34.7736 145.009 35.9151 146.248 35.9151C147.487 35.9151 148.391 34.8679 148.391 32.467C148.391 30.184 147.399 29.0425 146.137 29.0425C144.874 29.0425 144.017 30.0708 144.017 32.467Z" fill="#CA005D"/>
<path d="M156.211 26.8302C157.034 26.8161 157.855 26.9225 158.648 27.1462V29.5047C157.852 29.1483 156.993 28.9605 156.123 28.9528C155.266 28.9528 154.726 29.3208 154.726 29.8726C154.726 31.5142 159.141 31.3538 159.141 34.6415C159.141 36.4198 157.879 38.1321 154.949 38.1321C154.019 38.1489 153.091 38.0265 152.196 37.7689V35.5519C153.034 35.8297 153.909 35.976 154.791 35.9858C155.988 35.9858 156.598 35.5142 156.598 34.8208C156.598 33.0141 152.154 33.2877 152.154 30.1604C152.154 28.1085 153.687 26.8302 156.211 26.8302Z" fill="#CA005D"/>
<path d="M95.1985 56.9906V44.7783H101.459V46.25C100.383 46.1745 98.9527 46.1557 97.0942 46.1557C96.9312 46.1557 96.8427 46.2642 96.8427 46.4481C96.8427 47.1745 96.8054 48.4764 96.8054 49.9434H100.937V51.3585H96.8054V56.9764L95.1985 56.9906Z" fill="#CA005D"/>
<path d="M104.724 46.066C104.731 46.1971 104.711 46.3281 104.665 46.4509C104.62 46.5737 104.549 46.6856 104.459 46.7792C104.368 46.8729 104.259 46.9464 104.138 46.9949C104.018 47.0435 103.889 47.0661 103.76 47.0613C103.504 47.0613 103.259 46.9584 103.078 46.7753C102.897 46.5922 102.795 46.3439 102.795 46.0849C102.795 45.8259 102.897 45.5776 103.078 45.3945C103.259 45.2114 103.504 45.1085 103.76 45.1085C103.885 45.1041 104.009 45.1252 104.126 45.1706C104.243 45.216 104.349 45.2848 104.439 45.3729C104.529 45.4609 104.601 45.5664 104.65 45.6831C104.699 45.7997 104.724 45.9252 104.724 46.0519V46.066ZM104.598 48.5896C104.547 51.1226 104.528 54.3632 104.528 56.9764H103.005V48.5849L104.598 48.5896Z" fill="#CA005D"/>
<path d="M107.523 50.6274V56.9906H106V48.8019C107.737 48.8019 107.97 48.3679 109.614 48.3679C111.152 48.3679 112.512 49.1274 112.512 51.2641V56.9906H110.989V51.5377C110.989 50.2311 110.383 49.7641 109.219 49.7641C108.185 49.7641 107.523 50.1792 107.523 50.6274Z" fill="#CA005D"/>
<path d="M118.418 51.5189V51.0849C118.418 50.1792 117.863 49.6698 116.829 49.6698C115.987 49.6736 115.155 49.8653 114.393 50.2311V48.816C115.217 48.5031 116.09 48.3433 116.969 48.3443C118.832 48.3443 119.941 49.1038 119.941 51.0236C119.941 52.4764 119.885 53.7783 119.885 55.1368C119.885 55.8632 119.922 56.4575 119.96 56.9292C118.651 56.9292 117.831 57.1651 116.755 57.1651C114.808 57.1651 113.807 56.1509 113.807 54.6085C113.807 52.9434 115.167 51.5849 118.418 51.5141V51.5189ZM118.418 52.7123C116.345 52.7453 115.451 53.3255 115.451 54.5047C115.449 54.6963 115.487 54.8862 115.563 55.0617C115.639 55.2371 115.751 55.3943 115.892 55.5227C116.032 55.6511 116.198 55.7479 116.378 55.8066C116.558 55.8653 116.749 55.8846 116.937 55.8632C117.868 55.8632 118.259 55.6274 118.334 55.2453C118.42 54.4039 118.449 53.5577 118.422 52.7123" fill="#CA005D"/>
<path d="M122.95 50.6274V56.9906H121.431V48.8019C123.164 48.8019 123.397 48.3679 125.046 48.3679C126.583 48.3679 127.938 49.1274 127.938 51.2641V56.9906H126.42V51.5377C126.42 50.2311 125.814 49.7641 124.65 49.7641C123.611 49.7641 122.95 50.1792 122.95 50.6274Z" fill="#CA005D"/>
<path d="M133.444 55.8679C133.894 55.866 134.343 55.8218 134.785 55.7358V57.0755C134.327 57.18 133.858 57.2338 133.388 57.2358C130.868 57.2358 129.196 55.7547 129.196 52.783C129.196 50.0849 130.682 48.3443 133.388 48.3443C133.857 48.3472 134.324 48.3898 134.785 48.4717V49.9387C134.333 49.7973 133.861 49.7304 133.388 49.7406C131.87 49.7406 130.919 50.6085 130.919 52.8019C130.919 54.9953 131.851 55.8632 133.439 55.8632" fill="#CA005D"/>
<path d="M137.985 46.066C137.993 46.1975 137.973 46.329 137.927 46.4521C137.881 46.5752 137.81 46.6873 137.719 46.781C137.627 46.8748 137.518 46.9481 137.397 46.9964C137.276 47.0447 137.146 47.0668 137.017 47.0613C136.761 47.0613 136.516 46.9584 136.335 46.7753C136.154 46.5922 136.052 46.3439 136.052 46.0849C136.052 45.8259 136.154 45.5776 136.335 45.3945C136.516 45.2114 136.761 45.1085 137.017 45.1085C137.142 45.1034 137.267 45.124 137.384 45.1692C137.502 45.2143 137.609 45.283 137.699 45.3711C137.79 45.4592 137.862 45.5649 137.911 45.6819C137.96 45.7989 137.985 45.9247 137.985 46.0519V46.066ZM137.86 48.5849C137.804 51.1179 137.785 54.3585 137.785 56.9717H136.267V48.5849H137.86Z" fill="#CA005D"/>
<path d="M140.622 52.717C140.615 52.8364 140.615 52.9561 140.622 53.0755C140.622 54.9623 141.693 55.9057 143.286 55.9057C143.924 55.9213 144.558 55.8041 145.149 55.5613V56.9198C144.522 57.1326 143.864 57.2362 143.202 57.2264C140.715 57.2264 138.982 55.8349 138.982 52.7028C138.982 50.0566 140.626 48.3349 142.881 48.3349C145.005 48.3349 145.885 49.8019 145.885 51.7028C145.883 52.0373 145.86 52.3714 145.815 52.7028L140.622 52.717ZM143.845 51.4434C144.148 51.4434 144.259 51.3019 144.259 51.0094C144.259 50.2311 143.77 49.6887 142.769 49.6887C142.279 49.6736 141.801 49.8456 141.43 50.1706C141.059 50.4956 140.822 50.9499 140.766 51.4434H143.845Z" fill="#CA005D"/>
<path d="M147.222 56.9905V48.5849H148.689V49.4339C148.93 49.072 149.259 48.7787 149.644 48.5822C150.029 48.3856 150.457 48.2924 150.888 48.3113C151.188 48.3059 151.488 48.3359 151.782 48.4009V50.0519C151.389 49.9245 150.979 49.8624 150.566 49.8679C149.602 49.8679 148.815 50.2311 148.778 51.066C148.745 52.533 148.745 54.7405 148.745 56.9717L147.222 56.9905Z" fill="#CA005D"/>
<path d="M156.929 51.5189V51.0849C156.929 50.1792 156.375 49.6698 155.336 49.6698C154.494 49.6737 153.664 49.8653 152.904 50.2311V48.816C153.728 48.5031 154.601 48.3433 155.48 48.3443C157.343 48.3443 158.452 49.1038 158.452 51.0236C158.452 52.4764 158.396 53.7783 158.396 55.1368C158.396 55.8632 158.433 56.4575 158.466 56.9292C157.162 56.9292 156.337 57.1651 155.266 57.1651C153.319 57.1651 152.313 56.1509 152.313 54.6085C152.313 52.9434 153.673 51.5849 156.929 51.5141V51.5189ZM156.929 52.7123C154.856 52.7453 153.962 53.3255 153.962 54.5047C153.96 54.6959 153.998 54.8853 154.074 55.0604C154.15 55.2355 154.261 55.3924 154.401 55.5208C154.541 55.6491 154.706 55.746 154.886 55.805C155.065 55.864 155.255 55.8839 155.443 55.8632C156.375 55.8632 156.766 55.6274 156.84 55.2453C156.924 54.4038 156.953 53.5576 156.929 52.7123Z" fill="#CA005D"/>
<path d="M163.524 57.0142C163.112 57.0151 162.709 56.892 162.365 56.6604C162.022 56.4289 161.755 56.0994 161.596 55.7136C161.438 55.3279 161.397 54.9033 161.478 54.4937C161.558 54.0842 161.757 53.708 162.049 53.4131C162.341 53.1181 162.713 52.9176 163.117 52.8369C163.522 52.7562 163.941 52.7991 164.322 52.9599C164.702 53.1208 165.027 53.3926 165.255 53.7406C165.483 54.0887 165.604 54.4975 165.602 54.9151C165.609 55.1931 165.56 55.4697 165.458 55.7279C165.356 55.9861 165.203 56.2206 165.009 56.417C164.814 56.6134 164.582 56.7677 164.327 56.8703C164.072 56.973 163.799 57.0219 163.524 57.0142ZM163.524 53.1604C163.18 53.1453 162.839 53.235 162.545 53.4179C162.251 53.6008 162.018 53.8686 161.876 54.1867C161.733 54.5049 161.688 54.8589 161.746 55.2032C161.804 55.5475 161.963 55.8663 162.201 56.1186C162.44 56.371 162.747 56.5453 163.084 56.6192C163.421 56.693 163.773 56.6631 164.093 56.5331C164.413 56.4032 164.687 56.1792 164.881 55.89C165.074 55.6008 165.177 55.2597 165.178 54.9104C165.191 54.6836 165.157 54.4565 165.08 54.2433C165.002 54.0301 164.882 53.8354 164.727 53.6713C164.572 53.5071 164.385 53.377 164.178 53.2891C163.971 53.2013 163.749 53.1574 163.524 53.1604ZM162.998 56.2594H162.593V53.4859C162.891 53.4859 163.058 53.4481 163.385 53.4481C163.911 53.4481 164.316 53.717 164.316 54.2217C164.317 54.3777 164.27 54.5301 164.182 54.6578C164.093 54.7854 163.968 54.882 163.822 54.934C163.813 54.942 163.805 54.952 163.799 54.9634C163.793 54.9748 163.79 54.9873 163.79 55C163.791 55.0297 163.799 55.0588 163.813 55.0849L164.549 56.2594H164.13L163.524 55.316C163.403 55.1368 163.343 55.0896 163.212 55.0896H162.961L162.998 56.2594ZM163.263 54.7594C163.729 54.7594 163.925 54.5802 163.925 54.2311C163.925 53.8821 163.692 53.7972 163.352 53.7972C163.133 53.7972 163.026 53.8538 163.017 53.9104C163.017 54.2217 163.017 54.5189 163.017 54.7594H163.263Z" fill="#CA005D"/>
</svg>
