<svg width="18" height="18" viewBox="0 0 18 18"  xmlns="http://www.w3.org/2000/svg">
<path fill-rule="evenodd" clip-rule="evenodd" d="M0.875 1.5C0.875 1.15482 1.15482 0.875 1.5 0.875H8.99654C9.34172 0.875 9.62154 1.15482 9.62154 1.5C9.62154 1.84518 9.34172 2.125 8.99654 2.125H2.125V15.875H9C9.34518 15.875 9.625 16.1548 9.625 16.5C9.625 16.8452 9.34518 17.125 9 17.125H1.5C1.15482 17.125 0.875 16.8452 0.875 16.5V1.5Z"  stroke-linecap="round" stroke-linejoin="round"/>
<path fill-rule="evenodd" clip-rule="evenodd" d="M12.3081 4.80806C12.5521 4.56398 12.9479 4.56398 13.1919 4.80806L16.9419 8.55806C17.186 8.80214 17.186 9.19786 16.9419 9.44194L13.1919 13.1919C12.9479 13.436 12.5521 13.436 12.3081 13.1919C12.064 12.9479 12.064 12.5521 12.3081 12.3081L15.6161 9L12.3081 5.69194C12.064 5.44786 12.064 5.05214 12.3081 4.80806Z" stroke-linecap="round" stroke-linejoin="round"/>
<path fill-rule="evenodd" clip-rule="evenodd" d="M5.04163 8.99658C5.04163 8.6514 5.32145 8.37158 5.66663 8.37158H16.5C16.8451 8.37158 17.125 8.6514 17.125 8.99658C17.125 9.34176 16.8451 9.62158 16.5 9.62158H5.66663C5.32145 9.62158 5.04163 9.34176 5.04163 8.99658Z" stroke-linecap="round" stroke-linejoin="round"/>
</svg>
