<svg width="20" height="20" viewBox="0 0 20 20" fill="none" xmlns="http://www.w3.org/2000/svg">
<path fill-rule="evenodd" clip-rule="evenodd" d="M2.70703 2.49984C2.70703 1.69442 3.35995 1.0415 4.16536 1.0415H12.9154C13.0925 1.0415 13.2614 1.1167 13.3799 1.2484L17.1299 5.41507C17.2332 5.52983 17.2904 5.67877 17.2904 5.83317V9.58317C17.2904 9.92835 17.0105 10.2082 16.6654 10.2082C16.3202 10.2082 16.0404 9.92835 16.0404 9.58317V6.07301L12.637 2.2915H4.16536C4.0503 2.2915 3.95703 2.38478 3.95703 2.49984V17.4998C3.95703 17.6149 4.0503 17.7082 4.16536 17.7082H9.16536C9.51054 17.7082 9.79036 17.988 9.79036 18.3332C9.79036 18.6783 9.51054 18.9582 9.16536 18.9582H4.16536C3.35996 18.9582 2.70703 18.3053 2.70703 17.4998V2.49984Z" fill="#83786F"/>
<path fill-rule="evenodd" clip-rule="evenodd" d="M12.5 1.0415C12.8452 1.0415 13.125 1.32133 13.125 1.6665V5.20817H16.6667C17.0118 5.20817 17.2917 5.48799 17.2917 5.83317C17.2917 6.17835 17.0118 6.45817 16.6667 6.45817H12.5C12.1548 6.45817 11.875 6.17835 11.875 5.83317V1.6665C11.875 1.32133 12.1548 1.0415 12.5 1.0415Z" fill="#83786F"/>
<path d="M16.5625 12.9165L13.5937 18.3853L13.2813 15.4165L10.625 13.8532L16.5625 12.9165Z" fill="#83786F"/>
<path fill-rule="evenodd" clip-rule="evenodd" d="M16.7539 12.7813C16.8054 12.8542 16.811 12.9499 16.7685 13.0283L13.7997 18.4971C13.7507 18.5873 13.6487 18.6352 13.5481 18.6151C13.4474 18.5951 13.3714 18.5119 13.3607 18.4098L13.0605 15.5586L10.5061 14.0552C10.4208 14.005 10.3763 13.9067 10.3947 13.8095C10.4132 13.7122 10.4907 13.6371 10.5885 13.6217L16.526 12.685C16.6141 12.6711 16.7025 12.7084 16.7539 12.7813ZM16.13 13.222L11.3073 13.9828L13.4001 15.2145C13.4642 15.2522 13.5066 15.3181 13.5143 15.392L13.7478 17.6102L16.13 13.222Z" fill="#83786F"/>
</svg>
