<svg width="53" height="70" viewBox="0 0 53 70" fill="none" xmlns="http://www.w3.org/2000/svg">
<path d="M26.9465 23.9047C26.9465 23.9047 33.921 26.4041 34.3857 27.0214C34.8504 27.6388 37.3182 38.5931 37.3182 38.5931L32.8995 39.3554L31.5997 55.7411L9.58356 59.9695C9.58356 59.9695 10.0482 40.9693 9.58356 40.9098C9.11887 40.8502 7.72481 26.4021 7.72481 26.4021L12.8343 23.6705L14.7851 21.052L24.9517 21.7587L26.9465 23.9027V23.9047Z" fill="#FFE2B0"/>
<path d="M36.6461 38.6907L37.5692 44.2075L43.5515 51.6122L37.318 53.9845L32.2169 48.4478L32.6418 39.2505L36.6461 38.6907Z" fill="#DE9D8A"/>
<path d="M28.9076 24.5682L33.2614 39.3499C33.2614 39.3499 33.2614 39.3539 33.2593 39.3539V39.3499L31.5994 55.7396L9.58332 59.968L9.74659 51.3702L10.0354 51.0466C13.2799 47.4038 15.4735 43.0225 16.3987 38.3355L16.9178 35.7031L12.8361 23.6709L13.6378 22.595L18.785 35.3398L30.1091 35.2823L27.6998 24.1116L28.9097 24.5663L28.9076 24.5682Z" fill="#DB3683"/>
<path d="M9.74656 42.4316L0.0907078 41.2881C0.0907078 41.2881 1.58524 32.9802 2.29692 31.3603C3.00861 29.7403 7.72664 26.4072 7.72664 26.4072L11.0464 27.9199L11.9716 34.4194L9.74866 42.4316H9.74656Z" fill="#FFE2B0"/>
<path d="M32.0517 49.0572C32.081 49.0612 32.6483 44.658 33.3181 39.2266C33.9879 33.7931 34.507 29.386 34.4756 29.384C34.4442 29.382 33.8791 33.7812 33.2093 39.2147C32.5394 44.6461 32.0203 49.0532 32.0517 49.0572Z" fill="#263238"/>
<path d="M11.8692 35.711C11.8692 35.711 11.8839 35.6772 11.9027 35.6097C11.9195 35.5422 11.9467 35.445 11.9739 35.3179C12.0325 35.0638 12.1058 34.6926 12.1686 34.2281C12.2942 33.3069 12.3695 31.9927 12.0241 30.5952C11.6788 29.1956 10.9294 28.0601 10.2365 27.3951C9.89117 27.0596 9.5751 26.8233 9.34485 26.6804C9.23391 26.605 9.13763 26.5573 9.07483 26.5216C9.01204 26.4878 8.97855 26.47 8.97645 26.4739C8.97227 26.4819 9.09995 26.5593 9.31974 26.7122C9.54161 26.865 9.84513 27.1052 10.18 27.4447C10.8499 28.1137 11.5783 29.2373 11.9195 30.617C12.2607 31.9967 12.2 33.299 12.0932 34.2181C12.0409 34.6807 11.9781 35.0519 11.932 35.308C11.9111 35.4271 11.8944 35.5244 11.8797 35.6038C11.8692 35.6713 11.865 35.707 11.8692 35.709V35.711Z" fill="#263238"/>
<path d="M0.0908413 41.2905C0.0908413 41.2905 0.147359 41.3044 0.256205 41.3203C0.375516 41.3361 0.534597 41.358 0.73345 41.3838C1.16046 41.4354 1.75911 41.5108 2.49382 41.6002C3.99044 41.7749 6.04176 42.0131 8.30659 42.2751C8.94501 42.3466 9.56668 42.4181 10.157 42.4836L10.2051 42.4895L10.2156 42.4459C10.6363 40.7465 11.0361 39.2735 11.3333 38.2254C11.4799 37.7092 11.5992 37.2923 11.6829 36.9945C11.7206 36.8576 11.752 36.7484 11.775 36.663C11.7938 36.5876 11.8043 36.5479 11.8001 36.5459C11.798 36.5459 11.7813 36.5836 11.7562 36.6571C11.7289 36.7404 11.6934 36.8476 11.6473 36.9826C11.5552 37.2685 11.4233 37.6834 11.2663 38.2055C10.9503 39.2497 10.5358 40.7207 10.1109 42.4201L10.1695 42.3823C9.57924 42.3148 8.95757 42.2434 8.31915 42.1719C6.05223 41.9198 4.00091 41.6935 2.50219 41.5267C1.76539 41.4493 1.16465 41.3878 0.737638 41.3421C0.536692 41.3242 0.377609 41.3083 0.256205 41.2964C0.145266 41.2865 0.0887489 41.2845 0.0887489 41.2885L0.0908413 41.2905Z" fill="#263238"/>
<path d="M22.0338 51.9271C22.0338 51.9271 22.1113 51.8616 22.2348 51.7306C22.3583 51.6016 22.532 51.407 22.7413 51.1648C23.1599 50.6804 23.7146 49.9896 24.2735 49.1935C24.8324 48.3975 25.2908 47.6471 25.6027 47.0932C25.7576 46.8173 25.879 46.591 25.9585 46.4322C26.0381 46.2733 26.0778 46.184 26.0716 46.182C26.0653 46.178 26.0109 46.2614 25.9209 46.4143C25.8204 46.583 25.6906 46.7994 25.5357 47.0595C25.2092 47.6034 24.7424 48.3439 24.1835 49.138C23.6246 49.932 23.0825 50.6249 22.6806 51.1212C22.488 51.3554 22.3269 51.5519 22.2013 51.7068C22.0882 51.8458 22.0275 51.9232 22.0338 51.9271Z" fill="#263238"/>
<path d="M22.6535 30.3702C22.6535 30.3702 22.6995 30.3444 22.7791 30.2888C22.867 30.2253 22.98 30.1419 23.1244 30.0387C23.43 29.8104 23.857 29.4908 24.3783 29.1017C24.6441 28.9071 24.9267 28.6749 25.2469 28.4624C25.4081 28.3592 25.586 28.2659 25.7828 28.2163C25.9795 28.1667 26.193 28.1686 26.4003 28.2282C26.8126 28.3433 27.181 28.653 27.4008 29.0481C27.6269 29.4471 27.7232 29.9176 27.7943 30.396C27.8048 30.4715 27.8153 30.5469 27.8257 30.6164L27.9346 30.6104C27.9346 29.6575 27.8843 28.7523 27.7713 27.9364C27.6604 27.1205 27.4929 26.3979 27.3296 25.7983C27.1685 25.1988 27.0178 24.7204 26.911 24.3908C26.8587 24.234 26.8168 24.1089 26.7854 24.0117C26.7561 23.9263 26.7373 23.8806 26.7352 23.8826C26.731 23.8826 26.7415 23.9303 26.7666 24.0176C26.7938 24.1149 26.8294 24.2419 26.8733 24.4008C26.9654 24.7343 27.1057 25.2147 27.2564 25.8142C27.4071 26.4137 27.5662 27.1344 27.6729 27.9463C27.7797 28.7582 27.8257 29.6595 27.8257 30.6084L27.9346 30.6005C27.9241 30.531 27.9136 30.4556 27.9032 30.3801C27.8299 29.8977 27.7336 29.4153 27.495 28.9984C27.2606 28.5835 26.8733 28.258 26.4275 28.1349C26.2056 28.0734 25.9691 28.0733 25.7577 28.1269C25.5462 28.1825 25.36 28.2818 25.1946 28.391C24.8681 28.6133 24.5939 28.8456 24.3301 29.0441C23.8173 29.4451 23.3986 29.7727 23.0972 30.0069C22.9591 30.1181 22.8502 30.2054 22.7665 30.2729C22.6911 30.3345 22.6535 30.3682 22.6556 30.3702H22.6535Z" fill="#263238"/>
<path d="M13.6817 22.5176C13.6817 22.5176 13.6963 22.5693 13.7361 22.6626C13.7801 22.7638 13.8408 22.8988 13.914 23.0675C14.0773 23.4269 14.3055 23.9311 14.5859 24.5485C15.1658 25.8031 15.9612 27.5203 16.8403 29.4181C16.9136 29.575 16.9868 29.7298 17.058 29.8827L17.0978 29.968L17.1522 29.8906C17.7194 29.1025 18.2553 28.3561 18.7388 27.6831L18.6677 27.693C19.7205 28.4911 20.6122 29.166 21.2506 29.6504C21.5604 29.8807 21.8095 30.0653 21.9895 30.2003C22.0712 30.2579 22.1361 30.3055 22.1884 30.3432C22.2344 30.375 22.2575 30.3909 22.2596 30.3889C22.2617 30.3869 22.2407 30.367 22.1989 30.3313C22.1486 30.2916 22.0879 30.24 22.0105 30.1765C21.8346 30.0375 21.5918 29.8449 21.2904 29.6067C20.6583 29.1164 19.775 28.4295 18.7325 27.6215L18.6907 27.5898L18.6593 27.6315C18.1737 28.3025 17.6336 29.0469 17.0643 29.833L17.1585 29.841C17.0873 29.6881 17.014 29.5313 16.9408 29.3745C16.0512 27.4826 15.2474 25.7694 14.6592 24.5167C14.3662 23.9053 14.1275 23.405 13.9559 23.0497C13.8743 22.8849 13.8094 22.7519 13.7591 22.6526C13.7131 22.5633 13.688 22.5157 13.6838 22.5176H13.6817Z" fill="#263238"/>
<path d="M23.4129 34.9363C23.4422 34.9323 23.3586 33.9635 23.2226 32.7685C23.0867 31.5734 22.9528 30.6086 22.9236 30.6126C22.8943 30.6165 22.9779 31.5853 23.1139 32.7804C23.2498 33.9735 23.3837 34.9403 23.4129 34.9363Z" fill="#263238"/>
<path d="M22.0945 31.2296C22.0945 31.2296 22.0945 31.1879 22.0464 31.1343C21.9983 31.0826 21.8999 31.0191 21.7617 31.021C21.6947 31.021 21.6131 31.0389 21.5503 31.0945C21.4875 31.1462 21.4415 31.2197 21.4184 31.3031C21.3703 31.464 21.4164 31.6884 21.6068 31.8016C21.7952 31.9089 22.0234 31.8751 22.1657 31.7678C22.3164 31.6566 22.3436 31.4759 22.3143 31.3567C22.2871 31.2316 22.216 31.1482 22.1573 31.1064C22.0987 31.0647 22.059 31.0568 22.0548 31.0627C22.0401 31.0747 22.2034 31.1462 22.2369 31.3686C22.2515 31.4739 22.2201 31.6129 22.1029 31.6924C21.9899 31.7738 21.8015 31.7956 21.6613 31.7142C21.521 31.6348 21.4771 31.46 21.5126 31.3269C21.5294 31.2594 21.5629 31.1998 21.6089 31.1581C21.6508 31.1164 21.7094 31.0985 21.7638 31.0945C21.8748 31.0846 21.9648 31.1283 22.015 31.164C22.0652 31.2038 22.0841 31.2355 22.0925 31.2316L22.0945 31.2296Z" fill="#263238"/>
<path d="M52.3659 53.2992L40.6273 50.3889L13.8283 55.5345L28.2796 59.4374L33.7931 58.5123L33.8915 62.2762L46.4736 58.9947L46.5196 55.1792L52.3659 53.2992Z" fill="#4C2717"/>
<path d="M51.2922 56.2382C50.6601 57.4729 49.7517 58.3047 48.6276 58.3444C48.4036 58.3524 48.232 58.2114 48.0185 58.1995C47.9097 58.2075 47.7799 58.2809 47.6585 58.3286C47.5936 58.3524 47.5287 58.3702 47.4701 58.3683C46.3084 58.3087 45.3183 57.5345 44.6506 56.2382C43.7212 54.4217 44.008 52.4723 45.2911 51.8787C45.4732 51.7933 45.6469 51.7298 45.8165 51.6841C46.0237 51.6325 46.2288 51.6067 46.4549 51.6127C46.8505 51.6206 47.3026 51.7219 47.9117 51.9263C47.9306 51.9343 47.9536 51.9402 47.9745 51.9482C49.0169 51.5114 49.8479 51.5094 50.6559 51.8787C51.939 52.4723 52.2237 54.4217 51.2943 56.2382H51.2922Z" fill="#E8505B"/>
<g opacity="0.3">
<path d="M51.2923 56.2382C50.6602 57.4729 49.7517 58.3047 48.6277 58.3444C48.4037 58.3524 48.2321 58.2114 48.0186 58.1995C47.9097 58.2075 47.78 58.2809 47.6586 58.3286C47.5937 58.3524 47.5288 58.3702 47.4702 58.3683C46.3085 58.3087 45.3184 57.5345 44.6507 56.2382C43.7213 54.4217 44.008 52.4723 45.2912 51.8787C45.4733 51.7933 45.647 51.7298 45.8166 51.6841C46.0238 51.6325 46.2289 51.6067 46.455 51.6127C46.8506 51.6206 47.3027 51.7219 47.9118 51.9263C47.9307 51.9343 47.9537 51.9402 47.9746 51.9482C49.017 51.5114 49.848 51.5094 50.656 51.8787C51.9391 52.4723 52.2238 54.4217 51.2944 56.2382H51.2923Z" fill="black"/>
</g>
<path d="M51.2689 54.4077C51.2689 54.4077 51.3422 54.2767 51.3757 54.0425C51.4092 53.8102 51.3924 53.4747 51.2606 53.1352C51.1266 52.7958 50.911 52.5298 50.7247 52.3749C50.5384 52.2181 50.3982 52.1565 50.394 52.1625C50.3856 52.1744 50.5133 52.2538 50.6808 52.4166C50.8503 52.5794 51.0492 52.8375 51.1768 53.163C51.3024 53.4906 51.3297 53.8082 51.3129 54.0365C51.2962 54.2648 51.2543 54.4038 51.2689 54.4077Z" fill="#FAFAFA"/>
<path d="M51.0337 55.2683C51.0569 55.2743 51.0991 55.1868 51.1266 55.0775C51.154 54.9661 51.1562 54.8727 51.1329 54.8667C51.1097 54.8608 51.0675 54.9483 51.04 55.0576C51.0126 55.1689 51.0104 55.2624 51.0337 55.2683Z" fill="#FAFAFA"/>
<path d="M40.5269 50.3842C40.4264 49.7668 40.596 49.1137 40.9874 48.6114C41.3788 48.1092 41.9859 47.7637 42.6368 47.6724C42.6975 47.6645 42.7645 47.6585 42.8169 47.6923C42.888 47.7399 42.8922 47.8392 42.8838 47.9206C42.8252 48.5201 42.5615 49.0978 42.1408 49.5484C41.72 49.9991 41.1486 50.3207 40.529 50.4517" fill="#035126"/>
<path d="M44.0351 54.7721C43.4029 56.0069 42.4945 56.8387 41.3704 56.8784C41.1465 56.8863 40.9748 56.7454 40.7613 56.7335C40.6525 56.7414 40.5227 56.8148 40.4013 56.8625C40.3364 56.8863 40.2715 56.9042 40.2129 56.9022C39.0512 56.8426 38.0611 56.0684 37.3934 54.7721C36.464 52.9556 36.7508 51.0062 38.0339 50.4126C38.216 50.3273 38.3897 50.2637 38.5593 50.2181C38.7665 50.1665 38.9717 50.1407 39.1977 50.1466C39.5933 50.1546 40.0455 50.2558 40.6546 50.4603C40.6734 50.4682 40.6964 50.4742 40.7174 50.4821C41.7598 50.0454 42.5908 50.0434 43.3987 50.4126C44.6819 51.0062 44.9665 52.9556 44.0372 54.7721H44.0351Z" fill="#E8505B"/>
<g opacity="0.5">
<path d="M44.0351 54.7677C43.4029 56.0025 42.4945 56.8343 41.3704 56.874C41.1465 56.8819 40.9748 56.741 40.7613 56.7291C40.6525 56.737 40.5227 56.8104 40.4013 56.8581C40.3364 56.8819 40.2715 56.8998 40.2129 56.8978C39.0512 56.8382 38.0611 56.064 37.3934 54.7677C36.464 52.9513 36.7508 51.0018 38.0339 50.4082C38.216 50.3229 38.3897 50.2593 38.5593 50.2137C38.7665 50.1621 38.9717 50.1363 39.1977 50.1422C39.5933 50.1502 40.0455 50.2514 40.6546 50.4559C40.6734 50.4638 40.6964 50.4698 40.7174 50.4777C41.7598 50.041 42.5908 50.039 43.3987 50.4082C44.6819 51.0018 44.9665 52.9513 44.0372 54.7677H44.0351Z" fill="black"/>
</g>
<path d="M44.0139 52.928C44.0139 52.928 44.0872 52.797 44.1207 52.5627C44.1542 52.3305 44.1374 51.995 44.0056 51.6555C43.8716 51.316 43.656 51.05 43.4697 50.8952C43.2834 50.7384 43.1432 50.6768 43.139 50.6828C43.1306 50.6947 43.2583 50.7741 43.4258 50.9369C43.5953 51.0997 43.7942 51.3577 43.9218 51.6833C44.0474 52.0108 44.0746 52.3285 44.0579 52.5568C44.0412 52.7851 43.9993 52.924 44.0139 52.928Z" fill="#FAFAFA"/>
<path d="M43.7764 53.7954C43.7996 53.8014 43.8418 53.7139 43.8693 53.6046C43.8967 53.4932 43.8989 53.3998 43.8756 53.3938C43.8524 53.3879 43.8102 53.4754 43.7827 53.5847C43.7553 53.696 43.7532 53.7895 43.7764 53.7954Z" fill="#FAFAFA"/>
<path d="M34.957 51.862C34.8566 51.2446 35.0261 50.5915 35.4175 50.0892C35.809 49.587 36.416 49.2415 37.067 49.1502C37.1277 49.1423 37.1946 49.1363 37.247 49.1701C37.3181 49.2177 37.3223 49.317 37.314 49.3984C37.2553 49.9979 36.9916 50.5756 36.5709 51.0262C36.1522 51.4768 35.5787 51.7984 34.9591 51.9295" fill="#035126"/>
<path d="M38.4673 56.2426C37.8352 57.4773 36.9267 58.3091 35.8027 58.3488C35.5787 58.3568 35.4071 58.2158 35.1936 58.2039C35.0847 58.2119 34.955 58.2853 34.8335 58.3329C34.7687 58.3568 34.7038 58.3746 34.6452 58.3726C33.4834 58.3131 32.4934 57.5389 31.8256 56.2426C30.8963 54.4261 31.183 52.4767 32.4662 51.8831C32.6483 51.7977 32.822 51.7342 32.9915 51.6885C33.1988 51.6369 33.4039 51.6111 33.63 51.6171C34.0256 51.625 34.4777 51.7263 35.0868 51.9307C35.1057 51.9387 35.1287 51.9446 35.1496 51.9526C36.192 51.5158 37.023 51.5138 37.831 51.8831C39.1141 52.4767 39.3988 54.4261 38.4694 56.2426H38.4673Z" fill="#E8505B"/>
<path d="M38.4445 54.4126C38.4445 54.4126 38.5177 54.2816 38.5512 54.0474C38.5847 53.8151 38.568 53.4796 38.4361 53.1401C38.3021 52.8007 38.0865 52.5346 37.9002 52.3798C37.7139 52.223 37.5737 52.1614 37.5695 52.1674C37.5611 52.1793 37.6888 52.2587 37.8563 52.4215C38.0258 52.5843 38.2247 52.8423 38.3524 53.1679C38.4779 53.4955 38.5052 53.8131 38.4884 54.0414C38.4717 54.2697 38.4298 54.4087 38.4445 54.4126Z" fill="#FAFAFA"/>
<path d="M38.2069 55.2774C38.2302 55.2833 38.2724 55.1959 38.2998 55.0865C38.3273 54.9752 38.3294 54.8817 38.3062 54.8758C38.2829 54.8698 38.2407 54.9573 38.2133 55.0666C38.1858 55.178 38.1837 55.2714 38.2069 55.2774Z" fill="#FAFAFA"/>
<path d="M32.3093 48.8934C32.303 48.9092 32.55 48.9966 32.91 49.2011C33.0921 49.3023 33.2951 49.4393 33.5107 49.606C33.7222 49.7768 33.9398 49.9793 34.145 50.2135C34.3459 50.4497 34.5134 50.6939 34.6473 50.9242C34.7771 51.1565 34.8797 51.3748 34.9488 51.5634C35.089 51.9406 35.1309 52.1868 35.1476 52.1828C35.1539 52.1828 35.1476 52.1193 35.1288 52.0081C35.1204 51.9525 35.1078 51.883 35.0848 51.8056C35.0639 51.7282 35.045 51.6389 35.0074 51.5436C34.9446 51.349 34.8483 51.1267 34.7185 50.8865C34.5845 50.6502 34.4171 50.4001 34.212 50.1599C34.0047 49.9217 33.7787 49.7172 33.561 49.5465C33.3391 49.3797 33.1277 49.2447 32.9393 49.1495C32.8472 49.0978 32.7593 49.0621 32.6818 49.0264C32.6065 48.9906 32.5374 48.9648 32.4809 48.947C32.37 48.9073 32.3072 48.8894 32.3051 48.8934H32.3093Z" fill="#035126"/>
<path d="M43.1687 54.5114C43.0683 53.894 43.2378 53.2409 43.6292 52.7386C44.0207 52.2364 44.6277 51.8909 45.2787 51.7996C45.3394 51.7917 45.4063 51.7857 45.4587 51.8195C45.5298 51.8671 45.534 51.9664 45.5257 52.0478C45.467 52.6473 45.2033 53.225 44.7826 53.6756C44.3639 54.1263 43.7904 54.4479 43.1708 54.5789" fill="#035126"/>
<path d="M46.6769 58.8927C46.0447 60.1275 45.1363 60.9593 44.0123 60.999C43.7883 61.0069 43.6166 60.866 43.4031 60.8541C43.2943 60.862 43.1645 60.9355 43.0431 60.9831C42.9782 61.0069 42.9133 61.0248 42.8547 61.0228C41.693 60.9632 40.7029 60.189 40.0352 58.8927C39.1058 57.0763 39.3926 55.1268 40.6757 54.5332C40.8578 54.4479 41.0316 54.3843 41.2011 54.3387C41.4083 54.2871 41.6135 54.2613 41.8395 54.2672C42.2351 54.2752 42.6873 54.3764 43.2964 54.5809C43.3152 54.5888 43.3383 54.5948 43.3592 54.6027C44.4016 54.166 45.2326 54.164 46.0406 54.5332C47.3237 55.1268 47.6083 57.0763 46.679 58.8927H46.6769Z" fill="#E8505B"/>
<path d="M46.656 57.0623C46.656 57.0623 46.7293 56.9313 46.7628 56.697C46.7962 56.4647 46.7795 56.1292 46.6476 55.7898C46.5137 55.4503 46.2981 55.1843 46.1118 55.0295C45.9255 54.8726 45.7852 54.8111 45.7811 54.817C45.7727 54.829 45.9004 54.9084 46.0678 55.0711C46.2374 55.2339 46.4362 55.492 46.5639 55.8176C46.6895 56.1451 46.7167 56.4628 46.7 56.6911C46.6832 56.9194 46.6414 57.0583 46.656 57.0623Z" fill="#FAFAFA"/>
<path d="M46.4183 57.9273C46.4415 57.9332 46.4838 57.8458 46.5112 57.7364C46.5387 57.6251 46.5408 57.5316 46.5176 57.5257C46.4943 57.5197 46.4521 57.6072 46.4247 57.7165C46.3972 57.8279 46.3951 57.9213 46.4183 57.9273Z" fill="#FAFAFA"/>
<path d="M40.5188 51.543C40.5125 51.5589 40.7595 51.6462 41.1195 51.8507C41.3016 51.952 41.5047 52.0889 41.7203 52.2557C41.9317 52.4264 42.1494 52.6289 42.3545 52.8632C42.5555 53.0994 42.7229 53.3436 42.8569 53.5739C42.9866 53.8061 43.0892 54.0245 43.1583 54.2131C43.2985 54.5903 43.3404 54.8364 43.3571 54.8325C43.3634 54.8325 43.3571 54.7689 43.3383 54.6578C43.3299 54.6022 43.3174 54.5327 43.2943 54.4553C43.2734 54.3779 43.2546 54.2885 43.2169 54.1932C43.1541 53.9987 43.0578 53.7764 42.928 53.5361C42.7941 53.2999 42.6266 53.0498 42.4215 52.8096C42.2143 52.5713 41.9882 52.3649 41.7705 52.1961C41.5486 52.0294 41.3372 51.8944 41.1488 51.7991C41.0567 51.7475 40.9688 51.7118 40.8914 51.676C40.816 51.6403 40.7469 51.6145 40.6904 51.5966C40.5795 51.5569 40.5167 51.5391 40.5146 51.543H40.5188Z" fill="#035126"/>
<path d="M41.9608 60.2572C41.3286 61.492 40.4202 62.3238 39.2962 62.3635C39.0722 62.3714 38.9005 62.2305 38.687 62.2186C38.5782 62.2265 38.4484 62.3 38.327 62.3476C38.2621 62.3714 38.1972 62.3893 38.1386 62.3873C36.9769 62.3277 35.9868 61.5535 35.3191 60.2572C34.3897 58.4408 34.6765 56.4913 35.9596 55.8977C36.1417 55.8124 36.3155 55.7489 36.485 55.7032C36.6922 55.6516 36.8974 55.6258 37.1234 55.6317C37.519 55.6397 37.9712 55.7409 38.5803 55.9454C38.5991 55.9533 38.6222 55.9593 38.6431 55.9672C39.6855 55.5305 40.5165 55.5285 41.3245 55.8977C42.6076 56.4913 42.8922 58.4408 41.9629 60.2572H41.9608Z" fill="#E8505B"/>
<g opacity="0.3">
<path d="M41.9609 60.2572C41.3287 61.492 40.4203 62.3238 39.2963 62.3635C39.0723 62.3714 38.9006 62.2305 38.6871 62.2186C38.5783 62.2265 38.4485 62.3 38.3271 62.3476C38.2622 62.3714 38.1973 62.3893 38.1387 62.3873C36.977 62.3277 35.9869 61.5535 35.3192 60.2572C34.3898 58.4408 34.6766 56.4913 35.9597 55.8977C36.1418 55.8124 36.3156 55.7489 36.4851 55.7032C36.6923 55.6516 36.8975 55.6258 37.1235 55.6317C37.5191 55.6397 37.9713 55.7409 38.5804 55.9454C38.5992 55.9533 38.6222 55.9593 38.6432 55.9672C39.6856 55.5305 40.5166 55.5285 41.3245 55.8977C42.6077 56.4913 42.8923 58.4408 41.963 60.2572H41.9609Z" fill="black"/>
</g>
<path d="M41.9378 58.4226C41.9378 58.4226 42.011 58.2916 42.0445 58.0574C42.078 57.8251 42.0613 57.4896 41.9294 57.1501C41.7954 56.8107 41.5798 56.5447 41.3935 56.3898C41.2073 56.233 41.067 56.1714 41.0628 56.1774C41.0544 56.1893 41.1821 56.2687 41.3496 56.4315C41.5191 56.5943 41.718 56.8524 41.8457 57.1779C41.9713 57.5055 41.9985 57.8231 41.9817 58.0514C41.965 58.2797 41.9231 58.4187 41.9378 58.4226Z" fill="#FAFAFA"/>
<path d="M41.7004 59.2871C41.7237 59.2931 41.7659 59.2056 41.7933 59.0963C41.8208 58.9849 41.8229 58.8915 41.7997 58.8855C41.7764 58.8796 41.7342 58.9671 41.7068 59.0764C41.6793 59.1877 41.6772 59.2812 41.7004 59.2871Z" fill="#FAFAFA"/>
<path d="M31.5723 57.4087C30.9339 58.6415 30.0171 59.4713 28.8805 59.511C28.6523 59.519 28.4807 59.378 28.2651 59.3661C28.1541 59.374 28.0244 59.4475 27.9009 59.4951C27.8339 59.519 27.769 59.5368 27.7104 59.5348C26.5361 59.4753 25.5356 58.703 24.8616 57.4087C23.9217 55.5962 24.2127 53.6508 25.5084 53.0592C25.6926 52.9738 25.8663 52.9103 26.0379 52.8646C26.2473 52.813 26.4545 52.7872 26.6826 52.7932C27.0824 52.8011 27.5387 52.9023 28.1541 53.1048C28.1751 53.1128 28.196 53.1187 28.2169 53.1267C29.2698 52.6919 30.1113 52.6879 30.9255 53.0572C32.2212 53.6488 32.508 55.5942 31.5702 57.4067L31.5723 57.4087Z" fill="#E8505B"/>
<g opacity="0.5">
<path d="M31.5724 57.4087C30.934 58.6415 30.0171 59.4713 28.8805 59.511C28.6524 59.519 28.4807 59.378 28.2651 59.3661C28.1542 59.374 28.0244 59.4475 27.9009 59.4951C27.8339 59.519 27.7691 59.5368 27.7104 59.5348C26.5362 59.4753 25.5356 58.703 24.8616 57.4087C23.9218 55.5962 24.2127 53.6508 25.5084 53.0592C25.6926 52.9738 25.8664 52.9103 26.038 52.8646C26.2473 52.813 26.4545 52.7872 26.6827 52.7932C27.0825 52.8011 27.5388 52.9023 28.1542 53.1048C28.1751 53.1128 28.1961 53.1187 28.217 53.1267C29.2699 52.6919 30.1113 52.6879 30.9256 53.0572C32.2213 53.6488 32.508 55.5942 31.5703 57.4067L31.5724 57.4087Z" fill="black"/>
</g>
<path d="M31.5492 55.5795C31.5492 55.5795 31.6246 55.4485 31.656 55.2162C31.6895 54.984 31.6727 54.6505 31.5388 54.311C31.4048 53.9715 31.185 53.7075 30.9987 53.5527C30.8103 53.3958 30.668 53.3343 30.6638 53.3422C30.6554 53.3541 30.7852 53.4335 30.9548 53.5963C31.1243 53.7591 31.3253 54.0172 31.455 54.3428C31.5827 54.6683 31.6099 54.9879 31.5932 55.2143C31.5765 55.4426 31.5325 55.5795 31.5492 55.5835V55.5795Z" fill="#FAFAFA"/>
<path d="M31.3098 56.4358C31.3352 56.4418 31.3753 56.3563 31.4027 56.245C31.4302 56.1336 31.4323 56.0402 31.4091 56.0342C31.3858 56.0283 31.3436 56.1138 31.3162 56.2251C31.2887 56.3364 31.2866 56.4299 31.3098 56.4358Z" fill="#FAFAFA"/>
<path d="M33.5961 56.5951C33.4956 55.9777 33.6651 55.3246 34.0566 54.8224C34.448 54.3201 35.055 53.9747 35.706 53.8834C35.7667 53.8754 35.8337 53.8695 35.886 53.9032C35.9572 53.9509 35.9614 54.0501 35.953 54.1315C35.8944 54.731 35.6306 55.3087 35.2099 55.7594C34.7913 56.21 34.2177 56.5316 33.5982 56.6626" fill="#035126"/>
<path d="M37.1066 60.9759C36.4745 62.2107 35.566 63.0425 34.442 63.0822C34.218 63.0902 34.0464 62.9492 33.8329 62.9373C33.724 62.9452 33.5942 63.0187 33.4728 63.0663C33.4079 63.0902 33.3431 63.108 33.2844 63.106C32.1227 63.0465 31.1327 62.2723 30.4649 60.9759C29.5356 59.1595 29.8223 57.2101 31.1054 56.6165C31.2875 56.5311 31.4613 56.4676 31.6308 56.4219C31.8381 56.3703 32.0432 56.3445 32.2692 56.3505C32.6649 56.3584 33.117 56.4597 33.7261 56.6641C33.7449 56.6721 33.768 56.678 33.7889 56.686C34.8313 56.2492 35.6623 56.2472 36.4703 56.6165C37.7534 57.2101 38.0381 59.1595 37.1087 60.9759H37.1066Z" fill="#E8505B"/>
<path d="M37.0837 59.1482C37.0837 59.1482 37.1569 59.0172 37.1904 58.7829C37.2239 58.5507 37.2072 58.2152 37.0753 57.8757C36.9413 57.5363 36.7257 57.2702 36.5394 57.1154C36.3532 56.9586 36.2129 56.897 36.2087 56.903C36.2004 56.9149 36.328 56.9943 36.4955 57.1571C36.665 57.3199 36.8639 57.5779 36.9916 57.9035C37.1172 58.2311 37.1444 58.5487 37.1276 58.777C37.1109 59.0053 37.069 59.1442 37.0837 59.1482Z" fill="#FAFAFA"/>
<path d="M36.846 60.0086C36.8692 60.0145 36.9114 59.9271 36.9389 59.8177C36.9663 59.7064 36.9684 59.6129 36.9452 59.607C36.922 59.601 36.8797 59.6885 36.8523 59.7978C36.8248 59.9092 36.8227 60.0026 36.846 60.0086Z" fill="#FAFAFA"/>
<path d="M30.9485 53.6265C30.9422 53.6424 31.1892 53.7297 31.5492 53.9342C31.7313 54.0355 31.9344 54.1724 32.15 54.3392C32.3614 54.5099 32.5791 54.7124 32.7842 54.9467C32.9851 55.1829 33.1526 55.4271 33.2866 55.6574C33.4163 55.8896 33.5189 56.108 33.588 56.2966C33.7282 56.6738 33.7701 56.9199 33.7868 56.916C33.7931 56.916 33.7868 56.8524 33.768 56.7413C33.7596 56.6857 33.7471 56.6162 33.724 56.5388C33.7031 56.4614 33.6843 56.372 33.6466 56.2767C33.5838 56.0822 33.4875 55.8598 33.3577 55.6196C33.2238 55.3834 33.0563 55.1333 32.8512 54.8931C32.644 54.6548 32.4179 54.4484 32.2002 54.2796C31.9783 54.1129 31.7669 53.9779 31.5785 53.8826C31.4864 53.831 31.3985 53.7953 31.3211 53.7595C31.2457 53.7238 31.1766 53.698 31.1201 53.6801C31.0092 53.6404 30.9464 53.6225 30.9443 53.6265H30.9485Z" fill="#035126"/>
<path d="M26.2494 58.6268C25.6172 59.8616 24.7088 60.6934 23.5848 60.7331C23.3608 60.741 23.1892 60.6001 22.9756 60.5882C22.8668 60.5961 22.737 60.6696 22.6156 60.7172C22.5507 60.741 22.4858 60.7589 22.4272 60.7569C21.2655 60.6974 20.2754 59.9231 19.6077 58.6268C18.6783 56.8104 18.9651 54.8609 20.2482 54.2674C20.4303 54.182 20.6041 54.1185 20.7736 54.0728C20.9808 54.0212 21.186 53.9954 21.412 54.0014C21.8077 54.0093 22.2598 54.1105 22.8689 54.315C22.8877 54.3229 22.9108 54.3289 22.9317 54.3368C23.9741 53.9001 24.8051 53.8981 25.6131 54.2674C26.8962 54.8609 27.1809 56.8104 26.2494 58.6268Z" fill="#E8505B"/>
<path d="M26.226 56.7901C26.226 56.7901 26.2993 56.659 26.3328 56.4248C26.3663 56.1925 26.3495 55.857 26.2176 55.5176C26.0837 55.1781 25.8681 54.9121 25.6818 54.7572C25.4955 54.6004 25.3552 54.5389 25.3511 54.5448C25.3427 54.5567 25.4704 54.6361 25.6378 54.7989C25.8074 54.9617 26.0062 55.2198 26.1339 55.5454C26.2595 55.8729 26.2867 56.1905 26.27 56.4188C26.2532 56.6471 26.2114 56.7861 26.226 56.7901Z" fill="#FAFAFA"/>
<path d="M25.9908 57.6548C26.014 57.6608 26.0563 57.5733 26.0837 57.464C26.1112 57.3526 26.1133 57.2592 26.09 57.2532C26.0668 57.2473 26.0246 57.3347 25.9971 57.4441C25.9697 57.5554 25.9676 57.6488 25.9908 57.6548Z" fill="#FAFAFA"/>
<path d="M18.368 54.8356C18.2675 54.2182 18.4371 53.5651 18.8285 53.0628C19.2199 52.5606 19.8269 52.2152 20.4779 52.1238C20.5386 52.1159 20.6056 52.1099 20.6579 52.1437C20.7291 52.1913 20.7333 52.2906 20.7249 52.372C20.6663 52.9715 20.4026 53.5492 19.9818 53.9998C19.5632 54.4505 18.9897 54.7721 18.3701 54.9031" fill="#035126"/>
<path d="M21.8788 59.2162C21.2466 60.451 20.3382 61.2828 19.2141 61.3225C18.9902 61.3304 18.8185 61.1895 18.605 61.1775C18.4962 61.1855 18.3664 61.2589 18.245 61.3066C18.1801 61.3304 18.1152 61.3483 18.0566 61.3463C16.8949 61.2867 15.9048 60.5125 15.2371 59.2162C14.3077 57.3997 14.5945 55.4503 15.8776 54.8567C16.0597 54.7714 16.2334 54.7078 16.403 54.6622C16.6102 54.6106 16.8153 54.5848 17.0414 54.5907C17.437 54.5986 17.8891 54.6999 18.4983 54.9044C18.5171 54.9123 18.5401 54.9183 18.5611 54.9262C19.6035 54.4895 20.4345 54.4875 21.2424 54.8567C22.5255 55.4503 22.8102 57.3997 21.8808 59.2162H21.8788Z" fill="#E8505B"/>
<g opacity="0.3">
<path d="M21.8787 59.2235C21.2466 60.4583 20.3381 61.2901 19.2141 61.3298C18.9901 61.3377 18.8185 61.1968 18.605 61.1849C18.4961 61.1928 18.3663 61.2663 18.2449 61.3139C18.18 61.3377 18.1151 61.3556 18.0565 61.3536C16.8948 61.2941 15.9047 60.5198 15.237 59.2235C14.3076 57.4071 14.5944 55.4576 15.8775 54.864C16.0596 54.7787 16.2334 54.7152 16.4029 54.6695C16.6101 54.6179 16.8153 54.5921 17.0413 54.598C17.437 54.606 17.8891 54.7072 18.4982 54.9117C18.517 54.9196 18.5401 54.9256 18.561 54.9335C19.6034 54.4968 20.4344 54.4948 21.2424 54.864C22.5255 55.4576 22.8102 57.4071 21.8808 59.2235H21.8787Z" fill="black"/>
</g>
<path d="M21.8552 57.3867C21.8552 57.3867 21.9285 57.2557 21.962 57.0215C21.9955 56.7892 21.9787 56.4537 21.8468 56.1142C21.7129 55.7748 21.4973 55.5088 21.311 55.3539C21.1247 55.1971 20.9845 55.1355 20.9803 55.1415C20.9719 55.1534 21.0996 55.2328 21.267 55.3956C21.4366 55.5584 21.6354 55.8165 21.7631 56.142C21.8887 56.4696 21.9159 56.7872 21.8992 57.0155C21.8824 57.2438 21.8406 57.3828 21.8552 57.3867Z" fill="#FAFAFA"/>
<path d="M21.6179 58.2512C21.6411 58.2572 21.6833 58.1697 21.7108 58.0604C21.7382 57.9491 21.7404 57.8556 21.7171 57.8497C21.6939 57.8437 21.6517 57.9312 21.6242 58.0405C21.5968 58.1518 21.5946 58.2453 21.6179 58.2512Z" fill="#FAFAFA"/>
<path d="M15.7182 51.867C15.7119 51.8829 15.9589 51.9702 16.3189 52.1747C16.501 52.2759 16.7041 52.4129 16.9197 52.5797C17.1311 52.7504 17.3488 52.9529 17.5539 53.1871C17.7549 53.4234 17.9223 53.6676 18.0563 53.8978C18.1861 54.1301 18.2886 54.3485 18.3577 54.5371C18.4979 54.9142 18.5398 55.1604 18.5565 55.1564C18.5628 55.1564 18.5565 55.0929 18.5377 54.9817C18.5293 54.9262 18.5168 54.8567 18.4937 54.7793C18.4728 54.7018 18.454 54.6125 18.4163 54.5172C18.3535 54.3227 18.2572 54.1003 18.1274 53.8601C17.9935 53.6239 17.826 53.3738 17.6209 53.1335C17.4137 52.8953 17.1876 52.6889 16.9699 52.5201C16.748 52.3534 16.5366 52.2184 16.3482 52.1231C16.2561 52.0715 16.1682 52.0357 16.0908 52C16.0154 51.9643 15.9463 51.9385 15.8898 51.9206C15.7789 51.8809 15.7161 51.863 15.714 51.867H15.7182Z" fill="#455A64"/>
<path d="M28.9415 57.3168C28.8411 56.6994 29.0106 56.0463 29.402 55.544C29.7935 55.0418 30.4005 54.6964 31.0515 54.605C31.1122 54.5971 31.1791 54.5911 31.2315 54.6249C31.3026 54.6725 31.3068 54.7718 31.2985 54.8532C31.2398 55.4527 30.9761 56.0304 30.5554 56.481C30.1367 56.9317 29.5632 57.2533 28.9436 57.3843" fill="#035126"/>
<path d="M32.4518 61.6974C31.8197 62.9322 30.9112 63.764 29.7872 63.8037C29.5632 63.8116 29.3916 63.6707 29.1781 63.6587C29.0692 63.6667 28.9394 63.7401 28.818 63.7878C28.7532 63.8116 28.6883 63.8295 28.6297 63.8275C27.4679 63.7679 26.4779 62.9937 25.8101 61.6974C24.8808 59.8809 25.1675 57.9315 26.4507 57.3379C26.6328 57.2526 26.8065 57.189 26.976 57.1434C27.1833 57.0918 27.3884 57.066 27.6145 57.0719C28.0101 57.0798 28.4622 57.1811 29.0713 57.3856C29.0902 57.3935 29.1132 57.3995 29.1341 57.4074C30.1765 56.9707 31.0075 56.9687 31.8155 57.3379C33.0986 57.9315 33.3833 59.8809 32.4539 61.6974H32.4518Z" fill="#E8505B"/>
<g opacity="0.3">
<path d="M32.4517 61.7067C31.8195 62.9414 30.9111 63.7732 29.7871 63.8129C29.5631 63.8209 29.3915 63.6799 29.1779 63.668C29.0691 63.676 28.9393 63.7494 28.8179 63.7971C28.753 63.8209 28.6881 63.8387 28.6295 63.8368C27.4678 63.7772 26.4777 63.003 25.81 61.7067C24.8806 59.8902 25.1674 57.9408 26.4505 57.3472C26.6326 57.2618 26.8064 57.1983 26.9759 57.1527C27.1831 57.101 27.3883 57.0752 27.6143 57.0812C28.01 57.0891 28.4621 57.1904 29.0712 57.3948C29.09 57.4028 29.1131 57.4087 29.134 57.4167C30.1764 56.9799 31.0074 56.978 31.8154 57.3472C33.0985 57.9408 33.3832 59.8902 32.4538 61.7067H32.4517Z" fill="black"/>
</g>
<path d="M32.4288 59.8699C32.4288 59.8699 32.5021 59.7389 32.5356 59.5046C32.5691 59.2724 32.5523 58.9369 32.4205 58.5974C32.2865 58.2579 32.0709 57.9919 31.8846 57.8371C31.6983 57.6802 31.5581 57.6187 31.5539 57.6247C31.5455 57.6366 31.6732 57.716 31.8406 57.8788C32.0102 58.0415 32.209 58.2996 32.3367 58.6252C32.4623 58.9527 32.4895 59.2704 32.4728 59.4987C32.456 59.727 32.4142 59.8659 32.4288 59.8699Z" fill="#FAFAFA"/>
<path d="M32.1914 60.7317C32.2146 60.7377 32.2568 60.6502 32.2843 60.5409C32.3117 60.4295 32.3138 60.3361 32.2906 60.3301C32.2674 60.3242 32.2251 60.4116 32.1977 60.521C32.1702 60.6323 32.1681 60.7258 32.1914 60.7317Z" fill="#FAFAFA"/>
<path d="M26.2916 54.3475C26.2853 54.3633 26.5323 54.4507 26.8924 54.6552C27.0745 54.7564 27.2775 54.8934 27.4931 55.0601C27.7045 55.2309 27.9222 55.4334 28.1273 55.6676C28.3283 55.9038 28.4957 56.148 28.6297 56.3783C28.7595 56.6106 28.862 56.8289 28.9311 57.0175C29.0714 57.3947 29.1132 57.6409 29.13 57.6369C29.1362 57.6369 29.13 57.5734 29.1111 57.4622C29.1028 57.4066 29.0902 57.3372 29.0672 57.2597C29.0462 57.1823 29.0274 57.093 28.9897 56.9977C28.9269 56.8031 28.8306 56.5808 28.7009 56.3406C28.5669 56.1044 28.3994 55.8542 28.1943 55.614C27.9871 55.3758 27.761 55.1693 27.5433 55.0006C27.3215 54.8338 27.11 54.6988 26.9217 54.6036C26.8296 54.5519 26.7416 54.5162 26.6642 54.4805C26.5888 54.4447 26.5198 54.4189 26.4633 54.4011C26.3523 54.3614 26.2895 54.3435 26.2874 54.3475H26.2916Z" fill="#035126"/>
<path d="M52.3659 53.3018V63.6982C52.3659 63.6982 28.4199 70.0865 28.2796 69.9971C28.1394 69.9078 28.2796 59.4399 28.2796 59.4399L33.7952 58.5129L33.8936 62.2788L46.4736 58.9972L46.5196 55.1817L52.3659 53.3018Z" fill="#B27F62"/>
<path d="M13.8287 55.5333C13.8287 55.5333 13.8768 55.5531 13.9731 55.5809C14.0799 55.6107 14.2201 55.6484 14.3939 55.6961C14.7706 55.7973 15.2981 55.9402 15.9428 56.113C17.251 56.4663 19.0512 56.9725 21.0397 57.5324C23.0282 58.0942 24.8346 58.5885 26.1471 58.924C26.8043 59.0927 27.336 59.2237 27.7044 59.3111C27.8802 59.3508 28.0226 59.3845 28.1293 59.4084C28.2277 59.4302 28.2779 59.4381 28.28 59.4361C28.28 59.4322 28.2319 59.4163 28.1356 59.3885C28.0288 59.3587 27.8886 59.321 27.7149 59.2734C27.3381 59.1721 26.8106 59.0292 26.1659 58.8565C24.8577 58.5031 23.0575 57.9969 21.069 57.4351C19.0805 56.8733 17.2762 56.379 15.9616 56.0435C15.3044 55.8747 14.7727 55.7437 14.4043 55.6564C14.2285 55.6167 14.0862 55.5829 13.9794 55.5591C13.881 55.5373 13.8308 55.5293 13.8287 55.5313V55.5333Z" fill="#455A64"/>
<path d="M14.2264 65.2697L28.28 70.0004V59.5027L13.8287 55.5383L14.2264 65.2697Z" fill="#93502E"/>
<path d="M8.79666 42.3278L6.56323 51.0646L14.7099 58.9994L13.1777 62.9976C13.1777 62.9976 0.865586 56.2817 0.321359 54.3183C-0.222868 52.355 0.089016 50.6497 0.089016 50.6497L1.01839 41.4087L8.79456 42.3298L8.79666 42.3278Z" fill="#DE9D8A"/>
<path d="M13.5124 57.8328L15.0048 59.1509L17.7448 59.139L18.6658 58.6864H22.2012C22.2012 58.6864 22.557 59.1648 21.9626 59.5599C21.3681 59.9549 20.9285 60.1177 20.0913 60.2924C19.6245 60.3897 18.9023 60.5743 18.9023 60.5743L19.2435 61.9441L21.4246 66.1983C21.4246 66.1983 22.8459 68.1776 22.9338 68.2053C23.0217 68.2331 24.3362 68.6778 24.3362 68.6778C24.3362 68.6778 23.5932 69.6724 22.8815 69.4759C22.1677 69.2793 21.9312 68.9974 21.9312 68.9974C21.9312 68.9974 20.8616 69.3349 20.3571 68.9696C19.8526 68.6044 19.6747 68.4336 19.6747 68.4336C19.6747 68.4336 19.0803 68.66 18.5758 68.4059C18.0713 68.1517 16.4973 67.1671 16.4973 67.1671L15.2832 64.4871L12.7735 62.7739" fill="#DE9D8A"/>
<path d="M18.7731 65.6389C18.7627 65.6469 18.9113 65.8573 19.175 66.1848C19.4367 66.5124 19.8155 66.9531 20.2551 67.4196C20.6968 67.8861 21.1154 68.2931 21.4294 68.577C21.7433 68.8609 21.9464 69.0256 21.9569 69.0157C21.9673 69.0058 21.7831 68.8212 21.4838 68.5254C21.1866 68.2296 20.7763 67.8167 20.3367 67.3521C19.8972 66.8856 19.512 66.4548 19.2357 66.1412C18.9594 65.8275 18.7878 65.633 18.7752 65.6409L18.7731 65.6389Z" fill="#723C31"/>
<path d="M17.8918 66.351C17.8792 66.359 17.9734 66.4999 18.1409 66.7143C18.3083 66.9287 18.549 67.2186 18.8316 67.5263C19.2879 68.0246 19.7087 68.4136 19.8615 68.5288L19.8656 68.5328C19.9117 68.5387 19.9243 68.505 19.9243 68.4911C19.9243 68.4752 19.9159 68.4692 19.9138 68.4712C19.9117 68.4712 19.9138 68.4792 19.9075 68.4871C19.9054 68.495 19.8866 68.5089 19.8761 68.503L19.8824 68.507C19.7631 68.362 19.3654 67.9531 18.9112 67.4588C18.3481 66.8473 17.9148 66.3332 17.8897 66.351H17.8918Z" fill="#723C31"/>
<path d="M17.3349 67.1453C17.3139 67.1612 17.6468 67.5783 18.1868 67.9676C18.7227 68.3588 19.2355 68.5574 19.246 68.5336C19.2606 68.5058 18.7792 68.2695 18.2538 67.8861C17.7263 67.5048 17.36 67.1254 17.337 67.1453H17.3349Z" fill="#723C31"/>
<path d="M18.9508 61.9383C18.9801 61.9225 18.794 61.6126 18.725 61.1856C18.6518 60.7605 18.7271 60.409 18.6957 60.403C18.6706 60.3931 18.5409 60.7506 18.6183 61.2015C18.6915 61.6523 18.932 61.9562 18.9508 61.9383Z" fill="#723C31"/>
<path d="M15.4673 21.1533L18.3266 26.0488L22.3392 30.0132L24.8155 26.9262L24.8971 23.7678L24.9662 21.1176C24.9662 21.1176 28.6858 20.7067 28.8741 17.2028C28.9641 15.5095 28.8532 12.0116 28.7109 8.8452C28.5602 5.44061 25.6778 2.71694 22.0859 2.58592L21.7301 2.57202C17.8745 2.64547 15.7876 5.79199 15.9697 9.44472L15.4652 21.1513" fill="#DE9D8A"/>
<path d="M24.9725 21.1083C24.9725 21.1083 22.6282 21.2036 20.2043 19.6333C20.2043 19.6333 21.2404 22.1982 24.9432 22.0175L24.9704 21.1083H24.9725Z" fill="#723C31"/>
<path d="M27.2753 10.8253C27.2753 11.0894 27.0366 11.3079 26.7457 11.3119C26.4547 11.3159 26.2182 11.1053 26.2203 10.8412C26.2203 10.577 26.4589 10.3585 26.7499 10.3545C27.0408 10.3506 27.2773 10.5611 27.2773 10.8273L27.2753 10.8253Z" fill="#263238"/>
<path d="M27.9116 10.3468C27.8426 10.4103 27.4553 10.1144 26.886 10.0945C26.3187 10.0667 25.8896 10.3289 25.831 10.2614C25.8017 10.2316 25.8729 10.1164 26.0592 9.9972C26.2434 9.87803 26.5532 9.76879 26.9069 9.78269C27.2607 9.7966 27.5537 9.93166 27.7191 10.0647C27.8886 10.1978 27.943 10.319 27.9096 10.3468H27.9116Z" fill="#263238"/>
<path d="M21.7448 10.8253C21.7448 11.0894 21.5062 11.3079 21.2152 11.3119C20.9243 11.3159 20.6877 11.1053 20.6898 10.8412C20.6898 10.577 20.9285 10.3585 21.2194 10.3545C21.5104 10.3506 21.7469 10.5611 21.7469 10.8273L21.7448 10.8253Z" fill="#263238"/>
<path d="M22.2561 9.98979C22.1954 10.0593 21.7747 9.80508 21.2074 9.8448C20.6402 9.87658 20.2445 10.1805 20.1776 10.1189C20.1462 10.0911 20.2027 9.96993 20.3743 9.83288C20.5439 9.69584 20.839 9.55482 21.1928 9.53297C21.5465 9.51112 21.8521 9.6144 22.0321 9.7296C22.2163 9.8448 22.2833 9.95801 22.254 9.98979H22.2561Z" fill="#263238"/>
<path d="M24.1605 14.4867C24.1605 14.457 24.5142 14.4113 25.0898 14.3617C25.2364 14.3537 25.3745 14.3299 25.4017 14.2366C25.4394 14.1393 25.385 13.9885 25.3222 13.8257C25.1987 13.4882 25.071 13.1328 24.9349 12.7616C24.3991 11.2489 24.0181 10.0062 24.083 9.98632C24.1479 9.96647 24.6335 11.1774 25.1694 12.6901C25.2971 13.0634 25.4206 13.4187 25.5378 13.7582C25.5859 13.917 25.6738 14.0976 25.5922 14.3001C25.5482 14.4014 25.4394 14.4728 25.3452 14.4927C25.251 14.5165 25.1694 14.5145 25.0982 14.5165C24.5205 14.5245 24.1646 14.5145 24.1625 14.4828L24.1605 14.4867Z" fill="#263238"/>
<path d="M22.4734 14.8032C22.5655 14.8032 22.5425 15.3872 23.0553 15.8221C23.566 16.2571 24.2254 16.2154 24.2275 16.2988C24.2338 16.3366 24.0768 16.4081 23.7984 16.4041C23.5263 16.4041 23.1327 16.3048 22.8188 16.0406C22.5069 15.7745 22.3813 15.4289 22.3708 15.1885C22.3583 14.9423 22.4315 14.8012 22.4734 14.8052V14.8032Z" fill="#263238"/>
<path d="M22.4291 7.65818C22.3663 7.80317 21.8032 7.7118 21.1334 7.76543C20.4636 7.80515 19.9172 7.97001 19.8335 7.83495C19.7958 7.77139 19.8963 7.63633 20.1182 7.50127C20.3401 7.36819 20.6875 7.24505 21.0894 7.21725C21.4913 7.18944 21.8555 7.26491 22.0942 7.36621C22.3349 7.46949 22.4542 7.58866 22.427 7.65619L22.4291 7.65818Z" fill="#263238"/>
<path d="M27.8298 9.28089C27.7252 9.40006 27.3379 9.25904 26.8691 9.2352C26.4002 9.19747 25.9962 9.28486 25.9104 9.15377C25.8727 9.09021 25.9397 8.96906 26.1197 8.85982C26.2955 8.75058 26.5865 8.66716 26.9109 8.68702C27.2333 8.70887 27.5096 8.83002 27.6687 8.96111C27.8298 9.0922 27.8801 9.2213 27.8319 9.2789L27.8298 9.28089Z" fill="#263238"/>
<path d="M16.1688 12.0447C16.106 12.0169 13.657 11.2387 13.6403 13.6388C13.6235 16.0389 16.1688 15.5585 16.173 15.491C16.1772 15.4215 16.1688 12.0447 16.1688 12.0447Z" fill="#DE9D8A"/>
<path d="M15.4069 14.5742C15.3964 14.5662 15.363 14.604 15.2876 14.6357C15.2143 14.6675 15.0887 14.6873 14.959 14.6397C14.6931 14.5444 14.4692 14.1414 14.4608 13.7086C14.4566 13.4903 14.5048 13.2818 14.5885 13.1111C14.6659 12.9364 14.7873 12.8133 14.9213 12.7915C15.0553 12.7637 15.1495 12.8391 15.1809 12.9086C15.2143 12.9761 15.1976 13.0237 15.2122 13.0277C15.2185 13.0337 15.2667 12.988 15.2478 12.8888C15.2374 12.8411 15.2081 12.7835 15.1495 12.7379C15.0888 12.6902 15.0008 12.6664 14.9066 12.6744C14.712 12.6863 14.5341 12.855 14.4441 13.0436C14.3415 13.2322 14.2808 13.4664 14.2871 13.7106C14.2996 14.195 14.5571 14.6476 14.9234 14.7509C15.1013 14.7965 15.2499 14.7469 15.3274 14.6893C15.4069 14.6298 15.4195 14.5762 15.4111 14.5722L15.4069 14.5742Z" fill="#723C31"/>
<path d="M29.2889 4.76583C29.1968 4.29733 28.8514 3.84074 28.3595 3.7514C28.5856 3.31069 28.4495 2.73102 28.0476 2.42332C27.6457 2.11561 27.0178 2.11363 26.6117 2.41736C26.6724 1.68682 25.7493 1.06347 25.0418 1.35728C25.0858 0.934431 24.7906 0.501662 24.3657 0.366669C23.9408 0.231677 23.4301 0.410343 23.1977 0.773632C22.7037 -0.105804 21.228 -0.274544 20.5289 0.469899C19.5347 0.0907291 18.2683 0.567173 17.8183 1.4883C16.9914 1.50021 16.2002 2.04018 15.926 2.78065C15.3943 2.80249 14.8857 3.11019 14.6408 3.55686C14.3959 4.00551 14.421 4.57525 14.7057 5.00207C14.0547 5.27007 13.8831 6.22693 14.4043 6.68352C14.0233 6.84432 13.7554 7.22547 13.7449 7.62052C13.7345 8.01756 13.9835 8.40864 14.3561 8.58731C13.9814 8.61709 13.814 9.07765 13.9124 9.42108C14.0087 9.76452 14.2682 10.0484 14.4022 10.3799C14.5131 10.6539 14.5361 10.9517 14.6282 11.2316C14.802 11.7576 15.2353 12.1984 15.7732 12.4048C15.7502 12.4286 15.7272 12.4505 15.7041 12.4743C15.6246 12.78 16.0684 13.0063 16.3781 12.8971C16.6879 12.786 16.8742 12.4941 17.0605 12.2361C17.274 11.9383 17.5231 11.6524 17.6299 11.309C17.7366 10.9636 17.6508 10.5308 17.3201 10.3541C17.7617 10.233 18.0611 9.82209 18.1615 9.39528C18.262 8.96846 18.1992 8.52577 18.1364 8.093C18.0422 7.45575 17.9501 6.81653 17.8559 6.17928C18.7727 6.19119 19.6749 5.67505 20.0935 4.90083C20.7278 5.40506 21.8372 5.18868 22.2118 4.48989C22.4693 5.3594 23.541 5.92716 24.4578 5.67902C24.3364 6.17134 25.2574 6.66764 25.7661 6.81652C26.2747 6.96541 26.9341 6.6458 26.9341 6.6458C26.9341 6.6458 27.7986 7.17386 28.2904 7.00909C28.774 6.8463 29.4375 6.29244 29.1445 5.80607C29.1445 5.80607 29.3831 5.23632 29.291 4.7698L29.2889 4.76583Z" fill="#263238"/>
<path d="M14.2765 6.67665C14.3016 6.6687 14.31 6.84349 14.5152 6.99642C14.6156 7.06793 14.7663 7.12155 14.9254 7.08183C15.0824 7.04608 15.2478 6.91698 15.2917 6.74021L15.3273 6.5972L15.4403 6.70048C15.6036 6.84746 15.8862 6.91698 16.1311 6.82958C16.4053 6.73028 16.5707 6.44625 16.5497 6.20791L16.5372 6.06689L16.6711 6.12648C16.8428 6.20195 17.0353 6.19599 17.1819 6.14237C17.3326 6.08874 17.4372 5.98943 17.5021 5.89409C17.634 5.69945 17.6214 5.54651 17.6445 5.5485C17.657 5.54254 17.7135 5.70342 17.5942 5.94574C17.5335 6.06093 17.4184 6.19401 17.2384 6.27147C17.0605 6.34893 16.8239 6.36879 16.5979 6.27941L16.7214 6.19599C16.7549 6.50584 16.5602 6.86534 16.196 7.0004C15.8736 7.11361 15.522 7.02026 15.3147 6.82362L15.4634 6.7839C15.388 7.03615 15.164 7.1871 14.9547 7.22483C14.737 7.26456 14.5466 7.17518 14.4419 7.07786C14.22 6.86732 14.2619 6.67069 14.2744 6.67863L14.2765 6.67665Z" fill="#455A64"/>
<path d="M13.8014 8.95238C13.814 8.93848 13.8894 9.02385 14.0673 9.06355C14.2326 9.10325 14.5529 9.07745 14.712 8.83128L14.7643 8.74989L14.8313 8.82334C14.9673 8.97025 15.2185 9.07149 15.4676 9.01789C15.7125 8.97223 15.9407 8.74195 15.9637 8.47594L15.9784 8.31911L16.1144 8.41043C16.1479 8.43226 16.1856 8.45212 16.2274 8.46403C16.4158 8.52557 16.6419 8.46403 16.7445 8.32109C16.8554 8.18015 16.8638 7.97964 16.7842 7.84465L16.6963 7.69179L16.8742 7.72355C17.0919 7.76326 17.3096 7.70767 17.4624 7.6104C17.6173 7.51312 17.7115 7.37615 17.7617 7.25505C17.8601 7.0069 17.812 6.84015 17.8371 6.83816C17.8476 6.83022 17.9376 6.99698 17.858 7.28483C17.8162 7.42379 17.722 7.59253 17.5441 7.71958C17.3703 7.84465 17.117 7.92406 16.8428 7.88237L16.9328 7.76326C17.0501 7.95383 17.0459 8.21786 16.8952 8.42234C16.7424 8.63277 16.4326 8.72011 16.1667 8.63277C16.106 8.61291 16.0495 8.58512 16.0014 8.55336L16.1521 8.48785C16.1165 8.8432 15.8255 9.12311 15.5032 9.18068C15.1788 9.23825 14.8773 9.10325 14.7162 8.91069L14.8355 8.90275C14.7266 9.05958 14.5571 9.13899 14.4126 9.16281C14.2661 9.1906 14.1363 9.17075 14.038 9.137C13.8412 9.06554 13.7868 8.95437 13.7952 8.9504L13.8014 8.95238Z" fill="#455A64"/>
<path d="M24.7132 1.27153C24.7006 1.28344 24.6357 1.17227 24.4348 1.10477C24.3364 1.07301 24.2004 1.05911 24.0643 1.11073C23.9303 1.16036 23.7922 1.27947 23.742 1.44622L23.7022 1.58122L23.631 1.45615C23.5054 1.23182 23.2187 1.02537 22.8691 1.01345C22.5279 0.995588 22.1365 1.2219 22.0088 1.58519L21.9544 1.74202L21.8539 1.60702C21.6697 1.36086 21.3432 1.19014 20.9957 1.17624C20.6482 1.15639 20.2924 1.33108 20.0789 1.61894C19.991 1.73408 19.9324 1.86708 19.9031 2.00009L19.8821 2.09736L19.7837 2.06957C19.3002 1.93656 18.756 2.17677 18.5571 2.55991C18.3478 2.94504 18.442 3.41552 18.689 3.68749L18.7832 3.78874L18.643 3.80661C18.3081 3.85028 18.0318 4.03093 17.8664 4.23739C17.6968 4.44385 17.6382 4.6781 17.6299 4.86471C17.6173 5.24785 17.7638 5.44438 17.7387 5.45034C17.7324 5.45431 17.6948 5.41063 17.6466 5.31336C17.6006 5.21807 17.5461 5.06521 17.542 4.86272C17.5378 4.66222 17.588 4.40415 17.7659 4.16592C17.9397 3.93167 18.239 3.71926 18.6199 3.6597L18.5739 3.7808C18.2787 3.46912 18.1594 2.94107 18.3981 2.4805C18.6367 2.02193 19.2563 1.73805 19.8382 1.89488L19.7189 1.96436C19.7544 1.80356 19.8235 1.64871 19.9261 1.51372C20.171 1.17822 20.5938 0.971766 21.0062 0.997573C21.4143 1.01742 21.7848 1.21594 21.9983 1.50975L21.8434 1.53159C22.0067 1.09286 22.4693 0.840744 22.8775 0.868536C23.2877 0.896329 23.6017 1.14051 23.7378 1.40454L23.6268 1.41446C23.698 1.208 23.8696 1.07897 24.0308 1.02735C24.1962 0.973751 24.3511 1.00353 24.4557 1.0472C24.5625 1.09286 24.6295 1.15242 24.6671 1.19609C24.7048 1.23977 24.7153 1.26756 24.7111 1.27153H24.7132Z" fill="#455A64"/>
<path d="M28.0012 53.0338C27.9007 52.4165 28.0703 51.7633 28.4617 51.2611C28.8531 50.7588 29.4602 50.4134 30.1111 50.3221C30.1718 50.3141 30.2388 50.3082 30.2912 50.3419C30.3623 50.3896 30.3665 50.4888 30.3581 50.5702C30.2995 51.1698 30.0358 51.7474 29.6151 52.1981C29.1964 52.6487 28.6229 52.9703 28.0033 53.1013" fill="#035126"/>
<path d="M25.3512 50.0748C25.345 50.0906 25.592 50.178 25.952 50.3825C26.1341 50.4837 26.3371 50.6207 26.5527 50.7874C26.7641 50.9582 26.9818 51.1607 27.187 51.3949C27.3879 51.6311 27.5554 51.8753 27.6893 52.1056C27.8191 52.3379 27.9217 52.5562 27.9907 52.7448C28.131 53.122 28.1729 53.3682 28.1896 53.3642C28.1959 53.3642 28.1896 53.3007 28.1708 53.1895C28.1624 53.1339 28.1498 53.0644 28.1268 52.987C28.1059 52.9096 28.087 52.8203 28.0494 52.725C27.9866 52.5304 27.8903 52.3081 27.7605 52.0679C27.6265 51.8316 27.4591 51.5815 27.2539 51.3413C27.0467 51.1031 26.8207 50.8986 26.603 50.7279C26.3811 50.5611 26.1697 50.4261 25.9813 50.3309C25.8892 50.2792 25.8013 50.2435 25.7238 50.2078C25.6485 50.172 25.5794 50.1462 25.5229 50.1284C25.4119 50.0887 25.3492 50.0708 25.3471 50.0748H25.3512Z" fill="#035126"/>
</svg>
