<svg width="31" height="35" viewBox="0 0 31 35" fill="none" xmlns="http://www.w3.org/2000/svg">
<path d="M30.13 14.7884C30.1292 12.1037 29.3541 9.47309 27.8925 7.19517C26.4309 4.91726 24.3415 3.08336 21.8615 1.90175C19.3815 0.720142 16.6104 0.238164 13.8628 0.510555C11.1152 0.782945 8.50119 1.79879 6.31769 3.44272C4.13418 5.08666 2.46866 7.2928 1.51025 9.81063C0.551851 12.3285 0.338976 15.0571 0.895803 17.6866C1.45263 20.3161 2.75685 22.7412 4.66034 24.6864C6.56383 26.6316 8.99033 28.019 11.6643 28.691L12.7662 30.5449L15.3613 34.9157L17.9563 30.5449L19.0583 28.691C22.2274 27.8932 25.0342 26.095 27.0381 23.5787C29.042 21.0624 30.1295 17.9705 30.13 14.7884V14.7884Z" fill="#CA005D"/>
<path d="M16.2533 17.5693C15.8911 17.6648 13.9087 17.221 13.9087 17.221C13.9087 17.221 15.3786 18.0992 15.5077 18.2696C15.6368 18.4401 15.2361 19.9962 15.2361 19.9962C15.2361 19.9962 16.155 18.7715 16.5114 18.3951C16.7291 18.1741 17.282 18.2266 17.5402 18.2659C19.4008 18.562 21.3068 18.1414 22.8535 17.0936C24.441 15.9887 24.4179 15.7828 24.4179 15.7828C24.4179 15.7828 22.9248 14.7902 20.6689 15.221C18.4129 15.6517 16.6232 17.4681 16.2533 17.5655" fill="white"/>
<path d="M5.68052 14.2098C5.15844 14.3521 3.03156 13.5225 3.03156 13.5225C3.03156 13.5225 5.10064 14.7079 5.17385 14.9101C5.24706 15.1124 3.88115 17.0525 3.88115 17.0525C3.88115 17.0525 5.24898 15.9045 5.80768 15.4588C6.30664 15.0656 7.50687 14.9214 8.2062 14.9794C8.90552 15.0375 11.7048 15.4158 15.2631 13.1068C17.5903 11.6086 17.5749 11.3296 17.5749 11.3296C17.5749 11.3296 15.5212 10.133 12.2885 10.8203C9.05579 11.5075 6.20839 14.0506 5.68438 14.191" fill="white"/>
<path d="M21.95 11.6161C21.6957 11.6423 20.7941 11.0824 20.7941 11.0824C20.7941 11.0824 21.6456 11.8015 21.6629 11.9045C21.6803 12.0075 20.8808 12.7847 20.8808 12.7847C20.8808 12.7847 21.6109 12.3689 21.9095 12.2079C22.1735 12.0693 22.7418 12.1011 23.0654 12.1854C23.3891 12.2697 24.6433 12.676 26.4869 11.9045C27.691 11.4008 27.7045 11.2734 27.7045 11.2734C27.7045 11.2734 26.8472 10.5524 25.2944 10.603C23.7416 10.6536 22.212 11.5936 21.95 11.6161Z" fill="white"/>
</svg>
