<svg width="24" height="24" viewBox="0 0 24 24" fill="none" xmlns="http://www.w3.org/2000/svg">
<path d="M3 8.25H21C21.3315 8.25 21.6495 8.1183 21.8839 7.88388C22.1183 7.64946 22.25 7.33152 22.25 7C22.25 6.66848 22.1183 6.35054 21.8839 6.11612C21.6495 5.8817 21.3315 5.75 21 5.75H3C2.66848 5.75 2.35054 5.8817 2.11612 6.11612C1.8817 6.35054 1.75 6.66848 1.75 7C1.75 7.33152 1.8817 7.64946 2.11612 7.88388C2.35054 8.1183 2.66848 8.25 3 8.25ZM21 15.75H3C2.66848 15.75 2.35054 15.8817 2.11612 16.1161C1.8817 16.3505 1.75 16.6685 1.75 17C1.75 17.3315 1.8817 17.6495 2.11612 17.8839C2.35054 18.1183 2.66848 18.25 3 18.25H21C21.3315 18.25 21.6495 18.1183 21.8839 17.8839C22.1183 17.6495 22.25 17.3315 22.25 17C22.25 16.6685 22.1183 16.3505 21.8839 16.1161C21.6495 15.8817 21.3315 15.75 21 15.75ZM21 10.75H3C2.66848 10.75 2.35054 10.8817 2.11612 11.1161C1.8817 11.3505 1.75 11.6685 1.75 12C1.75 12.3315 1.8817 12.6495 2.11612 12.8839C2.35054 13.1183 2.66848 13.25 3 13.25H21C21.3315 13.25 21.6495 13.1183 21.8839 12.8839C22.1183 12.6495 22.25 12.3315 22.25 12C22.25 11.6685 22.1183 11.3505 21.8839 11.1161C21.6495 10.8817 21.3315 10.75 21 10.75Z" fill="#CA005D" stroke="#CA005D" stroke-width="0.5"/>
</svg>
