<svg width="94" height="80" viewBox="0 0 94 80" fill="none" xmlns="http://www.w3.org/2000/svg">
<path d="M18.4007 53.711L15.6014 53.1229C9.54993 51.8467 3.60433 55.7164 2.32817 61.7737C1.05201 67.8252 4.92165 73.7708 10.979 75.047L13.7783 75.635L18.4007 53.711Z" fill="#F5AB1C"/>
<path d="M25.5361 70.3839C28.7108 65.0731 26.9791 58.1943 21.6683 55.0196C16.3575 51.8449 9.4787 53.5766 6.30403 58.8874C3.12936 64.1982 4.86103 71.077 10.1718 74.2517C15.4826 77.4263 22.3614 75.6947 25.5361 70.3839Z" fill="#F7CB11"/>
<path d="M14.0483 73.4998C9.15534 72.4647 6.02081 67.66 7.05586 62.7671C8.0909 57.8742 12.8956 54.7396 17.7885 55.7747C22.6815 56.8097 25.816 61.6144 24.7809 66.5074C23.7459 71.4003 18.9412 74.5348 14.0483 73.4998Z" fill="#F5AB1C"/>
<path d="M14.0481 73.4996C13.8011 73.4467 13.5599 73.3879 13.3247 73.3115C17.9589 73.9054 22.346 70.8474 23.3281 66.1955C24.3103 61.5437 21.5286 56.9743 17.0473 55.6452C17.2884 55.6746 17.5354 55.7158 17.7824 55.7687C22.6812 56.8037 25.8099 61.6026 24.7749 66.5014C23.7398 71.4002 18.941 74.5288 14.0422 73.4938L14.0481 73.4996Z" fill="#DD9A27"/>
<path d="M16.2953 68.6009C15.6719 69.0831 14.878 69.3183 13.9135 69.3125L12.1492 69.0125C11.5376 68.842 10.9672 68.6126 10.4379 68.3127C9.9086 68.0128 9.48517 67.6952 9.1676 67.3541L10.6202 65.1252C10.9789 65.484 11.3906 65.8016 11.8728 66.0721C12.3492 66.3426 12.8255 66.5308 13.296 66.6308C13.7018 66.719 14.0017 66.7307 14.1899 66.6778C14.384 66.6249 14.4957 66.5073 14.5369 66.3308C14.578 66.125 14.5016 65.9427 14.2958 65.7957C14.0899 65.6428 13.7371 65.4546 13.2431 65.2193C12.6079 64.9194 12.0845 64.6313 11.6788 64.349C11.273 64.0726 10.9436 63.6903 10.7025 63.2022C10.4614 62.7141 10.4144 62.1142 10.5673 61.3967C10.7437 60.5675 11.1554 59.9148 11.8023 59.4325C12.455 58.9503 13.2842 58.7327 14.3016 58.7797L16.0542 59.1208C17.0245 59.4325 17.8067 59.8854 18.4006 60.4676L17.0127 62.6905C16.2659 62.0201 15.5072 61.6085 14.7486 61.4497C13.9958 61.2909 13.5783 61.4203 13.4901 61.8319C13.4489 62.0319 13.5312 62.2024 13.7312 62.3495C13.9311 62.4965 14.2781 62.6788 14.7662 62.9023C15.3955 63.1845 15.9248 63.461 16.3364 63.7432C16.754 64.0196 17.0833 64.4019 17.3303 64.89C17.5773 65.3722 17.6244 65.9721 17.4773 66.6896C17.3127 67.4776 16.9128 68.1128 16.2894 68.595L16.2953 68.6009Z" fill="#F7CB11"/>
<path d="M22.8129 61.1139L21.6375 60.4688L15.9868 70.7642L17.1623 71.4094L22.8129 61.1139Z" fill="#F7CB11"/>
<path d="M73.7355 48.2767L70.9832 49.0706C65.0376 50.7878 61.6149 56.9981 63.3321 62.9437C65.0494 68.8893 71.2596 72.312 77.2052 70.5948L79.9575 69.8008L73.7355 48.2767Z" fill="#F5AB1C"/>
<path d="M87.8728 59.6433C88.1794 53.4636 83.4182 48.2054 77.2385 47.8988C71.0588 47.5923 65.8006 52.3534 65.494 58.5331C65.1875 64.7129 69.9486 69.971 76.1284 70.2776C82.3081 70.5842 87.5663 65.823 87.8728 59.6433Z" fill="#F7CB11"/>
<path d="M79.1983 67.7894C74.3936 69.1773 69.3713 66.4074 67.9834 61.6027C66.5955 56.798 69.3654 51.7757 74.1701 50.3819C78.9748 48.994 83.9971 51.7639 85.3909 56.5686C86.7788 61.3733 84.0089 66.3956 79.2042 67.7894H79.1983Z" fill="#F5AB1C"/>
<path d="M79.1986 67.7835C78.9575 67.8541 78.7164 67.9129 78.4753 67.96C82.8448 66.3074 85.2795 61.5439 83.9622 56.9803C82.6448 52.4108 78.0401 49.688 73.4647 50.6172C73.6941 50.5289 73.9293 50.4466 74.1704 50.3819C78.9751 48.994 83.9974 51.7639 85.3853 56.5686C86.7732 61.3733 84.0033 66.3957 79.1986 67.7835Z" fill="#DD9A27"/>
<path d="M78.8745 62.4084C78.551 63.1259 77.9571 63.7081 77.1043 64.1551L75.4047 64.7196C74.7872 64.8608 74.1697 64.9196 73.564 64.9078C72.9583 64.8902 72.4349 64.8079 71.9938 64.655L72.229 62.0085C72.7113 62.1614 73.2288 62.2438 73.7816 62.2555C74.3285 62.2732 74.8402 62.2144 75.2989 62.0791C75.6988 61.9615 75.9693 61.838 76.1104 61.7027C76.2575 61.5675 76.3045 61.4087 76.2516 61.2323C76.1928 61.0264 76.0399 60.9088 75.787 60.8735C75.5341 60.8382 75.1342 60.8324 74.5873 60.8618C73.8816 60.897 73.2876 60.8853 72.7995 60.8324C72.3114 60.7794 71.8409 60.5912 71.3998 60.2796C70.9588 59.962 70.6353 59.4562 70.4295 58.7505C70.1942 57.939 70.2531 57.1686 70.6 56.4393C70.947 55.7101 71.5821 55.1279 72.4996 54.6868L74.2109 54.1634C75.2166 53.9811 76.1163 54.0105 76.9161 54.2516L76.7338 56.8686C75.7576 56.6334 74.899 56.6216 74.1521 56.8333C73.4111 57.045 73.1053 57.3567 73.2229 57.7625C73.2817 57.9566 73.4288 58.0683 73.6757 58.1036C73.9227 58.1389 74.3168 58.1389 74.8519 58.1036C75.54 58.0566 76.134 58.0566 76.6338 58.1036C77.1337 58.1565 77.6042 58.333 78.0511 58.6447C78.4981 58.9563 78.8216 59.4621 79.0215 60.1619C79.245 60.9382 79.1979 61.6851 78.8686 62.4026L78.8745 62.4084Z" fill="#F7CB11"/>
<path d="M81.1131 52.7363L79.7723 52.7192L79.6227 64.4624L80.9635 64.4795L81.1131 52.7363Z" fill="#F7CB11"/>
<path d="M34.0136 79.3859C31.7083 79.3859 29.3265 79.0565 26.9389 78.4038C26.7507 78.3508 26.6037 78.2156 26.539 78.0333L15.0065 45.3354C14.9359 45.1295 14.983 44.9002 15.13 44.7414C15.2417 44.6179 15.4005 44.5532 15.5593 44.5532C15.6122 44.5532 15.6652 44.5591 15.7122 44.5767C17.9999 45.2001 20.2758 45.5177 22.4811 45.5177C32.2905 45.5177 40.1651 39.2486 47.7808 33.1913C55.5495 27.0045 63.5887 20.612 73.8098 20.612C76.1151 20.612 78.4969 20.9413 80.8904 21.5941C81.0786 21.647 81.2256 21.7823 81.2903 21.9646L92.8228 54.6625C92.8933 54.8683 92.8463 55.0977 92.6993 55.2565C92.5875 55.38 92.4288 55.4447 92.27 55.4447C92.217 55.4447 92.1641 55.4388 92.1171 55.4211C89.8294 54.7978 87.5535 54.4802 85.3481 54.4802C75.5329 54.4802 67.6642 60.7492 60.0484 66.8066C52.2797 72.9933 44.2464 79.3859 34.0254 79.3859H34.0136Z" fill="#9AC93C"/>
<path d="M73.8102 21.1946C76.0038 21.1946 78.3032 21.4945 80.732 22.159C84.5782 33.0564 88.4184 43.9596 92.2645 54.8569C89.8357 54.1924 87.5363 53.8925 85.3427 53.8925C65.3064 53.8925 54.0503 78.7982 34.0199 78.7982C31.8263 78.7982 29.5269 78.4982 27.0981 77.8337C23.252 66.9363 19.4117 56.0331 15.5656 45.1358C17.9944 45.8003 20.2939 46.1003 22.4874 46.1003C42.5237 46.1003 53.7798 21.1946 73.8102 21.1946ZM73.8102 20.0184C63.3833 20.0184 55.2677 26.4815 47.4166 32.7271C39.5362 39.002 32.091 44.9241 22.4874 44.9241C20.335 44.9241 18.112 44.6124 15.8773 44.0067C15.7773 43.9772 15.6715 43.9655 15.5656 43.9655C15.2422 43.9655 14.9305 44.1007 14.707 44.3419C14.4071 44.6594 14.313 45.124 14.46 45.5357L25.9925 78.2336C26.1219 78.5982 26.4218 78.8746 26.7923 78.9746C29.2329 79.6391 31.6617 79.9802 34.0258 79.9802C44.4527 79.9802 52.5683 73.5171 60.4194 67.2716C68.2998 60.9966 75.745 55.0745 85.3486 55.0745C87.501 55.0745 89.724 55.3862 91.9587 55.992C92.0587 56.0214 92.1645 56.0331 92.2704 56.0331C92.5938 56.0331 92.9055 55.8979 93.129 55.6567C93.4289 55.3392 93.523 54.8746 93.376 54.4629L85.5838 32.3624L81.8494 21.765C81.72 21.4004 81.4201 21.124 81.0496 21.024C78.609 20.3595 76.1802 20.0184 73.822 20.0184H73.8102Z" fill="#6A8B3B"/>
<path d="M89.2535 52.4165C64.6713 47.8941 53.3564 80.9919 28.7741 76.4753C25.375 66.8424 21.9817 57.2095 18.5825 47.5765C43.1648 52.099 54.4796 19.0012 79.0619 23.5177C82.461 33.1506 85.8543 42.7836 89.2535 52.4165Z" fill="#7DA43F" stroke="#6A8B3B" stroke-width="0.5" stroke-linecap="round" stroke-linejoin="round"/>
<path d="M81.3848 50.6168C63.9244 52.6222 53.0153 73.1995 35.5548 75.2108C34.6668 72.6879 31.7852 71 28.8623 70.7178C26.8922 65.1309 24.9221 59.544 22.952 53.9571C25.869 54.2394 27.3215 51.8635 26.4394 49.37C43.8999 47.3646 54.809 26.7873 72.2694 24.776C73.1574 27.299 76.0391 28.9868 78.9619 29.2691C80.932 34.8559 82.9021 40.4428 84.8722 46.0297C81.9553 45.7474 80.5027 48.1233 81.3848 50.6168Z" fill="#9AC93C" stroke="#6A8B3B" stroke-width="0.5" stroke-linecap="round" stroke-linejoin="round"/>
<path d="M63.9947 42.5715C66.1765 48.7524 63.3361 56.8151 57.8962 61.2846C52.4622 65.7541 46.052 63.7076 43.8349 57.415C41.6531 51.2341 44.4936 43.1714 49.9335 38.7019C55.3674 34.2324 61.7776 36.279 63.9947 42.5715Z" fill="#7DA43F" stroke="#6A8B3B" stroke-width="0.5" stroke-linecap="round" stroke-linejoin="round"/>
<path d="M59.7012 52.3752C59.3719 53.6631 58.6897 54.8864 57.6488 56.0449C57.9075 56.7683 58.1604 57.4975 58.4192 58.2208C57.7076 58.7854 56.996 59.3559 56.2844 59.9204C56.0374 59.2265 55.7963 58.5325 55.5493 57.8386C54.773 58.3914 53.9908 58.8148 53.2087 59.103C52.4265 59.397 51.7385 59.5323 51.1504 59.5088C51.1445 58.0915 51.1327 56.6683 51.121 55.2451C51.762 55.2333 52.4383 55.0922 53.1499 54.8276C53.8556 54.5629 54.4966 54.1983 55.0729 53.7396C55.5669 53.3456 55.8963 53.0045 56.0668 52.7104C56.2374 52.4164 56.2785 52.1459 56.1903 51.8989C56.0903 51.6107 55.8727 51.5048 55.5434 51.5813C55.2141 51.6577 54.7024 51.8636 54.0085 52.1988C53.1087 52.6281 52.3442 52.928 51.709 53.1045C51.0739 53.275 50.4446 53.228 49.833 52.9574C49.2214 52.6869 48.7392 52.0518 48.3863 51.0579C47.9805 49.9052 47.957 48.6761 48.3099 47.3529C48.6627 46.0297 49.4037 44.783 50.5329 43.6068C50.28 42.8952 50.0271 42.1836 49.7801 41.4661C50.4917 40.9016 51.2033 40.3311 51.9149 39.7665C52.1619 40.4664 52.4089 41.1662 52.6559 41.866C53.9203 41.0486 55.0847 40.6251 56.1491 40.5957C56.1844 41.9895 56.2138 43.3892 56.2491 44.783C54.9612 44.9182 53.8556 45.3593 52.9264 46.1003C52.009 46.8295 51.6502 47.4882 51.8502 48.0586C51.9443 48.335 52.156 48.4291 52.4794 48.3527C52.8029 48.2703 53.3028 48.0645 53.985 47.7234C54.8612 47.2765 55.6257 46.9648 56.2726 46.7825C56.9195 46.6002 57.5547 46.6413 58.1663 46.9001C58.7838 47.1588 59.266 47.7881 59.6189 48.782C60.007 49.8817 60.0364 51.0697 59.7071 52.3635L59.7012 52.3752Z" fill="#9AC93C" stroke="#6A8B3B" stroke-width="0.5" stroke-linecap="round" stroke-linejoin="round"/>
<path d="M24.2927 51.8697C24.1868 52.0403 23.9869 52.1579 23.6928 52.1991C23.7458 52.352 23.8046 52.5107 23.8575 52.6636C23.6575 52.6578 23.4576 52.646 23.2576 52.6342C23.2047 52.4872 23.1518 52.3343 23.0989 52.1873C22.8813 52.1638 22.6637 52.1167 22.452 52.0461C22.2344 51.9756 22.0521 51.8932 21.8933 51.7992C21.9168 51.5698 21.9403 51.3404 21.9638 51.1111C22.1344 51.2052 22.3167 51.2875 22.5108 51.3463C22.7048 51.411 22.8813 51.4463 23.0459 51.4522C23.1871 51.4581 23.2753 51.4522 23.3282 51.4286C23.3753 51.4051 23.3929 51.364 23.3753 51.311C23.3517 51.2522 23.2988 51.1993 23.2106 51.1699C23.1224 51.1346 22.9812 51.0934 22.7931 51.0464C22.5461 50.9876 22.3343 50.917 22.1638 50.8523C21.9874 50.7876 21.8227 50.6818 21.6639 50.5465C21.5051 50.4113 21.3875 50.2348 21.3111 50.0231C21.2228 49.7761 21.2405 49.5762 21.3581 49.4174C21.4757 49.2586 21.6992 49.1704 22.0227 49.141C21.9697 48.9881 21.9168 48.8352 21.8639 48.6823C22.0638 48.694 22.2638 48.7058 22.4637 48.7117C22.5166 48.8587 22.5696 49.0116 22.6225 49.1645C22.9695 49.2057 23.2812 49.2939 23.5576 49.4291C23.5458 49.6703 23.5282 49.9055 23.5164 50.1466C23.1753 49.9937 22.8754 49.9114 22.6166 49.8996C22.3579 49.8879 22.252 49.9408 22.2932 50.0643C22.3167 50.1231 22.3696 50.1701 22.452 50.2054C22.5402 50.2407 22.6754 50.276 22.8636 50.323C23.1047 50.376 23.3106 50.4289 23.4811 50.4877C23.6517 50.5465 23.8163 50.6347 23.9751 50.7582C24.1339 50.8817 24.2456 51.0523 24.3221 51.264C24.4044 51.4992 24.3927 51.7051 24.2868 51.8815L24.2927 51.8697Z" fill="#9AC93C" stroke="#6A8B3B" stroke-width="0.5" stroke-linecap="round" stroke-linejoin="round"/>
<path d="M32.4676 75.0465C32.3617 75.217 32.1618 75.3346 31.8677 75.3758C31.2973 75.3758 30.8445 75.2935 30.6327 75.2229C30.4151 75.1523 30.2328 75.07 30.0741 74.9759C30.0976 74.7465 30.1211 74.5172 30.1446 74.2878C30.3152 74.3819 30.4975 74.4642 30.6916 74.523C30.8856 74.5877 31.0621 74.623 31.2267 74.6289C31.3679 74.6348 31.4561 74.6289 31.509 74.6054C31.556 74.5819 31.5737 74.5407 31.556 74.4878C31.5325 74.429 31.4796 74.376 31.3914 74.3466C31.3032 74.3113 31.162 74.2702 30.9738 74.2231C30.7268 74.1643 30.5151 74.0937 30.3446 74.0291C30.1682 73.9644 30.0035 73.8585 29.8447 73.7232C29.6859 73.588 29.5683 73.4116 29.4918 73.1998C29.4036 72.9528 29.4213 72.7529 29.5389 72.5941C29.6565 72.4353 30.1446 72.1707 30.7974 72.3412C31.1444 72.3824 31.4561 72.4706 31.7325 72.6059C31.7207 72.847 31.7031 73.0822 31.6913 73.3233C31.3502 73.1704 31.0503 73.0881 30.7915 73.0763C30.5328 73.0646 30.4269 73.1175 30.4681 73.241C30.4916 73.2998 30.5445 73.3469 30.6269 73.3822C30.7151 73.4174 30.8503 73.4527 31.0385 73.4998C31.2796 73.5527 31.4855 73.6056 31.656 73.6644C31.8266 73.7232 31.9912 73.8115 32.15 73.935C32.3088 74.0585 32.4205 74.229 32.497 74.4407C32.5793 74.676 32.5676 74.8818 32.4617 75.0582L32.4676 75.0465Z" fill="#9AC93C" stroke="#6A8B3B" stroke-width="0.5" stroke-linecap="round" stroke-linejoin="round"/>
<path d="M78.4203 27.0987C78.3086 27.2575 78.1028 27.3457 77.8028 27.381C77.8558 27.5339 77.9146 27.6927 77.9675 27.8456C77.7675 27.8279 77.5676 27.8162 77.3677 27.8103C77.3147 27.6633 77.2618 27.5104 77.2089 27.3634C76.9913 27.3398 76.7796 27.3045 76.5678 27.2457C76.3561 27.1869 76.1738 27.1222 76.0209 27.0399C76.0386 26.7988 76.0621 26.5577 76.0856 26.3224C76.2562 26.4048 76.4326 26.4753 76.6267 26.5341C76.8207 26.593 76.9972 26.6224 77.1559 26.6341C77.2971 26.64 77.3912 26.6341 77.4382 26.6106C77.4911 26.5871 77.5029 26.5518 77.4853 26.4989C77.4617 26.44 77.4088 26.3871 77.3206 26.3518C77.2324 26.3166 77.0912 26.2754 76.8972 26.2283C76.6502 26.1695 76.4443 26.1107 76.2738 26.0519C76.1033 25.9931 75.9386 25.899 75.7857 25.7755C75.6328 25.652 75.5152 25.4815 75.4387 25.2639C75.3505 25.0169 75.3681 24.8052 75.4799 24.6346C75.5975 24.4641 75.8092 24.3582 76.1327 24.3229C76.0797 24.17 76.0268 24.0171 75.9739 23.8642C76.1738 23.876 76.3738 23.8877 76.5737 23.8995C76.6267 24.0524 76.6796 24.1994 76.7325 24.3523C77.0854 24.4111 77.4029 24.517 77.6911 24.6758C77.6735 24.9051 77.6558 25.1345 77.6382 25.3638C77.2912 25.1874 76.9854 25.0933 76.7266 25.0757C76.4679 25.058 76.362 25.1168 76.4032 25.2403C76.4267 25.2991 76.4796 25.3462 76.562 25.3815C76.6502 25.4168 76.7854 25.4521 76.9736 25.4991C77.2147 25.5579 77.4265 25.6226 77.6029 25.6932C77.7793 25.7637 77.9499 25.8637 78.1086 25.999C78.2674 26.1342 78.385 26.3107 78.4615 26.5224C78.5438 26.7576 78.5321 26.9517 78.4145 27.1105L78.4203 27.0987Z" fill="#9AC93C" stroke="#6A8B3B" stroke-width="0.5" stroke-linecap="round" stroke-linejoin="round"/>
<path d="M85.0667 50.1282C84.9902 50.3164 84.8138 50.4634 84.5315 50.5575C84.4315 50.581 84.1375 50.6575 83.9493 50.6516C83.7317 50.6633 83.5082 50.6516 83.2848 50.6222C83.0613 50.5869 82.8613 50.5398 82.6908 50.4752C82.6731 50.2458 82.6614 50.0164 82.6437 49.7812C82.8319 49.8459 83.026 49.8929 83.2259 49.9165C83.4259 49.9459 83.6082 49.9518 83.767 49.9282C83.9022 49.9106 83.9963 49.8871 84.0434 49.8518C84.0904 49.8224 84.0963 49.7812 84.0669 49.7283C84.0375 49.6695 83.9728 49.6342 83.8787 49.6165C83.7846 49.5989 83.6435 49.5813 83.4435 49.5695C83.1907 49.5519 82.9731 49.5225 82.7908 49.4872C82.6085 49.4519 82.4261 49.3813 82.2438 49.2696C82.0615 49.1637 81.9204 49.0108 81.8086 48.8109C81.6793 48.5815 81.6616 48.3816 81.7557 48.2051C81.8439 48.0287 82.0498 47.8993 82.3614 47.8229C82.5379 47.7758 82.6555 47.7523 82.9495 47.7405C83.3024 47.7229 83.62 47.7523 83.9199 47.8405C83.9493 48.0816 83.9728 48.3169 84.0022 48.5521C83.6435 48.4639 83.3318 48.4345 83.073 48.4639C82.8202 48.4933 82.7202 48.5639 82.7849 48.6815C82.8143 48.7344 82.879 48.7697 82.9672 48.7932C83.0613 48.8109 83.2024 48.8285 83.3906 48.8344C83.6376 48.8461 83.8493 48.8638 84.0316 48.8873C84.2139 48.9167 84.3904 48.9755 84.5668 49.0696C84.7432 49.1637 84.8844 49.3107 84.9961 49.5048C85.1196 49.7224 85.1431 49.9282 85.0667 50.1164V50.1282Z" fill="#9AC93C" stroke="#6A8B3B" stroke-width="0.5" stroke-linecap="round" stroke-linejoin="round"/>
<path d="M85.6221 47.5803L85.1136 47.6765L85.565 50.063L86.0735 49.9668L85.6221 47.5803Z" fill="#9AC93C" stroke="#6A8B3B" stroke-width="0.5" stroke-linecap="round" stroke-linejoin="round"/>
<path d="M34.8977 77.6627C34.4155 77.6627 33.9274 77.6509 33.4275 77.6274C33.2334 77.6156 33.057 77.5156 32.957 77.351L14.6615 47.8993C14.5439 47.7111 14.5439 47.4818 14.6556 47.2877C14.7614 47.1054 14.9555 46.9996 15.1614 46.9996C15.1731 46.9996 15.179 46.9996 15.1908 46.9996C15.6671 47.0231 16.1376 47.0348 16.6022 47.0348C29.4108 47.0348 36.5267 38.2664 44.0543 28.9804C51.429 19.8944 59.0506 10.4967 72.418 10.4967C72.9002 10.4967 73.3883 10.5085 73.8882 10.532C74.0823 10.5437 74.2587 10.6437 74.3587 10.8084L92.6542 40.26C92.7718 40.4482 92.7718 40.6776 92.6601 40.8716C92.5542 41.0539 92.3601 41.1598 92.1543 41.1598C92.1426 41.1598 92.1367 41.1598 92.1249 41.1598C91.6486 41.1363 91.1781 41.1245 90.7135 41.1245C77.9049 41.1245 70.7889 49.893 63.2614 59.1789C55.8867 68.2649 48.265 77.6627 34.8977 77.6627Z" fill="#9AC93C"/>
<path d="M72.4235 11.085C72.8939 11.085 73.3762 11.0967 73.8643 11.1202C79.9628 20.9355 86.0613 30.7566 92.1598 40.5719C91.6717 40.5483 91.1895 40.5366 90.719 40.5366C64.543 40.5366 61.0733 77.0747 34.9032 77.0747C34.4328 77.0747 33.9505 77.063 33.4624 77.0394C27.3639 67.2242 21.2654 57.4031 15.1669 47.5878C15.655 47.6113 16.1372 47.6231 16.6077 47.6231C42.7837 47.6231 46.2534 11.085 72.4235 11.085ZM72.4235 9.90877C58.7797 9.90877 51.064 19.4182 43.6011 28.6101C36.1617 37.7843 29.1282 46.4469 16.6018 46.4469C16.149 46.4469 15.6844 46.4351 15.2198 46.4116C15.2022 46.4116 15.1786 46.4116 15.161 46.4116C14.7434 46.4116 14.3612 46.6292 14.1495 46.988C13.926 47.3643 13.9319 47.8348 14.1612 48.2053L32.4568 77.6569C32.6626 77.9863 33.0096 78.1921 33.3977 78.2097C33.8976 78.2333 34.4033 78.245 34.8973 78.245C48.5411 78.245 56.2568 68.7356 63.7197 59.5378C71.1591 50.3636 78.1868 41.701 90.7131 41.701C91.1718 41.701 91.6364 41.7128 92.0951 41.7363C92.1128 41.7363 92.1363 41.7363 92.154 41.7363C92.5715 41.7363 92.9538 41.5187 93.1655 41.16C93.3889 40.7836 93.3831 40.3131 93.1537 39.9426L75.7168 11.8789L74.8582 10.491C74.6523 10.1617 74.3054 9.95582 73.9172 9.93818C73.4173 9.91465 72.9116 9.90289 72.4176 9.90289L72.4235 9.90877Z" fill="#6A8B3B"/>
<path d="M88.6888 38.8432C63.7125 39.7194 59.7782 74.4756 34.8019 75.346C29.4091 66.6717 24.0222 57.9914 18.6294 49.3171C43.6056 48.4408 47.54 13.6846 72.5162 12.8142C77.909 21.4886 83.296 30.1688 88.6888 38.8432Z" fill="#7DA43F" stroke="#6A8B3B" stroke-width="0.5" stroke-linecap="round" stroke-linejoin="round"/>
<path d="M80.6207 38.7784C64.0012 44.4946 57.7733 66.9362 41.1539 72.6525C39.7424 70.3824 36.5667 69.3474 33.6557 69.7003C30.527 64.6662 27.4043 59.638 24.2756 54.6039C27.1867 54.2511 28.0923 51.6223 26.6927 49.3758C43.3122 43.6595 49.5401 21.218 66.1595 15.5017C67.5709 17.7718 70.7466 18.8068 73.6577 18.4539C76.7863 23.488 79.9091 28.5162 83.0378 33.5503C80.1267 33.9031 79.221 36.5319 80.6207 38.7784Z" fill="#9AC93C" stroke="#6A8B3B" stroke-width="0.5" stroke-linecap="round" stroke-linejoin="round"/>
<path d="M61.9078 34.6621C65.3658 40.2313 64.3248 48.7175 59.9788 54.2514C55.6329 59.7854 48.9345 59.162 45.4118 53.4987C41.9538 47.9294 42.9948 39.4433 47.3408 33.9093C51.6868 28.3754 58.3851 28.9988 61.9078 34.6621Z" fill="#7DA43F" stroke="#6A8B3B" stroke-width="0.5" stroke-linecap="round" stroke-linejoin="round"/>
<path d="M59.8262 45.1538C59.7851 46.4828 59.3793 47.8237 58.6147 49.1822C59.0205 49.835 59.4263 50.4877 59.8321 51.1464C59.2558 51.8521 58.6853 52.5578 58.109 53.2635C57.7208 52.6402 57.3327 52.0168 56.9446 51.3875C56.3035 52.0932 55.6331 52.6754 54.9333 53.1283C54.2335 53.5811 53.5866 53.8634 53.0102 53.9692C52.6985 52.5872 52.381 51.1993 52.0634 49.8114C52.6868 49.6585 53.316 49.3763 53.9512 48.9646C54.5863 48.5529 55.1332 48.0589 55.5978 47.4885C55.9977 46.9945 56.2447 46.5887 56.3447 46.2652C56.4447 45.9418 56.427 45.6713 56.2918 45.4478C56.133 45.189 55.8978 45.1302 55.592 45.2773C55.2861 45.4243 54.8333 45.736 54.2217 46.2123C53.4395 46.8239 52.7515 47.2826 52.1693 47.5885C51.5871 47.8943 50.9637 47.9825 50.305 47.8472C49.6463 47.7178 49.0406 47.2003 48.4819 46.3064C47.835 45.2714 47.5469 44.0717 47.6116 42.7014C47.6762 41.3312 48.1291 39.955 48.9759 38.5612C48.576 37.9202 48.1761 37.2792 47.7762 36.6323C48.3525 35.9266 48.923 35.215 49.4993 34.5152C49.8933 35.1444 50.2815 35.7737 50.6755 36.4088C51.7341 35.3385 52.7809 34.674 53.81 34.4152C54.1394 35.7678 54.4746 37.1263 54.8098 38.4848C53.5807 38.8906 52.5986 39.561 51.8517 40.4843C51.1107 41.3958 50.9049 42.1133 51.2224 42.6308C51.3753 42.8778 51.5988 42.9308 51.8987 42.7837C52.1928 42.6367 52.6397 42.325 53.2337 41.8428C53.9923 41.2194 54.6745 40.7489 55.2685 40.4314C55.8625 40.1138 56.4859 40.0197 57.1445 40.1432C57.8032 40.2667 58.4089 40.7784 58.9676 41.6723C59.5851 42.6602 59.8674 43.8188 59.8262 45.1479V45.1538Z" fill="#9AC93C" stroke="#6A8B3B" stroke-width="0.5" stroke-linecap="round" stroke-linejoin="round"/>
<path d="M25.1347 52.2752C25.07 52.4693 24.8994 52.6222 24.6171 52.728C24.7054 52.8692 24.7936 53.0103 24.8759 53.1515C24.6818 53.1867 24.4819 53.222 24.2878 53.2514C24.2055 53.1162 24.1231 52.9809 24.0408 52.8515C23.8232 52.8751 23.6056 52.8751 23.3763 52.8515C23.1528 52.828 22.9528 52.7868 22.7764 52.7339C22.7529 52.5046 22.7235 52.2752 22.7 52.0458C22.8882 52.0988 23.0822 52.1399 23.2881 52.1576C23.488 52.1752 23.6703 52.1752 23.8291 52.1458C23.9644 52.1223 24.0585 52.0929 24.0996 52.0576C24.1408 52.0223 24.1526 51.9812 24.1173 51.9341C24.082 51.8812 24.0173 51.8459 23.9232 51.8282C23.8291 51.8165 23.6821 51.8047 23.488 51.7988C23.2351 51.793 23.0117 51.7753 22.8293 51.7459C22.647 51.7165 22.4588 51.6518 22.2765 51.5518C22.0942 51.4519 21.9413 51.3048 21.8178 51.1167C21.6826 50.8932 21.6532 50.6932 21.7355 50.5109C21.8178 50.3286 22.0178 50.1934 22.3236 50.0993C22.2354 49.964 22.153 49.8229 22.0648 49.6876C22.2648 49.6582 22.4588 49.6229 22.6529 49.5876C22.7353 49.7229 22.8235 49.8581 22.9058 49.9934C23.2528 49.964 23.5762 49.9758 23.8762 50.0463C23.9114 50.2816 23.9526 50.5168 23.9879 50.752C23.6233 50.6756 23.3116 50.6638 23.0587 50.705C22.8058 50.7462 22.7117 50.8226 22.7823 50.9344C22.8176 50.9873 22.8764 51.0226 22.9705 51.0343C23.0646 51.0461 23.2057 51.0578 23.3939 51.0578C23.6409 51.0578 23.8526 51.0637 24.0349 51.0873C24.2172 51.1049 24.3937 51.1578 24.576 51.246C24.7524 51.3343 24.9053 51.4754 25.0229 51.6636C25.1523 51.8753 25.1876 52.0811 25.1229 52.2693L25.1347 52.2752Z" fill="#9AC93C" stroke="#6A8B3B" stroke-width="0.5" stroke-linecap="round" stroke-linejoin="round"/>
<path d="M38.1023 73.1526C38.0376 73.3466 37.8671 73.4996 37.5848 73.6054C37.1908 73.7171 36.5674 73.7466 36.3439 73.723C36.1204 73.6995 35.9205 73.6583 35.7441 73.6054C35.7205 73.3761 35.6911 73.1467 35.6676 72.9173C35.8558 72.9703 36.0499 73.0114 36.2557 73.0291C36.4557 73.0467 36.638 73.0467 36.7968 73.0173C36.932 72.9938 37.0261 72.9644 37.0673 72.9291C37.1084 72.8938 37.1202 72.8527 37.0849 72.8056C37.0496 72.7527 36.9849 72.7174 36.8908 72.6997C36.7968 72.6821 36.6497 72.6762 36.4557 72.6703C36.2028 72.6645 35.9852 72.6468 35.797 72.6174C35.6147 72.588 35.4265 72.5233 35.2442 72.4233C35.0619 72.3234 34.909 72.1763 34.7855 71.9882C34.6502 71.7647 34.6208 71.5647 34.7031 71.3824C34.7855 71.2001 34.9854 71.0649 35.2912 70.9708C35.4147 70.9472 35.6029 70.8649 35.8793 70.8649C36.2263 70.8355 36.5498 70.8473 36.8497 70.9178C36.885 71.1531 36.9261 71.3883 36.9614 71.6235C36.5968 71.5471 36.2851 71.5353 36.0322 71.5765C35.7794 71.6177 35.6853 71.6941 35.7558 71.8058C35.7911 71.8588 35.8499 71.8941 35.944 71.9058C36.0381 71.9176 36.1793 71.9293 36.3674 71.9293C36.6144 71.9293 36.8262 71.9352 37.0085 71.9588C37.1908 71.9764 37.3672 72.0293 37.5495 72.1175C37.7259 72.2057 37.8788 72.3469 37.9965 72.5351C38.1258 72.7468 38.1611 72.9526 38.0964 73.1408L38.1023 73.1526Z" fill="#9AC93C" stroke="#6A8B3B" stroke-width="0.5" stroke-linecap="round" stroke-linejoin="round"/>
<path d="M72.6696 16.4431C72.5931 16.6195 72.4108 16.7548 72.1285 16.8489C72.2167 16.99 72.305 17.1311 72.3873 17.2723C72.1873 17.3017 71.9874 17.3311 71.7933 17.3664C71.711 17.2311 71.6287 17.0959 71.5463 16.9665C71.3287 16.99 71.117 16.9959 70.8935 16.9841C70.6759 16.9724 70.4819 16.943 70.3172 16.9018C70.2878 16.6607 70.2525 16.4254 70.2231 16.1843C70.4054 16.2314 70.5936 16.2608 70.7936 16.2725C70.9935 16.2843 71.1699 16.2784 71.3346 16.2549C71.4699 16.2314 71.564 16.2078 71.6051 16.1726C71.6522 16.1373 71.6581 16.102 71.6287 16.0491C71.5934 15.9961 71.5287 15.955 71.4346 15.9432C71.3405 15.9256 71.1935 15.9138 70.9994 15.9138C70.7465 15.9079 70.5289 15.8962 70.3525 15.8726C70.1702 15.8491 69.9938 15.7962 69.8173 15.708C69.6409 15.6197 69.488 15.4786 69.3704 15.2845C69.2351 15.0611 69.1998 14.8552 69.2763 14.6612C69.3527 14.4671 69.5409 14.3201 69.8467 14.2201C69.7585 14.0848 69.6762 13.9437 69.588 13.8084C69.782 13.7731 69.982 13.7437 70.182 13.7143C70.2643 13.8496 70.3525 13.9849 70.4348 14.1201C70.7936 14.0966 71.1288 14.1378 71.4405 14.2319C71.4699 14.4612 71.5052 14.6847 71.5346 14.914C71.1582 14.8199 70.8406 14.7905 70.5819 14.8317C70.329 14.8729 70.2349 14.9493 70.3054 15.0611C70.3407 15.114 70.3995 15.1493 70.4936 15.161C70.5877 15.1728 70.7289 15.1846 70.9229 15.1846C71.1699 15.1846 71.3934 15.2081 71.5757 15.2375C71.7639 15.2669 71.9521 15.3316 72.1344 15.4316C72.3226 15.5315 72.4755 15.6786 72.5931 15.8667C72.7225 16.0785 72.7519 16.2725 72.6755 16.449L72.6696 16.4431Z" fill="#9AC93C" stroke="#6A8B3B" stroke-width="0.5" stroke-linecap="round" stroke-linejoin="round"/>
<path d="M84.5852 37.6972C84.5205 37.8913 84.3441 38.0383 84.0677 38.1441C83.9677 38.1677 83.6795 38.2618 83.4913 38.2618C83.2737 38.2853 83.0503 38.2794 82.8268 38.2618C82.6033 38.2382 82.4034 38.1971 82.2269 38.1383C82.2034 37.9089 82.1799 37.6796 82.1505 37.4502C82.3387 37.509 82.5327 37.5443 82.7386 37.5678C82.9385 37.5855 83.1208 37.5855 83.2796 37.5619C83.4149 37.5384 83.509 37.509 83.5501 37.4796C83.5913 37.4443 83.6031 37.4032 83.5737 37.3561C83.5384 37.3032 83.4737 37.2679 83.3796 37.2502C83.2855 37.2326 83.1444 37.2267 82.9444 37.2208C82.6915 37.215 82.4739 37.1914 82.2857 37.162C82.1034 37.1326 81.9152 37.0679 81.7329 36.968C81.5506 36.868 81.3977 36.721 81.2801 36.5269C81.1448 36.3034 81.1154 36.1035 81.1978 35.9212C81.2801 35.7389 81.4801 35.6095 81.7859 35.5154C81.9623 35.4624 82.0799 35.433 82.374 35.4095C82.7209 35.3801 83.0444 35.3978 83.3443 35.4683C83.3796 35.7036 83.4149 35.9388 83.456 36.1799C83.0914 36.1035 82.7856 36.0858 82.5269 36.127C82.274 36.1682 82.1799 36.2446 82.2446 36.3563C82.2799 36.4093 82.3387 36.4446 82.4328 36.4563C82.5269 36.474 82.668 36.4798 82.8562 36.4798C83.1032 36.4798 83.3149 36.4916 83.4972 36.5093C83.6795 36.5269 83.856 36.5857 84.0383 36.6739C84.2147 36.7621 84.3676 36.9033 84.4852 37.0973C84.6146 37.3091 84.6499 37.5149 84.5793 37.7031L84.5852 37.6972Z" fill="#9AC93C" stroke="#6A8B3B" stroke-width="0.5" stroke-linecap="round" stroke-linejoin="round"/>
<path d="M85.0424 35.1313L84.5381 35.2475L85.0832 37.6143L85.5875 37.4982L85.0424 35.1313Z" fill="#9AC93C" stroke="#6A8B3B" stroke-width="0.5" stroke-linecap="round" stroke-linejoin="round"/>
<path d="M39.1084 74.229C38.9437 74.229 38.7908 74.1643 38.6791 74.0408L15.0495 48.6647C14.9025 48.5059 14.8555 48.2765 14.926 48.0707C14.9966 47.8649 15.1789 47.7178 15.3965 47.6826C28.9638 45.7124 34.4448 35.3797 40.2493 24.4412C45.9361 13.732 51.8112 2.64649 65.9724 0.59405C66.0018 0.59405 66.0312 0.588169 66.0547 0.588169C66.2194 0.588169 66.3723 0.652859 66.484 0.776358L90.1136 26.1525C90.2606 26.3113 90.3076 26.5407 90.2371 26.7465C90.1665 26.9523 89.9842 27.0993 89.7666 27.1346C76.1993 29.1047 70.7183 39.4375 64.9138 50.376C59.227 61.091 53.352 72.1707 39.1907 74.229C39.1613 74.229 39.1319 74.2349 39.1084 74.2349V74.229Z" fill="#9AC93C"/>
<path d="M66.0556 1.17618C73.9302 9.63294 81.8047 18.0956 89.6851 26.5523C61.9566 30.5749 66.8378 69.6183 39.1093 73.6408C31.2347 65.1841 23.3602 56.7214 15.4797 48.2647C43.2083 44.2421 38.333 5.19873 66.0556 1.17618ZM66.0556 0C65.9968 0 65.9439 0 65.8851 0.0117618C51.4298 2.11125 45.4842 13.3262 39.7268 24.1706C33.9929 34.9738 28.5824 45.1772 15.3092 47.1061C14.874 47.1708 14.5153 47.4649 14.3682 47.8824C14.2212 48.2941 14.3212 48.7528 14.6152 49.0762L26.4888 61.832L38.2389 74.4524C38.4624 74.6935 38.7741 74.8288 39.0975 74.8288C39.1563 74.8288 39.2092 74.8288 39.268 74.817C53.7233 72.7175 59.6689 61.5026 65.4264 50.6582C71.1603 39.855 76.5707 29.6516 89.8439 27.7226C90.2791 27.658 90.6378 27.3639 90.7849 26.9464C90.9319 26.5288 90.8319 26.076 90.5379 25.7525L78.5996 12.9321L66.9201 0.376379C66.6966 0.135261 66.385 0 66.0615 0H66.0556Z" fill="#6A8B3B"/>
<path d="M40.1052 71.87C40.0641 71.87 40.0229 71.8524 39.9994 71.823L19.1162 49.3931C19.0809 49.3579 19.0692 49.299 19.0809 49.252C19.0986 49.2049 19.1398 49.1638 19.1868 49.152C31.2897 46.3351 36.7413 36.0611 42.0106 26.1223C47.3094 16.1307 52.7962 5.7979 65.0286 2.94566C65.0403 2.94566 65.0521 2.94566 65.0638 2.94566C65.105 2.94566 65.1403 2.9633 65.1697 2.9927L86.0528 25.4225C86.0881 25.4637 86.0999 25.5166 86.0881 25.5637C86.0705 25.6166 86.0293 25.6519 85.9823 25.6636C73.8793 28.4806 68.4277 38.7546 63.1584 48.6874C57.8597 58.6791 52.3728 69.0119 40.1405 71.8641C40.1288 71.8641 40.117 71.8641 40.1052 71.8641V71.87Z" fill="#7DA43F"/>
<path d="M65.0692 3.09294C72.0322 10.5676 78.9893 18.0481 85.9523 25.5228C61.6112 31.192 64.4517 66.054 40.1047 71.7232C33.1417 64.2486 26.1845 56.7681 19.2215 49.2934C43.5627 43.6242 40.7222 8.76214 65.0692 3.09294ZM65.0692 2.79889C65.0692 2.79889 65.0221 2.79889 65.0045 2.80477C52.7016 5.66878 47.2029 16.031 41.8866 26.052C36.6291 35.9555 31.1951 46.2001 19.1569 49.0052C19.0569 49.0288 18.9745 49.1052 18.9451 49.2052C18.9157 49.3052 18.9451 49.4169 19.0098 49.4934L39.893 71.9232C39.9518 71.982 40.0282 72.0173 40.1106 72.0173C40.1341 72.0173 40.1576 72.0173 40.1752 72.0114C52.4781 69.1474 57.9768 58.7852 63.2931 48.7641C68.5507 38.8607 73.9846 28.6161 86.0229 25.8109C86.1229 25.7874 86.2052 25.7109 86.2346 25.611C86.264 25.511 86.2346 25.3993 86.1699 25.3228L65.2809 2.89299C65.2221 2.83418 65.1456 2.79889 65.0633 2.79889H65.0692Z" fill="#6A8B3B"/>
<path d="M45.822 68.0075C45.7808 68.0075 45.7455 67.9898 45.7161 67.9604C44.6105 66.7725 42.8227 66.0962 40.8114 66.0962C39.847 66.0962 38.859 66.255 37.9415 66.549C37.9239 66.549 37.9121 66.5549 37.8945 66.5549C37.8533 66.5549 37.818 66.5372 37.7886 66.5078L25.6798 53.4993C25.6445 53.464 25.6328 53.411 25.6445 53.364C25.6563 53.3169 25.6916 53.2758 25.7445 53.264C26.9501 52.87 27.7617 52.0996 28.0204 51.0881C28.291 50.0413 27.9263 48.8533 27.0501 47.9124C27.0207 47.8771 27.003 47.8359 27.0148 47.7889C27.0266 47.7418 27.0501 47.7066 27.0854 47.683C34.6541 43.2959 38.9589 35.1743 43.1285 27.3174C47.3157 19.4252 51.6441 11.2625 59.2834 6.83417C59.3069 6.82241 59.3304 6.81653 59.354 6.81653C59.3951 6.81653 59.4304 6.83417 59.4598 6.86358C60.5654 8.05152 62.3532 8.72783 64.3645 8.72783C65.329 8.72783 66.317 8.56904 67.2344 8.275C67.252 8.275 67.2638 8.26912 67.2814 8.26912C67.3226 8.26912 67.3579 8.28676 67.3873 8.31616L79.4961 21.3247C79.5314 21.36 79.5431 21.413 79.5314 21.46C79.5196 21.5071 79.4843 21.5482 79.4314 21.5659C78.2258 21.9599 77.4143 22.7303 77.1555 23.7418C76.885 24.7886 77.2496 25.9766 78.1258 26.9175C78.1553 26.9528 78.1729 26.994 78.1611 27.041C78.1553 27.0881 78.1258 27.1233 78.0906 27.1469C70.5218 31.534 66.217 39.6556 62.0474 47.5125C57.8602 55.4047 53.5319 63.5674 45.8925 67.9957C45.869 68.0075 45.8455 68.0134 45.8161 68.0134L45.822 68.0075Z" fill="#9AC93C"/>
<path d="M59.3537 6.96325C60.5651 8.26294 62.4353 8.87455 64.3701 8.87455C65.3522 8.87455 66.3461 8.71577 67.2811 8.40996C71.3154 12.7442 75.3556 17.0784 79.3899 21.4185C76.6024 22.3242 76.2201 25.0765 78.0256 27.0172C62.8175 35.8268 61.0297 59.0505 45.8276 67.8601C44.6161 66.5605 42.746 65.9489 40.8111 65.9489C39.829 65.9489 38.8351 66.1076 37.9001 66.4134C33.8658 62.0792 29.8256 57.745 25.7913 53.4049C28.5788 52.4992 28.9611 49.7469 27.1556 47.8062C42.3637 38.9966 44.1515 15.7729 59.3537 6.96325ZM59.3537 6.66921C59.3007 6.66921 59.2537 6.68097 59.2066 6.71037C51.532 11.1563 47.1919 19.3367 42.993 27.2465C38.8351 35.0858 34.5362 43.1897 27.0027 47.5533C26.9263 47.6004 26.8734 47.6768 26.8616 47.7651C26.8498 47.8533 26.8734 47.9415 26.938 48.0062C27.7849 48.9118 28.1319 50.0527 27.8731 51.0466C27.6261 52.0052 26.8498 52.7462 25.6913 53.1226C25.5972 53.152 25.5207 53.2284 25.4972 53.3284C25.4737 53.4284 25.4972 53.5284 25.5678 53.6048L36.0005 64.808L37.6766 66.6134C37.7354 66.6722 37.8119 66.7075 37.8942 66.7075C37.9236 66.7075 37.953 66.7075 37.9824 66.6957C38.8822 66.4017 39.8584 66.2488 40.8053 66.2488C42.7812 66.2488 44.5279 66.9133 45.6041 68.066C45.6629 68.1248 45.7393 68.1601 45.8217 68.1601C45.8746 68.1601 45.9216 68.1483 45.9687 68.1189C53.6433 63.6729 57.9834 55.4926 62.1824 47.5828C66.3402 39.7435 70.6391 31.6396 78.1726 27.2759C78.249 27.2289 78.302 27.1524 78.3137 27.0642C78.3255 26.976 78.302 26.8878 78.2373 26.8231C77.3904 25.9174 77.0435 24.7766 77.3022 23.7827C77.5492 22.8241 78.3255 22.0831 79.484 21.7067C79.5781 21.6773 79.6546 21.6009 79.6781 21.5009C79.7016 21.4009 79.6781 21.3009 79.6075 21.2245L67.4987 8.21589C67.4399 8.15708 67.3635 8.1218 67.2811 8.1218C67.2517 8.1218 67.2223 8.12179 67.1929 8.13356C66.2931 8.4276 65.3169 8.58051 64.3701 8.58051C62.3941 8.58051 60.6475 7.91596 59.5713 6.7633C59.5124 6.70449 59.436 6.66921 59.3537 6.66921Z" fill="#6A8B3B"/>
<path d="M58.8655 26.5818C63.335 31.3806 63.9466 39.9079 60.7474 46.177C57.5482 52.4461 50.8557 53.1224 46.3097 48.2412C41.8402 43.4424 41.2286 34.915 44.4279 28.646C47.6271 22.3769 54.3195 21.7006 58.8655 26.5818Z" fill="#7DA43F" stroke="#6A8B3B" stroke-width="0.5" stroke-linecap="round" stroke-linejoin="round"/>
<path d="M57.1304 39.6314C57.3421 40.9428 57.2069 42.3366 56.7129 43.8186C56.3835 44.789 56.2306 45.1359 55.5014 46.3062C55.0074 47.1237 54.4664 47.8176 53.8606 48.3999C53.2608 48.9821 52.6845 49.3761 52.1375 49.5937C51.5612 48.294 50.9907 47.0002 50.4085 45.6946C50.9907 45.4241 51.5553 45.0301 52.0964 44.5008C52.6374 43.9774 53.0844 43.3834 53.4254 42.7365C53.7195 42.1778 53.89 41.7309 53.9253 41.3957C53.9606 41.0605 53.89 40.7958 53.7136 40.6018C53.5078 40.3783 53.2667 40.3665 52.9961 40.5665C52.7256 40.7664 52.3375 41.1604 51.8317 41.7485C51.1789 42.5013 50.5967 43.0835 50.0851 43.4952C49.5676 43.9068 48.9795 44.1127 48.309 44.1127C47.6386 44.1127 46.9447 43.7186 46.2272 42.9482C45.398 42.0543 44.8805 40.937 44.6805 39.5785C44.4806 38.2259 44.657 36.785 45.2216 35.256C45.4686 34.5209 46.1449 33.2447 46.4742 32.8154C47.3034 31.5628 48.2032 30.7101 49.1677 30.2572C49.7558 31.5216 50.3438 32.7919 50.9319 34.0563C49.8028 34.6914 48.9677 35.5383 48.4149 36.591C47.8621 37.6319 47.7974 38.3729 48.215 38.8198C48.4149 39.0315 48.6443 39.0374 48.9089 38.8375C49.1735 38.6375 49.5499 38.2435 50.038 37.6554C50.6673 36.8968 51.2377 36.3028 51.7611 35.8794C52.2845 35.456 52.8785 35.2384 53.5489 35.2325C54.2194 35.2266 54.9133 35.6089 55.6308 36.3793C56.4247 37.232 56.9246 38.3141 57.1422 39.6255L57.1304 39.6314Z" fill="#9AC93C" stroke="#6A8B3B" stroke-width="0.5" stroke-linecap="round" stroke-linejoin="round"/>
<path d="M26.1742 50.9519C26.1448 51.1519 26.0096 51.3342 25.7567 51.493C25.3685 51.6871 24.7863 51.8282 24.5629 51.8459C24.3394 51.8694 24.1336 51.8635 23.9512 51.8459C23.8807 51.6283 23.8101 51.4048 23.7454 51.1813C23.9395 51.1989 24.1394 51.1989 24.3453 51.1813C24.5452 51.1637 24.7275 51.1225 24.8745 51.0637C25.0039 51.0166 25.0863 50.9696 25.1215 50.9284C25.1568 50.8873 25.1568 50.8461 25.1215 50.8049C25.0745 50.7579 25.0098 50.7344 24.9157 50.7402C24.8216 50.7402 24.6746 50.7638 24.4805 50.799C24.2276 50.8402 24.0101 50.8637 23.8277 50.8696C23.6396 50.8755 23.4455 50.852 23.2455 50.7873C23.0456 50.7285 22.8692 50.6109 22.7163 50.4462C22.5398 50.2521 22.4751 50.0639 22.5222 49.8699C22.5692 49.6758 22.8339 49.3112 23.5749 49.1347C23.9101 49.0348 24.2335 48.9877 24.5393 48.9995C24.6217 49.223 24.704 49.4464 24.7863 49.6758C24.4158 49.6758 24.11 49.717 23.863 49.8111C23.6219 49.8993 23.5455 49.9934 23.6337 50.0875C23.6748 50.1345 23.7454 50.1521 23.8395 50.1521C23.9336 50.1521 24.0747 50.1286 24.2629 50.0933C24.5041 50.0463 24.7158 50.011 24.8981 49.9992C25.0804 49.9816 25.2686 49.9992 25.4568 50.0522C25.6508 50.1051 25.8214 50.211 25.9743 50.3756C26.1448 50.5579 26.2154 50.752 26.186 50.9519H26.1742Z" fill="#9AC93C" stroke="#6A8B3B" stroke-width="0.5" stroke-linecap="round" stroke-linejoin="round"/>
<path d="M42.9167 68.936C42.8873 69.136 42.752 69.3183 42.4991 69.477C42.405 69.5241 42.1404 69.6711 41.9522 69.7064C41.7464 69.7711 41.5288 69.8123 41.2994 69.8358C41.076 69.8593 40.8701 69.8534 40.6878 69.8358C40.6172 69.6182 40.5467 69.3947 40.482 69.1712C40.6761 69.1889 40.876 69.1889 41.0818 69.1712C41.2818 69.1536 41.4641 69.1124 41.6111 69.0536C41.7405 69.0066 41.8228 68.9595 41.8581 68.9184C41.8934 68.8772 41.8934 68.836 41.8581 68.7949C41.8111 68.7478 41.7464 68.7243 41.6523 68.7302C41.5582 68.7302 41.4112 68.7537 41.2171 68.789C40.9642 68.8301 40.7466 68.8537 40.5643 68.8595C40.3761 68.8654 40.1821 68.8419 39.9821 68.7772C39.7822 68.7184 39.6057 68.6008 39.4528 68.4361C39.2764 68.2421 39.2117 68.0539 39.2588 67.8598C39.3058 67.6657 39.4705 67.4952 39.7586 67.3423C39.9233 67.2541 40.0292 67.2011 40.3114 67.1247C40.6467 67.0247 40.9701 66.9777 41.2759 66.9894C41.3582 67.2129 41.4406 67.4364 41.5229 67.6657C41.1524 67.6657 40.8466 67.7069 40.5996 67.801C40.3585 67.8892 40.282 67.9833 40.3702 68.0774C40.4114 68.1244 40.482 68.1421 40.5761 68.1421C40.6702 68.1421 40.8113 68.1186 40.9995 68.0833C41.2406 68.0362 41.4523 68.0009 41.6346 67.9892C41.817 67.9715 42.0051 67.9892 42.1933 68.0421C42.3874 68.095 42.5579 68.2009 42.7108 68.3656C42.8814 68.5479 42.952 68.7419 42.9226 68.9419L42.9167 68.936Z" fill="#9AC93C" stroke="#6A8B3B" stroke-width="0.5" stroke-linecap="round" stroke-linejoin="round"/>
<path d="M54.0591 25.2264L52.2059 26.0379L59.2597 42.145L61.1128 41.3335L54.0591 25.2264Z" fill="#9AC93C" stroke="#6A8B3B" stroke-width="0.5" stroke-linecap="round" stroke-linejoin="round"/>
<path d="M82.0011 24.5291C82.0011 24.7349 81.8835 24.929 81.6482 25.1172C81.56 25.176 81.3189 25.3524 81.1366 25.4054C80.9366 25.4936 80.7249 25.5642 80.5073 25.6112C80.2838 25.6583 80.0839 25.6818 79.9016 25.6818C79.8075 25.4701 79.7134 25.2583 79.6134 25.0525C79.8075 25.0525 80.0074 25.0231 80.2074 24.9761C80.4073 24.929 80.5779 24.8702 80.719 24.7996C80.8425 24.7349 80.919 24.682 80.9484 24.635C80.9778 24.5879 80.9719 24.5468 80.9307 24.5115C80.8837 24.4703 80.8072 24.4585 80.7132 24.4703C80.6191 24.488 80.4779 24.5232 80.2897 24.5762C80.0486 24.6467 79.831 24.6997 79.6487 24.7291C79.4664 24.7585 79.2723 24.7526 79.0606 24.7173C78.8548 24.682 78.6666 24.5879 78.4902 24.4409C78.2902 24.2704 78.202 24.088 78.2255 23.894C78.249 23.694 78.3961 23.5058 78.6548 23.3235C78.8077 23.2177 78.9077 23.153 79.1782 23.0412C79.5017 22.9001 79.8134 22.8178 80.1192 22.7942C80.2309 23.006 80.3368 23.2177 80.4426 23.4353C80.0721 23.4764 79.7722 23.5588 79.5428 23.6764C79.3135 23.794 79.2488 23.894 79.3488 23.9822C79.3958 24.0234 79.4664 24.0351 79.5605 24.0234C79.6546 24.0057 79.7898 23.9704 79.9721 23.9116C80.2074 23.8352 80.4132 23.7764 80.5896 23.7411C80.7661 23.7058 80.9543 23.6999 81.1542 23.7234C81.3542 23.7528 81.5365 23.8352 81.707 23.9822C81.8952 24.141 81.9952 24.3233 81.9893 24.5291H82.0011Z" fill="#9AC93C" stroke="#6A8B3B" stroke-width="0.5" stroke-linecap="round" stroke-linejoin="round"/>
<path d="M81.6329 21.9509L81.1906 22.2195L82.4509 24.2957L82.8933 24.0271L81.6329 21.9509Z" fill="#9AC93C" stroke="#6A8B3B" stroke-width="0.5" stroke-linecap="round" stroke-linejoin="round"/>
<path d="M65.2165 7.22157C65.1871 7.42152 65.0518 7.60383 64.7989 7.76261C64.7048 7.80966 64.4402 7.95668 64.252 7.99197C64.0462 8.05666 63.8286 8.09783 63.5992 8.12135C63.3758 8.14487 63.1699 8.13899 62.9876 8.12135C62.9171 7.90376 62.8465 7.68028 62.7818 7.45681C62.9759 7.47445 63.1758 7.47445 63.3816 7.45681C63.5816 7.43916 63.7639 7.398 63.9109 7.33919C64.0403 7.29214 64.1226 7.24509 64.1579 7.20393C64.1932 7.16276 64.1932 7.12159 64.1579 7.08043C64.1109 7.03338 64.0462 7.00986 63.9521 7.01574C63.858 7.01574 63.711 7.03926 63.5169 7.07455C63.264 7.11571 63.0464 7.13924 62.8641 7.14512C62.6759 7.151 62.4819 7.12748 62.2819 7.06279C62.082 7.00398 61.9055 6.88636 61.7526 6.72169C61.5762 6.52762 61.5115 6.33943 61.5586 6.14536C61.6056 5.95129 61.7703 5.78075 62.0584 5.62784C62.2231 5.53963 62.329 5.4867 62.6112 5.41025C62.9465 5.31027 63.2699 5.26322 63.5757 5.27499C63.658 5.49846 63.7404 5.72194 63.8227 5.95129C63.4522 5.95129 63.1464 5.99246 62.8994 6.08655C62.6583 6.17477 62.5818 6.26886 62.6701 6.36296C62.7112 6.41 62.7818 6.42765 62.8759 6.42765C62.97 6.42765 63.1111 6.40412 63.2993 6.36884C63.5404 6.32179 63.7521 6.2865 63.9344 6.27474C64.1168 6.2571 64.3049 6.27474 64.4931 6.32767C64.6872 6.3806 64.8578 6.48646 65.0107 6.65112C65.1812 6.83343 65.2518 7.0275 65.2224 7.22745L65.2165 7.22157Z" fill="#9AC93C" stroke="#6A8B3B" stroke-width="0.5" stroke-linecap="round" stroke-linejoin="round"/>
<path d="M65.1626 4.61533L64.691 4.82846L65.6913 7.04175L66.1629 6.82862L65.1626 4.61533Z" fill="#9AC93C" stroke="#6A8B3B" stroke-width="0.5" stroke-linecap="round" stroke-linejoin="round"/>
<path d="M28.4976 18.8662H25.6336C19.4468 18.8486 14.4186 23.8532 14.4069 30.04C14.3951 36.2267 19.3998 41.2549 25.5865 41.2666H28.4505L28.4976 18.8662Z" fill="#F5AB1C"/>
<path d="M38.8895 33.7334C40.9121 27.886 37.8114 21.5061 31.964 19.4835C26.1166 17.461 19.7367 20.5616 17.7142 26.4091C15.6916 32.2565 18.7923 38.6363 24.6397 40.6589C30.4871 42.6815 36.867 39.5808 38.8895 33.7334Z" fill="#F7CB11"/>
<path d="M28.2863 39.1315C23.2816 39.1197 19.2356 35.056 19.2473 30.0514C19.2591 25.0467 23.3228 21.0006 28.3275 21.0124C33.3321 21.0242 37.3782 25.0879 37.3664 30.0925C37.3547 35.0972 33.291 39.1433 28.2863 39.1315Z" fill="#F5AB1C"/>
<path d="M28.2863 39.1259C28.0393 39.1259 27.7864 39.1141 27.5453 39.0906C32.203 38.726 35.8727 34.8387 35.8844 30.0811C35.8962 25.3293 32.2383 21.4243 27.5806 21.0362C27.8276 21.0127 28.0746 21.0068 28.3216 21.0068C33.3262 21.0186 37.3723 25.0823 37.3605 30.0811C37.3488 35.0857 33.2851 39.1318 28.2863 39.12V39.1259Z" fill="#DD9A27"/>
<path d="M29.4861 33.8743C28.9744 34.4741 28.2452 34.8682 27.2984 35.0563L25.5106 35.1269C24.8754 35.0857 24.2697 34.974 23.6934 34.7917C23.117 34.6094 22.6348 34.38 22.2584 34.1095L23.2288 31.6336C23.6522 31.9101 24.1227 32.1394 24.6461 32.3041C25.1695 32.4746 25.6694 32.557 26.1516 32.557C26.5633 32.557 26.8632 32.5099 27.0396 32.4217C27.216 32.3335 27.3042 32.1923 27.3042 32.01C27.3042 31.7983 27.1866 31.6395 26.9573 31.5337C26.722 31.4278 26.3457 31.3102 25.8105 31.1867C25.1283 31.022 24.5579 30.8456 24.0991 30.6574C23.6404 30.4692 23.2464 30.1634 22.9112 29.7341C22.576 29.3048 22.4054 28.7285 22.4054 27.9992C22.4054 27.1524 22.676 26.429 23.217 25.8233C23.7522 25.2176 24.5285 24.8353 25.5341 24.6765L27.3219 24.653C28.3334 24.7589 29.192 25.0411 29.8919 25.494L28.9862 27.9581C28.1158 27.4582 27.2925 27.2053 26.5162 27.2053C25.7458 27.2053 25.3635 27.417 25.3635 27.8346C25.3635 28.0345 25.4753 28.1874 25.7046 28.2874C25.934 28.3874 26.3104 28.4991 26.8338 28.6167C27.5101 28.7638 28.0805 28.9284 28.5451 29.1166C29.0097 29.3048 29.4096 29.6106 29.7507 30.034C30.0918 30.4575 30.2623 31.0338 30.2623 31.763C30.2623 32.5687 30.0036 33.2744 29.492 33.8743H29.4861Z" fill="#F7CB11"/>
<path d="M34.3354 25.2163L33.053 24.8249L29.6252 36.0577L30.9077 36.4491L34.3354 25.2163Z" fill="#F7CB11"/>
<path d="M25.88 47.8577L25.4084 48.0708L26.7187 50.9701L27.1903 50.7569L25.88 47.8577Z" fill="#9AC93C" stroke="#6A8B3B" stroke-width="0.5" stroke-linecap="round" stroke-linejoin="round"/>
<path d="M42.8822 66.5334L42.4106 66.7466L43.4109 68.9599L43.8825 68.7467L42.8822 66.5334Z" fill="#9AC93C" stroke="#6A8B3B" stroke-width="0.5" stroke-linecap="round" stroke-linejoin="round"/>
</svg>
