<svg width="24" height="19" viewBox="0 0 24 19" fill="none" xmlns="http://www.w3.org/2000/svg">
<path d="M15.3611 9.46609C15.3611 11.6253 13.9059 13.4468 12 13.4468C10.0941 13.4468 8.63889 11.6253 8.63889 9.46609C8.63889 7.34101 10.0941 5.51952 12 5.51952C13.9059 5.51952 15.3611 7.34101 15.3611 9.46609ZM12 12.8396C13.4705 12.8396 14.75 11.3976 14.75 9.46609C14.75 7.5687 13.4705 6.12668 12 6.12668C10.5295 6.12668 9.25 7.5687 9.25 9.46609C9.25 11.3976 10.5295 12.8396 12 12.8396ZM21.7778 5.51952C21.7778 5.72064 21.6403 5.8231 21.4722 5.8231H21.1667C19.6465 5.8231 18.4167 4.63533 18.4167 3.09086V2.78727C18.4167 2.6537 18.5542 2.48369 18.7222 2.48369C18.8903 2.48369 19.0278 2.6537 19.0278 2.78727V3.09086C19.0278 4.2976 19.9865 5.21593 21.1667 5.21593H21.4722C21.6403 5.21593 21.7778 5.3867 21.7778 5.51952ZM2.52778 7.94817C2.35896 7.94817 2.22222 7.84571 2.22222 7.64459C2.22222 7.51177 2.35896 7.34101 2.52778 7.34101H2.83333C4.01469 7.34101 4.97222 6.42267 4.97222 5.21593V4.91235C4.97222 4.77953 5.10972 4.60877 5.27778 4.60877C5.44583 4.60877 5.58333 4.77953 5.58333 4.91235V5.21593C5.58333 6.76041 4.35194 7.94817 2.83333 7.94817H2.52778ZM21.4722 11.5912H21.1667C19.9865 11.5912 19.0278 12.5778 19.0278 13.7504V14.054C19.0278 14.2209 18.8903 14.3576 18.7222 14.3576C18.5542 14.3576 18.4167 14.2209 18.4167 14.054V13.7504C18.4167 12.2401 19.6465 10.984 21.1667 10.984H21.4722C21.6403 10.984 21.7778 11.1548 21.7778 11.2876C21.7778 11.4887 21.6403 11.5912 21.4722 11.5912ZM2.83333 13.1432C4.35194 13.1432 5.58333 14.3651 5.58333 15.8755V16.1791C5.58333 16.346 5.44583 16.4826 5.27778 16.4826C5.10972 16.4826 4.97222 16.346 4.97222 16.1791V15.8755C4.97222 14.7029 4.01469 13.7504 2.83333 13.7504H2.52778C2.35896 13.7504 2.22222 13.6138 2.22222 13.4468C2.22222 13.2798 2.35896 13.1432 2.52778 13.1432H2.83333ZM1 15.811V4.05473C1 3.1474 1.97816 2.54934 2.85854 2.78841C5.90417 3.61454 8.95208 2.84382 12 2.07196C15.3229 1.23066 18.6458 0.388973 21.9688 1.62152C22.6142 1.86097 23 2.50342 23 3.188V14.9457C23 15.8527 22.0222 16.4523 21.1399 16.2132C18.0958 15.3859 15.0479 16.1563 12 16.9266C8.64271 17.7691 5.31979 18.6115 2.0301 17.3782C1.38424 17.1391 1 16.4978 1 15.811ZM2.24361 16.809C5.22813 17.9171 8.23021 17.253 11.4347 16.4105C11.5875 16.3726 11.7403 16.3346 11.8931 16.327C14.8684 15.5643 18.0958 14.756 21.3042 15.625C21.8847 15.7844 22.3889 15.3632 22.3889 14.9457V3.188C22.3889 2.71593 22.1253 2.32773 21.7549 2.19035C18.7719 1.08418 15.7698 1.74788 12.5653 2.55579C12.4125 2.59412 12.2597 2.63283 12.1069 2.67153C9.09722 3.43428 5.90417 4.24447 2.69736 3.37395C2.11604 3.21608 1.61111 3.6373 1.61111 4.05473V15.811C1.61111 16.2853 1.87313 16.6724 2.24361 16.809Z" fill="#fff" stroke="#fff" stroke-width="0.5"/>
</svg>
