<svg width="24" height="22" viewBox="0 0 24 22" fill="none" xmlns="http://www.w3.org/2000/svg">
<g clip-path="url(#clip0_9687_136796)">
<path d="M15.6667 10.6297C15.6667 13.0006 14.0792 15.0006 12 15.0006C9.92083 15.0006 8.33333 13.0006 8.33333 10.6297C8.33333 8.29641 9.92083 6.29641 12 6.29641C14.0792 6.29641 15.6667 8.29641 15.6667 10.6297ZM12 14.3339C13.6042 14.3339 15 12.7506 15 10.6297C15 8.54641 13.6042 6.96308 12 6.96308C10.3958 6.96308 9 8.54641 9 10.6297C9 12.7506 10.3958 14.3339 12 14.3339ZM22.6667 6.29641C22.6667 6.51724 22.5167 6.62974 22.3333 6.62974H22C20.3417 6.62974 19 5.32558 19 3.62974V3.29641C19 3.14974 19.15 2.96308 19.3333 2.96308C19.5167 2.96308 19.6667 3.14974 19.6667 3.29641V3.62974C19.6667 4.95474 20.7125 5.96308 22 5.96308H22.3333C22.5167 5.96308 22.6667 6.15058 22.6667 6.29641ZM1.66667 8.96308C1.4825 8.96308 1.33333 8.85058 1.33333 8.62974C1.33333 8.48391 1.4825 8.29641 1.66667 8.29641H2C3.28875 8.29641 4.33333 7.28808 4.33333 5.96308V5.62974C4.33333 5.48391 4.48333 5.29641 4.66667 5.29641C4.85 5.29641 5 5.48391 5 5.62974V5.96308C5 7.65891 3.65667 8.96308 2 8.96308H1.66667ZM22.3333 12.9631H22C20.7125 12.9631 19.6667 14.0464 19.6667 15.3339V15.6672C19.6667 15.8506 19.5167 16.0006 19.3333 16.0006C19.15 16.0006 19 15.8506 19 15.6672V15.3339C19 13.6756 20.3417 12.2964 22 12.2964H22.3333C22.5167 12.2964 22.6667 12.4839 22.6667 12.6297C22.6667 12.8506 22.5167 12.9631 22.3333 12.9631ZM2 14.6672C3.65667 14.6672 5 16.0089 5 17.6672V18.0006C5 18.1839 4.85 18.3339 4.66667 18.3339C4.48333 18.3339 4.33333 18.1839 4.33333 18.0006V17.6672C4.33333 16.3797 3.28875 15.3339 2 15.3339H1.66667C1.4825 15.3339 1.33333 15.1839 1.33333 15.0006C1.33333 14.8172 1.4825 14.6672 1.66667 14.6672H2ZM0 17.5964V4.68808C0 3.69183 1.06708 3.03516 2.0275 3.29766C5.35 4.20474 8.675 3.35849 12 2.51099C15.625 1.58724 19.25 0.663077 22.875 2.01641C23.5792 2.27933 24 2.98474 24 3.73641V16.6464C24 17.6422 22.9333 18.3006 21.9708 18.0381C18.65 17.1297 15.325 17.9756 12 18.8214C8.3375 19.7464 4.7125 20.6714 1.12375 19.3172C0.419167 19.0547 1.25e-05 18.3506 1.25e-05 17.5964H0ZM1.35667 18.6922C4.6125 19.9089 7.8875 19.1797 11.3833 18.2547C11.55 18.2131 11.7167 18.1714 11.8833 18.1631C15.1292 17.3256 18.65 16.4381 22.15 17.3922C22.7833 17.5672 23.3333 17.1047 23.3333 16.6464V3.73641C23.3333 3.21808 23.0458 2.79183 22.6417 2.64099C19.3875 1.42641 16.1125 2.15516 12.6167 3.04224C12.45 3.08433 12.2833 3.12683 12.1167 3.16933V3.16974C8.83333 4.00724 5.35 4.89641 1.85167 3.94058C1.2175 3.76724 0.666667 4.22974 0.666667 4.68808V17.5964C0.666667 18.1172 0.9525 18.5422 1.35667 18.6922Z" fill="#665F59" stroke="#665F59" stroke-width="0.7" stroke-linejoin="round"/>
</g>
<defs>
<clipPath id="clip0_9687_136796">
<rect width="24" height="21.3333" fill="white"/>
</clipPath>
</defs>
</svg>
