<svg width="75" height="65" viewBox="0 0 75 65" fill="none" xmlns="http://www.w3.org/2000/svg">
<path d="M66.6582 17.433C60.5433 10.5757 45.3366 11.0293 30.7114 18.9847C16.0862 26.9341 7.08082 39.64 9.04427 48.7532L8.20361 47.8938L9.95978 51.3613C14.5834 60.4983 31.3736 60.8206 47.4612 52.0774C63.5489 43.3343 72.8365 28.8379 68.2128 19.6949L66.4567 16.2274L66.664 17.433H66.6582Z" fill="#CC8100"/>
<path d="M45.8747 48.9305C61.9601 40.1847 71.2505 25.6863 66.6254 16.5474C62.0002 7.40853 45.2108 7.08986 29.1254 15.8357C13.0399 24.5814 3.74946 39.0798 8.37465 48.2187C12.9998 57.3576 29.7892 57.6763 45.8747 48.9305Z" fill="#FFA100"/>
<path d="M47.4621 21.8909L46.0802 20.2855C44.445 18.6443 42.7867 17.7551 41.0593 17.5283C39.3953 17.3135 37.8349 17.6178 36.3263 18.4354C35.1286 19.086 34.2822 19.8439 33.7928 20.7152C33.2919 21.6045 33.027 22.5295 33.0097 23.4963C32.9924 24.493 33.1076 25.7224 33.3609 27.2025L33.7179 29.3689C33.8734 30.4968 33.9195 31.5054 33.8619 32.3827C33.8907 32.4305 33.9137 32.4782 33.9425 32.52C33.9137 32.4723 33.8907 32.4305 33.8619 32.3827C33.8389 32.7349 33.8043 33.075 33.741 33.3794C33.5279 34.4954 32.8946 35.3489 31.8351 35.9278C30.8044 36.4888 29.8025 36.5365 28.8467 36.0829C27.9197 35.6413 27.1539 34.6804 26.5608 33.2541L25.9102 31.2488C25.628 30.0075 25.5532 28.7721 25.6683 27.5307C25.7835 26.3371 26.0541 25.2808 26.486 24.3498L23.9582 24.678C23.4631 25.6747 23.1348 26.8623 22.9851 28.2588C22.8297 29.715 22.8873 31.207 23.1752 32.7349L23.6934 34.8117C24.5628 37.3422 25.8871 39.1087 27.6663 39.9562C29.5319 40.8514 31.5127 40.7619 33.5337 39.6697C35.1689 38.7805 36.2802 37.6287 36.8675 36.25C37.4318 34.9013 37.6679 33.5465 37.5815 32.1858C37.5009 30.8788 37.2591 29.357 36.8733 27.6501L36.4069 25.5434C36.1305 24.2543 36.0902 23.2218 36.2687 22.4102C36.4414 21.6164 36.9539 20.9957 37.8176 20.5243C38.6583 20.0647 39.5392 19.9215 40.4778 20.0886C41.4393 20.2617 42.3894 20.8107 43.3452 21.7775L44.6292 23.4367C45.7578 25.1674 46.3624 27.2323 46.3854 29.6673L50.1856 29.1779C50.1741 27.9366 49.9035 26.6534 49.3968 25.3464C48.9131 24.0931 48.2625 22.9473 47.4564 21.8969L47.4621 21.8909Z" fill="#CC8100"/>
<path d="M56.9733 32.6033L56.6682 30.4429L24.7634 46.1448L26.1856 47.7562L56.9733 32.6033Z" fill="#CC8100"/>
</svg>
