<svg width="107" height="87" viewBox="0 0 107 87" fill="none" xmlns="http://www.w3.org/2000/svg">
<path d="M64.1524 38.5561C63.512 38.3202 63.1659 37.6195 63.457 37.0023C64.8002 34.1544 68.1825 30.3069 74.0151 31.0003C75.9094 31.2096 77.4206 31.522 78.6122 31.7656C82.1595 32.4373 83.1183 32.644 85.8576 29.8908C87.589 28.1344 89.2753 27.4364 90.7707 27.7919C91.9114 28.075 92.6408 28.8841 93.0779 29.5888C93.4488 30.1868 93.0682 30.9192 92.3954 31.1254C91.7492 31.3235 91.0994 30.908 90.5827 30.4723C90.457 30.3662 90.3153 30.286 90.1593 30.2541C89.5634 30.1323 88.6431 30.6239 87.6034 31.7067C83.9313 35.3867 81.8518 35.0114 78.1309 34.2758C76.8959 34.0162 75.5149 33.7517 73.7074 33.5744C69.0906 33.0232 66.7968 36.0758 65.8683 37.8328C65.5385 38.4569 64.8147 38.8002 64.1524 38.5561Z" fill="#CA005D"/>
<path d="M82.3056 58.2886C82.0316 58.5552 81.7264 58.5772 81.4255 58.3414C80.6163 57.707 80.4953 56.4517 81.2972 55.8082C82.2306 55.0594 83.57 54.2434 85.127 54.0745C86.653 53.937 88.0866 54.3955 89.3815 55.4959C90.3526 56.3212 91.2775 56.688 91.8786 56.5504C91.9142 56.5429 91.9488 56.5336 91.9825 56.523C92.6237 56.3193 93.3405 55.9392 93.9572 56.2082C94.6114 56.4936 94.9044 57.2882 94.4229 57.8151C93.9899 58.289 93.3545 58.7804 92.4798 58.9805C91.0463 59.3014 89.4739 58.7971 87.8091 57.3757C87.023 56.7338 86.2368 56.4587 85.4044 56.5504C84.0731 56.7114 82.9014 57.7088 82.3056 58.2886Z" fill="#CA005D"/>
<path d="M64.0733 20.5261C63.9262 19.8742 64.2203 19.16 64.8372 18.9031C65.4822 18.6345 66.2543 18.9584 66.4271 19.6353C66.7304 20.8238 66.9855 22.6901 66.2617 24.4126C65.6605 25.834 64.5506 26.8427 62.9783 27.4387C61.776 27.8972 61.0361 28.4933 60.8511 29.0893C60.8073 29.2411 60.7998 29.3902 60.8138 29.5302C60.8705 30.0989 60.8615 30.5763 60.4066 30.9225C59.6803 31.4751 58.6811 31.349 58.4456 30.4673C58.2946 29.9022 58.2359 29.2062 58.4464 28.4474C58.8626 27.0261 60.0649 25.9257 62.0997 25.1004C63.0246 24.7336 63.672 24.1834 63.9957 23.4039C64.3736 22.4547 64.2574 21.3422 64.0733 20.5261Z" fill="#FFA100"/>
<path d="M73.1929 8.80129C72.6176 8.33278 72.3679 7.51527 72.7129 6.85845C73.0205 6.273 73.6834 6.05701 74.2254 6.43591C75.2364 7.14266 76.7408 8.46197 77.3155 10.2912C77.7779 11.7584 77.5929 13.2256 76.8068 14.6928C76.2056 15.8391 75.9744 16.7561 76.2518 17.3063C76.2656 17.3359 76.2806 17.3645 76.2965 17.3922C76.6359 17.9805 77.1481 18.6162 76.9969 19.2783C76.8416 19.9581 76.1451 20.3926 75.5383 20.0494C74.9695 19.7277 74.3295 19.2021 73.9396 18.3608C73.3384 17.0312 73.5234 15.3806 74.5408 13.5007C75.0032 12.6296 75.142 11.8043 74.8645 11.0248C74.5757 10.0942 73.836 9.32501 73.1929 8.80129Z" fill="#CA005D"/>
<path d="M30.8212 24.0735C31.4599 23.9289 32.1588 24.2097 32.4244 24.8083C32.7135 25.4595 32.3909 26.259 31.7018 26.4403C30.5021 26.756 28.6325 27.0298 26.906 26.3451C25.4725 25.7949 24.4089 24.6945 23.7614 23.1815C23.2527 21.9894 22.6516 21.2558 22.0504 21.1182C21.6268 20.9982 20.2449 20.7247 19.9743 20.3774L19.597 19.8933C19.3873 19.6243 19.4258 19.2536 19.7232 19.0867C20.3268 18.7479 21.4129 18.3274 22.6516 18.6423C24.0851 19.0091 25.2413 20.2012 26.0736 22.1728C26.4436 23.0898 27.0448 23.6858 27.8309 24.0068C28.8317 24.3884 29.9892 24.2618 30.8212 24.0735Z" fill="#CA005D"/>
<path d="M69.2224 43.2409L65.9737 45.8278C65.437 46.2551 65.352 47.0337 65.7838 47.5668C66.2156 48.0999 67.0008 48.1856 67.5374 47.7583L70.7861 45.1714C71.3228 44.744 71.4078 43.9654 70.976 43.4324C70.5442 42.8993 69.7591 42.8136 69.2224 43.2409Z" fill="#FFA100"/>
<path d="M84.1003 47.0087L79.9171 46.9934C79.2333 46.991 78.677 47.5432 78.6745 48.2269C78.672 48.9106 79.2242 49.4669 79.9079 49.4694L84.0911 49.4846C84.7748 49.4871 85.3312 48.9349 85.3337 48.2512C85.3362 47.5675 84.784 47.0112 84.1003 47.0087Z" fill="#FFA100"/>
<path d="M47.8903 81.4734L43.7071 81.4583C43.0234 81.4558 42.4671 82.008 42.4645 82.6917C42.462 83.3754 43.0142 83.9317 43.6979 83.9342L47.8812 83.9494C48.5649 83.9518 49.1212 83.3996 49.1237 82.7159C49.1262 82.0322 48.574 81.4759 47.8903 81.4734Z" fill="#CA005D"/>
<path d="M68.2444 85.7809C67.5536 85.6564 67.0901 85.0013 67.2025 84.3085L67.8596 80.2578C67.9722 79.5638 68.6271 79.0931 69.3208 79.2078C70.0078 79.3213 70.4754 79.9666 70.3694 80.6548L69.7445 84.7105C69.6343 85.4256 68.9564 85.9093 68.2444 85.7809Z" fill="#FFA100"/>
<path d="M19.1488 5.11304L17.9138 1.19056C17.7069 0.533286 17.0055 0.165627 16.3472 0.369371C15.6889 0.573114 15.323 1.27111 15.53 1.92838L16.765 5.85086C16.9719 6.50813 17.6733 6.87579 18.3316 6.67205C18.9899 6.4683 19.3558 5.77031 19.1488 5.11304Z" fill="#FFA100"/>
<path d="M52.6501 24.0388L52.501 19.936C52.476 19.2469 51.897 18.7082 51.2078 18.7328C50.5186 18.7574 49.9803 19.336 50.0053 20.0252L50.1544 24.128C50.1794 24.8171 50.7584 25.3559 51.4476 25.3312C52.1367 25.3066 52.6751 24.728 52.6501 24.0388Z" fill="#FFA100"/>
<path d="M79.7668 70.2938L75.613 69.8065C74.9338 69.7269 74.3176 70.2127 74.2366 70.8917C74.1555 71.5707 74.6404 72.1857 75.3195 72.2653L79.4734 72.7526C80.1525 72.8323 80.7688 72.3465 80.8498 71.6675C80.9308 70.9885 80.4459 70.3735 79.7668 70.2938Z" fill="#FFA100"/>
<path d="M94.0012 41.6697C93.447 42.0417 92.7311 42.1296 92.1999 41.7255C91.6128 41.2787 91.5149 40.4502 92.0934 39.9924C93.4968 38.8817 96.4314 37.3763 100.849 39.0832C103.161 40.0002 103.439 39.5417 103.947 38.6247C104.288 38.0176 104.753 37.2121 105.675 36.792C106.287 36.5127 106.882 37.0786 106.907 37.7516C106.932 38.4222 106.479 39.2491 106.121 39.8168C105.196 41.3757 103.901 42.9346 99.8779 41.3757C96.9845 40.2223 95.0338 40.9766 94.0012 41.6697Z" fill="#CA005D"/>
<path d="M96.6405 25.3077C96.0699 25.6874 95.3237 25.4455 95.005 24.8388C94.6824 24.2248 94.9218 23.4705 95.4807 23.0598C96.2386 22.5027 96.8128 21.8937 96.7805 21.5742C96.7805 21.4367 96.4568 20.9782 95.0695 20.4738C94.0984 20.107 92.7573 19.511 92.5261 18.2272C92.2486 16.76 93.4972 15.6595 94.977 14.3299C96.8268 12.6793 99.0927 10.6619 98.769 7.81916C98.5841 6.3061 98.0291 5.25155 97.058 4.51795C95.6972 3.52072 93.8066 3.42409 92.6087 3.48392C91.94 3.51732 91.3719 3.12505 91.2467 2.46734C91.1083 1.74009 91.5695 1.06314 92.3086 1.0213C93.867 0.93309 96.5081 1.06032 98.5378 2.54639C100.11 3.69264 101.035 5.3891 101.266 7.58991C101.729 11.6706 98.6765 14.4216 96.6418 16.2097C96.362 16.464 96.0352 16.7533 95.7443 17.0246C95.3593 17.3838 95.4587 17.9413 95.9481 18.1355C98.0754 18.9149 99.2315 20.0153 99.324 21.4367C99.4227 23.1337 97.8111 24.5288 96.6405 25.3077Z" fill="#FFA100"/>
<path d="M35.4156 12.9298C34.7827 12.86 34.347 12.3232 34.5366 11.7154C34.8474 10.7188 35.5485 9.28148 37.0784 8.45151C38.8819 7.4428 41.2404 7.67206 44.0613 9.04756C45.2174 9.59776 46.1423 9.82701 46.6509 9.59776C47.2521 9.36851 47.6683 8.40566 48.0845 7.35111C48.8244 5.56295 49.888 2.90364 53.3101 3.31629C55.2524 3.54554 57.7958 4.73765 58.8132 9.04756C59.0972 10.2443 59.1874 11.4049 59.2078 12.2653C59.2258 13.0253 58.5314 13.6207 57.7741 13.5537C57.1059 13.4945 56.6283 12.9358 56.614 12.2651C56.5701 10.2106 56.0862 6.16924 52.9402 5.7922C51.5528 5.6088 51.1829 6.29655 50.3505 8.26811C49.7956 9.68946 49.1481 11.2942 47.4833 11.8903C46.281 12.3488 44.7549 12.1195 42.9052 11.2484C40.9166 10.2855 39.2981 10.0563 38.2807 10.6065C37.7819 10.8813 37.4454 11.3244 37.2212 11.7604C36.8811 12.4218 36.1548 13.0112 35.4156 12.9298Z" fill="#CA005D"/>
<path d="M5.92227 26.9593L2.36508 24.7986C1.77936 24.4428 1.0125 24.627 0.652267 25.21C0.29203 25.793 0.474824 26.554 1.06055 26.9098L4.61774 29.0705C5.20346 29.4263 5.97031 29.2421 6.33055 28.6591C6.69079 28.0761 6.50799 27.3151 5.92227 26.9593Z" fill="#FFA100"/>
<path d="M58.2613 42.1124L46.4252 25.9574C45.2691 24.3794 42.887 24.4611 41.8417 26.1146L13.2989 71.2645C11.9632 73.3774 13.8832 76.0405 16.3099 75.4408L68.4849 62.5462C70.4015 62.0726 71.2243 59.8053 70.0574 58.2128L58.2613 42.1124Z" fill="#CA005D"/>
<path d="M38.0049 31.9258L54.0054 36.2815L62.0519 47.2856L32.7793 40.4539L38.0049 31.9258Z" fill="#FFA100"/>
<path d="M29.7727 45.2227L67.1843 54.301L69.9198 57.765C70.9927 59.1237 70.7744 61.0924 69.4299 62.1831C69.3556 62.2434 69.257 62.2648 69.1643 62.2407L26.0732 51.0457L29.7727 45.2227Z" fill="#FFA100"/>
<path d="M22.7443 56.2812L58.5374 64.9928L36.2476 70.4948L16.4551 66.3224L22.7443 56.2812Z" fill="#FFA100"/>
<g opacity="0.1">
<path opacity="0.1" d="M72.2698 61.6851C72.2698 61.6851 42.7197 67.4622 25.3319 51.9648L9.42383 77.0907L72.2698 61.6851Z" fill="#FFA100"/>
</g>
</svg>
