<?xml version="1.0" encoding="utf-8"?>
<!-- Generator: Adobe Illustrator 24.0.2, SVG Export Plug-In . SVG Version: 6.00 Build 0)  -->
<svg version="1.1" id="Capa_1" xmlns="http://www.w3.org/2000/svg" xmlns:xlink="http://www.w3.org/1999/xlink" x="0px" y="0px"
	 viewBox="0 0 40 48" style="enable-background:new 0 0 40 48;" xml:space="preserve">
<style type="text/css">
	.st0{fill:#665F59;}
</style>
<path class="st0" d="M16,10.6c-1.5-1.9-2.9-3.8-4.4-5.7c-0.5-0.6-1-1.3-1.4-1.9C9.7,2.5,9.6,1.9,9.9,1.2c0.3-0.7,0.9-1,1.6-1.1
	c1.6,0,3.2,0,4.8,0c3.7,0,7.4,0,11.1,0c1,0,1.7,0.5,1.9,1.5c0.1,0.5,0,1-0.3,1.4c-1.6,2.2-3.1,4.4-4.7,6.6c-0.2,0.3-0.4,0.6-0.6,0.8
	c-0.2,0.2-0.2,0.3,0.1,0.5c1.5,0.8,2.9,1.8,4.2,2.8c2.6,2.1,4.9,4.5,6.8,7.3c1.6,2.2,2.9,4.6,3.8,7.2c0.8,2.2,1.2,4.4,1.4,6.7
	c0.1,2,0,4-0.2,6c-0.2,1.6-0.7,3-1.9,4.1c-1,0.9-2.2,1.4-3.5,1.7c-1.4,0.3-2.7,0.4-4.1,0.4c-1,0-2,0-3.1,0c-4.1,0.1-8.3,0-12.4,0
	c-1.5,0-3.1,0-4.6,0c-0.7,0-1.4,0-2.1-0.1c-1.9-0.3-3.9-0.5-5.5-1.8c-1.1-0.9-1.7-2-2-3.4c-0.5-2.1-0.5-4.2-0.4-6.3
	c0.1-1.4,0.3-2.8,0.6-4.2c0.8-3.3,2-6.3,3.8-9.2c0.6-1,1.3-2,2-3c2-2.7,4.3-5,7-7.1C14.3,11.7,15.1,11.2,16,10.6L16,10.6z
	 M20.4,43.6C20.4,43.6,20.4,43.6,20.4,43.6c2,0,4,0,6,0c1.5,0,3.1,0,4.6,0c1.2,0,2.4-0.1,3.5-0.6c0.9-0.4,1.5-1,1.6-2
	c0.2-1.1,0.3-2.3,0.3-3.5c0-1.8,0-3.6-0.4-5.3c-0.6-2.9-1.8-5.5-3.3-8c-3.3-5-7.5-9-13-11.5c-0.2-0.1-0.3-0.1-0.4,0
	c-2,1.1-3.8,2.4-5.5,3.9c-1.6,1.5-3.1,3.1-4.5,4.9c-0.7,0.9-1.2,1.8-1.8,2.7c-0.7,1.2-1.3,2.5-1.9,3.8c-1,2.5-1.7,5.1-1.9,7.8
	c-0.1,1.7-0.2,3.4,0.2,5.1c0.3,1.2,0.9,2,2.1,2.3c1.2,0.3,2.5,0.4,3.7,0.5C13.3,43.7,16.8,43.6,20.4,43.6L20.4,43.6z M19.8,9.8
	c1.5-2,2.9-4,4.3-6.1h-9C16.7,5.8,18.2,7.8,19.8,9.8z"/>
<path class="st0" d="M15.9,35.9c-1.4-0.1-2.7-0.4-3.9-1.1c-0.2-0.1-0.3-0.2-0.1-0.4c0.2-0.4,0.4-0.9,0.6-1.4
	c0.1-0.3,0.2-0.3,0.4-0.1c1,0.6,2.1,1,3.3,0.9c0.9,0,1.4-0.4,1.6-1.1c0.3-1.1-0.2-1.8-1.3-2.2c-0.7-0.3-1.4-0.4-2.1-0.7
	c-1.8-0.7-2.5-2-2.3-3.9c0.2-1.6,1.5-2.8,3.1-3c1.8-0.3,3.4,0.2,4.8,1.4c0.3,0.2,0.3,0.4,0.1,0.6c-0.2,0.2-0.4,0.5-0.6,0.8
	C19.3,26,19,26,18.8,25.8c-0.7-0.5-1.4-0.9-2.2-1c-0.9-0.1-1.7,0.2-2,0.9c-0.3,0.6-0.1,1.4,0.5,1.8c0.6,0.4,1.2,0.6,1.9,0.8
	c1.3,0.4,2.5,0.9,3.1,2.3c1,2.4-0.5,5-3.2,5.2C16.5,35.9,16.2,36,15.9,35.9L15.9,35.9z"/>
<path class="st0" d="M28.2,22.1c-0.1,0.3-0.2,0.6-0.3,0.9c-1.1,3.1-2.2,6.3-3.3,9.4c-0.6,1.7-1.2,3.4-1.8,5.1
	c-0.1,0.2-0.2,0.3-0.4,0.2c-0.4-0.2-0.8-0.4-1.3-0.5c-0.3-0.1-0.3-0.2-0.2-0.4c0.5-1.4,1-2.9,1.5-4.3c1-2.9,2-5.8,3.1-8.7
	c0.3-0.7,0.5-1.4,0.8-2.2c0.1-0.2,0.1-0.3,0.4-0.2c0.5,0.2,0.9,0.4,1.4,0.5C28.1,22,28.2,22,28.2,22.1L28.2,22.1z"/>
</svg>
