<svg width="17" height="20" viewBox="0 0 17 20" fill="none" xmlns="http://www.w3.org/2000/svg">
<path d="M16.2458 15.3645L16.2405 16.0885C16.2328 16.3048 16.2193 16.5508 16.196 16.8005C16.1661 17.1218 16.1218 17.4312 16.0594 17.6846C16.0284 17.8107 15.9959 17.9108 15.9643 17.9854C15.9356 18.0533 15.9156 18.0812 15.9128 18.0851C15.9124 18.0857 15.9123 18.0858 15.9127 18.0854L15.8603 18.1451L15.8217 18.2146C15.6172 18.5818 14.9652 19.2997 12.687 19.2304L12.6756 19.23H12.6642H11.4114H11.1069L11.0879 19.2486L6.00905 19.2372L6.00108 19.2372L5.99311 19.2374C5.07889 19.2547 4.2968 19.2601 3.62428 19.214C2.94934 19.1677 2.43299 19.0719 2.0378 18.9122C1.65887 18.759 1.39435 18.5488 1.20172 18.2517C1.00106 17.9422 0.844215 17.4852 0.780687 16.7876C0.777039 16.7475 0.773706 16.7067 0.770692 16.6652L0.768459 16.6334C0.747326 16.3228 0.744001 15.9734 0.760233 15.5802L0.771237 15.4017C1.03321 11.1531 3.6162 7.75985 6.00937 5.89647C6.41007 5.58447 6.80091 5.31914 7.16871 5.1026L7.8987 4.67282L7.38365 4.00028L4.90579 0.764731C4.90841 0.761189 4.91182 0.758085 4.91558 0.755891C4.91774 0.754626 4.92052 0.75335 4.92437 0.752304C4.92809 0.751292 4.93463 0.75 4.94485 0.75H11.6807C11.6903 0.75 11.6963 0.751206 11.6997 0.752124C11.7032 0.753077 11.7058 0.754251 11.7079 0.755466C11.7121 0.757892 11.716 0.761616 11.7189 0.766032L9.35372 4.06755L8.84292 4.78057L9.62661 5.17446C9.96993 5.34701 10.3718 5.59062 10.8073 5.9024C13.2009 7.61615 16.2117 11.0866 16.2458 15.2211C16.2462 15.2625 16.2462 15.304 16.246 15.3455L16.2459 15.3617L16.2459 15.3622L16.2458 15.3645Z" fill="#CE0058" stroke="#CE0058" stroke-width="1.5"/>
<path d="M5 14.689C5.2623 14.8913 6.00289 15.2069 6.75892 15.2069C7.86982 15.2069 8.59499 14.6324 8.59499 13.5642C8.59499 12.5202 7.85439 12.2046 7.15237 11.9699C6.57377 11.7838 6.12633 11.6301 6.12633 11.1283C6.12633 10.6266 6.5352 10.4728 6.88236 10.4728C7.30666 10.4728 7.74639 10.6994 8.14755 11.0474L8.64899 10.3919C8.24784 9.96301 7.59981 9.63121 6.88236 9.63121C5.87175 9.63121 5.14658 10.2301 5.14658 11.2173C5.14658 12.2532 5.85632 12.5688 6.62006 12.7873C7.16008 12.941 7.59981 13.0948 7.59981 13.6046C7.59981 14.2116 7.18323 14.3491 6.77435 14.3491C6.24205 14.3491 5.64031 14.074 5.34716 13.8798L5 14.689Z" fill="white"/>
<path d="M9.62391 16L12 9.29942L11.1977 9L8.83702 15.6925L9.62391 16Z" fill="white"/>
</svg>
