<svg width="40" height="48" viewBox="0 0 40 48" fill="none" xmlns="http://www.w3.org/2000/svg">
<path d="M15.9644 10.6424C14.495 8.72338 13.0457 6.82842 11.5964 4.93347C11.1186 4.30717 10.6449 3.67685 10.1591 3.05858C9.70946 2.48448 9.64522 1.86219 9.94633 1.21983C10.2595 0.553386 10.8135 0.176001 11.5562 0.163957C13.1461 0.143883 14.7359 0.155927 16.3257 0.155927C20.0113 0.155927 23.6968 0.155927 27.3823 0.155927C28.4262 0.155927 29.0886 0.677843 29.3215 1.65744C29.4459 2.17534 29.2813 2.63302 28.9842 3.04654C27.4145 5.23859 25.8407 7.4226 24.2669 9.61465C24.0662 9.89568 23.8735 10.1807 23.6607 10.4537C23.4961 10.6625 23.5001 10.7709 23.7651 10.9154C25.2425 11.7184 26.6316 12.6659 27.9364 13.7257C30.5379 15.8375 32.8223 18.2463 34.7614 20.9844C36.3472 23.2206 37.656 25.6054 38.5754 28.1908C39.3503 30.3708 39.82 32.6111 39.9525 34.9316C40.0649 36.959 39.9726 38.9704 39.7317 40.9778C39.543 42.5636 39.001 43.9888 37.7885 45.0929C36.7849 46.0083 35.5724 46.486 34.2716 46.7911C32.9187 47.1083 31.5456 47.1685 30.1645 47.1484C29.1408 47.1324 28.117 47.1123 27.0973 47.1444C22.9701 47.2809 18.843 47.1524 14.7158 47.1846C13.1742 47.1966 11.6325 47.1926 10.0949 47.1966C9.39631 47.1966 8.67365 47.2287 8.00721 47.1324C6.0721 46.8594 4.09284 46.6466 2.48694 45.3217C1.41501 44.4385 0.800752 43.2822 0.463514 41.9694C-0.0704458 39.8938 -0.0744602 37.7861 0.110218 35.6583C0.23066 34.2571 0.439426 32.872 0.756591 31.507C1.51538 28.235 2.79206 25.1718 4.52242 22.2972C5.1447 21.2654 5.81115 20.2577 6.53781 19.2982C8.55723 16.6284 10.8818 14.2557 13.5636 12.2403C14.3224 11.6702 15.1173 11.1603 15.9644 10.6384V10.6424ZM20.3806 43.6396C20.3806 43.6396 20.3806 43.6315 20.3806 43.6275C22.388 43.6275 24.3954 43.6275 26.4068 43.6275C27.9484 43.6275 29.4901 43.6516 31.0277 43.6275C32.2121 43.6074 33.3844 43.483 34.5005 43.0293C35.4158 42.6559 35.9618 41.9935 36.1345 41.0179C36.3352 39.8777 36.4275 38.7255 36.4516 37.5653C36.4918 35.7747 36.4275 33.9921 36.0542 32.2377C35.4439 29.3752 34.2997 26.7295 32.7099 24.2845C29.4379 19.254 25.1983 15.3035 19.6781 12.8144C19.5175 12.7421 19.385 12.7421 19.2284 12.8305C17.2692 13.9506 15.3983 15.1911 13.7081 16.7047C12.0621 18.1821 10.5927 19.8201 9.25178 21.5625C8.59336 22.4177 8.00721 23.341 7.4612 24.2845C6.75862 25.501 6.12028 26.7415 5.58231 28.0383C4.55052 30.5314 3.88006 33.1209 3.6472 35.8148C3.49866 37.5131 3.46654 39.2073 3.8359 40.8895C4.09685 42.0818 4.75126 42.8567 5.96371 43.1698C7.19222 43.487 8.43678 43.6195 9.6934 43.6275C13.2545 43.6516 16.8155 43.6355 20.3766 43.6355L20.3806 43.6396ZM19.7824 9.79933C21.2438 7.76385 22.673 5.76452 24.1304 3.73306H15.1414C16.7031 5.77656 18.2287 7.76787 19.7824 9.79933Z" fill="white"/>
<path d="M15.9239 35.9475C14.5388 35.8913 13.226 35.5781 12.0135 34.8836C11.8128 34.7671 11.7606 34.6748 11.865 34.454C12.0778 34.0124 12.2745 33.5587 12.4471 33.097C12.5435 32.836 12.6479 32.832 12.8687 32.9565C13.9045 33.5306 14.9885 33.9361 16.2009 33.8799C17.0882 33.8357 17.6221 33.4583 17.8108 32.7317C18.0838 31.6798 17.6542 30.9531 16.502 30.5316C15.8115 30.2786 15.0848 30.1221 14.4023 29.837C12.6398 29.0983 11.8931 27.8216 12.146 25.9146C12.3508 24.3489 13.6234 23.1244 15.2856 22.8795C17.1042 22.6105 18.686 23.1244 20.0751 24.3047C20.3361 24.5255 20.3522 24.6821 20.1273 24.927C19.9065 25.1719 19.7178 25.4489 19.5171 25.7139C19.2949 26.0056 19.042 26.0418 18.7583 25.8223C18.0959 25.3124 17.3732 24.9431 16.5301 24.8186C15.6629 24.6901 14.8479 25.0394 14.5509 25.7018C14.2658 26.3442 14.4545 27.103 15.0246 27.5125C15.5947 27.926 16.2611 28.1268 16.9236 28.3435C18.1922 28.7611 19.4167 29.2549 19.9748 30.6279C20.9704 33.0769 19.4368 35.6183 16.8031 35.8752C16.51 35.9033 16.221 35.9796 15.9199 35.9475H15.9239Z" fill="white"/>
<path d="M28.2216 22.0969C28.1172 22.4101 28.0169 22.7152 27.9125 23.0163C26.7964 26.1558 25.6803 29.2954 24.5642 32.4349C23.958 34.1371 23.3558 35.8394 22.7616 37.5457C22.6853 37.7625 22.609 37.8026 22.3922 37.7062C21.9787 37.5176 21.5531 37.3489 21.1236 37.2124C20.8626 37.1281 20.8024 37.0278 20.8987 36.7668C21.4166 35.3335 21.9185 33.8922 22.4243 32.455C23.4441 29.5563 24.4638 26.6577 25.4836 23.755C25.7365 23.0364 25.9934 22.3178 26.2423 21.5991C26.3066 21.4185 26.3668 21.3101 26.6037 21.4104C27.0654 21.6071 27.5471 21.7677 28.0169 21.9484C28.0972 21.9805 28.2296 21.9564 28.2256 22.0969H28.2216Z" fill="white"/>
</svg>