<svg width="16" height="16" viewBox="0 0 16 16" fill="none" xmlns="http://www.w3.org/2000/svg">
<path d="M8.00033 6.66667C9.28899 6.66667 10.3337 5.622 10.3337 4.33333C10.3337 3.04467 9.28899 2 8.00033 2C6.71166 2 5.66699 3.04467 5.66699 4.33333C5.66699 5.622 6.71166 6.66667 8.00033 6.66667Z" fill="#CA005D"/>
<path d="M8.00033 7.41667C9.70321 7.41667 11.0837 6.03621 11.0837 4.33333H9.58366C9.58366 5.20779 8.87478 5.91667 8.00033 5.91667V7.41667ZM11.0837 4.33333C11.0837 2.63046 9.70321 1.25 8.00033 1.25V2.75C8.87478 2.75 9.58366 3.45888 9.58366 4.33333H11.0837ZM8.00033 1.25C6.29744 1.25 4.91699 2.63046 4.91699 4.33333H6.41699C6.41699 3.45888 7.12587 2.75 8.00033 2.75V1.25ZM4.91699 4.33333C4.91699 6.03621 6.29745 7.41667 8.00033 7.41667V5.91667C7.12587 5.91667 6.41699 5.20779 6.41699 4.33333H4.91699Z" fill="#CA005D"/>
<path d="M4 13.334V14.0007H12V13.334C12 12.0915 12 11.4702 11.797 10.9802C11.5264 10.3268 11.0072 9.80762 10.3538 9.53698C9.86377 9.33398 9.2425 9.33398 8 9.33398C6.7575 9.33398 6.13623 9.33398 5.64617 9.53698C4.99277 9.80762 4.47363 10.3268 4.203 10.9802C4 11.4702 4 12.0915 4 13.334Z" fill="#CA005D"/>
<path d="M4 14.0007H3.25C3.25 14.4149 3.58579 14.7507 4 14.7507V14.0007ZM12 14.0007V14.7507C12.4142 14.7507 12.75 14.4149 12.75 14.0007H12ZM11.797 10.9802L11.1041 11.2672L11.1041 11.2672L11.797 10.9802ZM10.3538 9.53698L10.0668 10.2299L10.0668 10.2299L10.3538 9.53698ZM5.64617 9.53698L5.93317 10.2299L5.93319 10.2299L5.64617 9.53698ZM4.203 10.9802L4.89591 11.2672L4.89591 11.2672L4.203 10.9802ZM3.25 13.334V14.0007H4.75V13.334H3.25ZM4 14.7507H12V13.2507H4V14.7507ZM12.75 14.0007V13.334H11.25V14.0007H12.75ZM12.75 13.334C12.75 12.723 12.7504 12.2272 12.7229 11.8238C12.6949 11.4138 12.6356 11.0448 12.4899 10.6931L11.1041 11.2672C11.1614 11.4056 11.2036 11.5923 11.2264 11.926C11.2496 12.2664 11.25 12.7025 11.25 13.334H12.75ZM12.4899 10.6932C12.1432 9.85597 11.478 9.19082 10.6408 8.84407L10.0668 10.2299C10.5365 10.4244 10.9096 10.7975 11.1041 11.2672L12.4899 10.6932ZM10.6409 8.84408C10.2892 8.69841 9.92021 8.63908 9.51014 8.6111C9.1068 8.58358 8.61099 8.58398 8 8.58398V10.084C8.63151 10.084 9.06759 10.0844 9.40802 10.1076C9.74172 10.1304 9.9284 10.1726 10.0668 10.2299L10.6409 8.84408ZM8 8.58398C7.38901 8.58398 6.8932 8.58358 6.48986 8.6111C6.07979 8.63908 5.7108 8.69841 5.35914 8.84408L5.93319 10.2299C6.0716 10.1726 6.25828 10.1304 6.59198 10.1076C6.93241 10.0844 7.36849 10.084 8 10.084V8.58398ZM5.35917 8.84407C4.52199 9.19082 3.85684 9.85597 3.51009 10.6932L4.89591 11.2672C5.09043 10.7975 5.46355 10.4244 5.93317 10.2299L5.35917 8.84407ZM3.51009 10.6931C3.36443 11.0448 3.3051 11.4138 3.27711 11.8238C3.24959 12.2272 3.25 12.723 3.25 13.334H4.75C4.75 12.7025 4.75041 12.2664 4.77364 11.926C4.7964 11.5923 4.83857 11.4056 4.89591 11.2672L3.51009 10.6931Z" fill="#CA005D"/>
<path d="M4.42872 3.03311C4.76845 2.79614 4.85175 2.32863 4.61478 1.9889C4.37781 1.64916 3.91031 1.56586 3.57057 1.80283L4.42872 3.03311ZM3.74336 6.97547C4.09814 7.18925 4.55905 7.07494 4.77283 6.72016C4.98662 6.36538 4.87231 5.90447 4.51753 5.69068L3.74336 6.97547ZM12.4287 1.80283C12.089 1.56586 11.6215 1.64916 11.3845 1.9889C11.1475 2.32863 11.2308 2.79614 11.5706 3.03311L12.4287 1.80283ZM11.5706 5.63303C11.2308 5.86999 11.1475 6.3375 11.3845 6.67724C11.6215 7.01697 12.089 7.10029 12.4287 6.86332L11.5706 5.63303ZM13.9163 13.9997C13.9163 14.414 14.2521 14.7497 14.6663 14.7497C15.0805 14.7497 15.4163 14.414 15.4163 13.9997H13.9163ZM14.3756 10.7891L15.0439 10.4486L15.0439 10.4486L14.3756 10.7891ZM13.5507 8.95546C13.1817 8.76741 12.73 8.91415 12.542 9.28321C12.3539 9.65228 12.5007 10.1039 12.8697 10.292L13.5507 8.95546ZM0.583008 13.9997C0.583008 14.414 0.918794 14.7497 1.33301 14.7497C1.74722 14.7497 2.08301 14.414 2.08301 13.9997H0.583008ZM1.62366 10.7891L2.29191 11.1296L2.29191 11.1296L1.62366 10.7891ZM3.12953 10.292C3.4986 10.1039 3.64534 9.65228 3.45728 9.28321C3.26923 8.91414 2.8176 8.7674 2.44853 8.95546L3.12953 10.292ZM3.57057 1.80283C2.7736 2.35873 2.24964 3.28464 2.24964 4.33308H3.74964C3.74964 3.79564 4.01669 3.32051 4.42872 3.03311L3.57057 1.80283ZM2.24964 4.33308C2.24964 5.45555 2.84992 6.43711 3.74336 6.97547L4.51753 5.69068C4.05577 5.41244 3.74964 4.90813 3.74964 4.33308H2.24964ZM11.5706 3.03311C11.9826 3.32051 12.2496 3.79564 12.2496 4.33308H13.7496C13.7496 3.28464 13.2257 2.35873 12.4287 1.80283L11.5706 3.03311ZM12.2496 4.33308C12.2496 4.87048 11.9826 5.34566 11.5706 5.63303L12.4287 6.86332C13.2257 6.30743 13.7496 5.38147 13.7496 4.33308H12.2496ZM15.4163 13.9997V13.5997H13.9163V13.9997H15.4163ZM15.4163 13.5997C15.4163 12.8654 15.4169 12.2695 15.3775 11.7872C15.3373 11.2962 15.2521 10.8572 15.0439 10.4486L13.7074 11.1296C13.7899 11.2915 13.8499 11.5111 13.8824 11.9094C13.9157 12.3164 13.9163 12.8406 13.9163 13.5997H15.4163ZM15.0439 10.4486C14.7163 9.80573 14.1936 9.28303 13.5507 8.95546L12.8697 10.292C13.2304 10.4757 13.5236 10.769 13.7074 11.1296L15.0439 10.4486ZM2.08301 13.9997V13.5997H0.583008V13.9997H2.08301ZM2.08301 13.5997C2.08301 12.8406 2.08359 12.3164 2.11685 11.9094C2.14939 11.5111 2.20944 11.2915 2.29191 11.1296L0.955403 10.4486C0.747228 10.8572 0.661951 11.2962 0.62183 11.7872C0.582425 12.2695 0.583008 12.8654 0.583008 13.5997H2.08301ZM2.29191 11.1296C2.47567 10.7689 2.76889 10.4757 3.12953 10.292L2.44853 8.95546C1.80564 9.28303 1.28296 9.80574 0.955401 10.4486L2.29191 11.1296Z" fill="#CA005D"/>
</svg>
