<svg width="16" height="16" viewBox="0 0 16 16" fill="none" xmlns="http://www.w3.org/2000/svg">
<path d="M8.00033 6.66667C9.28899 6.66667 10.3337 5.622 10.3337 4.33333C10.3337 3.04467 9.28899 2 8.00033 2C6.71166 2 5.66699 3.04467 5.66699 4.33333C5.66699 5.622 6.71166 6.66667 8.00033 6.66667Z" fill="#CA005D" stroke="#CA005D" stroke-width="1.5" stroke-linecap="round" stroke-linejoin="round"/>
<path fill-rule="evenodd" clip-rule="evenodd" d="M5.16699 4.33333C5.16699 2.76853 6.43552 1.5 8.00033 1.5C9.56513 1.5 10.8337 2.76853 10.8337 4.33333C10.8337 5.89814 9.56513 7.16667 8.00033 7.16667C6.43552 7.16667 5.16699 5.89814 5.16699 4.33333ZM8.00033 2.5C6.9878 2.5 6.16699 3.32081 6.16699 4.33333C6.16699 5.34586 6.9878 6.16667 8.00033 6.16667C9.01285 6.16667 9.83366 5.34586 9.83366 4.33333C9.83366 3.32081 9.01285 2.5 8.00033 2.5Z" fill="#CA005D"/>
<path d="M2 13.6007V14.0007H14V13.6007C14 12.1072 14 11.3605 13.7094 10.79C13.4537 10.2883 13.0457 9.88028 12.544 9.62462C11.9735 9.33398 11.2268 9.33398 9.73333 9.33398H6.26667C4.7732 9.33398 4.02647 9.33398 3.45603 9.62462C2.95426 9.88028 2.54631 10.2883 2.29065 10.79C2 11.3605 2 12.1072 2 13.6007Z" fill="#CA005D" stroke="#CA005D" stroke-width="1.5" stroke-linecap="round" stroke-linejoin="round"/>
<path fill-rule="evenodd" clip-rule="evenodd" d="M6.24467 8.83398H9.75533C10.4834 8.83398 11.0604 8.83398 11.5255 8.87197C12.0011 8.91083 12.4035 8.9919 12.771 9.17911C13.3668 9.48271 13.8513 9.96717 14.1549 10.563C14.3421 10.9305 14.4232 11.3329 14.462 11.8085C14.5 12.2736 14.5 12.8505 14.5 13.5786V14.0007C14.5 14.2768 14.2761 14.5007 14 14.5007H2C1.72386 14.5007 1.5 14.2768 1.5 14.0007L1.5 13.5787C1.5 12.8506 1.49999 12.2736 1.53799 11.8085C1.57685 11.3329 1.65792 10.9305 1.84515 10.563C2.14874 9.96718 2.63318 9.48272 3.22904 9.17911C3.59649 8.9919 3.99891 8.91083 4.4745 8.87197C4.93958 8.83398 5.51657 8.83398 6.24467 8.83398ZM3.68302 10.0701C3.27534 10.2779 2.94388 10.6093 2.73615 11.017C2.63273 11.22 2.56848 11.4762 2.53467 11.8899C2.50192 12.2907 2.5001 12.7979 2.50001 13.5007H13.5C13.4999 12.7979 13.4981 12.2907 13.4653 11.8899C13.4315 11.4762 13.3673 11.22 13.2639 11.017C13.0561 10.6093 12.7247 10.2779 12.317 10.0701M3.68302 10.0701C3.886 9.96671 4.14218 9.90246 4.55593 9.86865C4.97551 9.83437 5.51168 9.83398 6.26667 9.83398H9.73333C10.4883 9.83398 11.0245 9.83437 11.4441 9.86865C11.8578 9.90246 12.114 9.96671 12.317 10.0701" fill="#CA005D"/>
</svg>
