<svg width="17" height="18" viewBox="0 0 17 18" fill="none" xmlns="http://www.w3.org/2000/svg">
<path d="M1.06706 16.6798L0.837769 16.7794C0.777181 16.6399 0.758527 16.4859 0.784087 16.336C0.809648 16.1861 0.878317 16.047 0.981699 15.9355L0.981803 15.9354L14.8202 1.03253C14.8867 0.952416 14.9686 0.886362 15.061 0.838276C15.1562 0.788779 15.2605 0.759379 15.3676 0.751903C15.4746 0.744426 15.582 0.759034 15.6831 0.794817C15.7842 0.830601 15.8769 0.886796 15.9554 0.959914L1.06706 16.6798ZM1.06706 16.6798L0.83777 16.7794C0.898359 16.9188 0.998257 17.0376 1.12525 17.1212C1.25225 17.2047 1.40085 17.2495 1.55288 17.25L1.55449 17.25M1.06706 16.6798L1.55449 17.25M1.55449 17.25C1.66177 17.2497 1.76784 17.2272 1.86611 17.1842C1.96432 17.1411 2.05263 17.0783 2.12557 16.9997C2.1256 16.9997 2.12564 16.9997 2.12567 16.9996L15.9637 2.09715L1.55449 17.25Z" fill="#CA005D" stroke="#CA005D" stroke-width="0.5"/>
<path d="M12.9906 17.25L12.9911 17.25C13.8363 17.2485 14.6464 16.912 15.2441 16.3144C15.8417 15.7167 16.1782 14.9066 16.1797 14.0614V14.0609C16.1797 13.4302 15.9926 12.8136 15.6422 12.2892C15.2918 11.7647 14.7937 11.356 14.211 11.1146C13.6283 10.8732 12.9871 10.8101 12.3684 10.9331C11.7498 11.0562 11.1816 11.3599 10.7356 11.8059C10.2896 12.2519 9.98584 12.8201 9.86279 13.4388C9.73974 14.0574 9.8029 14.6986 10.0443 15.2813C10.2856 15.8641 10.6944 16.3621 11.2188 16.7125C11.7433 17.063 12.3599 17.25 12.9906 17.25ZM12.0864 12.7331C12.3538 12.5538 12.6684 12.4581 12.9903 12.458C13.4176 12.4593 13.8272 12.6283 14.1311 12.9287C14.435 13.2291 14.6087 13.6368 14.6148 14.0641C14.6184 14.3859 14.5263 14.7017 14.3501 14.9711C14.1739 15.2406 13.9215 15.4516 13.6251 15.5774C13.3286 15.7032 13.0015 15.738 12.6852 15.6774C12.3689 15.6168 12.0778 15.4636 11.8488 15.2372C11.6198 15.0108 11.4633 14.7215 11.3991 14.4059C11.3349 14.0904 11.366 13.7629 11.4884 13.465C11.6107 13.1671 11.8189 12.9124 12.0864 12.7331Z" fill="#CA005D" stroke="#CA005D" stroke-width="0.5"/>
<path d="M3.96211 7.13344L3.96256 7.13344C4.79977 7.1259 5.60057 6.78997 6.19259 6.19795C6.78462 5.60592 7.12055 4.80513 7.12809 3.96791L7.12809 3.96747C7.13266 3.33478 6.94893 2.71504 6.60027 2.18707C6.25161 1.6591 5.75379 1.24677 5.17013 1.00254C4.58646 0.758303 3.94334 0.693203 3.32257 0.815517C2.70181 0.93783 2.13145 1.24203 1.68406 1.68942C1.23667 2.13681 0.932475 2.70716 0.810161 3.32793C0.687847 3.9487 0.752948 4.59182 0.997181 5.17548C1.24141 5.75914 1.65374 6.25697 2.18171 6.60563L2.31948 6.39701L2.18171 6.60563C2.70968 6.95428 3.32943 7.13801 3.96211 7.13344ZM3.05014 2.60616C3.31956 2.42999 3.63524 2.33785 3.95712 2.34144C4.38436 2.34759 4.7921 2.52129 5.0925 2.82516C5.39291 3.12902 5.56195 3.53871 5.56321 3.96599C5.56312 4.28789 5.46738 4.6025 5.28815 4.86989C5.10885 5.13738 4.85409 5.34553 4.55623 5.4679C4.25836 5.59027 3.93085 5.62134 3.61529 5.55716C3.29974 5.49297 3.01038 5.33644 2.78398 5.10744C2.55759 4.87844 2.40437 4.58732 2.3438 4.27105C2.28323 3.95478 2.31804 3.62764 2.44381 3.3312C2.56957 3.03476 2.78062 2.78239 3.05014 2.60616Z" fill="#CA005D" stroke="#CA005D" stroke-width="0.5"/>
</svg>
