<svg width="26" height="21" viewBox="0 0 26 21" fill="none" xmlns="http://www.w3.org/2000/svg">
<mask id="path-1-outside-1_9687_136768" maskUnits="userSpaceOnUse" x="0.09375" y="0.617188" width="26" height="20" fill="black">
<rect fill="white" x="0.09375" y="0.617188" width="26" height="20"/>
<path fill-rule="evenodd" clip-rule="evenodd" d="M23.9981 10.8384C23.9829 10.0968 23.9829 9.43809 23.5917 9.07378C23.3185 8.82007 22.698 8.76965 22.3877 8.66719C21.9561 8.52082 21.5598 8.10934 20.9342 7.23923C20.535 6.71043 20.0694 6.23134 19.5481 5.8129C19.624 4.87611 20.1113 4.11497 20.5329 3.31316C20.6661 3.0562 20.3946 2.69189 20.0979 2.6496C18.7017 2.47395 16.5703 3.02367 15.5569 4.01901C12.6262 3.89866 9.68209 3.73765 7.42087 4.7151C6.43998 5.14863 5.5932 5.8213 4.96405 6.66675C4.75651 6.63736 4.55295 6.5861 4.35701 6.51387C4.46252 6.44537 4.55783 6.3633 4.6403 6.26991C4.77024 6.1312 4.86499 5.96526 4.91707 5.78519C4.96916 5.60513 4.97716 5.41585 4.94044 5.23229C4.88181 4.9953 4.73551 4.78711 4.52901 4.64679C4.37295 4.52723 4.18504 4.45264 3.98694 4.43164C3.78884 4.41063 3.58861 4.44406 3.40936 4.52806C3.29163 4.58995 3.1895 4.67611 3.11023 4.7804C3.03095 4.88469 2.97649 5.00455 2.95071 5.13145C2.89258 5.44415 2.93069 5.76643 3.06031 6.05848C3.08392 6.11378 3.10752 6.16908 3.13619 6.22112C2.90574 6.25209 2.67156 6.24605 2.44315 6.20323C1.9609 6.12354 1.9609 6.61308 2.54939 6.72855C2.85507 6.79162 3.16794 6.81622 3.48018 6.80174C3.52428 6.80032 3.56822 6.79597 3.6117 6.78873C3.62711 6.79853 3.64177 6.8094 3.65554 6.82125C3.94099 7.01369 4.26488 7.14663 4.60657 7.21158C4.41847 7.52243 4.25989 7.84903 4.13274 8.18741C3.27277 10.4139 3.45826 12.8567 5.84931 15.6004C6.44455 16.2737 6.48839 17.0349 6.70423 17.8481C6.79528 18.1929 6.93355 18.4986 7.34499 18.4986H9.67703C10.365 18.4986 10.1829 17.7619 10.4088 17.4024C10.5083 17.2398 10.8102 17.2642 11.1069 17.3049C11.9728 17.4214 12.8525 17.4028 13.7121 17.2496C14.0747 17.1992 14.1809 17.3781 14.2281 17.5635C14.3327 17.9408 14.2989 18.4986 15.1404 18.4986H16.7035C17.7844 18.4986 17.7742 18.3002 17.9176 17.287C17.9374 16.9639 18.0501 16.6524 18.243 16.3876C19.0507 15.4524 20.3744 15.0865 21.2883 14.0131C21.6407 13.5935 22.1854 13.156 23.2039 12.9624C23.8311 12.8535 24.0166 12.1558 23.9981 10.8384ZM4.17153 5.89259C4.07015 6.00131 3.94364 6.08544 3.80225 6.13818C3.73271 6.04772 3.676 5.94873 3.63362 5.8438C3.55774 5.64538 3.43296 5.18349 3.69601 5.05013C3.77388 5.02234 3.85809 5.01538 3.93972 5.02998C4.02135 5.04458 4.09737 5.0802 4.15972 5.13308C4.24475 5.18982 4.30485 5.27504 4.32835 5.37215C4.34479 5.46469 4.33922 5.55963 4.31206 5.64979C4.28489 5.73995 4.23684 5.82297 4.17153 5.89259Z"/>
</mask>
<path d="M23.9981 10.8384L25.6979 10.8145L25.6977 10.8036L23.9981 10.8384ZM23.5917 9.07378L24.7502 7.8297L24.7486 7.82817L23.5917 9.07378ZM22.3877 8.66719L21.8418 10.2772L21.8546 10.2814L22.3877 8.66719ZM20.9342 7.23923L22.3145 6.24685L22.3029 6.23076L22.291 6.21495L20.9342 7.23923ZM19.5481 5.8129L17.8537 5.67565L17.7809 6.57428L18.484 7.13863L19.5481 5.8129ZM20.5329 3.31316L22.0376 4.10429L22.0422 4.09556L20.5329 3.31316ZM20.0979 2.6496L20.3377 0.966601L20.3239 0.964636L20.31 0.962898L20.0979 2.6496ZM15.5569 4.01901L15.4871 5.71758L16.2228 5.74779L16.7481 5.23186L15.5569 4.01901ZM7.42087 4.7151L6.74631 3.1546L6.73364 3.1602L7.42087 4.7151ZM4.96405 6.66675L4.72573 8.34996L5.72522 8.49148L6.32787 7.68164L4.96405 6.66675ZM4.35701 6.51387L3.43134 5.08799L0.585576 6.93544L3.76902 8.10894L4.35701 6.51387ZM4.6403 6.26991L3.39962 5.10771L3.38256 5.12592L3.36605 5.14462L4.6403 6.26991ZM4.94044 5.23229L6.60742 4.89884L6.59989 4.86122L6.59068 4.82397L4.94044 5.23229ZM4.52901 4.64679L3.49511 5.99626L3.53352 6.02569L3.57355 6.05288L4.52901 4.64679ZM3.40936 4.52806L2.68797 2.98871L2.65275 3.00522L2.61833 3.02332L3.40936 4.52806ZM2.95071 5.13145L1.28474 4.79301L1.28192 4.80688L1.27933 4.82079L2.95071 5.13145ZM3.06031 6.05848L4.62379 5.39101L4.61905 5.37989L4.61414 5.36884L3.06031 6.05848ZM3.13619 6.22112L3.36263 7.90597L5.82289 7.57532L4.62525 5.40095L3.13619 6.22112ZM2.44315 6.20323L2.75638 4.53234L2.73839 4.52896L2.72032 4.52598L2.44315 6.20323ZM2.54939 6.72855L2.8929 5.06362L2.88482 5.06195L2.87672 5.06036L2.54939 6.72855ZM3.48018 6.80174L3.42566 5.10261L3.41353 5.103L3.4014 5.10356L3.48018 6.80174ZM3.6117 6.78873L4.52417 5.35436L3.97461 5.00476L3.33214 5.11187L3.6117 6.78873ZM3.65554 6.82125L2.54688 8.11L2.62251 8.17506L2.70523 8.23083L3.65554 6.82125ZM4.60657 7.21158L6.06101 8.0917L7.32771 5.99841L4.92404 5.54149L4.60657 7.21158ZM4.13274 8.18741L5.71857 8.79992L5.72138 8.79265L5.72412 8.78535L4.13274 8.18741ZM5.84931 15.6004L4.56766 16.7173L4.57565 16.7264L5.84931 15.6004ZM6.70423 17.8481L8.34788 17.414L8.34733 17.412L6.70423 17.8481ZM10.4088 17.4024L11.8481 18.3072L11.8536 18.2984L11.859 18.2895L10.4088 17.4024ZM11.1069 17.3049L10.8762 18.9891L10.8801 18.9897L11.1069 17.3049ZM13.7121 17.2496L13.478 15.5658L13.4458 15.5702L13.4139 15.5759L13.7121 17.2496ZM14.2281 17.5635L12.5807 17.983L12.5851 18.0002L12.5899 18.0174L14.2281 17.5635ZM17.9176 17.287L19.6008 17.5251L19.6103 17.4583L19.6144 17.391L17.9176 17.287ZM18.243 16.3876L16.9564 15.2764L16.9104 15.3297L16.869 15.3866L18.243 16.3876ZM21.2883 14.0131L22.5827 15.1152L22.5901 15.1064L21.2883 14.0131ZM23.2039 12.9624L22.9129 11.2875L22.8997 11.2898L22.8865 11.2923L23.2039 12.9624ZM4.17153 5.89259L2.93167 4.72951L2.92821 4.73322L4.17153 5.89259ZM3.80225 6.13818L2.4545 7.17431L3.2198 8.16978L4.3963 7.731L3.80225 6.13818ZM3.63362 5.8438L2.04577 6.45104L2.05142 6.46579L2.05733 6.48043L3.63362 5.8438ZM3.69601 5.05013L3.12455 3.44906L3.02324 3.48522L2.92729 3.53387L3.69601 5.05013ZM4.15972 5.13308L3.06027 6.42968L3.13479 6.49288L3.21606 6.54711L4.15972 5.13308ZM4.32835 5.37215L6.00211 5.07465L5.99297 5.02323L5.98069 4.97247L4.32835 5.37215ZM25.6977 10.8036C25.6912 10.4851 25.6887 9.98782 25.6125 9.53344C25.5332 9.06089 25.3381 8.37716 24.7502 7.8297L22.4331 10.3179C22.2365 10.1347 22.237 9.96248 22.2593 10.0958C22.2691 10.1543 22.2785 10.2435 22.2851 10.3826C22.292 10.5246 22.2944 10.6743 22.2984 10.8732L25.6977 10.8036ZM24.7486 7.82817C24.477 7.5759 24.1854 7.43105 23.9824 7.34697C23.7712 7.25954 23.5681 7.20264 23.4167 7.16471C23.269 7.12773 23.1129 7.09523 23.0301 7.0772C22.9162 7.0524 22.9022 7.04678 22.9208 7.05294L21.8546 10.2814C21.9498 10.3129 22.039 10.3366 22.1089 10.3539C22.18 10.3715 22.2496 10.3869 22.3066 10.3993C22.4359 10.4275 22.5101 10.4427 22.5906 10.4628C22.6672 10.482 22.6898 10.4917 22.6815 10.4883C22.6814 10.4882 22.5698 10.4448 22.4348 10.3194L24.7486 7.82817ZM22.9336 7.05723C23.0433 7.09442 23.0508 7.13686 22.9324 7.01916C22.803 6.89053 22.6131 6.66214 22.3145 6.24685L19.5539 8.23162C20.1394 9.04589 20.822 9.93135 21.8418 10.2772L22.9336 7.05723ZM22.291 6.21495C21.8063 5.57295 21.2422 4.99282 20.6123 4.48717L18.484 7.13863C18.8966 7.46986 19.2637 7.8479 19.5774 8.26351L22.291 6.21495ZM21.2426 5.95015C21.2827 5.4544 21.5181 5.09246 22.0376 4.10427L19.0282 2.52205C18.7046 3.13747 17.9653 4.29782 17.8537 5.67565L21.2426 5.95015ZM22.0422 4.09556C22.5056 3.20156 22.1651 2.35624 21.8776 1.9379C21.5793 1.50395 21.0513 1.06829 20.3377 0.966601L19.858 4.3326C19.4411 4.2732 19.1973 4.04084 19.0757 3.86385C18.9647 3.70249 18.6934 3.1678 19.0236 2.53077L22.0422 4.09556ZM20.31 0.962898C19.3293 0.839516 18.2102 0.974851 17.2139 1.26142C16.2316 1.54397 15.1492 2.03659 14.3656 2.80616L16.7481 5.23186C16.9779 5.00609 17.468 4.72618 18.1537 4.52895C18.8255 4.33574 19.4702 4.28404 19.8857 4.33631L20.31 0.962898ZM15.6266 2.32044C14.1895 2.26142 12.6339 2.18598 11.1558 2.25736C9.67442 2.3289 8.14312 2.55086 6.74634 3.15465L8.0954 6.27555C8.95984 5.90188 10.0312 5.71563 11.3198 5.6534C12.6118 5.59101 13.9936 5.65624 15.4871 5.71758L15.6266 2.32044ZM6.73364 3.1602C5.48935 3.71015 4.40774 4.56673 3.60023 5.65186L6.32787 7.68164C6.77866 7.07586 7.39061 6.58711 8.1081 6.27L6.73364 3.1602ZM5.20237 4.98354C5.11374 4.97099 5.02741 4.94917 4.945 4.91879L3.76902 8.10894C4.07848 8.22302 4.39929 8.30374 4.72573 8.34996L5.20237 4.98354ZM5.28268 7.93975C5.51621 7.78815 5.72905 7.60525 5.91455 7.39521L3.36605 5.14462C3.3866 5.12134 3.40883 5.1026 3.43134 5.08799L5.28268 7.93975ZM5.88097 7.43211C6.19163 7.10048 6.42243 6.69904 6.55012 6.25758L3.28402 5.31281C3.30755 5.23149 3.34884 5.16191 3.39962 5.10771L5.88097 7.43211ZM6.55012 6.25758C6.67789 5.81588 6.69771 5.35022 6.60742 4.89884L3.27347 5.56573C3.25661 5.48147 3.26043 5.39437 3.28402 5.31281L6.55012 6.25758ZM6.59068 4.82397C6.42888 4.17006 6.02897 3.6107 5.48446 3.2407L3.57355 6.05288C3.44204 5.96352 3.33473 5.82055 3.29021 5.6406L6.59068 4.82397ZM5.5629 3.29733C5.15527 2.98502 4.67074 2.79462 4.1662 2.74112L3.80768 6.12216C3.69934 6.11067 3.59063 6.06944 3.49511 5.99626L5.5629 3.29733ZM4.1662 2.74112C3.66176 2.68763 3.1499 2.77224 2.68797 2.98871L4.13074 6.06742C4.02733 6.11588 3.91591 6.13364 3.80768 6.12216L4.1662 2.74112ZM2.61833 3.02332C2.28407 3.19903 1.98887 3.44639 1.75683 3.75164L4.46362 5.80915C4.39013 5.90582 4.29919 5.98087 4.20039 6.03281L2.61833 3.02332ZM1.75683 3.75164C1.52462 4.05714 1.36205 4.41241 1.28474 4.79301L4.61668 5.46989C4.59092 5.59668 4.53728 5.71223 4.46362 5.80915L1.75683 3.75164ZM1.27933 4.82079C1.15814 5.47281 1.23822 6.14372 1.50648 6.74813L4.61414 5.36884C4.62315 5.38914 4.62703 5.4155 4.62208 5.44211L1.27933 4.82079ZM1.49683 6.72596C1.51453 6.76743 1.57047 6.90212 1.64712 7.04129L4.62525 5.40095C4.63183 5.41288 4.63651 5.42209 4.63928 5.42768C4.64202 5.43322 4.64329 5.43605 4.64284 5.43506C4.64234 5.43396 4.64074 5.43043 4.63743 5.4228C4.6358 5.41905 4.63393 5.4147 4.63162 5.40933C4.62927 5.40383 4.62683 5.39812 4.62379 5.39101L1.49683 6.72596ZM2.90975 4.53627C2.85867 4.54313 2.80668 4.54177 2.75638 4.53234L2.12992 7.87413C2.53644 7.95033 2.9528 7.96105 3.36263 7.90597L2.90975 4.53627ZM2.72032 4.52598C2.35918 4.4663 1.80509 4.46235 1.27516 4.79223C0.669922 5.16898 0.328876 5.85222 0.403977 6.56969C0.53429 7.8146 1.64937 8.28437 2.22206 8.39674L2.87672 5.06036C2.94418 5.0736 3.10476 5.11825 3.28627 5.26518C3.45148 5.3989 3.73221 5.70657 3.7855 6.21572C3.84732 6.80632 3.55992 7.37491 3.07193 7.67868C2.65925 7.93557 2.286 7.90032 2.16599 7.88048L2.72032 4.52598ZM2.20587 8.39348C2.65058 8.48524 3.10532 8.52095 3.55895 8.49991L3.4014 5.10356C3.23056 5.11149 3.05956 5.098 2.8929 5.06362L2.20587 8.39348ZM3.53469 8.50086C3.65416 8.49703 3.77329 8.48525 3.89127 8.46558L3.33214 5.11187C3.36316 5.1067 3.3944 5.10361 3.42566 5.10261L3.53469 8.50086ZM2.69924 8.22309C2.6462 8.18935 2.59525 8.1516 2.54688 8.11L4.76421 5.53251C4.68829 5.4672 4.60803 5.40771 4.52417 5.35436L2.69924 8.22309ZM2.70523 8.23083C3.18379 8.55347 3.72339 8.77414 4.2891 8.88168L4.92404 5.54149C4.80638 5.51912 4.69818 5.47392 4.60586 5.41168L2.70523 8.23083ZM3.15213 6.33147C2.91007 6.73149 2.70555 7.15251 2.54137 7.58947L5.72412 8.78535C5.81422 8.54555 5.92688 8.31336 6.06101 8.0917L3.15213 6.33147ZM2.54692 7.5749C2.02296 8.93146 1.79435 10.4243 2.10269 12.0221C2.40935 13.6111 3.22169 15.1728 4.5677 16.7173L7.13093 14.4835C6.08588 13.2843 5.60995 12.2528 5.44109 11.3778C5.27393 10.5116 5.38256 9.66986 5.71857 8.79992L2.54692 7.5749ZM4.57565 16.7264C4.65988 16.8217 4.72305 16.9337 4.79016 17.1584C4.82739 17.283 4.86047 17.4231 4.90406 17.6185C4.94418 17.7985 4.99622 18.0397 5.06112 18.2842L8.34733 17.412C8.30432 17.2499 8.26993 17.091 8.22253 16.8785C8.1786 16.6815 8.12305 16.4367 8.04793 16.1852C7.89035 15.6577 7.63399 15.0525 7.12298 14.4745L4.57565 16.7264ZM5.06058 18.2821C5.11538 18.4896 5.24503 18.9572 5.58644 19.3763C6.01161 19.8983 6.636 20.1986 7.34499 20.1986V16.7986C7.45746 16.7986 7.62458 16.8208 7.80891 16.9077C7.99479 16.9953 8.13153 17.1173 8.22249 17.229C8.30656 17.3322 8.34383 17.4167 8.35377 17.4405C8.36366 17.4642 8.36091 17.4634 8.34788 17.414L5.06058 18.2821ZM7.34499 20.1986H9.67703V16.7986H7.34499V20.1986ZM9.67703 20.1986C10.1716 20.1986 10.7251 20.0562 11.1854 19.643C11.6052 19.2662 11.7716 18.817 11.8445 18.5737C11.8834 18.4442 11.9088 18.3263 11.9247 18.2489C11.9501 18.1249 11.9436 18.1503 11.9587 18.0792C11.9806 17.9761 11.9643 18.1223 11.8481 18.3072L8.96961 16.4977C8.84655 16.6934 8.77253 16.8801 8.72628 17.0203C8.68018 17.1601 8.65114 17.287 8.63315 17.3716C8.62384 17.4153 8.61566 17.4567 8.60955 17.4877C8.60272 17.5224 8.59855 17.5438 8.59408 17.5656C8.58506 17.6096 8.58336 17.6119 8.58785 17.597C8.59212 17.5827 8.66093 17.3402 8.91426 17.1128C9.04645 16.9941 9.19719 16.9085 9.34939 16.8568C9.49515 16.8072 9.61244 16.7986 9.67703 16.7986V20.1986ZM11.859 18.2895C11.6606 18.6139 11.387 18.7908 11.1833 18.8774C10.9977 18.9562 10.8524 18.9696 10.808 18.9729C10.7348 18.9782 10.7232 18.9682 10.8762 18.9891L11.3377 15.6206C11.1939 15.6009 10.883 15.5583 10.5598 15.582C10.309 15.6003 9.45971 15.6962 8.95865 16.5153L11.859 18.2895ZM10.8801 18.9897C11.9204 19.1297 12.9772 19.1073 14.0104 18.9232L13.4139 15.5759C12.7277 15.6982 12.0252 15.7132 11.3338 15.6201L10.8801 18.9897ZM13.9463 18.9334C13.8374 18.9485 13.4344 18.9687 13.0329 18.6507C12.6749 18.3672 12.5902 18.0201 12.5807 17.983L15.8756 17.1439C15.8189 16.9214 15.6574 16.3922 15.1438 15.9854C14.5868 15.5442 13.9494 15.5002 13.478 15.5658L13.9463 18.9334ZM12.5899 18.0174C12.5872 18.0077 12.5887 18.0116 12.5987 18.0595C12.6055 18.0918 12.6227 18.1774 12.6413 18.2566C12.6788 18.4169 12.7574 18.7197 12.9428 19.0347C13.1467 19.3813 13.4581 19.7073 13.8994 19.9272C14.3163 20.1349 14.7501 20.1986 15.1404 20.1986V16.7986C15.1099 16.7986 15.2324 16.7926 15.4157 16.884C15.6234 16.9875 15.779 17.1504 15.8731 17.3104C15.9486 17.4388 15.9634 17.5313 15.9516 17.4809C15.9455 17.4547 15.9416 17.4349 15.9269 17.3645C15.9155 17.3097 15.8952 17.2135 15.8664 17.1095L12.5899 18.0174ZM15.1404 20.1986H16.7035V16.7986H15.1404V20.1986ZM16.7035 20.1986C16.9944 20.1986 17.3545 20.1884 17.7016 20.1105C18.0914 20.0229 18.5708 19.8265 18.955 19.3766C19.3006 18.9718 19.4221 18.5263 19.4783 18.2755C19.5335 18.0288 19.5716 17.7315 19.6008 17.5251L16.2343 17.0489C16.2146 17.1882 16.2017 17.2837 16.1879 17.3747C16.1744 17.4631 16.1658 17.5087 16.1605 17.532C16.1552 17.556 16.1604 17.5237 16.1857 17.4629C16.2132 17.3969 16.2683 17.2871 16.3693 17.1689C16.4744 17.0458 16.597 16.9512 16.7193 16.8854C16.8333 16.824 16.9228 16.8007 16.9564 16.7931C16.9883 16.786 16.9889 16.7889 16.9387 16.7925C16.8901 16.7959 16.8157 16.7986 16.7035 16.7986V20.1986ZM19.6144 17.391C19.6143 17.3929 19.6139 17.3939 19.6139 17.3939C19.614 17.3938 19.6147 17.3919 19.6171 17.3886L16.869 15.3866C16.4876 15.9101 16.2607 16.532 16.2208 17.1829L19.6144 17.391ZM19.5296 17.4988C19.7334 17.2628 20.0233 17.0723 20.6292 16.6923C21.1635 16.3572 21.9355 15.8753 22.5827 15.1152L19.9939 12.911C19.7272 13.2242 19.3804 13.4621 18.8225 13.812C18.3361 14.1171 17.5603 14.5772 16.9564 15.2764L19.5296 17.4988ZM22.5901 15.1064C22.6711 15.0099 22.758 14.9291 22.8762 14.8576C22.9957 14.7853 23.193 14.6949 23.5212 14.6326L22.8865 11.2923C21.4508 11.5652 20.5688 12.2265 19.9865 12.9197L22.5901 15.1064ZM23.4948 14.6374C23.9596 14.5566 24.4057 14.3491 24.7738 13.9949C25.1249 13.6572 25.3276 13.261 25.4491 12.9111C25.6754 12.2592 25.7076 11.5003 25.6979 10.8145L22.2982 10.8623C22.3024 11.1545 22.2944 11.3776 22.278 11.5459C22.27 11.6285 22.2606 11.6899 22.252 11.7338C22.2434 11.778 22.237 11.7966 22.2372 11.796C22.2374 11.7953 22.2472 11.767 22.2738 11.7221C22.3013 11.6759 22.3468 11.6119 22.4166 11.5448C22.5741 11.3932 22.7617 11.3138 22.9129 11.2875L23.4948 14.6374ZM2.92821 4.73322C3.00952 4.64602 3.10637 4.58332 3.2082 4.54535L4.3963 7.731C4.78091 7.58756 5.13079 7.3566 5.41485 7.05197L2.92821 4.73322ZM5.15 5.10204C5.17361 5.13276 5.1941 5.168 5.20992 5.20717L2.05733 6.48043C2.1579 6.72945 2.2918 6.96269 2.4545 7.17431L5.15 5.10204ZM5.22147 5.23657C5.22383 5.24274 5.22358 5.24241 5.22395 5.24387C5.22443 5.24579 5.22625 5.25328 5.22838 5.26633C5.23044 5.27889 5.23389 5.30336 5.23563 5.3382C5.23815 5.38898 5.24328 5.5646 5.15899 5.79241C5.06098 6.05731 4.84423 6.374 4.46474 6.5664L2.92729 3.53387C1.84032 4.08494 1.82465 5.20171 1.83982 5.50694C1.86021 5.91731 1.97737 6.27217 2.04577 6.45104L5.22147 5.23657ZM4.26748 6.6512C4.06544 6.72331 3.84943 6.74081 3.64039 6.70342L4.23905 3.35654C3.86674 3.28994 3.48231 3.32136 3.12455 3.44906L4.26748 6.6512ZM3.64039 6.70342C3.43119 6.666 3.23013 6.57372 3.06027 6.42968L5.25918 3.83647C4.96461 3.58668 4.61151 3.42316 4.23905 3.35654L3.64039 6.70342ZM3.21606 6.54711C2.95488 6.37281 2.75546 6.10033 2.676 5.77184L5.98069 4.97247C5.85425 4.44975 5.53462 4.00682 5.10339 3.71904L3.21606 6.54711ZM2.65458 5.66966C2.62426 5.49906 2.6347 5.32408 2.68434 5.15933L5.93977 6.14025C6.04375 5.79518 6.06533 5.43033 6.00211 5.07465L2.65458 5.66966ZM2.68434 5.15933C2.73392 4.9948 2.82011 4.84844 2.93167 4.72951L5.41138 7.05567C5.65357 6.7975 5.83586 6.48509 5.93977 6.14025L2.68434 5.15933Z" fill="#665F59" mask="url(#path-1-outside-1_9687_136768)"/>
</svg>
