<svg width="24" height="25" viewBox="0 0 24 25" fill="none" xmlns="http://www.w3.org/2000/svg">
<g clip-path="url(#clip0_1747_3415)">
<path d="M5.17185 8.6943C4.73325 8.35721 4.39639 7.9054 4.19851 7.38883C4.00063 6.87226 3.94943 6.31103 4.05057 5.76718C4.15171 5.22333 4.40125 4.71803 4.77161 4.30713C5.14197 3.89623 5.61872 3.59573 6.14919 3.43885C6.67965 3.28197 7.24316 3.27481 7.77744 3.41816C8.31172 3.56151 8.79596 3.8498 9.17664 4.25116C9.55732 4.65251 9.81962 5.15131 9.93454 5.69241C10.0495 6.23352 10.0125 6.79587 9.82785 7.3173" fill="#CA005D"/>
<path d="M5.17185 8.6943C4.73325 8.35721 4.39639 7.9054 4.19851 7.38883C4.00063 6.87226 3.94943 6.31103 4.05057 5.76718C4.15171 5.22333 4.40125 4.71803 4.77161 4.30713C5.14197 3.89623 5.61872 3.59573 6.14919 3.43885C6.67965 3.28197 7.24316 3.27481 7.77744 3.41816C8.31172 3.56151 8.79596 3.8498 9.17664 4.25116C9.55732 4.65251 9.81962 5.15131 9.93454 5.69241C10.0495 6.23352 10.0125 6.79587 9.82785 7.3173" stroke="#F6F6F9" stroke-linecap="round" stroke-linejoin="round"/>
<path d="M16.002 4.31665V8.11965C17.2396 8.83577 18.1818 9.9691 18.66 11.3167H20.001C20.2662 11.3167 20.5205 11.422 20.7081 11.6095C20.8956 11.7971 21.001 12.0514 21.001 12.3166V14.3166C21.001 14.5819 20.8956 14.8362 20.7081 15.0238C20.5205 15.2113 20.2662 15.3167 20.001 15.3167H18.659C18.323 16.2667 17.752 17.1166 17.001 17.7896V19.8167C17.001 20.2145 16.8429 20.596 16.5616 20.8773C16.2803 21.1586 15.8988 21.3167 15.501 21.3167C15.1031 21.3167 14.7216 21.1586 14.4403 20.8773C14.159 20.596 14.001 20.2145 14.001 19.8167V19.2336C13.6705 19.289 13.336 19.3168 13.001 19.3166H9.00097C8.66591 19.3168 8.33142 19.289 8.00097 19.2336V19.8167C8.00097 20.2145 7.84293 20.596 7.56163 20.8773C7.28032 21.1586 6.89879 21.3167 6.50097 21.3167C6.10314 21.3167 5.72161 21.1586 5.44031 20.8773C5.159 20.596 5.00097 20.2145 5.00097 19.8167V17.8166V17.7896C4.09493 16.9796 3.45624 15.9135 3.16945 14.7325C2.88266 13.5515 2.96128 12.3112 3.39491 11.1759C3.82854 10.0405 4.59673 9.06362 5.5978 8.37448C6.59887 7.68534 7.78562 7.31645 9.00097 7.31665H11.501L16.002 4.31665Z" fill="#CA005D" stroke="#F6F6F9" stroke-linecap="round" stroke-linejoin="round"/>
<path d="M15 11.3167V11.3267" stroke="white" stroke-linecap="round" stroke-linejoin="round"/>
</g>
<defs>
<clipPath id="clip0_1747_3415">
<rect width="24" height="24" fill="white" transform="translate(0 0.31665)"/>
</clipPath>
</defs>
</svg>
