<svg width="59" height="62" viewBox="0 0 59 62" fill="none" xmlns="http://www.w3.org/2000/svg">
<g id="Group 1942">
<g id="Group 1941">
<g id="Group">
<path id="Vector" d="M23.3548 62.0004H18.0568L16.4961 51.6333H24.1346L23.3548 62.0004Z" fill="#B87292"/>
<path id="Vector_2" d="M35.0837 62.0004H40.3805L41.9424 51.6333H34.3027L35.0837 62.0004Z" fill="#B87292"/>
<path id="Vector_3" d="M57.4739 31.8452L50.5234 31.3983L50.5153 31.4363C47.7786 22.7391 38.7084 16.3521 27.9404 16.3521C15.0051 16.3521 4.51953 25.5664 4.51953 36.932C4.51953 48.2976 15.0051 57.512 27.9404 57.512C36.1216 57.512 43.3219 53.8255 47.5101 48.24C51.1917 46.3018 53.9028 46.3064 54.9615 45.2861L56.4827 42.0188C56.614 42.0073 57.0172 41.9924 57.1346 41.9636L57.4739 31.844V31.8452Z" fill="#F79CC6"/>
<path id="Vector_4" d="M20.2728 62.0004H14.9759L13.4141 51.6333H21.0537L20.2728 62.0004Z" fill="#F79CC6"/>
<path id="Vector_5" d="M32.0005 62.0004H37.2985L38.8592 51.6333H31.2207L32.0005 62.0004Z" fill="#F79CC6"/>
<path id="Vector_6" d="M57.4755 31.8452L50.525 31.3983L50.5169 31.4363C47.7802 22.7391 38.71 16.3521 27.942 16.3521C18.5709 16.3521 10.4873 21.1878 6.74305 28.1749C3.67744 38.4303 11.8319 54.4175 29.1018 54.4175C39.7931 54.4175 45.0806 45.377 45.0806 45.377L55.9439 43.182L56.4854 42.02C56.6168 42.0085 57.02 41.9935 57.1374 41.9647L57.4767 31.8452H57.4755Z" fill="#F8BAD7"/>
<path id="Vector_7" d="M47.9269 26.3864C48.3022 23.3184 50.7159 21.2155 51.1366 18.9905C51.5573 16.7655 43.2843 20.3564 39.748 21.7199L47.9269 26.3864Z" fill="#F8BAD7"/>
<path id="Vector_8" d="M4.81675 35.3232C4.81675 37.2027 0.516998 37.2084 0.738958 34.5711C0.643666 33.6314 -2.67528 39.7409 5.5756 39.1766L4.81675 35.3232Z" fill="#F79CC6"/>
</g>
<path id="Vector_9" d="M35.5326 23.3623H20.351C19.2621 23.3623 18.3789 22.4871 18.3789 21.408C18.3789 20.3289 19.2621 19.4536 20.351 19.4536H35.5326C36.6215 19.4536 37.5047 20.3289 37.5047 21.408C37.5047 22.4871 36.6215 23.3623 35.5326 23.3623Z" fill="#F79CC6"/>
<path id="Vector_10" d="M20.3517 21.8223C19.7125 21.8223 19.1454 22.1251 18.7852 22.5927C19.1454 23.0603 19.7125 23.3632 20.3517 23.3632H35.5333C36.1724 23.3632 36.7395 23.0603 37.0998 22.5927C36.7395 22.1251 36.1724 21.8223 35.5333 21.8223H20.3517Z" fill="#B87292"/>
<path id="Vector_11" d="M44.8846 33.175C45.5392 33.175 46.0699 32.4176 46.0699 31.4833C46.0699 30.5489 45.5392 29.7915 44.8846 29.7915C44.2299 29.7915 43.6992 30.5489 43.6992 31.4833C43.6992 32.4176 44.2299 33.175 44.8846 33.175Z" fill="#790038"/>
<path id="Vector_12" d="M57.3478 41.8419C56.2124 41.8419 55.6953 38.3409 55.6953 35.0875C55.6953 32.9454 55.8812 31.7051 56.8342 31.7051C56.9236 31.7051 57.0131 31.7143 57.1003 31.7235C57.1863 31.7327 57.2676 31.7419 57.3478 31.7419C57.428 31.7419 57.5093 31.7327 57.5953 31.7235C57.6813 31.7143 57.772 31.7051 57.8615 31.7051C58.8144 31.7051 59.0003 32.9454 59.0003 35.0875C59.0003 38.3409 58.4832 41.8419 57.3478 41.8419Z" fill="#F79CC6"/>
<path id="Vector_13" d="M57.0477 34.7831C57.0477 35.3935 56.9153 35.8876 56.7514 35.8876C56.5876 35.8876 56.4551 35.3935 56.4551 34.7831C56.4551 34.1728 56.5876 33.6787 56.7514 33.6787C56.9153 33.6787 57.0477 34.1728 57.0477 34.7831Z" fill="#790038"/>
<path id="Vector_14" d="M58.6102 34.7831C58.6102 35.3935 58.4778 35.8876 58.3139 35.8876C58.1501 35.8876 58.0176 35.3935 58.0176 34.7831C58.0176 34.1728 58.1501 33.6787 58.3139 33.6787C58.4778 33.6787 58.6102 34.1728 58.6102 34.7831Z" fill="#790038"/>
<g id="Group_2">
<path id="Vector_15" d="M30.6323 25.0373C36.8725 23.5777 40.7372 17.3814 39.2644 11.1973C37.7916 5.01324 31.539 1.18329 25.2988 2.64286C19.0587 4.10243 15.194 10.2988 16.6668 16.4829C18.1396 22.6669 24.3922 26.4969 30.6323 25.0373Z" fill="#FFAD30"/>
<path id="Vector_16" d="M29.85 21.7519C34.2593 20.7206 36.9901 16.3422 35.9494 11.9726C34.9087 7.60293 30.4906 4.8967 26.0814 5.92803C21.6721 6.95935 18.9413 11.3377 19.982 15.7073C21.0227 20.077 25.4407 22.7832 29.85 21.7519Z" fill="#EB7F1A"/>
<path id="Vector_17" d="M25.9925 18.3368L23.6904 18.5618L23.4336 15.7465L26.4874 15.8738L26.5454 15.0714L23.562 13.3813L23.8173 9.87536L26.8664 9.65032L27.8609 9.60841L29.073 9.53857L29.0589 11.8898L26.6017 11.9038L26.5595 12.4253L29.3016 13.819L29.0746 18.0574L26.9854 18.2685L25.991 18.3383L25.9925 18.3368Z" fill="#FFAD30"/>
<path id="Vector_18" d="M32.9697 9.27987L31.7051 8.99561L29.2312 19.8038L30.4958 20.0881L32.9697 9.27987Z" fill="#FFAD30"/>
</g>
<path id="Vector_19" d="M37.4957 21.2305C37.5015 21.2892 37.505 21.3479 37.505 21.4078C37.505 22.4869 36.6218 23.3622 35.5329 23.3622H20.3513C19.2624 23.3622 18.3792 22.4869 18.3792 21.4078C18.3792 21.3479 18.3827 21.2892 18.3885 21.2305H16.8848V27.6279H38.6415V21.2305H37.4969H37.4957Z" fill="#F8BAD7"/>
<path id="Vector_20" d="M21.6822 45.1456C28.9776 45.1456 34.8918 40.6598 34.8918 35.1263C34.8918 29.5927 28.9776 25.1069 21.6822 25.1069C14.3868 25.1069 8.47266 29.5927 8.47266 35.1263C8.47266 40.6598 14.3868 45.1456 21.6822 45.1456Z" fill="#F5C9DD"/>
</g>
</g>
</svg>
