<svg width="60" height="46" viewBox="0 0 60 46" fill="none" xmlns="http://www.w3.org/2000/svg">
<path d="M23.8558 46H18.5578L16.9971 35.553H24.6355L23.8558 46Z" fill="#B87292"/>
<path d="M35.5842 46H40.881L42.4428 35.553H34.8032L35.5842 46Z" fill="#B87292"/>
<path d="M57.9747 15.6128L51.0242 15.1625L51.016 15.2008C48.2793 6.43653 39.2091 0.000244141 28.4412 0.000244141C15.5059 0.000244141 5.02026 9.28562 5.02026 20.7389C5.02026 32.1921 15.5059 41.4775 28.4412 41.4775C36.6223 41.4775 43.8227 37.7626 48.0109 32.1341C51.6924 30.1809 54.4036 30.1855 55.4622 29.1573L56.9834 25.8649C57.1147 25.8533 57.518 25.8382 57.6353 25.8092L57.9747 15.6116V15.6128Z" fill="#F79CC6"/>
<path d="M20.7732 46H15.4764L13.9146 35.553H21.5542L20.7732 46Z" fill="#F79CC6"/>
<path d="M32.5005 46H37.7985L39.3592 35.553H31.7207L32.5005 46Z" fill="#F79CC6"/>
<path d="M57.9763 15.6128L51.0258 15.1625L51.0176 15.2008C48.2809 6.43653 39.2107 0.000244141 28.4427 0.000244141C19.0716 0.000244141 10.9881 4.8733 7.24378 11.9142C4.17817 22.2487 12.3326 38.3591 29.6025 38.3591C40.2938 38.3591 45.5813 29.249 45.5813 29.249L56.4446 27.037L56.9862 25.8661C57.1175 25.8545 57.5207 25.8394 57.6381 25.8104L57.9774 15.6128H57.9763Z" fill="#F8BAD7"/>
<path d="M48.4269 10.1117C48.8022 7.0201 51.2159 4.90097 51.6366 2.65884C52.0573 0.416698 43.7843 4.03522 40.248 5.40928L48.4269 10.1117Z" fill="#F8BAD7"/>
<path d="M5.31675 19.1176C5.31675 21.0115 1.017 21.0173 1.23896 18.3597C1.14367 17.4127 -2.17528 23.5693 6.0756 23.0007L5.31675 19.1176Z" fill="#F79CC6"/>
<path d="M31.072 7.05389H23.928C23.4156 7.05389 23 6.37694 23 5.54233C23 4.70771 23.4156 4.03076 23.928 4.03076H31.072C31.5844 4.03076 32 4.70771 32 5.54233C32 6.37694 31.5844 7.05389 31.072 7.05389Z" fill="#F79CC6"/>
<path d="M23.7698 5.03857C23.4557 5.03857 23.177 5.43473 23 6.04628C23.177 6.65784 23.4557 7.05399 23.7698 7.05399H31.2302C31.5443 7.05399 31.823 6.65784 32 6.04628C31.823 5.43473 31.5443 5.03857 31.2302 5.03857H23.7698Z" fill="#B87292"/>
<path d="M45.3855 16.9526C46.0402 16.9526 46.5709 16.1893 46.5709 15.2478C46.5709 14.3062 46.0402 13.543 45.3855 13.543C44.7309 13.543 44.2002 14.3062 44.2002 15.2478C44.2002 16.1893 44.7309 16.9526 45.3855 16.9526Z" fill="#790038"/>
<path d="M57.8473 25.6864C56.712 25.6864 56.1948 22.1584 56.1948 18.8799C56.1948 16.7213 56.3808 15.4714 57.3337 15.4714C57.4232 15.4714 57.5126 15.4807 57.5998 15.49C57.6858 15.4993 57.7671 15.5086 57.8473 15.5086C57.9275 15.5086 58.0089 15.4993 58.0948 15.49C58.1808 15.4807 58.2715 15.4714 58.361 15.4714C59.3139 15.4714 59.4998 16.7213 59.4998 18.8799C59.4998 22.1584 58.9827 25.6864 57.8473 25.6864Z" fill="#F79CC6"/>
<path d="M57.5473 18.5732C57.5473 19.1882 57.4148 19.6861 57.2509 19.6861C57.0871 19.6861 56.9546 19.1882 56.9546 18.5732C56.9546 17.9581 57.0871 17.4602 57.2509 17.4602C57.4148 17.4602 57.5473 17.9581 57.5473 18.5732Z" fill="#790038"/>
<path d="M59.1107 18.5732C59.1107 19.1882 58.9783 19.6861 58.8144 19.6861C58.6505 19.6861 58.5181 19.1882 58.5181 18.5732C58.5181 17.9581 58.6505 17.4602 58.8144 17.4602C58.9783 17.4602 59.1107 17.9581 59.1107 18.5732Z" fill="#790038"/>
<path d="M37.9952 4.91602C38.001 4.9752 38.0045 5.03439 38.0045 5.09474C38.0045 6.18215 37.1213 7.06415 36.0324 7.06415H20.8508C19.7619 7.06415 18.8787 6.18215 18.8787 5.09474C18.8787 5.03439 18.8822 4.9752 18.888 4.91602H17.3843V11.3627H39.141V4.91602H37.9964H37.9952Z" fill="#F8BAD7"/>
<path d="M22.1817 29.0154C29.4772 29.0154 35.3913 24.495 35.3913 18.9188C35.3913 13.3427 29.4772 8.82227 22.1817 8.82227C14.8863 8.82227 8.97217 13.3427 8.97217 18.9188C8.97217 24.495 14.8863 29.0154 22.1817 29.0154Z" fill="#F5C9DD"/>
<path d="M15 42.2081C22.4558 42.2081 28.5 36.1174 28.5 28.6041C28.5 21.0908 22.4558 15 15 15C7.54416 15 1.5 21.0908 1.5 28.6041C1.5 36.1174 7.54416 42.2081 15 42.2081Z" fill="#E23442"/>
<path d="M9.67132 21.9677C8.2567 23.2415 7.43571 24.6195 6.67914 23.7666C5.92294 22.9135 6.45617 21.1894 7.87079 19.9156C9.28541 18.6416 11.0454 18.3005 11.8017 19.1535C12.5583 20.0068 11.0859 20.6937 9.67132 21.9677Z" fill="white"/>
<path d="M6.40475 26.9003C6.17454 27.7 5.91974 28.3283 5.44502 28.1897C4.97031 28.051 4.77154 27.2903 5.00137 26.4905C5.23158 25.6908 5.80311 25.155 6.27783 25.2939C6.75274 25.4325 6.63458 26.1005 6.40456 26.9003H6.40475Z" fill="white"/>
<path d="M20.0848 24.9051L18.6703 23.4797L14.9999 27.1785L11.3295 23.4797L9.91504 24.9051L13.5855 28.6038L9.91504 32.3025L11.3295 33.7279L14.9999 30.0291L18.6703 33.7279L20.0848 32.3025L16.4143 28.6038L20.0848 24.9051Z" fill="white"/>
</svg>
