<svg width="22" height="16" viewBox="0 0 22 16" fill="none" xmlns="http://www.w3.org/2000/svg">
<path fill-rule="evenodd" clip-rule="evenodd" d="M21.999 8.3384C21.9839 7.59677 21.9839 6.93809 21.5927 6.57378C21.3195 6.32007 20.699 6.26965 20.3887 6.16719C19.957 6.02082 19.5608 5.60934 18.9352 4.73923C18.536 4.21043 18.0704 3.73134 17.5491 3.3129C17.625 2.37611 18.1123 1.61497 18.5339 0.813162C18.6671 0.556195 18.3956 0.191888 18.0988 0.149603C16.7026 -0.0260459 14.5713 0.523668 13.5578 1.51901C10.6272 1.39866 7.68306 1.23765 5.42184 2.2151C4.44095 2.64863 3.59417 3.3213 2.96503 4.16675C2.75749 4.13736 2.55392 4.0861 2.35799 4.01387C2.46349 3.94537 2.5588 3.8633 2.64127 3.76991C2.77121 3.6312 2.86596 3.46526 2.91805 3.28519C2.97014 3.10513 2.97814 2.91585 2.94142 2.73229C2.88278 2.4953 2.73648 2.28711 2.52998 2.14679C2.37393 2.02723 2.18602 1.95264 1.98791 1.93164C1.78981 1.91063 1.58959 1.94406 1.41033 2.02806C1.29261 2.08995 1.19048 2.17611 1.1112 2.2804C1.03193 2.38468 0.977463 2.50455 0.951682 2.63145C0.89356 2.94415 0.931663 3.26643 1.06129 3.55848C1.08489 3.61378 1.1085 3.66908 1.13717 3.72112C0.906714 3.75209 0.672535 3.74605 0.444131 3.70323C-0.0381272 3.62354 -0.0381273 4.11308 0.550363 4.22855C0.856047 4.29162 1.16892 4.31622 1.48115 4.30174C1.52525 4.30032 1.5692 4.29597 1.61268 4.28873C1.62809 4.29853 1.64274 4.3094 1.65652 4.32125C1.94196 4.51369 2.26586 4.64663 2.60755 4.71158C2.41945 5.02243 2.26086 5.34903 2.13372 5.68741C1.27375 7.91391 1.45923 10.3567 3.85029 13.1004C4.44553 13.7737 4.48937 14.5349 4.7052 15.3481C4.79626 15.6929 4.93453 15.9986 5.34597 15.9986H7.678C8.36598 15.9986 8.18387 15.2619 8.40982 14.9024C8.50931 14.7398 8.81114 14.7642 9.10792 14.8049C9.97376 14.9214 10.8534 14.9028 11.7131 14.7496C12.0757 14.6992 12.1819 14.8781 12.2291 15.0635C12.3336 15.4408 12.2999 15.9986 13.1413 15.9986H14.7045C15.7853 15.9986 15.7752 15.8002 15.9185 14.787C15.9384 14.4639 16.0511 14.1524 16.244 13.8876C17.0517 12.9524 18.3754 12.5865 19.2893 11.5131C19.6417 11.0935 20.1864 10.656 21.2048 10.4624C21.8321 10.3535 22.0176 9.65576 21.999 8.3384ZM2.1725 3.39259C2.07113 3.50131 1.94462 3.58544 1.80322 3.63818C1.73369 3.54772 1.67698 3.44873 1.6346 3.3438C1.55872 3.14538 1.43394 2.68349 1.69699 2.55013C1.77485 2.52234 1.85906 2.51538 1.94069 2.52998C2.02233 2.54458 2.09835 2.5802 2.1607 2.63308C2.24573 2.68982 2.30583 2.77504 2.32932 2.87215C2.34577 2.96469 2.3402 3.05963 2.31303 3.14979C2.28587 3.23995 2.23781 3.32297 2.1725 3.39259Z" fill="white"/>
<path fill-rule="evenodd" clip-rule="evenodd" d="M12.2022 2.35632C10.85 2.24333 9.4891 2.27278 8.14351 2.44414C7.68486 2.5092 7.70004 3.08493 8.16375 3.03939C9.51601 2.92436 10.8746 2.89502 12.2309 2.95157C12.6845 2.96458 12.6609 2.38885 12.2022 2.35632V2.35632Z" fill="#CA005D"/>
<path fill-rule="evenodd" clip-rule="evenodd" d="M17.5547 4.89455C17.6767 4.89455 17.7961 4.92946 17.8976 4.99487C17.999 5.06028 18.0781 5.15324 18.1249 5.26201C18.1716 5.37078 18.1838 5.49046 18.16 5.60593C18.1362 5.7214 18.0774 5.82746 17.9911 5.91071C17.9048 5.99396 17.7948 6.05065 17.6751 6.07362C17.5554 6.09659 17.4313 6.0848 17.3185 6.03975C17.2057 5.99469 17.1093 5.9184 17.0415 5.82051C16.9737 5.72262 16.9375 5.60753 16.9375 5.4898C16.9368 5.41145 16.9523 5.33376 16.9831 5.26124C17.0139 5.18873 17.0593 5.12285 17.1168 5.06745C17.1742 5.01204 17.2425 4.96822 17.3177 4.93854C17.3929 4.90885 17.4734 4.8939 17.5547 4.89455V4.89455Z" fill="#CA005D"/>
</svg>
