<svg width="36" height="40" viewBox="0 0 36 40" fill="none" xmlns="http://www.w3.org/2000/svg">
<path d="M2.42642 4.17861L15.1387 0.138101C15.3787 0.0618298 15.6341 0.201143 15.7091 0.449265L17.6212 6.77295C17.6962 7.02108 17.5625 7.28405 17.3225 7.36032L4.61022 11.4008C4.37025 11.4771 4.1149 11.3378 4.03988 11.0897L2.12777 4.76597C2.05274 4.51785 2.18645 4.25488 2.42642 4.17861Z" fill="#2D8E3A"/>
<path d="M4.52949 9.91288L3.20148 5.5209C3.35491 5.47213 3.48305 5.36242 3.55778 5.21583C3.6325 5.06924 3.64771 4.89776 3.60006 4.739C3.60006 4.739 3.59701 4.72894 3.59511 4.72264L14.4392 1.27593C14.463 1.3546 14.5016 1.42773 14.5526 1.49115C14.6037 1.55457 14.6664 1.60704 14.737 1.64557C14.8076 1.6841 14.8848 1.70792 14.9642 1.71568C15.0436 1.72345 15.1236 1.715 15.1997 1.69082L16.5315 6.09538C16.3779 6.14421 16.2496 6.25416 16.1749 6.40103C16.1002 6.5479 16.0853 6.71966 16.1333 6.87853L5.28918 10.3252C5.24063 10.167 5.13343 10.0348 4.99106 9.9575C4.84868 9.88022 4.68271 9.86417 4.52949 9.91288Z" fill="#5EAA65"/>
<path d="M10.437 7.70579C10.8017 7.58988 11.1244 7.36476 11.3643 7.05889C11.6042 6.75301 11.7505 6.38014 11.7847 5.9874C11.8189 5.59467 11.7395 5.19972 11.5565 4.8525C11.3735 4.50528 11.0952 4.22138 10.7567 4.03671C10.4182 3.85204 10.0348 3.77488 9.65486 3.815C9.27494 3.85512 8.91562 4.01071 8.62233 4.2621C8.32904 4.51349 8.11496 4.84939 8.00715 5.22732C7.89935 5.60524 7.90266 6.00822 8.01668 6.3853C8.16987 6.89075 8.51081 7.31371 8.96462 7.5613C9.41843 7.80889 9.94801 7.86086 10.437 7.70579Z" fill="#2D8E3A"/>
<path d="M14.0709 5.25743C14.2103 5.21313 14.3336 5.12709 14.4253 5.0102C14.517 4.8933 14.5729 4.75079 14.586 4.6007C14.599 4.45061 14.5687 4.29967 14.4988 4.16697C14.4288 4.03427 14.3225 3.92577 14.1931 3.85519C14.0637 3.78461 13.9172 3.75512 13.772 3.77046C13.6268 3.78579 13.4895 3.84525 13.3774 3.94133C13.2653 4.0374 13.1835 4.16578 13.1423 4.31021C13.1011 4.45465 13.1023 4.60866 13.1459 4.75277C13.2043 4.94602 13.3346 5.10775 13.5081 5.20239C13.6816 5.29704 13.884 5.31683 14.0709 5.25743Z" fill="#2D8E3A"/>
<path d="M9.60103 6.13641C9.63306 6.24804 9.6935 6.34888 9.77603 6.4284C9.85837 6.50745 9.96142 6.55966 10.0722 6.57842C10.203 6.59833 10.3364 6.58572 10.4613 6.54165C10.608 6.50203 10.7401 6.41881 10.8412 6.30228C10.9034 6.22453 10.9465 6.13229 10.9666 6.03342C10.988 5.94316 10.9865 5.84863 10.9623 5.75891C10.9504 5.71195 10.921 5.6717 10.8805 5.64699C10.862 5.63436 10.841 5.62631 10.8191 5.62347C10.7972 5.62062 10.7749 5.62306 10.7541 5.6306C10.737 5.63555 10.721 5.64416 10.7073 5.65587C10.6937 5.66759 10.6825 5.68215 10.6746 5.69862C10.6565 5.74231 10.6471 5.7894 10.6471 5.83703C10.6456 5.89726 10.6378 5.95711 10.6237 6.01551C10.6104 6.06666 10.5845 6.11335 10.5486 6.1511C10.5028 6.1987 10.4453 6.23268 10.3823 6.2495C10.2953 6.28043 10.2004 6.27886 10.1141 6.24506C10.0766 6.23088 10.0428 6.2078 10.0154 6.1777C9.98795 6.1476 9.96774 6.11131 9.95635 6.07176C9.93638 6.01517 9.93809 5.95294 9.96112 5.89782C9.98417 5.84444 10.0203 5.79824 10.066 5.76379C10.1292 5.71418 10.195 5.66838 10.2633 5.62659C10.3605 5.56598 10.4513 5.49506 10.5342 5.41497C10.6006 5.34844 10.649 5.26507 10.6745 5.17312C10.6998 5.07261 10.6951 4.96642 10.6611 4.8684C10.6309 4.7681 10.5738 4.6786 10.4963 4.6104C10.4171 4.54213 10.3202 4.4995 10.2178 4.48787C10.0946 4.47553 9.97037 4.4901 9.85322 4.53065C9.76076 4.55791 9.67379 4.6019 9.59635 4.66057C9.5343 4.70877 9.48232 4.76939 9.44347 4.83883C9.41061 4.89707 9.38928 4.96151 9.38074 5.02843C9.37339 5.08526 9.3777 5.1431 9.39339 5.19821C9.4072 5.2442 9.43617 5.28381 9.47526 5.31013C9.49273 5.32392 9.51314 5.33318 9.53476 5.33711C9.55639 5.34104 9.57859 5.33954 9.59948 5.33272C9.61622 5.32843 9.63192 5.32066 9.64564 5.3099C9.65935 5.29914 9.6708 5.28561 9.67927 5.27012C9.69646 5.22801 9.70773 5.18355 9.71272 5.1381C9.71766 5.06564 9.7378 4.99524 9.77173 4.93175C9.81632 4.86589 9.88341 4.81994 9.9596 4.80306C10.0373 4.77237 10.1231 4.77151 10.2017 4.80061C10.2322 4.81153 10.2597 4.82979 10.2821 4.85387C10.3045 4.87794 10.321 4.90715 10.3302 4.93907C10.3425 4.97442 10.3433 5.01286 10.3327 5.04864C10.3221 5.08469 10.3039 5.11782 10.2793 5.14561C10.2541 5.17502 10.2259 5.20155 10.1952 5.22477L10.0473 5.32694C9.96631 5.37779 9.88827 5.43345 9.81356 5.49366C9.75086 5.54389 9.69557 5.60328 9.64943 5.66997C9.61061 5.73242 9.5864 5.80338 9.57871 5.87728C9.56794 5.96422 9.57556 6.05263 9.60103 6.13641Z" fill="#5EAA65"/>
<path d="M8.54461 5.24391L9.33106 6.67128C9.35723 6.71814 9.37755 6.75444 9.39711 6.78823C9.4114 6.81187 9.43151 6.83119 9.45538 6.8442C9.4806 6.85536 9.50903 6.85575 9.53442 6.84528C9.61231 6.82053 9.64471 6.76885 9.62112 6.69082C9.60131 6.64047 9.57807 6.59162 9.55157 6.54464L8.76793 5.11775C8.74096 5.06315 8.70761 5.01213 8.66864 4.96585C8.65467 4.95309 8.63746 4.94473 8.61906 4.94177C8.60066 4.93882 8.58185 4.94138 8.56488 4.94918C8.54843 4.95338 8.53297 4.96094 8.51941 4.97141C8.50586 4.98188 8.49447 4.99504 8.48593 5.01013C8.479 5.02508 8.47506 5.04132 8.47434 5.0579C8.47362 5.07448 8.47615 5.09106 8.48176 5.10664C8.49879 5.15419 8.51982 5.20012 8.54461 5.24391Z" fill="#5EAA65"/>
<path d="M1.58755 5.59267L14.2999 1.55216C14.5398 1.47589 14.7952 1.61521 14.8702 1.86333L16.7823 8.18702C16.8574 8.43514 16.7236 8.69811 16.4837 8.77438L3.77135 12.8149C3.53138 12.8912 3.27603 12.7519 3.20101 12.5037L1.2889 6.18004C1.21387 5.93192 1.34759 5.66894 1.58755 5.59267Z" fill="#2D8E3A"/>
<path d="M3.68824 11.3261L2.35908 6.93036C2.43516 6.90618 2.50581 6.86674 2.56699 6.8143C2.62818 6.76185 2.6787 6.69743 2.71568 6.62471C2.75266 6.55199 2.77536 6.47239 2.7825 6.39046C2.78964 6.30853 2.78107 6.22587 2.75728 6.14721C2.75614 6.14161 2.75448 6.13613 2.75234 6.13085L13.5977 2.68375C13.6207 2.76325 13.6587 2.83733 13.7095 2.9017C13.7603 2.96608 13.8229 3.01947 13.8937 3.05879C13.9646 3.09811 14.0422 3.12258 14.1221 3.13078C14.2019 3.13899 14.2825 3.13076 14.3592 3.10657L15.691 7.51113C15.5376 7.56027 15.4095 7.67026 15.3349 7.81704C15.2602 7.96381 15.2451 8.13541 15.2928 8.29428L4.44869 11.741C4.4249 11.6623 4.38637 11.5892 4.33528 11.5258C4.28419 11.4624 4.22155 11.4099 4.15093 11.3714C4.08032 11.3328 4.00311 11.309 3.92372 11.3012C3.84433 11.2935 3.76431 11.3019 3.68824 11.3261Z" fill="#5EAA65"/>
<path d="M9.59524 9.1179C9.95992 9.00199 10.2826 8.77687 10.5225 8.47099C10.7624 8.16512 10.9087 7.79225 10.9429 7.39951C10.9771 7.00678 10.8977 6.61183 10.7147 6.26461C10.5317 5.91739 10.2534 5.63349 9.91493 5.44882C9.57643 5.26414 9.19298 5.18699 8.81306 5.22711C8.43315 5.26723 8.07382 5.42282 7.78053 5.67421C7.48724 5.9256 7.27316 6.2615 7.16536 6.63942C7.05755 7.01735 7.06087 7.42033 7.17489 7.79741C7.32778 8.30306 7.66868 8.72625 8.12258 8.97389C8.57649 9.22153 9.10622 9.27333 9.59524 9.1179Z" fill="#2D8E3A"/>
<path d="M13.2389 6.66954C13.3783 6.62524 13.5016 6.5392 13.5933 6.42231C13.6849 6.30541 13.7408 6.1629 13.7539 6.01281C13.767 5.86272 13.7367 5.71177 13.6667 5.57907C13.5968 5.44637 13.4904 5.33788 13.3611 5.2673C13.2317 5.19672 13.0852 5.16723 12.94 5.18256C12.7948 5.1979 12.6574 5.25736 12.5453 5.35344C12.4333 5.44951 12.3514 5.57788 12.3102 5.72232C12.269 5.86676 12.2703 6.02077 12.3139 6.16488C12.3723 6.35813 12.5026 6.51986 12.6761 6.6145C12.8495 6.70915 13.052 6.72894 13.2389 6.66954Z" fill="#2D8E3A"/>
<path d="M4.79748 9.54649C4.93685 9.50219 5.06017 9.41616 5.15185 9.29926C5.24353 9.18236 5.29944 9.03986 5.31252 8.88976C5.32559 8.73967 5.29525 8.58873 5.22532 8.45603C5.15539 8.32333 5.04902 8.21483 4.91966 8.14425C4.79029 8.07367 4.64374 8.04419 4.49855 8.05952C4.35335 8.07485 4.21603 8.13431 4.10394 8.23039C3.99185 8.32647 3.91003 8.45484 3.86883 8.59927C3.82763 8.74371 3.8289 8.89772 3.87247 9.04183C3.9309 9.23508 4.06119 9.39681 4.23466 9.49146C4.40813 9.5861 4.61058 9.6059 4.79748 9.54649Z" fill="#2D8E3A"/>
<path d="M8.76257 7.55534C8.79459 7.66697 8.85503 7.76782 8.93757 7.84733C9.02062 7.9257 9.12433 7.97679 9.2354 7.99406C9.36624 8.01366 9.49957 8.00106 9.6245 7.95729C9.77167 7.91765 9.90415 7.8343 10.0056 7.71754C10.0675 7.63986 10.1101 7.54773 10.1298 7.44906C10.1524 7.35888 10.1513 7.26402 10.1268 7.17416C10.1149 7.1272 10.0854 7.08695 10.0449 7.06224C10.0264 7.04971 10.0054 7.04171 9.98349 7.03887C9.96159 7.03603 9.93936 7.03842 9.91854 7.04585C9.90139 7.0508 9.88546 7.05941 9.87177 7.07113C9.85808 7.08285 9.84694 7.09741 9.83905 7.11388C9.82093 7.15777 9.81118 7.20489 9.81032 7.25267C9.80919 7.31272 9.80175 7.37244 9.78813 7.43077C9.7744 7.48174 9.7486 7.52833 9.71307 7.56636C9.6672 7.61396 9.60976 7.64794 9.54671 7.66475C9.45964 7.69514 9.36495 7.69357 9.27856 7.66032C9.2412 7.64593 9.20758 7.62273 9.1804 7.59256C9.15321 7.5624 9.1332 7.52612 9.12199 7.48662C9.10236 7.4302 9.10363 7.36838 9.12554 7.31307C9.14888 7.25988 9.18498 7.21376 9.23042 7.17904C9.29369 7.12959 9.35956 7.08379 9.42773 7.04184C9.52506 6.98142 9.61585 6.91049 9.69859 6.83022C9.76575 6.76392 9.81458 6.68034 9.84012 6.58799C9.86485 6.48741 9.86018 6.3814 9.8267 6.28327C9.79802 6.18223 9.74149 6.09187 9.66402 6.02323C9.58517 5.95434 9.48807 5.91162 9.38551 5.90071C9.26401 5.8883 9.14146 5.90235 9.02578 5.94194C8.93376 5.96917 8.8472 6.01302 8.77013 6.07147C8.70769 6.11976 8.6553 6.1805 8.61603 6.25011C8.58303 6.30804 8.56208 6.37248 8.55452 6.43933C8.54674 6.49614 8.55105 6.55408 8.56717 6.60911C8.58096 6.65486 8.6094 6.69447 8.64782 6.72142C8.6656 6.73505 8.68623 6.74417 8.70803 6.74803C8.72983 6.75189 8.75218 6.75038 8.77326 6.74362C8.79 6.73933 8.8057 6.73156 8.81942 6.7208C8.83313 6.71004 8.84457 6.69651 8.85305 6.68102C8.86974 6.63895 8.88059 6.59464 8.88529 6.54939C8.88817 6.4807 8.90405 6.41332 8.93204 6.35106C8.97645 6.28501 9.04362 6.23901 9.11992 6.22238C9.19561 6.19394 9.27869 6.1939 9.35467 6.22225C9.38523 6.23242 9.41301 6.25 9.43567 6.27353C9.45834 6.29705 9.47523 6.32582 9.48492 6.35742C9.49632 6.39292 9.49717 6.43108 9.48737 6.46699C9.47677 6.50342 9.45807 6.53676 9.43277 6.56435C9.40815 6.5938 9.38033 6.62023 9.34986 6.64312C9.32042 6.66489 9.2706 6.69866 9.20078 6.74568C9.11999 6.79685 9.04197 6.85251 8.96703 6.91239C8.9047 6.96251 8.84981 7.02177 8.80411 7.08832C8.76538 7.15081 8.74118 7.22175 8.7334 7.29563C8.72542 7.38327 8.73536 7.47175 8.76257 7.55534Z" fill="#5EAA65"/>
<path d="M7.704 6.6575L8.48924 8.08526C8.51541 8.13212 8.53694 8.16804 8.5565 8.20182C8.56988 8.22587 8.5897 8.24544 8.61356 8.25817C8.6388 8.2692 8.66718 8.26959 8.6926 8.25926C8.77171 8.23412 8.80251 8.18157 8.7793 8.1048C8.75949 8.05445 8.73625 8.0056 8.70975 7.95862L7.92246 6.53289C7.89494 6.47862 7.86164 6.42767 7.82317 6.38099C7.80912 6.36837 7.79192 6.36011 7.77355 6.35715C7.75519 6.3542 7.73641 6.35668 7.71941 6.36432C7.70295 6.36852 7.6875 6.37608 7.67394 6.38655C7.66038 6.39702 7.649 6.41018 7.64045 6.42527C7.63323 6.44012 7.62912 6.45639 7.62841 6.47302C7.62769 6.48965 7.63037 6.50626 7.63628 6.52178C7.65495 6.56897 7.67762 6.61439 7.704 6.6575Z" fill="#5EAA65"/>
<path fill-rule="evenodd" clip-rule="evenodd" d="M20.2856 10.1389C20.8179 10.4356 21.2526 10.8875 21.5344 11.4375C21.8163 11.9875 21.9328 12.6108 21.8691 13.2286C21.8055 13.8465 21.5646 14.4311 21.1769 14.9085C20.7892 15.386 20.2721 15.7349 19.691 15.911C19.1099 16.0872 18.4909 16.0827 17.9123 15.8982C17.3336 15.7136 16.8214 15.3573 16.4403 14.8743C16.0592 14.3913 15.8263 13.8033 15.7712 13.1846C15.716 12.5659 15.8411 11.9443 16.1305 11.3985C16.5186 10.6665 17.1743 10.1226 17.9536 9.88641C18.7328 9.6502 19.5716 9.74102 20.2856 10.1389Z" fill="#FFA100"/>
<path fill-rule="evenodd" clip-rule="evenodd" d="M27.0885 9.76514C27.4874 9.98803 27.8128 10.3271 28.0238 10.7396C28.2348 11.152 28.3218 11.6193 28.2738 12.0825C28.2258 12.5456 28.0451 12.9838 27.7543 13.3416C27.4636 13.6994 27.0759 13.9609 26.6403 14.0929C26.2047 14.225 25.7407 14.2217 25.3069 14.0835C24.8731 13.9453 24.489 13.6784 24.2031 13.3164C23.9172 12.9545 23.7424 12.5139 23.7006 12.0501C23.6589 11.5863 23.7522 11.1203 23.9687 10.7109C24.1127 10.4385 24.3077 10.1979 24.5426 10.0029C24.7774 9.80792 25.0475 9.66232 25.3373 9.57447C25.6271 9.48663 25.9309 9.45825 26.2314 9.49096C26.5319 9.52368 26.8232 9.61685 27.0885 9.76514Z" fill="#FFA100"/>
<path fill-rule="evenodd" clip-rule="evenodd" d="M22.8281 4.08146C23.1605 4.26731 23.4318 4.55002 23.6075 4.89385C23.7832 5.23769 23.8556 5.62722 23.8155 6.01322C23.7753 6.39922 23.6245 6.76436 23.382 7.06248C23.1395 7.36061 22.8163 7.57834 22.4531 7.68816C22.09 7.79798 21.7032 7.79496 21.3417 7.67948C20.9802 7.564 20.6603 7.34124 20.4222 7.03936C20.1842 6.73748 20.0388 6.37003 20.0044 5.98345C19.97 5.59687 20.0482 5.20851 20.229 4.86746C20.349 4.64051 20.5114 4.44008 20.7071 4.27766C20.9028 4.11525 21.1279 3.99405 21.3694 3.92103C21.6108 3.848 21.864 3.82458 22.1143 3.85211C22.3647 3.87964 22.6073 3.95759 22.8281 4.08146Z" fill="#FFA100"/>
<path fill-rule="evenodd" clip-rule="evenodd" d="M35.9976 27.7949C35.9764 26.6787 35.9764 25.6874 35.4293 25.1391C35.0473 24.7573 34.1795 24.6814 33.7456 24.5272C33.1419 24.3069 32.5877 23.6876 31.7128 22.3781C31.1545 21.5822 30.5034 20.8612 29.7744 20.2314C29.8805 18.8216 30.562 17.676 31.1516 16.4693C31.3379 16.0826 30.9582 15.5343 30.5431 15.4707C28.5906 15.2063 25.6098 16.0336 24.1925 17.5316C20.094 17.3505 15.9766 17.1082 12.8143 18.5792C11.4425 19.2317 10.2583 20.2441 9.3784 21.5165C9.08816 21.4723 8.80347 21.3951 8.52945 21.2864C8.677 21.1833 8.81029 21.0598 8.92562 20.9193C9.10735 20.7105 9.23985 20.4608 9.3127 20.1897C9.38554 19.9187 9.39673 19.6339 9.34538 19.3576C9.26338 19.001 9.05878 18.6876 8.76998 18.4764C8.55174 18.2965 8.28894 18.1843 8.0119 18.1526C7.73485 18.121 7.45484 18.1713 7.20415 18.2978C7.03951 18.3909 6.89667 18.5206 6.78581 18.6775C6.67494 18.8345 6.59877 19.0149 6.56272 19.2059C6.48143 19.6765 6.53472 20.1615 6.716 20.601C6.74901 20.6843 6.78203 20.7675 6.82212 20.8458C6.49983 20.8924 6.17233 20.8833 5.8529 20.8189C5.17846 20.699 5.17846 21.4357 6.00147 21.6095C6.42897 21.7044 6.86652 21.7414 7.30319 21.7197C7.36486 21.7175 7.42632 21.711 7.48713 21.7001C7.50868 21.7148 7.52917 21.7312 7.54844 21.749C7.94763 22.0386 8.40061 22.2387 8.87846 22.3365C8.6154 22.8043 8.39362 23.2958 8.21581 23.8051C7.01313 27.156 7.27253 30.8325 10.6164 34.9617C11.4489 35.9751 11.5102 37.1206 11.812 38.3445C11.9394 38.8634 12.1328 39.3235 12.7082 39.3235H15.9695C16.9317 39.3235 16.677 38.2147 16.993 37.6738C17.1321 37.429 17.5542 37.4657 17.9693 37.5269C19.1802 37.7024 20.4104 37.6743 21.6127 37.4437C22.1197 37.3678 22.2683 37.6371 22.3343 37.9161C22.4805 38.484 22.4333 39.3235 23.6101 39.3235H25.7961C27.3077 39.3235 27.2936 39.0249 27.494 37.5C27.5217 37.0137 27.6793 36.545 27.9491 36.1464C29.0787 34.739 30.9299 34.1883 32.208 32.5728C32.7009 31.9413 33.4626 31.2828 34.8869 30.9916C35.7642 30.8276 36.0236 29.7775 35.9976 27.7949ZM8.27005 20.3514C8.12827 20.515 7.95134 20.6416 7.7536 20.721C7.65636 20.5849 7.57705 20.4359 7.51778 20.278C7.41167 19.9793 7.23716 19.2842 7.60504 19.0835C7.71393 19.0416 7.8317 19.0312 7.94586 19.0531C8.06002 19.0751 8.16634 19.1287 8.25354 19.2083C8.37245 19.2937 8.45651 19.422 8.48936 19.5681C8.51236 19.7074 8.50457 19.8503 8.46658 19.986C8.42859 20.1216 8.36138 20.2466 8.27005 20.3514Z" fill="#F8E8EA"/>
<path fill-rule="evenodd" clip-rule="evenodd" d="M22.2969 18.7926C20.4057 18.6226 18.5022 18.6669 16.6202 18.9248C15.9787 19.0227 15.9999 19.8893 16.6485 19.8208C18.5398 19.6476 20.4401 19.6035 22.337 19.6886C22.9714 19.7082 22.9384 18.8416 22.2969 18.7926Z" fill="#CA005D"/>
<path fill-rule="evenodd" clip-rule="evenodd" d="M29.7763 22.6172C29.947 22.6172 30.1139 22.6698 30.2559 22.7682C30.3978 22.8667 30.5084 23.0066 30.5738 23.1703C30.6391 23.334 30.6562 23.5142 30.6229 23.688C30.5896 23.8618 30.5074 24.0214 30.3867 24.1467C30.2659 24.272 30.1121 24.3573 29.9447 24.3919C29.7773 24.4265 29.6037 24.4087 29.446 24.3409C29.2882 24.2731 29.1534 24.1583 29.0586 24.0109C28.9637 23.8636 28.9131 23.6904 28.9131 23.5132C28.9122 23.3952 28.9339 23.2783 28.9769 23.1691C29.0199 23.06 29.0835 22.9608 29.1638 22.8775C29.2442 22.7941 29.3397 22.7281 29.4449 22.6834C29.55 22.6387 29.6627 22.6162 29.7763 22.6172Z" fill="#CA005D"/>
</svg>
