<svg width="25" height="25" viewBox="0 0 25 25" fill="none" xmlns="http://www.w3.org/2000/svg">
<rect width="25" height="25" fill="#E5FEFE"/>
<path d="M17.3478 20.653C16.7436 20.9872 16.1394 21.3214 15.5352 21.6556C14.5726 22.1869 13.6126 22.7207 12.6499 23.252C12.4298 23.3742 12.2122 23.4939 11.992 23.6161H12.7677C11.7513 23.0399 10.735 22.4638 9.71859 21.8851C9.12719 21.5509 8.5358 21.2142 7.94445 20.8799C7.82157 20.8101 7.70124 20.7428 7.57836 20.6729C7.40939 20.5756 7.24042 20.4759 7.07914 20.3686C6.95114 20.2863 6.82825 20.199 6.70536 20.1092C6.66184 20.0768 6.5492 19.987 6.73865 20.1367C6.70792 20.1142 6.67976 20.0918 6.64904 20.0668C6.57992 20.0119 6.5108 19.9571 6.44423 19.9022C6.18566 19.6877 5.93734 19.4582 5.70692 19.2163C5.5866 19.0916 5.47139 18.9619 5.35875 18.8322C5.30243 18.7673 5.24866 18.6975 5.1949 18.6326C5.37155 18.8422 5.17442 18.6052 5.13346 18.5503C4.72896 18.0091 4.39104 17.4229 4.12477 16.8068C4.15037 16.8667 4.17597 16.9265 4.20157 16.9864C3.89948 16.283 3.69468 15.5472 3.58972 14.7915C3.59996 14.8588 3.60764 14.9237 3.61788 14.991C3.53852 14.4148 3.53852 13.8412 3.53852 13.26V11.115V8.27404V5.74488C3.53852 5.32834 3.55132 4.90932 3.53852 4.49027V4.47281L2.7705 5.22107C4.48064 5.22107 6.20871 4.93174 7.81651 4.35806C8.64853 4.06124 9.46008 3.69955 10.2282 3.26558C10.8784 2.89893 11.4852 2.47741 12.074 2.02593C12.3966 1.779 12.7217 1.53208 13.0443 1.28515H11.9588C12.7857 1.9162 13.5998 2.56968 14.4984 3.10595C15.9654 3.97895 17.6038 4.60749 19.2884 4.93424C20.2561 5.12131 21.2469 5.22357 22.2325 5.22357L21.4645 4.47531V5.50046V7.90739V10.7408V13.0156C21.4645 13.4745 21.4747 13.936 21.4414 14.3924C21.4286 14.572 21.4082 14.7491 21.3851 14.9262C21.3954 14.8589 21.403 14.794 21.4133 14.7267C21.3058 15.4874 21.0984 16.2332 20.7938 16.9415L20.8706 16.7619C20.5813 17.4254 20.2126 18.0515 19.7646 18.6252C19.6622 18.7574 19.8593 18.5079 19.7825 18.6027C19.7518 18.6401 19.7211 18.6775 19.6903 18.715C19.6315 18.7848 19.57 18.8546 19.5111 18.9245C19.3883 19.0617 19.2603 19.1963 19.1297 19.326C18.8686 19.583 18.5921 19.8224 18.3028 20.0469C18.2106 20.1192 18.3668 19.9995 18.3693 19.997C18.3463 20.017 18.3181 20.0344 18.2951 20.0519C18.2541 20.0818 18.2132 20.1117 18.1722 20.1392C18.0852 20.2015 17.9956 20.2614 17.906 20.3188C17.7216 20.4385 17.5373 20.5482 17.3479 20.653C16.9997 20.8475 16.8486 21.3389 17.0714 21.6756C17.2992 22.0198 17.7498 22.152 18.121 21.945C19.0401 21.4337 19.8849 20.7727 20.5787 19.9945C21.3007 19.1889 21.8639 18.2885 22.2838 17.3032C22.6857 16.3604 22.9084 15.3527 22.9775 14.3326C22.998 14.0332 22.9954 13.7314 22.9954 13.4296V10.5213V6.69268C22.9954 5.96435 23.0057 5.23355 22.9954 4.50272V4.47029C22.9954 4.06622 22.6447 3.72203 22.2274 3.72203C21.5951 3.72203 20.9602 3.67963 20.3329 3.59732C20.4021 3.60729 20.4686 3.61477 20.5377 3.62475C19.3063 3.46013 18.1005 3.13838 16.9536 2.66947C17.0151 2.69441 17.0765 2.71936 17.1379 2.7443C16.2931 2.39511 15.4841 1.97109 14.7263 1.46975C14.5343 1.34504 14.3474 1.21285 14.1631 1.07816C14.117 1.04324 14.0709 1.01081 14.0249 0.975894C14.0479 0.993353 14.158 1.07566 14.0761 1.01331C14.0607 1.00084 14.0453 0.990859 14.03 0.978388C13.8533 0.8437 13.6767 0.706517 13.4975 0.571825C13.3439 0.454596 13.1928 0.337367 13.0392 0.220138C12.8805 0.0979196 12.7115 -0.00933003 12.4965 0.000644667C12.2789 0.0106216 12.1227 0.0904397 11.9537 0.220138C11.6363 0.46208 11.3213 0.704004 11.0039 0.94596C10.9553 0.983374 10.7863 1.1031 10.9681 0.973397C10.7812 1.10559 10.5994 1.24277 10.41 1.37248C10.0336 1.62689 9.64193 1.86382 9.24252 2.08334C8.79194 2.32778 8.33111 2.54727 7.8575 2.74184L8.04183 2.66701C6.8949 3.13592 5.68908 3.45769 4.4577 3.6223C4.52683 3.61232 4.59339 3.60484 4.66251 3.59486C4.03531 3.67717 3.40295 3.71957 2.76802 3.71957C2.35328 3.71957 2 4.06128 2 4.46783V6.10155V9.57103V12.8136V13.689C2 14.2153 2.04096 14.7366 2.11776 15.2579C2.39937 17.166 3.34151 18.9768 4.71113 20.3638C5.32556 20.9849 6.03984 21.5261 6.80528 21.9626C7.04849 22.1023 7.29425 22.2395 7.53749 22.3792C8.55896 22.9579 9.5779 23.5365 10.5994 24.1151C10.9859 24.3346 11.3751 24.5541 11.7617 24.7736C11.8359 24.816 11.9101 24.8609 11.9869 24.9009C12.243 25.033 12.5169 25.033 12.7755 24.9009C12.8011 24.8884 12.8241 24.8734 12.8497 24.8609C13.674 24.4045 14.501 23.948 15.3253 23.4916C16.2086 23.0027 17.0918 22.5139 17.9751 22.025C18.0237 21.9976 18.0749 21.9701 18.1236 21.9427C18.4743 21.7482 18.6228 21.2568 18.4 20.9201C18.1696 20.5784 17.7216 20.4461 17.3478 20.6532L17.3478 20.653Z" fill="#0187CB"/>
<path d="M7.20176 12.9777L10.377 15.818C10.6483 16.0607 11.106 16.0607 11.3773 15.818L17.0015 10.7871C17.261 10.555 17.5299 10.325 17.7847 10.0866L17.7965 10.076C18.0583 9.84179 18.0772 9.41129 17.7965 9.18128C17.5134 8.94916 17.0746 8.93017 16.7962 9.18128L11.172 14.2121C10.9125 14.4443 10.6412 14.6722 10.3888 14.9127L10.377 14.9233H11.3773L8.20202 12.083C7.94017 11.8487 7.4589 11.8319 7.20176 12.083C6.94227 12.3341 6.92339 12.7266 7.20176 12.9777Z" fill="#0187CB"/>
</svg>
