<svg width="22" height="23" viewBox="0 0 22 23" fill="none" xmlns="http://www.w3.org/2000/svg">
  <path d="M21.4836 20.7727L14.636 13.8259C15.6986 12.4323 16.2734 10.7284 16.2734 8.93617C16.2734 6.79088 15.4481 4.77933 13.9558 3.26264C12.4634 1.74596 10.4753 0.911377 8.36328 0.911377C6.25127 0.911377 4.26318 1.74863 2.7708 3.26264C1.27578 4.77665 0.453125 6.79088 0.453125 8.93617C0.453125 11.0788 1.27842 13.0957 2.7708 14.6097C4.26318 16.1264 6.24863 16.961 8.36328 16.961C10.1299 16.961 11.8068 16.3778 13.1806 15.3025L20.0281 22.2466C20.0482 22.267 20.072 22.2832 20.0983 22.2942C20.1245 22.3052 20.1527 22.3109 20.1811 22.3109C20.2095 22.3109 20.2376 22.3052 20.2638 22.2942C20.2901 22.2832 20.3139 22.267 20.334 22.2466L21.4836 21.083C21.5037 21.0627 21.5196 21.0385 21.5305 21.0119C21.5414 20.9852 21.547 20.9567 21.547 20.9279C21.547 20.8991 21.5414 20.8705 21.5305 20.8439C21.5196 20.8173 21.5037 20.7931 21.4836 20.7727ZM12.5398 13.1733C11.4219 14.3048 9.94004 14.928 8.36328 14.928C6.78652 14.928 5.30469 14.3048 4.18672 13.1733C3.07139 12.0391 2.45703 10.5358 2.45703 8.93617C2.45703 7.33656 3.07139 5.83058 4.18672 4.69908C5.30469 3.56758 6.78652 2.94433 8.36328 2.94433C9.94004 2.94433 11.4245 3.56491 12.5398 4.69908C13.6552 5.83325 14.2695 7.33656 14.2695 8.93617C14.2695 10.5358 13.6552 12.0418 12.5398 13.1733Z" fill="white"/>
</svg>
