<svg width="14" height="14" viewBox="0 0 14 14" fill="none" xmlns="http://www.w3.org/2000/svg">
<path fill-rule="evenodd" clip-rule="evenodd" d="M8.3125 3.20833C8.3125 2.16129 9.1613 1.3125 10.2083 1.3125C11.2554 1.3125 12.1042 2.16129 12.1042 3.20833C12.1042 4.25537 11.2554 5.10417 10.2083 5.10417C9.1613 5.10417 8.3125 4.25537 8.3125 3.20833ZM10.2083 2.1875C9.64455 2.1875 9.1875 2.64454 9.1875 3.20833C9.1875 3.77212 9.64455 4.22917 10.2083 4.22917C10.7721 4.22917 11.2292 3.77212 11.2292 3.20833C11.2292 2.64454 10.7721 2.1875 10.2083 2.1875Z" fill="#83786F"/>
<path fill-rule="evenodd" clip-rule="evenodd" d="M1.89453 6.99935C1.89453 5.95232 2.74333 5.10352 3.79036 5.10352C4.8374 5.10352 5.6862 5.95232 5.6862 6.99935C5.6862 8.04638 4.8374 8.89518 3.79036 8.89518C2.74333 8.89518 1.89453 8.04638 1.89453 6.99935ZM3.79036 5.97852C3.22658 5.97852 2.76953 6.43557 2.76953 6.99935C2.76953 7.56313 3.22658 8.02018 3.79036 8.02018C4.35415 8.02018 4.8112 7.56313 4.8112 6.99935C4.8112 6.43557 4.35415 5.97852 3.79036 5.97852Z" fill="#83786F"/>
<path fill-rule="evenodd" clip-rule="evenodd" d="M9.12566 3.73235C9.25086 3.939 9.18484 4.20803 8.97818 4.33323L5.28536 6.57058C5.07871 6.69578 4.80968 6.62975 4.68448 6.4231C4.55927 6.21644 4.6253 5.94742 4.83195 5.82221L8.52478 3.58487C8.73143 3.45966 9.00046 3.52569 9.12566 3.73235Z" fill="#83786F"/>
<path fill-rule="evenodd" clip-rule="evenodd" d="M4.68201 7.52555C4.80493 7.31753 5.07321 7.24854 5.28123 7.37146L9.17218 9.67067C9.3802 9.79359 9.44919 10.0619 9.32627 10.2699C9.20334 10.4779 8.93506 10.5469 8.72704 10.424L4.83609 8.12477C4.62807 8.00185 4.55909 7.73357 4.68201 7.52555Z" fill="#83786F"/>
<path fill-rule="evenodd" clip-rule="evenodd" d="M10.2083 9.77148C9.64455 9.77148 9.1875 10.2285 9.1875 10.7923C9.1875 11.3561 9.64455 11.8132 10.2083 11.8132C10.7721 11.8132 11.2292 11.3561 11.2292 10.7923C11.2292 10.2285 10.7721 9.77148 10.2083 9.77148ZM8.3125 10.7923C8.3125 9.74528 9.1613 8.89648 10.2083 8.89648C11.2554 8.89648 12.1042 9.74528 12.1042 10.7923C12.1042 11.8394 11.2554 12.6882 10.2083 12.6882C9.1613 12.6882 8.3125 11.8394 8.3125 10.7923Z" fill="#83786F"/>
<ellipse cx="3.79036" cy="7" rx="1.45833" ry="1.75" fill="#83786F"/>
<circle cx="10.2083" cy="10.7923" r="1.45833" fill="#83786F"/>
<ellipse cx="10.2083" cy="3.20833" rx="1.45833" ry="1.45833" fill="#83786F"/>
</svg>
