<svg width="20" height="20" viewBox="0 0 20 20" fill="none" xmlns="http://www.w3.org/2000/svg">
<path fill-rule="evenodd" clip-rule="evenodd" d="M11.875 4.58333C11.875 3.08756 13.0876 1.875 14.5833 1.875C16.0791 1.875 17.2917 3.08756 17.2917 4.58333C17.2917 6.07909 16.0791 7.29167 14.5833 7.29167C13.0876 7.29167 11.875 6.07909 11.875 4.58333ZM14.5833 3.125C13.7779 3.125 13.125 3.77792 13.125 4.58333C13.125 5.38874 13.7779 6.04167 14.5833 6.04167C15.3887 6.04167 16.0417 5.38874 16.0417 4.58333C16.0417 3.77792 15.3887 3.125 14.5833 3.125Z" fill="white"/>
<path fill-rule="evenodd" clip-rule="evenodd" d="M2.70801 10.0013C2.70801 8.50554 3.92058 7.29297 5.41634 7.29297C6.9121 7.29297 8.12467 8.50554 8.12467 10.0013C8.12467 11.4971 6.9121 12.7096 5.41634 12.7096C3.92058 12.7096 2.70801 11.4971 2.70801 10.0013ZM5.41634 8.54297C4.61094 8.54297 3.95801 9.1959 3.95801 10.0013C3.95801 10.8067 4.61094 11.4596 5.41634 11.4596C6.22175 11.4596 6.87467 10.8067 6.87467 10.0013C6.87467 9.1959 6.22175 8.54297 5.41634 8.54297Z" fill="white"/>
<path fill-rule="evenodd" clip-rule="evenodd" d="M13.0347 5.33248C13.2136 5.6277 13.1192 6.01202 12.824 6.19089L7.54856 9.38709C7.25334 9.56596 6.86902 9.47163 6.69016 9.17641C6.51129 8.88119 6.60562 8.49687 6.90084 8.318L12.1763 5.1218C12.4715 4.94293 12.8558 5.03726 13.0347 5.33248Z" fill="white"/>
<path fill-rule="evenodd" clip-rule="evenodd" d="M6.68663 10.7485C6.86223 10.4514 7.24549 10.3528 7.54266 10.5284L13.1012 13.813C13.3983 13.9886 13.4969 14.3719 13.3213 14.669C13.1457 14.9662 12.7624 15.0648 12.4653 14.8892L6.90675 11.6046C6.60958 11.429 6.51103 11.0457 6.68663 10.7485Z" fill="white"/>
<path fill-rule="evenodd" clip-rule="evenodd" d="M14.5833 13.957C13.7779 13.957 13.125 14.61 13.125 15.4154C13.125 16.2208 13.7779 16.8737 14.5833 16.8737C15.3887 16.8737 16.0417 16.2208 16.0417 15.4154C16.0417 14.61 15.3887 13.957 14.5833 13.957ZM11.875 15.4154C11.875 13.9196 13.0876 12.707 14.5833 12.707C16.0791 12.707 17.2917 13.9196 17.2917 15.4154C17.2917 16.9111 16.0791 18.1237 14.5833 18.1237C13.0876 18.1237 11.875 16.9111 11.875 15.4154Z" fill="white"/>
<ellipse cx="5.41634" cy="10" rx="2.08333" ry="2.5" fill="white"/>
<circle cx="14.5833" cy="15.4154" r="2.08333" fill="white"/>
<ellipse cx="14.5833" cy="4.58333" rx="2.08333" ry="2.08333" fill="white"/>
</svg>
