<svg width="14" height="14" viewBox="0 0 14 14" fill="none" xmlns="http://www.w3.org/2000/svg">
<path d="M11.3766 5.25164C12.8239 5.25164 14 4.0744 14 2.62582C14 1.17724 12.8195 0 11.3766 0C9.93379 0 8.75328 1.17724 8.75328 2.62582C8.75328 2.81838 8.77514 3.00656 8.81449 3.186L4.67395 5.36543C4.193 4.76149 3.45409 4.37199 2.62336 4.37199C1.17614 4.37199 0 5.54923 0 6.99781C0 8.44639 1.17614 9.62363 2.62336 9.62363C3.45409 9.62363 4.19738 9.23414 4.67833 8.62582L8.52155 10.6521C8.4822 10.8359 8.46034 11.0284 8.46034 11.2298C8.46034 12.7571 9.70206 14 11.228 14C12.7539 14 13.9956 12.7571 13.9956 11.2298C13.9956 9.70241 12.7539 8.45952 11.228 8.45952C10.3666 8.45952 9.59713 8.85339 9.08994 9.47046L5.20737 7.4267C5.22923 7.28665 5.24672 7.14661 5.24672 6.99781C5.24672 6.84902 5.2336 6.7046 5.20737 6.56455L9.40912 4.35449C9.89007 4.90153 10.594 5.24726 11.3766 5.24726V5.25164ZM11.2324 9.77243C12.0369 9.77243 12.6883 10.4289 12.6883 11.2298C12.6883 12.0306 12.0325 12.6871 11.2324 12.6871C10.4322 12.6871 9.77639 12.0306 9.77639 11.2298C9.77639 10.4289 10.4322 9.77243 11.2324 9.77243ZM2.62773 8.3151C1.90631 8.3151 1.31605 7.72429 1.31605 7.00219C1.31605 6.28009 1.90631 5.68928 2.62773 5.68928C3.34916 5.68928 3.93941 6.28009 3.93941 7.00219C3.93941 7.72429 3.34916 8.3151 2.62773 8.3151ZM11.3766 1.31291C12.0981 1.31291 12.6883 1.90372 12.6883 2.62582C12.6883 3.34792 12.0981 3.93873 11.3766 3.93873C10.6552 3.93873 10.065 3.34792 10.065 2.62582C10.065 1.90372 10.6552 1.31291 11.3766 1.31291Z" fill="#A2004A"/>
</svg>
