<svg width="16" height="15" viewBox="0 0 16 15" fill="none" xmlns="http://www.w3.org/2000/svg">
<path fill-rule="evenodd" clip-rule="evenodd" d="M8.02543 0.000531806C6.525 0.000531806 5.30103 1.26309 5.30103 2.81083C5.30103 3.72602 5.73077 4.53957 6.39085 5.05315L3.76301 9.59044C3.4421 9.45401 3.08989 9.37964 2.7244 9.37964C1.22397 9.37964 0 10.6422 0 12.1899C0 13.7377 1.22397 15.0002 2.7244 15.0002C4.1009 15.0002 5.2409 13.9353 5.42042 12.5646H10.5796C10.7587 13.9355 11.8988 15.0002 13.2756 15.0002C14.776 15.0002 16 13.7377 16 12.1899C16 10.6422 14.776 9.37964 13.2756 9.37964C11.8982 9.37964 10.758 10.4434 10.5796 11.8153H5.42593C5.32952 11.0657 4.94588 10.408 4.39286 9.96512L7.02642 5.42181C7.33694 5.54936 7.67168 5.62084 8.0254 5.62084C9.52582 5.62084 10.7498 4.35828 10.7498 2.81054C10.7498 1.2628 9.52582 0.000244141 8.0254 0.000244141L8.02543 0.000531806ZM8.02543 0.749878C9.13322 0.749878 10.0234 1.66808 10.0234 2.81083C10.0234 3.95359 9.13325 4.87178 8.02543 4.87178C6.9176 4.87178 6.02747 3.95359 6.02747 2.81083C6.02747 1.66808 6.9176 0.749878 8.02543 0.749878ZM2.7242 10.1293C3.08807 10.1293 3.42797 10.2286 3.72318 10.4045C4.31953 10.7613 4.72216 11.4252 4.72216 12.1902C4.72216 13.3329 3.83203 14.2511 2.7242 14.2511C1.61638 14.2511 0.726247 13.3329 0.726247 12.1902C0.726247 11.0474 1.61638 10.1293 2.7242 10.1293ZM13.2754 10.1293C14.3832 10.1293 15.2734 11.0475 15.2734 12.1902C15.2734 13.333 14.3832 14.2512 13.2754 14.2512C12.1676 14.2512 11.2775 13.333 11.2775 12.1902C11.2775 11.0475 12.1676 10.1293 13.2754 10.1293Z" fill="#CA005D"/>
</svg>
