<svg width="25" height="22" viewBox="0 0 25 22" xmlns="http://www.w3.org/2000/svg">
<path d="M0 0V17.5341H4.46429V22L5.91518 20.8489L10.1286 17.5341H25V0H0ZM1.78571 1.75341H23.2143V15.7807H9.51429L9.26339 15.9727L6.25 18.3284V15.7807H1.78571V1.75341Z" />
<path d="M5 11.625C5.306 11.85 6.17 12.201 7.052 12.201C8.348 12.201 9.194 11.562 9.194 10.374C9.194 9.213 8.33 8.862 7.511 8.601C6.836 8.394 6.314 8.223 6.314 7.665C6.314 7.107 6.791 6.936 7.196 6.936C7.691 6.936 8.204 7.188 8.672 7.575L9.257 6.846C8.789 6.369 8.033 6 7.196 6C6.017 6 5.171 6.666 5.171 7.764C5.171 8.916 5.999 9.267 6.89 9.51C7.52 9.681 8.033 9.852 8.033 10.419C8.033 11.094 7.547 11.247 7.07 11.247C6.449 11.247 5.747 10.941 5.405 10.725L5 11.625Z" />
<path d="M13.1031 10.023C13.0941 10.023 13.0851 10.023 13.0851 10.023L11.5911 6.108H10.3671L10.0251 12.093H11.0691L11.2941 8.007C11.3031 8.007 11.3121 8.007 11.3121 8.007L12.6621 11.427H13.4901L14.8761 7.971C14.8761 7.971 14.8851 7.971 14.8941 7.971L15.1191 12.093H16.1631L15.8391 6.108H14.6421L13.1031 10.023Z"/>
<path d="M16.7861 11.625C17.0921 11.85 17.9561 12.201 18.8381 12.201C20.1341 12.201 20.9801 11.562 20.9801 10.374C20.9801 9.213 20.1161 8.862 19.2971 8.601C18.6221 8.394 18.1001 8.223 18.1001 7.665C18.1001 7.107 18.5771 6.936 18.9821 6.936C19.4771 6.936 19.9901 7.188 20.4581 7.575L21.0431 6.846C20.5751 6.369 19.8191 6 18.9821 6C17.8031 6 16.9571 6.666 16.9571 7.764C16.9571 8.916 17.7851 9.267 18.6761 9.51C19.3061 9.681 19.8191 9.852 19.8191 10.419C19.8191 11.094 19.3331 11.247 18.8561 11.247C18.2351 11.247 17.5331 10.941 17.1911 10.725L16.7861 11.625Z" />
</svg>
