<svg width="24" height="24" viewBox="0 0 24 24" fill="none" xmlns="http://www.w3.org/2000/svg">
<path d="M17.0171 22C16.7125 22 16.4178 21.9233 16.141 21.7732L12.0359 19.5258C12.0244 19.519 12.0113 19.5156 11.9982 19.5156C11.9851 19.5156 11.972 19.519 11.9606 19.5258L7.85543 21.7732C7.58361 21.9216 7.28067 22 6.97938 22C6.42428 22 5.89865 21.7442 5.53841 21.2975C5.18308 20.8575 5.03243 20.2778 5.12576 19.7082L5.91011 14.9491C5.91502 14.9218 5.9052 14.8945 5.88719 14.8741L2.56967 11.5029C2.05387 10.9795 1.87048 10.2104 2.09317 9.49595C2.31587 8.78148 2.89717 8.27163 3.61111 8.1625L8.20093 7.4685C8.22713 7.46509 8.25006 7.44803 8.26152 7.42246L10.3133 3.09131C10.6326 2.41777 11.2777 2 11.9999 2C12.722 2 13.3671 2.41777 13.6865 3.09131L15.7382 7.42246C15.7497 7.44803 15.7726 7.46509 15.7988 7.4685L20.3886 8.1625C21.1026 8.26993 21.6839 8.78148 21.9065 9.49595C22.1292 10.2104 21.9475 10.9795 21.43 11.5029L18.1093 14.8741C18.0896 14.8928 18.0814 14.9218 18.0863 14.9491L18.8707 19.7082C18.964 20.2795 18.815 20.8592 18.458 21.2975C18.0962 21.7442 17.5722 22 17.0171 22Z" fill="#FFA100"/>
</svg>
