<svg width="16" height="16" viewBox="0 0 16 16" fill="none" xmlns="http://www.w3.org/2000/svg">
<path d="M8.00018 1.6665L5.96252 5.8257L1.33398 6.49687L4.68695 9.77487L3.88545 14.3332L8.00018 12.1396L12.1158 14.3332L11.3202 9.77487L14.6673 6.49687L10.0644 5.8257L8.00018 1.6665Z" fill="#CA005D" stroke="#CA005D" stroke-width="1.5" stroke-linejoin="round"/>
<path fill-rule="evenodd" clip-rule="evenodd" d="M7.99891 1.16651C8.1893 1.16602 8.36344 1.27369 8.44807 1.44422L10.3958 5.36874L14.7395 6.0021C14.9276 6.02953 15.0838 6.16121 15.1427 6.34192C15.2016 6.52263 15.153 6.72111 15.0172 6.85409L11.858 9.94804L12.6084 14.2472C12.6412 14.4355 12.5639 14.626 12.4091 14.7381C12.2544 14.8502 12.0493 14.8643 11.8806 14.7744L8.00022 12.7062L4.12068 14.7744C3.95194 14.8643 3.74668 14.8502 3.59189 14.7379C3.4371 14.6256 3.35991 14.4349 3.39302 14.2466L4.14885 9.94803L0.984465 6.8544C0.848451 6.72142 0.799668 6.52279 0.858608 6.34194C0.917547 6.16109 1.074 6.02934 1.26225 6.00205L5.62962 5.36875L7.55119 1.44653C7.63495 1.27556 7.80853 1.16699 7.99891 1.16651ZM8.0031 2.79705L6.41154 6.04568C6.33889 6.19397 6.19771 6.29683 6.03428 6.32053L2.40689 6.84652L5.0365 9.41734C5.15452 9.53272 5.20799 9.69891 5.17941 9.86146L4.55558 13.4093L7.76498 11.6984C7.91199 11.62 8.08837 11.62 8.23538 11.6983L11.4471 13.4102L10.8276 9.86084C10.7993 9.69862 10.8527 9.53286 10.9704 9.41765L13.5963 6.84598L9.99229 6.32047C9.82992 6.2968 9.6895 6.19496 9.61656 6.04799L8.0031 2.79705Z" fill="#CA005D"/>
</svg>
