<svg width="24" height="22" viewBox="0 0 24 22" fill="none" xmlns="http://www.w3.org/2000/svg">
<path fill-rule="evenodd" clip-rule="evenodd" d="M11.9974 0.750002C12.2829 0.749269 12.5441 0.910775 12.6711 1.16658L15.5927 7.05335L22.1082 8.0034C22.3903 8.04453 22.6247 8.24206 22.7131 8.51313C22.8014 8.78419 22.7284 9.08191 22.5248 9.28138L17.786 13.9223L18.9115 20.371C18.9608 20.6534 18.8448 20.9392 18.6127 21.1074C18.3806 21.2755 18.0729 21.2967 17.8199 21.1619L11.9993 18.0595L6.18002 21.1618C5.92691 21.2968 5.61901 21.2755 5.38683 21.1071C5.15465 20.9387 5.03885 20.6526 5.08852 20.3701L6.22226 13.9223L1.47569 9.28184C1.27167 9.08238 1.19849 8.78444 1.2869 8.51316C1.37531 8.24188 1.60999 8.04426 1.89236 8.00331L8.44343 7.05337L11.3258 1.17003C11.4514 0.913583 11.7118 0.750736 11.9974 0.750002ZM12.0036 3.19582L9.61631 8.06877C9.50733 8.2912 9.29555 8.44549 9.05042 8.48104L3.60932 9.27003L7.55374 13.1263C7.73077 13.2993 7.81098 13.5486 7.76811 13.7924L6.83236 19.1142L11.6465 16.5478C11.867 16.4302 12.1315 16.4302 12.3521 16.5477L17.1697 19.1155L16.2405 13.7915C16.198 13.5482 16.2781 13.2995 16.4545 13.1267L20.3934 9.26921L14.9874 8.48095C14.7439 8.44544 14.5332 8.29269 14.4238 8.07222L12.0036 3.19582Z" fill="#83786F" stroke="#83786F" stroke-linejoin="round"/>
</svg>
