<svg width="111" height="110" viewBox="0 0 111 110" fill="none" xmlns="http://www.w3.org/2000/svg">
<mask id="mask0_75_55822" style="mask-type:luminance" maskUnits="userSpaceOnUse" x="0" y="0" width="111" height="110">
<path d="M55.5 110C85.8757 110 110.5 85.3757 110.5 55C110.5 24.6243 85.8757 0 55.5 0C25.1243 0 0.5 24.6243 0.5 55C0.5 85.3757 25.1243 110 55.5 110Z" fill="white"/>
</mask>
<g mask="url(#mask0_75_55822)">
<path d="M55.5 110.065C85.8757 110.065 110.5 85.4259 110.5 55.0323C110.5 24.6388 85.8757 0 55.5 0C25.1243 0 0.5 24.6388 0.5 55.0323C0.5 85.4259 25.1243 110.065 55.5 110.065Z" fill="#F6F6F9"/>
<path d="M72.8106 91C71.7294 91 70.683 90.7276 69.7006 90.1949L55.1274 82.2166C55.0867 82.1923 55.0402 82.1802 54.9937 82.1802C54.9472 82.1802 54.9007 82.1923 54.86 82.2166L40.2868 90.1949C39.3218 90.7215 38.2464 91 37.1768 91C35.2062 91 33.3402 90.092 32.0613 88.506C30.7999 86.9442 30.2651 84.8861 30.5965 82.8643L33.3809 65.9693C33.3983 65.8725 33.3635 65.7756 33.2995 65.703L21.5223 53.7354C19.6912 51.8771 19.0402 49.147 19.8308 46.6106C20.6213 44.0743 22.6849 42.2643 25.2194 41.8769L41.5133 39.4132C41.6063 39.4011 41.6877 39.3405 41.7284 39.2497L49.0121 23.8742C50.1456 21.4831 52.436 20 54.9995 20C57.563 20 59.8534 21.4831 60.9869 23.8742L68.2706 39.2497C68.3113 39.3405 68.3927 39.4011 68.4857 39.4132L84.7796 41.8769C87.3141 42.2582 89.3777 44.0743 90.1682 46.6106C90.9588 49.147 90.3136 51.8771 88.4767 53.7354L76.6879 65.703C76.6181 65.7695 76.589 65.8725 76.6065 65.9693L79.3909 82.8643C79.7223 84.8922 79.1933 86.9503 77.926 88.506C76.6414 90.092 74.7812 91 72.8106 91Z" fill="#FFA100"/>
<path d="M58.1212 25.3452L65.4049 40.7208C65.9106 41.7922 66.893 42.5307 68.0266 42.7063L84.3205 45.17C87.1746 45.5998 88.314 49.256 86.2504 51.3566L74.4616 63.3241C73.6419 64.1594 73.2641 65.358 73.4617 66.5324L76.2462 83.4273C76.7345 86.3874 73.7466 88.6453 71.1947 87.247L56.6214 79.2687C55.61 78.7117 54.395 78.7117 53.3836 79.2687L38.8104 87.247C36.2584 88.6453 33.2705 86.3874 33.7588 83.4273L36.5433 66.5324C36.7351 65.358 36.3631 64.1534 35.5434 63.3241L23.7488 51.3505C21.6852 49.256 22.8246 45.5998 25.6788 45.164L41.9726 42.7002C43.1062 42.5307 44.0886 41.7862 44.5943 40.7147L51.878 25.3392C53.1569 22.6454 56.8423 22.6454 58.1212 25.3392V25.3452Z" fill="#FEAD22"/>
<path d="M86.2501 51.3567L74.4613 63.3181C73.6416 64.1535 73.2696 65.3521 73.4614 66.5264L74.1997 71.018C68.067 75.1464 60.7484 77.5435 52.895 77.5435C46.6169 77.5435 40.6818 76.012 35.4269 73.288L36.543 66.5264C36.5895 66.2419 36.6011 65.9574 36.5779 65.6789C36.5255 64.7951 36.1651 63.9477 35.5431 63.3121L23.7485 51.3567C23.4462 51.054 23.2195 50.715 23.0452 50.3579C22.0511 48.2634 23.237 45.5394 25.6784 45.1701L41.9723 42.7064C43.1059 42.5308 44.0883 41.7923 44.594 40.7209L51.8835 25.3514C53.1566 22.6576 56.8478 22.6576 58.1267 25.3514L61.5215 32.5125L65.4104 40.7209C65.922 41.7923 66.8985 42.5308 68.0321 42.7064L75.153 43.7839L84.3202 45.1701C87.1802 45.5999 88.3195 49.2561 86.2501 51.3567Z" fill="#FEC022"/>
<path d="M75.153 43.7839C68.6018 56.9015 55.4353 65.8605 40.2517 65.8605C39.0135 65.8605 37.787 65.8 36.5779 65.685C36.5255 64.8012 36.1651 63.9537 35.5431 63.3181L23.7485 51.3567C23.4462 51.054 23.2195 50.715 23.0452 50.3579C22.0511 48.2634 23.237 45.5394 25.6784 45.1701L41.9723 42.7064C43.1059 42.5308 44.0883 41.7923 44.594 40.7209L51.8835 25.3514C53.1566 22.6576 56.8478 22.6576 58.1267 25.3514L61.5215 32.5125L65.4104 40.7209C65.922 41.7923 66.8985 42.5308 68.0321 42.7064L75.153 43.7839Z" fill="#FCCA1A"/>
<path d="M61.5157 32.5062C55.9119 43.7775 44.6114 51.4895 31.5787 51.4895C28.6315 51.4895 25.7715 51.0961 23.0452 50.3515C22.0511 48.257 23.237 45.533 25.6784 45.1638L41.9723 42.7C43.1059 42.5245 44.0883 41.786 44.594 40.7145L51.8835 25.345C53.1566 22.6513 56.8478 22.6513 58.1267 25.345L61.5215 32.5062H61.5157Z" fill="#FBD44D"/>
</g>
</svg>
