<svg width="13" height="20" viewBox="0 0 13 20" fill="none" xmlns="http://www.w3.org/2000/svg">
<path d="M3.97959 6.86294C3.97959 7.02274 4.10322 7.15228 4.25572 7.15228L9.23341 7.15228L7.64769 8.42603C7.4859 8.55599 7.4859 8.81143 7.64769 8.94139C7.75891 9.03073 7.91352 9.03073 8.02474 8.94139L10.1545 7.23065C10.3854 7.0452 10.3854 6.68069 10.1545 6.49524L8.02474 4.78449C7.91352 4.69515 7.75891 4.69515 7.64769 4.78449C7.4859 4.91446 7.4859 5.16989 7.64769 5.29986L9.23341 6.57361L4.25572 6.57361C4.10322 6.57361 3.97959 6.70315 3.97959 6.86294Z" fill="white"/>
<path d="M8.40136 10.8275C8.40136 10.6677 8.27773 10.5381 8.12523 10.5381H3.14754L4.73326 9.26439C4.89506 9.13442 4.89506 8.87899 4.73326 8.74902C4.62204 8.65968 4.46744 8.65968 4.35622 8.74902L2.22647 10.4598C1.9956 10.6452 1.9956 11.0097 2.22647 11.1952L4.35622 12.9059C4.46744 12.9953 4.62204 12.9953 4.73327 12.9059C4.89506 12.776 4.89506 12.5205 4.73326 12.3906L3.14754 11.1168H8.12523C8.27773 11.1168 8.40136 10.9873 8.40136 10.8275Z" fill="white"/>
<path d="M11.0544 15.4545H1.30753V2.72727H11.0544V15.4545ZM7.95918 18.1818H4.42177V17.2727H7.95918V18.1818ZM9.72789 0H2.65306C1.94943 0 1.27461 0.287337 0.777064 0.7988C0.279518 1.31026 0 2.00396 0 2.72727V17.2727C0 17.996 0.279518 18.6897 0.777064 19.2012C1.27461 19.7127 1.94943 20 2.65306 20H9.72789C10.4315 20 11.1063 19.7127 11.6039 19.2012C12.1014 18.6897 12.381 17.996 12.381 17.2727V2.72727C12.381 2.00396 12.1014 1.31026 11.6039 0.7988C11.1063 0.287337 10.4315 0 9.72789 0Z" fill="white"/>
</svg>
