<svg width="21" height="20" viewBox="0 0 21 20" fill="none" xmlns="http://www.w3.org/2000/svg">
<path d="M10.5013 18.3337C15.1037 18.3337 18.8346 14.6027 18.8346 10.0003C18.8346 5.39795 15.1037 1.66699 10.5013 1.66699C5.89893 1.66699 2.16797 5.39795 2.16797 10.0003C2.16797 14.6027 5.89893 18.3337 10.5013 18.3337Z" fill="#83786F"/>
<path fill-rule="evenodd" clip-rule="evenodd" d="M1.54297 10.0003C1.54297 5.05277 5.55375 1.04199 10.5013 1.04199C15.4489 1.04199 19.4596 5.05277 19.4596 10.0003C19.4596 14.9479 15.4489 18.9587 10.5013 18.9587C5.55375 18.9587 1.54297 14.9479 1.54297 10.0003ZM10.5013 2.29199C6.24411 2.29199 2.79297 5.74313 2.79297 10.0003C2.79297 14.2575 6.24411 17.7087 10.5013 17.7087C14.7585 17.7087 18.2096 14.2575 18.2096 10.0003C18.2096 5.74313 14.7585 2.29199 10.5013 2.29199Z" fill="#83786F"/>
<path fill-rule="evenodd" clip-rule="evenodd" d="M14.6654 8.95801C14.0901 8.95801 13.6237 9.42438 13.6237 9.99967C13.6237 10.575 14.0901 11.0413 14.6654 11.0413C15.2407 11.0413 15.707 10.575 15.707 9.99967C15.707 9.42438 15.2407 8.95801 14.6654 8.95801ZM10.4987 8.95801C9.92341 8.95801 9.45703 9.42438 9.45703 9.99967C9.45703 10.575 9.92341 11.0413 10.4987 11.0413C11.074 11.0413 11.5404 10.575 11.5404 9.99967C11.5404 9.42438 11.074 8.95801 10.4987 8.95801ZM5.29037 9.99967C5.29037 9.42438 5.75674 8.95801 6.33203 8.95801C6.90732 8.95801 7.3737 9.42438 7.3737 9.99967C7.3737 10.575 6.90732 11.0413 6.33203 11.0413C5.75674 11.0413 5.29037 10.575 5.29037 9.99967Z" fill="#FFFBFF"/>
</svg>
