<svg width="16" height="19" viewBox="0 0 16 19" fill="none" xmlns="http://www.w3.org/2000/svg">
<path d="M4.5 6.18388L13.2439 6.18388L10.4049 8.72752C10.1388 8.96598 10.1388 9.38279 10.4049 9.62126L10.5771 9.77554C10.805 9.97971 11.15 9.97971 11.3779 9.77554L15.6511 5.94687C15.9173 5.7084 15.9173 5.2916 15.6511 5.05313L11.3779 1.22446C11.15 1.02029 10.805 1.02029 10.5771 1.22446L10.4049 1.37874C10.1388 1.61721 10.1388 2.03402 10.4049 2.27248L13.2439 4.81612L4.5 4.81612C4.16863 4.81612 3.9 5.08474 3.9 5.41612L3.9 5.58388C3.9 5.91525 4.16863 6.18388 4.5 6.18388Z" fill="white" stroke="white" stroke-width="0.2"/>
<path d="M11.5 12.8161L2.75609 12.8161L5.59506 10.2725C5.86121 10.034 5.86121 9.61721 5.59506 9.37874L5.42287 9.22446C5.19499 9.02029 4.84998 9.02029 4.6221 9.22446L0.348899 13.0531C0.0827427 13.2916 0.0827435 13.7084 0.348899 13.9469L4.6221 17.7755C4.84998 17.9797 5.19499 17.9797 5.42287 17.7755L5.59506 17.6213C5.86121 17.3828 5.86121 16.966 5.59506 16.7275L2.75609 14.1839L11.5 14.1839C11.8314 14.1839 12.1 13.9153 12.1 13.5839V13.4161C12.1 13.0847 11.8314 12.8161 11.5 12.8161Z" fill="white" stroke="white" stroke-width="0.2"/>
</svg>
