<svg width="18" height="18" viewBox="0 0 18 18" fill="none" xmlns="http://www.w3.org/2000/svg">
<path d="M0.894141 5.58388L0.894141 5.68388L0.994141 5.68388L14.7381 5.68388L11.4835 8.59991L11.4003 8.67439L11.4835 8.74887L12.4049 9.57448L12.4717 9.63427L12.5384 9.57448L17.5609 5.07448L17.644 5L17.5609 4.92552L12.5384 0.425522L12.4717 0.365734L12.4049 0.425522L11.4835 1.25114L11.4003 1.32561L11.4835 1.40009L14.738 4.31612L0.994141 4.31612L0.894141 4.31612L0.894141 4.41612L0.894141 5.58388Z" fill="#665F59" stroke="#665F59" stroke-width="0.2"/>
<path d="M17.5941 12.4161V12.3161H17.4941L4.25023 12.3161L7.50483 9.40009L7.58795 9.32561L7.50483 9.25113L6.58335 8.42552L6.51662 8.36573L6.44989 8.42552L1.42741 12.9255L1.34428 13L1.42741 13.0745L6.44989 17.5745L6.51662 17.6343L6.58335 17.5745L7.50483 16.7489L7.58795 16.6744L7.50483 16.5999L4.25023 13.6839L17.4941 13.6839H17.5941V13.5839V12.4161Z" fill="#665F59" stroke="#665F59" stroke-width="0.2"/>
</svg>
