<svg width="50" height="50" viewBox="0 0 50 50" fill="none" xmlns="http://www.w3.org/2000/svg">
<mask id="mask0_3511_5537" style="mask-type:luminance" maskUnits="userSpaceOnUse" x="0" y="0" width="50" height="50">
<path d="M24.9993 50C38.8065 50 49.9985 38.8065 49.9985 25.0007C49.9985 11.195 38.8065 0 24.9993 0C11.1921 0 0 11.1935 0 24.9993C0 38.805 11.1935 49.9985 24.9993 49.9985V50Z" fill="white"/>
</mask>
<g mask="url(#mask0_3511_5537)">
<circle cx="25" cy="25" r="25" fill="#E6FAEC"/>
<path d="M14.9729 19.6385C14.2517 21.9987 12.3738 27.9575 14.109 29.2818C15.8398 30.6062 17.2224 29.8515 17.2224 29.8515C17.2224 29.8515 17.6405 30.8713 20.0954 31.2254C22.5503 31.5794 26.602 30.3148 26.602 30.3148C26.602 30.3148 28.0313 31.0593 29.3469 31.0301C30.6581 31.001 31.1636 29.8675 31.1636 29.8675C31.1636 29.8675 31.6444 31.0651 32.1092 31.1627C32.5783 31.2618 35.6145 31.5648 36.2337 27.3194C36.8529 23.0681 34.755 15.7471 34.755 15.7471C34.755 15.7471 15.6883 17.2812 14.9729 19.6414V19.637V19.6385Z" fill="black"/>
<path d="M35.4175 11.525C36.6588 16.48 37.195 20.1412 37.1993 23.4412C37.2052 26.1947 35.2485 27.1694 32.7703 27.7566C30.5135 28.2913 27.5312 28.8565 24.4207 29.0561C21.3233 29.2543 18.408 28.7065 16.208 28.0858C13.7677 27.3952 12.3122 26.3579 12.4069 23.6204C12.5104 20.606 12.9358 16.3037 14.2703 11.525C14.2703 11.525 16.2809 2.66113 25.1637 2.66113C33.4594 2.66113 35.4175 11.525 35.4175 11.525Z" fill="black"/>
<path d="M8.82459 46.2102C9.21359 44.864 9.57199 43.5149 9.91728 42.1629C8.7736 41.4068 7.56144 40.6419 6.41776 39.8857C6.28955 41.2028 6.1832 42.5767 6.11035 43.9491C6.98742 44.7373 7.88779 45.4978 8.82459 46.2102Z" fill="#F88868"/>
<path d="M39.2071 46.1307C38.129 45.7198 36.8382 45.8582 35.9043 46.712C35.9626 47.1505 36.0194 47.5876 36.0777 48.0261C37.1165 47.3865 38.1581 46.7528 39.2086 46.1307H39.2071Z" fill="#F88868"/>
<path d="M6.5386 44.2639C6.79938 44.5188 7.06454 44.768 7.33262 45.0142C8.83761 46.2817 10.4257 47.4472 12.1594 48.3928C17.9419 51.5426 25.1813 51.2687 31.4257 49.8206C32.6917 49.5277 33.9505 49.1693 35.1962 48.7687C35.2428 48.6171 35.3375 48.4787 35.4919 48.384C38.6374 46.442 41.8091 44.5232 45.1222 42.8813C44.3573 40.3812 43.3375 37.9758 42.0801 35.7074C41.5964 34.8318 41.0778 33.9795 40.5256 33.1461C39.5946 31.7431 37.9104 31.0438 36.2627 31.3847C35.8227 31.4765 35.6362 32.8853 35.2006 32.964C34.8961 32.288 34.0015 32.3652 33.3328 32.1496C32.5533 31.8975 31.3558 31.7562 30.5413 31.8349C29.7954 32.4657 29.9411 33.42 28.7697 28.9502C27.6537 28.9502 25.7116 29.195 24.6233 29.4383C24.5461 34.4442 22.9712 30.8733 21.7211 31.8349C21.0728 30.9141 20.7756 31.3337 19.6334 31.4357C14.7017 31.8771 8.2461 32.1496 4.38818 42.0086C5.07148 42.788 5.78683 43.5383 6.53568 44.2653L6.5386 44.2639Z" fill="#CA005D"/>
<path d="M45.1251 42.8799C44.3602 40.3799 43.3403 37.9745 42.083 35.7061C42.9222 38.209 43.6477 40.7485 44.2596 43.3155C44.5467 43.1684 44.8351 43.0227 45.1236 42.8799H45.1251Z" fill="#960C51"/>
<path d="M36.3516 47.8569C36.2831 46.8706 36.2146 45.8828 36.1461 44.8965C36.0267 46.0023 35.9072 47.1095 35.7703 48.2153C35.964 48.0959 36.1578 47.9764 36.3516 47.8569Z" fill="#960C51"/>
<path d="M33.5996 44.3434L33.6025 44.3609C33.6025 44.4818 33.6695 44.5371 33.7657 44.5299C33.8021 44.5299 33.8487 44.5182 33.8823 44.5066V44.5911C33.8415 44.5969 33.8065 44.6085 33.7584 44.6085C33.6025 44.6129 33.4874 44.527 33.4845 44.3346C33.4801 44.1787 33.5792 44.068 33.7234 44.0724C33.856 44.0724 33.9099 44.1598 33.9158 44.2793C33.9128 44.2982 33.9216 44.3201 33.9128 44.3405L33.5821 44.3463H33.588L33.5996 44.3434ZM33.7978 44.2603C33.7978 44.2603 33.8269 44.2501 33.824 44.2327C33.8167 44.186 33.7948 44.1525 33.7336 44.1496C33.7045 44.154 33.6681 44.1584 33.6535 44.1787C33.6331 44.1991 33.6127 44.2268 33.6113 44.2574L33.8036 44.2603H33.7978Z" fill="white"/>
<path d="M33.4292 44.0859C33.4335 44.2418 33.4321 44.44 33.4365 44.5959L33.3476 44.609L33.333 44.0874H33.4292V44.0859Z" fill="white"/>
<path d="M33.4261 43.9362L33.429 43.9595C33.429 43.9595 33.4202 43.9784 33.4086 43.9799C33.4086 43.9799 33.3911 43.9886 33.3867 43.9945L33.3634 43.9974C33.3445 43.9945 33.3328 43.9901 33.3183 43.9799C33.3052 43.9697 33.3022 43.9522 33.3008 43.9406C33.3037 43.9216 33.3081 43.91 33.3183 43.8954C33.3357 43.8867 33.3459 43.8794 33.3576 43.8779L33.3809 43.875C33.3809 43.875 33.3998 43.8837 33.4013 43.8954C33.4013 43.8954 33.41 43.9129 33.4159 43.9173L33.4188 43.9406V43.9289L33.4232 43.9333L33.4261 43.9362Z" fill="white"/>
<path d="M32.2358 42.098C32.195 42.1039 31.9663 42.0645 31.9663 42.0645C31.9663 42.0645 32.1397 42.1417 32.1441 42.1709C32.1484 42.2 32.077 42.337 32.077 42.337C32.077 42.337 32.1921 42.2175 32.2358 42.1825C32.2635 42.1665 32.3116 42.1651 32.3538 42.1651C32.5316 42.1884 32.7079 42.1563 32.8638 42.0733C33.0269 41.9902 33.024 41.9727 33.024 41.9727C33.024 41.9727 32.8929 41.8955 32.6744 41.9261C32.4325 41.9611 32.265 42.0878 32.2227 42.0937L32.2358 42.098Z" fill="#D49D35"/>
<path d="M28.0486 44.8703C28.0078 44.8761 27.7732 44.8382 27.7732 44.8382C27.7732 44.8382 27.9495 44.9387 27.9582 44.9562C27.9728 44.9781 27.9335 45.1587 27.9335 45.1587C27.9335 45.1587 28.0384 45.0116 28.0748 44.9693C28.101 44.9417 28.1636 44.9562 28.1928 44.9518C28.4084 44.9868 28.6284 44.9315 28.8091 44.8032C28.9883 44.6692 28.9912 44.6444 28.9912 44.6444C28.9912 44.6444 28.812 44.5323 28.5497 44.5876C28.2875 44.643 28.0821 44.8528 28.0427 44.8703" fill="#D49D35"/>
<path d="M34.0292 42.021C33.9637 42.0297 33.6548 41.9248 33.6548 41.9248C33.6548 41.9248 33.8835 42.0909 33.8995 42.1244C33.9156 42.1579 33.8252 42.3998 33.8252 42.3998C33.8252 42.3998 33.9972 42.2133 34.0613 42.155C34.0977 42.1201 34.1851 42.1375 34.2303 42.155C34.2725 42.1608 34.695 42.2934 35.1175 42.0516C35.3958 41.8971 35.3914 41.8622 35.3914 41.8622C35.3914 41.8622 35.1656 41.6713 34.7854 41.7077C34.4051 41.7442 34.0875 42.0064 34.0234 42.021H34.0292Z" fill="#800049"/>
<path d="M26.6252 44.4307C26.5684 44.4511 26.312 44.3491 26.312 44.3491C26.312 44.3491 26.5553 44.489 26.5626 44.505C26.5772 44.5268 26.4184 44.76 26.4184 44.76C26.4184 44.76 26.5728 44.623 26.6369 44.5662C26.6952 44.5152 26.8321 44.5021 26.9166 44.5079C26.9953 44.5152 27.326 44.5516 27.7325 44.2821C27.9948 44.1 27.9962 44.0694 27.9962 44.0694C27.9962 44.0694 27.7602 43.9353 27.3799 44.014C27.007 44.0971 26.6835 44.403 26.6194 44.4176V44.4292L26.6252 44.4307Z" fill="#800049"/>
<path d="M29.2829 44.2008C29.248 44.2052 29.0964 44.1192 29.0964 44.1192C29.0964 44.1192 29.2319 44.2256 29.2348 44.2445C29.2378 44.2634 29.1168 44.3815 29.1168 44.3815C29.1168 44.3815 29.2276 44.3115 29.2771 44.2868C29.3164 44.2634 29.4009 44.2693 29.4578 44.2853C29.5146 44.3013 29.7025 44.3581 29.9852 44.2343C30.1716 44.1527 30.1702 44.1352 30.1702 44.1352C30.1702 44.1352 30.0347 44.0289 29.8016 44.0376C29.5685 44.0464 29.3252 44.1964 29.2902 44.2008" fill="#800049"/>
<path d="M28.0471 43.475C27.9845 43.5027 27.9218 43.5231 27.849 43.5158C27.5838 43.5172 27.3609 43.3876 27.3464 43.035C27.3391 42.6868 27.5693 42.5338 27.8344 42.5382C27.8956 42.5411 27.9612 42.544 28.0238 42.5586V42.7217C27.9597 42.6955 27.8971 42.6853 27.8315 42.6824C27.645 42.6853 27.5212 42.7815 27.527 43.0335C27.5328 43.2856 27.6785 43.373 27.8519 43.3657C27.9189 43.3686 27.9816 43.3468 28.0442 43.3264L28.0471 43.4764V43.475Z" fill="white"/>
<path d="M28.7291 43.154C28.7349 43.3579 28.6169 43.5007 28.4362 43.5022C28.2498 43.5051 28.1274 43.3594 28.123 43.1627C28.1172 42.9587 28.2352 42.816 28.4158 42.8145C28.6023 42.8116 28.7233 42.9456 28.7291 43.154ZM28.2906 43.1627C28.292 43.3011 28.3634 43.3754 28.4348 43.371C28.5135 43.371 28.5645 43.3099 28.5674 43.1598C28.5645 43.0097 28.4945 42.9471 28.4231 42.9515C28.3445 42.9515 28.2876 43.0126 28.2906 43.1627Z" fill="white"/>
<path d="M29.7126 43.4706L29.5567 43.475L29.5509 43.0612C29.5509 42.9767 29.5159 42.9461 29.4445 42.9446C29.4037 42.9505 29.3454 42.965 29.344 42.9956C29.3411 43.0146 29.3483 43.0306 29.3513 43.0481L29.3644 43.4793L29.2085 43.4837L29.2027 43.0699C29.2027 42.9854 29.1677 42.9548 29.108 42.9519C29.054 42.9534 29.0016 42.9665 29.0031 43.0146L29.0162 43.4881L28.8603 43.4924L28.8472 42.8572C28.9797 42.8572 29.022 42.8193 29.1298 42.8164C29.2201 42.8164 29.2595 42.8397 29.2988 42.8645C29.36 42.831 29.4241 42.8106 29.497 42.8179C29.6295 42.8179 29.7213 42.8703 29.7271 43.0437L29.7359 43.4822L29.7111 43.4735L29.7126 43.4706Z" fill="white"/>
<path d="M29.8405 43.7764C29.8434 43.6322 29.8405 43.5243 29.8391 43.3437L29.8289 42.8163C29.925 42.8148 29.9877 42.793 30.078 42.793C30.247 42.793 30.3956 42.9095 30.3985 43.1383C30.4073 43.3655 30.2543 43.4777 30.11 43.4806C30.0692 43.4865 30.0255 43.4748 29.992 43.4559L29.9949 43.7749L29.8391 43.7793L29.8405 43.7764ZM30.0678 42.9314C30.0212 42.9387 29.9804 42.9561 29.9847 42.9795L29.9906 43.316C29.9906 43.316 30.027 43.3583 30.0809 43.3568C30.1771 43.3553 30.2339 43.2927 30.231 43.1426C30.2281 42.9926 30.1698 42.9285 30.0678 42.9314Z" fill="white"/>
<path d="M30.8242 43.0352L30.8213 43.0118C30.8257 42.9565 30.7907 42.9201 30.7179 42.9244C30.645 42.9288 30.5765 42.9448 30.5095 42.9783L30.5066 42.8283C30.5751 42.8064 30.645 42.7904 30.7251 42.7977C30.881 42.7933 30.9743 42.8516 30.9772 43.0016C30.9801 43.1036 30.9757 43.1998 30.9786 43.3076C30.9801 43.3615 30.9845 43.4271 30.9874 43.4562C30.8796 43.4591 30.8111 43.481 30.7135 43.4781C30.5503 43.4781 30.4687 43.4052 30.4629 43.2799C30.4629 43.1532 30.562 43.0439 30.8126 43.0308L30.8257 43.0352H30.8242ZM30.83 43.1546C30.6989 43.1619 30.6377 43.1998 30.6421 43.2712C30.6494 43.3178 30.6843 43.3557 30.7441 43.3528C30.8053 43.3557 30.8271 43.3411 30.8286 43.3163C30.8329 43.261 30.8315 43.2071 30.8286 43.1532L30.83 43.1546Z" fill="white"/>
<path d="M31.1183 43.456L31.0979 42.8092L31.2421 42.8121L31.2392 42.8733C31.2392 42.8733 31.28 42.8194 31.3135 42.8077C31.3427 42.7975 31.3762 42.7873 31.4126 42.7873C31.4374 42.7902 31.4592 42.78 31.4854 42.7888L31.4898 42.9447L31.3849 42.9243C31.3237 42.9214 31.2625 42.9534 31.264 43.0073C31.2669 43.1151 31.2684 43.29 31.2727 43.4458L31.1168 43.4502V43.456H31.1183Z" fill="white"/>
<path d="M31.7232 42.804L31.9156 42.8011V42.9337L31.7247 42.9366C31.7247 43.0692 31.7276 43.1712 31.7305 43.2731C31.7378 43.3198 31.7582 43.3416 31.8121 43.3402C31.8485 43.3402 31.8893 43.3285 31.9228 43.3125V43.4451C31.8777 43.464 31.8252 43.4713 31.7713 43.4727C31.6562 43.4713 31.5717 43.4232 31.5717 43.3023L31.5615 42.6845L31.716 42.5898L31.7218 42.7996V42.8055L31.7232 42.804Z" fill="white"/>
<path d="M32.3611 43.0192L32.3582 42.9959C32.3625 42.9405 32.3276 42.9041 32.2547 42.9084C32.1833 42.9128 32.1134 42.9288 32.0464 42.9623L32.0435 42.8123C32.1119 42.7904 32.1892 42.7788 32.262 42.7817C32.4179 42.7773 32.5111 42.8356 32.5155 42.9915C32.5184 43.0935 32.5141 43.1896 32.517 43.2974C32.5243 43.3441 32.5184 43.3936 32.5257 43.446C32.4106 43.4446 32.3494 43.4708 32.2518 43.4679C32.0886 43.4679 32.007 43.3951 32.0012 43.2698C32.0012 43.143 32.1003 43.0337 32.3509 43.0206H32.3625L32.3611 43.0192ZM32.364 43.1255C32.2329 43.1328 32.1717 43.1707 32.1761 43.2421C32.1833 43.2887 32.2183 43.3266 32.278 43.3237C32.3392 43.3266 32.3611 43.312 32.3625 43.2872C32.3669 43.2319 32.3655 43.178 32.3625 43.1241L32.364 43.1255Z" fill="white"/>
<path d="M33.5341 43.4286L33.3782 43.433L33.3724 43.0192C33.3724 42.9347 33.3374 42.9041 33.266 42.9027C33.2252 42.9085 33.167 42.9231 33.1655 42.9536C33.1626 42.9726 33.1699 42.9886 33.1728 43.0061L33.1859 43.4373L33.03 43.4417L33.0242 43.028C33.0242 42.9435 32.9892 42.9129 32.9295 42.9099C32.8829 42.9172 32.8231 42.9245 32.8246 42.9726L32.8377 43.4461L32.6818 43.4505L32.6687 42.8152C32.8071 42.8138 32.8508 42.7832 32.9528 42.7861C33.0431 42.7861 33.0825 42.8094 33.1218 42.8342C33.1772 42.7963 33.2471 42.7803 33.3243 42.7803C33.4569 42.7803 33.5487 42.8327 33.5545 43.0061L33.5632 43.4446L33.5312 43.4315L33.5341 43.4286Z" fill="white"/>
<path d="M34.2391 43.0978C34.2449 43.3018 34.1269 43.4445 33.9462 43.446C33.7598 43.4489 33.6374 43.3032 33.633 43.1065C33.6272 42.9026 33.751 42.7583 33.9317 42.7569C34.1182 42.754 34.2391 42.8865 34.2449 43.0963H34.2391V43.0978ZM33.8006 43.108C33.802 43.2464 33.8734 43.3207 33.9448 43.3163C34.0162 43.312 34.0745 43.2551 34.0774 43.1051C34.0745 42.955 34.0045 42.8924 33.9331 42.8967C33.8545 42.8967 33.7976 42.9579 33.8006 43.108Z" fill="white"/>
<path d="M34.5554 42.7466C34.602 42.7393 34.6588 42.7495 34.7084 42.7612L34.7113 42.9112C34.6603 42.8879 34.6049 42.885 34.5568 42.8792C34.5029 42.8806 34.4636 42.9039 34.4694 42.9404C34.4709 43.0365 34.7521 43.0263 34.7579 43.2303C34.755 43.3396 34.6865 43.4445 34.5 43.4474C34.4388 43.4445 34.3849 43.4401 34.3296 43.4299V43.2973C34.3776 43.3075 34.4403 43.3235 34.4942 43.3221C34.5656 43.3177 34.6107 43.2929 34.6107 43.2507C34.6078 43.1429 34.3325 43.1589 34.3237 42.9666C34.3237 42.8398 34.4141 42.7612 34.57 42.7568L34.5568 42.7466H34.5554Z" fill="white"/>
<path d="M30.7294 44.6355L30.7119 43.8852L31.1024 43.8779L31.1155 43.9668C31.0426 43.9653 30.9465 43.9668 30.8328 43.9653C30.8212 43.9668 30.8154 43.9741 30.8183 43.9857C30.8241 44.0265 30.8241 44.111 30.8183 44.2028L31.0761 44.1955V44.28L30.8183 44.2873L30.8256 44.6297H30.7294V44.637V44.6355Z" fill="white"/>
<path d="M31.3093 44.1084C31.3137 44.2643 31.3122 44.4624 31.3166 44.6183L31.2277 44.6314L31.2131 44.1099H31.3093V44.1084Z" fill="white"/>
<path d="M31.3121 43.9626L31.315 43.9859C31.315 43.9859 31.3062 44.0048 31.2946 44.0063L31.2727 44.0208L31.2494 44.0237C31.2305 44.0208 31.2188 44.0165 31.2042 44.0063C31.1911 43.9961 31.1882 43.9786 31.1868 43.9669C31.1897 43.948 31.1941 43.9363 31.2042 43.9218C31.2217 43.913 31.2319 43.9057 31.2436 43.9043L31.2669 43.9014C31.2669 43.9014 31.2858 43.9101 31.2873 43.9218C31.2873 43.9276 31.296 43.9392 31.3019 43.9436L31.3048 43.9669L31.3091 43.9596L31.3121 43.9626Z" fill="white"/>
<path d="M31.5014 44.237L31.5087 44.6216H31.4125L31.4009 44.119C31.5087 44.1161 31.5233 44.0899 31.6252 44.087C31.7214 44.0855 31.8117 44.1263 31.8117 44.2589L31.819 44.6071H31.7229L31.717 44.2793C31.717 44.2006 31.6719 44.1715 31.599 44.17C31.532 44.1671 31.4883 44.1977 31.4868 44.2283H31.4985L31.5 44.2385L31.5014 44.237Z" fill="white"/>
<path d="M32.182 44.2836L32.1791 44.2603C32.1834 44.2049 32.1485 44.1685 32.0756 44.1729C32.0217 44.1743 31.9693 44.1874 31.9241 44.2064V44.1219C31.9751 44.1029 32.0275 44.0884 32.0814 44.0869C32.1965 44.0884 32.2738 44.1263 32.2738 44.2515V44.5036C32.2796 44.5444 32.2738 44.5823 32.2781 44.6172C32.1936 44.6172 32.1485 44.6362 32.0756 44.6347C31.9503 44.6405 31.8862 44.5779 31.8906 44.4803C31.8877 44.3783 31.9722 44.2938 32.1747 44.2836H32.1805H32.182ZM32.1863 44.3608C32.0596 44.3608 31.9999 44.4002 32.0042 44.4715C32.0057 44.4832 32.0013 44.4963 32.0086 44.5007C32.0101 44.5123 32.0232 44.5225 32.0246 44.5284C32.0363 44.5269 32.045 44.5429 32.0581 44.5473L32.0946 44.5546C32.1557 44.5575 32.1776 44.5429 32.1791 44.5182C32.1834 44.4628 32.182 44.4147 32.182 44.3681" fill="white"/>
<path d="M32.4807 44.2224L32.4879 44.607H32.3918L32.3801 44.1044C32.4879 44.1014 32.5025 44.0752 32.6045 44.0723C32.7006 44.0708 32.7852 44.1131 32.791 44.2442L32.7983 44.5924H32.7021L32.6963 44.2646C32.6963 44.1859 32.6511 44.1568 32.5783 44.1553C32.5112 44.1524 32.4675 44.183 32.4661 44.2136H32.4777L32.4792 44.2238L32.4807 44.2224Z" fill="white"/>
<path d="M33.1465 44.5428C33.1465 44.5428 33.2004 44.5413 33.2353 44.5355V44.6142C33.2353 44.6142 33.1756 44.6229 33.1465 44.6273C32.9906 44.6317 32.8813 44.5384 32.8726 44.3534C32.8726 44.1902 32.96 44.0824 33.1275 44.0766C33.1567 44.0722 33.1887 44.0795 33.2178 44.0809L33.231 44.1698C33.1945 44.1625 33.1639 44.1611 33.1333 44.1596C33.0372 44.1611 32.9847 44.2106 32.9862 44.349C32.9862 44.4816 33.0488 44.5326 33.145 44.537V44.5428H33.1465Z" fill="white"/>
<path d="M34.0278 44.6027L34.0146 44.087H34.105L34.1123 44.1394C34.1123 44.1394 34.137 44.1001 34.1647 44.084C34.1938 44.0738 34.2157 44.0651 34.2405 44.0666C34.2594 44.0695 34.2769 44.0666 34.2958 44.0709L34.2987 44.1729L34.2244 44.154C34.1633 44.1511 34.1137 44.1817 34.1152 44.2297C34.1225 44.3186 34.1239 44.457 34.1254 44.5896H34.0292L34.0307 44.6027H34.0278Z" fill="white"/>
<path d="M34.628 44.2582L34.6251 44.2349C34.6295 44.1795 34.5945 44.1431 34.5217 44.1475C34.4678 44.1489 34.4153 44.1621 34.3701 44.181V44.0965C34.4211 44.0776 34.4736 44.063 34.5275 44.0615C34.6426 44.063 34.7198 44.1009 34.7198 44.2262V44.4782C34.7256 44.519 34.7198 44.5569 34.7242 44.5918C34.6397 44.5918 34.5945 44.6108 34.5217 44.6093C34.3964 44.6152 34.3323 44.5525 34.3366 44.4549C34.3337 44.3529 34.4182 44.2684 34.6207 44.2582H34.6266H34.628ZM34.6324 44.3296C34.5056 44.3296 34.4459 44.3689 34.4503 44.4403C34.4517 44.452 34.4474 44.4651 34.4546 44.4695C34.4561 44.4811 34.4692 44.4913 34.4707 44.4971C34.4823 44.4957 34.4911 44.5117 34.4984 44.5175L34.5348 44.5248C34.596 44.5277 34.6178 44.5132 34.6193 44.4884C34.6236 44.433 34.6222 44.385 34.6222 44.3383L34.6324 44.3252V44.3311V44.3296Z" fill="white"/>
<path d="M35.0594 44.5866L34.9851 44.5676C34.9851 44.5676 34.9443 44.5312 34.9355 44.5152C34.921 44.4933 34.9282 44.4627 34.9239 44.438C34.9195 44.4132 34.9341 44.3884 34.9574 44.3724C34.9719 44.352 35.0011 44.3418 35.0186 44.3389C35.0419 44.336 35.0652 44.3316 35.0972 44.3462C35.122 44.3491 35.138 44.3768 35.1526 44.3928C35.1672 44.4147 35.1715 44.438 35.1745 44.4613L35.1643 44.5108C35.1643 44.5108 35.1453 44.5443 35.1337 44.5516C35.1162 44.5603 35.106 44.5676 35.09 44.5822C35.0666 44.5851 35.055 44.5939 35.0375 44.5895H35.0492L35.0608 44.5866H35.0594ZM35.055 44.3462C35.055 44.3462 35.0142 44.352 34.9982 44.3666C34.9763 44.3812 34.9661 44.3957 34.9574 44.4147C34.9545 44.4336 34.9515 44.4569 34.9486 44.4758C34.9515 44.4992 34.9661 44.5152 34.9807 44.5312C34.9953 44.5472 35.02 44.556 35.0331 44.5603C35.0579 44.5633 35.0754 44.5603 35.0914 44.5516C35.1147 44.5487 35.1249 44.5283 35.1337 44.5152C35.1439 44.5021 35.1526 44.4759 35.1439 44.4598L35.138 44.419C35.1366 44.4074 35.1278 44.3899 35.1147 44.3855C35.1016 44.3753 35.0943 44.371 35.0754 44.3608C35.0623 44.3506 35.0448 44.3535 35.0331 44.3549H35.0448L35.0564 44.3462H35.055ZM35.0288 44.537L35.0055 44.54L34.9982 44.3666C35.0171 44.3695 35.0273 44.3622 35.0448 44.3593C35.0812 44.3593 35.1002 44.3695 35.1002 44.4059L35.0929 44.4365C35.0929 44.4365 35.0768 44.4511 35.0725 44.4569L35.1191 44.5341L35.0958 44.537L35.0506 44.4773C35.0506 44.4773 35.0361 44.4613 35.0302 44.4627H35.0186L35.0229 44.5356H35.0288V44.537ZM35.0462 44.4496C35.0462 44.4496 35.087 44.4438 35.09 44.419C35.0929 44.4001 35.0798 44.3899 35.0506 44.3943L35.0273 44.3972L35.0346 44.4496H35.0462Z" fill="white"/>
<path d="M29.9442 32.4646C28.6329 34.2813 26.9065 34.6747 25.4831 34.5538C23.1899 34.325 22.0856 33.9637 21.6106 32.0042C21.7097 31.7798 22.3551 31.503 22.4367 31.2844C22.9335 29.9266 23.0748 28.6897 23.0573 27.444C24.9499 27.3959 26.8424 27.3479 28.9564 27.2939C28.952 27.9277 29.0088 28.6634 29.1137 29.4079C29.2536 30.4176 29.6761 31.6487 29.9442 32.4631V32.4646Z" fill="#FFAE82"/>
<path d="M29.1124 29.4099C27.4923 30.9295 25.1845 31.7235 22.9787 31.4263C22.7995 31.403 22.6043 31.3622 22.4368 31.2864C22.9336 29.9286 23.0749 28.6916 23.0574 27.446C24.95 27.3979 26.8425 27.3498 28.9565 27.2959C28.9521 27.9297 29.0089 28.6654 29.1138 29.4099H29.1124Z" fill="#F88868"/>
<path d="M27.3594 40.4605C27.2676 40.4605 27.1744 40.4241 27.1088 40.3527L24.8972 37.9022L22.5385 40.4241C22.4277 40.5363 22.2646 40.5581 22.1247 40.4824C21.8858 40.3411 16.2912 36.9042 15.4913 32.2974C15.4768 32.2129 15.4957 32.1197 15.5467 32.0468C15.5977 31.974 15.6764 31.9274 15.7682 31.9128C19.0142 31.4524 21.2156 31.0037 21.2418 30.9964C21.3467 30.976 21.4589 31.0066 21.539 31.0838C21.6191 31.161 21.6526 31.2732 21.6352 31.3781C21.6352 31.3912 21.4574 32.43 22.1451 33.2998C22.7395 34.0457 23.7885 34.4726 25.2687 34.5644C27.9902 34.7261 29.9207 32.006 30.2354 31.5296C30.2863 31.3723 30.4554 31.2717 30.62 31.3082L35.6784 32.3003C35.7775 32.3193 35.8634 32.3834 35.9101 32.4752C35.9567 32.5669 35.9523 32.6777 35.9144 32.7636C35.8183 32.9618 33.4595 37.5889 27.4978 40.4329C27.4526 40.4532 27.406 40.4664 27.3609 40.4678V40.462L27.3594 40.4605ZM24.8812 37.0776H24.8885C24.9803 37.0776 25.0662 37.1169 25.1318 37.1898L27.3842 39.7539C32.0419 37.5307 34.4459 34.1084 35.1481 32.9734L30.7598 32.0556C30.2281 32.803 28.1592 35.4196 25.2352 35.2098C23.5539 35.0845 22.3447 34.56 21.6483 33.6422C21.1034 32.9268 21.0043 32.1474 21.0043 31.6622C20.2496 31.8006 18.5217 32.0891 16.2489 32.3907C17.0502 36.0563 21.1821 39.0473 22.1932 39.7292L24.6437 37.1781C24.7034 37.1125 24.7952 37.079 24.8797 37.079L24.8812 37.0776Z" fill="#960C51"/>
<path d="M8.25171 36.5854C8.39012 34.757 8.89858 32.9577 9.78002 31.2939C10.4094 30.0206 10.5449 28.5097 10.1515 27.1446C10.1064 26.9872 10.0539 26.8226 10.0889 26.6624C10.1355 26.454 10.3307 26.301 10.5391 26.2602C10.7489 26.2195 10.9659 26.2777 11.1553 26.3753C11.7847 26.7017 12.1096 27.4258 12.2072 28.128C12.3049 28.8288 12.2218 29.5441 12.2291 30.4314C13.026 30.1444 13.823 29.8574 14.6199 29.5704C14.8341 29.4931 15.0541 29.4159 15.2799 29.429C15.6266 29.4494 15.9355 29.6869 16.103 29.99C16.272 30.293 16.3158 30.6514 16.1482 31.0724C16.495 31.0783 16.8344 31.2546 17.0369 31.5357C17.2394 31.8169 17.3006 32.1943 17.1972 32.525C17.6532 32.828 17.777 33.5303 17.2657 34.062C17.6241 34.3054 17.7421 34.7992 17.6547 35.2218C17.5658 35.6457 17.3094 36.0129 17.0384 36.3509C15.7738 37.9345 14.0881 39.1787 12.1737 39.8081C10.6163 39.1336 9.26281 38.0016 8.25171 36.584V36.5854Z" fill="#FFAE82"/>
<path d="M15.9426 31.2305C15.3103 31.5335 14.6765 31.8365 14.0442 32.1381" stroke="#F88868" stroke-width="0.3" stroke-linecap="round" stroke-linejoin="round"/>
<path d="M17.0527 32.8066C16.3898 33.1738 15.7269 33.5424 15.0654 33.9095" stroke="#F88868" stroke-width="0.3" stroke-linecap="round" stroke-linejoin="round"/>
<path d="M17.0643 34.4912C16.4727 35.2109 15.7589 35.8301 14.9634 36.3153" stroke="#F88868" stroke-width="0.3" stroke-linecap="round" stroke-linejoin="round"/>
<path d="M12.0117 30.71C11.6183 30.9518 11.2264 31.1937 10.833 31.437" stroke="#F88868" stroke-width="0.3" stroke-linecap="round" stroke-linejoin="round"/>
<path d="M12.1623 48.3923C12.646 48.656 13.1414 48.8935 13.644 49.1106C13.255 45.732 12.9359 42.3461 12.6897 38.9558C11.2168 38.1036 9.75111 37.209 8.25194 36.584C7.91976 39.1015 7.49871 41.9702 7.1272 44.8403C8.69339 46.1763 10.347 47.4045 12.1623 48.3923Z" fill="#FFAE82"/>
<path d="M43.4546 37.3892C43.172 35.5768 42.5207 33.8241 41.5096 32.2361C40.7812 31.0166 40.5262 29.5218 40.8088 28.1305C40.8409 27.9702 40.8802 27.8012 40.8321 27.6453C40.7695 27.4413 40.5626 27.3044 40.3514 27.2796C40.1401 27.2563 39.9259 27.3321 39.7453 27.4442C39.145 27.8187 38.8784 28.5675 38.8362 29.2756C38.7954 29.9822 38.9352 30.6873 38.9979 31.5732C38.1806 31.3502 37.3632 31.1273 36.5459 30.9059C36.3274 30.8461 36.1001 30.7864 35.8757 30.817C35.5319 30.8636 35.2434 31.1259 35.0992 31.442C34.9549 31.7567 34.9404 32.118 35.1414 32.5245C34.7961 32.5566 34.4727 32.7605 34.292 33.0563C34.1128 33.352 34.0822 33.7338 34.2119 34.0543C33.7821 34.3923 33.7136 35.1033 34.2658 35.5913C33.9293 35.8623 33.8491 36.3635 33.9715 36.7787C34.0939 37.1939 34.3795 37.5392 34.6752 37.8554C36.0622 39.3327 37.8411 40.44 39.8006 40.9149C41.2984 40.1194 42.5586 38.8811 43.4546 37.3892Z" fill="#FFAE82"/>
<path d="M35.3618 32.6621C36.016 32.9142 36.6716 33.1647 37.3257 33.4168" stroke="#F88868" stroke-width="0.3" stroke-linecap="round" stroke-linejoin="round"/>
<path d="M34.3811 34.3232C35.0702 34.6365 35.7608 34.9512 36.4499 35.2644" stroke="#F88868" stroke-width="0.3" stroke-linecap="round" stroke-linejoin="round"/>
<path d="M34.5037 36.0029C35.1505 36.6731 35.911 37.234 36.7444 37.6536" stroke="#F88868" stroke-width="0.3" stroke-linecap="round" stroke-linejoin="round"/>
<path d="M39.2383 31.832C39.6491 32.0418 40.06 32.2516 40.4708 32.4629" stroke="#F88868" stroke-width="0.3" stroke-linecap="round" stroke-linejoin="round"/>
<path d="M44.1215 43.3878C43.8986 41.2563 43.664 39.1977 43.4557 37.3896C41.9463 37.9914 40.332 39.4104 38.846 40.2379C38.6537 42.4087 38.4293 44.5781 38.1787 46.7431C40.1295 45.5688 42.1007 44.4295 44.1229 43.3863L44.1215 43.3878Z" fill="#FFAE82"/>
<path d="M17.9376 17.14C17.9376 17.14 16.2855 15.5243 14.9669 16.5791C13.4066 17.8248 15.0383 22.3092 17.8036 21.8342" fill="#FFA278"/>
<path d="M17.4961 20.3492C17.2717 19.6746 16.6409 18.2862 15.0732 17.667C15.0732 17.667 16.7458 19.2463 16.874 20.4672C16.8915 20.6275 17.0226 20.7498 17.1829 20.7455H17.2193C17.4203 20.7382 17.5573 20.5415 17.4946 20.3506L17.4961 20.3492Z" fill="#F88868"/>
<path d="M31.8862 17.14C31.8862 17.14 33.5369 15.5243 34.8569 16.5791C36.4143 17.8248 34.7855 22.3092 32.0203 21.8342" fill="#FFA278"/>
<path d="M32.3277 20.3492C32.5492 19.6746 33.1815 18.2862 34.7491 17.667C34.7491 17.667 33.0751 19.2463 32.9484 20.4672C32.9323 20.6275 32.8012 20.7498 32.6395 20.7455H32.6031C32.402 20.7382 32.2651 20.5415 32.3292 20.3506L32.3277 20.3492Z" fill="#F88868"/>
<path d="M33.7829 15.4341C33.7596 15.6919 33.7334 15.9615 33.7057 16.231C33.1346 21.8066 31.4125 28.8538 25.2643 28.8538C19.1161 28.8538 16.8928 22.2044 16.1207 16.7672C16.0668 16.3694 16.0172 15.9848 15.9779 15.6045C15.4272 10.4368 19.4381 5.88543 24.6334 5.82715H25.0982C28.9619 5.87668 32.1759 8.39278 33.3429 11.8122C33.4857 12.2245 33.592 12.6455 33.6736 13.0782C33.812 13.8329 33.8514 14.6255 33.7814 15.4341H33.7829Z" fill="#FFAE82"/>
<path d="M25.7554 21.85H24.5636C24.4281 21.85 24.3188 21.7393 24.3188 21.6038C24.3188 21.4683 24.4267 21.3591 24.5636 21.3591H25.7554C25.7787 21.3591 25.7918 21.3474 25.7991 21.3357C25.8078 21.327 25.8151 21.3095 25.8078 21.2891L24.8186 17.9032C24.7807 17.7721 24.855 17.6381 24.9832 17.5988C25.1143 17.5609 25.2498 17.6352 25.2892 17.7648L26.2769 21.1507C26.3265 21.3168 26.2944 21.4931 26.191 21.6315C26.0861 21.7699 25.9273 21.85 25.7539 21.85H25.7554Z" fill="#F88868"/>
<path d="M22.6245 14.2939C22.6551 14.5678 22.4482 14.8111 22.1743 14.8198C21.2535 14.8446 19.3333 15.0209 18.4038 16.0043C18.4038 16.0043 18.7112 14.3011 22.1 13.8845C22.3579 13.8524 22.5939 14.0374 22.626 14.2953L22.6245 14.2939Z" fill="black"/>
<path d="M27.4106 14.1908C27.3859 14.4647 27.6029 14.7007 27.8768 14.7007C28.7976 14.6992 30.7222 14.8201 31.6808 15.7744C31.6808 15.7744 31.3239 14.0815 27.9235 13.7639C27.6627 13.7391 27.4339 13.93 27.4106 14.1908Z" fill="black"/>
<path d="M32.7339 13.0097C25.4784 12.5974 25.2526 11.2163 20.149 9.40824C19.6449 9.22904 19.1132 9.59472 19.1001 10.1294C19.0578 11.8865 18.6615 15.3262 16.345 17.3368C16.345 17.3368 16.3028 17.0789 16.1207 16.7657C16.0668 16.3679 16.0172 15.9833 15.9779 15.6031C15.4272 10.4354 19.4381 5.88395 24.6334 5.82422H25.0982C28.9619 5.87375 32.1759 8.39131 33.3429 11.8122C33.4857 12.2245 33.592 12.6441 33.6736 13.0782C33.6736 13.0782 33.3342 13.0636 32.7339 13.0097Z" fill="black"/>
<path d="M33.7832 15.4334C33.7599 15.6913 33.7337 15.9608 33.706 16.2304C32.9834 15.8151 32.7852 14.0931 32.7357 13.0091C32.7095 12.4788 32.7182 12.1029 32.7182 12.1029C32.7182 12.1029 32.7604 11.915 33.3447 11.8115C33.4874 12.2238 33.5938 12.6449 33.6754 13.0776C33.8138 13.8323 33.8531 14.6248 33.7832 15.4334Z" fill="black"/>
<path d="M28.5589 24.0897C28.3914 24.4277 28.1553 24.722 27.88 24.9798C27.6425 25.2057 27.373 25.4038 27.0947 25.5772C26.6431 25.8584 26.1462 26.09 25.6174 26.1323C25.1133 26.1745 24.6107 26.0449 24.1474 25.8453C23.6637 25.6369 23.2135 25.3528 22.8172 25.0075C22.5651 24.7861 22.3335 24.5413 22.1295 24.2762C22.0217 24.1348 21.9168 23.9804 21.8979 23.8041C21.8789 23.6278 21.9634 23.3496 22.1397 23.3772L22.1893 23.3845C24.6806 23.7677 26.3313 23.8784 28.1757 23.3321C28.2763 23.3015 28.3797 23.2986 28.4657 23.3292C28.5516 23.3554 28.6201 23.4166 28.6521 23.5098C28.7177 23.7007 28.6478 23.909 28.5589 24.0882V24.0897Z" fill="#1F0E13"/>
<path d="M27.8814 24.9795C27.6439 25.2054 27.3744 25.4035 27.0961 25.5769C26.6445 25.8581 26.1477 26.0897 25.6188 26.132C25.1147 26.1742 24.6121 26.0445 24.1488 25.845C23.6651 25.6366 23.2149 25.3525 22.8186 25.0072C22.8375 24.9664 22.8609 24.9271 22.8871 24.8892C23.0663 24.6386 23.3475 24.4915 23.6447 24.3953C23.7161 24.3705 23.7889 24.3502 23.8603 24.3312C24.8058 24.0879 25.8097 24.1098 26.7625 24.3181C26.7989 24.3268 26.8339 24.3356 26.8703 24.3429C27.2753 24.4434 27.6978 24.6255 27.8814 24.9781V24.9795Z" fill="#E74E5B"/>
<path d="M28.4656 23.3306C28.403 23.4559 28.3243 23.5725 28.2354 23.6643C27.995 23.9148 27.4676 24.1625 26.8703 24.3446C26.3531 24.502 25.782 24.6083 25.2968 24.6185C24.7388 24.6331 24.1794 24.5559 23.6447 24.3971C23.3868 24.3199 23.1362 24.2237 22.8929 24.1086C22.5782 23.96 22.332 23.6992 22.1892 23.3845C24.6805 23.7677 26.3312 23.8784 28.1757 23.3321C28.2762 23.3015 28.3797 23.2986 28.4656 23.3292V23.3306Z" fill="#FFF0F3"/>
<path d="M24.6277 26.4179C25.1056 26.4835 25.5936 26.4806 26.0715 26.4092C25.9039 26.6306 25.6257 26.7618 25.3489 26.753C25.072 26.7443 24.8025 26.5942 24.6277 26.4179Z" fill="#F88868"/>
<path d="M31.5305 18.3552C31.1983 17.6705 30.4932 17.1824 29.7356 17.1139C28.978 17.0454 28.1956 17.3966 27.7615 18.042C28.895 17.4155 30.4145 17.5772 31.5291 18.3552H31.5305Z" fill="#1F0E13"/>
<path d="M30.2148 17.3556C30.6272 17.4401 31.0817 17.2711 31.3396 16.9375C31.3527 17.1837 31.2012 17.4314 30.9754 17.5334C30.7495 17.6339 30.464 17.5815 30.2148 17.3571V17.3556Z" fill="#1F0E13"/>
<path d="M30.9231 17.6699C31.114 17.7559 31.3092 17.8418 31.5161 17.8739C31.7229 17.9059 31.9488 17.8768 32.1149 17.7501C31.991 17.9569 31.7463 18.0851 31.5059 18.0691C31.2655 18.0531 31.0396 17.8943 30.9231 17.6699Z" fill="#1F0E13"/>
<path d="M19.4526 18.3552C19.7848 17.6705 20.49 17.1824 21.2476 17.1139C22.0052 17.0454 22.7875 17.3966 23.2217 18.042C22.0882 17.4155 20.5686 17.5772 19.4541 18.3552H19.4526Z" fill="#1F0E13"/>
<path d="M20.7684 17.3556C20.356 17.4401 19.9015 17.2711 19.6436 16.9375C19.6305 17.1837 19.782 17.4314 20.0078 17.5334C20.2337 17.6339 20.5192 17.5815 20.7684 17.3571V17.3556Z" fill="#1F0E13"/>
<path d="M20.0602 17.6699C19.8693 17.7559 19.6741 17.8418 19.4672 17.8739C19.2603 17.9059 19.0345 17.8768 18.8684 17.7501C18.9922 17.9569 19.237 18.0851 19.4774 18.0691C19.7178 18.0531 19.9436 17.8943 20.0602 17.6699Z" fill="#1F0E13"/>
</g>
</svg>
