<svg width="24" height="19" viewBox="0 0 24 19" fill="none" xmlns="http://www.w3.org/2000/svg">
<path d="M18.2533 5.77918C19.5306 5.77918 20.5662 4.7373 20.5662 3.45209C20.5662 2.16688 19.5306 1.125 18.2533 1.125C16.9759 1.125 15.9404 2.16688 15.9404 3.45209C15.9404 4.7373 16.9759 5.77918 18.2533 5.77918Z" fill="white"/>
<path fill-rule="evenodd" clip-rule="evenodd" d="M15.2393 3.45293C15.2393 1.78972 16.6199 0.441406 18.3231 0.441406C20.0262 0.441406 21.4069 1.78972 21.4069 3.45293C21.4069 5.11614 20.0262 6.46446 18.3231 6.46446C16.6199 6.46446 15.2393 5.11614 15.2393 3.45293ZM18.3231 1.83134C17.406 1.83134 16.6626 2.55736 16.6626 3.45293C16.6626 4.3485 17.406 5.07453 18.3231 5.07453C19.2401 5.07453 19.9836 4.3485 19.9836 3.45293C19.9836 2.55736 19.2401 1.83134 18.3231 1.83134Z" fill="white"/>
<path d="M24.0004 11.2547C20.3184 14.9374 15.2178 14.0919 12.2959 11.2547C12.4796 9.37113 13.207 7.55874 16.2208 7.01115C18.814 7.01117 20.6969 6.67279 22.5986 8.17474C23.7366 9.07349 24.0004 11.2547 24.0004 11.2547Z" fill="white"/>
<path d="M9.04196 7.20697C10.7662 7.20697 12.164 5.80043 12.164 4.0654C12.164 2.33037 10.7662 0.923828 9.04196 0.923828C7.31772 0.923828 5.91992 2.33037 5.91992 4.0654C5.91992 5.80043 7.31772 7.20697 9.04196 7.20697Z" fill="white"/>
<path fill-rule="evenodd" clip-rule="evenodd" d="M4.97363 4.06556C4.97363 1.82023 6.83736 0 9.13635 0C11.4353 0 13.2991 1.82023 13.2991 4.06556C13.2991 6.3109 11.4353 8.13113 9.13635 8.13113C6.83736 8.13113 4.97363 6.3109 4.97363 4.06556ZM9.13635 1.87641C7.89844 1.87641 6.89489 2.85654 6.89489 4.06556C6.89489 5.27458 7.89844 6.25471 9.13635 6.25471C10.3743 6.25471 11.3778 5.27458 11.3778 4.06556C11.3778 2.85654 10.3743 1.87641 9.13635 1.87641Z" fill="white"/>
<path d="M16.7994 14.599C11.8292 19.5707 4.94409 18.4292 1 14.599C1.24798 12.0562 2.22989 9.60948 6.298 8.87023C9.79846 8.87026 12.3402 8.41344 14.9072 10.4411C16.4433 11.6544 16.7994 14.599 16.7994 14.599Z" fill="white"/>
<path fill-rule="evenodd" clip-rule="evenodd" d="M7.89904 8.62502C10.5998 8.56389 12.8242 8.51355 15.0443 10.2672C15.8665 10.9166 16.356 12.0102 16.6402 12.908C16.7838 13.3618 16.8783 13.7763 16.9368 14.0774C16.9661 14.2281 16.9865 14.3507 16.9996 14.4362C17.0062 14.4789 17.011 14.5124 17.0141 14.5354C17.015 14.542 17.0158 14.5477 17.0164 14.5525C17.0169 14.5562 17.0173 14.5594 17.0176 14.562L17.0186 14.5692L17.0189 14.5718C17.0189 14.5719 17.0189 14.5721 16.7994 14.5987L17.0189 14.5721L17.0318 14.6789L16.9558 14.755C11.8837 19.8286 4.8591 18.6547 0.845901 14.7573L0.769531 14.6832L0.779864 14.5772C0.90561 13.2878 1.21966 11.9925 2.04104 10.9232C2.86649 9.84861 4.18293 9.02945 6.25843 8.65229L6.27804 8.64873L6.29797 8.64873C6.85119 8.64874 7.38379 8.63668 7.89904 8.62502ZM16.565 14.5197C16.5642 14.5144 16.5633 14.509 16.5625 14.5034C16.5501 14.423 16.5307 14.3062 16.5026 14.1618C16.4464 13.8729 16.3558 13.4754 16.2185 13.0414C15.9406 12.1635 15.484 11.1782 14.7701 10.6143C12.6843 8.96669 10.638 9.01048 7.94358 9.06816C7.42715 9.07921 6.88692 9.09077 6.31803 9.09104C4.33703 9.45462 3.13391 10.2266 2.39181 11.1927C1.66439 12.1397 1.3597 13.2991 1.23089 14.5139C5.09685 18.1976 11.7349 19.2686 16.565 14.5197Z" fill="white"/>
</svg>
