<svg width="26" height="24" viewBox="0 0 26 24" fill="none" xmlns="http://www.w3.org/2000/svg">
<path d="M18.5033 7.6662C20.1735 7.6662 21.4656 6.25518 21.4656 4.59287C21.4656 2.93055 20.1735 1.51953 18.5033 1.51953C16.8331 1.51953 15.541 2.93055 15.541 4.59287C15.541 6.25518 16.8331 7.6662 18.5033 7.6662Z" stroke="#665F59" stroke-width="1.5" stroke-linejoin="round"/>
<path d="M9.69137 9.09332C11.7891 9.09332 13.4277 7.31815 13.4277 5.20681C13.4277 3.09548 11.7891 1.32031 9.69137 1.32031C7.59363 1.32031 5.95508 3.09548 5.95508 5.20681C5.95508 7.31815 7.59363 9.09332 9.69137 9.09332Z" fill="white" stroke="#665F59" stroke-width="1.5" stroke-linejoin="round"/>
<mask id="path-3-outside-1_9687_136780" maskUnits="userSpaceOnUse" x="-0.00195312" y="9.03125" width="26" height="15" fill="black">
<rect fill="white" x="-0.00195312" y="9.03125" width="26" height="15"/>
<path fill-rule="evenodd" clip-rule="evenodd" d="M18.0191 17.7351C20.0612 17.8723 22.2056 17.1721 23.9983 15.3005C23.9983 15.3005 23.746 13.1228 22.6575 12.2255C21.1319 10.9679 19.6189 11.0027 17.7072 11.0466C17.3395 11.055 16.9571 11.0638 16.5569 11.0638C14.8743 11.383 13.9367 12.1323 13.4128 13.0749C13.3097 13.1314 13.2283 13.2021 13.1725 13.2886C11.7821 12.823 10.3168 12.8567 8.6184 12.8957C8.12206 12.9071 7.60581 12.919 7.0657 12.919C3.17447 13.657 2.23525 16.0998 1.99805 18.6385C5.77066 22.4626 12.3564 23.6022 17.1105 18.6385C17.1105 18.6385 17.5001 18.2956 18.0191 17.7351Z"/>
</mask>
<path fill-rule="evenodd" clip-rule="evenodd" d="M18.0191 17.7351C20.0612 17.8723 22.2056 17.1721 23.9983 15.3005C23.9983 15.3005 23.746 13.1228 22.6575 12.2255C21.1319 10.9679 19.6189 11.0027 17.7072 11.0466C17.3395 11.055 16.9571 11.0638 16.5569 11.0638C14.8743 11.383 13.9367 12.1323 13.4128 13.0749C13.3097 13.1314 13.2283 13.2021 13.1725 13.2886C11.7821 12.823 10.3168 12.8567 8.6184 12.8957C8.12206 12.9071 7.60581 12.919 7.0657 12.919C3.17447 13.657 2.23525 16.0998 1.99805 18.6385C5.77066 22.4626 12.3564 23.6022 17.1105 18.6385C17.1105 18.6385 17.5001 18.2956 18.0191 17.7351Z" fill="white"/>
<path d="M23.9983 15.3005L25.0746 16.3315C25.3817 16.0109 25.5299 15.57 25.4788 15.129L23.9983 15.3005ZM18.0191 17.7351L18.1191 16.248C17.67 16.2178 17.2313 16.3922 16.9255 16.7225L18.0191 17.7351ZM22.6575 12.2255L23.6056 11.0755L23.6056 11.0755L22.6575 12.2255ZM17.7072 11.0466L17.7415 12.5366L17.7072 11.0466ZM16.5569 11.0638L16.557 9.57345C16.4638 9.57345 16.3708 9.58219 16.2792 9.59955L16.5569 11.0638ZM13.4128 13.0749L14.1286 14.3822C14.3754 14.247 14.5788 14.0449 14.7155 13.799L13.4128 13.0749ZM13.1725 13.2886L12.6993 14.7019C13.3451 14.9181 14.0553 14.6691 14.4247 14.0969L13.1725 13.2886ZM8.6184 12.8957L8.58416 11.4057L8.6184 12.8957ZM7.0657 12.919L7.06571 11.4286C6.97252 11.4286 6.87953 11.4373 6.78796 11.4547L7.0657 12.919ZM1.99805 18.6385L0.514125 18.4999C0.473185 18.9381 0.627997 19.3719 0.937074 19.6852L1.99805 18.6385ZM17.1105 18.6385L16.1259 17.5197C16.0941 17.5477 16.0635 17.577 16.0342 17.6076L17.1105 18.6385ZM22.922 14.2696C21.437 15.8199 19.7245 16.3559 18.1191 16.248L17.9192 19.2221C20.398 19.3887 22.9742 18.5243 25.0746 16.3315L22.922 14.2696ZM21.7095 13.3755C21.8973 13.5303 22.1285 13.934 22.3099 14.5321C22.3897 14.7954 22.4434 15.0403 22.4767 15.2193C22.4932 15.3078 22.5043 15.3776 22.5109 15.4223C22.5142 15.4446 22.5163 15.4604 22.5174 15.469C22.518 15.4733 22.5183 15.4758 22.5184 15.4764C22.5184 15.4766 22.5184 15.4764 22.5183 15.4757C22.5182 15.4753 22.5182 15.4749 22.5181 15.4743C22.5181 15.474 22.518 15.4736 22.518 15.4733C22.518 15.4731 22.5179 15.4728 22.5179 15.4727C22.5179 15.4724 22.5178 15.4721 23.9983 15.3005C25.4788 15.129 25.4788 15.1287 25.4787 15.1283C25.4787 15.1282 25.4787 15.1279 25.4786 15.1276C25.4786 15.1271 25.4785 15.1266 25.4785 15.126C25.4783 15.1249 25.4782 15.1236 25.478 15.1222C25.4777 15.1194 25.4773 15.116 25.4768 15.1122C25.4758 15.1044 25.4746 15.0945 25.473 15.0827C25.4699 15.0589 25.4656 15.0271 25.4598 14.9881C25.4484 14.9102 25.4312 14.8029 25.4071 14.6732C25.3591 14.4159 25.2816 14.0603 25.1623 13.667C24.9455 12.9518 24.5063 11.8181 23.6056 11.0755L21.7095 13.3755ZM17.7415 12.5366C19.7001 12.4916 20.6626 12.5125 21.7095 13.3755L23.6056 11.0755C21.6013 9.42331 19.5378 9.51376 17.673 9.55661L17.7415 12.5366ZM16.5569 12.5542C16.9768 12.5542 17.3759 12.545 17.7415 12.5366L17.673 9.55661C17.3032 9.56511 16.9374 9.57345 16.557 9.57345L16.5569 12.5542ZM14.7155 13.799C14.9928 13.3001 15.5179 12.7778 16.8346 12.5281L16.2792 9.59955C14.2306 9.98808 12.8807 10.9645 12.1101 12.3509L14.7155 13.799ZM14.4247 14.0969C14.3193 14.2602 14.1953 14.3457 14.1286 14.3822L12.697 11.7677C12.4242 11.9171 12.1374 12.144 11.9204 12.4803L14.4247 14.0969ZM8.65264 14.3857C10.4081 14.3454 11.6004 14.3339 12.6993 14.7019L13.6457 11.8753C11.9638 11.3121 10.2255 11.368 8.58416 11.4057L8.65264 14.3857ZM7.06568 14.4094C7.62552 14.4094 8.15841 14.3971 8.65264 14.3857L8.58416 11.4057C8.08571 11.4172 7.58609 11.4286 7.06571 11.4286L7.06568 14.4094ZM3.48197 18.7772C3.58999 17.621 3.8442 16.6905 4.36198 15.9869C4.84838 15.326 5.69298 14.6963 7.34343 14.3833L6.78796 11.4547C4.54718 11.8797 2.97656 12.8405 1.96124 14.2201C0.977307 15.5571 0.643302 17.1173 0.514125 18.4999L3.48197 18.7772ZM16.0342 17.6076C11.9754 21.8453 6.36522 20.9431 3.05902 17.5918L0.937074 19.6852C5.17609 23.982 12.7374 25.3591 18.1868 19.6694L16.0342 17.6076ZM16.9255 16.7225C16.689 16.978 16.4828 17.1829 16.3381 17.3219C16.2658 17.3912 16.2093 17.4437 16.1726 17.4774C16.1542 17.4942 16.1408 17.5063 16.1328 17.5135C16.1289 17.5171 16.1262 17.5194 16.1251 17.5204C16.1245 17.5209 16.1242 17.5212 16.1244 17.521C16.1244 17.521 16.1246 17.5208 16.1249 17.5206C16.125 17.5205 16.1251 17.5204 16.1253 17.5202C16.1254 17.5201 16.1255 17.5201 16.1256 17.52C16.1256 17.5199 16.1257 17.5199 16.1257 17.5198C16.1258 17.5198 16.1259 17.5197 17.1105 18.6385C18.0951 19.7574 18.0952 19.7573 18.0953 19.7572C18.0953 19.7572 18.0954 19.7571 18.0955 19.7571C18.0956 19.757 18.0957 19.7568 18.0958 19.7567C18.0961 19.7565 18.0964 19.7562 18.0967 19.756C18.0973 19.7554 18.0981 19.7548 18.0989 19.754C18.1005 19.7526 18.1026 19.7508 18.1049 19.7487C18.1097 19.7444 18.116 19.7388 18.1237 19.7319C18.1391 19.7181 18.1601 19.6991 18.1864 19.675C18.2389 19.6269 18.3123 19.5586 18.4023 19.4722C18.5821 19.2995 18.8303 19.0527 19.1128 18.7476L16.9255 16.7225Z" fill="#665F59" mask="url(#path-3-outside-1_9687_136780)"/>
</svg>
