<svg width="15" height="18" viewBox="0 0 15 18" fill="none" xmlns="http://www.w3.org/2000/svg">
<path d="M13.3337 15.8342H1.66702V6.66753H13.3337V15.8342ZM13.3337 2.50086H12.5003V0.834198H10.8337V2.50086H4.16702V0.834198H2.50035V2.50086H1.66702C0.742018 2.50086 0.000350952 3.25086 0.000350952 4.16753V15.8342C0.000350952 16.2762 0.175946 16.7001 0.488506 17.0127C0.801067 17.3253 1.22499 17.5009 1.66702 17.5009H13.3337C13.7757 17.5009 14.1996 17.3253 14.5122 17.0127C14.8248 16.7001 15.0003 16.2762 15.0003 15.8342V4.16753C15.0003 3.7255 14.8248 3.30158 14.5122 2.98902C14.1996 2.67646 13.7757 2.50086 13.3337 2.50086ZM11.2754 9.21753L10.392 8.3342L6.32535 12.4009L4.55868 10.6342L3.67535 11.5175L6.32535 14.1675L11.2754 9.21753Z" fill="#697385"/>
</svg>
