<svg width="120" height="120" viewBox="0 0 120 120" fill="none" xmlns="http://www.w3.org/2000/svg">
<circle cx="60" cy="60" r="60" fill="#EFEFEF"/>
<mask id="mask0_2_51" style="mask-type:alpha" maskUnits="userSpaceOnUse" x="0" y="0" width="120" height="120">
<circle cx="60" cy="60" r="60" fill="#EFEFEF"/>
</mask>
<g mask="url(#mask0_2_51)">
<path d="M152.85 72.6045L152.75 71.7945L142.6 69.5045C140.74 69.0845 138.86 68.7745 136.97 68.5645L101.97 64.7245L87 61.8545L86.56 64.1845L101.56 67.0545H101.59L136.69 70.8945C138.49 71.0945 140.28 71.4045 142.05 71.8045L150.61 73.7645L158.1 129.064L160.39 133.384C160.69 132.344 160.77 131.254 160.63 130.184L152.84 72.6245L152.85 72.6045Z" fill="#F59500"/>
<path d="M86.91 64.9845L91.5 65.5245L92.11 62.6245L87.93 61.3145L86.92 64.9945L86.91 64.9845Z" fill="#BC6F00"/>
<path d="M-44.93 149.714L-57 149.744L-56.22 147.314L-44.92 147.384H-44.89C-41.75 147.384 -39.43 146.474 -37.84 144.554C-35.04 141.244 -34.47 134.944 -36.09 125.804C-36.46 123.714 -38.32 117.814 -39.33 114.644C-41.36 108.484 -42.1 101.984 -41.49 95.5245L-39.7 77.2845L-40.04 76.0345L-38.99 75.6645C-37.1 75.0245 -21.36 71.6145 4.2 66.1245C14.35 63.9345 24.84 61.7045 34.92 59.5145L35.43 61.8045C25.31 63.9945 14.83 66.2545 4.71 68.4145C-14.61 72.5645 -32.95 76.5045 -37.37 77.6145L-39.16 95.6845C-39.75 101.824 -39.05 108.014 -37.1 113.854C-36.8 114.734 -34.27 122.584 -33.76 125.314C-31.97 135.294 -32.71 142.074 -36.02 145.984C-38.08 148.444 -41.08 149.694 -44.92 149.694L-44.93 149.714Z" fill="#F59500"/>
<path d="M23.99 61.5045L24.77 64.4345L28.92 63.8645V60.2945L24 61.5045H23.99Z" fill="#BC6F00"/>
<path d="M72.85 50.3445L79.39 51.1245C80.66 51.2645 81.9 51.6645 83.02 52.2845C84.14 52.9045 85.13 53.7445 85.92 54.7545C86.72 55.7645 87.31 56.9145 87.65 58.1445C88 59.3745 88.1 60.6745 87.95 61.9445L87.78 63.2945C87.64 64.5645 87.24 65.8045 86.62 66.9245C86 68.0445 85.16 69.0345 84.15 69.8245C83.14 70.6245 81.99 71.2145 80.76 71.5545C79.53 71.9045 78.23 72.0045 76.96 71.8545L70.42 71.0745C69.23 70.9345 68.14 70.3245 67.39 69.3845C66.64 68.4445 66.3 67.2445 66.44 66.0545L67.82 54.3245C67.97 53.1345 68.58 52.0445 69.52 51.3045C70.46 50.5645 71.66 50.2145 72.85 50.3445Z" fill="#F59500"/>
<g opacity="0.3">
<path opacity="0.3" d="M71.43 71.1845C71.43 71.1845 74.23 68.1845 75.11 59.9945C75.75 53.9945 73.76 50.4545 73.76 50.4545L72.98 50.3545C72.98 50.3545 74.29 59.0545 73.45 61.1145C72.61 63.1745 71.09 71.1645 71.09 71.1645L71.43 71.1945V71.1845Z" fill="#859157"/>
</g>
<path d="M65.97 60.2345C66.85 52.7845 67.59 46.1745 71.6 47.1845C73.79 47.7245 74.97 53.7245 74.1 61.1745C73.22 68.6245 70.69 73.9545 68.47 74.2245C64.63 74.6545 65.1 67.7145 65.97 60.2345V60.2345Z" fill="#F59500"/>
<path d="M72.28 60.9645C73.15 53.4945 72.31 47.2545 70.41 47.0345C68.5 46.8145 66.26 52.6945 65.39 60.1645C64.52 67.6345 65.36 73.8745 67.26 74.0945C69.17 74.3145 71.41 68.4345 72.28 60.9645Z" fill="#F59500"/>
<path d="M72.28 60.9645C73.15 53.4945 72.31 47.2545 70.41 47.0345C68.5 46.8145 66.26 52.6945 65.39 60.1645C64.52 67.6345 65.36 73.8745 67.26 74.0945C69.17 74.3145 71.41 68.4345 72.28 60.9645Z" fill="#BC6F00"/>
<path d="M69.64 56.5845C69.51 57.7945 69.07 58.7745 68.66 58.7045C68.26 58.6345 68.09 57.6245 68.22 56.4145C68.35 55.2045 68.79 54.2245 69.2 54.2945C69.6 54.3645 69.77 55.3745 69.64 56.5845Z" fill="#EFDFAE"/>
<path d="M68.83 64.8144C68.7 66.0244 68.26 67.0044 67.85 66.9344C67.45 66.8644 67.28 65.8545 67.41 64.6445C67.54 63.4345 67.98 62.4544 68.39 62.5244C68.79 62.5944 68.96 63.5744 68.83 64.8144Z" fill="#EFDFAE"/>
<path d="M46.28 69.3345L39.81 70.5145C37.26 70.9745 34.64 70.4145 32.51 68.9445C30.38 67.4745 28.92 65.2244 28.44 62.6844L28.2 61.3345C27.74 58.7945 28.3 56.1645 29.77 54.0345C31.24 51.9045 33.49 50.4445 36.03 49.9645L42.5 48.7845C43.08 48.6745 43.68 48.6845 44.27 48.8145C44.85 48.9445 45.4 49.1745 45.89 49.5145C46.38 49.8545 46.8 50.2845 47.12 50.7845C47.44 51.2845 47.66 51.8445 47.77 52.4245L49.89 64.0545C50 64.6345 50 65.2345 49.89 65.8145C49.77 66.3945 49.54 66.9445 49.2 67.4345C48.86 67.9245 48.44 68.3445 47.94 68.6645C47.44 68.9845 46.88 69.2045 46.3 69.3145L46.28 69.3345Z" fill="#F59500"/>
<g opacity="0.3">
<path opacity="0.3" d="M41.52 49.0045C41.52 49.0045 39.7 52.6845 41.28 60.7745C42.43 66.7045 45.36 69.5045 45.36 69.5045L46.14 69.3745C46.14 69.3745 42.33 61.4145 42.53 59.2545C42.73 57.0945 41.86 48.9745 41.86 48.9745L41.52 49.0045V49.0045Z" fill="#859157"/>
</g>
<path d="M49.99 57.8745C51.34 65.2545 52.55 71.7645 48.41 72.0045C46.15 72.1345 43.28 66.7445 41.94 59.3645C40.59 51.9845 41.43 46.1445 43.52 45.2345C47.03 43.6745 48.65 50.4845 49.99 57.8745Z" fill="#F59500"/>
<path d="M50.53 57.7645C51.88 65.1445 51.47 71.4245 49.59 71.7545C47.7 72.0945 45.07 66.3945 43.72 59.0045C42.37 51.6245 42.78 45.3445 44.66 45.0145C46.55 44.6745 49.18 50.3745 50.53 57.7645Z" fill="#F59500"/>
<path d="M50.53 57.7645C51.88 65.1445 51.47 71.4245 49.59 71.7545C47.7 72.0945 45.07 66.3945 43.72 59.0045C42.37 51.6245 42.78 45.3445 44.66 45.0145C46.55 44.6745 49.18 50.3745 50.53 57.7645Z" fill="#BC6F00"/>
<path d="M56.76 53.6845L46.38 55.6045C46.38 55.6045 46.35 55.6045 46.31 55.5745C45.53 54.5245 45.33 53.4845 45.74 52.4345V52.4145C45.74 52.4145 45.75 52.4145 45.76 52.4145L56.14 50.4945C56.35 50.4545 56.57 50.4545 56.78 50.4945C56.99 50.5345 57.19 50.6245 57.36 50.7445C57.53 50.8645 57.69 51.0245 57.8 51.2045C57.91 51.3845 57.99 51.5845 58.03 51.7945C58.07 52.0045 58.07 52.2145 58.03 52.4245C57.99 52.6345 57.91 52.8345 57.79 53.0045C57.67 53.1845 57.52 53.3345 57.34 53.4445C57.16 53.5645 56.96 53.6345 56.75 53.6745L56.76 53.6845Z" fill="#FFC75A"/>
<path d="M58.35 62.2845L47.93 64.2045C47.19 63.2245 46.88 62.1845 47.36 61.0345L57.78 59.1145C57.99 59.0745 58.21 59.0745 58.42 59.1145C58.63 59.1545 58.83 59.2445 59 59.3645C59.18 59.4845 59.33 59.6445 59.44 59.8245C59.55 60.0045 59.63 60.2045 59.67 60.4145C59.73 60.8345 59.63 61.2645 59.38 61.6045C59.14 61.9545 58.77 62.1845 58.35 62.2645V62.2845Z" fill="#FFC75A"/>
</g>
</svg>
