<svg width="20" height="20" viewBox="0 0 20 20" fill="none" xmlns="http://www.w3.org/2000/svg">
<path d="M17.083 5.41797H2.91634C2.4561 5.41797 2.08301 5.79106 2.08301 6.2513V15.418C2.08301 15.8782 2.4561 16.2513 2.91634 16.2513H17.083C17.5432 16.2513 17.9163 15.8782 17.9163 15.418V6.2513C17.9163 5.79106 17.5432 5.41797 17.083 5.41797Z" fill="#CA005D"/>
<path fill-rule="evenodd" clip-rule="evenodd" d="M2.91634 6.04297C2.80128 6.04297 2.70801 6.13624 2.70801 6.2513V15.418C2.70801 15.533 2.80128 15.6263 2.91634 15.6263H17.083C17.1981 15.6263 17.2913 15.533 17.2913 15.418V6.2513C17.2913 6.13624 17.1981 6.04297 17.083 6.04297H2.91634ZM1.45801 6.2513C1.45801 5.44589 2.11093 4.79297 2.91634 4.79297H17.083C17.8884 4.79297 18.5413 5.44589 18.5413 6.2513V15.418C18.5413 16.2234 17.8884 16.8763 17.083 16.8763H2.91634C2.11093 16.8763 1.45801 16.2234 1.45801 15.418V6.2513Z" fill="#CA005D"/>
<path fill-rule="evenodd" clip-rule="evenodd" d="M9.79199 8.33203C9.79199 7.98685 10.0718 7.70703 10.417 7.70703H17.917C18.2622 7.70703 18.542 7.98685 18.542 8.33203V12.9154C18.542 13.2605 18.2622 13.5404 17.917 13.5404H10.417C10.0718 13.5404 9.79199 13.2605 9.79199 12.9154V8.33203ZM11.042 8.95703V12.2904H17.292V8.95703H11.042Z" fill="#FFFBFF"/>
<path fill-rule="evenodd" clip-rule="evenodd" d="M17.917 6.875C18.2622 6.875 18.542 7.15482 18.542 7.5V13.75C18.542 14.0952 18.2622 14.375 17.917 14.375C17.5718 14.375 17.292 14.0952 17.292 13.75V7.5C17.292 7.15482 17.5718 6.875 17.917 6.875Z" fill="#CA005D"/>
<path fill-rule="evenodd" clip-rule="evenodd" d="M3.20891 3.21341C3.61082 2.6802 4.26611 2.29297 5.20801 2.29297H11.2497C11.6739 2.29297 12.3452 2.42838 12.923 2.90426C13.5275 3.40207 13.958 4.21362 13.958 5.41797C13.958 5.76315 13.6782 6.04297 13.333 6.04297C12.9878 6.04297 12.708 5.76315 12.708 5.41797C12.708 4.53899 12.4093 4.10053 12.1284 3.86918C11.8208 3.61589 11.4505 3.54297 11.2497 3.54297H5.20801C4.6499 3.54297 4.3677 3.75275 4.20711 3.96581C4.02383 4.20897 3.95801 4.51649 3.95801 4.70901V5.41797C3.95801 5.76315 3.67819 6.04297 3.33301 6.04297C2.98783 6.04297 2.70801 5.76315 2.70801 5.41797V4.70901C2.70801 4.30452 2.82969 3.71652 3.20891 3.21341Z" fill="#CA005D"/>
<path d="M13.958 11.25C14.3032 11.25 14.583 10.9702 14.583 10.625C14.583 10.2798 14.3032 10 13.958 10C13.6128 10 13.333 10.2798 13.333 10.625C13.333 10.9702 13.6128 11.25 13.958 11.25Z" fill="#FFFBFF"/>
</svg>
