<svg width="60" height="61" viewBox="0 0 60 61" fill="none" xmlns="http://www.w3.org/2000/svg">
<circle cx="30" cy="30.7759" r="30" fill="#FFECEC"/>
<path d="M25.7358 51.8444H22.1293L21.0669 44.7871H26.2666L25.7358 51.8444Z" fill="#B87292"/>
<path d="M33.7201 51.8444H37.3258L38.389 44.7871H33.1885L33.7201 51.8444Z" fill="#B87292"/>
<path d="M48.9617 31.3167L44.2302 31.0125L44.2247 31.0384C42.3617 25.1179 36.1873 20.77 28.8572 20.77C20.0517 20.77 12.9138 27.0425 12.9138 34.7795C12.9138 42.5164 20.0517 48.7889 28.8572 48.7889C34.4264 48.7889 39.3279 46.2795 42.1789 42.4772C44.6851 41.1578 46.5307 41.161 47.2513 40.4664L48.2869 38.2423C48.3763 38.2344 48.6508 38.2242 48.7307 38.2046L48.9617 31.3159V31.3167Z" fill="#F79CC6"/>
<path d="M23.6374 51.8444H20.0317L18.9685 44.7871H24.1691L23.6374 51.8444Z" fill="#F79CC6"/>
<path d="M31.6207 51.8444H35.2272L36.2896 44.7871H31.0898L31.6207 51.8444Z" fill="#F79CC6"/>
<path d="M48.9632 31.3167L44.2318 31.0125L44.2263 31.0384C42.3633 25.1179 36.1889 20.77 28.8588 20.77C22.4795 20.77 16.9768 24.0619 14.4279 28.8182C12.3411 35.7994 17.8921 46.6824 29.6483 46.6824C36.9262 46.6824 40.5256 40.5283 40.5256 40.5283L47.9206 39.0341L48.2892 38.243C48.3786 38.2352 48.6531 38.225 48.733 38.2054L48.964 31.3167H48.9632Z" fill="#F8BAD7"/>
<path d="M42.4626 27.6011C42.7181 25.5126 44.3612 24.0811 44.6476 22.5665C44.934 21.0519 39.3023 23.4963 36.895 24.4245L42.4626 27.6011Z" fill="#F8BAD7"/>
<path d="M13.1158 33.6849C13.1158 34.9644 10.1889 34.9683 10.3399 33.173C10.2751 32.5333 8.01576 36.6922 13.6324 36.3081L13.1158 33.6849Z" fill="#F79CC6"/>
<path d="M34.0257 25.5421H23.6911C22.9499 25.5421 22.3486 24.9463 22.3486 24.2117C22.3486 23.4772 22.9499 22.8813 23.6911 22.8813H34.0257C34.767 22.8813 35.3682 23.4772 35.3682 24.2117C35.3682 24.9463 34.767 25.5421 34.0257 25.5421Z" fill="#F79CC6"/>
<path d="M23.6914 24.4941C23.2563 24.4941 22.8702 24.7003 22.625 25.0186C22.8702 25.3369 23.2563 25.5431 23.6914 25.5431H34.026C34.4611 25.5431 34.8472 25.3369 35.0924 25.0186C34.8472 24.7003 34.4611 24.4941 34.026 24.4941H23.6914Z" fill="#B87292"/>
<path d="M40.3919 32.2213C40.8375 32.2213 41.1988 31.7057 41.1988 31.0696C41.1988 30.4336 40.8375 29.918 40.3919 29.918C39.9462 29.918 39.585 30.4336 39.585 31.0696C39.585 31.7057 39.9462 32.2213 40.3919 32.2213Z" fill="#790038"/>
<path d="M48.8752 38.1212C48.1023 38.1212 47.7502 35.7379 47.7502 33.5232C47.7502 32.065 47.8768 31.2207 48.5255 31.2207C48.5864 31.2207 48.6473 31.227 48.7067 31.2332C48.7652 31.2395 48.8206 31.2458 48.8752 31.2458C48.9297 31.2458 48.9851 31.2395 49.0437 31.2332C49.1022 31.227 49.1639 31.2207 49.2248 31.2207C49.8735 31.2207 50.0001 32.065 50.0001 33.5232C50.0001 35.7379 49.648 38.1212 48.8752 38.1212Z" fill="#F79CC6"/>
<path d="M48.6708 33.3168C48.6708 33.7323 48.5806 34.0686 48.4691 34.0686C48.3575 34.0686 48.2673 33.7323 48.2673 33.3168C48.2673 32.9013 48.3575 32.5649 48.4691 32.5649C48.5806 32.5649 48.6708 32.9013 48.6708 33.3168Z" fill="#790038"/>
<path d="M49.7347 33.3168C49.7347 33.7323 49.6446 34.0686 49.533 34.0686C49.4215 34.0686 49.3313 33.7323 49.3313 33.3168C49.3313 32.9013 49.4215 32.5649 49.533 32.5649C49.6446 32.5649 49.7347 32.9013 49.7347 33.3168Z" fill="#790038"/>
<path d="M29.7312 28.629C32.5979 27.9585 34.3733 25.1119 33.6967 22.271C33.0201 19.43 30.1477 17.6706 27.281 18.3411C24.4143 19.0116 22.6388 21.8582 23.3154 24.6991C23.992 27.5401 26.8645 29.2996 29.7312 28.629Z" fill="#FFAD30"/>
<path d="M29.3719 27.1186C31.3975 26.6448 32.652 24.6334 32.1739 22.626C31.6958 20.6186 29.6662 19.3754 27.6406 19.8492C25.615 20.3229 24.3605 22.3343 24.8386 24.3417C25.3166 26.3491 27.3463 27.5924 29.3719 27.1186Z" fill="#EB7F1A"/>
<path d="M27.5994 25.5497L26.5418 25.6531L26.4238 24.3597L27.8267 24.4182L27.8534 24.0496L26.4828 23.2731L26.6001 21.6625L28.0009 21.5591L28.4577 21.5399L29.0146 21.5078L29.0081 22.588L27.8793 22.5944L27.8598 22.834L29.1196 23.4742L29.0153 25.4214L28.0555 25.5183L27.5987 25.5504L27.5994 25.5497Z" fill="#FFAD30"/>
<path d="M30.8053 21.3894L30.2244 21.2588L29.0879 26.224L29.6688 26.3546L30.8053 21.3894Z" fill="#FFAD30"/>
<path d="M35.3614 24.0913C35.3653 24.1313 35.3677 24.1713 35.3677 24.212C35.3677 24.9466 34.7665 25.5424 34.0252 25.5424H23.6906C22.9494 25.5424 22.3481 24.9466 22.3481 24.212C22.3481 24.1713 22.3505 24.1313 22.3545 24.0913H21.3308V28.4462H36.1414V24.0913H35.3622H35.3614Z" fill="#F8BAD7"/>
<path d="M24.5967 40.371C29.5629 40.371 33.5889 37.3173 33.5889 33.5505C33.5889 29.7836 29.5629 26.73 24.5967 26.73C19.6304 26.73 15.6045 29.7836 15.6045 33.5505C15.6045 37.3173 19.6304 40.371 24.5967 40.371Z" fill="#F5C9DD"/>
<path d="M13.459 25.055C15.1319 24.6637 16.168 23.0025 15.7731 21.3446C15.3783 19.6867 13.702 18.66 12.0291 19.0513C10.3562 19.4426 9.32009 21.1037 9.71493 22.7616C10.1098 24.4195 11.786 25.4463 13.459 25.055Z" fill="#FFAD30"/>
<path d="M13.2493 24.1747C14.4314 23.8982 15.1635 22.7244 14.8845 21.553C14.6055 20.3815 13.4211 19.656 12.239 19.9325C11.0569 20.209 10.3248 21.3828 10.6038 22.5542C10.8828 23.7257 12.0672 24.4512 13.2493 24.1747Z" fill="#EB7F1A"/>
<path d="M12.2153 23.2576L11.5982 23.318L11.5293 22.5632L12.348 22.5973L12.3635 22.3822L11.5637 21.9291L11.6322 20.9892L12.4496 20.9289L12.7162 20.9176L13.0412 20.8989L13.0374 21.5293L12.3786 21.533L12.3673 21.6728L13.1025 22.0465L13.0416 23.1827L12.4815 23.2393L12.2149 23.2581L12.2153 23.2576Z" fill="#FFAD30"/>
<path d="M14.0856 20.8306L13.7466 20.7544L13.0834 23.652L13.4224 23.7282L14.0856 20.8306Z" fill="#FFAD30"/>
<path d="M21.6458 19.5533C23.7777 19.0546 25.0981 16.9377 24.5949 14.8249C24.0917 12.7121 21.9555 11.4036 19.8236 11.9023C17.6917 12.4009 16.3713 14.5179 16.8745 16.6307C17.3777 18.7435 19.5138 20.052 21.6458 19.5533Z" fill="#FFAD30"/>
<path d="M21.3787 18.4323C22.8851 18.0799 23.8181 16.5841 23.4625 15.0912C23.107 13.5983 21.5976 12.6737 20.0911 13.0261C18.5847 13.3784 17.6518 14.8743 18.0073 16.3672C18.3628 17.86 19.8723 18.7846 21.3787 18.4323Z" fill="#EB7F1A"/>
<path d="M20.0605 17.2647L19.274 17.3416L19.1863 16.3797L20.2296 16.4232L20.2494 16.1491L19.2302 15.5716L19.3174 14.3738L20.3591 14.297L20.6988 14.2826L21.113 14.2588L21.1082 15.0621L20.2687 15.0669L20.2542 15.245L21.1911 15.7212L21.1135 17.1692L20.3998 17.2413L20.06 17.2652L20.0605 17.2647Z" fill="#FFAD30"/>
<path d="M22.4445 14.1699L22.0125 14.0728L21.1673 17.7653L21.5993 17.8625L22.4445 14.1699Z" fill="#FFAD30"/>
<path fill-rule="evenodd" clip-rule="evenodd" d="M35.7529 7.20019C35.5551 6.91245 35.1308 6.91085 34.9309 7.1971L32.6698 10.4352C32.4389 10.7659 32.6745 11.22 33.0779 11.2215L34.0967 11.2253C34.0948 11.2501 34.0938 11.2752 34.0937 11.3005L34.0772 15.8224C34.0752 16.3746 34.5213 16.824 35.0736 16.8261L35.54 16.8279C36.0923 16.8299 36.5416 16.3839 36.5436 15.8316L36.5601 11.3098C36.5602 11.2845 36.5593 11.2594 36.5576 11.2346L37.5765 11.2384C37.9799 11.2399 38.2189 10.7877 37.9904 10.4552L35.7529 7.20019Z" fill="#008428"/>
<circle cx="43.3949" cy="13.1708" r="4.39491" fill="#CA005D"/>
<path d="M41.8195 14.664L41.8195 14.6639L44.8596 11.3899C44.8779 11.3682 44.9003 11.3502 44.9256 11.3371C44.952 11.3234 44.9809 11.3152 45.0106 11.3131C45.0403 11.3111 45.0701 11.3151 45.0981 11.325C45.1262 11.335 45.1519 11.3505 45.1736 11.3708C45.1954 11.3911 45.2128 11.4156 45.2246 11.4429C45.2246 11.4429 45.2246 11.4429 45.2246 11.4429L45.133 11.4828L41.8195 14.664ZM41.8195 14.664C41.7908 14.6949 41.7718 14.7335 41.7647 14.775C41.7576 14.8166 41.7627 14.8593 41.7795 14.898C41.7964 14.9367 41.8241 14.9696 41.8593 14.9928C41.8945 15.016 41.9357 15.0284 41.9779 15.0285L41.9785 15.0285L41.8195 14.664ZM42.0636 14.8911C42.0527 14.9028 42.0395 14.9122 42.0248 14.9187C42.0101 14.9251 41.9942 14.9285 41.9782 14.9285C41.9555 14.9285 41.9332 14.9218 41.9143 14.9093C41.8953 14.8968 41.8803 14.879 41.8713 14.8582C41.8622 14.8373 41.8594 14.8143 41.8632 14.7919C41.8671 14.7694 41.8773 14.7486 41.8928 14.732L42.0636 14.8911ZM42.0636 14.8911L42.1369 14.9591L42.1369 14.9591L45.1769 11.6853L42.0636 14.8911Z" fill="white" stroke="white" stroke-width="0.2"/>
<path d="M44.4916 15.0284L44.4917 15.0284C44.6894 15.0281 44.8788 14.9494 45.0186 14.8096C45.1584 14.6699 45.237 14.4804 45.2374 14.2828V14.2826C45.2374 14.1351 45.1937 13.9909 45.1117 13.8682C45.0298 13.7455 44.9133 13.6499 44.777 13.5935C44.6407 13.537 44.4907 13.5223 44.346 13.5511C44.2014 13.5798 44.0685 13.6509 43.9642 13.7552C43.8598 13.8595 43.7888 13.9924 43.76 14.1371C43.7313 14.2817 43.746 14.4317 43.8025 14.568C43.8589 14.7043 43.9545 14.8208 44.0772 14.9027C44.1998 14.9847 44.344 15.0284 44.4916 15.0284ZM44.3179 14.0282C44.3693 13.9938 44.4296 13.9754 44.4914 13.9754C44.5735 13.9757 44.6521 14.0081 44.7105 14.0658C44.7689 14.1235 44.8022 14.2019 44.8034 14.284L44.9034 14.2826L44.8034 14.2837C44.8041 14.3455 44.7864 14.4062 44.7526 14.4579C44.7187 14.5097 44.6703 14.5502 44.6134 14.5743C44.5565 14.5985 44.4936 14.6052 44.4329 14.5935C44.3722 14.5819 44.3163 14.5525 44.2723 14.509C44.2284 14.4655 44.1983 14.41 44.186 14.3494C44.1737 14.2888 44.1796 14.2259 44.2031 14.1687C44.2266 14.1116 44.2666 14.0626 44.3179 14.0282Z" fill="white" stroke="white" stroke-width="0.2"/>
<path d="M42.5079 12.8053L42.5081 12.8053C42.7039 12.8035 42.8912 12.7249 43.0296 12.5865C43.1681 12.448 43.2466 12.2608 43.2484 12.065L43.2484 12.0648C43.2494 11.9168 43.2065 11.7719 43.1249 11.6484C43.0434 11.5249 42.927 11.4285 42.7905 11.3714C42.6539 11.3143 42.5035 11.299 42.3584 11.3276C42.2132 11.3563 42.0798 11.4274 41.9751 11.532C41.8705 11.6367 41.7994 11.7701 41.7708 11.9152C41.7422 12.0604 41.7574 12.2108 41.8145 12.3473C41.8716 12.4838 41.9681 12.6003 42.0915 12.6818C42.215 12.7634 42.36 12.8063 42.5079 12.8053ZM42.3319 11.8031C42.3836 11.7692 42.4442 11.7515 42.5061 11.7522L42.5072 11.6522L42.5058 11.7522C42.5879 11.7534 42.6662 11.7868 42.724 11.8451C42.7817 11.9035 42.8141 11.9823 42.8144 12.0644L42.9144 12.0641L42.8144 12.0641C42.8144 12.1259 42.796 12.1863 42.7616 12.2377C42.7271 12.2891 42.6782 12.329 42.621 12.3525C42.5638 12.376 42.501 12.382 42.4404 12.3697C42.3798 12.3573 42.3242 12.3273 42.2808 12.2833C42.2373 12.2393 42.2079 12.1834 42.1962 12.1227C42.1846 12.062 42.1913 11.9992 42.2154 11.9423C42.2396 11.8854 42.2801 11.8369 42.3319 11.8031Z" fill="white" stroke="white" stroke-width="0.2"/>
</svg>
